<?xml version="1.0" encoding="UTF-8"?>
<svg id="_레이어_2" data-name="레이어 2" xmlns="http://www.w3.org/2000/svg" viewBox="0 0 227.789 225.197">
  <defs>
    <style>
      .cls-1 {
        fill: #f66;
      }

      .cls-1, .cls-2, .cls-3, .cls-4, .cls-5, .cls-6 {
        stroke-width: 0px;
      }

      .cls-2 {
        fill: #ff4c4c;
      }

      .cls-3 {
        fill: #fff4dd;
      }

      .cls-4 {
        fill: #674f4b;
      }

      .cls-5 {
        fill: #594340;
      }

      .cls-6 {
        fill: #c4896c;
      }
    </style>
  </defs>
  <g id="_레이어_1-2" data-name="레이어 1">
    <g>
      <g>
        <path class="cls-6" d="M127.023,22.448c-1.702-3.026-1.117-6.879.39-10.007,2.75-5.711,8.449-9.846,14.698-10.906,6.249-1.061,12.898.902,17.717,5.02,4.819,4.117,7.776,10.276,8.203,16.6.217,3.212-.206,6.515-1.608,9.412s-3.844,5.357-6.883,6.417"/>
        <path class="cls-4" d="M159.541,40.234c-.517,0-1-.323-1.18-.839-.228-.651.117-1.364.768-1.592,2.579-.898,4.828-3.006,6.169-5.78,1.194-2.468,1.707-5.505,1.486-8.784-.408-6.045-3.312-11.927-7.769-15.734-4.629-3.954-10.868-5.726-16.696-4.737-5.952,1.01-11.232,4.925-13.781,10.216-1.561,3.241-1.721,6.551-.426,8.854.338.602.124,1.363-.477,1.702-.601.336-1.364.124-1.702-.478-1.719-3.059-1.59-7.127.354-11.163,2.895-6.009,8.878-10.452,15.615-11.596,6.546-1.107,13.551.87,18.738,5.302,5.031,4.298,8.18,10.664,8.639,17.467.25,3.711-.348,7.183-1.729,10.04-1.628,3.367-4.397,5.939-7.597,7.054-.136.047-.275.069-.412.069Z"/>
      </g>
      <path class="cls-3" d="M135.902,23.691c-.899-5.542,3.184-11.422,8.691-12.516,5.507-1.094,11.527,2.779,12.815,8.244,1.288,5.465-2.37,11.618-7.786,13.098"/>
      <g>
        <path class="cls-6" d="M52.813,43.883c-.174-3.468-2.723-6.415-5.666-8.258-5.372-3.365-12.398-3.824-18.25-1.39-5.852,2.435-10.43,7.64-12.312,13.693-1.882,6.053-1.1,12.84,1.911,18.418,1.529,2.833,3.648,5.401,6.379,7.105,2.731,1.704,6.108,2.483,9.245,1.759"/>
        <path class="cls-4" d="M31.706,76.73c-2.538,0-5.161-.763-7.492-2.218-2.693-1.681-5.05-4.299-6.817-7.572-3.238-6-3.969-13.064-2.005-19.383,2.025-6.514,6.895-11.926,13.026-14.477,6.31-2.622,13.741-2.057,19.393,1.484,3.796,2.379,6.075,5.752,6.251,9.256.035.689-.496,1.276-1.185,1.311-.707.03-1.277-.496-1.311-1.186-.132-2.637-2.032-5.352-5.081-7.262-4.977-3.117-11.531-3.614-17.106-1.295-5.455,2.27-9.791,7.096-11.598,12.91-1.74,5.597-1.06,12.121,1.817,17.453,1.561,2.893,3.615,5.188,5.94,6.639,2.615,1.631,5.64,2.215,8.302,1.602.671-.162,1.344.265,1.498.936.155.673-.264,1.344-.937,1.499-.875.202-1.78.302-2.695.302Z"/>
      </g>
      <path class="cls-3" d="M45.964,49.668c-2.195-5.168-8.784-7.965-14.026-5.954-5.242,2.011-8.27,8.497-6.446,13.807,1.825,5.31,8.2,8.565,13.571,6.929"/>
      <g>
        <path class="cls-6" d="M51.544,87.757c.705,17.216-5.306,27.463-9.256,44.192-3.949,16.729-10.218,39.485-2.455,55.336,6.678,13.633,14.525,15.975,29.369,22.082,14.844,6.107,36.532,8.032,52.369,7.665,14.53-.337,32.349-.678,44.578-7.627,17.799-10.113,26.738-22.062,22.146-44.518-5.449-26.648-17.602-58.401-25.121-84.668"/>
        <path class="cls-4" d="M117.807,218.324c-15.205,0-35.036-2.023-49.08-7.801-1.073-.441-2.11-.863-3.112-1.272-12.784-5.203-20.5-8.343-26.904-21.417-7.448-15.206-2.458-36.041,1.553-52.782.276-1.154.547-2.285.808-3.391,1.254-5.314,2.699-9.926,4.095-14.387,3.006-9.6,5.603-17.892,5.128-29.468-.028-.69.508-1.271,1.198-1.3.679-.045,1.271.507,1.3,1.198.492,12.01-2.164,20.494-5.24,30.316-1.383,4.419-2.814,8.988-4.047,14.214-.262,1.108-.533,2.242-.81,3.399-3.916,16.352-8.791,36.701-1.739,51.1,5.984,12.218,12.952,15.053,25.601,20.201,1.005.409,2.044.832,3.121,1.274,14.888,6.124,36.551,7.928,51.863,7.57l.463-.011c14.123-.326,31.701-.733,43.527-7.453,16.331-9.279,26.244-20.173,21.539-43.181-3.468-16.961-9.669-36.016-15.665-54.443-3.452-10.608-6.713-20.629-9.433-30.131-.19-.663.194-1.355.857-1.546.666-.187,1.355.194,1.546.858,2.708,9.459,5.962,19.458,9.407,30.044,6.019,18.494,12.242,37.618,15.738,54.718,4.284,20.952-2.308,34.237-22.753,45.854-12.374,7.031-30.3,7.445-44.705,7.779l-.463.011c-1.225.028-2.493.043-3.792.043Z"/>
      </g>
      <g>
        <path class="cls-6" d="M52.12,109.06c-9.093-8.887-16.454-22.931-16.787-35.641s4.463-25.482,13.079-34.832c8.066-8.754,20.41-15.212,31.914-18.269,11.504-3.057,19.844-5.05,31.747-5.09,9.553-.032,19.374,1.595,27.939,5.827,10.426,5.152,18.63,16.923,22.01,28.051,3.38,11.128,2.15,19.8.959,31.368"/>
        <path class="cls-4" d="M52.12,110.31c-.315,0-.63-.118-.873-.356-10.104-9.874-16.841-24.202-17.163-36.503-.342-13.075,4.545-26.092,13.409-35.711,7.633-8.284,19.788-15.249,32.513-18.631,11.568-3.073,20.049-5.092,32.064-5.132,10.821-.013,20.425,1.968,28.497,5.956,9.937,4.911,18.829,16.219,22.652,28.809,3.232,10.638,2.353,19.012,1.241,29.614l-.234,2.245c-.071.688-.687,1.188-1.372,1.115-.687-.07-1.186-.685-1.116-1.371l.235-2.25c1.083-10.321,1.938-18.474-1.146-28.627-3.633-11.961-12.021-22.674-21.368-27.293-7.722-3.816-16.926-5.731-27.38-5.698-11.715.039-20.051,2.024-31.431,5.048-12.285,3.265-23.992,9.96-31.316,17.908-8.427,9.146-13.074,21.522-12.749,33.953.301,11.504,6.896,25.481,16.411,34.78.494.482.503,1.273.021,1.768-.245.25-.569.376-.894.376Z"/>
      </g>
      <path class="cls-5" d="M78.76,56.678c.059,2.616-1.955,4.784-4.499,4.841-2.544.057-4.654-2.017-4.712-4.634-.059-2.616,1.955-4.784,4.499-4.841s4.653,2.017,4.712,4.634Z"/>
      <path class="cls-5" d="M120.171,44.717c.059,2.616-1.955,4.784-4.499,4.841-2.544.057-4.653-2.017-4.712-4.634-.059-2.616,1.955-4.784,4.499-4.841s4.653,2.018,4.712,4.634Z"/>
      <circle class="cls-1" cx="60.819" cy="80.026" r="15.744" transform="translate(-39.689 78.904) rotate(-52.126)"/>
      <path class="cls-3" d="M59.168,71.784c.226,1.735-.997,3.325-2.732,3.551-1.735.226-3.325-.997-3.551-2.732-.226-1.735.997-3.325,2.732-3.551,1.735-.226,3.325.997,3.551,2.732Z"/>
      <path class="cls-3" d="M81.411,85.329c-2.199-3.96-2.593-8.763-1.67-13.198.922-4.435,3.082-8.534,5.713-12.222,1.409-1.975,2.98-3.87,4.932-5.311,1.952-1.441,4.325-2.407,6.75-2.346,7.949.197,12.732,4.849,17.874,10.52,6.809,7.511,9.21,16.957,1.294,23.591-7.706,6.459-19.845,9.617-29.088,4.702-2.432-1.293-4.469-3.332-5.805-5.737Z"/>
      <g>
        <path class="cls-6" d="M131.75,54.245c-7.636,1.264-14.72,5.593-19.326,11.813-4.607,6.219-6.685,14.257-5.668,21.93"/>
        <path class="cls-4" d="M106.753,89.237c-.618,0-1.154-.457-1.238-1.086-1.062-8.017,1.09-16.341,5.903-22.838,4.812-6.497,12.148-10.981,20.127-12.302.683-.118,1.324.348,1.437,1.029.112.681-.348,1.324-1.029,1.438-7.344,1.215-14.096,5.343-18.526,11.323-4.43,5.981-6.411,13.643-5.434,21.022.09.685-.391,1.312-1.075,1.403-.056.007-.111.011-.166.011Z"/>
      </g>
      <path class="cls-5" d="M94.59,54.056c-.116.034-.231.065-.346.093-.895.221-1.785.302-2.504.227-1.462-.152-1.862-.908-1.97-1.345-.382-1.548,1.609-2.629,3.435-3.076.895-.222,1.784-.303,2.505-.228,1.463.153,1.863.908,1.97,1.345.358,1.45-1.371,2.486-3.09,2.983ZM95.824,51.943l.01-.003-.01.003ZM93.471,52.115c.084-.018.168-.036.255-.058.088-.022.173-.045.255-.069-.083.018-.169.037-.257.059-.087.021-.171.044-.253.067Z"/>
      <g>
        <circle class="cls-1" cx="141.642" cy="63.436" r="16.204" transform="translate(-9.904 96.906) rotate(-36.58)"/>
        <path class="cls-3" d="M138.029,56.865c.233,1.786-1.026,3.422-2.812,3.655-1.786.233-3.422-1.026-3.655-2.812s1.026-3.422,2.812-3.655,3.422,1.026,3.655,2.812Z"/>
      </g>
      <path class="cls-5" d="M93.335,62.92c-.682,0-1.331-.049-1.925-.151-.68-.117-1.137-.764-1.02-1.444s.767-1.138,1.444-1.019c2.856.488,7.816-.686,9.833-2.337.533-.435,1.32-.359,1.759.177.437.534.358,1.321-.176,1.759-2.165,1.772-6.459,3.016-9.915,3.016Z"/>
      <ellipse class="cls-3" cx="110.595" cy="157.427" rx="37.236" ry="38.425"/>
      <g>
        <path class="cls-6" d="M47.891,179.655c-11.991,6.865-14.802,7.253-28.566,6.039-3.976-.351-8.196-1.011-11.794.718-5.342,2.567-7.151,9.589-5.907,15.384,2.27,10.581,12.286,18.108,22.792,20.703,10.506,2.595,21.535,1.204,32.265-.202,16.284-2.133,31.761-3.857,48.046-5.99"/>
        <path class="cls-4" d="M37.54,225.197c-4.502,0-9.022-.398-13.423-1.485-12.232-3.022-21.54-11.521-23.715-21.653-1.315-6.13.525-13.859,6.588-16.773,3.519-1.69,7.393-1.317,11.142-.959.436.042.871.084,1.303.122,13.311,1.173,16.001.896,27.835-5.879.598-.343,1.363-.136,1.706.464.343.6.135,1.363-.464,1.706-12.39,7.094-15.506,7.416-29.297,6.199-.438-.039-.879-.081-1.322-.123-3.407-.328-6.93-.667-9.82.724-4.846,2.329-6.31,8.948-5.227,13.994,1.975,9.205,10.56,16.958,21.87,19.751,10.416,2.576,21.778,1.087,31.803-.227,8.147-1.067,16.224-2.048,24.034-2.997,7.805-.947,15.875-1.928,24.012-2.993.681-.098,1.311.393,1.401,1.077.09.685-.392,1.311-1.077,1.401-8.148,1.067-16.224,2.048-24.034,2.997-7.805.947-15.875,1.928-24.012,2.993-6.098.799-12.681,1.661-19.304,1.661Z"/>
      </g>
      <g>
        <path class="cls-2" d="M148.984,156.598c-23.13-6.272-47.636-22.227-55.492-41.263-3.524-8.538-4.846-17.939-1.781-26.598,3.065-8.658,11.018-16.404,21.522-18.868,7.702-1.807,16.356-.608,22.923,3.175,6.568,3.784,10.92,10.078,11.53,16.674-.839-8.899,7.167-18.33,17.298-21.434,10.13-3.104,22.539-.027,28.926,7.173,5.304,5.979,7.738,16.156,7.17,23.553-2.054,26.736-21.738,48.168-52.095,57.587Z"/>
        <path class="cls-4" d="M148.984,157.848c-.11,0-.22-.015-.327-.044-21.146-5.734-47.79-21.32-56.32-41.992-4.063-9.843-4.686-19.35-1.804-27.491,3.432-9.693,12.02-17.23,22.414-19.668,8.051-1.889,16.959-.651,23.833,3.31,4.803,2.767,8.456,6.767,10.471,11.294,2.322-7.06,9.045-13.617,17.367-16.167,10.552-3.231,23.546.009,30.227,7.539,5.92,6.672,8.027,17.365,7.481,24.478-2.082,27.101-21.884,49.039-52.971,58.687-.121.037-.246.056-.371.056ZM120.566,70.282c-2.371,0-4.746.265-7.047.804-9.429,2.212-17.526,9.304-20.629,18.068-3.377,9.54-.908,19.244,1.758,25.704,8.161,19.776,33.797,34.782,54.313,40.436,29.872-9.385,48.88-30.44,50.872-56.381.523-6.812-1.664-16.772-6.858-22.628-6.073-6.846-17.951-9.771-27.624-6.807-9.817,3.007-17.183,12.033-16.419,20.121v.002c.064.688-.441,1.296-1.128,1.359-.681.071-1.296-.439-1.361-1.127,0-.012-.002-.022-.003-.034-.587-6.22-4.662-12.076-10.906-15.673-4.379-2.523-9.663-3.846-14.966-3.846Z"/>
      </g>
      <path class="cls-3" d="M15.2,201.496c2.294.053,4.386,1.292,6.226,2.664,2.49,1.856,4.745,4.028,6.694,6.447,1.148,1.425,2.243,3.144,1.955,4.951-.274,1.725-1.815,3.051-3.502,3.503-1.687.452-3.487.17-5.164-.316-3.384-.982-6.522-2.8-9.057-5.247-3.929-3.793-4.825-12.18,2.848-12.001Z"/>
      <path class="cls-3" d="M9.317,191.52c.531-.704,1.445-1.031,2.325-1.066,1.873-.074,3.731,1.126,4.433,2.864,1.027,2.54-.903,6.8-4.11,6.069-2.707-.617-4.247-5.748-2.648-7.867Z"/>
      <g>
        <path class="cls-6" d="M179.897,179.655c11.991,6.865,14.802,7.253,28.566,6.039,3.976-.351,8.196-1.011,11.794.718,5.342,2.567,7.151,9.589,5.907,15.384-2.27,10.581-12.286,18.108-22.792,20.703-10.506,2.595-21.535,1.204-32.265-.202-16.284-2.133-31.003-3.406-47.287-5.539"/>
        <path class="cls-4" d="M190.249,225.197c-6.624,0-13.205-.862-19.304-1.661-8.129-1.064-16.003-1.93-23.618-2.766-7.627-.838-15.515-1.704-23.669-2.773-.685-.09-1.167-.717-1.077-1.401.09-.686.722-1.174,1.401-1.077,8.129,1.065,16.003,1.93,23.618,2.766,7.627.838,15.515,1.704,23.669,2.772,10.023,1.314,21.386,2.802,31.803.227,11.31-2.793,19.895-10.546,21.87-19.751,1.083-5.046-.381-11.665-5.226-13.994-2.89-1.391-6.414-1.052-9.82-.724-.443.042-.884.084-1.322.123-13.791,1.215-16.907.895-29.297-6.199-.599-.343-.807-1.107-.464-1.706.343-.6,1.107-.808,1.706-.464,11.833,6.775,14.528,7.052,27.835,5.879.432-.038.866-.08,1.303-.122,3.748-.358,7.624-.732,11.142.959,6.063,2.914,7.903,10.644,6.588,16.773-2.174,10.133-11.483,18.632-23.715,21.653-4.4,1.087-8.921,1.485-13.423,1.485Z"/>
      </g>
      <path class="cls-3" d="M212.589,201.496c-2.294.053-4.386,1.292-6.226,2.664-2.49,1.856-4.745,4.028-6.694,6.447-1.148,1.425-2.243,3.144-1.955,4.951.274,1.725,1.815,3.051,3.502,3.503,1.687.452,3.487.17,5.164-.316,3.384-.982,6.522-2.8,9.057-5.247,3.929-3.793,4.825-12.18-2.848-12.001Z"/>
      <path class="cls-3" d="M218.471,191.52c-.531-.704-1.445-1.031-2.325-1.066-1.873-.074-3.731,1.126-4.433,2.864-1.027,2.54.903,6.8,4.11,6.069,2.707-.617,4.247-5.748,2.648-7.867Z"/>
      <path class="cls-3" d="M219.527,199.671c-.446,1.076-.593,2.439.188,3.304.636.704,1.748.846,2.626.487.878-.36,1.531-1.14,1.927-2.002.626-1.364,1.567-4.582-.361-5.384-1.878-.781-3.801,2.198-4.38,3.595Z"/>
      <g>
        <path class="cls-6" d="M62.973,121.738c11.744-3.149,23.487-6.298,35.231-9.446,6.446-1.728,12.957-3.467,19.625-3.724,3.831-.148,8.136.426,10.534,3.418,2.564,3.199,1.854,8.124-.598,11.41-2.452,3.286-6.239,5.273-9.975,6.963-15.96,7.222-33.227,10.989-50.346,14.706"/>
        <path class="cls-4" d="M67.443,146.315c-.575,0-1.093-.399-1.22-.984-.147-.675.282-1.341.956-1.487,16.809-3.65,34.19-7.425,50.096-14.623,3.349-1.516,7.121-3.398,9.488-6.572,1.997-2.676,2.895-7.048.625-9.88-1.712-2.136-4.906-3.131-9.511-2.951-6.562.254-13.062,1.997-19.35,3.683l-35.23,9.446c-.664.18-1.352-.216-1.531-.883-.179-.667.217-1.353.884-1.531l35.23-9.446c6.42-1.722,13.059-3.502,19.901-3.767,5.432-.213,9.323,1.098,11.557,3.885,3.089,3.853,2.05,9.427-.571,12.94-2.594,3.476-6.561,5.589-10.462,7.353-16.146,7.308-33.659,11.111-50.596,14.789-.089.019-.179.028-.267.028Z"/>
      </g>
      <g>
        <path class="cls-6" d="M175.525,106.476c-4.958,1.116-10.327,2.969-12.776,7.422-2.911,5.293-.181,12.34,4.694,15.907s11.242,4.351,17.282,4.268c4.317-.059,8.83-.569,12.42-2.969,3.995-2.671,6.272-7.366,7.075-12.105.614-3.624.932-8.295.038-11.9-.7-2.824-2.394-3.12-5.087-3.201-7.881-.236-15.974.85-23.646,2.578Z"/>
        <path class="cls-4" d="M183.907,135.328c-7.522,0-13.003-1.442-17.203-4.515-5.037-3.685-8.4-11.43-5.051-17.519,2.77-5.035,8.722-6.941,13.597-8.039h0c8.652-1.947,16.712-2.829,23.958-2.607,2.226.066,5.273.158,6.262,4.149,1.077,4.344.45,9.639-.019,12.409-.953,5.623-3.727,10.337-7.612,12.935-4.06,2.715-9.132,3.126-13.098,3.181-.281.004-.56.006-.835.006ZM175.799,107.695c-4.364.982-9.666,2.644-11.955,6.805-2.695,4.899.153,11.235,4.337,14.296,3.893,2.849,9.146,4.14,16.527,4.026,3.621-.05,8.228-.408,11.742-2.759,3.316-2.217,5.699-6.326,6.537-11.274.743-4.387.764-8.538.057-11.39-.466-1.883-1.252-2.173-3.911-2.253-7.038-.206-14.887.647-23.334,2.549h0ZM175.525,106.476h.01-.01Z"/>
      </g>
    </g>
  </g>
</svg>