<?xml version="1.0" encoding="UTF-8"?>
<svg id="_레이어_2" data-name="레이어 2" xmlns="http://www.w3.org/2000/svg" viewBox="0 0 98.91 156.147">
  <defs>
    <style>
      .cls-1 {
        fill: #0e0e0e;
      }

      .cls-1, .cls-2, .cls-3, .cls-4, .cls-5, .cls-6, .cls-7 {
        stroke-width: 0px;
      }

      .cls-2 {
        fill: #54453f;
      }

      .cls-3 {
        fill: #ffd976;
      }

      .cls-4 {
        fill: #fff;
      }

      .cls-5 {
        fill: #ffd8c7;
      }

      .cls-6 {
        fill: #ff827d;
      }

      .cls-7 {
        fill: #ffb9a0;
      }
    </style>
  </defs>
  <g id="_레이어_1-2" data-name="레이어 1">
    <g>
      <g>
        <path class="cls-5" d="M86.166,13.431c.839-1.983,2.574-3.567,4.626-4.22.558-.178,1.273-.245,1.633.218.29.372.2.898.175,1.368s.121,1.054.58,1.161c.218.051.445-.028.668-.008.768.069.949,1.103.902,1.873-.012.191-.019.399.095.552.183.244.55.206.853.241,1.07.124,1.589,1.72.795,2.449,1.002.122,1.676,1.204,1.649,2.213s-.584,1.927-1.22,2.712c-1.455,1.797-3.511,3.21-5.811,3.448-2.3.238-4.8-.902-5.754-3.009"/>
        <path class="cls-1" d="M86.849,13.83c.487-1.13,1.243-2.133,2.228-2.859.504-.371,1.072-.693,1.643-.901.199-.073.581-.187.694-.196.06-.005.12-.007.18-.007.216.003-.067-.043.134.015.012.003.145.045.043.012.147.048.053.056.027.016.085.133.036.508.021.734-.022.336-.004.678.098,1.001.239.754,1.003,1.313,1.819,1.093-.038.01.009-.003.047,0-.139-.013.059.051-.048-.039.034.028.069.065.096.099-.091-.116-.008-.003-.003.018.049.224-.034-.138.04.091.016.051.031.102.044.154.013.053.024.106.034.16.016.097.018.108.005.036.004.041.007.083.009.124.008.312-.034.634.028.943.092.454.398.804.833.958.172.061.351.082.533.099.086.008.174.007.26.018-.129-.017.051.016.085.025-.168-.044.202.146.075.037.045.039.085.081.126.124.036.042.032.035-.012-.021.028.039.053.079.077.121.024.041.047.084.067.128-.067-.142.016.064.021.082-.001-.005.047.225.029.107-.014-.092.003.12.004.145.003.046-.025.195.005.037-.013.069-.031.136-.054.203.046-.134.016-.024-.007.002-.05.075-.049.08.003.014-.031.037-.064.072-.1.105-.388.38-.256,1.23.349,1.321.471.071.729.29.94.759.178.395.158.903-.019,1.425-.388,1.144-1.391,2.145-2.295,2.905-.909.764-1.987,1.342-3.145,1.614-1.096.257-2.14.179-3.186-.204-1.098-.402-2.026-1.198-2.537-2.296-.18-.387-.738-.485-1.082-.284-.397.232-.464.693-.284,1.082,1.24,2.666,4.445,3.811,7.208,3.29,1.51-.285,2.887-1.049,4.064-2.017s2.361-2.282,2.815-3.771c.481-1.576-.225-3.75-2.059-4.027l.349,1.321c1.015-.995.695-2.81-.49-3.529-.323-.197-.665-.255-1.035-.284.029.002-.257-.017-.153-.01l.021.002c-.094-.026-.106-.027-.035-.004.238.462.182.051.186-.134.013-.694-.128-1.45-.597-1.985-.229-.261-.55-.437-.891-.493-.02-.003-.638-.075-.658-.005-.011.039.076.035.065.068.029.053.03.055.001.008-.025-.047-.028-.045-.011.005-.108-.275-.055-.515-.038-.88.02-.438-.031-.887-.254-1.273-.903-1.564-3.165-.57-4.306.111-1.476.881-2.694,2.229-3.375,3.81-.169.392-.116.848.284,1.082.334.195.912.111,1.082-.284h0Z"/>
      </g>
      <g>
        <path class="cls-5" d="M83.702,20.236c-.812-1.736-.678-3.882.344-5.503.828-1.313,2.416-2.301,3.912-1.885,1.15.32,1.937,1.348,2.637,2.314.162.224.326.451.42.711.367,1.019-.773,2.219-1.809,1.905"/>
        <path class="cls-1" d="M84.385,19.837c-.824-1.808-.446-4.199,1.064-5.537.701-.621,1.598-.93,2.441-.646.852.287,1.494,1.173,2.023,1.907.104.144.212.287.295.444.028.053.094.289.084.194.02.192-.017.283-.13.462-.05.078-.042.067-.144.165-.058.056-.091.083-.212.147-.003.002-.122.057-.237.072.122-.016-.015-.006-.034-.007-.162-.014.057.024-.119-.023-.985-.26-1.405,1.265-.42,1.525,1.402.37,2.88-.815,2.88-2.26,0-.786-.504-1.409-.957-2.002-.45-.591-.922-1.143-1.523-1.586-1.195-.881-2.695-.915-3.999-.255-1.317.666-2.232,1.933-2.688,3.311-.532,1.607-.386,3.358.311,4.887.177.389.74.484,1.082.284.399-.234.461-.692.284-1.082h0Z"/>
      </g>
      <g>
        <path class="cls-2" d="M19.27,20.375c.995-3.414,1.981-6.699,4.312-9.778C28.16,4.549,34.783.775,42.038.803c13.149.052,22.407,5.709,27.635,17.663,2.585,5.91,4.292,12.269,6.502,18.378,1.186,3.278,2.449,6.656,4.872,9.162,1.795,1.857,4.112,3.11,6.138,4.711s3.86,3.773,4.026,6.35-2.062,5.352-4.606,4.909c1.188,2.235.766,5.215-.997,7.031s-4.729,2.327-6.999,1.206c-1.173,2.832-4.191,4.575-7.229,4.988s-6.111-.295-9.051-1.162c-23.022-6.789-51.097-26.076-43.06-53.664Z"/>
        <path class="cls-1" d="M20.032,20.585c.591-2.026,1.185-4.068,2.079-5.985s2.084-3.647,3.494-5.223c2.53-2.828,5.678-5.155,9.25-6.484,1.743-.649,3.574-1.081,5.43-1.231,1.82-.147,3.672-.06,5.488.108,3.182.296,6.49,1.053,9.382,2.338,2.844,1.264,5.362,2.991,7.536,5.18,2.349,2.366,4.188,5.153,5.647,8.16,1.99,4.101,3.364,8.494,4.778,12.816.743,2.271,1.485,4.543,2.298,6.791.723,2.001,1.464,4.013,2.478,5.889,1.033,1.912,2.38,3.597,4.079,4.956,1.694,1.355,3.598,2.438,5.239,3.859,1.413,1.224,2.7,2.745,3.112,4.614.345,1.568-.236,3.298-1.535,4.272-.583.437-1.289.678-1.97.57-.677-.107-1.231.51-.893,1.161.786,1.514.743,3.421-.051,4.924-.801,1.516-2.344,2.518-4.049,2.686-.959.094-1.941-.034-2.814-.455-.346-.167-.905-.134-1.082.284-1.345,3.174-4.817,4.647-8.091,4.714-2.156.044-4.275-.407-6.342-.979-1.443-.4-2.873-.851-4.29-1.334-5.564-1.896-10.914-4.338-15.986-7.343-5.104-3.025-9.879-6.603-13.973-10.911-3.843-4.044-7.08-8.81-8.895-14.075-1.897-5.501-2.175-11.35-.904-17.029.171-.764.368-1.522.586-2.274.284-.979-1.242-1.397-1.525-.42-1.729,5.965-1.932,12.298-.257,18.299,1.576,5.647,4.674,10.748,8.522,15.134,4.023,4.587,8.873,8.429,14.034,11.658s10.73,5.882,16.47,7.956c3.288,1.188,6.693,2.338,10.173,2.766,3.715.458,7.847-.306,10.451-3.209.576-.642,1.055-1.362,1.392-2.157l-1.082.284c2.037.982,4.459.908,6.443-.18,2.007-1.1,3.208-3.192,3.393-5.443.105-1.276-.17-2.562-.758-3.695l-.893,1.161c1.992.314,3.778-.779,4.786-2.47,1.081-1.816,1-3.906.158-5.796-1.858-4.17-6.428-5.768-9.505-8.797-1.54-1.516-2.611-3.417-3.477-5.38-.914-2.072-1.642-4.236-2.369-6.379-1.585-4.674-2.99-9.415-4.849-13.992-1.433-3.526-3.176-6.877-5.596-9.832-2.08-2.539-4.626-4.703-7.495-6.304-2.935-1.638-6.174-2.693-9.484-3.241-3.782-.627-7.766-.842-11.524.034-3.902.909-7.485,2.917-10.459,5.58-1.573,1.408-3.006,3.012-4.199,4.755-1.284,1.874-2.191,3.972-2.913,6.117-.348,1.035-.656,2.083-.961,3.131-.285.979,1.24,1.397,1.525.42Z"/>
      </g>
      <g>
        <path class="cls-4" d="M62.709,155.352c3.331-.075,6.636-1.145,9.375-3.043.387-.268.779-.572.973-1.001.234-.521.134-1.125.021-1.685-.7-3.452-1.232-8.699-5.088-10.066-1.568-.556-3.343-.002-4.709.947-1.165.809-2.169,1.985-2.367,3.39-.266,1.887.476,3.524-.198,5.453-.343.984-.891,1.901-1.095,2.922s.046,2.246.947,2.769c.469.272,1.035.311,1.577.317.188.002.376.001.564-.003Z"/>
        <path class="cls-1" d="M62.709,156.143c1.924-.05,3.846-.397,5.657-1.05.918-.331,1.815-.731,2.67-1.203.786-.434,1.706-.925,2.306-1.606.737-.837.703-1.836.498-2.87-.123-.62-.236-1.242-.354-1.862-.257-1.348-.542-2.701-1.02-3.991-.473-1.276-1.121-2.529-2.127-3.47-1.245-1.164-2.869-1.727-4.564-1.466-1.747.269-3.452,1.328-4.538,2.712-.592.754-.991,1.602-1.113,2.558-.121.945-.004,1.878.062,2.822.034.483.055.976-.001,1.459-.061.521-.236,1.022-.439,1.503-.416.989-.902,1.95-.974,3.039-.061.928.213,1.952.891,2.616.816.799,1.974.83,3.047.809,1.016-.02,1.02-1.601,0-1.581-.4.008-.822.032-1.218-.033-.332-.054-.591-.184-.771-.376-.319-.342-.418-.959-.361-1.527.067-.667.486-1.529.785-2.232.369-.868.62-1.723.649-2.674.047-1.519-.519-3.25.198-4.662.656-1.293,1.987-2.288,3.357-2.716.687-.214,1.418-.301,2.121-.118.524.136,1.112.45,1.462.732.198.16.384.335.557.52.105.112.205.228.301.347.098.122.038.05.018.023.062.083.122.167.179.252.162.238.309.486.444.74.062.117.122.236.18.356.035.073.069.146.102.219.004.009.098.225.049.108.482,1.143.777,2.362,1.027,3.573.123.597.233,1.197.345,1.796.11.586.358,1.275.267,1.871-.051.333-.295.55-.55.745-.353.27-.739.505-1.121.732-.786.469-1.61.88-2.465,1.208-1.778.682-3.653,1.063-5.556,1.112-1.016.026-1.02,1.608,0,1.581Z"/>
      </g>
      <g>
        <path class="cls-4" d="M17.082,132.85c.541,1.619-.104,3.392-.948,4.875s-1.914,2.883-2.318,4.541c-.236.965-.159,2.142.636,2.738,1.03.772,2.484.1,3.561-.604,2.958-1.934,5.777-4.081,8.428-6.419,1.107-.977,2.278-2.216,2.13-3.685-.071-.711-.451-1.35-.833-1.954-1.284-2.034-2.697-3.987-4.226-5.844"/>
        <path class="cls-1" d="M16.319,133.06c.412,1.298-.018,2.645-.622,3.812-.647,1.251-1.506,2.382-2.093,3.665-.544,1.19-.984,2.631-.486,3.916.549,1.419,1.993,1.937,3.405,1.537,1.374-.389,2.574-1.346,3.727-2.15,1.269-.885,2.509-1.811,3.722-2.771,1.165-.921,2.332-1.863,3.414-2.881.989-.931,1.899-2.081,1.983-3.489.051-.846-.289-1.656-.711-2.37-.435-.736-.917-1.448-1.4-2.154-.998-1.459-2.065-2.871-3.188-4.237-.271-.33-.837-.281-1.118,0-.327.327-.272.787,0,1.118.892,1.086,1.743,2.204,2.55,3.354.417.594.823,1.196,1.217,1.806.334.517.732,1.05.938,1.636.383,1.09-.219,2.017-.974,2.807-.932.974-2.016,1.825-3.06,2.674-1.064.865-2.153,1.698-3.266,2.499-1.102.793-2.219,1.647-3.42,2.286-.471.251-1.001.462-1.505.435-.375-.02-.678-.249-.835-.63.016.038-.047-.168-.061-.23-.036-.154-.031-.13-.039-.239-.01-.139-.011-.278-.004-.416.007-.157.011-.197.028-.296.104-.598.326-1.173.595-1.714.654-1.316,1.561-2.49,2.175-3.827.654-1.425,1.041-3.024.553-4.563-.129-.407-.55-.668-.973-.552-.401.11-.682.564-.552.973h0Z"/>
      </g>
      <g>
        <path class="cls-3" d="M34.387,79.755c-3.086,2.618-6.182,4.761-9.062,7.607-4.023,3.977-8.956,6.843-12.628,11.214-2.936,3.495-5.091,7.838-5.127,12.402-.024,3.076.901,6.07,1.818,9.006.9,2.884,1.8,5.769,2.701,8.653.45,1.44.935,2.941,2.003,4.007,2.439,2.434,6.579,1.498,9.642-.082,1.223-.631,2.453-1.381,3.183-2.547,1.084-1.73.833-3.937,1.082-5.963.743-6.046,5.906-10.402,10.34-14.578,4.435-4.176,8.783-9.9,7.248-15.795"/>
        <path class="cls-1" d="M33.828,79.196c-1.723,1.459-3.52,2.828-5.271,4.253-.872.71-1.732,1.435-2.563,2.191-.804.732-1.563,1.511-2.368,2.242-3.035,2.759-6.456,5.066-9.409,7.919-2.964,2.863-5.433,6.36-6.663,10.324-.622,2.005-.888,4.124-.725,6.219.18,2.316.786,4.564,1.464,6.776.7,2.284,1.422,4.562,2.133,6.843.348,1.116.69,2.235,1.047,3.349.31.968.659,1.951,1.207,2.814,1.044,1.643,2.701,2.559,4.614,2.759,1.774.185,3.616-.261,5.254-.919,1.803-.725,3.707-1.681,4.875-3.288,1.251-1.721,1.142-3.949,1.302-5.967.284-3.588,2.287-6.679,4.681-9.316,2.596-2.859,5.664-5.247,8.201-8.159,2.628-3.017,4.977-6.712,5.083-10.835.025-.984-.097-1.976-.34-2.93-.251-.986-1.776-.568-1.525.42.948,3.726-.68,7.378-2.845,10.364-2.243,3.094-5.211,5.509-7.913,8.176-2.558,2.525-4.998,5.343-6.209,8.783-.301.856-.503,1.737-.623,2.636-.131.985-.143,1.979-.225,2.968-.073.894-.219,1.822-.665,2.614-.432.767-1.113,1.335-1.85,1.797-1.477.927-3.082,1.609-4.797,1.949-1.485.295-3.104.26-4.39-.559-1.509-.96-2.054-2.899-2.575-4.567-.698-2.236-1.396-4.473-2.094-6.709-1.262-4.044-2.813-8.259-2.095-12.559.642-3.844,2.657-7.365,5.231-10.247,2.668-2.987,5.949-5.313,9.02-7.854.762-.63,1.512-1.275,2.238-1.948.793-.734,1.549-1.505,2.355-2.226,1.625-1.455,3.348-2.792,5.054-4.15.844-.671,1.682-1.349,2.505-2.046.326-.276.284-.834,0-1.118-.323-.323-.791-.277-1.118,0h0Z"/>
      </g>
      <g>
        <path class="cls-3" d="M38.556,104.367c3.22,6.407,7.162,11.969,9.714,18.829,1.826,4.908,3.652,9.817,5.478,14.725.834,2.242,1.87,4.706,4.058,5.673.529.234,1.116.372,1.563.74.466.383.751.994,1.302,1.24.419.187.902.121,1.354.043,2.539-.436,5.036-1.122,7.442-2.044.591-.226,1.208-.492,1.575-1.007.466-.653.411-1.525.492-2.323.195-1.932,1.509-3.292,1.762-5.18.35-2.614-.248-5.607-.759-8.163-1.111-5.561-3.165-10.88-5.091-16.195-2.938-8.108-6.862-15.933-12.029-22.858"/>
        <path class="cls-1" d="M37.873,104.766c1.75,3.474,3.767,6.801,5.642,10.207.919,1.67,1.802,3.361,2.6,5.094.853,1.852,1.55,3.762,2.26,5.671,1.507,4.049,3.013,8.099,4.52,12.148.574,1.543,1.165,3.123,2.175,4.442.511.669,1.112,1.261,1.841,1.693.7.415,1.612.524,2.174,1.139.286.313.527.642.871.898.431.322.961.451,1.496.423.994-.051,2.017-.321,2.984-.545,1.991-.46,4.031-1.028,5.898-1.872.885-.4,1.564-1.072,1.796-2.037.207-.86.118-1.745.377-2.596.234-.771.624-1.474.947-2.217.369-.85.599-1.677.684-2.604.185-2-.11-4.028-.465-5.994-.363-2.007-.797-3.999-1.341-5.966-1.107-4.007-2.577-7.899-3.995-11.802-2.694-7.416-6.1-14.581-10.583-21.093-.537-.78-1.089-1.549-1.654-2.308-.255-.342-.684-.516-1.082-.284-.337.197-.54.737-.284,1.082,4.558,6.119,8.161,12.92,10.947,20.015.729,1.856,1.397,3.736,2.078,5.609.689,1.894,1.368,3.792,1.991,5.708.635,1.955,1.212,3.929,1.678,5.932.426,1.832.815,3.699,1.034,5.569.207,1.769.329,3.665-.377,5.341-.306.726-.698,1.452-.975,2.206-.309.842-.35,1.688-.44,2.57-.033.329-.095.703-.312.971-.192.237-.535.407-.822.532-.887.388-1.831.681-2.755.966-.953.294-1.917.553-2.889.774-.486.111-.975.212-1.465.305-.392.074-.916.242-1.321.151-.288-.065-.46-.329-.654-.559-.305-.362-.622-.693-1.044-.922-.717-.389-1.504-.552-2.158-1.065-1.044-.819-1.774-2.223-2.29-3.476-.755-1.835-1.402-3.719-2.094-5.579-.73-1.963-1.461-3.927-2.191-5.89s-1.421-3.941-2.214-5.876c-.727-1.772-1.545-3.503-2.428-5.202-1.733-3.334-3.689-6.546-5.481-9.848-.45-.83-.889-1.666-1.314-2.509-.192-.381-.73-.49-1.082-.284-.388.227-.476.699-.284,1.082h0Z"/>
      </g>
      <g>
        <path class="cls-6" d="M88.896,22.373c-1.818-1.535-3.993-4.211-6.615-3.583-2.382.57-3.827,3.583-5.466,5.22-2.307,2.304-4.925,4.265-7.463,6.301-2.488,1.996-4.732,4.422-7.064,6.599-1.147,1.071-2.294,2.142-3.44,3.212-.522.488-2.477,2.92-3.128,2.92-.242.226-.484.457-.675.725-1.712-.59-3.468-.936-4.915-1.182-4.168-.71-8.743-.203-12.947-.35-4.189-.147-8.55,1.039-12.339,2.804-5.172,2.409-10.157,4.87-15.354,7.188-3.982,1.776-7.046,5.064-8.205,9.357-1.984,7.346,1.927,13.569,8.973,15.816,3.182,1.015,6.641,1.133,9.946.581-.212,4.218-.363,8.439-.87,12.665-.059.488-.114,1.004.082,1.455.349.805,1.325,1.091,2.182,1.276,10.933,2.348,23.266,4.334,34.467,3.132,10.276-1.102,6.358-11.155,6.711-18.529.062-1.29.108-2.581.144-3.872,1.184-.727,2.293-1.72,3.242-2.683,2.44-2.479,4.864-4.977,7.133-7.614,5.927-6.891,10.75-14.726,14.263-23.108,1.46-3.483,4.172-8.432,4.778-12.036.46-2.735-1.529-4.68-3.439-6.293Z"/>
        <path class="cls-1" d="M89.455,21.814c-2.053-1.749-4.23-4.423-7.258-3.814-2.735.55-4.04,3.45-5.788,5.294-2.485,2.62-5.504,4.665-8.254,6.984-2.803,2.363-5.335,5.055-8.014,7.557-1.067.996-2.09,1.991-3.077,3.062-.385.417-.865.942-1.26,1.24.011-.008-.154.1-.21.135-.056.035-.076.084.041-.013-.126.104.272-.091-.02.009-.55.189-.904.643-1.253,1.102l.893-.363c-3.171-1.077-6.542-1.543-9.881-1.594-1.731-.026-3.461.03-5.192.053-1.646.021-3.299-.091-4.942.004-3.347.194-6.61,1.09-9.687,2.395-3.271,1.388-6.448,3.02-9.659,4.539-1.61.761-3.223,1.517-4.843,2.257-1.403.64-2.833,1.22-4.131,2.063-2.264,1.47-4.168,3.512-5.367,5.94-2.249,4.558-2.167,10.249.977,14.373,3.555,4.664,9.679,6.393,15.341,6.01.852-.058,1.701-.164,2.544-.302l-1.001-.762c-.168,3.36-.299,6.724-.6,10.076-.078.864-.17,1.726-.27,2.588-.081.707-.092,1.446.306,2.07.743,1.166,2.254,1.364,3.493,1.626,6.251,1.32,12.564,2.423,18.933,2.971,3.166.272,6.346.404,9.523.325,1.568-.039,3.136-.129,4.697-.281,1.165-.113,2.329-.267,3.435-.667,1.677-.606,3.128-1.696,3.971-3.293.817-1.547,1.06-3.323,1.105-5.051.048-1.871-.134-3.74-.279-5.603-.161-2.071-.183-4.097-.1-6.172.033-.821.06-1.643.083-2.465l-.392.683c1.926-1.202,3.473-2.869,5.045-4.485,1.637-1.683,3.253-3.387,4.804-5.149,2.853-3.241,5.47-6.691,7.817-10.315,2.325-3.59,4.386-7.351,6.162-11.242.804-1.762,1.54-3.552,2.355-5.309.849-1.828,1.708-3.654,2.438-5.533.721-1.856,1.552-4.004,1.127-6.019-.435-2.062-2.069-3.616-3.612-4.924-.326-.276-.799-.319-1.118,0-.283.283-.327.841,0,1.118,1.467,1.243,3.244,2.794,3.274,4.882.014.987-.321,2.002-.623,2.931-.343,1.055-.754,2.088-1.194,3.107-.887,2.054-1.89,4.055-2.774,6.111-.957,2.228-1.948,4.434-3.059,6.591-2.301,4.468-4.988,8.737-8.024,12.742-3.159,4.167-6.756,7.983-10.444,11.682-.925.928-1.907,1.694-2.971,2.449-.574.407-.408,1.291-.429,1.915-.024.704-.051,1.408-.082,2.112-.072,1.619-.018,3.222.103,4.837.216,2.885.673,6.039-.016,8.79-.313,1.25-.836,2.238-1.808,3.087-1.069.934-2.739,1.388-4.223,1.552-5.159.572-10.394.427-15.553-.055-5.262-.491-10.482-1.367-15.66-2.414-1.178-.238-2.382-.437-3.542-.754-.363-.099-.831-.231-1.073-.547-.307-.4-.145-1.022-.091-1.481.326-2.786.504-5.586.648-8.386.07-1.367.133-2.733.201-4.1.028-.56-.525-.84-1.001-.762-5.332.871-11.489-.065-15.361-4.135-1.502-1.579-2.502-3.555-2.896-5.698-.431-2.337-.079-4.811.777-7.013.894-2.3,2.51-4.342,4.497-5.797,1.1-.806,2.295-1.402,3.534-1.96,1.546-.696,3.085-1.408,4.62-2.128,3.12-1.464,6.224-2.963,9.345-4.424,2.864-1.341,5.844-2.405,8.989-2.846,1.56-.218,3.104-.19,4.673-.169,1.634.022,3.267-.03,4.901-.052,3.173-.044,6.27.124,9.367.851.809.19,1.608.415,2.395.682.361.123.687-.092.893-.363.158-.208.362-.387.552-.565l-.559.232c.947-.065,1.715-1.02,2.317-1.664.755-.808,1.486-1.597,2.296-2.353,1.323-1.236,2.657-2.461,3.953-3.725,1.239-1.207,2.459-2.433,3.738-3.599,2.544-2.319,5.39-4.28,7.944-6.591,1.085-.982,2.04-2.006,2.929-3.165.718-.936,1.452-1.972,2.437-2.646,2.694-1.846,5.118,1.236,7.002,2.841.771.656,1.894-.457,1.118-1.118Z"/>
      </g>
      <g>
        <path class="cls-5" d="M26.918,31.564c-.752.211-1.557.278-2.38.173-3.292-.42-5.621-3.429-5.202-6.721s3.429-5.621,6.721-5.202c1.235.157,2.334.679,3.203,1.443"/>
        <path class="cls-1" d="M26.707,30.801c-.849.229-1.735.261-2.593.058-.707-.167-1.251-.412-1.861-.84-1.058-.74-1.811-1.927-2.081-3.239-.549-2.67,1.211-5.4,3.863-6.071.711-.18,1.48-.216,2.242-.063.895.18,1.732.571,2.424,1.169.323.279.801.317,1.118,0,.285-.285.325-.838,0-1.118-1.545-1.335-3.533-1.926-5.555-1.639-1.663.236-3.234,1.152-4.272,2.47-1.094,1.388-1.654,3.17-1.456,4.937.193,1.722,1.01,3.358,2.347,4.478,1.734,1.453,4.054,1.973,6.246,1.382.981-.265.565-1.791-.42-1.525h0Z"/>
      </g>
      <g>
        <path class="cls-5" d="M52.621,39.964c-.922,3.238-1.108,6.833-3.766,9.245-1.891,1.716-4.556,2.544-7.087,2.203-.776-.105-1.548-.318-2.219-.722-3.928-2.367-2.715-7.148-2.617-10.859"/>
        <path class="cls-1" d="M51.858,39.754c-.571,2.021-.843,4.138-1.641,6.091-.769,1.882-2.224,3.401-4.136,4.208s-4.483,1.021-6.297-.149c-.731-.471-1.266-1.064-1.66-1.841-.12-.237-.118-.235-.192-.437-.079-.214-.146-.433-.203-.654-.047-.184-.087-.37-.121-.557-.053-.293-.051-.284-.078-.568-.196-2.006.136-4.012.193-6.017.029-1.018-1.552-1.017-1.581,0-.105,3.688-1.143,8.298,2.193,10.964,2.026,1.619,4.846,1.806,7.276,1.095,2.354-.688,4.41-2.246,5.577-4.417,1.219-2.266,1.505-4.855,2.195-7.298.277-.981-1.248-1.4-1.525-.42h0Z"/>
      </g>
      <g>
        <path class="cls-5" d="M62.369,37.119c.675.393,1.438.659,2.261.764,3.292.42,6.301-1.909,6.721-5.202s-1.909-6.301-5.202-6.721c-1.235-.157-2.429.072-3.463.593"/>
        <path class="cls-1" d="M61.97,37.802c1.686.96,3.762,1.202,5.604.56,1.614-.563,3.01-1.713,3.812-3.231.828-1.567,1.035-3.442.524-5.144-.492-1.639-1.605-3.067-3.082-3.933-2.004-1.175-4.471-1.202-6.54-.182-.383.189-.488.732-.284,1.082.228.39.697.473,1.082.284,1.429-.705,3.213-.687,4.558-.026,1.194.587,2.157,1.61,2.602,2.784.497,1.311.503,2.646-.043,3.966-.227.549-.639,1.161-1.081,1.611-.482.491-.944.813-1.593,1.116-.596.279-1.391.447-2.075.454-.946.009-1.862-.236-2.685-.705-.886-.504-1.683.861-.798,1.365h0Z"/>
      </g>
      <g>
        <path class="cls-5" d="M64.826,25.059c-3.339-1.433-6.373-3.521-9.383-5.597-3.064-2.112-6.31-4.458-7.576-8.069-7.043,3.957-14.679,6.735-22.525,8.201-.213.833-.383,1.686-.494,2.561-1.467,11.51,6.675,22.029,18.185,23.496,11.51,1.467,22.029-6.675,23.496-18.185.088-.689.139-1.375.159-2.055-.527.059-1.145-.045-1.862-.352Z"/>
        <path class="cls-1" d="M65.225,24.376c-2.87-1.239-5.502-2.94-8.076-4.698-2.193-1.498-4.467-2.971-6.282-4.933-.958-1.035-1.761-2.228-2.237-3.562-.172-.482-.69-.737-1.161-.473-5.42,3.039-11.207,5.391-17.217,6.971-1.692.445-3.399.827-5.118,1.15-.26.049-.489.304-.552.552-1.235,4.892-.769,10.058,1.351,14.637,1.915,4.136,5.18,7.637,9.164,9.848,4.237,2.352,9.191,3.206,13.974,2.477,4.54-.692,8.817-2.898,12.058-6.145,3.312-3.318,5.498-7.694,6.139-12.339.112-.814.185-1.63.212-2.451.013-.399-.374-.83-.791-.791-.586.055-1.098-.093-1.652-.324-.394-.164-.87.177-.973.552-.125.455.156.808.552.973.65.271,1.364.447,2.072.381l-.791-.791c-.15,4.583-1.866,9.098-4.85,12.554-2.821,3.268-6.553,5.545-10.739,6.534-4.275,1.01-8.997.557-12.99-1.275-3.936-1.806-7.16-4.782-9.267-8.527-1.066-1.895-1.794-3.872-2.221-6.048-.21-1.071-.318-2.044-.353-3.18s.017-2.288.175-3.417c.107-.758.264-1.508.452-2.25l-.552.552c6.205-1.164,12.242-3.14,17.953-5.827,1.616-.76,3.203-1.58,4.761-2.453l-1.161-.473c.948,2.657,2.87,4.727,5.056,6.444,1.095.861,2.239,1.653,3.386,2.443,1.339.922,2.683,1.837,4.066,2.693,1.547.958,3.143,1.836,4.815,2.557.392.169.848.116,1.082-.284.195-.334.111-.912-.284-1.082Z"/>
      </g>
      <circle class="cls-7" cx="57.151" cy="31.196" r="4.387"/>
      <circle class="cls-7" cx="32.451" cy="28.049" r="4.387"/>
      <circle class="cls-1" cx="52.676" cy="25.166" r="1.648"/>
      <circle class="cls-1" cx="38.43" cy="23.188" r="1.648"/>
      <path class="cls-1" d="M46.122,23.314c-.246-.2-.499-.321-.823-.329-.242-.006-.506.069-.712.197-.405.252-.626.668-.781,1.104-.251.708-.241,1.549.024,2.252.074.197.176.363.363.473.169.099.419.141.609.08.377-.122.708-.558.552-.973-.071-.189-.12-.382-.149-.581l.028.21c-.031-.243-.031-.486,0-.729l-.028.21c.033-.228.093-.448.18-.661l-.08.189c.047-.108.1-.211.169-.306l-.124.16c.048-.061.1-.115.162-.163l-.16.124c.04-.028.08-.05.124-.07l-.189.08c.044-.017.088-.028.134-.036l-.21.028c.047-.005.091-.006.137-.001l-.21-.028c.034.006.065.013.098.025l-.189-.08c.032.014.059.029.088.048l-.16-.124.027.022c.168.136.334.232.559.232.194,0,.426-.086.559-.232.138-.151.241-.348.232-.559-.009-.197-.072-.429-.232-.559h0Z"/>
      <g>
        <path class="cls-4" d="M40.556,33.938c-.603-1.142-1.137-3.492-.304-4.661.553-.777,2.386-.384,3.187-.314,1.546.136,3.076.461,4.544.967.445.153.908.341,1.187.72.406.552.289,1.334.006,1.958-.836,1.841-2.069,3.625-4.293,3.714-1.813.072-3.456-.732-4.328-2.384Z"/>
        <path class="cls-1" d="M41.238,33.539c-.032-.063-.064-.126-.094-.19-.021-.045-.042-.091-.062-.137.007.016.039.094.005.007-.072-.184-.137-.37-.194-.558-.057-.187-.106-.377-.148-.568-.041-.186-.081-.403-.094-.522-.021-.183-.033-.367-.036-.55-.002-.105,0-.21.005-.314.002-.038.021-.272.009-.18.023-.178.069-.352.125-.522.028-.086,0-.013-.008.005.015-.036.033-.071.051-.105.024-.045.052-.088.075-.133.055-.107-.033.087-.002-.007.007-.02.049-.052.065-.066-.022.019-.07.088-.034.03.011-.018.065-.038.084-.048-.132.068-.042.013-.004.002.068-.019.135-.041.205-.056.036-.008.073-.014.109-.02.127-.022-.18.003.056-.003.355-.009.702-.005,1.056.03.801.079,1.609.16,2.402.297,1.053.182,2.103.445,3.108.812.311.114.612.274.697.545s-.014.669-.139.962c-.157.366-.348.723-.549,1.067-.195.333-.421.671-.632.919-.5.585-1.027.991-1.72,1.184-1.691.47-3.497-.332-4.335-1.881-.484-.895-1.85-.098-1.365.798,1.031,1.906,3.156,2.981,5.307,2.753s3.595-1.854,4.501-3.708c.521-1.065.876-2.381-.015-3.369-.418-.463-1.013-.69-1.589-.885-.6-.203-1.21-.375-1.827-.516-1.117-.256-2.248-.366-3.382-.506-.861-.107-1.815-.21-2.622.182-1.021.496-1.251,1.85-1.208,2.87.046,1.095.332,2.205.836,3.179.196.379.727.491,1.082.284.385-.225.48-.701.284-1.082Z"/>
      </g>
      <path class="cls-1" d="M33.006,44.501c-.896,2.296-.774,4.912.264,7.138.899,1.927,2.562,3.534,4.509,4.381,2.306,1.003,4.933,1.018,7.4.816,2.385-.195,4.849-.732,6.851-2.107,2.045-1.405,3.556-3.546,3.755-6.062.034-.426-.387-.791-.791-.791-.456,0-.757.363-.791.791-.137,1.738-1.222,3.341-2.61,4.434-1.595,1.256-3.67,1.848-5.663,2.08-1.128.132-2.27.179-3.405.16-1.121-.019-2.236-.129-3.312-.462-1.746-.54-3.271-1.756-4.208-3.335-1.191-2.006-1.318-4.464-.476-6.622.155-.398-.171-.868-.552-.973-.448-.123-.817.153-.973.552h0Z"/>
      <path class="cls-1" d="M17.236,137.326c.824.018,1.648.035,2.472.053.414.009.809-.37.791-.791-.02-.436-.347-.781-.791-.791l-2.472-.053c-.414-.009-.809.37-.791.791.02.436.347.781.791.791h0Z"/>
      <path class="cls-1" d="M15.365,140.454l2.477.401c.216.035.413.035.609-.08.164-.096.32-.284.363-.473.046-.202.036-.43-.08-.609-.105-.162-.273-.331-.473-.363l-2.477-.401c-.216-.035-.413-.035-.609.08-.164.096-.32.284-.363.473-.046.202-.036.43.08.609.105.162.273.331.473.363h0Z"/>
      <path class="cls-1" d="M64.348,149.002c.118-.079.239-.153.364-.219.063-.033.127-.062.191-.093.079-.035.065-.029-.042.017.033-.013.066-.026.099-.038.076-.028.754-.246.771-.196-.122.016-.14.019-.052.008.035-.004.071-.007.106-.01.071-.005.142-.009.212-.011.124-.003.248,0,.372.01.035.003.071.006.106.009.088.01.07.007-.052-.008.002-.006.193.033.209.037.139.029.276.066.41.11.394.128.881-.149.973-.552.099-.434-.131-.836-.552-.973-1.29-.419-2.788-.215-3.914.543-.342.231-.525.707-.284,1.082.22.341.715.531,1.082.284h0Z"/>
      <path class="cls-1" d="M63.822,151.796c.572-.127,1.149-.234,1.729-.319.023-.003.237-.033.134-.019-.101.014.145-.018.169-.021.137-.017.274-.032.411-.047.297-.031.595-.056.893-.076.412-.028.811-.344.791-.791-.018-.405-.349-.82-.791-.791-1.263.085-2.521.264-3.757.538-.404.09-.679.58-.552.973.137.424.54.648.973.552h0Z"/>
      <g>
        <path class="cls-5" d="M7.194,69.447c-1.715-2.413-2.858-5.618-1.498-8.419.85-1.752,1.612-3.57,3.265-4.736.728-.513,1.585-.893,2.476-.877s1.805.492,2.167,1.306.004,1.926-.832,2.232c.836.208,1.528.913,1.72,1.754s-.127,1.776-.791,2.325c.774-.223,1.681.318,1.852,1.105s-.428,1.656-1.225,1.775c1.379.53,1.866,2.436,1.174,3.74-1.863,3.51-6.363,2.531-8.307-.205Z"/>
        <path class="cls-1" d="M7.877,69.047c-1.551-2.201-2.703-5.11-1.453-7.714.562-1.17,1.092-2.422,1.941-3.419.785-.922,2.113-1.915,3.338-1.686.562.105,1.09.445,1.221.938.057.215.062.355-.05.65.047-.124-.06.111-.059.111-.014.024-.146.189-.069.103-.035.039-.075.08-.115.114.119-.098-.211.104-.069.047-.329.132-.58.386-.58.762,0,.346.245.671.58.762,1.296.352,1.566,1.904.58,2.757-.623.539.047,1.503.769,1.321.216-.054-.094-.016.127-.022.023,0,.213.018.149.006.099.018.132.032.267.11.162.094.286.241.326.417.031.138,0-.161.012.096.005.114.008.032-.004.097-.035.184-.046.199-.142.341.031-.046-.192.195-.147.161-.144.108-.175.111-.381.15-.337.063-.58.437-.58.762,0,.375.254.629.58.762-.082-.033.125.073.171.101.124.076.065.039.033.015.041.031.081.068.119.104.201.188.212.212.335.436.026.047.05.095.073.143.057.121-.032-.091.015.035.038.102.07.206.097.312.066.263.066.279.062.565,0,.034-.02.313-.005.201-.014.108-.039.217-.068.322-.015.053-.031.105-.048.157-.004.013-.053.141-.01.04-.051.119-.117.233-.183.345-.225.382-.426.637-.794.954-.039.033-.078.067-.119.098.028-.021.103-.074-.023.013-.082.057-.166.112-.252.163-.085.05-.172.097-.261.141-.044.022-.088.043-.133.062.104-.045.002-.002-.049.016-.172.061-.346.114-.524.153-.095.021-.19.039-.286.052.155-.022-.169.011-.226.014-.196.009-.393.006-.589-.009-.041-.003-.256-.027-.19-.018.096.014-.058-.01-.079-.014-.061-.011-.123-.022-.184-.035-.197-.041-.392-.094-.584-.157-.097-.032-.192-.066-.287-.102-.146-.055-.056-.021-.024-.007-.071-.03-.141-.062-.21-.095-.209-.1-.413-.212-.609-.334-.099-.062-.195-.126-.29-.193-.042-.03-.084-.06-.126-.091-.063-.047.048.041-.054-.044-.18-.149-.352-.305-.515-.473-.09-.093-.177-.189-.26-.288-.033-.039-.066-.079-.098-.12.08.102-.052-.072-.063-.087-.249-.346-.688-.514-1.082-.284-.342.2-.535.734-.284,1.082,1.251,1.734,3.348,2.955,5.529,2.852,2.251-.106,4.467-1.868,4.561-4.23.058-1.44-.726-2.773-2.064-3.319v1.525c1.233-.229,2.075-1.582,1.766-2.79s-1.636-1.912-2.814-1.616l.769,1.321c.87-.753,1.249-1.978.995-3.094s-1.183-2.01-2.272-2.306v1.525c1.681-.678,2.038-2.86.782-4.132-1.372-1.39-3.514-1.082-5.017-.099-1.455.952-2.386,2.393-3.143,3.923-.374.757-.789,1.521-1.026,2.335-.248.847-.323,1.76-.239,2.637.191,1.986,1.033,3.848,2.173,5.467.246.349.691.512,1.082.284.345-.202.531-.731.284-1.082Z"/>
      </g>
      <path class="cls-1" d="M21.725,53.148c-.368,5.407-.53,10.828-.482,16.248.014,1.53.044,3.059.091,4.588.031,1.015,1.612,1.02,1.581,0-.165-5.417-.124-10.84.128-16.254.071-1.528.159-3.055.263-4.582.029-.427-.384-.791-.791-.791-.452,0-.762.363-.791.791h0Z"/>
    </g>
  </g>
</svg>