<?xml version="1.0" encoding="UTF-8"?>
<svg id="_레이어_2" data-name="레이어 2" xmlns="http://www.w3.org/2000/svg" viewBox="0 0 96.346 173.196">
  <defs>
    <style>
      .cls-1 {
        fill: #0e0e0e;
      }

      .cls-1, .cls-2, .cls-3, .cls-4, .cls-5, .cls-6, .cls-7, .cls-8 {
        stroke-width: 0px;
      }

      .cls-2 {
        fill: #d18ade;
      }

      .cls-3 {
        fill: #6ea1dd;
      }

      .cls-4 {
        fill: #686867;
      }

      .cls-5 {
        fill: #714038;
      }

      .cls-6 {
        fill: #fff;
      }

      .cls-7 {
        fill: #ffd8c7;
      }

      .cls-8 {
        fill: #ffb9a0;
      }
    </style>
  </defs>
  <g id="_레이어_1-2" data-name="레이어 1">
    <g>
      <g>
        <path class="cls-7" d="M42.726,118.794l.135,9.479c.064,4.475.212,9.234,2.71,12.947,2.559,3.804,7.006,5.612,11.328,6.544,1.507.325,4.644,1.37,5.982.252,1.49-1.245,1.033-5.047,1.162-6.744.07-.921.106-1.95-.497-2.649-.503-.582-1.311-.768-1.992-1.125-1.171-.614-1.976-1.752-2.587-2.925-1.14-2.188-1.748-4.648-1.785-7.113-.036-2.374,1.065-3.9-1.586-4.937-1.916-.75-3.906-1.311-5.932-1.673"/>
        <path class="cls-1" d="M41.935,118.794c.048,3.379.087,6.758.146,10.136.05,2.875.167,5.809.959,8.592.766,2.692,2.229,5.129,4.405,6.913,2.075,1.702,4.55,2.813,7.115,3.557,1.104.32,2.231.557,3.348.829,1.127.274,2.318.552,3.485.481,1.14-.069,2.161-.526,2.706-1.576.516-.993.634-2.152.685-3.253.046-.99-.007-1.981.038-2.971.06-1.324.14-2.782-1.003-3.709-.561-.455-1.235-.647-1.865-.978-.557-.293-1.02-.718-1.41-1.21-.865-1.092-1.445-2.456-1.861-3.776-.454-1.44-.705-2.944-.711-4.456-.004-.943.246-1.883.192-2.824-.062-1.078-.625-1.914-1.569-2.433-.644-.355-1.37-.586-2.064-.824-.779-.267-1.568-.503-2.365-.707-.758-.195-1.522-.359-2.292-.498-.42-.076-.852.114-.973.552-.105.383.13.896.552.973,1.519.274,3.018.655,4.481,1.146.631.212,1.295.412,1.861.724.106.058.207.122.307.19.115.078-.126-.115.041.031.034.03.068.059.1.091.036.035.197.227.146.156-.071-.1.035.062.038.068.027.051.054.102.081.153-.08-.151-.003,0,.019.077.014.051.062.354.038.127.02.192.024.384.015.578-.019.432-.083.86-.127,1.29-.136,1.309-.027,2.629.197,3.923.259,1.5.737,2.955,1.392,4.328.6,1.256,1.372,2.456,2.499,3.299.515.385,1.097.597,1.674.868.514.242.86.498.996,1.03.133.523.066,1.126.032,1.696-.025.422-.02.845-.019,1.267.001.508.003,1.015-.013,1.523-.008.256-.02.512-.04.767-.01.126-.021.253-.034.379-.007.069-.015.138-.024.208.017-.132-.016.101-.019.116-.036.221-.081.441-.139.658-.029.109-.061.217-.098.324-.016.046-.033.091-.05.137-.062.175.046-.075-.032.072-.053.101-.105.2-.163.298-.022.038-.049.073-.073.109.084-.125.031-.034.005-.007-.074.077-.142.154-.224.222.118-.098-.14.075-.189.102-.129.072-.041.018-.008.005-.057.021-.115.04-.174.058-.109.032-.221.057-.333.077-.022.004-.153.019-.025.004-.054.006-.108.01-.162.014-.154.011-.308.013-.462.01-.58-.01-.971-.073-1.526-.182-1.026-.202-2.045-.466-3.062-.709-2.392-.571-4.722-1.401-6.782-2.762s-3.681-3.285-4.578-5.598c-.975-2.513-1.227-5.222-1.321-7.894-.109-3.115-.107-6.237-.152-9.354l-.035-2.436c-.015-1.017-1.596-1.02-1.581,0h0Z"/>
      </g>
      <g>
        <path class="cls-6" d="M64.275,137.213c-1.278.164-2.565.688-2.976,1.566-.439.937-.244,2.008-.01,3.001s.501,2.033.188,3.011c-.294.918-1.053,1.638-1.623,2.441s-.951,1.872-.425,2.691c.362.565,1.068.862,1.756,1.035.998.251,2.05.315,3.024.632,2.307.752,3.197,3.527,4.977,4.945.877.698,2.076,1.169,2.954.616,1.137-.717.989-2.553.674-4.01-.866-4.002-1.995-7.959-3.375-11.828-.576-1.617-1.391-3.422-2.907-3.956-.582-.205-1.418-.252-2.257-.144Z"/>
        <path class="cls-1" d="M64.065,136.45c-.974.133-1.951.446-2.728,1.064-.798.635-1.108,1.636-1.089,2.631.021,1.079.416,2.086.55,3.145.062.495.054,1.02-.153,1.484-.161.362-.416.703-.663,1.015-.621.782-1.297,1.565-1.513,2.571-.239,1.114.155,2.145,1.105,2.782.853.572,1.935.699,2.922.869.506.087,1.015.18,1.503.341.296.098.588.256.903.482.112.08-.069-.057.04.029.033.026.065.053.097.08.064.054.128.11.19.168.146.135.285.277.419.424.257.282.482.567.67.818.493.658.958,1.339,1.501,1.957,1.176,1.341,3.361,2.66,5.01,1.31,1.396-1.143,1.042-3.34.706-4.874-.487-2.23-1.056-4.442-1.702-6.631-.615-2.082-1.243-4.2-2.098-6.199-.721-1.687-1.857-3.234-3.793-3.491-.557-.074-1.111-.068-1.669-.001-.424.051-.791.327-.791.791,0,.388.364.842.791.791.829-.099,1.753-.108,2.413.305.259.162.477.374.704.65.203.247.43.626.602.954.372.709.626,1.443.894,2.21.349.999.681,2.004.996,3.015.618,1.978,1.171,3.977,1.658,5.991.221.914.456,1.833.614,2.762.105.622.157,1.406-.02,1.991-.067.221-.166.407-.364.571.115-.095-.121.069-.114.066-.168.086.019.011-.161.059-.098.026-.323.034-.43.017-.705-.11-1.324-.566-1.814-1.062-.523-.528-.85-.999-1.282-1.589s-.868-1.188-1.381-1.713c-.551-.565-1.191-1.022-1.926-1.312-.857-.338-1.79-.421-2.688-.594-.663-.128-1.707-.306-1.964-.978-.223-.583.266-1.375.649-1.885.613-.816,1.336-1.564,1.613-2.576.312-1.142.009-2.306-.248-3.425-.112-.489-.208-.978-.197-1.482.005-.234.039-.447.109-.67.053-.168.14-.314.195-.378.531-.612,1.523-.84,2.353-.954.424-.058.655-.6.552-.973-.126-.457-.548-.61-.973-.552Z"/>
      </g>
      <path class="cls-1" d="M64.599,150.777c-.766.336-1.354.956-1.825,1.632-.485.698-.802,1.556-.615,2.41.168.767.758,1.427,1.525,1.624.794.203,1.62-.113,2.2-.659.62-.585.88-1.421.8-2.26-.088-.929-.497-1.77-.86-2.617-.169-.394-.338-.788-.507-1.183-.153-.357-.373-.767-.399-1.159-.003-.039-.01-.097-.007-.129,0-.004.106-.296.049-.184.03-.06.104-.145.123-.16.112-.088.208-.126.295-.15.055-.015.119-.034.176-.04-.134.015.253.033.118.008.263.049.378.157.507.382.005.009.068.133.027.038.044.102.073.215.094.324-.006-.032-.008-.134.005.041.008.111.009.227-.006.337.006-.042.022-.11-.015.037-.026.107-.058.215-.101.316-.078.182-.188.354-.3.517-.246.359-.559.673-.861.985-.708.732.409,1.851,1.118,1.118,1.059-1.095,2.191-2.523,1.573-4.134-.276-.72-.853-1.312-1.622-1.486-.763-.173-1.62.075-2.169.635-.64.653-.695,1.583-.417,2.416.284.854.699,1.678,1.054,2.505.282.658.701,1.468.526,2.203-.051.216-.153.375-.354.552-.166.146-.409.241-.576.228-.187-.015.04.044-.138-.031.047.02-.132-.078-.139-.083.076.053-.087-.11-.031-.032-.051-.071-.102-.15-.134-.231.034.089-.016-.087-.021-.106-.008-.033-.019-.068-.012-.185.009-.156.052-.313.112-.459.294-.712.901-1.349,1.604-1.657.391-.171.481-.744.284-1.082-.236-.404-.689-.456-1.082-.284h0Z"/>
      <g>
        <path class="cls-7" d="M75.714,161.776c-1.015-3.245-.36-12.467-.487-14.315-.381-5.505-1.148-10.983-2.296-16.38-.781-3.668-1.139-8.448,2.508-10.837.841-.551,1.912-.562,2.917-.554,2.621.02,5.612.209,7.249,2.256.83,1.037,1.148,2.383,1.409,3.685,2.446,12.217.831,24.572-.143,36.875-.031.387-.082.819-.361,1.082-.28.264-.686.261-1.048.241-2.985-.169-5.957-.479-8.903-.929-.363-.056-.637-.468-.843-1.126Z"/>
        <path class="cls-1" d="M76.477,161.566c-.138-.449-.222-.911-.293-1.376-.005-.032-.033-.247-.007-.047-.008-.066-.017-.133-.025-.199-.016-.137-.031-.275-.045-.412-.029-.291-.053-.582-.073-.874-.09-1.324-.11-2.652-.107-3.978.004-2.226.127-4.453.108-6.679-.014-1.584-.219-3.183-.385-4.757-.222-2.112-.501-4.219-.833-6.316-.326-2.056-.714-4.099-1.14-6.136-.287-1.371-.468-2.574-.466-3.999,0-.746.05-1.377.186-2.033.139-.672.332-1.262.616-1.8.626-1.19,1.686-2.318,3.147-2.446.809-.071,1.639-.037,2.449-.003.805.034,1.538.096,2.298.259,1.422.304,2.699.9,3.445,2.215.441.778.651,1.664.833,2.532.209.998.386,2.003.54,3.01.315,2.053.517,4.122.639,6.195.245,4.153.158,8.318-.077,12.469-.239,4.212-.629,8.413-.985,12.616-.08.946-.096,1.991-.239,2.885-.023.144-.07.285-.112.339.037-.047.09.016-.055.006.124.008-.18.012-.157.012-.479.008-.967-.048-1.445-.081-2.087-.144-4.171-.353-6.243-.64-.257-.036-.513-.072-.77-.11-.128-.019-.257-.037-.384-.057l-.128-.019c-.085-.023-.08-.015.015.023-.094-.165.047.155-.05-.039.072.143-.061-.093-.063-.096-.089-.151-.135-.285-.193-.461-.132-.406-.547-.669-.973-.552-.398.109-.685.565-.552.973.145.446.328.913.662,1.254.337.345.723.423,1.182.491,1.117.165,2.238.312,3.36.44,1.096.124,2.195.229,3.295.315.561.044,1.123.082,1.685.116.451.027.92.065,1.352-.098,1.17-.442,1.149-1.719,1.234-2.768.089-1.094.182-2.188.276-3.281.188-2.188.38-4.376.55-6.566.338-4.365.589-8.743.537-13.123-.052-4.43-.423-8.866-1.284-13.216-.363-1.836-.894-3.728-2.427-4.938-1.371-1.082-3.085-1.466-4.791-1.62-.83-.075-1.665-.093-2.498-.092-.977,0-1.988.076-2.862.553-1.417.774-2.44,2.18-3.001,3.665-1.142,3.02-.421,6.324.194,9.369.858,4.25,1.479,8.546,1.855,12.865.103,1.184.195,2.354.176,3.541s-.056,2.378-.078,3.567c-.05,2.71-.105,5.463.29,8.151.068.464.155.927.293,1.376.298.97,1.825.556,1.525-.42Z"/>
      </g>
      <g>
        <path class="cls-6" d="M74.857,165.547c.105-1.278.572-2.601,1.438-3.097.925-.53,2.015-.449,3.027-.32s2.076.283,3.048-.127c.912-.385,1.603-1.208,2.385-1.853s1.843-1.131,2.695-.698c.587.299.92.964,1.128,1.625.301.958.415,1.989.782,2.917.869,2.198,3.712,2.788,5.227,4.396.747.792,1.279,1.926.762,2.85-.669,1.196-2.529,1.24-4.014,1.08-4.08-.44-8.126-1.144-12.096-2.104-1.659-.401-3.52-1.018-4.13-2.458-.234-.553-.322-1.372-.253-2.211Z"/>
        <path class="cls-1" d="M75.648,165.547c.065-.731.247-1.549.715-2.132-.071.089.115-.117.102-.103-.005.005.2-.171.093-.092.138-.103.296-.179.458-.236.424-.152.869-.171,1.315-.154.926.035,1.838.261,2.768.226,1.084-.041,1.988-.438,2.822-1.112.648-.524,1.199-1.184,1.935-1.592.302-.168.641-.292.949-.272.255.016.48.173.644.408.481.689.585,1.633.775,2.447.212.903.496,1.755,1.076,2.488.897,1.135,2.248,1.77,3.447,2.525.597.376,1.056.676,1.5,1.25.213.275.389.587.477.924.081.313.063.568-.139.855.073-.104-.255.238-.151.159-.125.095-.27.175-.414.237.13-.056-.125.04-.12.038-.081.026-.163.049-.246.069-.185.046-.385.077-.49.087-.782.073-1.559-.006-2.336-.094-2.051-.233-4.094-.537-6.125-.907-1.174-.214-2.344-.45-3.509-.709-.989-.219-1.99-.427-2.954-.739-.76-.246-1.528-.577-2.052-1.136-.223-.238-.373-.529-.461-.894-.121-.503-.114-1.028-.077-1.54.031-.426-.386-.791-.791-.791-.454,0-.76.363-.791.791-.073.999.006,2.123.562,2.989.477.744,1.215,1.281,2.009,1.646.847.389,1.737.639,2.641.855,1.118.267,2.242.514,3.369.74,2.267.455,4.549.822,6.842,1.115,1.755.224,3.865.658,5.507-.245.828-.455,1.392-1.34,1.347-2.3-.048-1.021-.621-1.962-1.339-2.661-.562-.547-1.234-.974-1.903-1.375-.336-.201-.675-.397-1.008-.604-.159-.099-.316-.199-.471-.304-.082-.056-.164-.113-.245-.172-.111-.08-.061-.041-.142-.107-.264-.213-.587-.521-.756-.74-.21-.272-.37-.61-.479-.939-.33-1.001-.429-2.068-.832-3.047-.411-.997-1.139-1.802-2.27-1.895-1.041-.085-2.024.513-2.786,1.157-.677.571-1.31,1.378-2.179,1.665-.966.32-2.012.071-2.994-.031-1.035-.108-2.165-.066-3.078.494-.809.496-1.276,1.386-1.535,2.272-.142.484-.215.986-.26,1.487-.038.426.391.791.791.791.459,0,.752-.364.791-.791Z"/>
      </g>
      <path class="cls-1" d="M90.03,164.996c.238-.621.813-1.16,1.367-1.507.24-.15.539-.286.772-.293.171-.005.149-.009.315.053-.107-.04.135.08.125.074-.084-.049.083.093.029.019.138.192.137.236.056.496-.053.171-.232.428-.406.567-.208.166-.441.247-.773.258-.422.014-.825-.077-1.229-.191-.852-.239-1.692-.524-2.538-.782-.854-.261-1.831-.43-2.615.121-1.317.926-1.353,3.016.116,3.812.752.408,1.648.386,2.42.056.872-.374,1.544-1.065,2.173-1.755.287-.316.312-.806,0-1.118-.292-.292-.83-.317-1.118,0-.483.531-.996,1.133-1.667,1.429-.133.059-.287.101-.432.12.14-.018-.136-.002-.131-.002,0,0-.27-.025-.127-.002-.296-.047-.433-.118-.573-.289.083.102-.059-.111-.059-.112.016.036.03.097-.012-.05-.019-.067-.032-.144-.009-.298-.02.136.047-.136.045-.129.075-.217-.052.069.063-.129.002-.004.078-.126.024-.053.036-.044.075-.086.116-.126.071-.065.084-.076.038-.034.218-.143.509-.129.77-.067.456.107.901.261,1.348.4,1.652.513,3.674,1.384,5.208.126.579-.475,1.005-1.238.99-2.001-.018-.87-.593-1.595-1.412-1.862-.9-.293-1.847.051-2.578.588-.807.592-1.46,1.321-1.82,2.264-.153.399.169.867.552.973.445.122.819-.152.973-.552h0Z"/>
      <g>
        <path class="cls-2" d="M87.039,123.572c.525-.202,1.048-.407,1.571-.615.729-.29-2.63-9.992-2.881-10.789-1.819-5.786-2.996-11.224-6.337-16.422-.556-.864-1.161-1.732-2.015-2.303-4.285-2.862-12.371,1.763-16.887,2.611-4.819.906-9.647,1.81-14.383,3.093-2.326.63-4.612,1.017-5.459,3.507-.907,2.668-.333,6.662-.288,9.454.097,6.14.365,12.527.605,18.526.021.522.075,1.114.485,1.437.345.271.825.256,1.262.229,5.591-.353,11.182-.709,16.773-1.066.481-.031.983-.068,1.398-.313.89-.526,1.024-1.741,1.059-2.779.06-1.818-.702-7.664,1.749-6.551,1.61.731,3.079,5.435,3.845,6.971.135.243.282.498.517.621.266.139.58.074.868.006,6.139-1.462,12.194-3.34,18.12-5.618Z"/>
        <path class="cls-1" d="M87.25,124.335c.424-.163.847-.328,1.269-.495.323-.128.628-.207.819-.519.136-.222.17-.488.166-.743-.011-.639-.178-1.293-.328-1.911-.43-1.774-.986-3.518-1.545-5.255-.371-1.154-.769-2.299-1.139-3.453-.995-3.107-1.805-6.271-2.919-9.34-.556-1.531-1.182-3.041-1.916-4.496s-1.557-2.934-2.601-4.196c-1.641-1.983-4.186-2.402-6.621-2.102-2.581.318-5.044,1.19-7.486,2.046-1.096.384-2.192.775-3.309,1.094-1.359.387-2.765.592-4.151.856-3.55.677-7.095,1.393-10.595,2.302-2.489.646-5.62,1.136-6.789,3.768-.59,1.329-.724,2.834-.753,4.273-.03,1.478.078,2.954.156,4.43.085,1.604.087,3.212.126,4.818.044,1.792.099,3.584.16,5.375.062,1.805.13,3.61.201,5.414.035.9.071,1.8.107,2.7.033.829.004,1.691.147,2.51s.691,1.495,1.535,1.644c.849.151,1.775-.016,2.629-.07,1.835-.116,3.669-.232,5.504-.349,1.835-.117,3.669-.233,5.504-.35.917-.059,1.834-.117,2.752-.176.849-.054,1.807-.006,2.619-.286,2.402-.828,1.93-4.002,1.882-6.007-.011-.474-.015-.949,0-1.423.007-.219.019-.438.037-.657.009-.105.022-.209.031-.314.016-.201-.019.123,0-.002.01-.068.02-.136.032-.204.032-.18.07-.359.123-.534.024-.079.055-.156.081-.234-.076.23.024-.033.057-.096.013-.026.05-.06.056-.088.017-.074-.14.128-.039.049.085-.066.192-.115.005-.029.032-.015.059-.042.092-.057.097-.044-.089.014-.09.036,0-.009.096-.028.105-.03.134-.028-.205.04-.059.011.032-.006.071.011.101.003.075-.02-.194-.058-.06-.006.073.029.158.047.233.072-.205-.067.025.02.08.054.043.027.084.057.126.087-.1-.071-.067-.056.007.015.146.141.284.288.41.448-.104-.132.084.121.117.169.082.12.161.243.236.367.584.958,1.053,2.06,1.437,2.994.203.494.399.99.605,1.483.189.454.364.941.646,1.347.298.428.685.719,1.216.769.459.043.92-.103,1.362-.21.859-.208,1.716-.424,2.571-.648,3.427-.897,6.82-1.924,10.17-3.074,1.64-.563,3.269-1.157,4.887-1.778.398-.153.673-.532.552-.973-.105-.381-.572-.706-.973-.552-3.234,1.242-6.511,2.37-9.827,3.375-1.653.501-3.316.973-4.986,1.413-.855.225-1.712.443-2.57.652-.204.05-.409.1-.613.148-.147.035-.311.1-.465.076.146.023.052.013-.017-.084-.078-.109-.137-.233-.195-.354-.08-.168-.154-.34-.227-.511.078.182-.051-.124-.071-.172-.054-.131-.107-.262-.161-.393-.199-.49-.397-.981-.602-1.468-.444-1.056-.901-2.127-1.531-3.088-.494-.752-1.147-1.54-2.085-1.705-.971-.17-1.665.422-2.009,1.284-.316.792-.36,1.701-.381,2.544-.022.888.02,1.775.049,2.662.011.347.022.695.008,1.043-.021.541-.063,1.121-.272,1.541-.123.248-.226.374-.392.466-.304.168-.66.183-.999.205-.873.058-1.747.112-2.621.168-3.582.229-7.163.457-10.745.683-.917.058-1.835.116-2.752.174-.381.024-.786.087-1.168.052-.093-.009-.153-.01-.225-.05-.076-.042-.008.017-.095-.083.062.07-.041-.123-.014-.038-.204-.645-.139-1.471-.168-2.201-.033-.836-.067-1.671-.1-2.507-.138-3.488-.268-6.976-.359-10.466-.043-1.632-.043-3.268-.112-4.899-.06-1.421-.176-2.84-.193-4.262-.016-1.358.023-2.688.422-3.977.348-1.122,1.03-1.771,2.094-2.259.128-.059.453-.181.691-.26.31-.103.623-.193.938-.279.662-.181,1.326-.355,1.989-.529,1.706-.448,3.425-.849,5.149-1.221,1.725-.372,3.455-.716,5.188-1.049,1.432-.275,2.892-.481,4.302-.855,2.27-.603,4.45-1.512,6.69-2.214,1.172-.367,2.362-.693,3.574-.897.337-.057.402-.066.716-.099.299-.031.6-.053.901-.062.251-.007.502-.006.753.007.129.006.257.016.386.028.063.006.127.013.19.021-.164-.02.078.013.089.015.244.04.485.093.722.162.117.034.232.071.346.112.045.016.09.034.136.051.086.035.09.036.011.003.044.019.088.039.131.06.531.251.976.589,1.371,1.023.511.56.913,1.218,1.308,1.861.412.67.797,1.357,1.156,2.057,2.374,4.626,3.467,9.738,5.104,14.639.526,1.575,1.042,3.153,1.524,4.742.257.847.505,1.697.726,2.553.093.361.181.722.257,1.087.029.137.055.275.079.413.01.058.017.117.028.175.028.148-.021-.211-.009-.066.003.033.008.067.011.1.009.095.012.189.015.284,0,.024-.016.09-.006.111-.051-.115.051-.239.008-.106.028-.086.068-.178.161-.27-.027.027.186-.162.135-.105l.059-.028c-.08.032-.161.064-.241.096-.402.159-.805.316-1.209.471-.398.153-.673.532-.552.973.105.381.572.706.973.552Z"/>
      </g>
      <g>
        <path class="cls-5" d="M26.235,25.766c-4.158-.51-7.017-4.5-8.39-8.458-.867-2.499-1.364-5.171-1.044-7.797s1.52-5.205,3.586-6.857c3.784-3.026,9.885-2.053,13.056,1.61,3.171,3.664,3.471,9.307,1.33,13.653"/>
        <path class="cls-1" d="M26.235,24.976c-1.539-.199-3.01-1.05-4.154-2.158-1.252-1.213-2.184-2.701-2.91-4.296-1.625-3.57-2.396-8.053-.834-11.797.682-1.636,1.848-3.111,3.32-3.991,1.331-.795,2.827-1.121,4.383-1.081.82.021,1.472.121,2.291.346.807.223,1.442.481,2.162.885,1.418.796,2.563,1.93,3.396,3.366,1.77,3.048,1.873,6.858.68,10.147-.143.395-.292.74-.479,1.123s-.104.855.284,1.082c.348.203.894.102,1.082-.284,1.763-3.615,2.002-7.935.406-11.653-1.493-3.479-4.711-5.94-8.462-6.47-1.794-.253-3.651-.115-5.336.583-1.853.766-3.358,2.116-4.404,3.823-2.464,4.02-2.015,9.069-.429,13.322,1.322,3.545,3.764,7.187,7.562,8.344.473.144.955.227,1.445.29.424.055.791-.403.791-.791,0-.473-.365-.736-.791-.791h0Z"/>
      </g>
      <g>
        <path class="cls-5" d="M55.357,12.907c-.633-.993-.397-2.289-.099-3.428.502-1.917,1.158-3.874,2.52-5.314.839-.888,1.906-1.532,3.017-2.041,3.63-1.662,8.053-1.891,11.543.048s5.695,6.266,4.584,10.101c-.395,1.363-1.16,2.595-2.06,3.693-2.448,2.988-5.973,5.072-9.771,5.778"/>
        <path class="cls-1" d="M56.039,12.508c-.401-.663-.325-1.452-.171-2.185.178-.848.426-1.693.713-2.51.549-1.561,1.394-3.008,2.772-3.972,2.701-1.892,6.403-2.693,9.639-2.046,3.054.611,5.615,2.535,6.814,5.416.503,1.209.743,2.669.553,3.938-.248,1.66-1.125,3.15-2.192,4.418-2.371,2.818-5.674,4.73-9.288,5.414-.42.079-.659.585-.552.973.121.44.552.632.973.552,3.564-.674,6.912-2.516,9.397-5.158,1.325-1.409,2.492-3.071,3.012-4.956.446-1.616.363-3.365-.145-4.957-1.078-3.375-3.822-5.952-7.208-6.935-3.659-1.062-7.828-.379-11.097,1.527-1.713.998-2.98,2.45-3.767,4.266-.381.88-.677,1.788-.926,2.713-.245.91-.48,1.875-.372,2.823.06.527.205,1.02.481,1.476.526.869,1.894.076,1.365-.798h0Z"/>
      </g>
      <g>
        <path class="cls-6" d="M86.917,27.609c-1.663-.216-3.357.118-4.942.666-1.282.443-2.531,1.035-3.561,1.917-1.972,1.688-2.943,4.235-3.839,6.671-1.114,3.029-3.071,6.139-5.502,8.29-2.471,2.186-6.103,3.215-9.139,4.547-.863.379-2.112-.219-3.104-.111-4.206.459-8.717,2.18-12.82,3.275-2.555.682-5.32.769-8.073.37-6.145-.891-12.231-4.202-15.793-8.717-1.607-2.038-3.321-4.158-5.719-5.15-1.253-.519-2.624-.694-3.98-.718-1.677-.029-3.391.179-4.905.9C1.143,41.644.09,47.714,1.899,51.842c1.416,3.23,3.449,6.152,5.628,8.926,3.584,4.561,7.599,8.782,11.975,12.59,4.522,3.935,9.102,7.938,12.672,12.792,4,5.439,5.262,11.944,6.835,18.361.241.984.529,2.043,1.327,2.668.823.645,1.963.652,3.007.6,9.326-.466,18.356-3.268,27.27-6.049,2.991-.933,6.051-1.901,8.535-3.812.591-.455,1.164-.988,1.423-1.687.248-.67.18-1.412.078-2.119-.361-2.503-1.034-5.006-1.507-7.481-.546-2.851-2.128-5.446-2.163-8.412-.063-5.375,4.642-9.943,7.153-14.14,2.978-4.977,5.485-10.236,7.477-15.684,1.211-3.312,2.238-6.721,2.582-10.231.439-4.485-2.445-9.929-7.273-10.557Z"/>
        <path class="cls-1" d="M86.917,26.818c-2.617-.311-5.521.523-7.762,1.873-2.122,1.279-3.454,3.326-4.406,5.562-.468,1.098-.835,2.235-1.306,3.33-.492,1.143-1.087,2.245-1.765,3.288-1.273,1.958-2.866,3.751-4.889,4.95-2.055,1.219-4.338,1.966-6.532,2.886-.473.199-.816.362-1.337.312-.611-.058-1.209-.238-1.826-.236-1.283.005-2.637.353-3.88.64-2.595.599-5.125,1.439-7.679,2.188-1.27.372-2.544.741-3.859.915-1.375.182-2.777.196-4.159.091-4.772-.363-9.541-2.253-13.309-5.198-.891-.696-1.73-1.462-2.5-2.29-.788-.848-1.469-1.785-2.216-2.669-1.568-1.855-3.424-3.525-5.817-4.185-1.304-.36-2.696-.456-4.044-.412-1.309.043-2.635.241-3.857.727-1.826.727-3.303,2.062-4.234,3.793-.91,1.693-1.32,3.649-1.269,5.565.057,2.145.755,4.041,1.729,5.93,1.188,2.304,2.663,4.448,4.237,6.502,1.647,2.149,3.385,4.227,5.213,6.224s3.737,3.908,5.73,5.734c1.964,1.8,4.01,3.508,5.98,5.301,3.792,3.452,7.64,7.197,10.131,11.732,2.404,4.376,3.499,9.301,4.658,14.114.272,1.129.466,2.373,1.084,3.378.673,1.095,1.767,1.586,3.01,1.698,1.292.116,2.648-.064,3.933-.187,1.411-.135,2.817-.318,4.217-.538,5.518-.869,10.912-2.368,16.249-3.991,2.581-.785,5.191-1.529,7.724-2.461,1.207-.444,2.401-.947,3.526-1.573,1.064-.592,2.224-1.301,2.997-2.258.902-1.116.91-2.378.711-3.74-.202-1.377-.495-2.74-.794-4.099-.298-1.351-.533-2.726-.873-4.066-.312-1.23-.775-2.414-1.177-3.617-.395-1.183-.744-2.398-.782-3.652-.033-1.079.147-2.134.471-3.161.655-2.074,1.861-3.938,3.095-5.709,1.265-1.815,2.612-3.569,3.739-5.476,1.402-2.373,2.697-4.81,3.881-7.299,1.188-2.499,2.268-5.051,3.233-7.644.947-2.545,1.796-5.138,2.325-7.805.443-2.233.718-4.458.184-6.698-.455-1.907-1.39-3.73-2.737-5.16-1.28-1.359-2.978-2.325-4.837-2.583-.422-.059-.849.103-.973.552-.102.37.127.913.552.973,3.74.519,6.151,4.025,6.651,7.573.309,2.192-.218,4.496-.744,6.614-.655,2.634-1.569,5.2-2.562,7.723-.963,2.448-2.038,4.852-3.212,7.206-1.161,2.328-2.389,4.652-3.794,6.843-2.307,3.597-5.435,6.876-6.513,11.123-.605,2.384-.271,4.697.497,7,.385,1.153.826,2.288,1.137,3.464.336,1.274.552,2.585.836,3.872.307,1.389.613,2.779.831,4.185.087.563.189,1.169.068,1.734-.123.574-.53.997-.963,1.369-1.812,1.557-4.169,2.46-6.404,3.209-5.159,1.729-10.411,3.311-15.699,4.595-2.62.636-5.265,1.178-7.934,1.565-1.35.195-2.707.345-4.067.448-1.106.084-2.485.334-3.555-.08-.974-.377-1.247-1.463-1.477-2.378-.294-1.172-.566-2.35-.852-3.525-.583-2.398-1.199-4.793-2.015-7.123-.81-2.313-1.814-4.572-3.13-6.644-1.369-2.155-3.05-4.13-4.791-5.991-3.532-3.773-7.57-6.983-11.34-10.502-3.807-3.553-7.346-7.428-10.476-11.592-1.555-2.069-2.996-4.236-4.133-6.565-.834-1.708-1.297-3.45-1.209-5.362.079-1.712.589-3.415,1.585-4.819,1.181-1.665,3.059-2.535,5.049-2.782,2.417-.3,5.01-.039,7.062,1.354,1.905,1.294,3.162,3.244,4.656,4.946,3.055,3.483,7.278,5.943,11.68,7.299,2.434.75,5,1.166,7.549,1.134,2.647-.033,5.124-.701,7.639-1.459,2.546-.768,5.087-1.584,7.7-2.099.574-.113,1.151-.214,1.731-.287.573-.072,1.075-.012,1.639.08.546.089,1.089.168,1.639.068.538-.098,1.064-.406,1.57-.611,2.191-.886,4.461-1.667,6.481-2.918,2.054-1.272,3.696-3.108,5.032-5.103.666-.995,1.252-2.043,1.751-3.131.487-1.062.862-2.166,1.292-3.251.833-2.1,1.938-4.18,3.908-5.412,2.047-1.28,4.686-2.025,7.097-1.739.425.05.791-.399.791-.791,0-.469-.365-.74-.791-.791Z"/>
      </g>
      <g>
        <path class="cls-3" d="M38.112,52.32c-1.203-1.354-2.698.312-2.747,1.7-.338,9.507.949,19.009,2.934,28.235,1.849,8.593,3.839,18.012,7.459,25.923.084.183.18.38.348.466.144.074.311.051.469.026.491-.077.982-.154,1.472-.231,1.743-.274-1.398-9.61-1.82-11.346-1.165-4.793-2.303-9.595-3.335-14.426-2.017-9.445-3.654-19.022-4.278-28.716-.034-.526-.081-1.09-.388-1.492-.038-.049-.076-.096-.114-.139Z"/>
        <path class="cls-1" d="M38.671,51.761c-.68-.729-1.693-.956-2.571-.435-.761.452-1.317,1.33-1.467,2.196-.094.544-.08,1.105-.092,1.655-.013.599-.02,1.199-.021,1.798-.001,1.177.021,2.354.064,3.53.177,4.75.709,9.483,1.472,14.173.727,4.469,1.695,8.895,2.682,13.313.955,4.274,1.992,8.536,3.326,12.71.65,2.034,1.372,4.047,2.198,6.016.218.519.44,1.037.671,1.551.243.539.509,1.059,1.143,1.188.547.111,1.205-.1,1.75-.186.295-.046.556-.069.814-.229.797-.497.76-1.675.689-2.49-.107-1.221-.371-2.429-.66-3.618-.501-2.055-1.193-4.059-1.696-6.112-1.139-4.646-2.233-9.305-3.238-13.982-.994-4.626-1.895-9.273-2.634-13.947s-1.303-9.338-1.636-14.039c-.078-1.098-.041-2.209-.795-3.09-.278-.325-.833-.285-1.118,0-.322.322-.278.792,0,1.118.204.238.239.629.264.966.041.571.076,1.142.12,1.713.086,1.135.185,2.268.297,3.401.226,2.29.505,4.575.823,6.854.624,4.476,1.412,8.928,2.304,13.358.902,4.485,1.91,8.947,2.966,13.398.411,1.731.78,3.482,1.262,5.195.257.914.534,1.822.795,2.735.341,1.195.667,2.395.94,3.607.128.568.245,1.14.336,1.715.011.07.021.14.032.209.013.087.021.161.004.023.016.13.032.259.045.39.021.217.036.435.04.653.001.096,0,.192-.004.288-.002.041-.004.082-.007.123-.003.041-.036.222-.004.067.032-.153-.016.07-.028.117-.009.035-.022.07-.03.105-.03.133.031-.069.032-.069-.076.056-.139.18.022,0-.121.136.177-.093.019-.012.213-.108.102-.046-.063-.02-.286.045-.573.09-.859.135-.123.019-.245.039-.368.058-.141.021-.143-.001.007.093.18.114.017-.056-.032-.157-.057-.118-.109-.237-.162-.356-.199-.441-.392-.885-.578-1.332-.393-.944-.762-1.898-1.11-2.858-1.424-3.921-2.521-7.953-3.493-12.007-.987-4.117-1.901-8.261-2.712-12.416-.862-4.417-1.539-8.872-1.928-13.357-.194-2.237-.318-4.481-.361-6.726-.021-1.134-.021-2.269,0-3.403.005-.278.012-.557.02-.835.004-.128.007-.257.012-.385.003-.07.003-.14.009-.21.003-.038.02-.122.005-.038.068-.378.165-.604.399-.91-.045.058.097-.104.121-.127.031-.031.156-.141.133-.123-.027.02.112-.066.147-.086.079-.044-.002-.004-.018.002.046-.018.093-.028.14-.043.014-.005.126-.016.038-.009-.097.007.037.003.04.005.009.006.13.001.041.002-.084,0,.028.006.042.018-.105-.087.112.06.098.05.038.026.152.14.208.199.696.746,1.812-.374,1.118-1.118Z"/>
      </g>
      <g>
        <path class="cls-3" d="M59.255,47.88c.553-1.725,2.593-.805,3.2.445,4.153,8.559,6.817,17.77,8.731,27.011,1.783,8.607,3.77,18.026,3.657,26.725-.003.202-.011.42-.13.567-.102.126-.264.172-.418.213-.48.128-.96.256-1.44.384-1.705.454-2.606-9.355-2.922-11.114-.872-4.855-1.773-9.707-2.782-14.543-1.973-9.454-4.348-18.875-7.696-27.994-.182-.494-.366-1.03-.248-1.521.015-.061.031-.118.048-.173Z"/>
        <path class="cls-1" d="M60.017,48.09c.043-.125-.011-.01.047-.117.024-.044.049-.087.076-.129-.007.011-.076.086-.017.022.023-.025.158-.144.087-.092-.077.056.01-.002.023-.009.164-.094-.096.022.005-.008.029-.009.209-.053.102-.034-.101.018.1.004.142,0,.138-.012-.093-.033.045.004.086.023.172.047.258.072.136.04-.06-.042.066.028.062.034.126.065.187.102.072.043.142.09.21.14.073.054-.006-.003-.017-.012.037.031.074.063.109.096.062.058.12.119.178.181.025.026.048.054.071.082-.009-.01-.067-.092-.015-.019.111.156.195.323.278.495.945,1.958,1.813,3.952,2.608,5.975,1.609,4.093,2.937,8.292,4.059,12.543,1.109,4.204,1.987,8.462,2.847,12.722.87,4.316,1.681,8.651,2.183,13.027.248,2.163.423,4.337.485,6.514.015.539.024,1.077.024,1.616,0,.258.002.515-.005.773-.001.045.003.198-.016.189-.101-.051.364-.257-.012-.156-.127.034-1.421.39-1.425.377-.002-.006.264-.023.111-.024-.048,0,.239.045.123.013s.151.068.103.047c-.029-.013-.058-.031-.084-.05-.027-.02.149.154.077.058-.019-.025-.048-.049-.071-.071-.151-.144.086.15-.035-.045-.09-.146-.173-.294-.245-.45-.015-.033-.083-.192-.032-.071.051.123-.011-.03-.022-.059-.042-.11-.083-.221-.121-.332-.082-.239-.154-.481-.222-.724-.32-1.156-.535-2.34-.728-3.523-.099-.606-.19-1.214-.275-1.822-.02-.142-.04-.284-.059-.426-.009-.064-.018-.128-.026-.192-.007-.048-.037-.273-.024-.177.014.106-.011-.08-.015-.109-.009-.07-.019-.139-.028-.209-.018-.133-.035-.267-.053-.4-.134-1.019-.283-2.027-.465-3.038-.83-4.596-1.691-9.188-2.648-13.759-.927-4.424-1.94-8.831-3.1-13.201s-2.471-8.719-3.983-12.989c-.177-.5-.357-.998-.539-1.496-.158-.431-.359-.875-.222-1.334.292-.977-1.233-1.394-1.525-.42-.349,1.167.291,2.351.676,3.431.398,1.118.782,2.241,1.153,3.368.735,2.232,1.419,4.48,2.059,6.74,1.285,4.535,2.397,9.117,3.401,13.722,1.035,4.747,1.955,9.518,2.829,14.297.194,1.059.398,2.118.575,3.18.025.151.047.303.069.455.013.095.026.191.039.286.022.158-.011-.087-.004-.031.008.063.017.127.025.19.158,1.197.313,2.394.495,3.587.192,1.259.405,2.519.71,3.756.236.959.504,2.038,1.143,2.817.265.324.651.566,1.082.562.428-.003.874-.191,1.282-.299.58-.154,1.188-.277,1.461-.878.229-.504.153-1.144.151-1.685-.002-.559-.012-1.119-.029-1.678-.035-1.133-.101-2.265-.192-3.394-.37-4.63-1.133-9.222-2.012-13.779-.862-4.47-1.76-8.943-2.858-13.362-1.105-4.445-2.42-8.841-4.032-13.129-.819-2.181-1.715-4.335-2.692-6.45-.385-.833-.712-1.77-1.42-2.392-.568-.499-1.33-.901-2.108-.839-.913.073-1.516.685-1.804,1.523-.139.404.159.864.552.973.434.119.833-.147.973-.552Z"/>
      </g>
      <g>
        <path class="cls-7" d="M56.797,47.406c.009,2.174.018,4.348.027,6.522.005,1.185-.003,2.426-.557,3.474-.633,1.198-1.881,1.945-3.141,2.444-1.992.787-4.169,1.1-6.301.906-1.042-.095-2.161-.36-2.817-1.175-.402-.5-.574-1.141-.736-1.761-.537-2.056-1.073-4.112-1.61-6.169"/>
        <path class="cls-1" d="M56.007,47.406c.009,2.212.022,4.424.028,6.636.002.914.015,1.885-.345,2.744-.308.736-.91,1.288-1.581,1.699-1.607.984-3.599,1.438-5.467,1.518-.939.04-1.898.025-2.782-.214-.723-.195-1.291-.562-1.565-1.31-.4-1.092-.623-2.269-.917-3.394l-.953-3.651c-.257-.984-1.782-.567-1.525.42l.92,3.525c.288,1.103.529,2.232.88,3.316.326,1.008.922,1.852,1.902,2.308.957.445,2.026.557,3.071.587,2.224.063,4.501-.39,6.511-1.35.881-.421,1.715-.998,2.319-1.772.705-.903.99-1.97,1.077-3.098.099-1.278.031-2.577.025-3.857-.006-1.37-.011-2.739-.017-4.109-.004-1.017-1.585-1.019-1.581,0h0Z"/>
      </g>
      <g>
        <path class="cls-7" d="M65.754,39.681c.759.19,1.567.234,2.388.106,3.285-.513,5.532-3.592,5.019-6.877-.513-3.285-3.592-5.532-6.877-5.019-1.232.192-2.318.746-3.167,1.535"/>
        <path class="cls-1" d="M65.544,40.443c1.927.462,4.035.109,5.642-1.075,1.39-1.025,2.408-2.538,2.717-4.251.317-1.759-.03-3.629-1.057-5.108-.984-1.418-2.48-2.467-4.179-2.826-2.192-.463-4.458.173-6.109,1.683-.315.288-.292.826,0,1.118.314.314.802.289,1.118,0,1.172-1.072,2.719-1.532,4.252-1.335-.129-.017.159.027.143.025.087.016.175.033.261.053.172.039.343.086.511.14.343.11.53.192.856.37.637.349,1.104.734,1.583,1.31,1.756,2.108,1.444,5.345-.582,7.189-.516.47-1.202.864-1.869,1.076-.934.297-1.916.335-2.869.106-.989-.237-1.411,1.287-.42,1.525h0Z"/>
      </g>
      <g>
        <path class="cls-7" d="M30.251,45.226c-.665.412-1.421.701-2.242.829-3.285.513-6.364-1.734-6.877-5.019s1.734-6.364,5.019-6.877c1.232-.192,2.435.003,3.484.496"/>
        <path class="cls-1" d="M29.852,44.544c-.741.45-1.601.732-2.399.782-.743.047-1.305-.022-2.005-.248-1.208-.389-2.278-1.264-2.919-2.389-1.348-2.365-.592-5.477,1.665-6.947,1.45-.944,3.388-1.162,5.041-.404.388.178.851.11,1.082-.284.199-.34.106-.903-.284-1.082-1.917-.879-4.075-.889-5.979.033-1.554.753-2.733,2.121-3.353,3.719-1.306,3.366.448,7.267,3.738,8.655,2.014.85,4.342.664,6.21-.471.869-.527.075-1.895-.798-1.365h0Z"/>
      </g>
      <g>
        <circle class="cls-7" cx="46.487" cy="33.841" r="21.047"/>
        <path class="cls-1" d="M24.931,37.299c.703,4.439,2.803,8.606,5.949,11.817,3.063,3.127,7.082,5.316,11.381,6.153,4.541.884,9.28.298,13.477-1.644,3.971-1.838,7.338-4.928,9.562-8.692,2.258-3.823,3.318-8.334,2.96-12.762-.369-4.573-2.145-8.927-5.102-12.437-2.817-3.344-6.673-5.796-10.887-6.956-4.39-1.209-9.167-.997-13.429.607-4.171,1.57-7.771,4.383-10.315,8.041-2.519,3.622-3.887,8.019-3.878,12.43.002,1.154.108,2.303.283,3.443.065.422.595.656.973.552.451-.124.617-.549.552-.973-.626-4.063.05-8.388,1.895-12.064,1.857-3.7,4.755-6.731,8.37-8.725,3.726-2.055,8.057-2.874,12.327-2.353,3.964.484,7.916,2.298,10.918,4.981,3.126,2.795,5.297,6.444,6.251,10.526.962,4.117.609,8.426-1.017,12.377-1.512,3.674-4.261,6.984-7.613,9.172-3.587,2.342-7.806,3.482-12.085,3.285-4.081-.188-8.067-1.656-11.372-4.18-.303-.231-.768-.619-1.12-.933-.391-.35-.77-.714-1.134-1.093-.711-.738-1.332-1.483-1.892-2.275-1.236-1.745-2.169-3.611-2.799-5.606-.321-1.018-.562-2.059-.729-3.113-.067-.422-.594-.656-.973-.552-.45.124-.619.549-.552.973Z"/>
      </g>
      <circle class="cls-8" cx="59.295" cy="36.793" r="4.395"/>
      <circle class="cls-8" cx="34.65" cy="40.643" r="4.395"/>
      <path class="cls-1" d="M46.315,32.211c-.452-.19-1.05.024-1.352.388-.313.377-.418.833-.434,1.315-.025.729.206,1.505.644,2.09.128.171.258.304.473.363.189.052.441.029.609-.08.169-.109.317-.271.363-.473.044-.194.045-.442-.08-.609-.13-.173-.237-.359-.323-.557l.08.189c-.094-.226-.158-.461-.192-.704l.028.21c-.028-.229-.029-.457,0-.685l-.028.21c.016-.111.041-.217.081-.322l-.08.189c.017-.038.035-.073.055-.11.058-.112-.1.1-.04.046.079-.071.026.013-.062.04.032-.01.066-.038.097-.053l-.189.08c.046-.018.091-.029.14-.036l-.21.028c.037-.002.07-.002.107.002l-.21-.028c.037.008.068.017.102.032.175.074.454.011.609-.08.164-.096.32-.284.363-.473.046-.202.036-.43-.08-.609-.119-.185-.271-.279-.473-.363h0Z"/>
      <path class="cls-1" d="M37.907,34.355c.585.086,1.159.239,1.705.467l-.189-.08.03.013-.16-1.242c-.425.445-.85.89-1.275,1.336-.142.149-.232.351-.232.559,0,.194.086.426.232.559.151.138.348.241.559.232.207-.009.413-.078.559-.232.425-.445.85-.89,1.275-1.336.176-.184.251-.413.217-.664-.005-.105-.036-.203-.094-.294-.07-.119-.165-.213-.284-.284-.623-.264-1.254-.461-1.924-.56-.105-.033-.21-.038-.315-.014-.105.005-.203.036-.294.094-.164.096-.32.284-.363.473-.046.202-.036.43.08.609.104.161.274.334.473.363h0Z"/>
      <path class="cls-1" d="M53.005,31.048c-.617.273-1.176.631-1.704,1.05-.191.151-.248.439-.217.664.033.244.163.449.377.578.528.315,1.057.631,1.585.946.175.105.413.134.609.08.183-.051.382-.192.473-.363.202-.382.096-.855-.284-1.082-.528-.315-1.057-.631-1.585-.946l.16,1.242c.026-.02.051-.04.077-.06l-.16.124c.452-.348.946-.635,1.467-.866.169-.075.316-.302.363-.473.052-.189.029-.441-.08-.609-.109-.169-.271-.317-.473-.363l-.21-.028c-.143,0-.276.036-.399.108h0Z"/>
      <g>
        <path class="cls-5" d="M68.426,17.296c-4.895-8.724-17.082-11.161-26.226-9.955-4.732.624-8.816,2.789-12.561,5.683-3.49,2.696-6.806,6.173-8.15,10.471-1.258,4.021-2.251,11.446,2.671,13.41,5.263,2.101,9.799-8.988,10.717-12.779.747,1.185.294,3.049,1.449,3.841.591.406,1.376.335,2.087.248,3.525-.432,7.051-.865,10.576-1.297,1.582-.194,3.203-.4,4.616-1.138s2.595-2.133,2.614-3.726c1.536,2.294,3.306,4.513,5.661,5.954,1.551.949,4.736,2.243,6.528,1.221,1.8-1.027,1.457-4.472,1.506-6.227.055-1.986-.519-3.982-1.487-5.707Z"/>
        <path class="cls-1" d="M69.108,16.897c-1.56-2.762-3.89-5.003-6.592-6.64-2.728-1.653-5.806-2.72-8.928-3.329-3.095-.604-6.277-.802-9.422-.576-1.797.129-3.587.385-5.32.886-1.894.547-3.719,1.345-5.436,2.312-1.731.974-3.358,2.126-4.905,3.369-1.492,1.198-2.9,2.511-4.134,3.977s-2.317,3.084-3.071,4.858c-.568,1.337-.959,2.737-1.229,4.163-.525,2.772-.707,5.837.461,8.476,1.024,2.314,3.616,4.146,6.201,3.384,2.433-.717,4.15-3.072,5.399-5.138,1.328-2.197,2.378-4.601,3.152-7.047.131-.415.252-.833.355-1.255l-1.445.189c.315.522.381,1.279.507,1.964.134.728.385,1.469.966,1.963.748.636,1.712.674,2.644.566,1.079-.125,2.157-.264,3.236-.397,2.133-.262,4.265-.523,6.398-.785,1.981-.243,4.026-.393,5.851-1.27,1.744-.837,3.16-2.521,3.214-4.513l-1.473.399c1.244,1.853,2.619,3.669,4.354,5.093,1.495,1.227,3.246,2.172,5.138,2.62,1.749.415,3.853.353,4.877-1.363.844-1.413.804-3.236.796-4.826-.006-1.105.01-2.185-.191-3.279-.244-1.333-.744-2.619-1.4-3.801-.494-.89-1.86-.093-1.365.798.509.917.893,1.885,1.133,2.908.216.924.245,1.833.241,2.777-.003.701.014,1.403-.019,2.104-.008.179-.019.358-.035.536-.008.096-.018.192-.028.287-.004.041-.009.082-.014.122.011-.087.001-.01-.005.032-.057.362-.133.723-.254,1.069-.014.041-.091.234-.068.183.025-.057-.053.106-.068.136-.038.074-.079.146-.123.216-.026.041-.178.233-.08.121-.045.052-.09.103-.139.151-.027.027-.184.161-.126.117.059-.045-.092.058-.119.074-.044.026-.089.05-.134.073-.012.007-.145.066-.085.041-.283.115-.593.159-.905.168-.43.012-.769-.026-1.144-.099-1.645-.323-3.147-1.042-4.492-2.068-1.769-1.35-3.147-3.155-4.378-4.989-.432-.644-1.452-.411-1.473.399-.035,1.327-1.071,2.454-2.274,3.07-1.548.792-3.382.907-5.079,1.115-1.958.24-3.917.48-5.875.721-.957.117-1.915.235-2.872.352-.442.054-.883.119-1.327.157-.372.032-.769.07-1.107-.081-.156-.07-.137-.069-.256-.19-.161-.163.054.104-.071-.086-.057-.087-.108-.18-.15-.276.015.035.042.113-.009-.035-.036-.104-.066-.21-.093-.316-.042-.166-.074-.334-.103-.502-.137-.78-.233-1.564-.651-2.257-.341-.566-1.28-.486-1.445.189-.224.919-.526,1.819-.856,2.705-.103.277-.209.552-.319.826-.057.142-.115.285-.174.426-.017.04-.083.198-.032.077-.033.078-.067.156-.101.234-.259.598-.535,1.189-.828,1.771-.588,1.166-1.245,2.304-2.014,3.36-.043.059-.087.119-.131.177-.024.032-.131.172-.053.072-.102.133-.208.263-.315.392-.186.223-.379.441-.579.65-.2.208-.407.409-.625.6-.105.092-.212.18-.32.267.107-.086.012-.009-.04.028-.058.042-.117.084-.176.125-.213.147-.435.281-.666.398-.052.026-.104.05-.156.076-.141.07.02-.004-.021.011-.122.047-.245.093-.37.131-.106.032-.213.06-.321.083-.054.011-.108.021-.162.031-.188.035.134-.006-.061.006-.232.014-.455.009-.686-.007.156.011.057.009-.04-.009-.056-.01-.112-.022-.167-.035-.123-.029-.245-.065-.364-.106-.057-.02-.113-.041-.169-.063.12.047-.098-.044-.13-.059-.147-.069-.29-.145-.43-.227-.125-.074-.248-.153-.366-.237-.039-.028-.078-.056-.116-.085.011.008.089.071.02.014-.064-.052-.127-.105-.188-.16-.225-.201-.434-.423-.619-.661.081.105-.015-.024-.043-.063-.04-.057-.079-.114-.117-.173-.083-.127-.16-.257-.233-.39-.074-.134-.142-.271-.206-.41-.019-.042-.084-.195-.034-.072-.032-.077-.062-.155-.091-.234-.223-.602-.366-1.229-.461-1.863-.014-.093,0,.007.002.022-.005-.038-.01-.076-.014-.114-.009-.076-.017-.152-.025-.229-.018-.179-.032-.359-.042-.539-.019-.338-.026-.677-.022-1.016.007-.669.055-1.337.135-2,.009-.077.019-.155.029-.232-.019.142.014-.097.02-.136.024-.165.05-.329.078-.494.054-.321.115-.64.183-.959.123-.58.267-1.155.433-1.724.483-1.653,1.246-3.183,2.222-4.601,2.043-2.969,4.908-5.4,7.893-7.382,3.073-2.041,6.573-3.569,10.196-4.018,2.926-.363,5.907-.343,8.83.038.232.03.685.099,1.021.155.381.064.76.134,1.138.211.755.154,1.505.335,2.247.544,1.453.411,2.835.917,4.134,1.542.677.326,1.339.684,1.98,1.076.571.349,1.264.823,1.71,1.168.584.453,1.14.944,1.662,1.467.262.262.515.531.758.809.113.129.224.259.332.391.054.066.108.133.162.2.027.034.053.067.08.101.087.111-.052-.069.034.044.447.587.85,1.206,1.212,1.848.5.886,1.867.09,1.365-.798Z"/>
      </g>
      <path class="cls-1" d="M38.615,39.371c3.752,2.048,8.309,2.122,12.118.181,1.032-.526,1.986-1.203,2.842-1.983.316-.288.292-.826,0-1.118-.314-.314-.801-.288-1.118,0-2.691,2.45-6.492,3.479-10.048,2.68-1.05-.236-2.052-.61-2.996-1.125-.894-.488-1.693.877-.798,1.365h0Z"/>
      <g>
        <path class="cls-7" d="M7.157,36.656c-.159-.265.049-.598.275-.808,1.13-1.051,2.975-1.188,4.295-.388s2.05,2.433,1.855,3.964-1.264,2.897-2.666,3.542"/>
        <path class="cls-1" d="M7.84,36.257c.003.006.041.282.039.28.012.009.023-.056.047-.073.034-.024.118-.106.172-.151.103-.085.304-.209.463-.29.245-.125.701-.251.948-.272.76-.065,1.503.105,2.089.574.626.5,1.002,1.189,1.165,1.966.146.696.029,1.492-.308,2.146-.429.833-1.087,1.443-1.938,1.846-.386.183-.486.736-.284,1.082.231.395.694.467,1.082.284,2.167-1.025,3.485-3.459,2.962-5.825-.256-1.158-.948-2.199-1.911-2.887-.979-.7-2.226-.898-3.396-.696-1.241.214-3.182,1.308-2.497,2.815.177.389.74.483,1.082.284.4-.234.461-.692.284-1.082h0Z"/>
      </g>
      <g>
        <path class="cls-7" d="M13.521,45.978c-2.309,5.405-9.26,4.182-11.865-.297-2.241-3.853.029-15.332,6.381-11.58,1.044.617,1.579,2.056,1.034,3.14,1.247.095,2.103,1.688,1.493,2.78.957-.224,1.96.817,1.7,1.765-.069.251-.199.545-.034.747.089.11.237.147.37.196,1.182.438,1.417,2.089.921,3.249Z"/>
        <path class="cls-1" d="M12.838,45.579c-.14.322-.298.634-.483.932-.084.135-.173.266-.266.394-.053.073-.004.008.007-.006-.023.03-.048.06-.072.09-.056.068-.113.136-.172.201-.211.235-.442.457-.693.65.102-.079-.033.021-.069.046-.058.04-.116.08-.176.118-.127.082-.258.158-.392.229-.061.032-.123.064-.186.093-.028.014-.197.09-.126.059s-.1.039-.13.05c-.075.028-.151.054-.228.079-.274.088-.553.152-.836.201-.034.006-.068.011-.102.016.011-.002.132-.015.039-.006-.069.007-.138.015-.207.02-.162.013-.324.02-.487.021-.293.001-.586-.017-.876-.055.141.018-.017-.004-.071-.013-.07-.012-.14-.025-.21-.039-.152-.03-.304-.066-.454-.106-.293-.078-.576-.178-.859-.284-.138-.052.054.028-.081-.033-.067-.03-.134-.06-.2-.091-.144-.068-.286-.141-.426-.218-.282-.155-.555-.327-.816-.514-.029-.021-.171-.125-.13-.094s-.097-.078-.126-.101c-.126-.103-.249-.21-.368-.321-.231-.214-.45-.443-.654-.683-.049-.058-.097-.117-.145-.176-.056-.07-.003-.003.006.01-.023-.03-.046-.061-.069-.092-.098-.134-.193-.271-.282-.411-.13-.204-.246-.413-.351-.632-.046-.097-.035-.092.003.013-.017-.046-.037-.091-.054-.137-.039-.102-.075-.205-.108-.309-.068-.211-.125-.424-.173-.64-.051-.229-.09-.46-.126-.692-.007-.046.016.143-.002-.021-.007-.059-.014-.117-.02-.176-.013-.129-.025-.258-.034-.388-.037-.529-.038-1.06-.011-1.589.014-.267.036-.534.065-.8.007-.064.016-.128.022-.193.017-.158-.018.111.006-.046.021-.139.041-.277.065-.416.092-.537.216-1.069.374-1.591.076-.249.159-.495.252-.738.022-.057.045-.114.067-.172.011-.028.023-.057.035-.085-.002.005-.057.131-.021.049.053-.119.105-.238.162-.355.106-.219.221-.434.346-.643.058-.097.119-.193.182-.287.036-.054.073-.108.111-.161.02-.027.136-.185.069-.097-.069.09.038-.047.056-.069.034-.041.069-.082.104-.123.075-.086.153-.17.234-.251.073-.073.149-.144.227-.211.039-.033.079-.065.117-.098.097-.085-.126.083.021-.014.174-.115.346-.222.532-.317.093-.048.1-.042-.009,0,.046-.018.091-.036.138-.053.101-.036.203-.067.307-.093.084-.021.392-.057.158-.04.111-.008.221-.022.332-.024.106-.002.212,0,.317.008.054.004.108.01.162.015.09.008-.073-.01-.073-.01.037.007.074.011.111.019.245.049.484.112.718.197.06.022.119.045.179.069.084.033-.029-.012-.038-.016.03.014.061.027.091.041.136.065.271.131.403.204.569.313.947.789,1.037,1.396.037.249-.002.571-.097.77-.272.573.063,1.126.683,1.19-.132-.013.034.009.061.018.062.019.125.034.185.06-.148-.065.234.16.117.072.242.183.265.248.397.476.011.02.081.174.036.063.02.049.036.099.051.149.019.063.033.127.047.191.018.081.006-.081.007.061,0,.065.002.129,0,.194-.003.124.049-.157-.006.058-.013.05-.024.101-.04.15-.067.215.062-.103-.045.1-.334.636.214,1.293.893,1.161-.093.018.123-.001.138,0-.103-.011.053.016.086.028,0,0,.218.12.218.12.114.095.168.172.211.248.053.093.022.031.046.089.013.03.053.188.036.085,0,.002,0,.243.013.136-.01.079-.041.156-.063.232-.06.21-.107.427-.093.646.034.557.413.894.903,1.081.021.008.188.079.078.026.058.028.113.061.168.096.068.043-.049-.054.049.039.054.052.109.105.155.164-.068-.087.007.018.029.057.032.056.064.111.092.169-.059-.124.033.093.036.102.02.063.038.128.053.192.015.065.03.132.039.198-.02-.139.005.113.005.116.007.138.003.277-.008.415-.01.134.004,0-.009.078-.012.068-.026.136-.042.203-.039.159-.091.313-.154.464-.162.395.176.869.552.973.453.125.81-.156.973-.552.565-1.376.286-3.387-1.175-4.096-.057-.028-.26-.159-.339-.14-.05-.02-.054-.019-.01,0,.115.096.176.209.182.337.099-.079.137-.57.146-.677.036-.437-.09-.897-.319-1.269-.516-.837-1.449-1.273-2.415-1.085l.893,1.161c.887-1.689-.312-3.78-2.175-3.97l.683,1.19c.432-.911.398-1.88-.02-2.79-.362-.787-1.033-1.332-1.799-1.7-1.072-.516-2.297-.773-3.459-.407-2.201.694-3.374,3.028-3.941,5.102-.603,2.209-.776,4.77-.094,6.983.793,2.572,3.203,4.552,5.753,5.243,1.321.358,2.769.393,4.08-.03,1.409-.455,2.581-1.39,3.383-2.629.213-.328.391-.676.547-1.034.17-.391.116-.848-.284-1.082-.334-.196-.911-.11-1.082.284Z"/>
      </g>
      <g>
        <path class="cls-7" d="M84.48,25.36c.069-.301-.232-.553-.513-.683-1.4-.648-3.197-.206-4.204.963-1.007,1.169-1.194,2.949-.534,4.344s2.101,2.362,3.633,2.54"/>
        <path class="cls-1" d="M85.271,25.36c.087-.782-.631-1.274-1.266-1.519-.511-.197-1.088-.278-1.635-.248-1.157.064-2.316.552-3.102,1.418-1.68,1.848-1.553,4.749.098,6.564.913,1.003,2.168,1.571,3.498,1.74.424.054.791-.402.791-.791,0-.472-.365-.737-.791-.791-1.487-.189-2.872-1.353-3.178-2.893-.297-1.491.532-3.096,2.015-3.541.417-.125.771-.168,1.231-.113.108.013.388.08.565.145.029.011.234.124.24.119-.02.015-.017-.357-.047-.092-.047.425.397.791.791.791.467,0,.743-.364.791-.791h0Z"/>
      </g>
      <g>
        <path class="cls-7" d="M81.322,36.197c3.872,4.421,10.101,1.103,11.187-3.964.935-4.358-4.784-14.566-9.658-9.029-.801.911-.863,2.444-.009,3.306-1.156.477-1.475,2.257-.557,3.106-.979.084-1.609,1.385-1.069,2.205.143.218.358.457.264.7-.051.132-.18.213-.291.301-.988.783-.699,2.426.132,3.374Z"/>
        <path class="cls-1" d="M80.763,36.756c.974,1.098,2.283,1.947,3.747,2.193,1.424.24,2.833-.006,4.133-.62,2.493-1.177,4.423-3.778,4.727-6.53.117-1.06-.069-2.168-.344-3.191-.323-1.199-.816-2.366-1.432-3.443-1.067-1.864-2.778-3.954-5.039-4.298-1.164-.177-2.307.134-3.246.844-.587.444-1.192.987-1.511,1.662-.37.786-.49,1.717-.203,2.551.148.433.375.811.689,1.143l.16-1.242c-1.63.72-1.962,3.138-.717,4.348l.559-1.35c-.92.11-1.609.677-1.927,1.548-.143.391-.166.834-.075,1.24.045.2.127.398.231.574.054.091.119.209.191.286l.05.087c.169-.44.173-.575.012-.404.047-.017-.158.122-.201.161-.062.056-.119.116-.173.179-.153.178-.275.362-.37.575-.181.405-.268.846-.245,1.29.045.895.41,1.716.985,2.394.276.326.834.285,1.118,0,.323-.323.277-.792,0-1.118-.307-.362-.526-.922-.525-1.403,0-.234.031-.39.139-.581.031-.054.105-.145.175-.21.131-.12.332-.255.454-.45.271-.432.18-.952-.082-1.361-.046-.071-.099-.138-.143-.21-.012-.019-.098-.215-.053-.084-.006-.019-.052-.21-.036-.114s0-.1-.002-.119c-.014-.173-.039.078.008-.091.017-.062.032-.123.053-.184.026-.075-.039.061.029-.057.002-.004.131-.206.047-.095.038-.05.084-.095.129-.14.036-.035.136-.099.046-.041.015-.01.214-.106.079-.054.033-.012.241-.055.086-.037.32-.038.594-.167.723-.486.116-.29.068-.639-.163-.864-.005-.005-.166-.18-.077-.065-.03-.039-.057-.082-.082-.124-.007-.012-.105-.22-.049-.079-.023-.058-.041-.118-.057-.177-.016-.06-.03-.121-.039-.183.022.147.003-.022.003-.052,0-.063.002-.126.002-.189-.002-.205-.038.108.01-.091.029-.123.057-.246.105-.364-.042.103.007-.008.031-.05.031-.054.062-.108.097-.16.014-.021.11-.128.147-.16-.059.05.102-.067.102-.067.065-.039.133-.071.203-.102.485-.214.476-.908.16-1.242-.37-.391-.46-.983-.329-1.496.066-.257.183-.506.338-.692.196-.237.427-.455.662-.653.013-.011.2-.158.062-.054.037-.028.074-.055.111-.081.108-.077.22-.149.334-.215.091-.053.185-.1.279-.147.033-.017.223-.088.034-.018.065-.024.129-.049.195-.071.101-.033.203-.062.307-.085.075-.017.332-.047.123-.029.222-.019.439-.023.662-.007.051.004.227.044.008,0,.054.011.109.019.163.03.091.019.181.041.27.067.109.031.213.074.321.108.038.012.14.06-.03-.015.071.031.141.063.21.097.196.097.385.207.567.328.085.057.167.118.252.176.171.118-.122-.106.038.029.065.055.131.107.195.162.369.318.707.673,1.017,1.048.044.053.087.107.13.161.145.178-.09-.125.047.06.07.094.139.188.207.284.165.233.321.472.469.716.608.998.972,1.808,1.3,2.845.153.483.279.975.368,1.474.011.06.067.439.04.231.013.103.025.205.035.308.022.236.034.473.033.709-.001.203-.019.403-.035.605-.015.185.039-.181,0-.003-.007.033-.011.068-.018.101-.032.172-.074.342-.12.51-.173.631-.339,1.027-.653,1.581-.581,1.028-1.398,1.903-2.361,2.514-.276.175-.564.327-.859.468-.029.014-.182.08-.06.029-.095.04-.191.076-.288.111-.144.052-.291.098-.438.14-.171.048-.344.089-.519.122-.05.009-.1.017-.149.026-.095.014-.1.015-.015.004-.05.006-.1.012-.15.017-.326.031-.655.035-.982.008-.05-.004-.101-.01-.151-.014-.095-.011-.101-.012-.016-.002-.05-.008-.101-.016-.151-.025-.151-.028-.301-.062-.45-.103-.176-.048-.349-.106-.519-.172-.059-.023-.167-.071-.322-.151-.689-.355-1.161-.759-1.684-1.347-.283-.32-.829-.289-1.118,0-.317.317-.284.798,0,1.118Z"/>
      </g>
      <g>
        <path class="cls-4" d="M44.903,110.24c-.644-1.499-1.518-3.423.176-4.485.51-.32,3.695-.724,4.007-.227.688,1.095,1.057,2.387,1.05,3.68-.001.262-.024.54-.179.751-.141.19-.368.294-.588.383-1.002.405-2.06.668-3.135.781-.219.023-.447.038-.652-.042-.345-.135-.534-.5-.68-.84Z"/>
        <path class="cls-1" d="M45.585,109.841c-.057-.133-.115-.266-.171-.4.064.153-.03-.075-.035-.086-.028-.07-.056-.139-.084-.209-.109-.279-.209-.562-.288-.852-.035-.129-.061-.26-.089-.39-.009-.041-.029-.199-.01-.036-.008-.069-.014-.139-.018-.208-.007-.136-.003-.271.008-.407-.016.194.007-.017.015-.052.015-.065.037-.127.054-.19.053-.191-.08.115.025-.056.035-.058.069-.118.104-.176.103-.172-.099.08.052-.063.054-.052.106-.106.161-.158.011-.01.113-.089.028-.026.051-.038.11-.067.16-.106.009-.007.058-.036.068-.033-.075-.016-.203.072-.038.023.372-.111.751-.179,1.134-.237.205-.031-.177.02.032-.004.062-.007.123-.015.185-.022.103-.011.207-.022.31-.03.259-.022.518-.037.778-.038.136,0,.45-.047.562.026-.095-.062-.165-.032-.042-.003.037.008.074.017.111.025.021.005.045.018.066.02.118.011-.191-.108-.057-.02.036.024-.265-.226-.202-.207.041.012.128.211.149.25.08.14.155.284.225.429.156.324.286.707.383,1.085.086.337.138.623.164.936.013.161.021.323.022.484,0,.091.001.182-.005.273-.004.052-.033.137-.019.103.008-.019.156-.099-.028.018-.119.076-.131.073-.232.112-.195.076-.391.148-.59.214-.43.143-.868.26-1.312.352-.4.083-.802.164-1.21.166-.276.002-.027.014-.04.015-.079-.049-.089-.053-.029-.01-.061-.069-.071-.075-.031-.017-.119-.141-.193-.331-.266-.497-.171-.391-.744-.481-1.082-.284-.404.236-.455.689-.284,1.082.181.413.433.811.825,1.053.463.286.986.25,1.501.184,1.023-.132,2.026-.369,2.985-.753.525-.21,1.001-.461,1.234-1.009.191-.449.179-.96.144-1.439-.074-1.002-.332-1.962-.766-2.868-.174-.362-.364-.804-.719-1.026-.181-.113-.389-.179-.599-.212-.564-.09-1.133-.074-1.7-.023-.582.053-1.17.128-1.739.267-.613.149-1.121.471-1.512.974-1.146,1.476-.296,3.359.345,4.851.169.392.746.48,1.082.284.406-.237.453-.688.284-1.082Z"/>
      </g>
      <g>
        <path class="cls-4" d="M71.389,104.083c-.644-1.499-1.518-3.423.176-4.485.51-.32,3.695-.724,4.007-.227.688,1.095,1.057,2.387,1.05,3.68-.001.262-.024.54-.179.751-.141.19-.368.294-.588.383-1.002.405-2.06.668-3.135.781-.219.023-.447.038-.652-.042-.345-.135-.534-.5-.68-.84Z"/>
        <path class="cls-1" d="M72.071,103.684c-.057-.133-.115-.266-.171-.4.064.153-.03-.075-.035-.086-.028-.07-.056-.139-.084-.209-.109-.279-.209-.562-.288-.852-.035-.129-.061-.26-.089-.39-.009-.041-.029-.199-.01-.036-.008-.069-.014-.139-.018-.208-.007-.136-.003-.271.008-.407-.016.194.007-.017.015-.052.015-.065.037-.127.054-.19.053-.191-.08.115.025-.056.035-.058.069-.118.104-.176.103-.172-.099.08.052-.063.054-.052.106-.106.161-.158.011-.01.113-.089.028-.026.051-.038.11-.067.16-.106.009-.007.058-.036.068-.033-.075-.016-.203.072-.038.023.372-.111.751-.179,1.134-.237.205-.031-.177.02.032-.004.062-.007.123-.015.185-.022.103-.011.207-.022.31-.03.259-.022.518-.037.778-.038.136,0,.45-.047.562.026-.095-.062-.165-.032-.042-.003.037.008.074.017.111.025.021.005.045.018.066.02.118.011-.191-.108-.057-.02.036.024-.265-.226-.202-.207.041.012.128.211.149.25.08.14.155.284.225.429.156.324.286.707.383,1.085.086.337.138.623.164.936.013.161.021.323.022.484,0,.091.001.182-.005.273-.004.052-.033.137-.019.103.008-.019.156-.099-.028.018-.119.076-.131.073-.232.112-.195.076-.391.148-.59.214-.43.143-.868.26-1.312.352-.4.083-.802.164-1.21.166-.276.002-.027.014-.04.015-.079-.049-.089-.053-.029-.01-.061-.069-.071-.075-.031-.017-.119-.141-.193-.331-.266-.497-.171-.391-.744-.481-1.082-.284-.404.236-.455.689-.284,1.082.181.413.433.811.825,1.053.463.286.986.25,1.501.184,1.023-.132,2.026-.369,2.985-.753.525-.21,1.001-.461,1.234-1.009.191-.449.179-.96.144-1.439-.074-1.002-.332-1.962-.766-2.868-.174-.362-.364-.804-.719-1.026-.181-.113-.389-.179-.599-.212-.564-.09-1.133-.074-1.7-.023-.582.053-1.17.128-1.739.267-.613.149-1.121.471-1.512.974-1.146,1.476-.296,3.359.345,4.851.169.392.746.48,1.082.284.406-.237.453-.688.284-1.082Z"/>
      </g>
    </g>
  </g>
</svg>