<?xml version="1.0" encoding="UTF-8"?>
<svg id="_레이어_2" data-name="레이어 2" xmlns="http://www.w3.org/2000/svg" viewBox="0 0 155.308 148.67">
  <defs>
    <style>
      .cls-1 {
        fill: #383838;
        stroke-width: 0px;
      }
    </style>
  </defs>
  <g id="_레이어_1-2" data-name="레이어 1">
    <g>
      <path class="cls-1" d="M85.763,93.568c-.553,0-1.083-.222-1.468-.617l-43.471-44.504c-4.889-5.408-7.551-12.299-7.551-19.465C33.273,13.001,46.274,0,62.256,0c9.361,0,18.095,4.544,23.507,12.049,5.413-7.504,14.148-12.049,23.508-12.049,15.981,0,28.983,13.001,28.983,28.982,0,7.166-2.663,14.059-7.498,19.407-.054.058-43.525,44.562-43.525,44.562-.386.395-.915.617-1.468.617ZM62.256,4.105c-13.717,0-24.878,11.161-24.878,24.877,0,6.148,2.286,12.061,6.436,16.653l41.948,42.945,41.974-42.973c4.135-4.588,6.411-10.489,6.411-16.625,0-13.716-11.161-24.877-24.878-24.877-8.992,0-17.313,4.889-21.717,12.758-.363.649-1.047,1.05-1.791,1.05s-1.428-.401-1.791-1.05c-4.403-7.869-12.723-12.758-21.716-12.758Z"/>
      <path class="cls-1" d="M124.792,21.97c-.722,0-1.421-.381-1.796-1.054-2.894-5.207-8.391-8.442-14.342-8.442-2.391,0-4.697.505-6.853,1.499-1.029.473-2.249.026-2.724-1.004-.474-1.03-.025-2.249,1.004-2.724,2.699-1.245,5.583-1.876,8.573-1.876,7.441,0,14.311,4.043,17.929,10.551.551.992.195,2.241-.797,2.792-.316.177-.659.259-.995.259Z"/>
      <path class="cls-1" d="M135.497,105.398c-.553,0-1.082-.222-1.468-.617l-15.305-15.669c-1.978-2.187-3.038-4.931-3.038-7.783,0-6.36,5.174-11.533,11.534-11.533,3.155,0,6.132,1.297,8.276,3.508,2.146-2.211,5.122-3.508,8.276-3.508,6.36,0,11.535,5.173,11.535,11.533,0,2.852-1.06,5.596-2.982,7.723-.055.06-15.361,15.729-15.361,15.729-.386.395-.915.617-1.468.617ZM127.221,73.901c-4.097,0-7.429,3.333-7.429,7.428,0,1.834.683,3.6,1.923,4.971l13.782,14.109,13.808-14.135c1.225-1.369,1.898-3.123,1.898-4.945,0-4.095-3.332-7.428-7.43-7.428-2.684,0-5.169,1.459-6.485,3.81-.363.649-1.048,1.05-1.791,1.05s-1.428-.401-1.791-1.05c-1.315-2.351-3.8-3.81-6.485-3.81Z"/>
      <g>
        <path class="cls-1" d="M83.428,148.67c-6.839,0-19.024-5.851-31.9-12.033-10.447-5.015-21.246-10.198-25.907-10.321-1.328.236-10.169,1.882-22.942,5.971-1.088.345-2.236-.251-2.581-1.329-.346-1.078.249-2.235,1.328-2.58,14.12-4.522,23.307-6.077,23.691-6.142.112-.018.224-.028.338-.028,5.502,0,15.858,4.971,27.849,10.728,11.673,5.606,24.911,11.94,30.534,11.616,14.314-.868,49.04-14.442,60.615-18.97,1.158-.623,1.465-1.423.993-2.582-1.141-2.806-6.137-5.667-11.682-3.959-.102.03-.206.054-.313.07-1.841.263-5.894,1.245-10.184,2.285-7.481,1.814-15.217,3.688-18.488,3.688-1.134,0-2.053-.918-2.053-2.053s.919-2.053,2.053-2.053c2.781,0,10.953-1.98,17.521-3.572,4.464-1.083,8.333-2.021,10.412-2.337,7.443-2.207,14.548,1.491,16.536,6.382,1.285,3.157.105,6.23-3.006,7.825-.061.032-.124.06-.189.086-20.162,7.887-48.52,18.469-61.967,19.284-.213.014-.434.02-.659.02Z"/>
        <path class="cls-1" d="M98.922,126.064c-1.251,0-2.608-.1-4.07-.303-9.946-1.241-21.078-4.418-34.004-9.705-1.049-.429-1.553-1.628-1.124-2.678.43-1.046,1.631-1.553,2.677-1.123,12.588,5.149,23.378,8.236,32.986,9.437,9.355,1.281,9.962-2.337,10.221-3.885.279-2.243-.261-5.312-7.076-8.435-6.997-2.479-21.908-7.779-35.638-14.097-14.491-7-29.204-7.495-37.412-5.795-5.21.758-16.771,4.265-22.668,6.621-1.057.425-2.248-.094-2.667-1.144-.42-1.054.092-2.247,1.146-2.668,6.137-2.452,17.98-6.053,23.479-6.849,8.716-1.812,24.492-1.307,39.874,6.124,13.527,6.224,28.32,11.481,35.43,14.009,7.182,3.283,10.265,7.456,9.593,12.826-.851,5.113-4.458,7.665-10.747,7.665Z"/>
      </g>
    </g>
  </g>
</svg>