<?xml version="1.0" encoding="UTF-8"?>
<svg id="_레이어_2" data-name="레이어 2" xmlns="http://www.w3.org/2000/svg" viewBox="0 0 385.222 114.831">
  <defs>
    <style>
      .cls-1, .cls-2 {
        fill: #002f23;
      }

      .cls-1, .cls-3 {
        stroke: #002f23;
        stroke-linecap: round;
        stroke-linejoin: round;
        stroke-width: 4.5px;
      }

      .cls-4 {
        fill: #f5cb1f;
      }

      .cls-4, .cls-2, .cls-5, .cls-6, .cls-7 {
        stroke-width: 0px;
      }

      .cls-5 {
        fill: #2479bf;
      }

      .cls-6 {
        fill: #fff;
      }

      .cls-7 {
        fill: #eb5b30;
      }

      .cls-3 {
        fill: #0b8e4d;
      }
    </style>
  </defs>
  <g id="_레이어_1-2" data-name="레이어 1">
    <g>
      <path class="cls-1" d="M330.899,8.434c-13.271,0-25.376,4.972-34.572,13.145-9.196-8.173-21.301-13.145-34.572-13.145s-25.376,4.972-34.572,13.146c-9.196-8.173-21.301-13.146-34.572-13.146s-25.376,4.972-34.572,13.145c-9.196-8.173-21.301-13.145-34.572-13.145s-25.376,4.972-34.572,13.146c-9.196-8.173-21.301-13.146-34.572-13.146C25.564,8.434,2.25,31.748,2.25,60.507s23.314,52.074,52.074,52.074c13.271,0,25.376-4.972,34.572-13.146,9.196,8.173,21.301,13.146,34.572,13.146s25.376-4.972,34.572-13.146c9.196,8.173,21.301,13.146,34.572,13.146s25.376-4.972,34.572-13.146c9.196,8.173,21.301,13.146,34.572,13.146s25.376-4.972,34.572-13.146c9.196,8.173,21.301,13.146,34.572,13.146,28.759,0,52.074-23.314,52.074-52.074s-23.314-52.073-52.074-52.073Z"/>
      <path class="cls-3" d="M330.899,2.25c-13.271,0-25.376,4.972-34.572,13.145-9.196-8.173-21.301-13.145-34.572-13.145s-25.376,4.972-34.572,13.146c-9.196-8.173-21.301-13.146-34.572-13.146s-25.376,4.972-34.572,13.145c-9.196-8.173-21.301-13.145-34.572-13.145s-25.376,4.972-34.572,13.146c-9.196-8.173-21.301-13.146-34.572-13.146C25.564,2.25,2.25,25.564,2.25,54.323s23.314,52.074,52.074,52.074c13.271,0,25.376-4.972,34.572-13.146,9.196,8.173,21.301,13.146,34.572,13.146s25.376-4.972,34.572-13.146c9.196,8.173,21.301,13.146,34.572,13.146s25.376-4.972,34.572-13.146c9.196,8.173,21.301,13.146,34.572,13.146s25.376-4.972,34.572-13.146c9.196,8.173,21.301,13.146,34.572,13.146,28.759,0,52.074-23.314,52.074-52.074S359.658,2.25,330.899,2.25Z"/>
      <g>
        <path class="cls-4" d="M51.875,81.458c-10.694,0-23.184-5.392-23.184-20.589v-13.151c0-15.179,12.069-20.587,23.364-20.587,5.795,0,11.198,1.294,14.101,3.378,3.624,2.562,4.812,6.729,2.875,10.123-1.365,2.385-3.8,3.808-6.515,3.808-.441,0-.887-.039-1.323-.116-1.283-.222-2.276-.698-3.074-1.08-.241-.115-.468-.226-.688-.314-.731-.273-2.307-.622-5.376-.622-2.268,0-6.557,1.245-6.557,5.955v12.065c0,4.394,3.435,5.953,6.376,5.953.933,0,5.539-.189,5.65-3.885h-1.126c-4.861,0-7.076-3.792-7.076-7.316,0-3.727,2.431-7.499,7.076-7.499h5.489c8.147,0,11.177,3.046,11.177,11.24v3.256c0,12.138-7.922,19.384-21.19,19.384Z"/>
        <path class="cls-2" d="M52.056,29.38c5.55,0,10.435,1.267,12.788,2.956,2.474,1.75,3.68,4.644,2.233,7.179-1.027,1.795-2.793,2.674-4.56,2.674-.312,0-.623-.027-.931-.082-1.386-.24-2.411-.903-3.317-1.267-1.447-.542-3.56-.784-6.213-.784-4.224,0-8.807,2.655-8.807,8.205v12.065c0,5.55,4.283,8.203,8.627,8.203,4.1,0,7.902-1.989,7.902-6.272v-.725c0-1.206-.242-1.388-1.388-1.388h-1.989c-3.499,0-4.827-2.653-4.827-5.067s1.388-5.249,4.827-5.249h5.489c7.119,0,8.927,2.233,8.927,8.99v3.256c0,12.246-8.627,17.134-18.94,17.134-10.437,0-20.934-5.129-20.934-18.339v-13.151c0-13.332,10.496-18.338,21.114-18.338M52.056,24.88c-15.56,0-25.614,8.964-25.614,22.838v13.151c0,7.515,2.891,13.645,8.36,17.729,4.413,3.295,10.477,5.11,17.073,5.11,14.459,0,23.44-8.29,23.44-21.634v-3.256c0-7.665-2.639-11.768-8.653-13.047,1.779-.837,3.287-2.217,4.32-4.022,2.495-4.371,1.005-9.874-3.541-13.088-3.288-2.361-9.05-3.781-15.386-3.781h0ZM47.749,51.368v-3.106c0-3.601,3.867-3.705,4.307-3.705,2.875,0,4.142.323,4.588.481.161.068.327.15.503.234.039.018.078.037.118.057h-.865c-4.458,0-7.405,2.719-8.651,6.039h0ZM51.876,64.029c-1.241,0-4.127-.361-4.127-3.703v-1.472c.913,2.38,2.7,4.199,5.03,5.121-.404.047-.743.054-.903.054h0Z"/>
      </g>
      <g>
        <path class="cls-6" d="M95.129,81.578c-11.179,0-22.459-6.385-22.459-20.648v-13.212c0-15.241,12.099-20.648,22.459-20.648,11.179,0,22.459,6.385,22.459,20.648v13.212c0,14.264-11.28,20.648-22.459,20.648ZM95.129,41.885c-2.607,0-5.652,1.433-5.652,5.471v13.935c0,3.39,3.292,5.471,5.652,5.471s5.652-2.082,5.652-5.471v-13.935c0-4.038-3.045-5.471-5.652-5.471Z"/>
        <path class="cls-2" d="M95.129,29.319c8.868,0,20.209,4.524,20.209,18.398v13.212c0,13.874-11.341,18.398-20.209,18.398s-20.209-4.525-20.209-18.398v-13.212c0-13.874,11.16-18.398,20.209-18.398M95.129,69.012c3.439,0,7.902-2.895,7.902-7.722v-13.935c0-5.308-4.102-7.722-7.902-7.722s-7.902,2.414-7.902,7.722v13.935c0,4.827,4.464,7.722,7.902,7.722M95.129,24.819c-12.299,0-24.709,7.08-24.709,22.898v13.212c0,15.818,12.41,22.898,24.709,22.898s24.709-7.08,24.709-22.898v-13.212c0-15.818-12.41-22.898-24.709-22.898h0ZM95.129,64.512c-1.155,0-3.402-1.137-3.402-3.222v-13.935c0-2.908,2.379-3.222,3.402-3.222s3.402.314,3.402,3.222v13.935c0,2.084-2.247,3.222-3.402,3.222h0Z"/>
      </g>
      <g>
        <path class="cls-5" d="M140.614,81.578c-11.179,0-22.459-6.385-22.459-20.648v-13.212c0-15.241,12.099-20.648,22.459-20.648,11.179,0,22.459,6.385,22.459,20.648v13.212c0,14.264-11.28,20.648-22.459,20.648ZM140.614,41.885c-2.607,0-5.651,1.433-5.651,5.471v13.935c0,3.39,3.292,5.471,5.651,5.471s5.652-2.082,5.652-5.471v-13.935c0-4.038-3.045-5.471-5.652-5.471Z"/>
        <path class="cls-2" d="M140.614,29.319c8.868,0,20.209,4.524,20.209,18.398v13.212c0,13.874-11.341,18.398-20.209,18.398s-20.209-4.525-20.209-18.398v-13.212c0-13.874,11.16-18.398,20.209-18.398M140.614,69.012c3.438,0,7.902-2.895,7.902-7.722v-13.935c0-5.308-4.102-7.722-7.902-7.722s-7.902,2.414-7.902,7.722v13.935c0,4.827,4.464,7.722,7.902,7.722M140.614,24.819c-12.299,0-24.709,7.08-24.709,22.898v13.212c0,15.818,12.41,22.898,24.709,22.898s24.709-7.08,24.709-22.898v-13.212c0-15.818-12.41-22.898-24.709-22.898h0ZM140.614,64.512c-1.155,0-3.402-1.137-3.402-3.222v-13.935c0-2.908,2.379-3.222,3.402-3.222s3.402.314,3.402,3.222v13.935c0,2.084-2.247,3.222-3.402,3.222h0Z"/>
      </g>
      <g>
        <path class="cls-7" d="M176.027,80.431c-8.282,0-11.66-3.413-11.66-11.78v-29.5c0-8.367,3.378-11.78,11.66-11.78h8.988c11.44,0,23.664,6.455,23.664,24.57v3.92c0,18.115-12.224,24.57-23.664,24.57h-8.988ZM184.654,65.496c4.656,0,7.221-3.079,7.221-8.668v-5.852c0-5.59-2.564-8.668-7.221-8.668h-3.482v23.189h3.482Z"/>
        <path class="cls-2" d="M185.015,29.621c10.435,0,21.415,5.55,21.415,22.32v3.92c0,16.771-10.979,22.32-21.415,22.32h-8.988c-7.238,0-9.41-2.594-9.41-9.53v-29.5c0-6.936,2.172-9.53,9.41-9.53h8.988M180.671,67.746h3.982c5.669,0,9.471-3.861,9.471-10.918v-5.852c0-7.058-3.802-10.918-9.471-10.918h-3.982c-1.386,0-1.75.302-1.75,1.75v24.19c0,1.447.363,1.75,1.75,1.75M185.015,25.121h-8.988c-9.49,0-13.91,4.458-13.91,14.03v29.5c0,9.572,4.42,14.03,13.91,14.03h8.988c12.528,0,25.915-7.046,25.915-26.82v-3.92c0-19.774-13.387-26.82-25.915-26.82h0ZM183.421,44.557h1.232c1.229,0,4.971,0,4.971,6.418v5.852c0,6.418-3.742,6.418-4.971,6.418h-1.232v-18.689h0Z"/>
      </g>
      <g>
        <path class="cls-6" d="M238.344,80.431c-8.282,0-11.66-3.413-11.66-11.78v-29.5c0-8.367,3.378-11.78,11.66-11.78h8.988c11.44,0,23.665,6.455,23.665,24.57v3.92c0,18.115-12.225,24.57-23.665,24.57h-8.988ZM246.971,65.496c4.657,0,7.222-3.079,7.222-8.668v-5.852c0-5.59-2.564-8.668-7.222-8.668h-3.482v23.189h3.482Z"/>
        <path class="cls-2" d="M247.332,29.621c10.435,0,21.415,5.55,21.415,22.32v3.92c0,16.771-10.979,22.32-21.415,22.32h-8.988c-7.239,0-9.41-2.594-9.41-9.53v-29.5c0-6.936,2.172-9.53,9.41-9.53h8.988M242.989,67.746h3.983c5.669,0,9.471-3.861,9.471-10.918v-5.852c0-7.058-3.802-10.918-9.471-10.918h-3.983c-1.386,0-1.75.302-1.75,1.75v24.19c0,1.447.363,1.75,1.75,1.75M247.332,25.121h-8.988c-9.49,0-13.91,4.458-13.91,14.03v29.5c0,9.572,4.42,14.03,13.91,14.03h8.988c12.528,0,25.915-7.046,25.915-26.82v-3.92c0-19.774-13.387-26.82-25.915-26.82h0ZM245.739,44.557h1.232c1.229,0,4.971,0,4.971,6.418v5.852c0,6.418-3.742,6.418-4.971,6.418h-1.232v-18.689h0Z"/>
      </g>
      <g>
        <path class="cls-7" d="M302.469,80.431c-.982,0-1.852-.638-2.146-1.575l-1.857-5.905h-12.188l-1.806,5.89c-.29.945-1.163,1.59-2.151,1.59h-13.029c-.73,0-1.416-.354-1.837-.951-.422-.597-.528-1.361-.284-2.05l15.504-43.796c1.411-3.953,5.297-6.504,9.901-6.504,4.337,0,8.173,2.615,9.543,6.508l15.738,43.782c.248.689.145,1.456-.276,2.056-.422.599-1.108.956-1.841.956h-13.271ZM293.941,58.257l-1.56-5.109-1.58,5.109h3.14Z"/>
        <path class="cls-2" d="M292.576,29.38c3.077,0,6.274,1.75,7.421,5.006l15.744,43.796h-13.271l-2.353-7.48h-15.502l-2.294,7.48h-13.03l15.504-43.796c1.206-3.378,4.525-5.006,7.781-5.006M287.751,60.507h9.23l-4.585-15.021-4.644,15.021M292.576,24.88c-5.568,0-10.285,3.137-12.019,7.993l-15.508,43.807c-.488,1.377-.276,2.906.567,4.099.843,1.193,2.214,1.903,3.675,1.903h13.03c1.977,0,3.723-1.291,4.302-3.181l1.318-4.299h8.873l1.362,4.33c.59,1.875,2.328,3.15,4.293,3.15h13.271c1.465,0,2.838-.713,3.681-1.912.843-1.198,1.049-2.732.554-4.111l-15.744-43.796c-1.678-4.764-6.366-7.984-11.656-7.984h0Z"/>
      </g>
      <g>
        <path class="cls-4" d="M327.205,80.431c-1.242,0-2.25-1.007-2.25-2.25v-17.502l-13.342-20.984c-1.382-2.141-1.764-4.573-1.066-6.836.689-2.237,2.372-4.11,4.5-5.009,1.225-.505,2.454-.757,3.674-.757,3.364,0,6.474,1.921,8.53,5.271l6.493,10.76,6.235-10.714c2.59-4.377,5.86-5.293,8.149-5.293.96,0,1.961.161,2.973.478,2.243.687,4.095,2.437,4.938,4.677.891,2.367.563,4.994-.923,7.399l-13.357,21.361v17.15c0,1.243-1.008,2.25-2.25,2.25h-12.305Z"/>
        <path class="cls-2" d="M318.721,29.343c2.678,0,5.033,1.626,6.612,4.198l8.446,13.996,8.144-13.996c1.395-2.355,3.402-4.175,6.205-4.175.714,0,1.479.118,2.3.375,2.957.905,5.31,4.644,2.775,8.746l-13.693,21.898v17.796h-12.305v-18.157l-13.693-21.537c-2.413-3.739-.302-7.419,2.411-8.566.958-.395,1.896-.579,2.798-.579M318.721,24.843c-1.515,0-3.034.309-4.513.919-2.771,1.171-4.929,3.571-5.812,6.436-.896,2.909-.422,6.009,1.335,8.731l12.974,20.406v16.847c0,2.485,2.015,4.5,4.5,4.5h12.305c2.485,0,4.5-2.015,4.5-4.5v-16.504l13.009-20.803c1.874-3.031,2.269-6.361,1.127-9.395-1.088-2.889-3.48-5.147-6.4-6.041-1.201-.377-2.428-.572-3.616-.572-4.063,0-7.642,2.267-10.078,6.382l-4.342,7.462-4.523-7.495c-2.493-4.061-6.301-6.373-10.465-6.373h0Z"/>
      </g>
    </g>
  </g>
</svg>