<?xml version="1.0" encoding="UTF-8"?>
<svg id="_레이어_2" data-name="레이어 2" xmlns="http://www.w3.org/2000/svg" viewBox="0 0 307.544 179.094">
  <defs>
    <style>
      .cls-1 {
        stroke: #fff;
      }

      .cls-1, .cls-2 {
        fill: none;
      }

      .cls-1, .cls-2, .cls-3, .cls-4, .cls-5 {
        stroke-linecap: round;
        stroke-linejoin: round;
        stroke-width: 4.5px;
      }

      .cls-2, .cls-3, .cls-4, .cls-5 {
        stroke: #002f23;
      }

      .cls-3 {
        fill: #fff;
      }

      .cls-4, .cls-6 {
        fill: #eb5b30;
      }

      .cls-6 {
        stroke-width: 0px;
      }

      .cls-5 {
        fill: #0b8e4d;
      }
    </style>
  </defs>
  <g id="_레이어_1-2" data-name="레이어 1">
    <g>
      <g>
        <path class="cls-4" d="M153.772,176.844c-39.019,0-75.916-8.226-103.895-23.162C19.164,137.287,2.25,114.509,2.25,89.547S19.164,41.807,49.877,25.412C77.856,10.476,114.753,2.25,153.772,2.25s75.916,8.226,103.895,23.162c30.713,16.395,47.627,39.173,47.627,64.135s-16.914,47.74-47.627,64.136c-27.979,14.936-64.876,23.162-103.895,23.162Z"/>
        <ellipse class="cls-3" cx="153.772" cy="89.547" rx="137.773" ry="73.548"/>
        <g>
          <path class="cls-4" d="M170.303,54.215c-5.585-.683-11.153.054-16.391,1.939-5.239-1.884-10.806-2.622-16.391-1.939-20.461,2.503-33.378,23.005-28.852,45.793,4.526,22.788,24.783,39.233,45.243,36.731,20.461,2.503,40.717-13.942,45.243-36.731,4.526-22.788-8.391-43.29-28.852-45.793Z"/>
          <path class="cls-1" d="M122.139,74.361c.235-.361.478-.715.729-1.063"/>
          <path class="cls-1" d="M118.189,98.117c-1.192-5.998-.87-11.951.843-17.205"/>
          <path class="cls-2" d="M166.146,65.15c-3.062,2.127-7.407,3.454-12.234,3.454s-9.173-1.326-12.234-3.454"/>
          <path class="cls-2" d="M153.912,68.604s-2.668-15.905,14.532-33.105"/>
          <path class="cls-5" d="M151.063,43.938c5.338,6.334,3.111,16.992,3.111,16.992,0,0-10.881.388-16.219-5.946-5.338-6.334-3.111-16.992-3.111-16.992,0,0,10.881-.388,16.219,5.946Z"/>
        </g>
      </g>
      <g>
        <path class="cls-6" d="M40.159,97.733v-15.698c0-2.79.873-3.833,3.785-3.833h8.08c1.407,0,1.965,1.164,1.965,2.159s-.534,2.086-1.965,2.086h-6.163c-.558,0-.703.122-.703.704v3.057h6.235c1.407,0,1.965,1.164,1.965,2.159s-.534,2.087-1.965,2.087h-6.235v7.278h-4.998Z"/>
        <path class="cls-6" d="M55.494,85.481c0-5.58,4.489-7.4,8.128-7.4,3.566,0,8.128,1.82,8.128,7.4v5.314c0,5.58-4.561,7.4-8.128,7.4s-8.128-1.82-8.128-7.4v-5.314ZM66.8,85.335c0-2.135-1.65-3.106-3.178-3.106s-3.178.971-3.178,3.106v5.605c0,1.941,1.795,3.106,3.178,3.106s3.178-1.164,3.178-3.106v-5.605Z"/>
        <path class="cls-6" d="M86.672,89.994l4.61,7.74h-5.483l-3.64-6.526h-3.106v6.526h-4.974v-15.698c0-2.79.873-3.833,3.785-3.833h4.464c4.198,0,7.279,1.99,7.279,6.332v.291c0,2.305-1.213,4.076-2.936,5.168ZM79.053,87.106h3.154c1.625,0,2.475-1.043,2.475-2.28v-.17c0-1.238-.849-2.281-2.475-2.281h-2.45c-.558,0-.704.122-.704.704v4.027Z"/>
      </g>
      <g>
        <path class="cls-6" d="M228.485,90.576v7.157h-4.95v-7.303l-5.507-8.662c-.97-1.504-.121-2.984.971-3.445,1.528-.63,2.936.073,3.785,1.456l3.397,5.629,3.275-5.629c.704-1.189,1.796-2.038,3.421-1.528,1.189.364,2.135,1.869,1.116,3.518l-5.507,8.807Z"/>
        <path class="cls-6" d="M235.327,85.481c0-5.58,4.489-7.4,8.128-7.4,3.566,0,8.128,1.82,8.128,7.4v5.314c0,5.58-4.562,7.4-8.128,7.4s-8.128-1.82-8.128-7.4v-5.314ZM246.634,85.335c0-2.135-1.65-3.106-3.178-3.106s-3.178.971-3.178,3.106v5.605c0,1.941,1.795,3.106,3.178,3.106s3.178-1.164,3.178-3.106v-5.605Z"/>
        <path class="cls-6" d="M264.443,80.507c0-1.65,1.164-2.402,2.499-2.402,1.359,0,2.499.752,2.499,2.402v10.506c0,5.41-4.319,7.134-7.813,7.134s-7.813-1.723-7.813-7.134v-10.506c0-1.65,1.165-2.402,2.499-2.402,1.358,0,2.499.752,2.499,2.402v10.7c0,1.82,1.529,2.717,2.815,2.717s2.815-.897,2.815-2.717v-10.7Z"/>
      </g>
    </g>
  </g>
</svg>