<?xml version="1.0" encoding="UTF-8"?>
<svg id="_레이어_2" data-name="레이어 2" xmlns="http://www.w3.org/2000/svg" viewBox="0 0 123.54 168.479">
  <defs>
    <style>
      .cls-1 {
        fill: #383838;
        stroke-width: 0px;
      }
    </style>
  </defs>
  <g id="_레이어_1-2" data-name="레이어 1">
    <g>
      <path class="cls-1" d="M41.643,89.88c-.104,0-.212-.008-.319-.025l-17.416-2.725c-7.274-1.416-13.648-5.4-18.022-11.231-9.755-13.007-7.11-31.525,5.897-41.279,7.635-5.726,17.541-7.352,26.537-4.527-.193-9.43,4.143-18.484,11.774-24.208,13.011-9.754,31.529-7.108,41.281,5.897,4.374,5.831,6.414,13.065,5.745,20.37l-5.596,37.451c-.169,1.121-1.207,1.911-2.333,1.726-1.122-.167-1.894-1.212-1.728-2.333l5.582-37.335c.563-6.174-1.191-12.4-4.953-17.415-4.067-5.424-10.004-8.939-16.715-9.898-6.715-.955-13.395.753-18.819,4.821-7.338,5.506-11.137,14.589-9.912,23.707.098.737-.209,1.468-.804,1.914-.593.448-1.383.535-2.063.235-8.404-3.725-18.194-2.625-25.534,2.879C3.05,46.301.773,62.24,9.169,73.436c3.762,5.016,9.248,8.444,15.448,9.652l17.34,2.712c1.12.174,1.886,1.225,1.712,2.345-.158,1.012-1.032,1.735-2.026,1.735Z"/>
      <g>
        <path class="cls-1" d="M34.932,101.667c-.834,0-1.618-.513-1.924-1.341-1.465-3.956-2.01-8.442-1.666-13.714.076-1.131,1.004-1.98,2.183-1.914,1.131.074,1.988,1.052,1.914,2.183-.307,4.684.156,8.617,1.417,12.021.395,1.063-.148,2.244-1.211,2.638-.236.086-.477.128-.713.128Z"/>
        <path class="cls-1" d="M47.055,168.479c-.718,0-1.437-.018-2.163-.054-12.359-.615-23.847-6.347-31.521-15.725-6.078-7.428-12.828-18.381-11.058-37.299.934-8.959,5.408-18.601,9.731-27.925.784-1.686,1.565-3.371,2.325-5.051.467-1.032,1.684-1.49,2.716-1.023,1.034.468,1.491,1.685,1.024,2.717-.766,1.691-1.554,3.387-2.341,5.084-4.183,9.02-8.509,18.346-9.371,26.603-1.627,17.409,4.57,27.475,10.15,34.296,6.839,8.356,17.511,13.674,28.549,14.224,10.487.521,20.203-3.162,27.412-10.37l44.682-44.683c2.121-2.122,2.121-5.574,0-7.696-2.016-2.016-5.53-2.015-7.547,0l-23.482,23.482c-.802.802-2.101.802-2.902,0-.802-.802-.802-2.101,0-2.902l23.482-23.482c1.784-1.783,4.155-2.765,6.677-2.765s4.893.982,6.675,2.765c1.804,1.803,2.796,4.2,2.796,6.75s-.992,4.948-2.796,6.751l-44.683,44.683c-7.539,7.54-17.54,11.622-28.356,11.622Z"/>
        <path class="cls-1" d="M72.489,113.436c-.525,0-1.05-.2-1.451-.601-.802-.802-.802-2.101,0-2.902l34.231-34.232c2.015-2.015,4.704-3.126,7.573-3.126s5.556,1.11,7.571,3.126c2.016,2.016,3.127,4.704,3.127,7.573s-1.11,5.556-3.127,7.573l-11.413,11.414c-.802.802-2.101.802-2.902,0-.802-.802-.802-2.101,0-2.902l11.413-11.414c1.241-1.241,1.924-2.899,1.924-4.67s-.683-3.43-1.924-4.67c-2.482-2.482-6.857-2.479-9.339,0l-34.231,34.231c-.401.401-.926.601-1.451.601Z"/>
        <path class="cls-1" d="M60.208,101.154c-.525,0-1.05-.2-1.451-.601-.802-.802-.802-2.101,0-2.902l42.546-42.548c4.177-4.175,10.968-4.175,15.145,0,2.016,2.015,3.127,4.704,3.127,7.573s-1.111,5.556-3.127,7.573l-12.778,12.777c-.802.802-2.101.802-2.902,0-.802-.802-.802-2.101,0-2.902l12.778-12.777c1.241-1.241,1.924-2.899,1.924-4.67s-.684-3.43-1.924-4.67c-2.574-2.574-6.767-2.574-9.341,0l-42.546,42.548c-.401.401-.926.601-1.451.601Z"/>
        <path class="cls-1" d="M35.239,101.555c-.385,0-.774-.107-1.118-.334-.95-.619-1.219-1.89-.599-2.84l35.095-53.807c2.018-3.027,4.827-4.854,7.922-5.16,2.744-.265,5.524.737,7.565,2.778,3.724,3.725,4.111,9.305,1.062,15.307l-22.632,42.19c-.535.999-1.778,1.376-2.778.839-.998-.536-1.375-1.78-.838-2.779l22.61-42.149c1.267-2.495,2.939-7.238-.327-10.505-1.185-1.182-2.696-1.754-4.258-1.595-1.848.183-3.588,1.367-4.899,3.335l-35.083,53.789c-.395.603-1.052.931-1.722.931Z"/>
      </g>
    </g>
  </g>
</svg>