<?xml version="1.0" encoding="UTF-8"?>
<svg id="_레이어_2" data-name="레이어 2" xmlns="http://www.w3.org/2000/svg" viewBox="0 0 176.624 171.7">
  <defs>
    <style>
      .cls-1 {
        fill: #383838;
        stroke-width: 0px;
      }
    </style>
  </defs>
  <g id="_레이어_1-2" data-name="레이어 1">
    <g>
      <g>
        <path class="cls-1" d="M88.312,171.7c-.176,0-.355-.023-.529-.069l-67.175-17.913c-.898-.24-1.523-1.053-1.523-1.983v-41.73c0-1.133.919-2.053,2.053-2.053s2.053.919,2.053,2.053v40.154l63.07,16.818v-74.377l-65.652-17.507c-1.095-.293-1.746-1.417-1.454-2.513.291-1.095,1.408-1.75,2.512-1.454l67.175,17.914c.898.24,1.523,1.053,1.523,1.983v78.625c0,.638-.297,1.239-.802,1.628-.363.279-.804.425-1.251.425Z"/>
        <path class="cls-1" d="M21.136,75.264c-.913,0-1.746-.612-1.985-1.537-.284-1.097.374-2.218,1.471-2.501l20.853-5.407c1.093-.286,2.217.373,2.502,1.471.284,1.097-.374,2.218-1.471,2.501l-20.853,5.407c-.172.045-.346.066-.516.066Z"/>
        <path class="cls-1" d="M155.488,75.265c-.174,0-.353-.023-.53-.07l-21.201-5.653c-1.095-.293-1.746-1.417-1.454-2.513.291-1.094,1.413-1.748,2.512-1.454l21.201,5.653c1.095.293,1.746,1.417,1.454,2.513-.245.918-1.075,1.524-1.982,1.524Z"/>
        <path class="cls-1" d="M69.228,123.253c-.175,0-.353-.022-.529-.069L1.524,105.271c-.631-.169-1.144-.627-1.382-1.235-.239-.608-.172-1.294.177-1.846l19.084-30.178c.479-.759,1.388-1.118,2.264-.886l67.175,17.914c.63.168,1.143.627,1.382,1.235.239.608.172,1.294-.176,1.846l-19.084,30.177c-.383.604-1.043.955-1.735.955ZM5.28,102.024l63.019,16.804,16.786-26.542-63.019-16.805-16.786,26.542Z"/>
        <path class="cls-1" d="M107.396,123.253c-.691,0-1.352-.351-1.735-.955l-19.084-30.177c-.349-.552-.415-1.238-.176-1.846.239-.607.752-1.066,1.382-1.235l67.175-17.914c.867-.232,1.784.127,2.264.886l19.084,30.178c.349.552.415,1.238.177,1.846-.239.607-.752,1.066-1.382,1.235l-67.175,17.912c-.176.047-.354.069-.529.069ZM91.539,92.286l16.786,26.542,63.019-16.804-16.786-26.542-63.019,16.805Z"/>
        <path class="cls-1" d="M88.312,171.7c-.447,0-.888-.146-1.251-.425-.505-.389-.802-.99-.802-1.628v-78.625c0-.93.625-1.744,1.523-1.983l67.175-17.914c1.101-.292,2.221.36,2.512,1.454.292,1.095-.359,2.22-1.454,2.513l-65.652,17.507v74.377l63.07-16.818v-39.642c0-1.134.919-2.053,2.053-2.053s2.053.919,2.053,2.053v41.219c0,.93-.625,1.744-1.523,1.983l-67.175,17.913c-.174.046-.353.069-.529.069Z"/>
      </g>
      <path class="cls-1" d="M132.883,81.356c-1.134,0-2.053-.919-2.053-2.053v-42.039c0-6.957-4.698-13.148-11.425-15.055-.883-.25-1.492-1.056-1.492-1.974V4.553c0-.243-.205-.448-.448-.448h-14.168c-.242,0-.447.205-.447.448v15.683c0,.918-.609,1.725-1.493,1.974-6.727,1.906-11.425,8.097-11.425,15.055v8.285c0,1.133-.919,2.053-2.053,2.053s-2.053-.919-2.053-2.053v-8.285c0-8.261,5.239-15.664,12.919-18.517V4.553c0-2.511,2.042-4.553,4.552-4.553h14.168c2.51,0,4.553,2.042,4.553,4.553v14.196c7.679,2.854,12.918,10.256,12.918,18.516v42.039c0,1.134-.919,2.053-2.053,2.053Z"/>
      <path class="cls-1" d="M119.549,13.328h-18.335c-1.134,0-2.053-.919-2.053-2.053s.919-2.053,2.053-2.053h18.335c1.133,0,2.053.919,2.053,2.053s-.919,2.053-2.053,2.053Z"/>
      <path class="cls-1" d="M104.386,86.642c-.981,0-1.848-.705-2.021-1.703l-5.919-34.261-45.605-12.151-7.604,40.035c-.211,1.112-1.28,1.848-2.399,1.634-1.113-.212-1.845-1.286-1.633-2.399l8.016-42.204c.106-.56.441-1.051.924-1.355.482-.304,1.068-.394,1.621-.246l49.009,13.058c.775.206,1.358.845,1.494,1.634l6.143,35.555c.194,1.117-.556,2.18-1.673,2.372-.118.02-.237.03-.352.03Z"/>
      <path class="cls-1" d="M89.709,90.449c-.121,0-.243-.01-.368-.033-1.115-.202-1.856-1.27-1.654-2.385l7.131-39.408c.201-1.115,1.26-1.863,2.385-1.654,1.115.201,1.856,1.27,1.654,2.385l-7.131,39.408c-.179.991-1.043,1.687-2.017,1.687Z"/>
      <path class="cls-1" d="M93.324,63.656c-.174,0-.353-.023-.53-.07l-45.623-12.173c-1.095-.292-1.746-1.417-1.454-2.512.292-1.094,1.413-1.749,2.512-1.454l45.623,12.173c1.095.293,1.746,1.417,1.454,2.512-.246.918-1.076,1.524-1.983,1.524Z"/>
    </g>
  </g>
</svg>