<?xml version="1.0" encoding="UTF-8"?>
<svg id="_레이어_2" data-name="레이어 2" xmlns="http://www.w3.org/2000/svg" viewBox="0 0 169.91 172.886">
  <defs>
    <style>
      .cls-1 {
        fill: #383838;
        stroke-width: 0px;
      }
    </style>
  </defs>
  <g id="_레이어_1-2" data-name="레이어 1">
    <g>
      <path class="cls-1" d="M84.954,106.077c-.553,0-1.082-.222-1.468-.618l-35.765-36.615c-4.092-4.526-6.316-10.284-6.316-16.268,0-13.349,10.86-24.209,24.209-24.209,7.651,0,14.801,3.634,19.34,9.663,4.54-6.029,11.69-9.663,19.341-9.663,13.349,0,24.209,10.86,24.209,24.209,0,5.985-2.224,11.742-6.263,16.21-.054.058-35.819,36.673-35.819,36.673-.386.396-.915.618-1.468.618ZM65.615,32.472c-11.085,0-20.104,9.019-20.104,20.104,0,4.966,1.847,9.746,5.203,13.458l34.241,35.053,34.269-35.082c3.338-3.708,5.176-8.476,5.176-13.429,0-11.085-9.019-20.104-20.104-20.104-7.267,0-13.991,3.951-17.55,10.311-.363.648-1.047,1.05-1.791,1.05s-1.428-.402-1.791-1.05c-3.558-6.36-10.282-10.311-17.549-10.311Z"/>
      <g>
        <g>
          <path class="cls-1" d="M122.973,172.886c-.048,0-.095-.002-.144-.005-1.131-.078-1.983-1.058-1.905-2.19.828-11.937,2.366-15.786,2.886-16.774,1.92-4.602,9.413-11.499,18.076-19.473,8.474-7.799,18.078-16.64,19.635-21.361,3.994-12.103,4.213-45.289,4.282-56.37-.121-1.044-.534-1.384-1.585-1.464-2.612.019-6.504,3.133-6.911,8.163-.008.107-.025.213-.05.318-.388,1.602-.912,5.279-1.466,9.172-.969,6.803-1.971,13.838-3.06,16.57-.42,1.052-1.611,1.568-2.667,1.148-1.053-.42-1.566-1.614-1.148-2.667.908-2.277,1.962-9.681,2.81-15.629.576-4.05,1.077-7.563,1.503-9.404.643-7.01,6.16-11.741,10.959-11.775,3.187,0,5.406,2.065,5.712,5.273.006.069.009.138.009.208-.12,19.312-.717,46.309-4.49,57.745-1.892,5.734-11.054,14.166-20.754,23.095-7.673,7.062-15.606,14.364-17.095,18.098-.046.116-.102.227-.169.334-.025.053-1.547,3.023-2.384,15.079-.075,1.082-.976,1.91-2.046,1.91Z"/>
          <path class="cls-1" d="M93.047,172.886c-1.132,0-2.051-.918-2.053-2.05-.005-5.676.892-23.363,2.082-28.329,1.382-7.834,7.025-20.787,18.295-31.108,9.598-9.13,18.835-19.645,23.274-24.699,5.182-4.953,9.745-6.136,14.062-3.759,4.871,2.946,5.282,7.98,1.295,15.004-4.322,7.843-10.637,16.028-19.294,25-.787.82-2.087.84-2.902.052-.816-.788-.839-2.087-.052-2.902,8.403-8.708,14.508-16.609,18.665-24.153,4.051-7.137,1.377-8.755.234-9.447-1.688-.928-4.321-1.465-9.049,3.046-4.354,4.968-13.673,15.576-23.433,24.86-10.541,9.653-15.784,21.622-17.079,28.945-1.051,4.398-1.999,21.525-1.994,27.488.001,1.133-.917,2.053-2.05,2.054h-.002Z"/>
        </g>
        <g>
          <path class="cls-1" d="M46.937,172.886c-1.069,0-1.97-.828-2.046-1.91-.837-12.057-2.36-15.026-2.424-15.146-.036-.067-.101-.195-.13-.267-1.487-3.734-9.421-11.037-17.094-18.099-9.699-8.928-18.861-17.36-20.753-23.094C.717,102.934.12,75.936,0,56.625c0-.069.003-.138.009-.208.306-3.208,2.525-5.274,5.66-5.274,4.851.035,10.367,4.766,11.01,11.776.426,1.841.927,5.354,1.503,9.404.848,5.948,1.902,13.351,2.81,15.629.419,1.053-.094,2.247-1.148,2.667-1.056.421-2.247-.095-2.667-1.148-1.088-2.732-2.091-9.767-3.06-16.57-.554-3.893-1.078-7.571-1.466-9.172-.025-.104-.042-.211-.05-.318-.407-5.03-4.3-8.144-6.911-8.163-1.006,0-1.464.428-1.586,1.464.069,11.082.289,44.268,4.283,56.37,1.557,4.721,11.161,13.561,19.634,21.36,8.663,7.975,16.156,14.871,18.076,19.474.52.989,2.06,4.839,2.887,16.774.078,1.132-.775,2.112-1.905,2.19-.048.003-.096.005-.144.005Z"/>
          <path class="cls-1" d="M76.863,172.886c-1.135-.001-2.054-.921-2.053-2.054.005-5.962-.943-23.09-1.969-27.367-1.32-7.444-6.562-19.412-17.075-29.04-9.789-9.309-19.108-19.918-23.587-25.016-4.604-4.382-7.233-3.843-8.997-2.873-1.069.649-3.743,2.268.295,9.382,4.17,7.568,10.276,15.468,18.678,24.176.787.816.764,2.115-.052,2.902-.813.788-2.114.768-2.902-.052-8.657-8.972-14.972-17.157-19.307-25.023-3.974-7.001-3.563-12.035,1.235-14.939,4.397-2.422,8.953-1.236,14.009,3.587,4.565,5.184,13.802,15.7,23.43,24.856,11.242,10.297,16.884,23.249,18.291,31.204,1.165,4.844,2.062,22.531,2.057,28.207-.001,1.133-.92,2.05-2.053,2.05Z"/>
        </g>
      </g>
      <g>
        <path class="cls-1" d="M84.714,26.438c-1.134,0-2.053-.919-2.053-2.053V2.053c0-1.134.919-2.053,2.053-2.053s2.053.919,2.053,2.053v22.333c0,1.134-.919,2.053-2.053,2.053Z"/>
        <path class="cls-1" d="M65.675,23.51c-.896,0-1.719-.591-1.974-1.495l-4.76-16.841c-.308-1.091.327-2.225,1.417-2.534,1.093-.301,2.227.329,2.534,1.417l4.759,16.841c.308,1.091-.327,2.225-1.417,2.534-.187.052-.375.078-.559.078Z"/>
        <path class="cls-1" d="M47.371,29.367c-.624,0-1.241-.284-1.644-.821l-8.786-11.716c-.681-.907-.497-2.194.41-2.873.911-.682,2.196-.495,2.873.41l8.786,11.716c.68.907.497,2.194-.41,2.873-.37.278-.802.411-1.23.411Z"/>
        <path class="cls-1" d="M36.751,40.717c-.3,0-.603-.065-.891-.204l-10.617-5.125c-1.021-.492-1.449-1.72-.956-2.74.492-1.023,1.718-1.452,2.74-.956l10.618,5.125c1.021.492,1.449,1.72.956,2.74-.354.734-1.086,1.161-1.849,1.161Z"/>
        <path class="cls-1" d="M33.459,53.531c-.053,0-.106-.002-.159-.006l-9.519-.733c-1.131-.087-1.976-1.073-1.889-2.204.087-1.13,1.079-1.984,2.204-1.889l9.519.733c1.131.087,1.976,1.073,1.889,2.204-.083,1.076-.982,1.895-2.045,1.895Z"/>
        <path class="cls-1" d="M103.753,23.51c-.185,0-.373-.026-.559-.078-1.091-.309-1.725-1.443-1.417-2.534l4.76-16.841c.309-1.089,1.441-1.722,2.534-1.417,1.091.309,1.725,1.443,1.417,2.534l-4.76,16.841c-.256.904-1.079,1.495-1.974,1.495Z"/>
        <path class="cls-1" d="M122.056,29.367c-.428,0-.86-.133-1.23-.411-.907-.68-1.09-1.966-.41-2.873l8.787-11.716c.68-.905,1.965-1.092,2.873-.41.907.679,1.09,1.966.41,2.873l-8.787,11.716c-.403.537-1.019.821-1.644.821Z"/>
        <path class="cls-1" d="M132.677,40.717c-.763,0-1.495-.427-1.849-1.161-.493-1.02-.065-2.248.956-2.74l10.618-5.125c1.02-.494,2.247-.065,2.74.956.493,1.02.065,2.248-.956,2.74l-10.618,5.125c-.288.139-.591.204-.891.204Z"/>
        <path class="cls-1" d="M135.969,53.531c-1.062,0-1.961-.819-2.045-1.895-.087-1.131.759-2.117,1.889-2.204l9.519-.733c1.127-.083,2.117.76,2.204,1.889.087,1.131-.759,2.117-1.889,2.204l-9.519.733c-.053.004-.107.006-.159.006Z"/>
      </g>
    </g>
  </g>
</svg>