<?xml version="1.0" encoding="UTF-8"?>
<svg id="_레이어_2" data-name="레이어 2" xmlns="http://www.w3.org/2000/svg" viewBox="0 0 168.281 168.281">
  <defs>
    <style>
      .cls-1 {
        fill: #383838;
        stroke-width: 0px;
      }
    </style>
  </defs>
  <g id="_레이어_1-2" data-name="레이어 1">
    <g>
      <path class="cls-1" d="M84.187,120.257c-.552,0-1.08-.222-1.467-.617l-31.032-31.702c-4.224-4.664-6.172-10.85-5.396-17.031,1.175-9.351,8.481-16.867,17.767-18.28,7.816-1.193,15.374,1.88,20.068,7.919,4.683-6.051,12.243-9.13,20.052-7.962,9.291,1.393,16.612,8.896,17.804,18.244.788,6.18-1.146,12.371-5.307,16.985-.055.058-31.021,31.824-31.021,31.824-.385.395-.914.619-1.467.619h-.002ZM67.361,56.481c-.887,0-1.784.066-2.685.202-7.361,1.12-13.38,7.318-14.311,14.737-.635,5.065.895,9.932,4.312,13.706l29.507,30.143,29.471-30.233c3.39-3.776,4.902-8.635,4.257-13.686-.945-7.416-6.977-13.6-14.341-14.704-7.189-1.085-14.124,2.301-17.647,8.611-.362.649-1.046,1.052-1.79,1.052s-1.429-.401-1.792-1.048c-3.093-5.514-8.786-8.779-14.98-8.779Z"/>
      <g>
        <path class="cls-1" d="M84.14,168.281C37.745,168.281,0,130.536,0,84.14S37.745,0,84.14,0s84.141,37.745,84.141,84.14-37.745,84.141-84.141,84.141ZM84.14,4.105C40.009,4.105,4.105,40.008,4.105,84.14s35.904,80.036,80.035,80.036,80.036-35.905,80.036-80.036S128.272,4.105,84.14,4.105Z"/>
        <path class="cls-1" d="M84.14,168.281c-27.545,0-49.954-37.745-49.954-84.141S56.596,0,84.14,0s49.955,37.745,49.955,84.14-22.409,84.141-49.955,84.141ZM84.14,4.105c-25.282,0-45.849,35.903-45.849,80.035s20.567,80.036,45.849,80.036,45.85-35.905,45.85-80.036S109.422,4.105,84.14,4.105Z"/>
        <path class="cls-1" d="M49.893,86.192H3.139c-1.134,0-2.053-.918-2.053-2.053s.919-2.053,2.053-2.053h46.754c1.133,0,2.053.918,2.053,2.053s-.919,2.053-2.053,2.053Z"/>
        <path class="cls-1" d="M165.965,86.192h-47.301c-1.134,0-2.053-.918-2.053-2.053s.919-2.053,2.053-2.053h47.301c1.133,0,2.053.918,2.053,2.053s-.919,2.053-2.053,2.053Z"/>
        <path class="cls-1" d="M84.14,62.66c-1.133,0-2.053-.918-2.053-2.053V2.726c0-1.134.919-2.053,2.053-2.053s2.053.918,2.053,2.053v57.882c0,1.135-.919,2.053-2.053,2.053Z"/>
        <path class="cls-1" d="M84.14,167.606c-1.133,0-2.053-.918-2.053-2.053v-47.589c0-1.135.919-2.053,2.053-2.053s2.053.918,2.053,2.053v47.589c0,1.134-.919,2.053-2.053,2.053Z"/>
      </g>
    </g>
  </g>
</svg>