<?xml version="1.0" encoding="UTF-8"?>
<svg id="_레이어_2" data-name="레이어 2" xmlns="http://www.w3.org/2000/svg" viewBox="0 0 106.019 116.985">
  <defs>
    <style>
      .cls-1 {
        fill: #221f20;
        stroke-width: 0px;
      }
    </style>
  </defs>
  <g id="_레이어_1-2" data-name="레이어 1">
    <g>
      <path class="cls-1" d="M64.619,17.434c7.207-2.42,19.311-5.54,23.789-1.041.568.57.564,1.489-.004,2.055-.572.566-1.491.566-2.055-.004-3.057-3.064-13.607-.747-21.73,2.058v.983c0,.705-.142,1.371-.352,2.006,9.394,1.153,29.609,3.152,32.198-.633,3.387-4.95-5.471-19.539-12.244-22.468-6.748-2.918-20.703,11.413-20.809,11.523.753,1.053,1.207,2.334,1.207,3.724v1.796Z"/>
      <path class="cls-1" d="M41.754,23.492c-.21-.635-.352-1.301-.352-2.006v-.982c-8.126-2.807-18.678-5.122-21.73-2.059-.564.57-1.484.57-2.055.004-.568-.566-.571-1.486-.004-2.055,4.481-4.5,16.584-1.379,23.789,1.041v-1.797c0-1.39.454-2.67,1.206-3.723-.099-.102-14.06-14.442-20.809-11.523-6.774,2.929-15.632,17.518-12.245,22.468,2.589,3.785,22.806,1.785,32.2.632Z"/>
      <path class="cls-1" d="M101.057,26.409H4.962c-2.741,0-4.962,2.222-4.962,4.962v16.823c0,2.741,2.222,4.962,4.962,4.962h3.359v16.385l16.385-16.385h8.221l-24.606,24.606v10.511l35.117-35.117h8.221L8.321,96.495v10.515l53.853-53.853h8.221L8.321,115.231v1.754h8.757l63.828-63.828h8.221l-63.828,63.828h10.511l59.251-59.251.485-.542v-4.035h5.51c2.741,0,4.962-2.222,4.962-4.962v-16.823c0-2.741-2.222-4.962-4.962-4.962Z"/>
      <polygon class="cls-1" points="54.546 116.985 95.547 75.985 95.547 65.47 44.031 116.985 54.546 116.985"/>
      <polygon class="cls-1" points="73.279 116.985 93.498 96.769 95.547 94.65 95.547 84.206 62.767 116.985 73.279 116.985"/>
      <polygon class="cls-1" points="95.547 116.985 95.547 102.941 81.501 116.985 95.547 116.985"/>
      <rect class="cls-1" x="45.277" y="13.08" width="15.466" height="10.965" rx="2.559" ry="2.559"/>
    </g>
  </g>
</svg>