<?xml version="1.0" encoding="UTF-8"?>
<svg id="_레이어_2" data-name="레이어 2" xmlns="http://www.w3.org/2000/svg" viewBox="0 0 118.577 121.758">
  <defs>
    <style>
      .cls-1 {
        fill: #221f20;
        stroke-width: 0px;
      }
    </style>
  </defs>
  <g id="_레이어_1-2" data-name="레이어 1">
    <path class="cls-1" d="M118.072,35.592c-.418-.504-1.038-.795-1.692-.795h-28.52c10.797-3.639,13.74-9.986,14.538-13.305,1.796-7.479-2.835-15.706-11.267-20.005-3.48-1.774-7.019-1.962-10.519-.557-8.358,3.353-14.169,15.234-16.466,20.712-.03,0-.059-.005-.09-.005h-10.738c-.03,0-.059.004-.09.005-2.297-5.478-8.108-17.359-16.466-20.712-3.499-1.404-7.041-1.217-10.519.557-8.431,4.3-13.063,12.526-11.267,20.005.798,3.319,3.741,9.666,14.538,13.305H2.198c-.654,0-1.275.291-1.692.795-.417.504-.589,1.168-.466,1.811l.519,23.206c.196,1.037,1.103,1.788,2.159,1.788h6.013l4.173,53.861c.089,1.144,1.043,2.027,2.191,2.027h32.419c1.114,2.065,3.298,3.472,5.805,3.472h10.738c2.507,0,4.69-1.407,5.805-3.472h31.646c1.148,0,2.102-.883,2.19-2.027l4.173-53.861h7.99c1.056,0,1.962-.751,2.159-1.788l.519-23.206c.122-.643-.05-1.307-.467-1.811ZM66.253,33.917c0,.153-.016.303-.046.448-.004.02-.013.039-.018.059-.03.124-.065.246-.115.36-.002.005-.005.009-.008.014-.115.261-.279.495-.48.692-.396.386-.935.625-1.53.625h-10.738c-.595,0-1.133-.24-1.53-.625-.202-.196-.365-.431-.48-.692-.002-.005-.005-.009-.008-.014-.05-.115-.085-.237-.115-.36-.005-.02-.014-.038-.018-.059-.03-.145-.046-.294-.046-.448v-5.687c0-.386.109-.743.284-1.059.184-.332.451-.61.771-.81.018-.011.038-.02.057-.031.131-.077.272-.136.419-.184.041-.013.082-.028.125-.039.174-.045.353-.076.541-.076h10.738c.188,0,.368.03.541.076.042.011.083.025.125.039.147.048.288.108.419.184.019.011.038.02.057.031.32.2.587.478.771.81.175.315.284.673.284,1.059v5.687ZM82.248,5.009c2.303-.924,4.555-.795,6.887.393,6.613,3.373,10.31,9.567,8.989,15.063-1.799,7.486-11.991,12.125-27.477,12.633v-4.868c0-2.035-.928-3.858-2.382-5.068,2.475-5.849,7.717-15.639,13.983-18.153ZM19.249,20.466c-1.32-5.496,2.377-11.691,8.989-15.063,2.331-1.188,4.583-1.317,6.884-.395,6.73,2.697,11.853,13.159,13.974,18.166-1.447,1.21-2.37,3.027-2.37,5.057v4.868c-15.486-.508-25.678-5.146-27.477-12.633ZM66.253,115.166c0,1.212-.986,2.197-2.197,2.197h-10.738c-1.212,0-2.197-.986-2.197-2.197V40.125c.689.245,1.426.385,2.197.385h10.738c.771,0,1.509-.14,2.197-.385v75.042Z"/>
  </g>
</svg>