<?xml version="1.0" encoding="UTF-8"?>
<svg id="_레이어_2" data-name="레이어 2" xmlns="http://www.w3.org/2000/svg" viewBox="0 0 125.596 154.109">
  <defs>
    <style>
      .cls-1 {
        fill: #c79266;
      }

      .cls-1, .cls-2, .cls-3, .cls-4, .cls-5 {
        stroke-width: 0px;
      }

      .cls-2 {
        fill: #9f7550;
      }

      .cls-3 {
        fill: #f2c198;
      }

      .cls-4 {
        fill: #e83c39;
      }

      .cls-5 {
        fill: #262726;
      }
    </style>
  </defs>
  <g id="_레이어_1-2" data-name="레이어 1">
    <g>
      <g>
        <path class="cls-2" d="M71.056,61.709c1.549-1.234,3.055-2.556,4.511-3.962,2.506-2.42,4.877-5.103,6.83-8.216,4.632-7.381,6.664-17.118,5.425-25.991-.426-3.051-1.215-6.167-.539-9.23.677-3.063,3.684-5.716,5.729-4.05,1.018.829,1.439,2.408,1.725,3.903.741,3.869,1,7.913.766,11.951,1.191-.346,1.742-2.062,2.206-3.486,1.415-4.336,4.392-8.708,8.238-9.613.915-.215,1.914-.063,2.589.671,3.375,3.671-1.189,13.908-3.542,17.049,1.748-1.842,3.616-3.68,5.8-4.372,2.183-.692,4.763.103,5.73,2.524.858,2.147.185,4.996-1.225,6.818-1.41,1.822-3.404,2.754-5.365,3.167-2.427.511-5.034.376-7.16,2.028-1.268.985-2.211,2.5-3.15,3.955-5.472,8.475-11.849,16.066-18.887,22.483"/>
        <path class="cls-5" d="M80.738,68.836c-.407,0-.813-.165-1.109-.489-.558-.612-.515-1.561.098-2.119,6.955-6.342,13.226-13.807,18.638-22.188l.139-.215c.956-1.483,1.944-3.018,3.351-4.111,1.879-1.46,4.023-1.754,5.916-2.014.649-.089,1.263-.173,1.856-.298,1.952-.412,3.462-1.292,4.487-2.617,1.186-1.532,1.624-3.829,1.019-5.343-.67-1.678-2.459-2.101-3.884-1.651-1.836.582-3.558,2.283-5.165,3.976-.547.576-1.449.626-2.056.113-.607-.513-.709-1.41-.232-2.045,2.629-3.508,6.047-12.513,3.638-15.134-.338-.366-.911-.28-1.141-.226-3.473.817-6.026,5.153-7.157,8.618-.542,1.664-1.27,3.896-3.213,4.461-.468.136-.973.037-1.354-.268-.381-.304-.591-.773-.562-1.26.228-3.925-.021-7.822-.741-11.582-.216-1.128-.548-2.492-1.2-3.022-.176-.144-.399-.257-.835-.106-.931.324-2.113,1.653-2.481,3.317-.483,2.186-.113,4.463.278,6.875.099.609.197,1.217.282,1.822,1.288,9.224-.82,19.316-5.64,26.996-1.802,2.872-4.111,5.651-7.059,8.498-1.484,1.434-3.038,2.798-4.618,4.057-.648.516-1.592.409-2.108-.239-.516-.648-.409-1.592.239-2.108,1.506-1.199,2.987-2.5,4.403-3.868,2.771-2.676,4.931-5.271,6.602-7.934,4.455-7.1,6.403-16.441,5.21-24.986-.082-.584-.177-1.169-.272-1.757-.419-2.584-.852-5.257-.246-8.003.559-2.528,2.378-4.791,4.424-5.503,1.34-.464,2.658-.248,3.716.613,1.393,1.135,1.92,3.055,2.251,4.784.401,2.094.665,4.227.79,6.382,1.667-3.885,4.593-7.765,8.604-8.707,1.55-.366,3.059.052,4.036,1.116,2.556,2.78,1.597,8.108-.114,12.567.266-.115.538-.218.815-.305,3.148-.998,6.404.463,7.577,3.397.999,2.502.41,5.912-1.433,8.292-1.452,1.877-3.611,3.163-6.242,3.717-.697.147-1.393.242-2.066.334-1.738.239-3.239.444-4.482,1.411-1.003.779-1.851,2.094-2.67,3.367l-.14.217c-5.552,8.599-11.991,16.262-19.137,22.778-.288.262-.649.392-1.01.392Z"/>
      </g>
      <g>
        <path class="cls-2" d="M53.151,58.928c-1.102-1.645-2.136-3.362-3.097-5.144-1.654-3.066-3.1-6.342-4.017-9.9-2.175-8.438-1.159-18.333,2.713-26.412,1.331-2.778,3.028-5.508,3.312-8.631.284-3.124-1.777-6.564-4.23-5.597-1.222.482-2.102,1.859-2.828,3.196-1.879,3.462-3.353,7.237-4.354,11.156-1.03-.691-1.034-2.493-1.045-3.991-.033-4.561-1.544-9.63-4.935-11.659-.807-.483-1.805-.641-2.671-.146-4.33,2.475-3.085,13.614-1.795,17.32-1.107-2.285-2.33-4.604-4.2-5.925s-4.57-1.347-6.226.667c-1.469,1.786-1.691,4.704-.9,6.868.791,2.164,2.409,3.657,4.152,4.645,2.158,1.223,4.682,1.885,6.208,4.104.909,1.323,1.349,3.053,1.802,4.724,2.644,9.736,6.419,18.902,11.179,27.152"/>
        <path class="cls-5" d="M42.22,62.855c-.519,0-1.023-.27-1.301-.751-4.833-8.376-8.644-17.631-11.328-27.508l-.067-.249c-.395-1.46-.804-2.971-1.523-4.018-.892-1.298-2.26-1.949-3.844-2.703-.613-.292-1.248-.594-1.868-.945-2.339-1.326-4.006-3.206-4.821-5.435-1.034-2.828-.56-6.255,1.15-8.336,2.007-2.441,5.552-2.846,8.25-.94.237.168.465.348.684.538-.279-4.768.423-10.136,3.702-12.01,1.254-.716,2.818-.657,4.185.161,3.54,2.117,5.151,6.712,5.559,10.902.773-2.014,1.671-3.965,2.687-5.837.839-1.546,1.923-3.216,3.596-3.876,1.269-.499,2.593-.307,3.728.543,1.734,1.299,2.781,4.007,2.546,6.586-.254,2.801-1.477,5.216-2.661,7.551-.269.531-.538,1.061-.792,1.593-3.729,7.781-4.705,17.272-2.612,25.39.784,3.044,2.055,6.172,3.884,9.562.936,1.733,1.953,3.423,3.023,5.022.461.688.277,1.62-.412,2.081-.689.461-1.621.276-2.08-.412-1.124-1.678-2.19-3.449-3.171-5.266-1.946-3.607-3.304-6.956-4.149-10.238-2.264-8.78-1.212-19.037,2.813-27.435.264-.552.542-1.102.822-1.652,1.104-2.179,2.147-4.238,2.35-6.467.154-1.697-.569-3.322-1.358-3.914-.368-.274-.614-.235-.829-.152-.782.309-1.511,1.507-2.059,2.517-1.826,3.363-3.246,7.001-4.219,10.811-.121.472-.463.856-.918,1.03-.456.173-.967.116-1.371-.156-1.68-1.127-1.696-3.475-1.708-5.189-.027-3.681-1.144-8.587-4.206-10.418-.204-.121-.723-.378-1.156-.131-3.091,1.767-2.564,11.384-1.122,15.524.261.751-.108,1.574-.842,1.878-.733.305-1.578-.016-1.924-.731-1.019-2.1-2.144-4.244-3.716-5.355-1.219-.86-3.053-1.001-4.202.395-1.036,1.259-1.315,3.581-.65,5.4.576,1.574,1.748,2.871,3.483,3.855.527.298,1.086.565,1.678.846,1.724.821,3.679,1.751,5.027,3.713,1.009,1.468,1.486,3.23,1.947,4.934l.067.247c2.615,9.627,6.326,18.643,11.031,26.795.414.717.168,1.635-.55,2.049-.236.136-.494.201-.748.201Z"/>
      </g>
      <g>
        <g>
          <path class="cls-3" d="M53.525,81.512c.236,1.303.629,2.735,1.759,3.425,1.094.669,2.573.384,3.607-.375,1.034-.758,1.71-1.902,2.298-3.041,4.499-8.719,5.401-18.674,6.998-28.422-2.169-.309-4.356-.525-6.536-.701-3.237-.261-6.498-.431-9.748-.396.206,5.822.411,11.643.617,17.464.142,4.03.286,8.077,1.005,12.045Z"/>
          <path class="cls-5" d="M56.695,86.809c-.784,0-1.543-.195-2.193-.593-1.644-1.005-2.174-2.9-2.453-4.438-.739-4.081-.886-8.238-1.028-12.259l-.617-17.465c-.014-.404.135-.796.414-1.088.279-.292.665-.46,1.068-.464,2.961-.032,6.1.095,9.885.4,2.57.208,4.676.434,6.626.711.399.057.759.272.998.597.239.325.336.732.271,1.131-.256,1.563-.494,3.132-.732,4.7-1.241,8.177-2.525,16.633-6.413,24.168-.668,1.295-1.463,2.623-2.744,3.563-.935.686-2.031,1.038-3.083,1.038ZM53.457,53.5l.562,15.914c.139,3.915.282,7.963.982,11.831h0c.167.922.438,2.03,1.065,2.413.471.288,1.305.158,1.937-.304.781-.573,1.351-1.55,1.852-2.52,3.662-7.098,4.853-14.94,6.113-23.243.162-1.069.325-2.139.493-3.208-1.473-.182-3.077-.341-4.932-.491-3.041-.245-5.648-.373-8.073-.393Z"/>
        </g>
        <g>
          <path class="cls-1" d="M96.418,82.81c-.209-5.647-.96-11.468-3.843-16.328-3.007-5.069-8.118-8.641-13.623-10.746-3.462-1.324-7.089-2.115-10.765-2.638-1.597,9.748-2.499,19.703-6.998,28.422-.588,1.14-1.264,2.283-2.298,3.041-1.034.758-2.513,1.043-3.607.375-1.13-.691-1.523-2.122-1.759-3.425-.719-3.968-.863-8.015-1.005-12.045-.206-5.821-.411-11.643-.617-17.464-3.667.04-7.319.344-10.902,1.115-7.164,1.541-15.076,5.295-19.068,11.696-4.342,6.962-6.018,15.319-6.133,23.437-.131,9.264,1.293,13.198,2.837,22.333,1.251,7.403,5.431,15.293,8.045,22.331,2.648,7.13,7.312,15.096,14.572,18.201,3.501,1.497,7.643,1.963,12.561.974,2.968-.597,5.834-1.633,8.552-2.952,26.429-12.831,35.081-38.547,34.05-66.326Z"/>
          <path class="cls-5" d="M48.829,154.109c-2.918,0-5.65-.539-8.164-1.614-8.166-3.493-12.876-12.292-15.389-19.058-.79-2.127-1.714-4.307-2.692-6.615-2.227-5.252-4.529-10.683-5.425-15.989-.392-2.319-.784-4.343-1.13-6.129-1.021-5.266-1.827-9.426-1.727-16.476.135-9.513,2.275-17.658,6.36-24.209,5.24-8.403,15.75-11.449,20.025-12.369,3.379-.727,7.043-1.103,11.201-1.148h.017c.807,0,1.47.639,1.498,1.447l.617,17.464c.139,3.915.282,7.963.982,11.831.167.922.438,2.03,1.065,2.413.471.288,1.305.158,1.937-.304.781-.573,1.351-1.55,1.852-2.52,3.662-7.098,4.853-14.94,6.113-23.243.24-1.58.479-3.16.737-4.735.133-.806.885-1.355,1.692-1.242,4.256.606,7.884,1.496,11.09,2.722,6.359,2.431,11.465,6.473,14.377,11.381,3.233,5.45,3.864,11.968,4.052,17.038h0c1.211,32.64-10.855,56.061-34.894,67.732-2.988,1.451-5.987,2.484-8.912,3.074-1.82.366-3.583.549-5.283.549ZM50.456,53.533c-3.355.106-6.358.452-9.14,1.05-3.902.839-13.478,3.594-18.11,11.023-3.791,6.081-5.779,13.706-5.906,22.665-.096,6.74.646,10.566,1.673,15.862.349,1.803.746,3.846,1.143,6.2.838,4.959,3.07,10.225,5.229,15.318.992,2.34,1.929,4.55,2.743,6.741,1.89,5.089,6.19,14.109,13.756,17.344,3.409,1.458,7.337,1.755,11.675.882,2.676-.539,5.433-1.491,8.193-2.832,28.915-14.038,34.018-43.052,33.206-64.921h0c-.175-4.714-.746-10.75-3.634-15.619-2.568-4.329-7.139-7.919-12.869-10.109-2.627-1.004-5.578-1.771-8.985-2.332-.169,1.077-.333,2.156-.497,3.234-1.241,8.177-2.525,16.633-6.413,24.168-.668,1.295-1.463,2.623-2.744,3.563-1.634,1.197-3.753,1.375-5.276.445-1.644-1.005-2.174-2.9-2.453-4.438-.739-4.081-.886-8.238-1.028-12.259l-.565-15.987Z"/>
        </g>
      </g>
      <g>
        <path class="cls-1" d="M38.098,58.657c.494-3.702-1.355-7.308-3.508-10.359-6.546-9.279-16.56-16.049-27.609-18.665-1.734,4.47-3.144,9.065-4.215,13.739-.741,3.232-1.322,6.526-1.261,9.842.198,10.782,7.948,21.004,18.275,24.108"/>
        <path class="cls-5" d="M19.78,78.822c-.143,0-.288-.02-.432-.064C8.351,75.453.216,64.721.005,53.241c-.068-3.701.618-7.235,1.299-10.204,1.084-4.729,2.524-9.421,4.279-13.946.271-.698,1.014-1.088,1.744-.917,11.37,2.692,21.754,9.712,28.489,19.26,1.911,2.709,4.38,6.839,3.769,11.422-.109.821-.859,1.401-1.685,1.289-.821-.109-1.398-.864-1.289-1.685.359-2.693-.672-5.647-3.247-9.296-6.067-8.6-15.289-15.014-25.456-17.748-1.491,4.005-2.728,8.134-3.682,12.292-.64,2.792-1.286,6.102-1.224,9.478.185,10.048,7.583,19.807,17.207,22.7.793.238,1.243,1.075,1.005,1.868-.195.649-.791,1.069-1.436,1.069Z"/>
      </g>
      <g>
        <path class="cls-1" d="M84.767,68.918c.836-3.64,3.833-6.368,6.919-8.47,9.385-6.392,21.138-9.218,32.403-7.791.055,4.794-.236,9.592-.873,14.344-.44,3.286-1.051,6.576-2.272,9.659-3.969,10.027-14.812,16.881-25.572,16.163"/>
        <path class="cls-5" d="M96.944,94.375c-.557,0-1.112-.019-1.67-.056-.827-.055-1.452-.77-1.397-1.596.055-.827.781-1.453,1.596-1.397,10.035.672,20.379-5.874,24.078-15.219,1.244-3.143,1.8-6.467,2.18-9.305.566-4.23.857-8.53.866-12.803-10.476-1.008-21.366,1.764-30.065,7.688-3.691,2.514-5.693,4.918-6.302,7.566-.186.808-.993,1.31-1.798,1.126-.808-.186-1.311-.991-1.126-1.798,1.036-4.505,4.797-7.507,7.537-9.374,9.657-6.578,21.843-9.507,33.436-8.04.743.094,1.303.722,1.311,1.471.056,4.852-.242,9.75-.886,14.562-.38,2.841-.993,6.547-2.364,10.011-4.02,10.157-14.519,17.163-25.395,17.164Z"/>
      </g>
      <path class="cls-5" d="M42.947,95.944c-.34,2.586-2.053,4.493-3.826,4.26-1.773-.233-2.935-2.519-2.595-5.105s2.053-4.493,3.826-4.26c1.773.233,2.935,2.519,2.595,5.105Z"/>
      <path class="cls-5" d="M76.316,100.528c-.34,2.586-2.053,4.493-3.826,4.26-1.773-.233-2.935-2.519-2.595-5.105.34-2.586,2.053-4.493,3.826-4.26,1.773.233,2.935,2.519,2.595,5.105Z"/>
      <g>
        <circle class="cls-4" cx="51.078" cy="124.469" r="12.752"/>
        <path class="cls-5" d="M51.107,138.724c-.626,0-1.257-.041-1.889-.124-3.774-.496-7.129-2.433-9.447-5.453-2.318-3.02-3.321-6.762-2.825-10.536.497-3.774,2.433-7.129,5.453-9.447,3.02-2.318,6.76-3.319,10.536-2.825,3.774.497,7.129,2.433,9.447,5.453,2.318,3.02,3.321,6.762,2.825,10.537h0c-.497,3.774-2.433,7.129-5.453,9.447-2.515,1.93-5.53,2.948-8.648,2.948ZM51.055,113.215c-2.462,0-4.842.804-6.828,2.328-2.384,1.83-3.914,4.479-4.305,7.459-.809,6.151,3.537,11.814,9.688,12.623,2.98.395,5.935-.399,8.318-2.229,2.384-1.83,3.913-4.479,4.305-7.459h0c.809-6.151-3.537-11.814-9.689-12.624-.498-.065-.996-.098-1.49-.098ZM63.721,126.132h.01-.01Z"/>
      </g>
    </g>
  </g>
</svg>