<?xml version="1.0" encoding="UTF-8"?>
<svg id="_레이어_2" data-name="레이어 2" xmlns="http://www.w3.org/2000/svg" viewBox="0 0 431.904 125.772">
  <defs>
    <style>
      .cls-1 {
        fill: #576ca5;
      }

      .cls-1, .cls-2 {
        stroke-width: 0px;
      }

      .cls-2 {
        fill: #556f41;
      }
    </style>
  </defs>
  <g id="_레이어_1-2" data-name="레이어 1">
    <g>
      <g>
        <path class="cls-2" d="M58.923,64.082c5.361,1.829,11.457-.648,15.522-4.198,1.763-1.539,3.262-3.373,4.404-5.418,1.153-2.065,2.178-4.923.618-7.042-1.422-1.931-4.208-2.284-6.43-2.39-2.673-.127-5.345.02-7.989.432-5.344.832-10.561,2.704-15.273,5.348-8.949,5.022-16.463,12.734-21.015,21.955-2.238,4.533-3.666,9.677-2.452,14.723,1.153,4.793,4.856,8.297,9.463,9.811,5.35,1.758,11.419,1.129,16.635-.787,6.249-2.296,11.49-6.601,15.988-11.411.851-.91-.741-1.143-1.342-1.118-1.186.049-2.764.449-3.611,1.355-3.232,3.457-6.824,6.705-11.102,8.81-.502.247-1.006.467-1.528.669-.171.066-1.101.388-.814.298-1.117.348-1.549.432-2.629.579-1.527.207-3.415.174-5.071-.121-3.788-.676-7.418-2.84-9.311-6.268-2.205-3.993-2.049-8.867-.668-13.1,2.619-8.032,8.435-15.368,15.005-20.557,6.358-5.021,13.837-8.447,21.917-8.182,2.007.066,4.705.298,5.423,2.569.699,2.211-.752,4.829-1.997,6.593-1.275,1.807-2.884,3.482-4.776,4.648-.358.221-.846.472-1.163.604-.196.082-.407.163-.611.227.356-.111-.474.064-.112.017-.832.108-1.746-.003-2.672-.319-1.167-.398-2.76.084-3.805.632-.573.3-1.785,1.236-.603,1.639h0Z"/>
        <path class="cls-2" d="M98.658,33.592c-4.527,8.323-9.053,16.647-13.58,24.97-4.265,7.843-8.89,15.606-12.348,23.852-1.897,4.524-3.387,9.241-4.08,14.107-.371,2.608,4.626,1.744,5.318.031,4.373-10.833,11.944-20.23,21.755-26.608.433-.282,1.014-.754,1.526-.847.219-.04-.107.088-.252.017.114.056.282.104.39.213.826.829-1.098,2.831-1.536,3.511-1.77,2.747-3.234,5.691-4.362,8.757-.992,2.695-2.056,5.672-2.214,8.563-.126,2.287.319,5.01,2.412,6.339,3.263,2.072,7.354-.35,10.075-2.263,2.907-2.043,5.309-4.666,7.196-7.667.719-1.143-.63-2.045-1.619-2.152-1.36-.148-2.807.464-3.539,1.626-1.521,2.419-3.536,4.489-5.899,6.094-.534.362-1.078.701-1.652.996-.197.101-.484.198-.672.326.115-.077.997.634.458.043-.188-.207-.313-.064-.614-.504-.279-.408-.413-.882-.521-1.364-.56-2.506.388-5.304,1.123-7.682.952-3.08,2.299-6.058,3.919-8.843,1.323-2.276,4.593-5.437,2.42-8.117-2.527-3.117-7.175-1.279-9.878.441-4.979,3.166-9.498,7.173-13.336,11.649-4.327,5.046-7.849,10.784-10.338,16.948,1.773.011,3.545.021,5.318.031,1.208-8.483,4.922-16.238,8.918-23.726,4.323-8.101,8.764-16.14,13.151-24.207,2.539-4.669,5.079-9.338,7.618-14.008.637-1.171-.568-2.038-1.619-2.152-1.288-.14-2.893.438-3.539,1.626h0Z"/>
        <path class="cls-2" d="M116.853,63.454c-6.946,8.51-12.249,18.309-15.607,28.767-.333,1.037,1.413,1.15,1.981,1.115,1.105-.069,2.569-.476,3.242-1.439,4.483-6.413,9.048-12.915,14.837-18.235,2.707-2.488,5.675-4.724,8.97-6.379.435-.219.88-.42,1.326-.615.224-.098.449-.194.675-.288-1.638-.637-2.296-.545-1.976.275-.059.958-.334,1.847-.592,2.783-.321,1.17-.643,2.339-.964,3.509-.279,1.016-.576,1.829.07,2.748,1.008,1.434,6.262-.355,5.041-2.092-.251-.357.548-2.262.663-2.681.281-1.024.563-2.047.844-3.07.377-1.372.891-3.225-.762-3.978-2.05-.934-4.599.392-6.438,1.285-1.62.787-3.195,1.653-4.704,2.64-5.862,3.834-10.704,8.957-15.014,14.436-2.451,3.115-4.738,6.355-7.008,9.603,1.741-.108,3.482-.216,5.222-.325,3.278-10.212,8.446-19.691,15.227-27.999.818-1.002-.698-1.505-1.449-1.52-1.261-.024-2.763.456-3.583,1.46h0Z"/>
        <path class="cls-2" d="M143.572,68.826c1.321-1.734,2.967-2.979,5.025-3.508-1.062-.479-2.124-.958-3.186-1.436-.815,3.76-3.201,6.887-5.282,10.037-2.345,3.551-4.141,7.347-4.955,11.55-.324,1.67-.919,4.07.184,5.587,1.374,1.889,4.203,1.652,6.154,1.004,3.974-1.32,7.608-4.034,10.258-7.242.761-.921.559-2.008-.64-2.387-1.192-.377-3.011.032-3.833,1.027-1.006,1.217-2.11,2.328-3.383,3.265-.633.466-1.292.904-1.983,1.279-.466.253-1.456.69-1.641.789-.883.472.152-.206.134.117.004-.076-.123-.357-.144-.457-.144-.706.045-1.542.148-2.244.258-1.767.676-3.53,1.302-5.204,2.34-6.261,7.706-10.982,9.146-17.624.361-1.667-2.295-1.665-3.186-1.436-3.358.863-6.479,2.749-8.593,5.524-2.04,2.678,3.102,3.158,4.472,1.36h0Z"/>
        <path class="cls-2" d="M153.616,47.493c-1.399.938-2.526,2.328-3.243,3.846-.344.729-.574,1.527-.721,2.318-.155.838-.12,1.662-.036,2.507.069.7.905,1.117,1.484,1.266.864.222,1.647.055,2.457-.279,3.038-1.255,5.495-4.504,5.406-7.861-.016-.602-.181-1.073-.681-1.45-.491-.369-1.263-.531-1.863-.474-.716.068-1.478.283-2.035.759-.424.362-.945.913-.929,1.515.015.578-.052,1.146-.195,1.706.049-.182.098-.364.147-.545-.168.62-.422,1.205-.757,1.753.105-.171.211-.342.317-.513-.274.435-.59.834-.952,1.199.155-.152.31-.304.466-.456-.321.314-.667.592-1.044.835.198-.124.396-.248.594-.373-.299.187-.61.347-.935.481,1.314.329,2.628.658,3.941.987-.007-.065-.013-.131-.018-.196.015.184.029.368.044.551-.054-.789.027-1.571.23-2.335-.049.182-.098.364-.147.545.186-.666.459-1.298.815-1.89-.105.171-.211.342-.317.513.312-.503.676-.965,1.096-1.382-.155.152-.31.304-.466.456.307-.297.637-.564.992-.802.975-.654,1.325-2.235.248-2.965-1.22-.826-2.757-.481-3.898.285h0Z"/>
        <path class="cls-2" d="M180.956,63.011c.315-2.964-2.618-4.581-5.238-4.606-3.361-.032-6.333,1.787-9.166,3.378-4.558,2.56-9.926,6.078-11.415,11.431-.703,2.527.02,5.079,2.278,6.519,2.15,1.371,4.889,1.419,7.35,1.552,1.862.1,4.373.47,5.054,2.526.886,2.675-1.497,4.564-3.692,5.41-2.5.963-5.344,1.12-7.781-.119-2.485-1.263-4.205-3.623-4.462-6.413-.108-1.174-2.407-.891-3.094-.706-.98.263-2.439.945-2.326,2.159.519,5.61,6.084,8.828,11.252,9.049,3.174.136,6.427-.601,9.316-1.897,2.672-1.199,5.468-3.092,6.245-6.096.634-2.452-.559-4.705-2.748-5.851-2.257-1.182-4.834-1.173-7.306-1.348-2.08-.147-4.34-.724-4.82-3.064-.499-2.435,1.191-4.931,2.8-6.587,2.033-2.092,4.545-3.597,7.076-5.006.66-.367,1.318-.743,1.991-1.087.413-.211,1.127-.703,1.631-.664.912.071,1.715,1.215,1.625,2.059-.24,2.26,5.226,1.29,5.431-.639h0Z"/>
        <path class="cls-2" d="M199.745,43.58c-4.969,7.554-9.54,15.392-13.067,23.732-1.735,4.103-3.196,8.313-4.365,12.611-.944,3.472-2.466,8.644,1.424,10.944,2.254,1.333,5.147,1.085,7.451.006,2.308-1.081,3.913-3.095,5.339-5.132,1.982-2.831-3.091-3.75-4.553-1.66-.839,1.198-1.744,2.72-3.057,3.443-.3.165-.568.243-.792.197-.498-.101-.878-.443-1.113-.913-.638-1.282-.248-2.988.048-4.304.41-1.825.911-3.632,1.465-5.418,2.251-7.25,5.412-14.19,9.083-20.825,2.081-3.761,4.326-7.43,6.688-11.02,1.899-2.887-3.149-3.795-4.553-1.66h0Z"/>
        <path class="cls-2" d="M298.488,50.523c-13.336-6.681-28.72-7.437-43.32-5.947-15.983,1.631-31.5,6.079-47.42,8.116-4.553.583-9.135.968-13.726,1.025-2.173.027-4.344-.025-6.512-.177-1.116-.078-2.353-.07-3.444-.324.023.005-.423-.161-.531-.186.092.021-.317-.231-.196-.16.128.075.039.701.133.067.42-2.816-5.124-2.162-5.502.373-.627,4.206,6.005,4.204,8.6,4.357,4.284.253,8.582.213,12.863-.079,8.636-.589,17.182-2.128,25.665-3.792,15.187-2.979,30.563-6.539,46.152-5.613,8.386.498,16.596,2.322,24.135,6.099,2.318,1.161,6.202-2.206,3.101-3.76h0Z"/>
        <path class="cls-2" d="M211.969,60.493c-6.556,9.314-11.905,19.435-15.857,30.12-.35.948,1.483.894,1.91.853.99-.094,2.661-.445,3.266-1.349,4.702-7.03,10.133-13.559,16.22-19.433,1.483-1.431,2.988-2.855,4.601-4.139.709-.565,1.439-1.118,2.226-1.572.346-.2.703-.398,1.069-.555.131-.057.269-.102.402-.156.984-.4-.587.282-.511.005-.06.216.251,1.014.275,1.238.056.514.064,1.032.01,1.546-.117,1.114-.449,2.206-.85,3.248-.786,2.043-1.865,3.98-2.883,5.914-2.455,4.665-5.053,9.252-7.65,13.838-.51.9,1.623.88,1.91.853,1-.095,2.648-.446,3.266-1.349,3.234-4.719,6.695-9.279,10.388-13.647,1.846-2.184,3.748-4.321,5.703-6.408,1.588-1.695,3.263-3.665,5.412-4.66.312-.145.78-.292,1.154.193.647.84.074,2.25-.233,3.097-.846,2.333-1.973,4.549-3.076,6.768-2.092,4.211-4.621,9.176-3.87,14.05.534,3.467,4.879,2.812,7.278,1.965,2.963-1.046,5.638-3.021,7.784-5.286.873-.921-.753-1.233-1.368-1.216-1.228.032-2.733.461-3.604,1.381-.888.937-1.864,1.784-2.955,2.48-.438.28-.977.463-1.385.771-.37.28-.15.016-.08.034.175-.056.353-.082.533-.076.153.013.12-.018-.097-.092-.062-.182-.381-.405-.478-.624-.111-.25-.166-.522-.207-.79-.09-.583-.09-1.191-.07-1.778.041-1.239.268-2.475.588-3.671,1.31-4.9,4.198-9.175,6.053-13.86.682-1.723,1.748-4.479-.414-5.613-2.454-1.287-6.151-.111-8.465.984-2.336,1.106-4.286,2.81-6.08,4.644-1.969,2.013-3.854,4.115-5.699,6.242-4.218,4.861-8.145,9.968-11.783,15.277,1.725-.165,3.451-.33,5.176-.495,2.597-4.586,5.195-9.174,7.65-13.838,1.179-2.24,2.47-4.495,3.236-6.918.522-1.652,1.321-5.096-.31-6.398-.897-.716-2.391-.52-3.424-.337-1.473.261-2.902.776-4.254,1.406-2.193,1.022-4.147,2.456-5.965,4.041-3.601,3.142-6.989,6.545-10.165,10.113-3.641,4.091-6.985,8.436-10.029,12.987,1.725-.165,3.451-.33,5.176-.496,3.862-10.441,9.04-20.354,15.448-29.458.693-.984-.606-1.236-1.368-1.216-1.072.028-2.923.413-3.604,1.381h0Z"/>
        <path class="cls-2" d="M277.659,65.086c-1.125-2.694-3.767-4.118-6.604-4.353-3.336-.277-6.506,1.076-9.232,2.886-5.337,3.543-10.175,8.217-12.606,14.242-1.09,2.701-2.048,5.842-1.813,8.787.265,3.314,3.526,4.704,6.512,4.444,3.443-.3,6.265-2.597,8.884-4.644,2.564-2.004,5.03-4.142,7.382-6.391,2.588-2.475,5.045-5.098,7.315-7.868,2.306-2.813,4.335-5.844,5.095-9.456.246-1.168-1.267-1.619-2.115-1.616-1.221.003-2.551.521-3.195,1.613-2.002,3.397-3.578,6.991-4.776,10.746-1.108,3.473-2.032,7.239-2.127,10.899-.047,1.82.189,3.579,1.157,5.154,1.2,1.952,3.714,2.006,5.611,1.079,1.821-.889,3.242-2.783,4.557-4.277,1.337-1.518,2.598-3.098,3.796-4.727,2.007-2.727-3.115-3.28-4.487-1.415-1.07,1.454-2.189,2.871-3.369,4.237-.566.656-1.145,1.3-1.737,1.933-.296.317-.595.63-.896.941-.151.156-.302.31-.455.464-.155.154-.043.103.337-.156.477-.044.954-.087,1.431-.131.454.046.435.316.292-.105-.065-.194-.219-.381-.301-.576-.193-.462-.307-.967-.385-1.461-.156-.991-.072-2.008.036-3,.247-2.27.685-4.527,1.259-6.736,1.132-4.357,2.92-8.507,5.204-12.382-1.77-.001-3.54-.002-5.31-.003-1.013,4.816-4.935,8.737-8.203,12.19-3.569,3.771-7.456,7.219-11.634,10.302-.727.537-1.518,1.216-2.355,1.546-.48.19-.896.232-1.447-.233-.787-.663-.659-1.922-.562-2.829.13-1.212.37-2.415.689-3.59,1.274-4.685,4.119-8.69,7.832-11.766,1.876-1.555,4.026-3.537,6.42-4.227,1.551-.447,3.64.159,4.38,1.93.507,1.213,2.052,1.301,3.173,1,.84-.225,2.75-1.249,2.247-2.453h0Z"/>
        <path class="cls-2" d="M311.906,64.937c1.674-1.851,3.827-5.174,1.206-7.242-2.143-1.691-5.639-1.21-8.044-.492-5.82,1.739-11.757,5.35-15.346,10.349-1.478,2.059-2.851,5.022-1.554,7.497,1.097,2.093,3.374,2.815,5.536,3.279,1.748.376,3.92.418,5.38,1.576,2.064,1.638,1.539,4.862-.463,6.341-.97.716-2.18,1.001-3.343,1.236-1.48.299-3.086.52-4.573.125-2.35-.624-4.999-3.665-3.544-6.203,1.145-1.996-4.208-1.296-4.996.077-1.312,2.287-.788,4.848,1.027,6.723,2.162,2.234,5.634,2.514,8.554,2.275,3.291-.27,6.83-1.021,9.726-2.671,2.485-1.416,4.726-3.931,4.349-6.995-.617-5.017-7.104-4.205-10.492-5.721-2.35-1.052-2.578-3.596-1.675-5.755,1.1-2.631,3.508-4.796,5.742-6.474,1.243-.933,2.584-1.751,3.992-2.411.698-.327,1.428-.629,2.161-.869.606-.198.387-.193,1.037-.242.656-.049,1.694.274,2.106,1.148.787,1.667-.748,3.379-1.783,4.524-.859.95.737,1.341,1.4,1.335,1.247-.01,2.736-.462,3.596-1.412h0Z"/>
        <path class="cls-2" d="M352.001,61.95c1.675-1.851,3.827-5.174,1.207-7.242-2.143-1.691-5.639-1.21-8.044-.492-5.82,1.738-11.757,5.35-15.346,10.349-1.478,2.059-2.851,5.022-1.554,7.497,1.097,2.093,3.374,2.815,5.536,3.28,1.748.376,3.92.418,5.38,1.576,2.064,1.638,1.539,4.862-.462,6.341-.97.716-2.18,1.001-3.343,1.236-1.48.299-3.086.52-4.573.125-2.35-.624-5-3.665-3.544-6.203,1.145-1.996-4.208-1.296-4.996.077-1.312,2.287-.788,4.848,1.027,6.723,2.162,2.233,5.634,2.514,8.554,2.275,3.291-.269,6.83-1.021,9.726-2.671,2.485-1.416,4.726-3.931,4.349-6.995-.617-5.017-7.104-4.205-10.492-5.721-2.35-1.052-2.578-3.596-1.675-5.755,1.1-2.631,3.507-4.796,5.742-6.474,1.243-.933,2.584-1.751,3.992-2.411.698-.327,1.428-.629,2.161-.869.606-.198.387-.193,1.037-.242.656-.049,1.694.274,2.106,1.148.787,1.668-.748,3.38-1.783,4.524-.86.95.737,1.34,1.4,1.335,1.248-.01,2.736-.462,3.596-1.412h0Z"/>
        <path class="cls-2" d="M379.922,60.826c-1.046-2.505-3.603-3.668-6.19-3.848-3.393-.236-6.709,1.047-9.515,2.871-5.371,3.492-10.189,8.049-12.713,14.033-1.092,2.588-2.01,5.666-1.838,8.506.2,3.288,3.57,4.238,6.365,3.897,3.53-.431,6.345-2.55,9.071-4.66,2.517-1.949,4.931-4.031,7.233-6.229,2.618-2.5,5.113-5.128,7.426-7.914,2.238-2.695,4.318-5.677,5.051-9.16.402-1.911-4.615-.546-5.193.434-2.621,4.446-4.624,9.203-5.818,14.23-.561,2.36-1.018,4.795-1.119,7.223-.082,1.963.152,5.092,2.285,5.987,1.41.592,3.305.118,4.602-.541,1.256-.638,2.143-1.664,3.145-2.629,1.835-1.769,3.757-3.448,5.689-5.11,4.001-3.44,8.055-6.813,11.779-10.559,3.373-3.392,6.789-6.771,9.779-10.514,1.451-1.817,2.793-3.72,3.956-5.735.95-1.646,2.086-3.471,2.424-5.368.247-1.385.218-2.964-.508-4.206-.94-1.607-2.83-1.861-4.546-1.626-2.681.367-4.822,1.718-6.412,3.874-1.572,2.13-3.011,4.366-4.342,6.654-2.496,4.291-4.514,8.767-6.273,13.404-1.588,4.186-3.196,8.452-3.847,12.904-.466,3.191-.929,8.392,3.012,9.553,3.819,1.125,8.59-.957,11.183-3.764,1.359-1.472,2.15-3.376,2.998-5.163.716-1.509,1.547-3.146,3.001-4.046.461-.285.397-.251.824-.382.513-.158-.638.148.248-.064.065-.016.535-.121.11-.035.984-.198,1.436-.206,2.377-.234,1.828-.056,3.659.032,5.485-.087,4.219-.276,8.832-1.601,11.317-5.302,1.068-1.591,1.385-3.568.077-5.13-.939-1.122-2.602-1.392-3.981-1.385-3.471.018-7.103,1.495-9.893,3.511-3.298,2.383-5.549,6.597-6.816,10.372-1.339,3.993-2.32,9.402,1.912,11.974,4.173,2.536,9.741,1.303,13.658-1.131,2.065-1.283,3.826-2.915,5.535-4.631.916-.92-.783-1.331-1.397-1.325-1.295.012-2.676.485-3.597,1.409-1.305,1.31-2.689,2.641-4.3,3.571-.354.204-.695.391-1.079.532-.1.037-.81.236-.428.154-.502.107-1.211.082-1.853-.065-1.407-.321-2.777-1.183-3.497-2.46-1.035-1.837-.73-4.096-.313-6.062.818-3.86,2.536-7.562,5.161-10.527.166-.188.339-.37.51-.554.061-.066.518-.469.11-.117.146-.126.296-.246.448-.365.118-.093.564-.394.206-.161.269-.175.548-.336.829-.49.233-.128.469-.252.708-.367-.453.217.312-.126.465-.186.148-.059.298-.112.447-.169-.032.012-.461.141-.145.047.176-.053,1.162-.298.509-.156.142-.031.3-.055.443-.068-.092.009-.52.029-.031.004.027-.001.376-.002.116-.011-.275-.01.136.011.201.027.32.077-.233-.081.073.007.085.025.184.053.262.094.175.092.28.138.486.343,1.099,1.092.719,2.731-.132,3.835-.4.518-.885,1.027-1.408,1.373-.032.021-.711.378-.381.225-.167.078-.347.146-.521.207.38-.133-.069.012-.229.052-.462.114.374-.062-.096.028-.14.027-.28.049-.421.07-.138.021-.935.109-.753.095-.782.062-1.572.065-2.356.069-3.478.014-6.938.021-10.238,1.287-1.728.663-3.33,1.672-4.593,3.03-1.138,1.224-1.882,2.775-2.586,4.274-.684,1.457-1.332,2.993-2.463,4.172-.468.487-.778.684-1.252.963-.056.033-.447.234-.077.059-.116.055-.238.095-.353.149-.405.189.404-.151-.004.011-.165.065-.651.073-.099.034-.361.026-.11-.064-.019.005.005.004-.32-.115-.152-.002.191.129-.247-.08-.107-.029.161.058-.241-.096-.266-.109-.463-.235-.822-.625-1.067-1.081-.752-1.399-.714-3.34-.61-4.877.262-3.844,1.472-7.607,2.757-11.214,1.324-3.715,2.724-7.419,4.428-10.978,1.87-3.907,4.075-7.642,6.587-11.17.27-.379.54-.759.825-1.127.066-.085.786-.768.778-.875.008.113-1.151.225-1.129.177-.053.114-.292-.46.096.04-.061-.079.154.11.138.097.82.703.998,2.011.956,3.034-.055,1.355-.651,2.582-1.236,3.778-.903,1.848-1.997,3.591-3.197,5.26-2.352,3.274-5.099,6.242-7.91,9.123-2.937,3.01-5.916,5.952-9.087,8.717-3.256,2.839-6.602,5.575-9.779,8.503-.8.738-1.589,1.488-2.367,2.249-.301.294-.834.675-1.072,1.023l1.454-.32c1.406.129,1.821-.053,1.246-.544-.092-.215-.268-.413-.372-.629-.892-1.844-.68-4.002-.412-5.962.584-4.275,1.734-8.472,3.402-12.451.836-1.994,1.8-3.935,2.898-5.798-1.731.145-3.462.289-5.193.434-1.043,4.957-4.855,8.907-8.212,12.486-3.579,3.816-7.506,7.298-11.701,10.425-.608.453-1.715,1.571-2.518,1.648-.062.006.169-.048.071-.053-.44-.026-.902-.325-1.204-.624-1.588-1.571-.531-4.945-.028-6.797,1.315-4.838,4.097-8.937,7.911-12.158,1.835-1.55,3.915-3.463,6.228-4.251,1.623-.553,3.841.844,4.532,2.497.695,1.664,6.02-.017,5.42-1.452h0Z"/>
      </g>
      <g>
        <path class="cls-1" d="M347.254,97.249v27.442c0,1.44,2.237,1.442,2.237,0v-27.442c0-1.44-2.237-1.442-2.237,0h0Z"/>
        <path class="cls-1" d="M338.79,111.634h19.167c1.44,0,1.442-2.237,0-2.237h-19.167c-1.44,0-1.442,2.237,0,2.237h0Z"/>
        <path class="cls-1" d="M340.806,104.53c4.518,4.518,9.035,9.035,13.553,13.553,1.019,1.02,2.602-.562,1.582-1.582-4.518-4.518-9.035-9.035-13.553-13.553-1.019-1.02-2.602.562-1.582,1.582h0Z"/>
        <path class="cls-1" d="M342.388,118.083c4.518-4.518,9.035-9.035,13.553-13.553,1.019-1.02-.562-2.602-1.582-1.582-4.518,4.518-9.035,9.035-13.553,13.553-1.019,1.019.562,2.602,1.582,1.582h0Z"/>
      </g>
      <g>
        <path class="cls-1" d="M357.411,1.081v27.442c0,1.44,2.237,1.442,2.237,0V1.081c0-1.44-2.237-1.442-2.237,0h0Z"/>
        <path class="cls-1" d="M348.946,15.466h19.167c1.44,0,1.442-2.237,0-2.237h-19.167c-1.44,0-1.442,2.237,0,2.237h0Z"/>
        <path class="cls-1" d="M350.962,8.362c4.518,4.518,9.035,9.035,13.553,13.553,1.019,1.019,2.602-.562,1.582-1.582-4.518-4.518-9.035-9.035-13.553-13.553-1.019-1.019-2.602.562-1.582,1.582h0Z"/>
        <path class="cls-1" d="M352.544,21.915c4.518-4.518,9.035-9.035,13.553-13.553,1.019-1.019-.562-2.602-1.582-1.582-4.518,4.518-9.035,9.035-13.553,13.553-1.019,1.019.562,2.602,1.582,1.582h0Z"/>
      </g>
      <g>
        <path class="cls-1" d="M9.545,42.796v27.442c0,1.44,2.237,1.442,2.237,0v-27.442c0-1.44-2.237-1.442-2.237,0h0Z"/>
        <path class="cls-1" d="M1.081,57.181h19.167c1.44,0,1.442-2.237,0-2.237H1.081c-1.44,0-1.442,2.237,0,2.237h0Z"/>
        <path class="cls-1" d="M3.096,50.077c4.518,4.518,9.035,9.035,13.553,13.553,1.019,1.019,2.602-.562,1.582-1.582-4.518-4.518-9.035-9.035-13.553-13.553-1.019-1.02-2.602.562-1.582,1.582h0Z"/>
        <path class="cls-1" d="M4.679,63.63c4.518-4.518,9.035-9.035,13.553-13.553,1.019-1.019-.562-2.602-1.582-1.582-4.518,4.518-9.035,9.035-13.553,13.553-1.019,1.02.562,2.602,1.582,1.582h0Z"/>
      </g>
    </g>
  </g>
</svg>