<?xml version="1.0" encoding="UTF-8"?>
<svg id="_레이어_2" data-name="레이어 2" xmlns="http://www.w3.org/2000/svg" viewBox="0 0 134.061 125.292">
  <defs>
    <style>
      .cls-1 {
        fill: #fff;
      }

      .cls-1, .cls-2, .cls-3 {
        stroke-width: 0px;
      }

      .cls-2 {
        fill: #e83c39;
      }

      .cls-3 {
        fill: #262726;
      }
    </style>
  </defs>
  <g id="_레이어_1-2" data-name="레이어 1">
    <g>
      <g>
        <path class="cls-2" d="M127.712,25.369c-7.065,30.279-5.982,62.448-16.973,91.533-.808,2.139-1.836,4.429-3.88,5.454-1.249.627-2.698.677-4.096.716-18.258.502-36.517,1.003-54.781,1.187-7.439.075-14.897.095-22.291-.717-6.081-.668-9.094-1.95-14.348-5.084-5.253-3.134-9.523-8.38-10.24-14.455-.834-7.066,3.306-14.044,9.06-18.231,5.753-4.187,9.751-6.003,16.788-7.05,7.682-1.143,15.483-1.477,23.235-.994,3.82-23.015,7.958-45.976,12.415-68.876,19.246,4.879,37.764,8.29,57.619,8.219,2.177-.008,4.484-.012,6.348,1.113,1.864,1.125,1.639,5.066,1.144,7.186Z"/>
        <path class="cls-3" d="M42.399,125.292c-5.791,0-11.263-.146-16.817-.757-6.335-.697-9.537-2.109-14.751-5.219-6.014-3.587-10.021-9.269-10.721-15.197-.81-6.864,2.905-14.384,9.465-19.156,6.101-4.441,10.288-6.198,17.228-7.231,7.444-1.107,15.023-1.461,22.544-1.055,3.763-22.626,7.891-45.504,12.271-68.017.053-.27.214-.506.446-.654.232-.146.516-.192.781-.124,22.883,5.801,40.035,8.279,57.369,8.188,2.237-.005,4.758-.017,6.868,1.257,2.444,1.475,2.157,5.892,1.602,8.27-2.83,12.128-4.375,24.787-5.868,37.03-2.228,18.255-4.531,37.132-11.143,54.629-.922,2.439-2.089,4.852-4.367,5.995-1.472.738-3.089.782-4.517.821-17.942.493-36.496,1.003-54.799,1.188-1.904.019-3.765.034-5.593.034ZM43.297,78.513c-5.421,0-10.845.4-16.198,1.197-6.655.99-10.475,2.595-16.347,6.87-5.985,4.354-9.382,11.147-8.655,17.305.627,5.316,4.275,10.442,9.76,13.714,5.18,3.09,8.065,4.303,13.944,4.949,7.198.791,14.3.789,22.172.711,18.285-.184,36.83-.693,54.764-1.186,1.219-.033,2.601-.071,3.675-.61,1.748-.876,2.668-2.996,3.393-4.914,6.526-17.272,8.815-36.027,11.028-54.165,1.5-12.295,3.052-25.009,5.906-37.242h0c.562-2.408.42-5.435-.687-6.103-1.631-.984-3.771-.974-5.827-.969-17.248.044-34.299-2.332-56.843-7.991-4.359,22.455-8.466,45.262-12.208,67.812-.084.507-.538.872-1.049.834-2.271-.142-4.549-.212-6.827-.212Z"/>
      </g>
      <g>
        <path class="cls-1" d="M54.765,29.195c.255,2.051.776,4.332,2.526,5.431.699.439,1.519.633,2.324.817,20.548,4.694,41.588,7.234,62.663,7.564,1.339.021,2.723.025,3.955-.5,2.542-1.083,3.673-4.015,4.386-6.685,1.765-6.612,2.584-13.476,2.422-20.318-.018-.746-.056-1.527-.433-2.172-.544-.933-1.649-1.356-2.673-1.702-9.779-3.31-19.835-5.801-30.029-7.437-3.688-.592-7.393-1.073-11.097-1.553-9.036-1.172-18.199-2.344-27.228-1.122-1.111.15-2.259.353-3.18.993-2.842,1.974-3.231,9.289-3.619,12.372-.598,4.745-.608,9.564-.017,14.311Z"/>
        <path class="cls-3" d="M123.001,44.015c-.255,0-.502-.004-.738-.007-21.12-.332-42.273-2.885-62.87-7.589-.791-.181-1.775-.406-2.633-.945-2.135-1.341-2.718-3.994-2.987-6.155h0c-.6-4.811-.593-9.71.018-14.559.05-.396.1-.863.155-1.379.413-3.867,1.038-9.711,3.886-11.689,1.111-.772,2.45-1.004,3.617-1.163,9.215-1.247,18.506-.044,27.49,1.121,3.658.475,7.428.963,11.126,1.558,10.224,1.641,20.381,4.156,30.191,7.477.915.309,2.447.828,3.216,2.146.487.834.548,1.767.569,2.652.164,6.951-.662,13.881-2.456,20.599-.734,2.75-1.961,6.07-4.96,7.347-1.198.511-2.489.588-3.624.588ZM55.757,29.071c.215,1.723.644,3.815,2.066,4.709.57.358,1.305.526,2.015.689,20.462,4.673,41.475,7.21,62.456,7.539,1.394.022,2.549.005,3.547-.42,2.204-.939,3.195-3.712,3.812-6.023,1.744-6.535,2.548-13.276,2.388-20.037-.016-.674-.049-1.267-.297-1.691-.361-.619-1.25-.961-2.129-1.259-9.705-3.285-19.754-5.774-29.867-7.397-3.669-.589-7.424-1.076-11.055-1.547-8.865-1.149-18.018-2.336-26.977-1.124-.979.133-1.998.306-2.744.824-2.097,1.456-2.709,7.183-3.038,10.259-.057.53-.108,1.01-.159,1.417-.59,4.684-.596,9.416-.018,14.062h0Z"/>
      </g>
    </g>
  </g>
</svg>