<?xml version="1.0" encoding="UTF-8"?>
<svg id="_레이어_2" data-name="레이어 2" xmlns="http://www.w3.org/2000/svg" viewBox="0 0 138.46 138.46">
  <defs>
    <style>
      .cls-1 {
        fill: #f2c8cf;
        stroke-width: 0px;
      }
    </style>
  </defs>
  <g id="_레이어_1-2" data-name="레이어 1">
    <g>
      <g>
        <g>
          <path class="cls-1" d="M79.802,55.979l-.811-.577c-2.096-1.489-4.542-2.486-7.076-2.883-1.832-.308-3.943-.284-5.755.066-2.418.434-4.662,1.382-6.68,2.817l-.811.577-.654-.749c-5.76-6.592-8.532-15.476-7.609-24.385l.055-.455c.092-.873.223-1.715.391-2.51.083-.441.184-.893.296-1.358.677-2.82,1.714-5.503,3.082-7.973,1.257-2.27,2.78-4.356,4.525-6.199l10.461-11.139,10.489,11.141c1.761,1.874,3.283,3.959,4.522,6.197,1.37,2.471,2.408,5.155,3.084,7.976.052.219.087.375.113.542.265,1.091.475,2.331.622,3.705l.006.118c.922,8.833-1.844,17.742-7.596,24.339l-.655.75ZM69.23,50.105c1.055,0,2.077.082,3.038.244,2.524.395,4.979,1.322,7.154,2.696,4.928-6.056,7.27-14.028,6.438-22.029l-.005-.114c-.131-1.174-.324-2.323-.584-3.407-.034-.197-.06-.302-.086-.413-.64-2.671-1.605-5.168-2.879-7.466-1.151-2.08-2.564-4.016-4.201-5.756l-8.885-9.438-8.864,9.437c-1.62,1.712-3.034,3.647-4.201,5.756-1.273,2.296-2.238,4.793-2.868,7.424-.105.43-.198.845-.278,1.271-.179.852-.31,1.742-.395,2.669l-.05.41c-.731,7.867,1.617,15.686,6.485,21.656,2.062-1.31,4.315-2.19,6.71-2.621,1.091-.21,2.264-.318,3.472-.318Z"/>
          <path class="cls-1" d="M69.23,137.249l-10.476-11.142c-3.807-4.047-6.471-9.108-7.706-14.634-2.284-10.091.321-20.65,6.969-28.243l.656-.75.81.579c2.093,1.495,4.462,2.464,7.042,2.882,1.846.307,3.931.287,5.762-.067,2.451-.44,4.697-1.386,6.688-2.814l.811-.582.657.75c6.421,7.326,9.095,17.544,7.156,27.335-1.133,5.884-3.863,11.259-7.893,15.543l-10.476,11.142ZM59.047,85.417c-5.724,7.003-7.911,16.486-5.854,25.573,1.149,5.145,3.626,9.85,7.163,13.61l8.874,9.438,8.874-9.438c3.746-3.981,6.282-8.98,7.335-14.455l.002-.006c1.743-8.801-.507-17.967-6.028-24.722-2.044,1.304-4.301,2.184-6.724,2.619-2.062.398-4.425.423-6.52.075-2.573-.416-4.967-1.321-7.123-2.694Z"/>
        </g>
        <g>
          <path class="cls-1" d="M34.217,88.214c-2.1,0-4.215-.202-6.31-.615-5.891-1.133-11.271-3.863-15.555-7.892l-11.141-10.476,11.142-10.476c4.049-3.808,9.111-6.473,14.634-7.706,10.093-2.282,20.65.321,28.243,6.969l.748.656-.579.811c-1.495,2.092-2.464,4.462-2.882,7.043-.143.861-.215,1.769-.215,2.704,0,1.07.095,2.102.281,3.069l.003.014c.433,2.406,1.38,4.649,2.815,6.666l.576.81-.747.655c-5.75,5.04-13.293,7.771-21.014,7.771ZM4.422,69.23l9.437,8.874c3.98,3.743,8.983,6.28,14.469,7.336,8.808,1.737,17.972-.515,24.717-6.028-1.308-2.059-2.188-4.309-2.62-6.703-.213-1.102-.32-2.272-.32-3.479,0-1.055.082-2.084.244-3.059.417-2.575,1.322-4.968,2.695-7.124-7.004-5.722-16.484-7.909-25.574-5.853-5.142,1.148-9.847,3.625-13.611,7.163l-9.437,8.874Z"/>
          <path class="cls-1" d="M104.214,88.21c-7.739,0-15.237-2.744-20.973-7.767l-.746-.654.574-.81c1.469-2.071,2.461-4.507,2.871-7.046.143-.855.215-1.763.215-2.704,0-1.073-.094-2.106-.28-3.069-.436-2.419-1.383-4.662-2.818-6.68l-.576-.81.748-.655c6.583-5.763,15.486-8.534,24.417-7.604,1.075.111,2.03.254,2.918.439.448.084.914.186,1.368.299,2.776.65,5.466,1.688,7.979,3.081,2.241,1.241,4.325,2.762,6.196,4.523l11.141,10.476-11.142,10.476c-1.866,1.769-3.964,3.293-6.227,4.526-2.434,1.369-5.12,2.412-7.969,3.092-.17.042-.338.083-.509.111-1.284.287-2.517.484-3.71.589-1.161.124-2.322.185-3.477.185ZM85.425,79.411c6.052,4.945,14.038,7.28,22.053,6.426,1.117-.099,2.256-.281,3.505-.558.172-.03.285-.06.398-.088,2.669-.638,5.164-1.606,7.433-2.882,2.11-1.149,4.052-2.56,5.784-4.201l9.44-8.877-9.437-8.874c-1.737-1.635-3.674-3.048-5.756-4.2-2.336-1.296-4.836-2.26-7.43-2.868-.428-.107-.854-.199-1.278-.28-.833-.173-1.716-.305-2.717-.408-8.006-.831-15.963,1.513-22.005,6.448,1.31,2.061,2.19,4.314,2.621,6.71.21,1.086.318,2.259.318,3.472,0,1.062-.082,2.091-.244,3.06-.408,2.527-1.332,4.97-2.686,7.12Z"/>
        </g>
        <g>
          <path class="cls-1" d="M86.047,67.126l-.176-.978c-.433-2.405-1.38-4.648-2.815-6.666-1.111-1.577-2.478-2.948-4.067-4.079-2.095-1.489-4.541-2.485-7.075-2.882l-.985-.154.057-.994c.493-8.716,4.724-17.003,11.612-22.744l.281-.294.088-.002c.917-.746,1.85-1.424,2.778-2.018l.399-.254c2.425-1.533,5.043-2.726,7.782-3.548,2.52-.75,5.069-1.178,7.575-1.274l15.272-.652-.287,15.302c-.062,2.571-.432,5.124-1.097,7.592-.78,2.787-1.917,5.432-3.386,7.871-.235.398-.489.803-.754,1.194-.522.81-1.096,1.607-1.691,2.35l-.063.076c-5.573,7.006-13.754,11.407-22.458,12.08l-.991.077ZM73.255,50.532c2.51.535,4.915,1.589,7.01,3.079,1.792,1.275,3.335,2.823,4.587,4.6,1.423,2.002,2.423,4.204,2.978,6.555,7.763-.867,15.007-4.924,19.997-11.231l.07-.083c.529-.665,1.041-1.379,1.521-2.121.252-.375.482-.741.7-1.109,1.37-2.276,2.43-4.738,3.153-7.326.619-2.289.962-4.667,1.019-7.056l.244-12.959-12.941.552c-2.328.09-4.693.488-7.035,1.184-2.546.764-4.981,1.873-7.233,3.297l-.393.25c-.95.608-1.91,1.315-2.852,2.099l-.312.255c-6.026,5.129-9.817,12.358-10.512,20.012Z"/>
          <path class="cls-1" d="M21.671,117.862l.3-15.29c.121-5.895,1.93-11.655,5.231-16.658,5.486-8.346,14.542-13.769,24.222-14.503l.989-.075.176.977c.433,2.406,1.38,4.649,2.815,6.666,1.116,1.595,2.485,2.963,4.071,4.074,2.102,1.501,4.47,2.471,7.051,2.888l.976.158-.053.987c-.544,10.067-6.051,19.438-14.73,25.069-4.743,3.086-10.193,4.839-15.759,5.068l-15.288.639ZM50.63,73.693c-8.641.957-16.658,5.925-21.591,13.431-3.073,4.657-4.757,10.013-4.869,15.492l-.255,12.951,12.953-.541c5.172-.214,10.238-1.844,14.653-4.715,7.815-5.071,12.87-13.383,13.663-22.385-2.536-.544-4.88-1.577-6.979-3.078-1.789-1.252-3.34-2.802-4.599-4.601-1.421-2-2.42-4.201-2.976-6.554Z"/>
        </g>
        <g>
          <path class="cls-1" d="M52.361,67.502l-.987-.054c-10.067-.545-19.439-6.052-25.069-14.729-3.085-4.744-4.838-10.194-5.067-15.76l-.64-15.288,15.291.3c5.879.121,11.635,1.925,16.644,5.217,8.342,5.476,13.769,14.535,14.517,24.234l.076.991-.978.176c-2.404.432-4.648,1.379-6.666,2.814-1.593,1.115-2.961,2.483-4.073,4.072-1.501,2.1-2.471,4.47-2.889,7.051l-.158.976ZM22.893,23.916l.541,12.953c.214,5.172,1.844,10.239,4.714,14.653,5.071,7.814,13.383,12.87,22.385,13.663.544-2.536,1.577-4.881,3.078-6.98,1.254-1.791,2.805-3.341,4.601-4.599,2-1.422,4.201-2.421,6.552-2.976-.969-8.66-5.941-16.681-13.44-21.604-4.664-3.064-10.017-4.743-15.481-4.856l-12.951-.255Z"/>
          <path class="cls-1" d="M117.862,116.79l-15.292-.312c-2.562-.038-5.127-.412-7.614-1.114-2.718-.731-5.366-1.862-7.858-3.356-.392-.233-.789-.481-1.175-.73-.755-.496-1.515-1.051-2.331-1.704-7.061-5.58-11.507-13.794-12.194-22.534l-.077-.992.979-.176c2.437-.438,4.683-1.384,6.674-2.811,1.593-1.115,2.966-2.484,4.092-4.078,1.47-2.073,2.462-4.509,2.873-7.048l.158-.977.989.055c8.716.483,17.017,4.719,22.773,11.624.881,1.054,1.623,2.064,2.264,3.087.082.108.152.221.223.337,1.581,2.49,2.774,5.108,3.602,7.869.735,2.47,1.163,5.016,1.274,7.57l.64,15.292ZM73.684,87.831c.877,7.769,4.95,15.022,11.276,20.021.768.613,1.473,1.13,2.163,1.582.354.229.728.463,1.103.685,2.322,1.392,4.781,2.443,7.315,3.124,2.316.654,4.689,1.001,7.068,1.035l12.957.265-.541-12.952c-.103-2.372-.501-4.739-1.183-7.034-.77-2.565-1.879-4.999-3.297-7.231l-.077-.124c-.033-.056-.064-.113-.106-.164l-.073-.104c-.595-.951-1.288-1.897-2.118-2.89-5.154-6.184-12.489-10.072-20.247-10.767-.543,2.509-1.591,4.903-3.062,6.976-1.271,1.8-2.825,3.349-4.615,4.602-1.977,1.417-4.183,2.418-6.562,2.976Z"/>
        </g>
      </g>
      <path class="cls-1" d="M69.23,138.46C31.057,138.46,0,107.404,0,69.23S31.057,0,69.23,0s69.23,31.056,69.23,69.23-31.057,69.23-69.23,69.23ZM69.23,2.199C32.269,2.199,2.199,32.269,2.199,69.23s30.07,67.031,67.031,67.031,67.031-30.07,67.031-67.031S106.191,2.199,69.23,2.199Z"/>
    </g>
  </g>
</svg>