<?xml version="1.0" encoding="UTF-8"?>
<svg id="_레이어_2" data-name="레이어 2" xmlns="http://www.w3.org/2000/svg" viewBox="0 0 191.023 280.66">
  <defs>
    <style>
      .cls-1 {
        fill: #f6e9a6;
      }

      .cls-1, .cls-2, .cls-3, .cls-4, .cls-5, .cls-6, .cls-7, .cls-8, .cls-9, .cls-10, .cls-11, .cls-12 {
        stroke-width: 0px;
      }

      .cls-2 {
        fill: #d6c2a9;
      }

      .cls-3 {
        fill: #c47f70;
      }

      .cls-4 {
        fill: #653b1b;
      }

      .cls-5 {
        fill: #f0b098;
      }

      .cls-6 {
        fill: #e6b29e;
      }

      .cls-7 {
        fill: #e99785;
      }

      .cls-8 {
        fill: #ab8f83;
      }

      .cls-9 {
        fill: #f5cab7;
      }

      .cls-10 {
        fill: #ead4b7;
      }

      .cls-11 {
        fill: #cca68f;
      }

      .cls-12 {
        fill: #fbe3c4;
      }
    </style>
  </defs>
  <g id="_레이어_1-2" data-name="레이어 1">
    <g>
      <g>
        <g>
          <path class="cls-8" d="M115.494,261.003c-9.153,0-9.845,7.38-9.845,10.979v1.876c0,3.602,7.441,5.757,16.571,6.519,12.382,1.034,14.281-.886,15.812-3.981v-1.873c1.542-3.115-13.387-13.521-22.538-13.521Z"/>
          <path class="cls-11" d="M138.032,274.524c-1.531,3.094-3.43,5.013-15.812,3.979-9.13-.762-16.571-2.917-16.571-6.521s.692-10.979,9.845-10.979,24.08,10.406,22.538,13.521Z"/>
          <path class="cls-9" d="M137.193,273.239c-1.458,2.882-3.267,4.671-15.056,3.71-8.695-.712-15.785-2.72-15.785-6.076s.661-10.229,9.378-10.229,22.933,9.693,21.463,12.595Z"/>
          <path class="cls-8" d="M130.262,265.843c-.7-.436-1.429-.86-2.179-1.271-1.809.274-4.087,1.212-5.638,3.993-1.983,3.557-2.219,6.958-2.231,8.2.372.039.747.076,1.126.111.001-.956.158-4.202,2.045-7.584,2.039-3.657,5.603-3.602,6.877-3.448Z"/>
          <path class="cls-8" d="M108.954,274.025c.26-1.364,1.214-6.602,1.22-9.74-.002-.659-.04-1.228-.154-1.691-.035-.144-.092-.249-.134-.376-.237.164-.451.34-.657.522.013.041.023.073.034.114.08.315.125.822.123,1.431.002,1.702-.312,4.185-.63,6.227-.157,1.02-.317,1.932-.435,2.591-.037.192-.064.354-.092.498.222.146.467.288.725.424Z"/>
          <path class="cls-8" d="M116.166,260.659c-1.774.829-3.826,2.462-5.768,5.632-1.714,2.806-2.147,5.608-2.238,7.26.328.22.701.43,1.105.63.022-1.31.285-4.239,2.046-7.114,3.212-5.246,6.676-5.919,8.34-5.896-1.216-.293-2.389-.475-3.485-.512Z"/>
        </g>
        <g>
          <path class="cls-8" d="M77.987,261.003c9.152,0,9.848,7.38,9.848,10.979v1.876c0,3.602-7.443,5.757-16.573,6.519-12.382,1.034-14.281-.886-15.812-3.981v-1.873c-1.542-3.115,13.385-13.521,22.538-13.521Z"/>
          <path class="cls-11" d="M55.45,274.524c1.531,3.094,3.43,5.013,15.812,3.979,9.13-.762,16.573-2.917,16.573-6.521s-.695-10.979-9.848-10.979-24.079,10.406-22.538,13.521Z"/>
          <path class="cls-9" d="M56.287,273.239c1.458,2.882,3.267,4.671,15.06,3.71,8.695-.712,15.782-2.72,15.782-6.076s-.659-10.229-9.377-10.229-22.933,9.693-21.465,12.595Z"/>
          <path class="cls-8" d="M63.22,265.843c.698-.436,1.43-.86,2.179-1.271,1.812.274,4.087,1.212,5.638,3.993,1.982,3.557,2.219,6.958,2.233,8.2-.374.039-.75.076-1.126.111-.003-.956-.161-4.202-2.048-7.584-2.037-3.657-5.603-3.602-6.877-3.448Z"/>
          <path class="cls-8" d="M84.528,274.025c-.258-1.364-1.216-6.602-1.22-9.74,0-.659.04-1.228.154-1.691.034-.144.092-.249.136-.376.233.164.449.34.655.522-.011.041-.025.073-.035.114-.078.315-.124.822-.122,1.431-.002,1.702.312,4.185.63,6.227.16,1.02.316,1.932.436,2.591.036.192.066.354.091.498-.223.146-.468.288-.725.424Z"/>
          <path class="cls-8" d="M77.317,260.659c1.775.829,3.825,2.462,5.766,5.632,1.716,2.806,2.147,5.608,2.239,7.26-.33.22-.701.43-1.107.63-.02-1.31-.284-4.239-2.042-7.114-3.212-5.246-6.68-5.919-8.346-5.896,1.218-.293,2.393-.475,3.49-.512Z"/>
        </g>
        <path class="cls-4" d="M130.989,106.555c.233-1.846-3.166-3.587-5.701-25.794-2.561-22.394-3.189-20.007-3.189-22.004,0-16.672-1.761-31.765-25.494-31.765-26.59,0-25.488,15.21-25.488,31.452,0,2.038.494-.49-2.037,22.005-2.509,22.309-7.123,24.175-6.861,26.105,2.897,21.266,66.076,21.288,68.769,0Z"/>
        <path class="cls-9" d="M115.901,66.767c0,13.906-8.64,25.181-19.297,25.181s-19.297-11.275-19.297-25.181c0-23.718,8.64-25.181,19.297-25.181s19.297,0,19.297,25.181Z"/>
        <path class="cls-4" d="M98.917,52.277c-7.706,8.017-18.476,10.167-24.057,4.804-5.578-5.363-3.854-16.21,3.85-24.225,7.706-8.015,18.474-10.167,24.053-4.805,5.58,5.364,3.857,16.21-3.846,24.226Z"/>
        <path class="cls-4" d="M100.887,51.63c5.456,5.68,13.115,7.181,17.098,3.352s2.787-11.539-2.67-17.218c-5.461-5.68-13.117-7.181-17.101-3.352-3.982,3.829-2.787,11.539,2.673,17.219Z"/>
        <rect class="cls-9" x="90.968" y="82.897" width="11.273" height="23.448"/>
        <path class="cls-12" d="M143.423,262.644c-13.009-33.353-19.406-104.12-19.242-137.106-.226-18.737-10.78-30.197-25.1-30.829-2.144-.117-4.294-.117-6.439,0-14.318.633-24.872,12.092-25.099,30.829.162,32.985-6.229,103.753-19.242,137.106,5.015,3.953,13.842,4.333,21.994,2.006,1.29,2.657.946,1.52.958,4.125-.06,0,18.633,6.617,39.556,3.085,18.664-3.147,32.849-9.212,32.615-9.216Z"/>
        <g>
          <path class="cls-10" d="M165.391,125.655s2.196,3.911-2.582,14.31c-4.779,10.398-7.225,10.821-7.225,10.821,0,0-2.777-7.165,1.018-14.993,3.792-7.83,8.789-10.139,8.789-10.139Z"/>
          <path class="cls-9" d="M168.836,142.227c-.588,1.546-2.317,2.325-3.866,1.737l-15.486-5.885c-1.549-.588-2.326-2.319-1.737-3.867h0c.588-1.548,2.319-2.325,3.867-1.739l15.485,5.886c1.548.587,2.326,2.319,1.738,3.867h0Z"/>
          <path class="cls-12" d="M156.572,124.637c-18.355-3.662-35.496-16.085-49.509-27.961l-11.552,14.895c8.218,5.761,16.312,11.704,24.582,17.39,5.223,3.591,10.468,7.185,16.02,10.259,6.666,3.69,13.76,6.327,19.47,11.566,0,0-1.036-5.954,2.709-14.993,2.485-6.005,7.098-10.139,7.098-10.139-3.068-.006-5.972-.441-8.819-1.018Z"/>
          <g>
            <path class="cls-9" d="M163.252,139.532c.63-1.195,1.898-1.82,3.211-1.414.468.144,2.457,1.412,3.609.956,1.151-.457,3.005-1.793,3.56-1.84.553-.048,1.122.089,2.145-.199,1.022-.286,1.313-.914,2.33-.872,1.022.043,1.092.38,2.011-.285.917-.665,1.809-1.444,1.809-1.444,0,0,1.124,1.078.794,1.736-.33.658-1.188,2.392-1.693,2.667-.505.27-.072.319.347.513.416.195,1.025.301,1.847.502.818.202,1.044-.175,1.91.252.869.427,1.381.412,1.672.443.289.034,1.436,1.225,1.821,1.708.383.483.465.089.787.491.319.403.65,1.062,1.131,1.666l.481.602s-.202.82-.62.956c0,0-.6.53-1.381.003-.782-.529-1.022-.855-1.18-1.224-.159-.37-.324-.914-.324-.914,0,0-.705-.181-1.295-.297-.589-.118-1.273-.52-1.273-.52,0,0-.543-.288-1.012-.141-.47.15-1.014.088-1.014.088,0,0-.012.663-.054.695-.043.033.276-.017.863.236.588.255,1.361.856,1.361.856,0,0,.719.282.888.352.166.069.71.041.96.27.25.23.891,1.229,1.121,1.633.231.403.664.575.916,1.231.252.658.778,1.544.46,2.159-.322.617-.476.65-.776.754-.3.105-1.129-.228-1.366-.694-.238-.465-.506-1.31-.506-1.31,0,0-.518-.284-.823-.584-.306-.299-.648-.5-.648-.5,0,0-1.622-.96-1.944-1.109-.321-.149-1.531-.65-1.531-.65,0,0,.287.246.629.422.344.177,1.933.984,2.209,1.215.275.233.646.412.861.825.218.413.682,1.169.754,1.541.071.371.032,1.059-.505,1.487s-.777.551-.998.39c-.22-.162-.84-.999-.853-1.239-.01-.239-.039-.418-.039-.418,0,0-.155-.733-.825-.922-.668-.189-2.068-1.01-2.068-1.01,0,0,.114.426.451.652.34.226.744.535,1.049.833.304.297.838.485.862,1.052.022.566.014,1.101-.465,1.328-.48.226-.774.345-.979.235-.203-.109-.904-.404-.893-.686.01-.279-.048-.822-.196-.939-.162-.129-.381-.078-.704-.484-.322-.402-.887-.962-.887-.962,0,0-1.158-.282-2.41-.489-1.254-.206-2.405-.92-3.061-.862-.655.055-2.046.31-2.914-.242-.868-.553-1.836-1.57-2.061-2.049-.224-.48-.322-.795-.322-.795,0,0-2.309-.8-2.789-.964-.48-.16-1.899-.857-2.491-1.903-.602-1.058-.445-1.848.054-2.791Z"/>
            <path class="cls-6" d="M181.635,134.389s-.439.555-1.103,1.086c-.666.531-1.285.663-1.285.663,0,0-.388.361-.051.715.334.354.396.564,1.01-.03.616-.593,1.523-1.472,1.549-1.959.027-.487-.12-.474-.12-.474Z"/>
            <path class="cls-6" d="M178.05,140.098c-.333.463.189.367-1.2,1.94-1.39,1.576-2.611,2.187-3.606,2.306-.992.118-1.904.276-1.891.422.01.145.69.538,1.195.913.505.373.764.893,1.503.977.741.082,2.712.016,3.465-.532.754-.552,1.317-1.727,1.509-2.138.189-.411,1.566-1.873,1.326-2.3-.24-.432-1.851-2.216-2.302-1.588Z"/>
          </g>
        </g>
        <g>
          <path class="cls-10" d="M25.631,125.655s-2.193,3.911,2.584,14.31c4.776,10.398,7.223,10.821,7.223,10.821,0,0,2.778-7.165-1.015-14.993-3.793-7.83-8.791-10.139-8.791-10.139Z"/>
          <path class="cls-9" d="M22.187,142.227c.59,1.546,2.318,2.325,3.866,1.737l15.487-5.885c1.548-.588,2.326-2.319,1.738-3.867h0c-.589-1.548-2.319-2.325-3.868-1.739l-15.486,5.886c-1.548.587-2.325,2.319-1.737,3.867h0Z"/>
          <path class="cls-12" d="M34.452,124.637c18.353-3.662,35.496-16.085,49.508-27.961l11.552,14.895c-8.218,5.761-16.31,11.704-24.58,17.39-5.224,3.591-10.47,7.185-16.023,10.259-6.665,3.69-13.76,6.327-19.471,11.566,0,0,1.037-5.954-2.705-14.993-2.487-6.005-7.101-10.139-7.101-10.139,3.07-.006,5.972-.441,8.821-1.018Z"/>
          <g>
            <path class="cls-9" d="M27.772,139.532c-.63-1.195-1.9-1.82-3.212-1.414-.467.144-2.456,1.412-3.606.956-1.153-.457-3.006-1.793-3.56-1.84-.555-.048-1.126.089-2.146-.199-1.023-.286-1.313-.914-2.331-.872-1.021.043-1.092.38-2.009-.285-.916-.665-1.809-1.444-1.809-1.444,0,0-1.125,1.078-.795,1.736.33.658,1.187,2.392,1.692,2.667.506.27.072.319-.346.513-.415.195-1.027.301-1.847.502-.818.202-1.045-.175-1.913.252-.867.427-1.379.412-1.67.443-.29.034-1.436,1.225-1.821,1.708-.385.483-.465.089-.785.491-.321.403-.652,1.062-1.133,1.666l-.481.602s.202.82.62.956c0,0,.601.53,1.383.003.78-.529,1.019-.855,1.178-1.224.158-.37.324-.914.324-.914,0,0,.706-.181,1.295-.297.589-.118,1.273-.52,1.273-.52,0,0,.544-.288,1.012-.141.469.15,1.013.088,1.013.088,0,0,.012.663.054.695.043.033-.276-.017-.863.236-.588.255-1.362.856-1.362.856,0,0-.718.282-.887.352-.166.069-.708.041-.962.27-.248.23-.889,1.229-1.118,1.633-.231.403-.663.575-.915,1.231-.255.658-.779,1.544-.461,2.159.322.617.477.65.776.754.3.105,1.13-.228,1.365-.694.237-.465.504-1.31.504-1.31,0,0,.52-.284.825-.584.306-.299.647-.5.647-.5,0,0,1.624-.96,1.944-1.109.322-.149,1.533-.65,1.533-.65,0,0-.286.246-.629.422-.344.177-1.934.984-2.209,1.215-.276.233-.646.412-.862.825-.216.413-.682,1.169-.754,1.541-.071.371-.03,1.059.507,1.487.538.428.777.551.998.39.221-.162.84-.999.851-1.239.011-.239.04-.418.04-.418,0,0,.158-.733.827-.922.668-.189,2.068-1.01,2.068-1.01,0,0-.114.426-.453.652-.339.226-.742.535-1.049.833-.305.297-.836.485-.86,1.052-.022.566-.014,1.101.467,1.328.478.226.77.345.977.235.203-.109.902-.404.895-.686-.012-.279.045-.822.194-.939.16-.129.38-.078.704-.484.321-.402.887-.962.887-.962,0,0,1.158-.282,2.41-.489,1.255-.206,2.405-.92,3.061-.862.653.055,2.046.31,2.914-.242.868-.553,1.836-1.57,2.061-2.049.226-.48.322-.795.322-.795,0,0,2.309-.8,2.79-.964.477-.16,1.898-.857,2.493-1.903.6-1.058.443-1.848-.056-2.791Z"/>
            <path class="cls-6" d="M9.39,134.389s.436.555,1.102,1.086,1.284.663,1.284.663c0,0,.39.361.053.715-.335.354-.398.564-1.012-.03-.615-.593-1.522-1.472-1.547-1.959-.027-.487.121-.474.121-.474Z"/>
            <path class="cls-6" d="M12.973,140.098c.333.463-.189.367,1.201,1.94,1.388,1.576,2.609,2.187,3.603,2.306.994.118,1.906.276,1.893.422-.012.145-.69.538-1.194.913-.508.373-.763.893-1.505.977-.741.082-2.712.016-3.465-.532-.752-.552-1.317-1.727-1.509-2.138-.191-.411-1.566-1.873-1.326-2.3.24-.432,1.851-2.216,2.302-1.588Z"/>
          </g>
        </g>
        <path class="cls-4" d="M111.178,84.338c0,4.386-6.32,9.314-14.115,9.314s-14.117-4.928-14.117-9.314,6.321-7.941,14.117-7.941,14.115,3.556,14.115,7.941Z"/>
        <path class="cls-9" d="M104.493,84.115c0,2.196-3.328,3.974-7.431,3.974s-7.433-1.779-7.433-3.974,3.327-3.971,7.433-3.971,7.431,1.778,7.431,3.971Z"/>
        <path class="cls-4" d="M94.766,76.464c-.356,0-.644-.142-.851-.403-1.266-1.598,1.039-9.888,2.089-13.378l1.202.361c-1.539,5.115-2.814,11.092-2.35,12.159,1.154-.072,2.74-.178,3.047-.403-.098.072-.14.286-.076.39l.984-.78c.341.438.249.819.164,1.007-.35.773-1.654.89-4.122,1.043-.029.002-.058.003-.086.003Z"/>
        <path class="cls-4" d="M103.706,66.434c-2.515,0-4.561-1.99-4.561-4.436h1.001c0,1.894,1.597,3.435,3.56,3.435s3.564-1.541,3.564-3.435h1.001c0,2.446-2.048,4.436-4.564,4.436Z"/>
        <path class="cls-4" d="M108.333,59.297h-1.125c0-.772-1.498-1.635-3.502-1.635s-3.498.863-3.498,1.635h-1.125c0-1.547,2.031-2.759,4.623-2.759s4.626,1.212,4.626,2.759Z"/>
        <path class="cls-4" d="M87.739,66.434c-2.516,0-4.563-1.99-4.563-4.436h1c0,1.894,1.598,3.435,3.563,3.435s3.562-1.541,3.562-3.435h1.001c0,2.446-2.047,4.436-4.563,4.436Z"/>
        <path class="cls-4" d="M97.203,86.659c-3.296,0-5.977-2.023-5.977-4.511h1.154c0,1.851,2.164,3.357,4.824,3.357s4.825-1.506,4.825-3.357h1.154c0,2.487-2.682,4.511-5.978,4.511Z"/>
        <path class="cls-4" d="M78.81,95.458c-.547,16.204-2.635,15.537-4.708,15.467-2.07-.069-5.599.349-4.662-9.238,1.575-16.136,4.578-49.52,6.649-49.452,2.071.071,3.27,27.016,2.721,43.223Z"/>
        <path class="cls-4" d="M115.642,95.458c.549,16.204,2.635,15.537,4.706,15.467,2.07-.069,5.602.349,4.664-9.238-1.575-16.136-4.58-49.52-6.651-49.452-2.07.071-3.268,27.016-2.719,43.223Z"/>
        <path class="cls-2" d="M81.022,206.461c.04-.622.061-.963.061-.963l-.014-1.654c-.013.84-.027,1.716-.047,2.617ZM126.585,268.356c.992-.273,1.949-.545,2.871-.813-3.301-19.6-7.048-50.511-7.747-56.353.331,15.531,2.811,39.492,4.876,57.167ZM119.652,165.169s1.681,21.845,7.863,63.547c2.562,17.284,5.173,29.151,7.352,37.136,2.565-.849,4.638-1.611,6.1-2.178-9.238-21.567-21.315-98.505-21.315-98.505ZM121.595,210.21s.042.349.115.979c-.018-.906-.03-1.784-.034-2.631l-.081,1.652ZM76.653,152.969s-4.962,47.908-6.649,79.021c-.839,15.489-3.333,26.598-5.622,33.849,1.967-.233,3.958-.632,5.912-1.189,1.29,2.657.946,1.52.958,4.125.065-.306.134-.621.201-.942,5.682-27.656,5.2-114.863,5.2-114.863ZM77.737,270.569c1.164-17.63,2.921-46.33,3.285-64.108-.434,6.653-3.046,46.338-4.829,63.743.478.119,1,.242,1.544.365ZM67.595,199.11c-.078.84-.16,1.708-.248,2.604.092-.614.146-.953.146-.953l.102-1.652ZM56.512,265.821c.645.09,1.304.155,1.975.199,2.711-17.346,7.079-46.357,8.86-64.305-1.045,6.73-7.425,47.676-10.835,64.106Z"/>
        <path class="cls-9" d="M92.641,94.695c-2.615.1-5.102.511-7.427,1.204-.059.59-.103,1.187-.103,1.796,0,7.5,10.4,13.579,10.4,13.579,0,0,10.398-6.079,10.398-13.579,0-.675-.051-1.332-.122-1.981-2.121-.57-4.357-.929-6.707-1.019-2.144-.098-4.294-.098-6.439,0Z"/>
        <g>
          <path class="cls-7" d="M107.465,96.477s1.452,26.287-15.663,44.553c-17.118,18.266-17.752,21.362-26.074,24.755-1.81.738-5.496.819-5.156,5.876.343,5.058.752,3.372-.014,7.025-.766,3.654-2.733,4.496-2.172,7.308.562,2.809,2.315,3.09,1.58,7.023-.736,3.935,0,7.027,0,7.027l1.662,3.315s13.233-3.812,29.341-28.607c18.234-28.067,20.966-44.139,22.938-55.699,1.971-11.561-.106-18.814-.106-18.814,0,0,.039-1.211-1.038-2.017-1.075-.805-1.235-.456-2.582-1.545-1.343-1.091-2.715-.2-2.715-.2Z"/>
          <path class="cls-3" d="M76.653,187.819c-7.474,8.666-12.937,11.888-16.273,13.052l1.246,2.487s13.233-3.812,29.341-28.607c2.641-4.066,4.948-7.872,6.984-11.457,4.745-10.691,7.958-19.707,7.958-19.707,0,0-16.05,28.917-29.257,44.232Z"/>
          <path class="cls-3" d="M110.759,103.354c-.987,8.679-1.269,10.02-1.269,10.02,0,0,2.341-10.208,2.501-15.629-.352-.171-.646-.264-1.114-.562.18,1.367.206,3.328-.118,6.172ZM113.8,100.239s.019-.673-.416-1.35c-.019,1.41-.076,4.359-.218,6.593-.156,2.459-.288,4.08-.288,4.08,0,0,.767-3.779,1.386-7.002-.235-1.501-.465-2.322-.465-2.322Z"/>
          <path class="cls-3" d="M92.295,148.711c4.122-6.557,13.303-24.981,13.303-24.981,0,0-14.38,23.247-27.68,37.112-8.943,9.32-14.489,12.102-17.163,12.927.268,2.514.432,1.911-.197,4.917-.139.666-.319,1.236-.515,1.744,1.33-1.046,3.981-2.998,9.305-6.661,10.818-7.447,18.827-18.5,22.949-25.057ZM71.313,179.249c-4.644,3.966-9.424,6.607-12.513,8.09.622,1.478,1.493,2.269,1.31,4.567,4.217-2.485,10.447-6.704,15.058-12.201,8.446-10.064,22.701-33.021,22.701-33.021,0,0-18.829,25.96-26.556,32.564Z"/>
          <path class="cls-3" d="M111.877,117.181s-4.935,16.271-8.778,24.069l-3.84,7.797s5.761-8.546,8.022-14.612c2.259-6.067,4.596-17.254,4.596-17.254Z"/>
        </g>
        <path class="cls-12" d="M78.554,56.387c-1.36,0-2.255-.178-2.361-.2l.229-1.101c.073.015,7.42,1.447,12.786-4.63,5.528-6.26,7.311-10.876,7.328-10.922l1.052.398c-.074.195-1.874,4.855-7.537,11.268-3.913,4.43-8.692,5.186-11.497,5.186Z"/>
        <path class="cls-12" d="M78.555,51.672c-1.36,0-2.256-.178-2.362-.2l.229-1.101c.074.016,7.419,1.447,12.786-4.629,5.512-6.244,7.311-10.876,7.329-10.922l1.051.398c-.074.195-1.874,4.853-7.537,11.268-3.913,4.43-8.692,5.185-11.496,5.185Z"/>
        <path class="cls-12" d="M115.097,52.804c-.644,0-2.658-.172-7.191-1.816-5.737-2.083-5.862-10.876-5.865-11.25l1.125-.008c0,.084.122,8.385,5.123,10.201,5.159,1.871,6.9,1.746,6.916,1.745l.119,1.118c-.03.003-.104.01-.228.01Z"/>
        <path class="cls-9" d="M119.758,66.357c-.748,3.11-2.348,5.393-3.573,5.099-1.224-.295-1.611-3.056-.86-6.165.746-3.11,2.348-5.393,3.571-5.099,1.225.295,1.611,3.055.862,6.165Z"/>
        <path class="cls-5" d="M118.338,66.016c-.269,1.114-.843,1.933-1.281,1.826-.438-.105-.577-1.094-.312-2.209.27-1.116.843-1.933,1.283-1.829.438.105.576,1.096.31,2.211Z"/>
        <path class="cls-9" d="M75.092,66.357c.747,3.11,2.349,5.393,3.57,5.099,1.226-.295,1.611-3.056.863-6.165-.751-3.11-2.348-5.393-3.573-5.099-1.224.295-1.609,3.055-.86,6.165Z"/>
        <path class="cls-5" d="M76.512,66.016c.27,1.114.842,1.933,1.282,1.826.438-.105.577-1.094.308-2.209-.267-1.116-.842-1.933-1.28-1.829-.438.105-.578,1.096-.31,2.211Z"/>
      </g>
      <path class="cls-1" d="M138.311,10.471c-.01.14.008.143-.036.466-.036.279-.09.467-.145.659-.12.378-.283.729-.468,1.026-.37.604-.801,1.061-1.231,1.447-.867.764-1.754,1.285-2.639,1.752-1.772.908-3.556,1.538-5.346,2.09-3.578,1.088-7.181,1.818-10.795,2.404-7.234,1.118-14.514,1.608-21.788,1.571-7.272-.055-14.548-.497-21.783-1.601-3.618-.56-7.221-1.288-10.802-2.368-1.79-.553-3.573-1.184-5.346-2.093-.885-.468-1.772-.99-2.638-1.754-.43-.387-.861-.844-1.231-1.449-.185-.296-.348-.647-.468-1.026-.057-.195-.108-.39-.136-.599-.017-.103-.032-.206-.035-.312l-.008-.158-.003-.079c0-.073-.004.05.001-.182.014-.14,0-.145.048-.465.039-.277.098-.463.156-.652.128-.374.296-.719.486-1.008.38-.59.818-1.031,1.253-1.401.877-.732,1.77-1.22,2.661-1.655,1.783-.844,3.571-1.409,5.365-1.897,3.587-.957,7.194-1.531,10.8-1.995,3.606-.462,7.221-.744,10.836-.937,3.615-.197,7.227-.272,10.848-.249,3.607.01,7.226.113,10.837.306,3.613.184,7.227.458,10.835.911,3.609.438,7.216,1.01,10.806,1.958,1.794.489,3.582,1.056,5.365,1.9.89.436,1.783.924,2.66,1.657.436.37.873.811,1.253,1.402.38.576.682,1.374.692,2.229l-.003.104ZM134.625,10.367c0-.045.008-.129-.097-.307-.096-.171-.279-.394-.519-.612-.485-.442-1.156-.862-1.865-1.235-1.438-.747-3.064-1.336-4.715-1.845-3.319-1.016-6.794-1.729-10.289-2.297-7.011-1.087-14.145-1.573-21.281-1.535-7.119.054-14.26.491-21.269,1.565-3.498.541-6.974,1.253-10.296,2.26-1.651.51-3.277,1.101-4.715,1.848-.709.374-1.381.795-1.864,1.237-.241.218-.423.441-.519.613-.054.087-.072.155-.089.205-.004.026-.01.055.001.001-.001-.101-.009.12-.012.204.007-.205.004-.054.006-.098l.002.005.002.01c-.003.006.003.014.006.021,0,.014.012.034.019.054.023.046.046.107.106.187.106.157.295.363.541.565.495.409,1.173.797,1.887,1.138,1.448.682,3.08,1.207,4.735,1.652,3.327.884,6.806,1.441,10.294,1.887,3.492.445,7.019.721,10.551.909,3.532.192,7.075.266,10.618.242,3.542-.01,7.084-.111,10.615-.299,3.531-.179,7.057-.445,10.55-.882,3.491-.42,6.97-.975,10.3-1.851,1.655-.446,3.286-.972,4.735-1.655.714-.341,1.392-.73,1.887-1.14.246-.202.434-.409.54-.566.059-.08.083-.141.106-.187.008-.024.017-.051.01.005.005.103.016-.12.024-.204l-.003.104Z"/>
    </g>
  </g>
</svg>