<?xml version="1.0" encoding="UTF-8"?>
<svg id="_레이어_2" data-name="레이어 2" xmlns="http://www.w3.org/2000/svg" viewBox="0 0 185.32 261.663">
  <defs>
    <style>
      .cls-1, .cls-2, .cls-3, .cls-4, .cls-5, .cls-6, .cls-7, .cls-8, .cls-9, .cls-10, .cls-11, .cls-12, .cls-13, .cls-14, .cls-15, .cls-16, .cls-17, .cls-18, .cls-19, .cls-20, .cls-21, .cls-22, .cls-23, .cls-24, .cls-25, .cls-26, .cls-27, .cls-28, .cls-29, .cls-30, .cls-31, .cls-32, .cls-33, .cls-34, .cls-35, .cls-36, .cls-37, .cls-38, .cls-39, .cls-40 {
        stroke-linecap: round;
        stroke-linejoin: round;
      }

      .cls-1, .cls-2, .cls-3, .cls-4, .cls-5, .cls-6, .cls-7, .cls-8, .cls-9, .cls-10, .cls-11, .cls-12, .cls-13, .cls-14, .cls-15, .cls-17, .cls-18, .cls-19, .cls-20, .cls-21, .cls-22, .cls-24, .cls-25, .cls-26, .cls-28, .cls-29, .cls-30, .cls-31, .cls-33, .cls-34, .cls-35, .cls-36, .cls-37, .cls-38, .cls-39 {
        stroke: #040000;
      }

      .cls-1, .cls-11, .cls-30, .cls-38 {
        stroke-width: .901px;
      }

      .cls-1, .cls-12, .cls-41, .cls-27 {
        fill: #040000;
      }

      .cls-2 {
        fill: #ef92b7;
      }

      .cls-2, .cls-3, .cls-4, .cls-5, .cls-7, .cls-8, .cls-9, .cls-10, .cls-12, .cls-14, .cls-15, .cls-16, .cls-17, .cls-18, .cls-19, .cls-20, .cls-21, .cls-22, .cls-24, .cls-25, .cls-26, .cls-27, .cls-28, .cls-31, .cls-33, .cls-34, .cls-35, .cls-36 {
        stroke-width: .781px;
      }

      .cls-3 {
        fill: #2fa75a;
      }

      .cls-4, .cls-42 {
        fill: #845134;
      }

      .cls-5 {
        fill: #42403f;
      }

      .cls-43 {
        fill: #80c04c;
      }

      .cls-43, .cls-42, .cls-44, .cls-41, .cls-45, .cls-46, .cls-47, .cls-48, .cls-49, .cls-50, .cls-51, .cls-52, .cls-53, .cls-54, .cls-55, .cls-56 {
        stroke-width: 0px;
      }

      .cls-6, .cls-13, .cls-32 {
        stroke-width: .601px;
      }

      .cls-6, .cls-16, .cls-44, .cls-20, .cls-23, .cls-29, .cls-30, .cls-32, .cls-39, .cls-40 {
        fill: none;
      }

      .cls-7, .cls-51 {
        fill: #d47253;
      }

      .cls-8 {
        fill: #f9f7c3;
      }

      .cls-9 {
        fill: #f3c421;
      }

      .cls-10 {
        fill: #f5ae96;
      }

      .cls-11 {
        fill: #2a2224;
      }

      .cls-13, .cls-21, .cls-47, .cls-37, .cls-54, .cls-56 {
        fill: #fff;
      }

      .cls-14 {
        fill: #3b4078;
      }

      .cls-15 {
        fill: #e83530;
      }

      .cls-16, .cls-27, .cls-32 {
        stroke: #fff;
      }

      .cls-17 {
        fill: #986a5a;
      }

      .cls-18 {
        fill: #ea5a4e;
      }

      .cls-19 {
        fill: #f5d525;
      }

      .cls-45 {
        fill: #f4a269;
      }

      .cls-46 {
        fill: #f9eda3;
      }

      .cls-22 {
        fill: #73c083;
      }

      .cls-48 {
        fill: #d87470;
      }

      .cls-23 {
        stroke: #f4a269;
      }

      .cls-23, .cls-40 {
        stroke-width: 1.081px;
      }

      .cls-24 {
        fill: #fadad0;
      }

      .cls-25 {
        fill: #6a4f41;
      }

      .cls-26 {
        fill: #ea5d86;
      }

      .cls-28 {
        fill: #f8c6b9;
      }

      .cls-49 {
        fill: #f6f4ab;
      }

      .cls-29 {
        stroke-width: 1.202px;
      }

      .cls-50 {
        fill: #727171;
      }

      .cls-31 {
        fill: #ee7647;
      }

      .cls-52 {
        fill: #3db268;
      }

      .cls-33 {
        fill: #f5e42c;
      }

      .cls-34 {
        fill: #f6b7a7;
      }

      .cls-35 {
        fill: #135aa3;
      }

      .cls-36 {
        fill: #1e1d1e;
      }

      .cls-53 {
        fill: #ef8b8b;
      }

      .cls-37, .cls-39 {
        stroke-width: .451px;
      }

      .cls-38 {
        fill: #f8c8bb;
      }

      .cls-54 {
        opacity: .2;
      }

      .cls-55 {
        fill: #3aaa81;
      }

      .cls-56 {
        opacity: .35;
      }

      .cls-40 {
        stroke: #73c083;
      }
    </style>
  </defs>
  <g id="_레이어_1-2" data-name="레이어 1">
    <g>
      <circle class="cls-46" cx="100.543" cy="78.199" r="78.199"/>
      <g>
        <path class="cls-4" d="M143.709,111.694c-1.29-5.583-2.622-11.272-5.656-16.177-1.559-2.521-3.534-4.775-5.3-7.165-2.862-3.873-5.172-8.098-7.333-12.376-1.711-3.388-3.35-6.864-4.043-10.579-.443-2.373-.494-4.817-1.143-7.143-.682-2.44-1.996-4.66-3.297-6.85-2.126-3.578-4.64-6.881-7.109-10.266-16.332-22.384-32.065-12.342-34.31-10.673-1.192.887-2.835-.885-4.288-1.195-4.291-.916-8.509,1.653-11.938,4.39-2.9,2.315-5.699,4.923-7.329,8.257-2.877,5.885.061,16.448-.28,20.191-1.103,4.674-2.354,9.334-3.398,13.954-1.306,5.781-2.62,11.705-1.805,17.555.926,6.65,4.566,13.282,2.615,19.744-.781,2.588-2.404,4.855-3.657,7.268-1.449,2.789-2.416,5.807-2.847,8.892-.492,3.517-.052,7.585,2.838,9.757,2.699,2.029,6.542,1.687,9.909,1.007,11.076-2.235,21.493-7.015,32.594-9.126,10.166-1.934,20.693-1.586,30.797-3.81,8.285-1.823,22.647,12.343,29.423,7.37.902-.662-4.226-22.088-4.443-23.027Z"/>
        <path class="cls-20" d="M56.501,97.226c-1.54,3.388.002,7.281,1.077,10.844,1.957,6.483,2.211,13.872-1.256,19.689-2.119,3.556-2.529,7.89-2.24,12.02.002.031.009.061.021.09"/>
        <path class="cls-20" d="M110.25,71.033c2.228,4.027,3.385,8.641,3.321,13.243-.042,3.023-.599,6.015-.776,9.033-.177,3.018.058,6.163,1.482,8.83,1.359,2.547,3.672,4.428,5.473,6.684,4.08,5.109,5.36,12.322,3.286,18.523"/>
        <path class="cls-20" d="M118.162,65.589c1.637,3.236,2.658,6.782,2.991,10.393.435,4.714-.288,9.515.559,14.173.433,2.384,1.27,4.676,2.19,6.917,1.47,3.579,3.174,7.079,5.371,10.264,1.433,2.077,3.073,4.016,4.358,6.187,1.443,2.437,2.414,5.129,3.135,7.868,1.08,4.1,1.617,8.342,1.591,12.582"/>
        <path class="cls-21" d="M28.874,147.009c-.479-10.076,4.609-34.734,43.734-44.897,3.32-.862,6.669-.916,10.027-1.556,4.395-.838,17.873-3.211,22.304-2.607,15.844,2.161,21.4,2.491,35.195,8.345,5.006,2.124,13.317,6.716,16.763,10.923l-5.3,117.548H46.877l-18.003-87.755Z"/>
        <path class="cls-34" d="M74.94,115.246c2.41,1.569,5.389,2.098,8.262,2.01s5.695-.817,8.403-1.783c6.836-2.438,13.642-9.88,16.71-16.61.166-.364-5.345-5.147-9.77-17.761-.077-.22-9.194,2.543-10.029,2.818-3.344,1.098-6.634,2.412-9.7,4.152-2.079,1.18-6.067,3.137-6.817,5.629-.65,2.158-1.879,12.167-1.59,14.267.489,3.55,3.026,6.298,4.53,7.277Z"/>
        <path class="cls-34" d="M57.076,61.647c-5.469-2.182-9.027,5.236-5.735,9.767.909,1.252,6.129,3.895,6.376.924"/>
        <path class="cls-34" d="M92.674,39.685l-15.179-3.908-12.048,2.388s-7.634,9.684-7.865,10.287c-1.498,3.909-2.43,8.748-2.485,11.333-1.01,10.041-.598,19.258,4.429,28.078,2.661,4.669,8.79,8.828,14.839,9.612.435,1.912,27.955-.222,26.613-20.315.144-.75.261-1.506.316-2.263l4.862-7.725-3.819-14.893-9.661-12.593Z"/>
        <circle class="cls-41" cx="66.095" cy="68.603" r="1.901"/>
        <circle class="cls-41" cx="80.846" cy="67.228" r="1.901"/>
        <path class="cls-34" d="M100.724,60.831c7.048-4.038,13.142,3.511,9.732,10.017-.942,1.797-3.774,5.334-8.636,2.655"/>
        <path class="cls-20" d="M103.873,67.149c.708-.703,1.849-.928,2.771-.549"/>
        <path class="cls-4" d="M97.428,57.416c2.436,9.921-1.344,19.956-3.754,20.82-3.763,1.349-9.525-1.697-12.64-1.839-5.655-.259-10.743-.072-14.415,1.163-3.252,1.094-5.629,3.474-8.316,1.316-1.339-1.075-3.284-9.574-3.782-13.666-.592.796-1.36,13.639.3,25.964,1.522,11.294,9.665,15.722,10.189,15.951,3.739,1.629,8.128,1.86,12.201,1.756,3.67-.093,7.286-.905,10.852-1.8.848-.213,10.744-3.464,13.255-13.187,3.128-12.112.255-29.51-1.392-35.114"/>
        <path class="cls-20" d="M67.843,82.088s6.63,4.207,15.053-2.287"/>
        <path class="cls-29" d="M79.159,61.345s2.317-.788,4.925.949"/>
        <path class="cls-29" d="M67.714,59.616s-2.364-.632-4.851,1.275"/>
        <path class="cls-20" d="M71.853,65.388s-.445,1.416-1.095,2.741c-1.228,2.505-2.471,5.829,2.217,6.681"/>
        <path class="cls-44" d="M82.942,31.35s-20.518-6.406-25.088,11.675c0,0-11.131,4.804-4.83,14.684"/>
        <path class="cls-54" d="M54.672,70.625s-1.433,14.454,2.234,25.212c1.97,5.779,5.489,10.393,11.318,11.348,0,0-7.325-3.632-7.092-26.567,0,0-5.247,1.497-6.46-9.993Z"/>
        <path class="cls-54" d="M55.985,59.569l-.431,6.217s1.782,14.034,4.884,13.089c0,0-1.836-19.126,7.221-36.147,0,0-9.057-.312-11.674,16.841Z"/>
        <path class="cls-42" d="M54.137,60.078c.591,4.017,2.847-6.462,4.799-10.022.963-1.757,2.487-3.487,4.102-4.673,1.615-1.186,3.747-1.798,5.667-1.227.547.163,1.068.416,1.629.52,1.686.312,3.274-.756,4.892-1.323,3.81-1.334,7.974.125,11.743,1.572,1.48.568,1.252,1.255,2.542,2.176,2.129,1.519,3.112,5.976,4.433,8.233,1.984,3.391,6.125,2.471,6.951,6.313,0,0-.486-3.016,5.751-2.091l-2.12-8.165s-4.85-19.885-30.071-16.248c0,0-23.957.2-20.319,24.936Z"/>
        <path class="cls-20" d="M54.935,61.575c.449-4.035,2.05-7.837,4.001-11.398.963-1.757,2.487-3.487,4.102-4.673,1.615-1.186,3.747-1.798,5.667-1.227.547.163,1.068.416,1.629.52,1.686.312,3.274-.756,4.892-1.323,3.81-1.334,8.179-.325,11.743,1.572,4.653,2.477,5.655,8.136,6.976,10.393,1.984,3.391,6.394,2.484,7.03,7.714"/>
        <path class="cls-20" d="M71.431,42.842c.915-6.156,6.797-11.057,13.018-11.232,6.221-.175,12.203,4.114,14.418,9.931.973,2.557,1.293,5.346,2.463,7.818,1.74,3.676,5.622,6.552,5.027,10.575"/>
        <path class="cls-20" d="M63.79,43.249c0-3.473,1.564-6.916,4.18-9.2"/>
        <path class="cls-20" d="M62.275,44.301c-1.027-1.83-.789-4.102-.266-6.134"/>
        <path class="cls-20" d="M109.879,61.74c.369-2.309.219-5.248-.255-7.538"/>
        <path class="cls-20" d="M69.995,100.992c.55,2.983,2.154,5.789,4.503,7.878"/>
        <path class="cls-20" d="M78.258,108.627c-1.019-1.382-1.672-3.031-1.876-4.736"/>
        <path class="cls-20" d="M81.656,108.508c.585-1.166.92-2.457.978-3.76"/>
        <path class="cls-40" d="M53.642,40.8c6.763,1.918,13.996,2.157,20.871.688,3.434-.733,6.78-1.885,10.258-2.367,6.093-.844,12.291.4,18.43.011,2.238-.142,2.983-.604,4.313-2.409"/>
        <path class="cls-52" d="M54.574,45.93c-.426.509-.849,1.033-1.116,1.641s-.365,1.317-.126,1.937c1.385.121,2.808.068,4.118-.396s2.501-1.377,3.087-2.637c.576-1.24.611-3.857-1.172-4.065-1.774-.207-3.813,2.353-4.791,3.52Z"/>
        <g>
          <path class="cls-43" d="M66.185,43.404c-.022.014-.045.026-.069.037-.22.093-.474-.01-.567-.229-1.724-4.078-4.38-7.791-7.679-10.739-.178-.159-.193-.433-.035-.61.165-.181.434-.193.61-.035,3.394,3.033,6.126,6.853,7.9,11.047.082.196.011.418-.161.53Z"/>
          <path class="cls-43" d="M59.975,33.127c-.525-.858-.889-1.844-.854-2.849.019-.547.207-1.156.699-1.398.151.139.201.354.238.556.122.674.176,1.361.16,2.046-.016.728-.11,1.461.01,2.179"/>
          <path class="cls-43" d="M61.581,35.165c.005-.584.01-1.174.154-1.74.084-.33.214-.648.27-.984.082-.484.022-1.027.32-1.417.391.646.703,1.365.73,2.119.034.949-.381,1.85-.808,2.698"/>
          <path class="cls-43" d="M64.945,35.141c.214-.439.489-.887.933-1.091.071.074.07.189.065.291-.023.436-.045.871-.068,1.307-.027.518-.72,4.205-1.698,3.684-1.005-.535.436-3.508.769-4.191Z"/>
          <path class="cls-43" d="M66.231,38.208c.223-.898.517-1.827,1.185-2.468.15.14.161.369.165.573.017.894.085,1.793-.044,2.677-.13.884-.483,1.773-1.167,2.348-.221.186-.549.336-.787.172-.528-.365-.076-1.001.093-1.395.262-.61.397-1.266.556-1.908Z"/>
          <path class="cls-43" d="M55.621,29.827c-.785-.186-1.688-.057-2.261.511.239.172.477.343.716.515.665.478,3.45,2.332,4.3,1.599.404-.348-.455-1.254-.779-1.601-.463-.496-1.329-.871-1.977-1.025Z"/>
          <path class="cls-43" d="M55.197,33.897c-.053.022-.114.057-.115.115-.001.054.051.091.097.118.387.226.786.456,1.229.527.301.048.609.021.913.049.331.031.654.127.985.159.425.041,1.402-.005,1.612-.468.295-.651-.772-.728-1.139-.8-1.209-.237-2.434-.178-3.582.301Z"/>
          <path class="cls-43" d="M58.231,35.843c-.326.016-.662.034-.959.17.054-.025.776.47.879.519.331.159.675.289,1.025.401.694.221,1.472.45,2.202.496,1.638.103.149-1.23-.566-1.433-.838-.238-1.721-.196-2.581-.154Z"/>
          <path class="cls-43" d="M61.733,39.906c.473.089.947.178,1.42.266.306.057.691.083.858-.179.097-.152.077-.354.004-.518-.228-.511-.854-.693-1.409-.77-.519-.071-1.044-.102-1.568-.092-.358.007-1.357-.067-1.643.166-.321.261.547.624.82.734.486.196,1.005.296,1.518.392Z"/>
          <path class="cls-43" d="M62.706,41.316c-.623-.048-1.246-.154-1.87-.118-.624.036-1.269.236-1.69.699,1.402.814,3.053,1.192,4.67,1.071.457-.034.946-.124,1.268-.45.36-.365.359-1.127-.205-1.25-.292-.064-.714.06-1.013.071-.387.014-.774.006-1.16-.024Z"/>
        </g>
        <path class="cls-43" d="M63.349,46.027c-.524,1.131-.743,2.375-.958,3.603,1.167-.172,2.215-.861,2.989-1.751.621-.714,2.791-3.802,1.433-4.507-1.325-.688-3.062,1.787-3.464,2.655Z"/>
        <path class="cls-52" d="M71.904,37.06c1.359-1.321,3.141-2.099,4.882-2.849.867,2.47-.1,5.462-2.249,6.958-.449.312-.937.562-1.424.811-.436.223-.879.448-1.361.535-3.338.604-.91-4.422.152-5.455Z"/>
        <path class="cls-52" d="M48.775,43.852c-.59.618-1.073,1.33-1.553,2.037-.036.053-.074.111-.074.176,0,.121.125.199.237.244,1.121.454,2.391.053,3.516-.392,1.126-.444,4.33-2.365,2.716-4.007-1.158-1.177-4.048,1.108-4.843,1.941Z"/>
        <path class="cls-43" d="M79.552,37.193c.465-.907,1.254-1.615,2.127-2.141s1.833-.886,2.788-1.243c.036.669.069,1.355-.126,1.996-.168.552-.497,1.041-.865,1.485-.785.947-2.128,2.244-3.38,2.521-1.624.358-.995-1.74-.544-2.619Z"/>
        <path class="cls-43" d="M87.412,43.059c.803.541,1.607,1.083,2.41,1.624.133.09.303.182.444.107-.05-.52-.099-1.04-.149-1.561-.056-.582-.112-1.17-.296-1.726-.461-1.396-2.312-3.172-3.876-2.299-2.052,1.146.379,3.121,1.466,3.854Z"/>
        <path class="cls-52" d="M94.072,44.707c.527.477,1.054.953,1.582,1.43.117.106.319.205.407.074.158-1.525-.446-8.041-2.931-7.789-1.108.112-1.361,1.897-1.27,2.728.161,1.478,1.163,2.609,2.213,3.558Z"/>
        <path class="cls-52" d="M92.247,33.841c.254,1.276.192,5.853-2.378,4.048-2.653-1.863,2.409-3.891,2.378-4.048Z"/>
        <path class="cls-43" d="M107.99,43.508c-1.195-.514-4.931-3.159-1.987-4.254,3.038-1.13,1.84,4.19,1.987,4.254Z"/>
        <path class="cls-43" d="M110.376,31.655c.326,1.259.521,5.833-2.147,4.176-2.753-1.711,2.187-4.02,2.147-4.176Z"/>
        <path class="cls-52" d="M105.001,33.898c.216-.067.449-.134.665-.065.319.102.478.46.534.79.435,2.545-3.228,5.192-5.542,4.047-3.358-1.661,3.083-4.381,4.343-4.772Z"/>
        <path class="cls-43" d="M95.512,35.602c.19-1.125.729-2.157,1.26-3.166.588-1.117,1.277-2.325,2.464-2.752.231,1.659.463,3.35.17,4.999-.209,1.176-.914,3.164-2.153,3.659-1.696.677-1.952-1.493-1.741-2.74Z"/>
        <path class="cls-43" d="M103.759,47.803c.102.079.246.157.348.079.046-.035.068-.093.087-.148.429-1.25.654-2.586.506-3.9s-.687-2.603-1.626-3.533c-1.746-1.728-4.036-1.594-3.349,1.242.594,2.451,2.039,4.714,4.034,6.26Z"/>
        <path class="cls-52" d="M112.598,40.688c-.363-.753-.759-1.49-1.186-2.209-.785-1.322-3.886-2.715-3.833-.088.041,2.024,3.542,2.519,5.019,2.297Z"/>
        <path class="cls-43" d="M49.552,37.394c.841.236,1.677.489,2.508.759,1.327.431,4.801,2.378,1.798,3.571-2.584,1.026-3.936-2.505-4.306-4.329Z"/>
        <path class="cls-52" d="M69.48,46.789c-.169,1.004-.17,2.027-.17,3.045,0,.077.001.159.044.222.081.119.256.113.397.083,1.409-.301,2.392-1.544,3.204-2.734.813-1.19,2.689-5.223.002-5.763-1.927-.388-3.25,3.795-3.478,5.147Z"/>
        <path class="cls-56" d="M49.983,70.621s-4.407,15.155-2.902,21.388c0,0-.215,2.794,2.042,9.673,0,0,3.009,8.706-.322,13.757l3.439-1.935s1.72-3.009-1.075-14.617c0,0-3.224-9.458.537-26.655,0,0-1.075-.645-1.72-1.612Z"/>
        <path class="cls-26" d="M29.178,236.738c27.031-17.232,88.408-136.859,88.408-136.859,0,0,22.911,3.398,31.358,10.831,0,0-2.107,96.97-20.352,126.028"/>
        <path class="cls-21" d="M53.014,109.705s-21.702,8.167-37.158,41.784c0,0-40.958,90.804,14.297,91.963l11.206-35.549,1.243-55.576"/>
        <path class="cls-21" d="M137.532,108.993c-.727.518-1.291,1.26-1.597,2.098-.139.382-.217.836.01,1.174.045.067.103.133.108.214.004.069-.031.133-.066.192-.269.46-.564.977-.436,1.494.154.619.829.93,1.425,1.156-.156.143-.137.41-.01.579s.331.261.532.329c.456.153.991.205,1.389-.065.121-.082.225-.191.358-.251.146-.066.311-.066.471-.075.404-.023.828-.121,1.113-.408.49-.493.379-1.3.254-1.984-.014-.077-.028-.159-.002-.234.059-.169.271-.209.435-.279.311-.132.522-.469.505-.806s-.261-.652-.583-.752c.617-.352,1.029-1.038,1.051-1.747s-.347-1.419-.941-1.809"/>
        <path class="cls-21" d="M127.752,107.061c-.727.518-1.291,1.26-1.597,2.098-.139.382-.217.836.01,1.174.045.067.103.133.108.214.004.069-.031.133-.066.192-.269.46-.564.977-.436,1.494.154.619.829.93,1.425,1.156-.156.143-.137.41-.01.579s.331.261.532.329c.456.153.991.205,1.389-.065.121-.082.225-.191.358-.251.146-.066.311-.066.471-.075.404-.023.828-.121,1.113-.408.49-.493.379-1.3.254-1.984-.014-.077-.028-.159-.002-.234.059-.169.271-.209.435-.279.311-.132.522-.469.505-.806s-.261-.652-.583-.752c.617-.352,1.029-1.038,1.051-1.747s-.347-1.419-.941-1.809"/>
        <g>
          <path class="cls-21" d="M127.049,105.839s-7.566-5.401.069-10.138c.197-1.302.846-2.569,1.883-3.324s2.469-.922,3.533-.268c.187-1.123,1.263-1.953,2.338-2.01s2.097.54,2.804,1.377c.728-.494,1.671-.521,2.477-.238s1.493.843,2.103,1.46c.608.615,1.19,1.536.801,2.348,1.253-.371,2.474.567,3.333,1.565.39.454.764.953.9,1.553s-.028,1.323-.525,1.667c1.65.515,2.487,2.543,2.362,4.371-.042.621-.179,1.258-.53,1.766s-.353,1.151-.931,1.048c.262.339.97,1.546.53,2.622l-5.968-.17"/>
          <path class="cls-24" d="M135.205,110.585c2.347.519,3.776-.187,3.776-.187,8.086-.099,2.953-10.669,2.953-10.669,0,0-.945-2.253-4.83-3.112l-.776-.172c-3.885-.859-5.691.786-5.691.786,0,0-9.111,7.421-1.82,10.92,0,0,.998,1.243,3.345,1.762l3.042.673Z"/>
          <path class="cls-24" d="M130.938,97.215s-10.681,3.265-9.354,7.06c0,0,2.91.145,7.691-4.863"/>
          <path class="cls-24" d="M141.624,99.578s8.503,6.661,5.699,9.542c0,0-2.893-.293-5.117-6.85"/>
          <path class="cls-47" d="M129.65,96.432c-.577.391-.996,1.056-.969,1.752s.574,1.373,1.269,1.432c.927.079,1.612-.826,2.465-1.199-.343.546-.695,1.117-.761,1.759s.248,1.372.865,1.561c.612.189,1.264-.215,1.652-.725s.615-1.128.999-1.64c-.444.72-.618,1.601-.481,2.436.111.673.509,1.383,1.177,1.518.609.123,1.2-.274,1.636-.717.541-.549.977-1.202,1.277-1.912-.116.3-.233.605-.251.926s.079.665.326.869c.376.311.973.189,1.336-.138s.549-.801.723-1.257c.292.292.589.589.952.786s.808.284,1.193.135c.237-.092.434-.264.616-.442.366-.358.707-.77.839-1.264s.009-1.087-.408-1.385l-1.672-1.468-3.828-2.637-3.867-.287-5.068,1.587"/>
          <path class="cls-20" d="M129.65,96.432c-.577.391-.996,1.056-.969,1.752s.574,1.373,1.269,1.432c.927.079,1.612-.826,2.465-1.199-.343.546-.695,1.117-.761,1.759s.248,1.372.865,1.561c.612.189,1.264-.215,1.652-.725s.615-1.128.999-1.64c-.444.72-.618,1.601-.481,2.436.111.673.509,1.383,1.177,1.518.609.123,1.2-.274,1.636-.717.541-.549.977-1.202,1.277-1.912-.116.3-.233.605-.251.926s.079.665.326.869c.376.311.973.189,1.336-.138s.549-.801.723-1.257c.292.292.589.589.952.786s.808.284,1.193.135c.237-.092.434-.264.616-.442.366-.358.707-.77.839-1.264s.009-1.087-.408-1.385"/>
          <g>
            <circle class="cls-41" cx="131.774" cy="105.137" r=".748"/>
            <circle class="cls-41" cx="137.437" cy="106.524" r=".748"/>
          </g>
          <polyline class="cls-39" points="134.001 106.397 134.2 107.043 134.73 106.538"/>
          <path class="cls-39" d="M132.98,107.006c.429.805,1.219.038,1.219.038,0,0,.204,1.015,1.327.582"/>
        </g>
        <path class="cls-11" d="M103.945,137.383s9.409.185,15.224,6.258l-1.346,21.498.255,27.816s-12.606,8.094-24.681,2.787c0,0-6.767-1.725-13.402-1.327l-2.123-50.025s5.44-6.104,12.208-5.573l13.866-1.433Z"/>
        <path class="cls-11" d="M80.384,142.143s-6.55.962-11.461,33.604c0,0-.867,12.999,11.121,18.343v-30.042"/>
        <path class="cls-30" d="M105.508,142.938s-2.831,4.403-8.885,4.482c0,0-6.29.865-8.649-3.302"/>
        <path class="cls-38" d="M128.207,163.998s2.947,9.36,2.427,11.787c0,0-.52,9.014-11.961,21.321l-5.2,7.627s-1.213-3.12-2.947-7.627l2.703-3.149s5.271-16.265,5.964-17.478l-1.213-3.987s10.054-7.974,10.227-8.494Z"/>
        <path class="cls-11" d="M116.512,141.547s6.734,2.489,13.614,24.3c0,0,2.342,6.88,2.049,11.272,0,0-.214,8.129-11.327,21.955l-8.011-5.815,4.992-17.458-3.22-10.101"/>
        <path class="cls-30" d="M117.884,176.159c1.475.089,2.928.511,4.221,1.226"/>
        <g>
          <g>
            <g>
              <g>
                <g>
                  <path class="cls-34" d="M84.927,121.058c-2.25-1.397-4.409,1.608-3.308,3.874.304.626,2.408,2.207,2.751.911"/>
                  <path class="cls-34" d="M102.5,115.921l-5.902-1.546-6.321-1.215s-3.938,1.847-4.087,2.096c-.971,1.613-1.764,3.682-1.993,4.823-1.237,4.367-1.78,8.481-.249,12.782.811,2.277,3.198,4.601,5.815,5.425.042.881.036,1.349.001,2.295-.014.378-.133.813-.024,1.175.033.111,2.01,1.983,6.258,2.062,4,.074,8.048-2.819,8.192-3.58.214-1.135-.004-2.324-.208-3.474-.316-1.787-.591-3.581-.836-5.379.123-.321.234-.646.318-.977l2.761-3.038-.519-6.896-3.207-4.551Z"/>
                  <path class="cls-34" d="M103.992,124.14c3.439-1.233,5.543,2.589,3.521,5.202-.559.722-2.091,2.065-4.033.496"/>
                  <path class="cls-20" d="M86.487,120.553c.551-.48,2.217-.432,2.457-.302"/>
                  <path class="cls-20" d="M93.869,120.453c.622-.384,2.258-.067,2.474.1"/>
                  <circle class="cls-41" cx="95.029" cy="125.186" r=".826"/>
                  <circle class="cls-41" cx="88.319" cy="124.723" r=".826"/>
                  <path class="cls-20" d="M104.889,127.185c.369-.255.892-.266,1.27-.025"/>
                  <path class="cls-20" d="M91.303,123.541s-3.525,4.469-.516,4.584"/>
                  <path class="cls-20" d="M88.782,131.509s2.282,2.024,5.755-.295"/>
                </g>
                <g>
                  <path class="cls-27" d="M92.008,122.829s-.8,6.132,3.375,5.938c0,0,4.168.857,4.318-5.389,0,0-2.372-1.318-7.693-.549Z"/>
                  <path class="cls-27" d="M83.029,122.606s-.7,5.786,2.937,5.602c0,0,3.63.807,3.764-5.087,0,0-.7-1.257-6.701-.514Z"/>
                  <path class="cls-16" d="M89.657,124.285s1.221-.356,1.97-.035"/>
                  <path class="cls-16" d="M99.771,124.351l6.677-.638s2.259.484,2.293,2.069"/>
                </g>
                <path class="cls-50" d="M84.399,124.854c-.038.347-.076.697-.038,1.044s.157.695.397.949c.037.039.078.077.129.094.1.034.213-.019.279-.101s.095-.187.121-.289c.135-.53.222-1.073.256-1.62.022-.353.157-1.266-.094-1.555-.684-.788-1.019,1.186-1.05,1.477Z"/>
                <path class="cls-50" d="M93.682,126.816c.027.084.068.179.153.201.085.022.168-.042.226-.108.235-.263.345-.611.45-.948.133-.43.81-2.893-.436-2.25-.957.494-.643,2.311-.393,3.105Z"/>
                <path class="cls-20" d="M89.764,138.285s5.637,1.18,9.125-2.287"/>
              </g>
              <path class="cls-54" d="M87.57,116.696l-1.454-.247s-6.283,12.287.544,19.462c0,0-5.19-7.534.91-19.215Z"/>
            </g>
            <path class="cls-36" d="M86.13,115.552s.828-.211,1.999.514c0,0,3.381,2.066,10.61-1.871,0,0-3.201-3.786-8.875-2.324,0,0-3.834,1.627-3.734,3.682Z"/>
            <path class="cls-19" d="M99.445,108.993s2.404-2.243,6.153-1.214c0,0,5.99,2.387,2.131,8.535l-.918,1.201-7.367-8.522Z"/>
            <path class="cls-19" d="M91.185,111.392s10.594,3.776,14.625,10.752c0,0,2.243-1.542,1.843-5.264,0,0-3.894-7.963-9.616-8.076,0,0-5.121-.514-6.852,2.588Z"/>
          </g>
          <path class="cls-36" d="M87.558,130.074s2.4-2.261,7.027-.095c0,0-2.446,2.133-7.027.095Z"/>
        </g>
        <polygon class="cls-19" points="112.648 158.508 80.076 158.508 80.076 176.364 116.946 177.191 117.277 174.546 112.648 158.508"/>
        <polygon class="cls-18" points="114.609 165.701 80.407 165.701 80.407 170.081 115.954 170.081 114.609 165.701"/>
        <path class="cls-37" d="M95.31,111.062s3.648,1.85,4.335,2.326l1.216-1.375-3.806-2.062-1.745,1.11Z"/>
        <path class="cls-21" d="M54.421,152.991s10.294,1.418,12.147,8.953c0,0-2.594,23.346-2.347,26.805,0,0,.124,2.1-.865,4.323,0,0,1.359,5.065,1.112,7.165,0,0,.618,4.941-18.652,3.459,0,0-13.958-1.853-14.453-4.818,0,0-.124-2.471.741-4.2,0,0,1.853-7.906,1.482-11.611,0,0-.746-10.732-.993-19.132,0,0-3.207-10.267,11.369-12.367l10.458,1.423Z"/>
        <path class="cls-14" d="M28.101,159.036s5.179-6.395,15.181-7.544l7.315,20.252,6.247-19.393c7.462,2.57,9.831,5.415,9.831,5.415l.281,12.252-.571,39.226c-9.512,2.168-15.891.731-15.891.731,0,0-14.022,1.574-20.443-1.211l-1.95-49.728Z"/>
        <path class="cls-10" d="M17.027,180.394s-2.593,8.237-2.135,10.372c0,0,.458,7.932,10.525,18.761l4.576,6.711s1.068-2.746,2.593-6.711l-2.378-2.771s-4.638-14.312-5.248-15.38l1.068-3.508s-8.847-7.016-8.999-7.474Z"/>
        <path class="cls-14" d="M30.254,156.923s-13.554,9.313-15.693,32.694c0,0,.291,12.06,9.3,20.343,0,0,7.428-.811,8-3.675,0,0-2.624-6.206-3.06-7.368,0,0-1.308-8.864-1.308-10.898,0,0,2.325-3.197,2.616-4.069"/>
        <path class="cls-47" d="M21.303,169.368s8.567,11.495,8.675,13.772l-2.277,3.145-8.784-12.687s1.735-4.446,2.386-4.229Z"/>
        <path class="cls-47" d="M26.752,188.005l-9.238-9.786s-1.174,3.366-1.331,4.619l10.804,8.534-.235-3.366Z"/>
        <path class="cls-20" d="M50.481,171.238c.038,7.537-.048,15.075-.256,22.61-.025.892-.051,1.792.117,2.669.225,1.177.792,2.272.984,3.455.242,1.489-.124,3.002-.487,4.466-.446,1.797-.891,3.594-1.337,5.391"/>
        <circle class="cls-41" cx="47.883" cy="193.633" r="1.09"/>
        <circle class="cls-41" cx="48.28" cy="183.129" r="1.09"/>
        <circle class="cls-41" cx="48.081" cy="204.534" r="1.09"/>
        <path class="cls-20" d="M64.699,201.449c-1.779-.985-3.451-2.162-4.978-3.506"/>
        <path class="cls-20" d="M36.819,196.732c-1.617,2.073-3.713,3.769-6.077,4.917"/>
        <path class="cls-20" d="M28.973,200.192c-1.705-.223-3.314.747-4.76,1.677-.916.589-1.831,1.178-2.747,1.767-.573.368-1.168.76-1.503,1.353"/>
        <path class="cls-20" d="M29.925,207.798c-1.088-2.177-2.404-4.239-3.92-6.143"/>
        <path class="cls-20" d="M28.207,209.039c-1.669-1.83-3.11-3.868-4.278-6.052"/>
        <path class="cls-20" d="M25.307,209.4c-1.765-1.369-3.158-3.215-3.989-5.289"/>
        <path class="cls-10" d="M78.802,180.394s2.593,8.237,2.135,10.372c0,0-.458,7.932-10.525,18.761l-4.576,6.711s-1.068-2.746-2.593-6.711l2.378-2.771s4.638-14.312,5.248-15.38l-1.068-3.508s8.847-7.016,8.999-7.474Z"/>
        <path class="cls-14" d="M65.575,156.923s13.554,9.313,15.693,32.694c0,0-.291,12.06-9.3,20.343,0,0-7.428-.811-8-3.675,0,0,2.624-6.206,3.06-7.368,0,0,1.308-8.864,1.308-10.898,0,0-1.725-2.245-2.016-3.117"/>
        <path class="cls-20" d="M66.856,200.192c1.705-.223,3.314.747,4.76,1.677.916.589,1.831,1.178,2.747,1.767.573.368,1.168.76,1.503,1.353"/>
        <path class="cls-20" d="M65.904,207.798c1.088-2.177,2.404-4.239,3.92-6.143"/>
        <path class="cls-20" d="M67.622,209.039c1.669-1.83,3.11-3.868,4.278-6.052"/>
        <path class="cls-20" d="M70.522,209.4c1.765-1.369,3.158-3.215,3.989-5.289"/>
        <path class="cls-20" d="M27.175,187.982c-1.577-.613-3.291-.871-4.979-.749"/>
        <path class="cls-20" d="M66.155,169.874c.216,5.747.165,9.513.282,15.497"/>
        <g>
          <g>
            <g>
              <path class="cls-34" d="M61.954,138.797c2.219-1.134,4.008,1.852,2.798,3.89-.334.563-2.43,1.881-2.65.639"/>
              <path class="cls-34" d="M45.86,131.707l5.653-.988,6.02-.645s3.547,2.039,3.668,2.284c.784,1.588,1.366,3.59,1.491,4.677.819,4.191,1.006,8.089-.766,12.001-.938,2.071-3.357,4.063-5.875,4.63-.108.822-.139,1.262-.18,2.151-.017.355.061.773-.07,1.104-.04.101-2.039,1.702-6.027,1.444-3.755-.243-7.324-3.272-7.399-3.997-.112-1.08.186-2.178.466-3.241.436-1.65.834-3.31,1.204-4.977-.09-.31-.169-.624-.222-.941l-2.351-3.064,1.026-6.424,3.362-4.016Z"/>
              <path class="cls-34" d="M43.819,139.295c-3.127-1.425-5.399,1.994-3.707,4.601.467.72,1.799,2.099,3.742.78"/>
              <path class="cls-20" d="M60.351,138.488c-.347-.465-1.648-.708-1.856-.647"/>
              <path class="cls-20" d="M53.337,137.056c-.63-.275-2.112.24-2.29.424"/>
              <circle class="cls-41" cx="52.163" cy="141.877" r=".777"/>
              <circle class="cls-41" cx="58.489" cy="141.967" r=".777"/>
              <path class="cls-20" d="M42.74,142.08c-.326-.268-.815-.319-1.189-.123"/>
              <path class="cls-20" d="M55.784,140.625s2.955,4.465.125,4.337"/>
            </g>
            <path class="cls-20" d="M56.051,153.667s-5.376.665-8.375-2.857"/>
          </g>
          <g>
            <path class="cls-12" d="M58.258,146.767s-2.321-.883-7.003-1.205c0,0,1.414,10.154,7.003,1.205Z"/>
            <path class="cls-48" d="M51.896,147.213s.967,4.268,3.536,2.52c.343-.233-.841-2.416-3.536-2.52Z"/>
          </g>
        </g>
        <path class="cls-25" d="M40.867,131.446c.429-1.367,2.079-3.052,3.312-3.947s2.819-1.481,4.456-1.445c.686.015,1.391.146,1.961.485.149.089.301.196.48.204.166.008.327-.057.457-.143,3.581-2.353,7.06-1.533,9.708.213,2.648,1.746,4.389,6.163,3.913,8.95-.157.917-.963,1.994-1.844,2.519s-2.712-.709-3.192-1.553c-.689.382-1.691.301-2.31-.187-.415.112-.85-.246-.923-.618s.095-.738.229-1.093c.33-.875.59-1.915.029-2.719-1.617-2.317-4.467-1.11-6.037-.536-.999.365-2.295.357-2.577,1.245-.225.713.269,2.175-1.184,1.888-.428-.085-.971-.205-1.222.095-.076.091-.105.204-.157.307-.3.59.011.797-.725.939-.853.164-.638.31-1.072.955-.617.915-.33,2.079-.026,3.122,0,0-.505-1.23-3.188-.9,0,0-1.772-2.415-.09-7.781Z"/>
        <path class="cls-30" d="M54.052,127.565c3.726-1.021,6.256,1.986,6.701,2.816,1.094,2.037.706,4.669-.629,6.557"/>
        <path class="cls-30" d="M47.836,128.788c-.757.526-1.225,1.39-1.453,2.284s-.24,1.825-.251,2.747c-.004.331-.004.679.158.968"/>
        <path class="cls-30" d="M44.857,136.038c-.287-.845-.276-1.758-.262-2.65.005-.333.021-.695.235-.95"/>
        <path class="cls-20" d="M54.106,132.59c.123-.377.492-.616.859-.766.451-.186.937-.285,1.425-.292"/>
        <path class="cls-20" d="M56.079,133.007c.222-.352.629-.578,1.045-.581"/>
        <path class="cls-21" d="M41.355,162.182c1.464-.752,2.727-1.89,3.626-3.268.961,1.899,2.23,5.236,3.543,6.912-1.059-5.428-5.685-14.696-5.685-14.696l-1.745.587s.643,7.576-.071,10.792"/>
        <path class="cls-21" d="M59.119,162.717c-1.464-.752-2.727-1.89-3.626-3.268-.961,1.899-1.623,4.524-2.937,6.199,0,0,3.589-9.291,3.12-11.716,0,0,2.774-1.419,2.93-.715l.513,9.5Z"/>
        <polygon class="cls-28" points="145.744 210.034 138.302 210.034 138.302 189.29 146.332 189.29 145.744 210.034"/>
        <polygon class="cls-28" points="110.558 209.977 103.117 209.977 102.528 189.233 110.558 189.233 110.558 209.977"/>
        <path class="cls-49" d="M106.705,157.481c1.738-1.604,1.544-2.923,2.828-4.924.943-1.469.976-4.458,1.743-6.03,1.33-2.727,4.266-6.739,6.694-8.786,3.824-3.224,13.306-3.011,16.338,2.414,1.299,2.325,2.501,4.104,3.434,6.585,1.184,3.151,2.521,8.229,1.852,11.322-.407,1.877,3.392,4.334,5.317,7.099,1.925,2.766,1.778,5.826,1.664,7.746-.188,3.17,1.855,6.532,3.725,8.705,1.492,1.733,7.358,3.594-1.004,5.007-6.969,1.178-39.713.838-44.022-1.646-5.764-3.322-3.689-18.54.268-25.152"/>
        <path class="cls-21" d="M108.886,166.286s-7.328,8.695-9.275,23.925h9.325l25.638-2.183,3.415,2.8,11.238.049s-3.584-22.071-10.226-24.705l-11.073-2.577-10.63.109-8.412,2.582Z"/>
        <path class="cls-12" d="M116.045,139.606l-3.208,4.045s-9.463-2.994.242-5.196c0,0,2.867.52,2.966,1.151Z"/>
        <path class="cls-28" d="M117.912,156.694s-.129,6.248-.614,7.01c0,0,6.396,4.601,10.63-.109,0,0-.644-4.914-.122-7.23l-9.894.329Z"/>
        <path class="cls-20" d="M127.849,135.973c-2.286-1.751-8.141.154-10.236,2.08-2.51,2.308-4.587,5.466-6.177,8.466-1.406,2.652-1.444,6.21-2.969,8.819-.895,1.532-2.184,2.799-3.001,4.283-1.465,2.66-2.388,5.699-2.817,8.705-.264,1.849-.355,3.769-1.155,5.457"/>
        <path class="cls-28" d="M115.548,146.401c-1.729-1.583-4.098.678-3.511,2.828.162.594,1.733,2.313,2.244,1.242"/>
        <path class="cls-20" d="M127.986,136.003c1.238-.224,3.622,1.176,4.193,1.709,2.785,2.604,4.295,6.266,5.579,9.856.778,2.176,1.507,4.394,1.719,6.695.201,2.174-.034,4.503,1.041,6.403.921,1.628,2.637,2.624,3.891,4.012,1.682,1.859,2.49,4.476,2.151,6.96-.074.541.278,4.313,1.857,7.296,1.588,2.998,4.407,5.207,5.322,5.618"/>
        <path class="cls-28" d="M117.8,140.4c-1.108,1.244-2.036,2.29-2.421,3.244-1.606,4.164-2.516,6.946-2.204,11.064.188,2.478,2.042,5.457,5.698,6.479,1.255.351,5.132.97,8.584-1.368l.405-.25c1.014-.686,1.911-2.328,2.588-3.79l1.568-2.515,1.697-5.035-1.614-6.149-5.101-3.593-4.822-.808s-4.207,2.53-4.377,2.722Z"/>
        <path class="cls-28" d="M130.937,151.104c3.246-.519,4.497,3.551,2.275,5.525-.614.545-2.379,1.554-3.836-.156"/>
        <path class="cls-49" d="M118.365,141.755c.654-.521,1.444-.838,2.221-1.147.433-.173.875-.347,1.339-.377.369-.023.737.046,1.107.041.336-.004.668-.068,1.004-.072,1.101-.013,2.016,1.608,2.72,2.454.704.847,1.444,1.896,1.87,2.912.793,1.887,1.393,2.785,2.185,4.672.076.182.16.374.321.489.154.111.352.132.541.15.705.067,1.41.134,2.114.202.191.018.395.034.562-.06.172-.097.264-.288.341-.469.903-2.142.968-4.624.18-6.811-.788-2.187-2.423-4.056-4.484-5.129-1.218-.634-2.558-.992-3.885-1.344-1.109-.295-2.251-.592-3.389-.452-1.063.131-2.044.636-2.944,1.217-1.936,1.249-4.281,2.977-5.359,5.029-.458.872-.332,2.12,1.092,1.284.993-.583,1.561-1.868,2.466-2.587Z"/>
        <path class="cls-20" d="M129.295,146.153c.705,1.495,1.17,3.089,1.632,4.675"/>
        <path class="cls-49" d="M113.485,145.456s3.434,1.326,4.143,1.521c0,0,1.971-4.083,2.774-4.735,0,0-1.168,4.458-1.137,5.038,0,0,10.436,3.113,11.87,3.138l1.961-.179s.105-12.439-10.101-11.857c0,0-7.045-1.371-9.509,7.073Z"/>
        <path class="cls-20" d="M114.112,146.085s2.8.737,3.509.933c0,0,1.971-4.083,2.774-4.735,0,0-1.168,4.458-1.137,5.038,0,0,11.773,3.648,14.104,3.866"/>
        <path class="cls-6" d="M118.077,147.488c.374-.26.911-.199,1.207.138"/>
        <path class="cls-6" d="M124.674,149.287c.408-.204.93-.065,1.174.311"/>
        <circle class="cls-41" cx="118.416" cy="150.268" r=".857"/>
        <circle class="cls-41" cx="124.868" cy="151.995" r=".857"/>
        <path class="cls-20" d="M120.376,151.279c-.738.618-1.581,1.486-.041,2.312"/>
        <circle class="cls-53" cx="124.749" cy="154.881" r="1.629"/>
        <circle class="cls-53" cx="116.793" cy="152.574" r="1.629"/>
        <path class="cls-20" d="M130.456,153.88c.431-.195.975-.106,1.322.215"/>
        <path class="cls-3" d="M116.752,137.541s3.136-7.923,14.105-3.004c0,0,8.608,3.821,6.97,13.09,0,0-3.638-1.286-4.861-1.544l-16.213-8.543Z"/>
        <path class="cls-3" d="M111.967,138.632s10.148,2.57,12.764,6.664c0,0,5.407,3.936,9.139.814,0,0-7.599-11.419-21.903-7.478Z"/>
        <path class="cls-35" d="M117.298,163.727s-4.404,1.016-8.412,3.035l-.115,51.33h29.842l.586-52.167s-8.146-2.664-11.272-2.327l-6.332,14.47-4.298-14.341Z"/>
        <path class="cls-37" d="M126.583,137.298l.921-2.021c.071-.155.171-.253.302-.294.131-.041.256-.033.378.022s.21.145.265.271.047.265-.023.42l-1.454,3.192c-.035.078-.081.138-.138.182-.057.043-.118.075-.184.094-.066.019-.134.027-.203.024-.07-.004-.134-.016-.193-.039-.126-.045-.242-.121-.348-.229-.106-.108-.167-.23-.182-.367l-.239-2.751-1.103,2.422-.922-.42,1.632-3.582c.035-.078.082-.14.14-.187.058-.047.121-.08.189-.1.068-.02.138-.028.21-.024.072.004.138.016.198.035.128.042.242.117.344.224.102.108.16.23.175.368l.234,2.762Z"/>
        <circle class="cls-37" cx="130.62" cy="133.965" r=".841"/>
        <ellipse class="cls-21" cx="120.135" cy="157.026" rx="1.431" ry="2.042"/>
        <polyline class="cls-20" points="115.146 164.357 121.208 182.334 130.583 164.071"/>
        <g>
          <circle class="cls-12" cx="131.717" cy="177.387" r="4.422"/>
          <circle class="cls-33" cx="131.717" cy="176.712" r="4.422"/>
          <g>
            <path class="cls-20" d="M133.253,177.192c-.199.21-.576.444-1.036.626-.746.295-1.428.339-1.523.099"/>
            <circle class="cls-41" cx="130.163" cy="176.121" r=".501"/>
            <circle class="cls-41" cx="133.07" cy="175.747" r=".501"/>
          </g>
        </g>
        <path class="cls-8" d="M87.313,163.745s18.658,1.8,28.24,19.899l13.202,50.109-78.825,1.499-5.811-49.533s1.617-15.955,18.326-20.927c0,0,19.961-2.112,24.869-1.047Z"/>
        <g>
          <g>
            <path class="cls-12" d="M69.623,143.517s-6.873,2.62-2.523,7.733l8.519-5.933s-3.185-2.948-5.996-1.801Z"/>
            <path class="cls-34" d="M65.35,156.643c-2.779-1.392-4.982,2.35-3.453,4.881.422.699,3.05,2.322,3.312.771"/>
            <path class="cls-34" d="M89.983,154.977l.584,7.401-3.212,3.561c-.514,2.063-1.758,4.031-2.902,5.171l-.463.424c-3.893,3.888-9.401,4.17-11.111,3.985-3.605-.39-7.2-3.547-8.311-6.633-1.807-5.018-1.19-9.825.237-14.931.262-1.333,2.071-4.812,3.274-5.897,0,0,3.502-5.042,9.525-4.589,0,0,8.622-.463,12.13,10.228.136.413.214.848.248,1.281Z"/>
            <circle class="cls-41" cx="78.684" cy="159.845" r=".965"/>
            <circle class="cls-41" cx="70.845" cy="159.332" r=".965"/>
            <path class="cls-20" d="M74.326,157.939s-4.099,5.235-.583,5.357"/>
            <g>
              <path class="cls-34" d="M88.343,158.165c3.888-1.809,6.755,2.434,4.671,5.703-.576.903-2.223,2.637-4.661,1.01"/>
              <path class="cls-20" d="M89.716,161.629c.404-.338,1.014-.406,1.482-.165"/>
            </g>
            <path class="cls-17" d="M89.908,156.721s-3.568-10.111-9.973-10.487c0,0-5.726,3.753-8.39-.256,0,0-4.372,2.705-5.28,4.439,0,0,2.56-7.547,12.188-7.958,0,0,10.581,1.952,11.454,14.263Z"/>
            <path class="cls-31" d="M70.902,142.636s-.348-5.025,7.286-5.801c0,0,8.954,1.473,9.27,6.678,0,0,.765,3.498.429,6.203,0,0-5.386-7.754-16.985-7.079Z"/>
            <path class="cls-31" d="M82.903,145.501s-3.317,4.79-6.995,2.358c0,0-3.111-5.53-7.574-3.552,0,0,7.517-7.473,14.569,1.194Z"/>
            <path class="cls-29" d="M78.588,155.419s.63-.156,1.28.361"/>
            <path class="cls-29" d="M69.802,155.258s.457-.261,1.08-.001"/>
            <path class="cls-17" d="M88.97,159.794s4.156,11.565,3.714,26.158c-.1,3.295-2.729,6.219-5.351,8.454-.255.218-.592.442-.913.334.135-.421.173-.868.109-1.3-1.168,1.118-2.445,2.136-3.809,3.038l.232-2.435c-.745,1.141-2.209,1.837-3.406,2.567-.573.349-1.433.655-1.837.149-.411-.515.076-1.481-.524-1.794-.534.235-1.847.86-2.381,1.095l-1.142-2.495c-1.342,1.287-1.962,2.132-3.415,3.309-.467-.549-.934-1.099-1.402-1.648-.308.58-.869,1.041-1.523,1.252-.977-1.17-1.744-2.495-2.259-3.904l-.229,1.746s-8.936-14.691-.911-35.884c.213,1.459-.309,5.145,1.542,5.722,2.811.876,3.768-.594,5.411-.311.488.084,1.063.345,1.49.579.236.129.43.324.683.421.57.219,1.202-.117,1.806-.267.996-.248,2.037-.353,3.056-.272,1.515.12,2.451,1.233,5.742.666,4.161-.716,4.477-7.157,4.696-6.871s.62,1.694.62,1.694Z"/>
          </g>
          <ellipse class="cls-13" cx="77.162" cy="139.366" rx="1.152" ry=".953" transform="translate(-3.561 2.032) rotate(-1.475)"/>
          <path class="cls-56" d="M71.517,146.683s-6.235,7.224-6.11,16.619c0,0-.962,1.192-1.133-5.458,0,0,.97-5.395,2.947-7.956,0,0,2.674-2.696,4.296-3.204Z"/>
          <path class="cls-54" d="M65.09,164.594s-4.6,11.793.058,27.201c0,0-.633.367-.615,1.067,0,0-6.987-15.172-.883-32.024,0,0,.428,3.024,1.439,3.757Z"/>
          <path class="cls-20" d="M73.617,193.107s-2.036-3.556-3.075-9.465"/>
          <path class="cls-20" d="M77.141,194.507s-1.521-4.446-1.937-7.369"/>
          <g>
            <path class="cls-12" d="M69.353,166.914s3.296-.921,9.783-.832c0,0-3.069,13.399-9.783.832Z"/>
            <path class="cls-48" d="M78.07,168.217s-1.804,5.591-5.15,2.972c-.446-.349,1.425-3.132,5.15-2.972Z"/>
          </g>
        </g>
        <g>
          <g>
            <path class="cls-2" d="M34.612,180.099c-1.274-.487-2.467-.236-3.226,1.58-.138.331-.229.714-.519.925-.291.211-.686.179-1.044.145-1.13-.106-2.294-.122-3.369.241s-2.055,1.161-2.384,2.246c-.193.638-.165,1.359-.535,1.914-.147.22-.348.398-.546.574-2.151,1.901-7.555,5.22-11.416,18.283,0,0-2.614,10.976,7.339,12.749,0,0,.597.043,1.73-.077-.043,2.422-.08,5.494-.106,8.004-.027,2.557,2.039,4.642,4.596,4.642h27.232c2.542,0,4.601-2.061,4.596-4.603-.007-3.641-.016-8.061-.016-8.061,10.231-.089,9.267-11.82,9.267-11.82-1.543-12.804-8.463-16.234-9.462-18.184-.463-.904-.617-1.938-1.064-2.85-1.036-2.115-3.754-3.23-5.977-2.454.47-.876-.056-2.03-.905-2.548-3.024-1.846-6.957,1.882-8.852,3.999-.952-1.131-3.253-3.908-5.339-4.705Z"/>
            <path class="cls-2" d="M11.571,206.007s-2.614,10.976,7.339,12.749c0,0,7.729.573,20.518-8.063l-2.864-9.162s-12.011.612-12.994.836"/>
            <path class="cls-28" d="M38.36,200.007s-2.792-1.795-8.788,2.013h3.214l3.409,5.497,2.165-7.51Z"/>
            <line class="cls-20" x1="23.308" y1="193.918" x2="23.395" y2="202.522"/>
            <line class="cls-20" x1="53.632" y1="192.81" x2="53.639" y2="199.835"/>
            <path class="cls-28" d="M45.995,200.585c.759-.665,1.524-1.333,2.389-1.852s2.01-1.371,2.855-.892c.066.542-.168,1.086-.515,1.507s-1.159,1.112-1.605,1.426c.605-.621,1.683-1.504,2.467-1.874.223-.105.464-.201.709-.172s.486.225.481.472c-.003.139-.079.264-.158.378-.308.447-.946,1.186-1.378,1.514.491-.371,1.361-1.084,1.961-1.219.179-.04.361.053.469.201.13.178-.015.421-.155.591-.207.251-.415.503-.622.754.218-.23.451-.469.755-.555s.696.049.772.356c.091.367-.283.668-.608.861l-7.816-1.495Z"/>
            <path class="cls-2" d="M54.011,202.326c-.942-.314-15.847-2.532-15.847-2.532l-2.382,7.544c11.687,9.629,21.162,11.323,21.162,11.323,10.231-.089,9.267-11.82,9.267-11.82"/>
            <path class="cls-20" d="M46.531,190.896c3.054-.765,5.909-2.306,8.225-4.438"/>
            <path class="cls-20" d="M32.043,191.574c-3.054-.765-5.909-2.306-8.225-4.438"/>
            <path class="cls-20" d="M23.65,202.316c-2.189.408-4.323,1.108-6.327,2.077"/>
            <path class="cls-20" d="M53.806,202.699c2.356.38,4.719.713,7.088.998"/>
            <path class="cls-20" d="M26.332,224.917s1.503-2.422,2.088-5.344l16.951-.418s1.253,4.927,4.259,6.096"/>
            <path class="cls-21" d="M41.876,189.658c1.487.394,2.699,1.704,3.086,3.336.221.929.153,2.273-.772,2.998-.75.586-1.842.499-2.598-.21-.4-.376-.702-.898-.903-1.56-.275.476-.612.917-1.033,1.287-.736.651-1.591.872-2.283.582-.872-.36-1.376-1.517-1.147-2.636.162-.794.651-1.548,1.416-2.179.975-.803,2.129-1.249,3.147-1.642l1.086.023ZM42.992,194.9c.168.022.329-.01.446-.102.312-.245.354-.887.233-1.394-.241-1.015-.976-1.877-1.871-2.225-.095.675-.084,1.368.035,2.031.121.67.336,1.154.639,1.44.15.141.338.227.519.25ZM37.982,194.739c.28.036.627-.166.859-.371.781-.688,1.19-1.755,1.515-3.009-.689.287-1.361.619-1.933,1.09-.345.286-.782.743-.895,1.294-.083.406.076.857.341.966.035.015.073.024.112.029Z"/>
          </g>
          <path class="cls-28" d="M35.874,178.485s-.139,6.714-.66,7.533c0,0,6.873,4.944,11.423-.117,0,0-.692-5.281-.131-7.769l-10.632.354Z"/>
          <g>
            <g>
              <path class="cls-28" d="M47.918,161.773c.987,1.544,1.814,2.84,2.066,3.944,1.021,4.801,1.526,7.981.472,12.399-.634,2.659-3.166,5.571-7.313,6.046-1.424.163-5.742.162-9.085-2.977l-.396-.341c-.982-.921-1.671-2.861-2.152-4.566l-1.267-3.004-.968-5.763,2.821-6.398,6.164-3.017,5.377-.04s4.129,3.478,4.281,3.716Z"/>
              <circle class="cls-41" cx="45.535" cy="172.382" r=".942"/>
              <circle class="cls-41" cx="38.228" cy="173.138" r=".942"/>
              <path class="cls-20" d="M43.231,173.141c.694.8,1.459,1.888-.357,2.518"/>
              <circle class="cls-53" cx="37.855" cy="176.293" r="1.792"/>
              <circle class="cls-53" cx="46.897" cy="175.169" r="1.792"/>
              <path class="cls-7" d="M35.141,165.754c-3.263,11.125,2.01,23.008,2.01,23.008-6.226,1.105-9.92-6.143-9.92-6.143l-2.91,1.619c.45-.877,1.377-11.586,1.724-15.765.103-1.241.447-2.451,1.02-3.556,6.564-12.651,19.025-6.15,19.025-6.15,0,0,9.343,4.964,6.236,22.648,0,0,.046,2.138,1.065,3.192,0,0-3.884-.327-4.749-3.101,0,0,4.11-4.358,1.543-14.236"/>
              <path class="cls-28" d="M31.864,171.698c-3.435-1.127-5.413,2.71-3.343,5.24.572.699,2.097,1.945,3.546.557l-.204-5.797Z"/>
              <path class="cls-20" d="M34.434,166.024c-1.025,1.501-1.807,3.151-2.585,4.794"/>
              <path class="cls-51" d="M51.61,170.966s-3.661.376-4.465.466c0,0-1.431-4.776-2.191-5.624,0,0,.494,5.044.36,5.67,0,0-11.874,1.569-13.437,1.347l-.802-3.53s2.04-10.54,13.024-8.135c0,0,6.3.21,7.511,9.808Z"/>
              <path class="cls-20" d="M51.118,171.072s-3.17.314-3.973.404c0,0-1.431-4.776-2.191-5.624,0,0,.494,5.044.36,5.67,0,0-11.874,1.569-13.437,1.347"/>
              <path class="cls-20" d="M31.904,174.796c-.434-.286-1.04-.284-1.473.004"/>
              <g>
                <polyline class="cls-23" points="45.608 163.701 41.632 165.682 41.9 164.01 38.15 165.951 38.64 163.83 32.266 167.266"/>
                <circle class="cls-45" cx="47.546" cy="163.158" r=".705"/>
              </g>
            </g>
            <g>
              <path class="cls-12" d="M45.488,177.454s-2.205-.344-6.4.212c0,0,3.016,8.442,6.4-.212Z"/>
              <path class="cls-48" d="M39.943,178.967s1.597,3.482,3.564,1.529c.262-.261-1.163-1.919-3.564-1.529Z"/>
            </g>
          </g>
        </g>
        <path class="cls-13" d="M53.684,194.603c.157-.079.53-.353.66-.454.242-.186.383-.433.426-.739.075-.476.345-.762.81-.855.315-.064.59-.024.828.118.237.142.391.392.464.749l1.471,7.288c.034.169-.075.334-.244.368l-1.533.309c-.169.034-.334-.075-.368-.244l-.957-4.74c-.034-.169-.199-.278-.368-.244l-1.071.229-.118-1.784Z"/>
        <path class="cls-13" d="M61.127,193.455c-.086.019-.172.053-.258.104-.086.05-.159.117-.221.199-.061.083-.105.183-.131.3-.026.117-.022.251.011.403l.704,3.183c.035.159.089.286.162.38.073.095.155.167.246.216s.185.077.283.083c.099.006.191,0,.277-.02s.172-.052.259-.099c.087-.047.161-.112.222-.195.061-.083.105-.183.131-.3.026-.117.022-.254-.013-.413l-.379-1.714,1.833,3.357c-.199.276-.306.45-.621.638s-.668.325-1.058.411-.768.111-1.133.074-.696-.139-.993-.306c-.297-.166-.553-.401-.769-.703-.216-.302-.372-.672-.469-1.108l-.643-2.906c-.096-.436-.11-.835-.041-1.197.069-.362.202-.683.401-.962.198-.28.455-.513.77-.701l1.431,1.275Z"/>
        <path class="cls-13" d="M15.933,201.774c-.357-.179-.665-.399-.925-.658s-.452-.547-.577-.864c-.125-.317-.176-.66-.152-1.031.023-.371.135-.756.336-1.155l1.337-2.659c.201-.399.442-.717.724-.954.282-.237.588-.401.919-.493.33-.092.677-.111,1.04-.057s.723.171,1.08.35.665.399.925.658.451.549.575.869c.123.32.174.663.152,1.031-.022.368-.133.751-.334,1.15l-1.337,2.659c-.201.399-.443.719-.726.959-.284.24-.59.404-.919.493-.329.089-.675.106-1.038.052s-.723-.171-1.08-.35ZM16.709,200.232c.079.04.166.069.263.087.097.019.195.015.295-.01.1-.026.197-.075.291-.149.094-.074.178-.184.251-.329l1.464-2.912c.07-.139.107-.268.11-.388.003-.119-.015-.227-.053-.323-.04-.095-.094-.178-.165-.248-.071-.07-.146-.124-.225-.164s-.167-.067-.266-.082c-.098-.016-.197-.01-.297.015-.1.026-.197.076-.291.149-.094.074-.176.181-.246.32l-1.464,2.912c-.073.145-.111.278-.114.397-.003.12.015.227.054.323s.095.177.167.243c.073.067.148.12.227.159Z"/>
        <g>
          <g>
            <path class="cls-22" d="M115.612,219.536l-1.668-32.591c-2.569-1.401-8.802-2.32-8.802-2.32-8.802-.685-16.653,3.955-16.653,3.955l-.934,30.127s26.945,1.22,28.058.829Z"/>
            <g>
              <circle class="cls-55" cx="99.47" cy="205.885" r="8.667"/>
              <g>
                <path class="cls-47" d="M104.14,204.419c-.053,0-.098-.017-.135-.052s-.06-.07-.067-.104l-.383-1.272c-.026-.077-.034-.126-.026-.148s.037-.033.086-.033h.129v.017c0,.007.001.018.004.033.003.015.006.029.01.044l.274.933.214-.859c.018-.062.039-.106.061-.13.023-.025.067-.037.133-.037h.451c-.009.009-.017.021-.025.036s-.014.033-.019.055l-.438,1.426c-.009.023-.012.042-.009.055.003.013,0,.026-.007.038h-.252Z"/>
                <path class="cls-47" d="M102.273,204.437c-.033-.006-.066-.018-.101-.037-.044-.026-.07-.052-.079-.078s-.014-.064-.014-.114v-.147c.02.018.029.028.027.029s.007.001.027.001c.029,0,.05-.007.063-.022.013-.015.019-.037.019-.066v-.813c0-.144.045-.251.136-.321.09-.07.228-.105.414-.105.064,0,.129.003.195.009.067.007.131.018.193.034.06.018.109.038.148.059.038.021.052.05.041.086-.02.029-.052.057-.097.085s-.082.037-.111.027c-.028-.009-.056-.017-.085-.023-.029-.007-.061-.01-.096-.01-.066,0-.118.016-.157.049-.039.033-.059.074-.059.123s.016.089.047.119c.031.03.082.058.153.083.097.031.169.056.217.074.048.018.102.058.16.118.04.044.071.096.092.156.021.06.031.13.031.21,0,.078-.01.147-.029.206-.019.059-.046.113-.081.16-.038.046-.077.076-.116.092s-.09.023-.152.023c-.071,0-.129-.009-.175-.027-.046-.018-.098-.058-.156-.118-.053.056-.102.095-.148.115-.046.02-.105.03-.178.03-.055,0-.099-.003-.131-.01ZM102.738,203.968c0,.035.009.062.026.082.017.02.042.03.075.03.035,0,.063-.015.085-.045.022-.03.033-.069.033-.117,0-.069-.017-.133-.051-.193-.034-.059-.09-.111-.168-.157v.399Z"/>
                <path class="cls-47" d="M101.456,204.397c-.088.033-.187.049-.298.049-.042,0-.084-.002-.127-.005-.043-.004-.084-.012-.125-.025-.06-.02-.098-.045-.113-.075-.016-.03-.023-.065-.023-.106v-.169c.038.026.083.048.133.068.05.02.1.03.149.03.108,0,.188-.05.241-.149s.079-.243.079-.431-.026-.316-.079-.41-.135-.142-.246-.142c-.056,0-.104.009-.144.027s-.083.049-.133.093v-.183c0-.033.007-.066.02-.101.014-.035.046-.059.097-.071.042-.009.085-.017.13-.023.045-.006.086-.009.124-.009.108,0,.205.016.293.048.088.032.166.083.235.152.084.079.146.171.188.278.041.107.062.233.062.379,0,.135-.019.254-.056.357s-.094.192-.171.267c-.069.07-.148.121-.235.153Z"/>
                <path class="cls-47" d="M99.429,204.437c-.033-.006-.066-.018-.101-.037-.044-.026-.07-.052-.079-.078s-.014-.064-.014-.114v-.147c.02.018.029.028.027.029s.007.001.027.001c.029,0,.05-.007.063-.022.013-.015.019-.037.019-.066v-.813c0-.144.045-.251.136-.321.09-.07.228-.105.414-.105.064,0,.129.003.195.009.067.007.131.018.193.034.06.018.109.038.148.059.038.021.052.05.041.086-.02.029-.052.057-.097.085s-.082.037-.111.027c-.028-.009-.056-.017-.085-.023-.029-.007-.061-.01-.096-.01-.066,0-.118.016-.157.049-.039.033-.059.074-.059.123,0,.049.016.089.047.119.031.03.082.058.153.083.097.031.169.056.217.074.048.018.102.058.16.118.04.044.071.096.092.156.021.06.031.13.031.21,0,.078-.01.147-.029.206-.019.059-.046.113-.081.16-.038.046-.077.076-.116.092s-.09.023-.152.023c-.071,0-.129-.009-.175-.027-.046-.018-.098-.058-.156-.118-.053.056-.102.095-.148.115-.046.02-.105.03-.178.03-.055,0-.099-.003-.131-.01ZM99.895,203.968c0,.035.009.062.026.082.017.02.042.03.075.03.035,0,.063-.015.085-.045.022-.03.033-.069.033-.117,0-.069-.017-.133-.051-.193-.034-.059-.09-.111-.168-.157v.399Z"/>
                <path class="cls-47" d="M99.006,204.121c0,.051-.006.095-.018.132s-.03.066-.053.088c-.038.04-.083.068-.133.083s-.11.023-.179.023c-.031,0-.062-.003-.092-.008-.03-.005-.06-.01-.089-.014-.062-.013-.101-.034-.118-.064-.017-.03-.025-.07-.025-.119v-.121c.015.007.029.014.044.019.015.005.029.008.044.008.029,0,.053-.009.071-.028.018-.018.027-.044.027-.079v-.969s-.074,0-.074,0c-.038,0-.066-.012-.085-.036s-.027-.058-.027-.104c0-.037.009-.065.027-.086.018-.021.048-.031.09-.031h.068s0-.06,0-.06c-.009-.075-.005-.121.014-.14.018-.018.063-.024.134-.016l.372.041v.175h.148v.104c0,.051-.009.089-.026.115s-.044.038-.081.038h-.041s0,1.048,0,1.048Z"/>
                <path class="cls-47" d="M98.099,202.816s-.01.017-.02.041c-.01.024-.015.046-.015.066v1.494h-.287c-.106,0-.171-.023-.195-.07-.025-.046-.037-.094-.037-.144v-1.168c-.002-.077.014-.132.048-.166.034-.034.08-.052.138-.053h.369ZM98.001,202.412c.042.03.063.074.063.133,0,.062-.021.107-.063.136-.042.029-.108.044-.197.044-.082,0-.144-.015-.186-.045-.042-.03-.063-.078-.063-.144,0-.059.021-.102.063-.13.042-.029.106-.043.192-.043.086.002.149.018.192.048Z"/>
                <path class="cls-47" d="M96.925,202.853c.098.057.177.148.239.272.029.064.052.136.068.215.017.079.025.164.025.253,0,.155-.019.289-.057.402-.038.113-.097.207-.175.282-.064.062-.132.106-.204.131-.072.026-.161.038-.267.038-.107,0-.199-.013-.274-.04-.075-.026-.142-.072-.202-.136-.077-.075-.134-.168-.171-.28s-.056-.24-.056-.384c0-.14.016-.264.049-.371.033-.107.084-.198.153-.273.062-.069.133-.12.212-.152.079-.032.173-.048.28-.048.155.002.281.031.379.089ZM96.431,203.143c-.022.086-.033.241-.033.464s.011.375.033.462.063.132.123.132c.035,0,.063-.012.084-.036.021-.024.035-.055.042-.096.009-.056.017-.123.022-.199.005-.077.008-.165.008-.265,0-.221-.011-.375-.033-.463-.022-.087-.063-.131-.123-.131-.06.002-.101.046-.123.133Z"/>
                <path class="cls-47" d="M95.587,202.816c-.006.007-.011.019-.015.037-.004.017-.007.035-.007.053v1.425c.002.02.005.037.008.052.004.015.007.026.011.036h-.364c-.075,0-.123-.019-.144-.056-.021-.037-.031-.087-.031-.149v-.873c0-.051-.013-.092-.038-.122-.026-.03-.061-.045-.107-.045-.04,0-.069.013-.088.038s-.028.066-.028.123v1.083h-.336c-.071,0-.12-.014-.146-.042-.026-.029-.04-.079-.04-.152v-1.021c0-.064.006-.121.018-.172s.028-.091.048-.121c.036-.053.081-.09.133-.11.052-.021.113-.032.182-.032.078,0,.149.016.212.048.063.032.132.091.207.177v-.033c0-.047.012-.083.037-.108s.061-.037.111-.037h.378Z"/>
                <path class="cls-47" d="M103.252,207.141c-.088.033-.187.049-.298.049-.042,0-.084-.002-.127-.005-.043-.004-.084-.012-.125-.025-.06-.02-.098-.045-.113-.075-.016-.03-.023-.065-.023-.106v-.169c.038.026.083.048.133.068.05.02.1.03.149.03.108,0,.188-.05.241-.149s.079-.243.079-.431c0-.179-.026-.316-.079-.41s-.135-.142-.246-.142c-.056,0-.104.009-.144.027s-.083.049-.133.093v-.183c0-.033.007-.066.02-.101s.046-.059.097-.071c.042-.009.085-.017.13-.023.045-.006.086-.009.124-.009.108,0,.205.016.293.048.088.032.166.083.235.152.084.079.146.171.188.278.041.107.062.233.062.379,0,.135-.019.254-.056.357s-.094.192-.171.267c-.069.07-.148.121-.235.153Z"/>
                <path class="cls-47" d="M101.781,206.074c0-.047-.012-.085-.037-.115-.025-.029-.059-.044-.103-.044-.042,0-.074.015-.094.044-.021.029-.031.072-.031.129v.988c0,.018.002.035.006.049.004.015.007.027.011.038h-.317c-.088,0-.146-.022-.177-.066-.03-.044-.045-.099-.045-.164v-.999c0-.071.008-.131.023-.18.016-.049.039-.09.07-.123.033-.04.076-.07.129-.09.053-.02.109-.03.169-.03.068,0,.132.015.193.044.061.029.129.081.204.156v-.4c-.006-.045.004-.094.029-.145s.074-.077.149-.077h.372c-.009.015-.016.03-.02.046-.005.017-.007.035-.007.055v1.885c0,.018.001.035.004.051.003.015.006.028.01.037h-.304c-.102,0-.167-.018-.196-.053-.028-.036-.041-.094-.037-.174v-.862Z"/>
                <path class="cls-47" d="M99.533,207.163c-.088,0-.141-.015-.16-.047-.019-.031-.029-.077-.029-.14l-.003-1.226c0-.062.013-.11.04-.142.026-.033.066-.049.119-.049h.383c-.004.009-.007.022-.011.037-.004.015-.006.033-.006.053v.991c0,.042.012.077.037.104s.056.041.094.041c.042,0,.074-.012.096-.037.022-.025.033-.062.033-.11v-.887c0-.066.012-.114.037-.145.025-.031.066-.046.125-.046h.38c-.006.005-.011.017-.015.036-.004.018-.007.037-.007.055v1.07c0,.084-.006.151-.018.201s-.032.095-.061.135c-.037.046-.079.08-.126.101-.048.022-.103.033-.167.033-.08,0-.15-.013-.209-.038-.059-.026-.132-.081-.218-.167v.178h-.315Z"/>
                <path class="cls-47" d="M99.014,205.56c-.006.007-.01.019-.014.036-.004.016-.006.034-.006.055v1.425c.002.018.004.035.007.051.003.015.006.028.01.037h-.364c-.073,0-.12-.016-.141-.048-.021-.032-.031-.082-.031-.152v-.777c0-.071-.015-.132-.046-.183s-.074-.077-.129-.077c-.044,0-.08-.007-.108-.021-.028-.014-.042-.052-.042-.114v-.279c.079.002.144.022.196.062s.101.125.146.256v-.104c0-.053.011-.093.031-.122.021-.028.06-.042.116-.042l.375-.003Z"/>
                <path class="cls-47" d="M97.538,207.141c-.088.033-.187.049-.298.049-.042,0-.084-.002-.127-.005-.043-.004-.084-.012-.125-.025-.06-.02-.098-.045-.113-.075-.016-.03-.023-.065-.023-.106v-.169c.038.026.083.048.133.068.05.02.1.03.149.03.108,0,.188-.05.241-.149s.079-.243.079-.431c0-.179-.026-.316-.079-.41s-.135-.142-.246-.142c-.056,0-.104.009-.144.027s-.083.049-.133.093v-.183c0-.033.007-.066.02-.101s.046-.059.097-.071c.042-.009.085-.017.13-.023.045-.006.086-.009.124-.009.108,0,.205.016.293.048.088.032.166.083.235.152.084.079.146.171.188.278.041.107.062.233.062.379,0,.135-.019.254-.056.357s-.094.192-.171.267c-.069.07-.148.121-.235.153Z"/>
                <path class="cls-47" d="M96.067,206.074c0-.047-.012-.085-.037-.115-.025-.029-.059-.044-.103-.044-.042,0-.074.015-.094.044-.021.029-.031.072-.031.129v.988c0,.018.002.035.006.049.004.015.007.027.011.038h-.317c-.088,0-.146-.022-.177-.066-.03-.044-.045-.099-.045-.164v-.999c0-.071.008-.131.023-.18.016-.049.039-.09.07-.123.033-.04.076-.07.129-.09.053-.02.109-.03.169-.03.068,0,.132.015.193.044.061.029.129.081.204.156v-.4c-.006-.045.004-.094.029-.145s.074-.077.149-.077h.372c-.009.015-.016.03-.02.046-.005.017-.007.035-.007.055v1.885c0,.018.001.035.004.051.003.015.006.028.01.037h-.304c-.102,0-.167-.018-.196-.053-.028-.036-.041-.094-.037-.174v-.862Z"/>
                <path class="cls-47" d="M102.966,209.448c-.028.026-.042.056-.042.089,0,.04.016.074.046.1.031.026.073.04.126.04.055,0,.11-.009.166-.027.056-.018.11-.045.163-.08.02-.015.04-.028.059-.041s.036-.028.051-.046l.038.178c.013.047.016.084.009.109-.006.026-.035.055-.086.088-.071.026-.138.044-.2.058-.062.012-.13.019-.203.019-.102,0-.192-.011-.268-.033-.077-.022-.143-.057-.2-.107-.06-.051-.105-.114-.135-.188-.03-.074-.045-.164-.045-.269,0-.06.006-.116.018-.168s.028-.096.048-.133c.046-.074.136-.138.271-.192.135-.053.215-.085.241-.096.029-.015.051-.032.064-.051.014-.019.02-.041.02-.064,0-.042-.017-.075-.052-.1-.035-.025-.082-.037-.142-.037-.036,0-.069.003-.098.01-.029.006-.057.017-.085.031-.053.031-.096.044-.13.04-.034-.004-.056-.032-.067-.083l-.033-.156c.084-.028.166-.049.246-.064.08-.016.154-.023.222-.023.049,0,.098.005.148.015s.099.025.151.045c.046.015.088.038.126.071s.073.071.104.115c.029.046.052.096.068.152.016.055.025.116.025.182,0,.079-.011.146-.033.201-.022.056-.053.102-.093.138-.037.035-.079.066-.127.096-.048.029-.129.065-.242.107-.057.024-.099.049-.127.075Z"/>
                <path class="cls-47" d="M101.795,209.885c-.088.033-.187.049-.298.049-.042,0-.084-.002-.127-.005-.043-.004-.084-.012-.125-.025-.06-.02-.098-.045-.113-.075-.016-.03-.023-.065-.023-.106v-.169c.038.026.083.048.133.068.05.02.1.03.149.03.108,0,.188-.05.241-.149s.079-.243.079-.431-.026-.316-.079-.41-.135-.142-.246-.142c-.056,0-.104.009-.144.027s-.083.049-.133.093v-.183c0-.033.007-.066.02-.101s.046-.059.097-.071c.042-.009.085-.017.13-.023.045-.006.086-.009.124-.009.108,0,.205.016.293.048.088.032.166.083.235.152.084.079.146.171.188.278.041.107.062.233.062.379s-.019.254-.056.357-.094.192-.171.267c-.069.07-.148.121-.235.153Z"/>
                <path class="cls-47" d="M100.324,208.817c0-.047-.012-.085-.037-.115-.025-.029-.059-.044-.103-.044-.042,0-.074.015-.094.044-.021.029-.031.072-.031.129v.988c0,.018.002.035.006.049.004.015.007.027.011.038h-.317c-.088,0-.146-.022-.177-.066-.03-.044-.045-.099-.045-.164v-.999c0-.071.008-.131.023-.18.016-.049.039-.09.07-.123.033-.04.076-.07.129-.09.053-.02.109-.03.169-.03.068,0,.132.015.193.044.061.029.129.081.204.156v-.4c-.006-.045.004-.094.029-.145s.074-.077.149-.077h.372c-.009.015-.016.03-.02.046-.005.017-.007.035-.007.055v1.885c0,.018.001.035.004.051.003.015.006.028.01.037h-.304c-.102,0-.167-.018-.196-.053-.028-.036-.041-.094-.037-.174v-.862Z"/>
                <path class="cls-47" d="M98.92,208.34c.098.057.177.148.239.272.029.064.052.136.068.215.017.079.025.164.025.253,0,.155-.019.289-.057.402-.038.113-.097.207-.175.282-.064.062-.132.106-.204.131-.072.026-.161.038-.267.038-.107,0-.199-.013-.274-.04-.075-.026-.142-.072-.202-.136-.077-.075-.134-.168-.171-.28s-.056-.24-.056-.384c0-.14.016-.264.049-.371.033-.107.084-.198.153-.273.062-.069.133-.12.212-.152.079-.032.173-.048.28-.048.155.002.281.031.379.089ZM98.426,208.63c-.022.086-.033.241-.033.464,0,.221.011.375.033.462s.063.132.123.132c.035,0,.063-.012.084-.036.021-.024.035-.055.042-.096.009-.056.017-.123.022-.199.005-.077.008-.165.008-.265,0-.221-.011-.375-.033-.463-.022-.087-.063-.131-.123-.131-.06.002-.101.046-.123.133Z"/>
                <path class="cls-47" d="M97.291,208.34c.098.057.177.148.239.272.029.064.052.136.068.215.017.079.025.164.025.253,0,.155-.019.289-.057.402-.038.113-.097.207-.175.282-.064.062-.132.106-.204.131-.072.026-.161.038-.267.038-.107,0-.199-.013-.274-.04-.075-.026-.142-.072-.202-.136-.077-.075-.134-.168-.171-.28s-.056-.24-.056-.384c0-.14.016-.264.049-.371.033-.107.084-.198.153-.273.062-.069.133-.12.212-.152.079-.032.173-.048.28-.048.155.002.281.031.379.089ZM96.797,208.63c-.022.086-.033.241-.033.464s.011.375.033.462.063.132.123.132c.035,0,.063-.012.084-.036.021-.024.035-.055.042-.096.009-.056.017-.123.022-.199.005-.077.008-.165.008-.265s-.011-.375-.033-.463c-.022-.087-.063-.131-.123-.131-.06.002-.101.046-.123.133Z"/>
                <path class="cls-47" d="M95.974,207.833c-.004.007-.011.018-.02.033-.01.015-.015.033-.015.055v1.986h-.315c-.075,0-.128-.019-.159-.056-.031-.037-.046-.09-.046-.157v-1.625c0-.06.012-.112.037-.157.025-.045.078-.071.16-.078h.358Z"/>
              </g>
            </g>
            <g>
              <path class="cls-15" d="M89.444,210.607c2.289-2.164,4.849-4.036,7.568-5.627,1.867-1.093,3.82-2.061,5.534-3.381s3.205-3.059,3.747-5.154c.542-2.095-.968-4.987-2.716-6.261-1.553-1.131-4.774-1.043-6.548-.306-1.774.737-3.32,2.765-4.561,4.231l-.642-.109c-.571-1.773-1.341-4.321-2.577-5.568-1.236-1.247-4.875-2.104-6.505-1.513-1.837.666-3.088,2.827-3.288,4.979s.492,4.261,1.498,6.043c1.006,1.781,2.317,3.302,3.52,4.915,1.751,2.348,3.285,4.913,4.504,7.672l.467.079Z"/>
              <path class="cls-16" d="M104.152,195.126c-.243-2.021-2.082-3.728-4.115-3.82"/>
            </g>
            <g>
              <path class="cls-28" d="M86.738,206.851c1.241-.692,2.295-1.715,3.023-2.935.515-.863.866-1.813,1.195-2.762.244-.703.477-1.41.7-2.121.111-.354.221-.727.154-1.092s-.374-.715-.745-.699c-.147.222-.294.445-.44.667-.045-.364.13-.715.217-1.071s.042-.811-.285-.978c-.262-.134-.597-.009-.793.211s-.286.512-.37.794c.167-.376.336-.762.362-1.172s-.12-.857-.466-1.08c-.579.293-1.025.836-1.202,1.46.399-.518.19-1.385-.402-1.663-.924.881-1.674,1.945-2.194,3.111-.324.727-.617,1.56-1.322,1.93-.653.343-1.702-.62-2.356-.961-.493-.258-.925-.482-1.203,0-.207.358.036,1.507.317,1.811.866.936.196,4.932,1.061,5.869,0,0-.337,10.829,5.762,10.404l.142-9.078-1.158-.643Z"/>
              <line class="cls-20" x1="88.089" y1="196.071" x2="86.802" y2="199.126"/>
              <line class="cls-20" x1="89.657" y1="196.364" x2="88.37" y2="199.419"/>
              <line class="cls-20" x1="90.94" y1="197.307" x2="89.653" y2="200.362"/>
            </g>
            <path class="cls-28" d="M118.265,199.09s10.976,33.163-14.012,10.743l3.27-4.087,4.204,1.752-1.518-6.889"/>
            <path class="cls-22" d="M113.945,186.946s4.32,2.452,5.488,12.144l-9.692,1.401-.701-3.97"/>
            <g>
              <path class="cls-28" d="M108.329,206.539c.185-1.262-2.626-4.18-2.441-5.442.06-.409.063-.933-.309-1.112-.502-.241-.935.409-1.196.9-.346.651-.917,1.257-1.649,1.342-.791.093-1.503-.429-2.181-.846-1.088-.668-2.308-1.121-3.568-1.327-.331.564-.014,1.397.608,1.599-.498-.415-1.173-.61-1.816-.525-.16.379-.028.831.226,1.155s.611.547.962.762c-.229-.185-.468-.375-.754-.446s-.633.015-.773.274c-.175.323.045.723.318.968s.616.435.785.761c-.247-.1-.494-.201-.74-.301-.316.196-.37.658-.22.997s.452.585.744.814c.586.46,1.178.911,1.776,1.354.808.598,1.634,1.183,2.547,1.604,1.29.595,2.738.843,4.153.713"/>
              <line class="cls-20" x1="97.593" y1="201.655" x2="100.381" y2="203.448"/>
              <line class="cls-20" x1="96.465" y1="202.783" x2="99.254" y2="204.576"/>
              <line class="cls-20" x1="95.939" y1="204.286" x2="98.728" y2="206.079"/>
            </g>
            <line class="cls-20" x1="111.726" y1="207.497" x2="118.148" y2="210.65"/>
          </g>
          <path class="cls-28" d="M104.418,180.818s-.264,5.205.477,5.578c0,0-4.853,3.65-8.078-.103,0,0,.482-3.909.082-5.752l7.519.277Z"/>
        </g>
        <g>
          <path class="cls-1" d="M89.929,168.55c.145-.703,1.242-5.346,5.825-5.925.893-.113,4.958-4.18,13.342.261,1.736.919,2.718,3.083,3.113,6.127.257,1.976.045,3.625-.981,6.886-.586,1.864-2.927,3.421-3.238,3.603-.465.272-1.686-4.335-2.182-4.382-2.612-.247-3.697-1.388-6.266-1.923-2.242-.467-4.463-.221-6.805-.185-1.28.02-3.288-2.137-2.808-4.463Z"/>
          <path class="cls-30" d="M92.137,172.847c.647.098,1.295-.176,1.843-.535s1.036-.806,1.609-1.122c.188-.104.391-.194.605-.196.437-.004.785.347,1.181.533.707.331,1.547.119,2.259-.201s1.394-.751,2.167-.862c.156-.023.317-.031.47.007.178.045.333.15.493.238.659.366,1.459.471,2.19.288.1-.025.204-.055.304-.033.099.022.179.09.258.152,1.189.932,3.111.721,4.07-.447"/>
          <path class="cls-1" d="M107.451,162.969c-.318-.596-.19-1.36.189-1.92s.971-.942,1.587-1.221c1.419-.643,3.027-.806,4.575-.625.788.092,1.586.28,2.242.727.562.383.988.934,1.351,1.508.775,1.225,1.31,2.602,1.564,4.03.083.463.168.986.553,1.257.214.151.484.193.743.225.994.126,2.242.043,2.662-.866.354,1.152-.008,2.442-.733,3.405s-1.773,1.637-2.866,2.145c-1.387.645-2.993,1.055-4.439.558-1.812-.622-2.872-2.453-3.773-4.143"/>
          <path class="cls-30" d="M109.693,163.859c.685-.598,1.733-.742,2.554-.35,1.12.535,1.62,1.818,2.175,2.928.269.538.578,1.066,1.018,1.476.812.757,2.054,1.018,3.102.652"/>
          <g>
            <g>
              <path class="cls-28" d="M92.499,172.761c-1.766-1.2-3.606,1.149-2.794,3.01.224.514,1.866,1.858,2.186.826"/>
              <path class="cls-28" d="M93.743,167.056c-.836,1.267-1.536,2.331-1.757,3.242-.902,3.964-1.357,6.592-.536,10.264.494,2.209,2.557,4.652,5.986,5.094,1.177.152,4.754.201,7.559-2.359l.332-.278c.824-.751,1.417-2.35,1.836-3.757l1.084-2.473.869-4.762-2.262-5.332-5.07-2.571-4.453-.096s-3.461,2.833-3.59,3.028Z"/>
              <path class="cls-28" d="M106.99,174.983c2.858-.893,4.52,2.612,2.776,4.683-.482.572-1.941,1.713-3.478.362"/>
              <path class="cls-6" d="M94.922,173.409c.303-.284.795-.299,1.106-.034"/>
              <path class="cls-6" d="M101.105,174.166c.341-.237.83-.181,1.1.126"/>
              <circle class="cls-41" cx="95.592" cy="175.871" r=".781"/>
              <circle class="cls-41" cx="101.635" cy="176.582" r=".781"/>
              <path class="cls-20" d="M97.491,176.526c-.584.654-1.23,1.547.267,2.09"/>
              <circle class="cls-53" cx="101.907" cy="179.2" r="1.484"/>
              <circle class="cls-53" cx="94.431" cy="178.163" r="1.484"/>
              <path class="cls-20" d="M106.92,177.548c.363-.232.865-.223,1.22.021"/>
            </g>
            <g>
              <path class="cls-12" d="M95.611,180.414s1.87-.452,5.531-.367c0,0-1.86,6.837-5.531.367Z"/>
              <path class="cls-48" d="M100.52,181.133s-1.072,2.85-2.936,1.49c-.249-.181.834-1.594,2.936-1.49Z"/>
            </g>
          </g>
          <path class="cls-41" d="M96.209,171.509c.12-.008.245-.005.354.05.138.069.233.211.333.337.516.652,1.319,1.005,2.096.923,1.162-.124,2.222-1.146,3.368-.907,1.062.221,1.854,1.487,2.933,1.413.442-.031.93-.281,1.294-.001.143.11.234.284.348.431.585.752,1.636.672,2.514.489.338-.071.712-.173.899-.496.102-.175.131-.389.154-.596.134-1.216.119-2.466-.181-3.642-.3-1.176-.903-2.277-1.789-2.993-.702-.566-1.565-2.335-2.412-2.537-1.733-.413-3.31-.684-5.083-.68-1.277.003-3.001.082-4.244.413-1.404.374-2.755,1.497-3.992,2.332-.407.275-.522,1.857-.828,2.265-.777,1.038-1.68,4.124-.17,4.86,1.473.718,2.931-1.561,4.404-1.66Z"/>
          <path class="cls-32" d="M96.351,164.458c-.676.672-.797,1.706-.879,2.655"/>
          <path class="cls-32" d="M97.647,165.103c-.213.558-.257,1.179-.123,1.761"/>
          <path class="cls-32" d="M102.153,164.618c.047.873.684,1.684,1.522,1.936"/>
          <path class="cls-32" d="M104.2,164.898c.149.635.607,1.19,1.202,1.457"/>
        </g>
        <g>
          <g>
            <path class="cls-21" d="M77.187,191.975s-20.422-8.337-44.036,6.215l.881,2.104-3.14,1.972,2.062,2.074-4.878,3.316,4.258,4.735,44.289-14.73.563-5.687Z"/>
            <path class="cls-20" d="M75.542,192.372s-19.026-4.592-41.51,7.922"/>
            <path class="cls-20" d="M32.955,204.34s14.355-12.702,41.781-11.732"/>
            <path class="cls-21" d="M81.405,191.867s19.966-9.377,44.297,3.941l-.772,2.147,3.237,1.807-1.953,2.177,5.042,3.061-4.009,4.948-44.989-12.432-.854-5.65Z"/>
            <path class="cls-20" d="M83.068,192.178s18.764-5.564,41.863,5.776"/>
            <path class="cls-20" d="M126.215,201.939s-14.989-11.947-42.329-9.567"/>
            <path class="cls-36" d="M74.736,192.608s-19.344-1.608-45.529,15.888c-1.076.719-1.223,2.248-.301,3.156l17.993,17.711c.64.63,1.614.765,2.404.339,3.686-1.986,14.696-7.356,27.288-8.13l-1.854-28.964Z"/>
            <path class="cls-36" d="M83.091,192.393s19.236-2.601,46.286,13.525c1.111.662,1.337,2.182.463,3.136l-17.058,18.614c-.606.662-1.573.847-2.383.462-3.783-1.794-15.587-6.615-28.202-6.74l.894-28.996Z"/>
            <path class="cls-5" d="M83.343,192.408s-4.275-1.942-8.607.2l1.854,28.964s2.592,2.022,5.847-.071l.905-29.093Z"/>
          </g>
          <g>
            <path class="cls-13" d="M51.255,206.368c.671-.367,1.112-.826,1.324-1.377.212-.551.203-1.237-.027-2.057l-.019-.068c-.051-.181-.056-.348-.014-.502.041-.153.116-.292.225-.416.109-.124.243-.231.401-.32s.329-.159.513-.211c.361-.093.697-.088,1.009.015s.515.324.61.663l.019.068c.055.196.098.382.128.561s.051.359.063.542c.481-.086.94-.105,1.375-.057.435.048.829.171,1.182.368.353.197.656.478.906.842.251.364.438.817.561,1.359l-2.647.744c-.088-.487-.268-.847-.542-1.079-.273-.232-.627-.327-1.062-.286-.227.673-.586,1.251-1.075,1.733-.489.483-1.048.841-1.677,1.075-.35.131-.673.163-.97.096-.297-.067-.5-.191-.61-.371-.164-.23-.215-.474-.153-.731.062-.257.222-.454.481-.592ZM52.629,210.673c-.085-.301-.106-.604-.062-.909s.154-.59.332-.855.43-.507.756-.724.728-.393,1.206-.528l6.123-1.721c.469-.132.898-.191,1.288-.18.39.012.733.084,1.028.217.295.133.54.317.736.555s.337.511.424.819.108.615.065.92-.156.59-.339.857-.438.507-.765.721-.724.387-1.193.518l-6.123,1.721c-.478.134-.913.193-1.304.178-.391-.016-.732-.091-1.023-.225s-.533-.317-.727-.551c-.195-.234-.335-.505-.422-.813ZM55.427,209.887c.04.143.135.268.284.377.15.109.376.12.679.035l4.661-1.31c.304-.085.491-.213.562-.383.071-.17.087-.327.047-.47s-.135-.269-.285-.377-.376-.12-.679-.035l-4.661,1.31c-.303.085-.49.213-.562.383-.071.17-.087.327-.046.47ZM60.102,202.907l-1.158.325c-.34.096-.631.074-.874-.065s-.397-.329-.465-.57-.041-.482.08-.723.365-.413.733-.517l1.158-.325-.057-.203c-.102-.362-.04-.673.184-.935.224-.262.515-.443.873-.544.174-.049.352-.073.531-.07.179.002.346.031.5.085.154.054.289.138.406.252s.2.261.251.441l1.333,4.743-2.744.771-.749-2.665Z"/>
            <path class="cls-13" d="M97.027,203.946c.494.179.967.313,1.42.402.452.088.855.12,1.208.096.353-.025.654-.115.903-.27.248-.156.421-.386.517-.692l.046-.146c.051-.164-.027-.279-.237-.345l-3.089-.967c-.201-.063-.364-.14-.49-.233-.126-.093-.222-.195-.287-.305-.066-.111-.102-.225-.111-.342-.008-.117.005-.232.04-.343s.089-.214.163-.306.169-.164.286-.218c.116-.054.253-.082.41-.087.156-.004.335.025.535.088l4.101,1.284c.547.171.94.368,1.181.591s.369.484.385.784c.039.004.095.018.167.04l1.941.608.011-.034c.112-.358.331-.586.657-.685.326-.099.667-.092,1.022.019.173.054.334.131.483.231.149.1.273.215.372.344.099.13.167.274.202.432s.025.327-.031.506l-1.521,4.858-2.706-.848.291-.929-1.941-.608c-.511-.16-.775-.419-.793-.777-.733.36-1.613.495-2.64.403-1.027-.092-2.096-.361-3.207-.808-.303-.119-.53-.303-.683-.552-.152-.248-.168-.517-.047-.807.109-.252.295-.409.56-.47.264-.061.558-.032.881.085ZM97.092,211.071c-.474-.148-.87-.33-1.188-.544-.318-.215-.565-.451-.738-.711-.174-.259-.279-.534-.313-.823-.035-.289-.004-.587.092-.893.093-.298.237-.559.432-.78.194-.222.438-.392.73-.509.292-.118.63-.176,1.015-.174.384.001.814.076,1.288.225l6.124,1.918c.464.145.856.325,1.174.54.318.215.564.453.736.716s.278.542.316.837c.038.294.009.595-.087.901s-.244.569-.443.79c-.199.22-.444.387-.735.501-.291.113-.627.166-1.01.157s-.806-.086-1.27-.232l-6.124-1.918ZM102.982,211.194c.301.094.519.101.654.02.135-.08.222-.184.262-.311s.026-.258-.041-.394c-.068-.136-.252-.251-.553-.345l-4.675-1.464c-.3-.094-.518-.105-.65-.032-.133.073-.22.173-.259.3s-.027.262.039.405c.065.143.248.262.549.356l4.675,1.464ZM103.619,204.511c-.121.29-.263.536-.426.739.046.014.087.026.125.033.037.008.079.019.125.033l1.941.608.245-.783-2.01-.629Z"/>
          </g>
        </g>
        <g>
          <path class="cls-34" d="M131.494,215.154s.543-4.744-7.72-6.263c0,0-3.329-1.019-2.381,2.669,0,0-2.641-.303-2.388,2.225,0,0,.112.702.623,1.188,0,0,5.042,2.069,4.95,2.282,0,0-4.428-2.294-5.3-2.375,0,0-1.725-.214-2.28,1.734,0,0-.565,1.108.197,1.924,0,0-1.39,1.044-.599,2.648,0,0,.19.647,2.676,1.873,0,0,.681,2.586,3.347,2.924,1.41.179,2.801-.435,3.748-1.495,1.864-2.085,5.316-6.028,5.127-9.335Z"/>
          <path class="cls-20" d="M121.67,211.718s4.32,1.617,5.965,3.023"/>
          <path class="cls-20" d="M117.366,218.362s3.645,1.559,5.131,2.282"/>
        </g>
        <g>
          <path class="cls-34" d="M32.191,243.97c3.667.468,22.431.357,30.771-1.616,2.389-.565,5.479-.853,6.521-3.332-.275-1.865-1.91-1.893-3.049-2.051,3.102-.057,7.362-2.893,7.256-5.099-.602-2.813-2.276-2.088-3.601-2.303,2.104-.753,4.107-.513,4.913-2.431.573-1.364.298-3.605-1.781-4.052-1.468-.315-2.732-.611-4.071-.466,1.412-.4,2.517-1.703,2.858-3.371-.446-4.416-18.902-1.387-22.336-1.141-3.989.287-8.141.771-12.082-1.14,1.27-2.103,3.053-3.73,5.128-4.681,1.369-.627,2.861-.965,4.171-1.718s2.467-2.045,2.636-3.824c.169-1.779-1.363-3.878-2.931-3.987-2.936-.205-7.322,1.686-10.506,2.844-7.123,2.59-9.743,5.594-13.499,10.485,0,0-6.282,5.942-3.994,16.98,0,0,.942,9.288,13.596,10.904Z"/>
          <path class="cls-20" d="M47.434,224.677c5.713-.316,16.69-1.532,22.25-2.279"/>
          <path class="cls-20" d="M49.613,232.169c3.436-.712,8.14-1.154,12.472-1.597,3.55-.363,6.85-.728,8.997-1.244"/>
          <path class="cls-20" d="M49.564,238.107c3.321-.252,13.914-1.369,18.128-1.038"/>
        </g>
        <g>
          <path class="cls-34" d="M75.319,250.707c-2.716-.342-23.141-5.708-31.05-9.44-2.266-1.069-5.29-2.008-5.806-4.704.669-1.804,2.306-1.487,3.477-1.403-3.084-.712-6.738-4.443-6.167-6.623,1.195-2.681,2.714-1.604,4.082-1.539-1.942-1.197-3.992-1.379-4.392-3.464-.284-1.483.464-3.662,2.634-3.669,1.532-.005,2.856-.033,4.163.395-1.326-.697-2.153-2.231-2.141-3.969,1.378-4.315,19.164,2.607,22.539,3.578,3.922,1.129,7.964,2.488,12.302,1.413-.824-2.368-2.26-4.369-4.131-5.756-1.234-.915-2.652-1.567-3.801-2.596s-2.031-2.562-1.824-4.374c.207-1.812,2.18-3.584,3.768-3.362,2.974.415,6.954,3.229,9.888,5.057,6.564,4.09,8.545,7.642,11.263,13.318,0,0,1.634,3.086,7.079,3.63l22.188.797v25.502s-29.43-.948-44.07-2.792Z"/>
          <path class="cls-20" d="M63.504,226.898c-5.637-1.522-16.338-5.053-21.731-6.974"/>
          <path class="cls-20" d="M59.747,233.918c-3.279-1.437-7.883-2.871-12.114-4.228-3.467-1.112-6.685-2.173-8.72-3.142"/>
          <path class="cls-20" d="M58.542,239.856c-3.262-.953-13.602-4.304-17.879-4.864"/>
        </g>
        <path class="cls-21" d="M144.528,176.219c.043,14.936-5.55,36.942-6.152,34.687-12.922,10.568-41.375,12.454-41.375,12.454v37.094c88.099,8.114,87.323-46.809,87.323-46.809,6.107-83.366-35.929-103.607-35.929-103.607l-3.867,66.18Z"/>
        <path class="cls-20" d="M138.376,210.906s9.393-1.174,23.875,8.219"/>
        <path class="cls-9" d="M35.71,125.308l-8.105-.036.037-8.292c.003-.673-.54-1.221-1.213-1.224l-5.15-.023c-.673-.003-1.221.54-1.224,1.213l-.037,8.292-8.105-.036c-.673-.003-1.221.54-1.224,1.213l-.018,4.081c-.003.673.54,1.221,1.213,1.224l8.105.036-.078,19.973c-.003.673.54,1.22,1.213,1.223l5.15.023c.673.003,1.221-.541,1.224-1.214l.078-19.972,8.105.036c.673.003,1.221-.54,1.224-1.213l.018-4.081c.003-.673-.54-1.221-1.213-1.224Z"/>
        <g>
          <polyline class="cls-39" points="26.901 116.499 25.652 117.747 21.728 117.747"/>
          <line class="cls-39" x1="25.652" y1="117.747" x2="25.652" y2="125.418"/>
        </g>
        <g>
          <polyline class="cls-39" points="26.901 152.151 25.652 150.902 21.728 150.902"/>
          <line class="cls-39" x1="25.652" y1="150.902" x2="25.652" y2="143.231"/>
        </g>
        <g>
          <polyline class="cls-39" points="36.488 131.125 35.239 129.876 35.239 125.951"/>
          <line class="cls-39" x1="35.239" y1="129.876" x2="27.568" y2="129.876"/>
        </g>
        <g>
          <polyline class="cls-39" points="11.16 131.125 12.409 129.876 12.409 125.951"/>
          <line class="cls-39" x1="12.409" y1="129.876" x2="20.08" y2="129.876"/>
        </g>
        <g>
          <path class="cls-21" d="M90.379,224.576s-5.298-3.037-.616-6.631c.044-.864.386-1.735,1.014-2.296s1.554-.764,2.292-.405c.049-.746.698-1.359,1.397-1.466s1.406.217,1.922.717c.444-.37,1.058-.449,1.603-.317s1.031.454,1.47.817c.438.362.878.927.677,1.482.795-.324,1.654.209,2.28.806.285.271.562.573.69.957s.068.867-.235,1.124c1.112.229,1.446,1.436,1.484,2.639.013.409.025,2.198-1.272,1.889.193.204.114,2.819-2.649,1.487l-2.644.126"/>
          <path class="cls-24" d="M96.02,227.146c1.568.186,2.456-.369,2.456-.369,5.279-.592,1.235-7.167,1.235-7.167,0,0-.765-1.411-3.36-1.719l-.519-.062c-2.595-.308-3.669.885-3.669.885,0,0-5.472,5.445-.478,7.257,0,0,.734.747,2.302.934l2.033.241Z"/>
          <path class="cls-24" d="M92.359,218.685s-5.784,1.83-4.669,4.223c0,0,.927.906,3.725-2.679"/>
          <path class="cls-24" d="M99.498,219.533s5.195,3.133,3.55,5.199c0,0-1.113.664-2.994-3.477"/>
          <path class="cls-47" d="M91.465,218.257c-.352.293-.582.755-.519,1.209s.465.86.923.853c.611-.009,1-.645,1.533-.945-.189.379-.382.776-.383,1.199s.252.88.667.964c.413.083.812-.223,1.033-.581s.328-.777.546-1.137c-.243.499-.3,1.087-.155,1.624.116.432.423.871.868.916.406.041.766-.258,1.023-.575.318-.394.561-.849.71-1.333-.056.203-.113.411-.104.622s.095.429.27.547c.266.179.648.06.864-.177s.307-.559.39-.869c.21.172.424.346.674.451s.546.133.789.011c.149-.075.266-.201.374-.329.216-.258.412-.549.466-.881s-.065-.711-.357-.879l-1.189-.851-2.674-1.474-2.547.064-3.209,1.368"/>
          <path class="cls-20" d="M91.465,218.257c-.352.293-.582.755-.519,1.209s.465.86.923.853c.611-.009,1-.645,1.533-.945-.189.379-.382.776-.383,1.199s.252.88.667.964c.413.083.812-.223,1.033-.581s.328-.777.546-1.137c-.243.499-.3,1.087-.155,1.624.116.432.423.871.868.916.406.041.766-.258,1.023-.575.318-.394.561-.849.71-1.333-.056.203-.113.411-.104.622s.095.429.27.547c.266.179.648.06.864-.177s.307-.559.39-.869c.21.172.424.346.674.451s.546.133.789.011c.149-.075.266-.201.374-.329.216-.258.412-.549.466-.881s-.065-.711-.357-.879"/>
          <g>
            <circle class="cls-41" cx="93.422" cy="223.809" r=".491"/>
            <circle class="cls-41" cx="97.214" cy="224.346" r=".491"/>
          </g>
          <polyline class="cls-6" points="94.96 224.488 95.132 224.897 95.446 224.532"/>
          <path class="cls-6" d="M94.332,224.952c.333.499.8-.055.8-.055,0,0,.199.65.905.294"/>
        </g>
        <g>
          <g>
            <path class="cls-21" d="M150.795,111.23s-3.308-6.242,3.492-6.868c.577-.818,1.449-1.459,2.41-1.62s1.992.212,2.492,1.019c.508-.7,1.523-.899,2.273-.572s1.242,1.08,1.438,1.889c.663-.088,1.313.214,1.764.68.452.466.729,1.08.934,1.707.204.625.287,1.449-.253,1.868.978.174,1.489,1.226,1.734,2.196.111.441.196.908.084,1.362s-.469.89-.923.955c.946.911.528,2.298-.177,3.498-.24.408-1.333,2.165-2.411,1.063.063.319-1.629,2.828-3.51-.181l-2.664-1.51"/>
            <path class="cls-24" d="M154.727,117.227c1.419,1.15,2.631,1.156,2.631,1.156,5.531,2.68,5.633-6.249,5.633-6.249,0,0,.123-1.853-2.225-3.757l-.469-.38c-2.349-1.904-4.136-1.4-4.136-1.4,0,0-8.715,1.948-4.948,6.804,0,0,.256,1.184,1.675,2.335l1.839,1.491Z"/>
            <path class="cls-24" d="M156.269,106.802s-7.665-.792-8.751,3.028c0,0,.108,1.728,6.338-1.494"/>
            <path class="cls-24" d="M162.831,111.926s2.426,7.089-1.197,8.928c0,0-1.766.264.162-6.317"/>
            <path class="cls-47" d="M155.76,105.718c-.525.069-1.036.379-1.255.862s-.076,1.129.376,1.405c.604.369,1.377-.014,2.083.022-.419.255-.852.523-1.115.937s-.297,1.017.057,1.355c.352.336.932.283,1.37.069s.801-.558,1.237-.776c-.546.338-.964.879-1.155,1.492-.153.495-.124,1.113.284,1.432.372.291.909.221,1.356.069.555-.189,1.073-.485,1.518-.866-.181.164-.364.332-.485.544s-.172.479-.074.702c.15.339.597.459.955.36s.645-.358.918-.609c.099.298.201.6.38.858s.452.468.765.497c.192.018.385-.032.569-.091.371-.119.742-.283,1-.574s.375-.736.194-1.08l-.638-1.566-1.706-3.094-2.531-1.51-3.985-.643"/>
            <path class="cls-20" d="M155.76,105.718c-.525.069-1.036.379-1.255.862s-.076,1.129.376,1.405c.604.369,1.377-.014,2.083.022-.419.255-.852.523-1.115.937s-.297,1.017.057,1.355c.352.336.932.283,1.37.069s.801-.558,1.237-.776c-.546.338-.964.879-1.155,1.492-.153.495-.124,1.113.284,1.432.372.291.909.221,1.356.069.555-.189,1.073-.485,1.518-.866-.181.164-.364.332-.485.544s-.172.479-.074.702c.15.339.597.459.955.36s.645-.358.918-.609c.099.298.201.6.38.858s.452.468.765.497c.192.018.385-.032.569-.091.371-.119.742-.283,1-.574s.375-.736.194-1.08"/>
            <g>
              <circle class="cls-41" cx="154.969" cy="111.54" r=".568"/>
              <circle class="cls-41" cx="158.348" cy="114.408" r=".568"/>
            </g>
            <polyline class="cls-6" points="156.055 113.154 155.97 113.661 156.503 113.497"/>
          </g>
          <path class="cls-21" d="M157.173,117.794c-.124.303.011.674.282.672-.275.146-.515.432-.607.755s-.024.67.186.84.554.139.79-.092c-.015.401.132.796.441.926s.776-.101.898-.502c.317.206.822-.037,1.064-.448s.246-.922.091-1.301c-.269-.655-2.561-2.271-3.144-.85Z"/>
          <path class="cls-21" d="M149.63,112.3c-.124.303.011.674.282.672-.275.146-.515.432-.607.755s-.024.67.186.84.554.139.79-.092c-.015.401.132.796.441.926s.776-.101.898-.502c.317.206.822-.037,1.064-.448s.246-.922.091-1.301c-.269-.655-2.561-2.271-3.144-.85Z"/>
        </g>
        <path class="cls-20" d="M63.465,109.654s3.496,13.71,17.784,14.653"/>
      </g>
      <g>
        <g>
          <path class="cls-13" d="M24.159,103.76c-.179-.605-.555-1.17-1.104-1.482s-1.278-.333-1.795.029c-.579.406-.784,1.182-.755,1.889.014.349.078.705.253,1.007.484.836,1.599.666,2.375.396.445-.155.891-.432,1.051-.875.111-.308.068-.651-.025-.964ZM22.633,104.22c-.072.113-.163.228-.293.261-.15.037-.312-.058-.383-.195-.071-.137-.062-.305-.008-.451.053-.145.147-.272.242-.393l.093.003c.178-.074.408.023.478.203.074.189-.019.401-.129.572Z"/>
          <path class="cls-13" d="M21.054,108.393c.017.095.043.193.109.264.103.111.271.123.422.123.903,0,1.797-.158,2.685-.317.133-.024.272-.051.374-.139.097-.085.143-.213.186-.335.046-.133.093-.27.089-.41s-.07-.288-.196-.351c-.096-.047-.208-.039-.314-.029-.765.069-1.53.138-2.295.207-.234.021-.802-.037-.991.103-.205.152-.108.665-.068.884Z"/>
          <path class="cls-13" d="M25.669,105.112c.032.756.07,1.534.387,2.22.04.086.088.175.171.221.073.04.161.041.244.04.33-.003.717-.036.892-.315.091-.146.099-.327.103-.499.033-1.436-.044-2.872-.122-4.307-.005-.086-.011-.175-.056-.248-.048-.076-.133-.121-.217-.152-.34-.126-.716-.086-1.06,0-.404.101-.367.276-.38.659-.028.794.006,1.587.04,2.38Z"/>
        </g>
        <path class="cls-13" d="M5.116,100.158c-.016-.089-.037-.183-.098-.242-.049-.047-.115-.063-.179-.077-.926-.2-1.889-.214-2.826-.039-.417.078-1.407.059-1.573.492-.207.538-.228,1.354.263,1.548s2,.099,2.516.194c-.107,1.01-.163,2.025-.168,3.039,0,.079.003.168.053.223.036.039.088.053.138.064.535.119,1.225.207,1.763.027.6-.2.452-.49.391-1.018-.163-1.4-.017-2.8-.279-4.21Z"/>
        <path class="cls-13" d="M17.675,107.158c-.012-.079-.026-.164-.079-.218-.042-.043-.1-.06-.156-.074-.815-.209-1.668-.254-2.506-.131-.373.055-1.25.005-1.412.383-.202.47-.248,1.193.181,1.382s1.77.156,2.225.257c-.129.892-.214,1.791-.253,2.69-.003.07-.003.149.04.199.03.036.076.05.12.061.47.124,1.079.225,1.563.084.539-.157.418-.419.381-.89-.097-1.247.08-2.484-.104-3.743Z"/>
        <path class="cls-13" d="M7.156,104.546c-.007.297-.008.617.15.858.276.421.852.374,1.319.281.095-.019.202-.046.251-.137.034-.063.031-.141.028-.213-.022-.554.024-1.112.139-1.654.018-.086.043-.18.112-.227.06-.042.137-.035.208-.028.447.045.9.028,1.344-.048.142-.024.294-.061.39-.178.101-.123.114-.303.122-.468.012-.247.024-.495.036-.742.004-.086.005-.182-.048-.244-.044-.052-.112-.065-.176-.076-.574-.098-1.153-.167-1.733-.206.051-.635.062-1.273.035-1.909-.005-.105-.014-.219-.079-.296-.055-.065-.139-.089-.219-.105-.438-.088-1.101-.067-1.48.235-.321.256-.223.714-.243,1.112-.068,1.348-.12,2.697-.154,4.046Z"/>
        <path class="cls-13" d="M13.804,105.508c-.262.025-.546.045-.769-.079-.39-.218-.384-.731-.331-1.15.011-.085.028-.182.106-.231.054-.034.123-.036.187-.038.492-.015.984-.091,1.456-.226.075-.021.156-.05.194-.113.033-.056.022-.124.011-.186-.067-.393-.081-.795-.041-1.193.013-.127.036-.264.134-.356.103-.097.261-.12.407-.137.218-.026.437-.052.655-.078.076-.009.161-.016.219.028.048.036.065.096.079.151.122.503.219,1.011.29,1.522.559-.084,1.124-.134,1.689-.149.093-.003.195-.002.267.051.061.045.087.118.106.188.105.383.127.971-.117,1.325-.206.3-.619.242-.97.284-1.189.144-2.38.274-3.573.387Z"/>
        <path class="cls-13" d="M12.695,96.862c-.13.008-.234.114-.235.244-.002.33.012.66.041.989.011.121.11.213.231.22.18.01.36.023.539.041.184.018.284.233.18.385-.353.512-.746.996-1.175,1.446-.104.109-.087.283.039.367.44.292.879.586,1.316.882.086.058.202.058.284-.005.592-.449,1.055-1.066,1.326-1.758.072-.184.32-.217.427-.05.346.537.747,1.038,1.196,1.492.033.034.07.069.116.08.054.013.111-.009.162-.031.46-.198.908-.422,1.342-.671.144-.082.16-.281.038-.393-.474-.436-.907-.918-1.292-1.435-.107-.144-.02-.354.158-.382.224-.036.445-.089.66-.159.105-.034.172-.138.165-.248l-.047-.831c-.003-.054-.008-.114-.045-.153-.036-.038-.092-.042-.142-.055-.108-.029-5.285.028-5.285.028Z"/>
        <g>
          <path class="cls-13" d="M32.344,106.247c.013.089.031.185.1.245.085.073.215.063.329.048.58-.074,1.16-.151,1.73-.28.221-.05.446-.108.671-.084s.453.152.514.361c.06.203-.055.426-.224.563s-.384.207-.594.274c-.418.134-.835.267-1.253.401-.211.067-.433.142-.58.303-.115.126-.17.29-.212.452-.192.74-.153,1.53.109,2.243.058.158.131.317.262.427.112.094.257.143.401.179.874.22,1.806.047,2.685-.181.424-.11.863-.244,1.175-.544s.443-.816.175-1.145c-.274-.336-.801-.33-1.244-.265s-.941.144-1.297-.112c.764-.209,1.579-.448,2.082-1.043.593-.701.586-1.695.457-2.582-.05-.343-.143-.725-.452-.898-.193-.108-.431-.108-.655-.1-.979.033-1.955.158-2.912.37-.29.064-1.132.143-1.326.364-.181.207.021.755.059,1.004Z"/>
          <path class="cls-13" d="M31.45,99.365c.488-.112,1.932-.086,2.392-.291s.406-.983.186-1.488c-.177-.405-1.12-.346-1.521-.403-.902-.127-1.819-.073-2.695.157-.06.016-.123.034-.168.081-.056.059-.071.15-.083.235-.19,1.356.009,2.685-.088,4.028-.036.507-.165.789.416.955,0,0,3.978.086,4.049-.312,0,0,.467-1.341-.041-1.666l-2.426.08-.02-1.376Z"/>
          <path class="cls-13" d="M35.869,101.941c-.046.279-.089.582.028.831.205.435.756.467,1.21.441.092-.005.197-.017.256-.097.04-.055.048-.129.055-.198.053-.527.171-1.049.351-1.545.029-.079.065-.164.136-.2.063-.031.135-.014.201.002.417.102.847.147,1.277.133.137-.004.286-.019.392-.117.112-.103.149-.271.178-.427.044-.232.088-.465.133-.697.015-.081.029-.171-.013-.238-.035-.055-.098-.077-.156-.096-.53-.169-1.068-.311-1.612-.425.132-.594.228-1.196.287-1.801.01-.1.016-.209-.035-.29-.044-.069-.12-.102-.194-.128-.403-.142-1.032-.21-1.431.026-.337.199-.306.646-.378,1.019-.243,1.266-.472,2.534-.683,3.806Z"/>
        </g>
      </g>
      <g>
        <path class="cls-15" d="M153.553,96.341c-.979-2.372-2.258-4.616-3.748-6.704-1.023-1.435-2.152-2.805-2.985-4.358-.833-1.553-1.361-3.342-1.066-5.079.295-1.737,2.382-3.383,4.106-3.747,1.531-.323,3.895.817,4.968,1.956,1.073,1.139,1.545,3.161,1.979,4.665l.513.133c1.016-1.127,2.438-2.764,3.772-3.278s4.324.062,5.338,1.045c1.143,1.108,1.352,3.13.783,4.796-.569,1.666-1.787,3.002-3.128,3.991s-2.823,1.681-4.255,2.479c-2.084,1.161-4.079,2.556-5.905,4.199"/>
        <path class="cls-56" d="M154.453,78.492s-3.542-3.148-6.522-.787c0,0-5.903,2.642,3.036,13.044,0,0,2.305,3.598,2.811,5.229l.956-.843s-3.036-6.578-5.004-8.996c0,0-3.767-5.229-.337-7.028,0,0,1.855-1.462,5.06-.618Z"/>
      </g>
      <g>
        <path class="cls-21" d="M166.09,56.651c.661.052,1.227.496,1.663.995.338.387.716.862,1.228.828.451-.03.764-.447,1.012-.825.63-.958,1.259-1.917,1.889-2.875.214-.326.501-.69.89-.668-.008.18.039.362.134.515.504-.691,1.008-1.382,1.512-2.073.17-.233.363-.482.643-.551s.636.176.552.452c.666-.79,1.331-1.58,1.997-2.37.058-.069.12-.14.205-.17.218-.075.419.17.459.398s.002.476.114.678c.144-.012.289-.023.433-.035.195.856.215,1.75.06,2.614.113-.064.207.112.214.241.06,1.129-.501,2.207-1.212,3.086-.711.879-1.582,1.618-2.306,2.486-.605.725-1.115,1.548-1.867,2.119s-1.858.825-2.632.285c.288.973,1.491,1.317,2.506,1.325s2.12-.136,2.962.43c.12.081.238.185.271.326.072.312-.3.54-.617.59s-.69.058-.876.319c-.342.481.297,1.34-.192,1.67-.295.198-.798-.014-.992.284-.063.097-.066.219-.066.334,0,.457.016.929-.156,1.353s-.596.785-1.048.72c-.42-.06-.766-.462-1.187-.408-.325.042-.544.337-.795.548s-.687.318-.865.043c-.055-.085-.076-.198-.159-.257-.073-.051-.171-.043-.259-.032-.319.042-.643.107-.961.054s-.636-.256-.714-.568c-.035-.141-.021-.3-.102-.421-.233-.347-.81.041-1.189-.135-.311-.144-.323-.609-.135-.896s.501-.463.753-.695c.7-.646.866-1.796.377-2.614-.077-.129-.184-.26-.333-.281-.256-.035-.427.267-.456.524s-.007.549-.183.738c-.278.299-.777.094-1.101-.154s-.733-.542-1.1-.362c-.11.054-.198.146-.303.208-.33.194-.748.065-1.108-.068-2.154-.798-4.388-1.65-5.963-3.322-.274-.291-.534-.623-.6-1.017s.125-.857.508-.972c.322-.097.658.067.962.213,2.256,1.088,4.886,1.381,7.325.815.206-.048.416-.104.588-.228.355-.256.459-.802.222-1.17-.247-.384-.752-.465-1.151-.304-.511-.864.11-1.808,1.148-1.721Z"/>
        <path class="cls-41" d="M164.602,58.049s1.193-.261.929.494l-1.302.85c-.095.056-.207-.038-.17-.141l.543-1.203Z"/>
        <path class="cls-20" d="M175.573,64.583c-.596.224-2.439.207-2.944-.149"/>
        <path class="cls-20" d="M172.406,68.98c-.555-.36-1.536-1.351-1.788-1.962"/>
        <path class="cls-20" d="M169.723,69.054c.051-.448-.329-1.562-.335-2.012"/>
        <path class="cls-20" d="M175.747,52.409c-.247.575-.599,1.104-1.033,1.555"/>
        <path class="cls-20" d="M164.73,64.173c-.424-.199-1.102-.649-1.484-.92"/>
      </g>
      <g>
        <path class="cls-21" d="M144.919,66.873c-.465.037-.864.349-1.171.701-.238.272-.504.607-.865.583-.318-.021-.538-.315-.713-.581-.443-.675-.887-1.35-1.33-2.025-.151-.229-.353-.486-.627-.471.006.127-.028.255-.094.363-.355-.487-.71-.973-1.065-1.46-.12-.164-.256-.34-.453-.388s-.448.124-.389.318c-.469-.556-.937-1.112-1.406-1.669-.041-.048-.084-.099-.144-.119-.154-.053-.295.12-.323.28s-.001.335-.08.477c-.102-.008-.203-.016-.305-.024-.137.602-.152,1.233-.042,1.841-.08-.045-.146.079-.151.17-.042.795.353,1.554.854,2.173s1.114,1.139,1.623,1.751c.426.511.785,1.09,1.315,1.492s1.308.581,1.853.2c-.203.685-1.05.927-1.764.933s-1.493-.096-2.086.303c-.085.057-.168.13-.191.23-.05.22.212.38.434.415s.486.041.617.225c.241.339-.209.944.135,1.176.208.14.562-.01.698.2.044.068.047.154.047.235,0,.322-.011.654.11.952s.419.553.738.507c.296-.042.54-.325.836-.287.229.029.383.237.56.386s.484.224.609.03c.039-.06.053-.14.112-.181.051-.036.12-.03.183-.022.225.03.453.075.677.038s.448-.18.503-.4c.025-.1.015-.211.072-.297.164-.244.57.029.837-.095.219-.102.227-.429.095-.631s-.353-.326-.53-.49c-.493-.455-.61-1.265-.266-1.841.054-.091.13-.183.235-.198.181-.025.3.188.321.369s.005.386.129.52c.196.21.547.066.775-.108s.516-.381.774-.255c.078.038.139.103.214.146.233.137.527.046.78-.048,1.516-.562,3.09-1.162,4.199-2.339.193-.205.376-.439.422-.716s-.088-.603-.357-.685c-.227-.069-.464.047-.677.15-1.588.766-3.44.972-5.158.574-.145-.034-.293-.073-.414-.16-.25-.18-.323-.565-.156-.824.174-.27.529-.327.81-.214.36-.608-.077-1.273-.808-1.212Z"/>
        <path class="cls-41" d="M145.966,67.857s-.84-.184-.654.348l.917.598c.067.039.146-.027.12-.099l-.382-.847Z"/>
        <path class="cls-20" d="M138.241,72.458c.42.157,1.717.146,2.073-.105"/>
        <path class="cls-20" d="M140.471,75.554c.391-.253,1.082-.951,1.259-1.381"/>
        <path class="cls-20" d="M142.361,75.607c-.036-.315.232-1.1.236-1.417"/>
        <path class="cls-20" d="M138.119,63.886c.174.405.422.778.727,1.095"/>
        <path class="cls-20" d="M145.877,72.169c.298-.14.776-.457,1.045-.648"/>
      </g>
    </g>
  </g>
</svg>