<?xml version="1.0" encoding="UTF-8"?>
<svg id="_레이어_2" data-name="레이어 2" xmlns="http://www.w3.org/2000/svg" xmlns:xlink="http://www.w3.org/1999/xlink" viewBox="0 0 233.492 203.871">
  <defs>
    <style>
      .cls-1 {
        fill: #f4f4f5;
      }

      .cls-1, .cls-2, .cls-3, .cls-4, .cls-5, .cls-6, .cls-7, .cls-8, .cls-9, .cls-10, .cls-11, .cls-12, .cls-13, .cls-14, .cls-15, .cls-16, .cls-17, .cls-18, .cls-19, .cls-20, .cls-21, .cls-22 {
        stroke-width: 0px;
      }

      .cls-23 {
        stroke: #3f0205;
        stroke-width: 1.367px;
      }

      .cls-23, .cls-8, .cls-24, .cls-25, .cls-26, .cls-27, .cls-28 {
        fill: none;
      }

      .cls-23, .cls-24 {
        stroke-linecap: round;
        stroke-linejoin: round;
      }

      .cls-2 {
        fill: #e16f3e;
      }

      .cls-3 {
        fill: #231815;
      }

      .cls-4 {
        fill: #ea9c7d;
      }

      .cls-5 {
        fill: #f1c01d;
      }

      .cls-6 {
        fill: #eaa199;
      }

      .cls-7 {
        fill: #72b771;
      }

      .cls-9 {
        fill: #e99faa;
      }

      .cls-10 {
        fill: #9f8fbd;
      }

      .cls-24 {
        stroke: #ea9c7d;
        stroke-width: .763px;
      }

      .cls-11 {
        fill: #3f0205;
      }

      .cls-12 {
        fill: #f8d7c5;
      }

      .cls-13, .cls-29 {
        fill: #fff;
      }

      .cls-25 {
        stroke: #72b771;
        stroke-width: .841px;
      }

      .cls-25, .cls-26, .cls-27, .cls-28, .cls-29 {
        stroke-miterlimit: 10;
      }

      .cls-14 {
        fill: #6c371c;
      }

      .cls-15 {
        fill: #e2808d;
      }

      .cls-16 {
        fill: #ea9f59;
      }

      .cls-26 {
        stroke: #21a464;
        stroke-width: .632px;
      }

      .cls-30 {
        clip-path: url(#clippath);
      }

      .cls-27 {
        stroke: #fff;
        stroke-dasharray: 0 0 3.192 4.787;
        stroke-width: 1.19px;
      }

      .cls-28 {
        stroke: #e27a69;
        stroke-width: .675px;
      }

      .cls-17 {
        fill: #cee8f6;
      }

      .cls-18 {
        fill: #2e2623;
      }

      .cls-19 {
        fill: #df738f;
      }

      .cls-20 {
        fill: #21a464;
      }

      .cls-29 {
        stroke: #e5e5e5;
        stroke-width: 1.49px;
      }

      .cls-21 {
        fill: #f3c5be;
      }

      .cls-22 {
        fill: #f1beb7;
      }
    </style>
    <clipPath id="clippath">
      <ellipse class="cls-8" cx="116.746" cy="101.936" rx="106.312" ry="91.502"/>
    </clipPath>
  </defs>
  <g id="_레이어_1-2" data-name="레이어 1">
    <g>
      <ellipse class="cls-1" cx="116.746" cy="101.936" rx="116.746" ry="101.936"/>
      <path class="cls-17" d="M116.746,197.936c-61.101,0-110.81-43.066-110.81-96S55.645,5.936,116.746,5.936s110.808,43.064,110.808,96-49.709,96-110.808,96Z"/>
      <ellipse class="cls-17" cx="116.746" cy="101.936" rx="106.312" ry="91.502"/>
      <g>
        <path class="cls-26" d="M185.509,158.545c3.18-2.46,7.189-5.876,9.578-9.122"/>
        <path class="cls-20" d="M194.478,150.231s6.832-3.331,4.561-5.474c-2.248-2.119-4.561,5.474-4.561,5.474Z"/>
        <path class="cls-20" d="M191.275,153.475s3.041-6.968-.08-7.123c-3.086-.157.08,7.123.08,7.123Z"/>
        <path class="cls-20" d="M191.482,153.238s6.5,3.941,7.07.871c.566-3.038-7.07-.871-7.07-.871Z"/>
        <path class="cls-20" d="M187.451,157.069s3.041-6.965-.078-7.126c-3.086-.154.078,7.126.078,7.126Z"/>
        <path class="cls-20" d="M187.658,156.835s6.502,3.941,7.072.872c.563-3.039-7.072-.872-7.072-.872Z"/>
      </g>
      <g>
        <path class="cls-26" d="M25.732,94.202c.113-4.019.515-9.273,1.729-13.112"/>
        <path class="cls-20" d="M27.168,82.056s-1.334-7.482,1.737-6.908c3.036.568-1.737,6.908-1.737,6.908Z"/>
        <path class="cls-20" d="M26.432,86.557s3.84-6.562,5.805-4.133c1.943,2.402-5.805,4.133-5.805,4.133Z"/>
        <path class="cls-20" d="M26.501,86.25s-7.015-2.932-4.869-5.202c2.122-2.246,4.869,5.202,4.869,5.202Z"/>
        <path class="cls-20" d="M25.779,91.764s3.838-6.56,5.805-4.135c1.943,2.405-5.805,4.135-5.805,4.135Z"/>
        <path class="cls-20" d="M25.848,91.457s-7.014-2.931-4.87-5.2c2.124-2.245,4.87,5.2,4.87,5.2Z"/>
      </g>
      <g>
        <path class="cls-26" d="M93.048,25.473c3.899-.979,9.063-2.016,13.093-1.883"/>
        <path class="cls-20" d="M105.129,23.569s6.844-3.311,7.121-.198c.274,3.077-7.121.198-7.121.198Z"/>
        <path class="cls-20" d="M100.597,24.077s7.356,1.921,5.549,4.469c-1.786,2.523-5.549-4.469-5.549-4.469Z"/>
        <path class="cls-20" d="M100.912,24.062s.923-7.549,3.688-6.095c2.737,1.433-3.688,6.095-3.688,6.095Z"/>
        <path class="cls-20" d="M95.408,24.859s7.353,1.92,5.551,4.469c-1.789,2.521-5.551-4.469-5.551-4.469Z"/>
        <path class="cls-20" d="M95.72,24.842s.925-7.545,3.69-6.095c2.736,1.435-3.69,6.095-3.69,6.095Z"/>
      </g>
      <g class="cls-30">
        <g>
          <path class="cls-29" d="M121.865,132.678s64.421,14.522,55.857,41.707l-17.502-6.518s-24.578-7.633-40.589-11.357l2.234-23.832Z"/>
          <path class="cls-21" d="M161.119,168.201c-.865,1.406-1.625,3.285-.408,4.342,2.117,1.842,4.908-.767,4.908-.767,0,0-4.281,4.468-1.488,7.449,2.654,2.83,10.172.942,11.873-5.481l-14.885-5.543Z"/>
          <path class="cls-29" d="M120.748,137.52s17.501,51.016,18.619,63.675l-80.061-4.095,8.192-49.527,53.25-10.053Z"/>
          <path class="cls-2" d="M124.01,147.224c-1.937-5.845-3.262-9.704-3.262-9.704l-3.766.709-3.682,3.015s-26.303,21.962-50.896,37.122l-3.099,18.734,9.591.489c14.51-9.185,39.144-26.972,55.113-50.365Z"/>
          <path class="cls-19" d="M141.527,147.188s-10.838,1.625-23.835,16.987l6.707,4.218s6.056-9.208,18.431-13.646l-1.303-7.56Z"/>
          <path class="cls-19" d="M158.222,153.493s6.924,8.495,6.205,28.606l-7.799-1.392s1.715-10.887-4.457-22.496l6.051-4.719Z"/>
          <g>
            <path class="cls-19" d="M139.548,139.57s-16.814,35.188-20.291,55.79l38.976,5.214,2.234-51.635-20.92-9.369Z"/>
            <path class="cls-13" d="M150.962,147.094c-.088-1.134-.447-2.202-1.012-3.157l-9.219-3.87c-.604.125-1.186.303-1.73.545-.832,1.604-2.516,4.941-4.377,9.137.992,3.062,3.977,5.376,7.623,5.557,2.207.108,4.248-.589,5.807-1.806.299,3.853,3.674,7,7.951,7.211,1.59.08,3.092-.265,4.391-.914l1.469-10.851-7.934-3.334c-1.098.308-2.109.813-2.969,1.483Z"/>
            <g>
              <path class="cls-13" d="M146.439,158.802c-.035.712-.641,1.26-1.35,1.223-.709-.033-1.256-.639-1.221-1.349.035-.709.639-1.258,1.35-1.221.709.035,1.256.639,1.221,1.347Z"/>
              <path class="cls-13" d="M144.884,164.164c-.033.71-.639,1.26-1.348,1.224-.711-.036-1.258-.638-1.223-1.351.035-.707.641-1.255,1.35-1.221.709.036,1.256.641,1.221,1.348Z"/>
            </g>
          </g>
          <path class="cls-12" d="M157.49,170.723s7.447-2.793,8.937-.745c1.488,2.05-3.352,4.097-3.352,4.097,0,0,7.076-2.047,9.123,2.234,2.049,4.282-4.469,9.495-13.965,8.565l-.744-14.151Z"/>
          <path class="cls-29" d="M84.256,149.436s18.99,14.337,75.591,17.686l-1.117,27s-100.168-5.959-94.583-44.685h20.109Z"/>
          <g>
            <path class="cls-14" d="M128.636,75.466c-19.892-34.793-49.833-29.218-49.833-29.218-35.044,5.385-45.008,44.386-40.908,71.285,4.1,26.896,24.336,40.33,61.536,33.725,33.125-5.883,51.276-37.188,29.206-75.792Z"/>
            <path class="cls-12" d="M111.656,64.65c-19.896,8.533-29.016-7.142-29.016-7.142-7.436,20.319-32.039,18.639-32.039,18.639-1.428,7.369-1.914,16.914-1.914,16.914,0,0,2.805,10.29,34.751,5.351,36.156-5.59,39.688-14.125,39.688-14.125-3.781-13.001-11.471-19.637-11.471-19.637Z"/>
            <path class="cls-22" d="M85.389,90.435s.907,12.077,6.486,11.323c5.578-.757,1.414-12.619,1.414-12.619"/>
            <g>
              <path class="cls-11" d="M110.828,78.917c.539,1.867.102,3.636-.976,3.948-1.082.311-2.394-.951-2.932-2.822-.542-1.872-.103-3.643.976-3.954,1.078-.314,2.392.952,2.933,2.828Z"/>
              <path class="cls-23" d="M104.124,71.139s1.656-2.738,4.442-.908"/>
            </g>
            <g>
              <path class="cls-11" d="M63.906,87.864c.221,1.935-.502,3.605-1.618,3.734-1.116.128-2.202-1.335-2.425-3.268-.224-1.936.5-3.608,1.616-3.737,1.117-.128,2.201,1.338,2.427,3.27Z"/>
              <path class="cls-23" d="M58.577,79.088s2.087-2.426,4.533-.16"/>
            </g>
            <path class="cls-28" d="M79.059,107.972s2.404,18.84,17.697,15.558c15.294-3.285,11.737-20.548,11.737-20.548"/>
            <g>
              <path class="cls-6" d="M107.08,92.27c0,.303.019.598.045.892,14.191-4.521,16.002-8.874,16.002-8.874-.146-.51-.311-.989-.469-1.474-1.473-.768-3.143-1.21-4.917-1.21-5.888,0-10.661,4.775-10.661,10.666Z"/>
              <path class="cls-6" d="M53.076,90.184c-1.519,0-2.958.321-4.266.893-.084,1.225-.123,1.985-.123,1.985,0,0,1.529,5.541,14.971,6.534-.621-5.3-5.117-9.412-10.582-9.412Z"/>
            </g>
          </g>
          <g>
            <path class="cls-12" d="M133.328,104.092s-19.468,38.039,14.812,49.401c34.283,11.368,39.621-17.295,39.621-17.295l.359-15.217-14.701-10.743-40.092-6.146Z"/>
            <path class="cls-16" d="M121.399,125.787s10.126,5.004,17.857-15.056c0,0,26.32,10.772,45.461,13.729,0,0-6.836,18.575,3.031,20.548,12.076,2.416,13.652-16.483,13.652-16.483,0,0,3.385-23.133-28.551-33.935-32.381-10.953-43.894-2.793-50.232,11.151-6.34,13.942-4.309,18.265-1.219,20.046Z"/>
            <path class="cls-18" d="M141.568,122.829c-.439,1.458-1.287,2.488-1.893,2.306-.603-.182-.738-1.512-.297-2.969.439-1.454,1.289-2.488,1.893-2.306.606.184.738,1.515.297,2.969Z"/>
            <path class="cls-18" d="M176.459,132.768c-.422,1.464-1.254,2.506-1.863,2.33-.607-.173-.758-1.501-.336-2.961.42-1.464,1.254-2.505,1.861-2.331.607.173.758,1.503.338,2.962Z"/>
            <path class="cls-24" d="M155.873,124.971s-3.943,2.635-5.344,3.179c0,0,1.369,2.094,3.652,2.92"/>
            <path class="cls-4" d="M145.677,132.137s4.375,7.367,14.6,4.539c0,0-2.52,14.19-11.82,11.05-7.445-2.515-2.779-15.589-2.779-15.589Z"/>
            <path class="cls-9" d="M182.818,146.774c-1.736-2.7-4.865-4.377-8.287-4.084-4.924.42-8.57,4.753-8.15,9.673.107,1.254.471,2.423,1.031,3.466,7.51-1.133,12.348-5.029,15.406-9.055Z"/>
            <path class="cls-9" d="M129.277,129.878c-.441.037-.867.116-1.283.214.557,5.639,2.598,11.293,7.291,15.929,2.449-1.78,3.941-4.755,3.666-7.994-.42-4.919-4.752-8.568-9.674-8.148Z"/>
          </g>
        </g>
      </g>
      <g>
        <path class="cls-3" d="M133.67,33.72c.336.101.465.421.391.961-.076.54-.312.771-.709.689-1.414-.205-3.234-.524-5.463-.955l-.894,4.623c-.064.286-.367.379-.914.273-.545-.106-.791-.275-.738-.505l.837-4.699c-2.103-.455-3.919-.87-5.447-1.244-.359-.135-.462-.469-.309-1.003.152-.534.373-.777.664-.729,4.18,1.086,8.374,1.949,12.582,2.591ZM132.916,30.055c-.172.584-.535.972-1.09,1.162-2.795-.167-5.631-.715-8.507-1.643-.562-.347-.799-.873-.711-1.575l1.33-7.438c.123-.518.432-.713.926-.586.214.065.408.183.585.356.176.172.238.372.183.602l-.533,2.934,7.212,1.473.602-2.789c.062-.468.353-.688.871-.662.555.078.795.38.723.906l-1.592,7.26ZM131.324,29.521l.607-2.63-7.072-1.449-.48,2.674c2.3.712,4.617,1.181,6.945,1.405Z"/>
        <path class="cls-3" d="M140.234,31.312l.516-2.152c.066-.286.389-.36.963-.223.572.135.818.377.732.719l-.5,2.064c1.625.369,2.836.585,3.631.65.336.113.453.438.353.977-.1.539-.348.759-.74.658-2.111-.279-5.135-.951-9.068-2.01-.355-.15-.447-.491-.275-1.024.17-.532.4-.766.686-.696.971.329,2.205.674,3.703,1.037ZM146.216,42.572c.396.008.6.291.609.846.01.556-.252.833-.789.828.047.335-2.096-.076-6.43-1.237-.893-.231-1.357-.711-1.396-1.444.084-.865.246-1.692.486-2.483.228-.576.658-.797,1.287-.658l5.07.448c.168.033.26-.008.279-.127l.184-.705c-.021-.19-.084-.301-.191-.332-.668-.211-2.357-.573-5.066-1.092-.26-.031-.334-.309-.223-.837.113-.526.314-.787.604-.778,2.982.582,4.965,1.047,5.945,1.396.639.203.881.648.725,1.34l-.477,1.979c-.17.686-.584.988-1.242.903l-4.646-.37c-.166-.034-.377-.02-.635.044-.152.186-.228.493-.225.924-.002.062.043.135.131.223,3.615,1.073,5.615,1.451,6,1.135ZM144.189,24.365c.992.307,2.047.585,3.164.835.293.071.402.349.326.833-.076.484-.269.718-.58.705-.787-.17-1.414-.308-1.883-.414.203.567.195,1.248-.023,2.043-.236.652-.684,1.142-1.344,1.473-.66.326-1.428.371-2.301.131-.654-.208-1.18-.638-1.58-1.291-.398-.653-.422-1.49-.072-2.508.168-.52.465-.931.891-1.234-.469-.154-.978-.35-1.531-.588-.555-.255-.719-.602-.494-1.043.225-.44.566-.631,1.025-.575,1.881.713,3.348,1.257,4.402,1.634ZM144.939,21.454c.586.173,1.439.375,2.561.612.301.072.408.353.322.842-.084.489-.287.727-.603.71-2.09-.412-4.102-1.001-6.033-1.767-.555-.255-.721-.602-.496-1.042s.57-.631,1.037-.572c1.197.55,2.268.955,3.213,1.217ZM142.043,28.481c.75.234,1.305.044,1.662-.571.129-.407.103-.786-.07-1.138-.174-.35-.404-.582-.693-.697-.271-.096-.566-.09-.885.016-.318.105-.564.335-.736.684-.107.367-.076.725.09,1.072.166.349.377.56.633.635ZM151.15,26.266c-.162.951-.428,2.024-.793,3.221l2.295.812c.252.134.268.457.045.968-.223.511-.51.729-.865.656l-2.025-.708c-.455,1.371-.857,2.427-1.205,3.17-.18.408-.519.526-1.019.358-.498-.17-.695-.452-.586-.852,1.176-2.68,2.029-5.4,2.562-8.16.088-.357.402-.457.939-.3.535.156.754.436.652.835Z"/>
        <path class="cls-3" d="M156.468,44.249c.266.126.332.405.197.836-.135.429-.361.589-.682.48-1.939-.525-4.48-1.429-7.623-2.711-.279-.145-.318-.434-.121-.861.197-.43.408-.603.633-.519,2.545,1.117,5.078,2.043,7.596,2.776ZM158.082,38.99c-.379.851-.998,1.466-1.859,1.838-.861.371-1.853.356-2.977-.044-.81-.323-1.443-.915-1.898-1.777-.455-.863-.402-1.942.152-3.239.391-.863,1.029-1.468,1.92-1.823.889-.353,1.842-.312,2.857.125.725.298,1.32.879,1.779,1.745.461.865.469,1.924.025,3.176ZM153.74,39.492c1.301.518,2.303.24,3.012-.833.318-.743.344-1.428.076-2.05-.266-.622-.662-1.047-1.186-1.271-.51-.217-1.06-.236-1.654-.057-.594.18-1.029.543-1.307,1.094-.264.646-.273,1.279-.031,1.899.242.618.605,1.024,1.09,1.219ZM162.668,38.854c-.766,2.209-1.645,4.155-2.635,5.842-.273.512-.609.67-1.008.48-.398-.189-.535-.446-.412-.767,1.15-1.886,2.08-3.938,2.791-6.157.103-.304.367-.358.795-.17.426.19.582.446.469.772Z"/>
        <path class="cls-3" d="M173.697,45.27c-1.865,2.969-3.728,5.082-5.594,6.338-.357.223-.693.121-1.006-.308-.314-.427-.273-.765.121-1.017,1.559-1.035,3.148-2.855,4.769-5.455.125-.217.084-.395-.125-.532-1.551-1.06-3.228-2.028-5.033-2.902-.273-.162-.269-.475.008-.936.277-.46.57-.624.881-.49,1.934.96,3.92,2.141,5.961,3.543.463.41.467.996.018,1.759ZM181.23,44.947c-1.518,2.672-4.023,6.258-7.519,10.762-.275.35-.629.366-1.063.055-.434-.314-.543-.645-.328-.998,3.543-4.49,6.057-8.092,7.545-10.798.187-.336.512-.346.975-.032.463.315.594.652.391,1.012Z"/>
        <path class="cls-3" d="M184.691,62.383c-.842,1.12-1.73,2.085-2.668,2.896-.633.47-1.162.521-1.586.153-1.084-.868-2.664-2.304-4.744-4.307-.471-.476-.508-.943-.107-1.399.73-.958,1.619-1.923,2.668-2.895.504-.495.982-.575,1.439-.24,2.412,2.049,4.043,3.512,4.891,4.394.471.477.506.943.107,1.398ZM182.732,62.159c.117-.196.113-.39-.012-.579-.506-.638-1.578-1.609-3.213-2.911-.228-.169-.469-.128-.721.119-.492.444-.851.846-1.078,1.204-.147.186-.188.365-.121.538,1.516,1.558,2.635,2.566,3.361,3.031.15.13.357.087.619-.13.299-.242.685-.666,1.164-1.273ZM190.168,60.133c.213.277.129.612-.25,1.006-.377.394-.703.441-.977.141-2.824-2.779-5.74-5.924-8.746-9.434-.213-.32-.1-.65.338-.994.437-.342.76-.409.967-.2,2.908,3.514,5.797,6.675,8.668,9.481ZM192.695,49.479l-1.488,1.608,2.158,1.999,1.18-1.196c.301-.367.668-.404,1.103-.109.434.358.479.737.133,1.143l-3.848,3.84c-.435.42-.953.566-1.549.443-2.281-1.621-4.404-3.582-6.367-5.888-.293-.592-.219-1.154.225-1.694l3.715-4.16c.387-.363.752-.359,1.094.007.16.163.269.362.328.6.057.237.004.438-.164.604l-1.301,1.452,2.074,1.944,1.541-1.677c.223-.28.533-.252.937.085.404.337.48.669.228,1ZM185.687,50.649c.516.607,1.149,1.282,1.899,2.02l1.309-1.443-2.018-1.888-1.19,1.311ZM190.865,55.488l1.351-1.303-2.096-1.937-1.377,1.499c.781.709,1.488,1.289,2.121,1.74Z"/>
        <path class="cls-3" d="M189.097,75.265c.228.226.191.516-.107.869-.299.354-.615.38-.951.077-.549-.344-1.719-1.885-3.51-4.623-.439-.63-.463-1.184-.068-1.664.658-.594,1.381-1.139,2.172-1.635.461-.232.855-.136,1.182.291l2.715,3.633c.086.113.17.144.252.092l.986-.684c.094-.125.113-.224.053-.296-.822-1.265-1.744-2.524-2.762-3.776-.143-.158-.033-.369.328-.636.363-.267.631-.318.807-.153,1.141,1.445,2.191,2.924,3.154,4.435.275.485.174.902-.305,1.245l-1.865,1.291c-.48.345-.9.296-1.264-.143l-2.529-3.338c-.074-.118-.207-.227-.398-.324-.41.178-.799.45-1.162.816-.043.047-.061.121-.057.22,1.328,2.189,2.437,3.623,3.33,4.303ZM197.613,71.964c.121.264-.006.52-.385.773-.379.251-.652.229-.82-.062-1.799-2.771-3.603-5.855-5.418-9.252-.113-.299.037-.549.455-.749.418-.2.691-.196.822.012,1.668,3.353,3.451,6.444,5.346,9.277ZM200.691,68.627c-.725.439-1.498.495-2.32.164-.824-.33-1.613-1.039-2.365-2.124-.537-.809-.789-1.712-.756-2.71.031-1,.504-1.799,1.418-2.4.74-.438,1.529-.474,2.365-.11.836.362,1.578,1.061,2.229,2.096.473.731.742,1.583.808,2.553.064.97-.394,1.813-1.379,2.532ZM197.099,65.916c.939,1.452,1.854,1.999,2.744,1.636.586-.383.857-.9.818-1.553-.041-.651-.236-1.259-.588-1.821-.344-.545-.768-.986-1.277-1.322-.508-.337-.996-.383-1.467-.139-.506.324-.758.811-.758,1.458s.176,1.228.527,1.741Z"/>
      </g>
      <g>
        <path class="cls-3" d="M131.609,55.758l.482-2.383c.064-.289.383-.372.955-.253.574.119.824.352.75.696l-.477,2.295c2.799.58,4.6.893,5.398.938.342.102.471.425.391.964-.078.538-.318.767-.715.684-3.908-.602-8.109-1.447-12.602-2.536-.365-.138-.471-.474-.316-1.009.154-.533.375-.774.666-.726.971.313,2.793.757,5.467,1.33ZM134.295,63.719c.471-.129.732.105.789.705.055.601-.145.936-.598,1.009-1.619.218-3.66-.061-6.121-.836-.572-.246-.887-.806-.947-1.685-.049-1.083.074-2.227.369-3.434.08-.433.396-.582.949-.443.551.14.779.445.684.923-.201.968-.289,1.751-.266,2.353.059.412.211.678.461.794,2.355.728,3.916.934,4.68.613ZM138.341,51.004c-.221,1.217-.82,2.129-1.795,2.731-.977.605-2.254.826-3.832.663-1.154-.165-2.152-.73-2.996-1.695-.846-.964-1.15-2.24-.91-3.829.238-1.229.865-2.141,1.879-2.729,1.016-.591,2.246-.764,3.691-.518,1.033.16,2,.654,2.9,1.488.902.833,1.256,2.129,1.062,3.889ZM132.918,52.796c2.068.307,3.326-.279,3.771-1.759.184-1.133-.021-2.006-.617-2.613-.596-.61-1.291-.982-2.092-1.116-.762-.13-1.506-.046-2.232.248-.725.296-1.186.861-1.379,1.694-.156.975.043,1.789.601,2.444.557.654,1.207,1.022,1.947,1.101Z"/>
        <path class="cls-3" d="M144.109,61.941c.396,1.008,1.162,2.169,2.299,3.488.229.318.131.675-.295,1.068-.424.395-.766.43-1.021.1-1.223-1.491-1.992-2.625-2.307-3.395-.793.652-1.771,1.332-2.936,2.038-.494.26-.861.185-1.101-.224-.24-.405-.25-.751-.031-1.032,1.262-.757,2.465-1.645,3.609-2.665.705-1.429,1.275-2.741,1.709-3.94.127-.393.463-.475,1.006-.247.545.229.748.529.613.903-.428.941-.941,2.245-1.545,3.905ZM153.509,57.757c-.785,2.817-2.228,6.51-4.328,11.074-.211.409-.561.514-1.053.311-.49-.199-.666-.494-.525-.883.654-1.267,1.231-2.514,1.733-3.742l-2.483-1.064c-.244-.15-.238-.474.016-.97.254-.497.5-.725.736-.686l2.43,1.047c.977-2.656,1.625-4.566,1.947-5.734.098-.356.408-.44.936-.249.525.19.725.489.592.896ZM156.953,59.215c-.785,2.818-2.236,6.515-4.357,11.089-.189.417-.531.524-1.025.321-.494-.203-.68-.5-.553-.893,2.17-4.588,3.631-8.305,4.379-11.152.113-.35.432-.43.957-.239.525.19.727.481.6.874Z"/>
        <path class="cls-3" d="M162.603,63.211c.496,1.506,1.152,3.029,1.971,4.565.154.361-.02.688-.521.977-.5.293-.84.251-1.02-.127-.863-1.725-1.531-3.216-2-4.48-.916.462-2.182.973-3.799,1.531-.537.144-.881-.009-1.023-.46-.145-.45-.08-.79.195-1.014,1.723-.586,3.254-1.251,4.594-1.994.844-.99,1.609-2.02,2.297-3.095.209-.356.553-.362,1.035-.021.48.344.613.682.398,1.017-.623.826-1.332,1.857-2.127,3.099ZM164.421,74.84c-.389.662-.959,1.105-1.711,1.332-.752.227-1.574.126-2.463-.303-.645-.344-1.111-.892-1.4-1.643-.287-.754-.143-1.627.432-2.624.404-.686.984-1.132,1.742-1.339.756-.206,1.541-.084,2.356.368.576.315,1.016.849,1.316,1.601.301.753.211,1.622-.271,2.606ZM161.037,74.432c.771.406,1.418.305,1.941-.305.25-.434.315-.849.19-1.243-.123-.393-.342-.682-.654-.864-.305-.178-.646-.231-1.025-.158-.379.072-.678.267-.896.582-.213.389-.264.778-.148,1.176.113.396.31.667.594.812ZM171.734,63.413c-.273.753-.689,1.693-1.254,2.818l2.119,1.2c.221.174.176.49-.135.947-.311.457-.641.627-.992.507l-1.865-1.062c-.711,1.259-1.396,2.332-2.061,3.221-.246.384-.602.448-1.068.195-.467-.256-.607-.569-.424-.94,1.853-2.661,3.254-5.228,4.205-7.698.137-.349.455-.397.959-.147.504.253.676.573.516.96Z"/>
        <path class="cls-3" d="M172.076,80.027c-.748.711-1.578,1.095-2.492,1.15-.914.057-1.863-.358-2.846-1.243-.699-.683-1.08-1.499-1.141-2.451-.062-.951.469-1.973,1.594-3.071.764-.711,1.615-1.078,2.551-1.102.934-.026,1.83.401,2.687,1.279.617.616.963,1.402,1.031,2.362.072.961-.391,1.986-1.385,3.076ZM167.709,78.898c1.002.977,2.084,1.093,3.244.348.676-.679,1.027-1.346,1.053-2.005.025-.659-.197-1.233-.668-1.715-.455-.466-.98-.715-1.576-.744-.598-.032-1.164.184-1.703.651-.586.577-.904,1.195-.959,1.852-.053.657.15,1.196.609,1.613ZM178.541,77.9c-1.611,1.829-4.033,4.076-7.266,6.739-.307.231-.607.182-.902-.149-.297-.328-.32-.612-.074-.855.951-.713,1.836-1.438,2.656-2.18l-1.475-1.697c-.129-.201-.006-.441.363-.722.369-.28.637-.363.801-.247l1.443,1.665c1.697-1.638,2.877-2.835,3.541-3.596.203-.23.467-.179.793.153.326.335.365.631.119.887ZM180.595,80.244c-1.613,1.83-4.043,4.074-7.293,6.739-.293.244-.588.199-.887-.132-.297-.332-.328-.623-.09-.871,3.293-2.654,5.736-4.911,7.33-6.776.213-.223.48-.167.807.167.326.332.369.625.133.873Z"/>
      </g>
      <g>
        <path class="cls-7" d="M207.769,101.368s.424-5.571,5.992-7.189c0,0,.693,4.261-6,8.159l.008-.97Z"/>
        <path class="cls-7" d="M207.42,101.698s-1.629-5.344-7.416-5.708c0,0,.252,4.307,7.635,6.652l-.219-.944Z"/>
        <path class="cls-25" d="M204.847,85.83s3.019,11.643,3.174,24.757"/>
        <path class="cls-15" d="M207.732,78.59s-3.977-.824-4.361,4.938c0,0-2.088-3.946-5.045-2.082-2.955,1.865.248,5.43,7.437,8.699,0,0,6.785-10.666,1.969-11.556Z"/>
      </g>
      <g>
        <path class="cls-7" d="M41.857,150.705s-4.234-3.645-9.318-.859c0,0,2.516,3.506,10.009,1.539l-.69-.68Z"/>
        <path class="cls-7" d="M42.338,150.693s-2.621-4.934,1.218-9.278c0,0,2.864,3.226-.706,10.102l-.512-.824Z"/>
        <path class="cls-25" d="M32.953,137.64s6.086,10.377,15.236,19.772"/>
        <path class="cls-10" d="M25.798,134.553s2.233-3.393,6.576.415c0,0-1.308-4.271,2.101-5.036,3.41-.766,3.659,4.019.879,11.412,0,0-12.337-2.76-9.556-6.791Z"/>
      </g>
      <g>
        <path class="cls-7" d="M49.54,46.342s3.654-4.229.878-9.318c0,0-3.51,2.51-1.559,10.006l.681-.688Z"/>
        <path class="cls-7" d="M49.552,46.822s4.938-2.611,9.276,1.235c0,0-3.231,2.858-10.101-.726l.825-.509Z"/>
        <path class="cls-25" d="M62.623,37.46s-10.389,6.067-19.802,15.199"/>
        <path class="cls-5" d="M65.723,30.314s3.389,2.239-.427,6.574c0,0,4.272-1.299,5.032,2.112.758,3.41-4.025,3.65-11.413.855,0,0,2.783-12.33,6.808-9.541Z"/>
      </g>
      <g>
        <path class="cls-13" d="M28.19,113.201c0,1.312-1.066,2.378-2.38,2.378s-2.38-1.065-2.38-2.378,1.065-2.381,2.38-2.381,2.38,1.065,2.38,2.381Z"/>
        <path class="cls-13" d="M38.9,63.217c0,1.315-1.066,2.381-2.381,2.381s-2.38-1.066-2.38-2.381,1.065-2.379,2.38-2.379,2.381,1.065,2.381,2.379Z"/>
        <path class="cls-13" d="M81.345,30.293c0,1.314-1.065,2.381-2.38,2.381s-2.38-1.066-2.38-2.381,1.065-2.38,2.38-2.38,2.38,1.065,2.38,2.38Z"/>
        <path class="cls-13" d="M210.267,127.877c0,1.314-1.064,2.38-2.379,2.38s-2.381-1.065-2.381-2.38,1.066-2.381,2.381-2.381,2.379,1.067,2.379,2.381Z"/>
      </g>
      <ellipse class="cls-27" cx="116.746" cy="101.936" rx="106.312" ry="91.502"/>
    </g>
  </g>
</svg>