<?xml version="1.0" encoding="UTF-8"?>
<svg id="_레이어_2" data-name="레이어 2" xmlns="http://www.w3.org/2000/svg" viewBox="0 0 134.107 166.691">
  <defs>
    <style>
      .cls-1 {
        fill: #f4f4f5;
      }

      .cls-1, .cls-2, .cls-3, .cls-4, .cls-5, .cls-6, .cls-7, .cls-8, .cls-9, .cls-10, .cls-11, .cls-12 {
        stroke-width: 0px;
      }

      .cls-2 {
        fill: #de5c4d;
      }

      .cls-3 {
        fill: #e27456;
      }

      .cls-4 {
        fill: #8ba1cd;
      }

      .cls-5 {
        fill: #1ca891;
      }

      .cls-6 {
        fill: #a15989;
      }

      .cls-7 {
        fill: #f7dc76;
      }

      .cls-8 {
        fill: #c95743;
      }

      .cls-9 {
        fill: #7a4068;
      }

      .cls-10 {
        fill: #724a93;
      }

      .cls-11 {
        fill: #a1d1d5;
      }

      .cls-12 {
        fill: #9c4c35;
      }
    </style>
  </defs>
  <g id="_레이어_1-2" data-name="레이어 1">
    <g>
      <path class="cls-1" d="M133.578,74.465c-.387-1.027-1.674-3.498-5.248-4.264-.182-.039-.365-.07-.551-.09-.287-.033-.566-.049-.834-.049-1.496,0-2.926.475-4.086,1.342-.115-.207-.24-.408-.377-.602-.916-1.312-2.26-2.26-3.891-2.74-.207-.061-.436-.111-.648-.148-.111-.019-.402-.076-.891-.174-.611-.119-1.332-.254-2.16-.396l-1.207-.211.367-.994c1.137-.055,2.236-.387,3.232-1.018,1.185-.766,2.113-1.869,2.685-3.191.014-.035.029-.07.043-.105.193-.475.396-1.043.598-1.68l.557-1.738c.029-.092.057-.182.08-.273.162-.609.33-1.231.504-1.857l.506-1.842c.174-.627.316-1.17.416-1.584.182-.729.277-1.273.314-1.781.094-1.18-.027-2.281-.352-3.246-.703-2.145-2.463-3.721-4.822-4.326-.088-.021-.176-.043-.264-.061-.084-.017-.168-.031-.252-.047-.289-1.031-.703-2.012-1.236-2.928-.08-.133-.164-.264-.252-.393-.814-1.162-1.842-2.193-3.055-3.066-1.049-.752-2.229-1.312-3.529-1.684l-.086-.166-21.539-4.676-3.9-1.308c-.439-.076-.877-.115-1.303-.115-2.369,0-4.463,1.191-5.582,3.15-.242.418-.447.879-.633,1.398-.174-.014-.352-.029-.518-.029-1.685,0-3.281.627-4.533,1.801-.082.08-.164.162-.244.248-.969-1.328-2.33-2.377-3.99-3.072-.043-.018-.088-.035-.131-.053-1.205-.469-2.439-.895-3.666-1.262-.098-.029-.195-.051-.293-.08l.269-2.508c1.32-.098,2.621-.453,3.797-1.072,2.201-1.154,3.852-3.074,4.643-5.406.816-2.4.613-5.051-.555-7.271-1.053-2.002-2.787-3.488-4.84-4.283l-3.299-7.279c-.934-2.059-2.975-3.334-5.17-3.334-.357,0-.719.033-1.08.104l-7.809,1.51c-1.584.309-2.963,1.273-3.793,2.66-.828,1.385-1.029,3.057-.551,4.598l1.846,5.947c-2.637,2.854-3.367,7.115-1.492,10.682.225.428.486.826.77,1.205-1.449.668-2.557,1.91-3.041,3.435l-2.182,6.883c-.283.045-.562.102-.838.17-1.035-1.094-2.496-1.779-4.121-1.779h-2.451v-3.896c0-3.137-2.541-5.678-5.676-5.678h-2.168c-3.137,0-5.678,2.541-5.678,5.678v3.896h-2.451c-3.135,0-5.678,2.541-5.678,5.676v2.17c0,3.135,2.543,5.676,5.678,5.676h2.451v10.602l-12.24,21.254-.447.775s0,.002-.002.004l-3.311,5.752-.801,1.389-.002.002-1.83,3.18c-.008.014-.012.027-.019.041-.115.203-.219.41-.309.627-.006.014-.01.025-.014.037-.08.197-.146.4-.203.608-.016.053-.029.105-.041.156-.043.174-.078.352-.104.531-.008.053-.018.103-.025.156-.025.223-.043.447-.043.678v66.287c0,3.137,2.541,5.678,5.678,5.678h80.92c3.135,0,5.678-2.541,5.678-5.678v-31.137c0-.076-.01-.15-.012-.225-.004-.072-.006-.144-.012-.217-.014-.184-.037-.363-.068-.539-.006-.035-.008-.066-.016-.1-.043-.229-.1-.451-.17-.668-.002-.006-.006-.014-.008-.019-.068-.209-.15-.408-.24-.606-.008-.018-.012-.035-.021-.051l-2.242-4.742-.699-1.48s-.002-.002-.002-.004l-6.623-14.004c-.937-1.984-2.937-3.25-5.133-3.25h-24.73v-9.246c0-.232-.018-.459-.045-.683-.006-.047-.014-.094-.022-.139-.006-.035-.01-.068-.016-.104.434.225.889.422,1.377.564.135.039.27.074.406.104.562.121,1.125.182,1.67.182,1.867,0,3.592-.713,4.889-2.041.848-.881,1.492-1.965,1.935-3.283.146.02.293.039.436.057,1.103.133,1.937.207,2.639.23l.17.002,8.842,1.1c-.07.287-.139.594-.205.926-.178.891-.256,1.832-.232,2.801.012,2.51,1.234,4.725,3.389,6.107.998.635,2.051,1.092,3.137,1.359.658.195,1.389.377,2.191.545.752.156,1.535.307,2.363.453.785.137,1.566.252,2.361.352.797.098,1.506.148,2.164.152.281.024.559.037.824.037.828,0,1.617-.119,2.334-.346,2.332-.74,3.998-2.748,4.451-5.363.252-1.422.072-2.83-.484-4.061l8.826,1.725c-.174.69-.314,1.346-.394,1.961-.1.754-.154,1.547-.166,2.357v.209c.059,2.463,1.256,4.643,3.297,5.986.939.611,1.967,1.076,3.059,1.379.684.205,1.428.393,2.303.576.752.154,1.514.305,2.287.439.861.15,1.67.272,2.465.371.785.092,1.488.141,2.143.149.275.023.547.035.813.035.76,0,1.492-.098,2.184-.291,2.449-.688,4.195-2.713,4.668-5.42.26-1.484.049-2.951-.574-4.217.143-.414.262-.848.357-1.307.111-.488.223-1.016.336-1.586.084-.43.154-.861.211-1.287,1.146-.902,1.988-2.125,2.453-3.57.174-.488.363-1.094.574-1.848.203-.73.406-1.525.607-2.379.228-.873.441-1.758.635-2.654.191-.881.357-1.711.496-2.494.144-.699.271-1.32.373-1.844.178-.889.256-1.449.273-1.961.055-1.322-.119-2.488-.52-3.543Z"/>
      <g>
        <g>
          <g>
            <rect class="cls-11" x="46.621" y="129.877" width="39.977" height="31.137"/>
            <g>
              <rect class="cls-7" x="53.016" y="136.596" width="5.059" height="7.045"/>
              <rect class="cls-7" x="63.133" y="136.596" width="5.057" height="7.045"/>
              <rect class="cls-7" x="73.248" y="136.596" width="5.057" height="7.045"/>
            </g>
          </g>
          <g>
            <polygon class="cls-2" points="86.598 129.879 23.92 129.879 23.92 109.65 77.029 109.65 86.598 129.879"/>
            <polygon class="cls-2" points="86.598 129.879 23.92 129.879 23.92 109.65 77.029 109.65 86.598 129.879"/>
            <polygon class="cls-2" points="86.598 129.879 23.92 129.879 23.92 109.65 77.029 109.65 86.598 129.879"/>
            <g>
              <polygon class="cls-8" points="43.984 120.486 82.154 120.486 80.787 117.596 43.984 117.596 43.984 120.486"/>
              <polygon class="cls-8" points="43.984 114.426 79.287 114.426 77.92 111.535 43.984 111.535 43.984 114.426"/>
              <polygon class="cls-8" points="83.654 123.656 43.984 123.656 43.984 126.547 85.021 126.547 83.654 123.656"/>
            </g>
          </g>
          <g>
            <rect class="cls-12" x="25.068" y="31.518" width="2.168" height="33.598"/>
            <rect class="cls-12" x="16.939" y="41.09" width="18.424" height="2.17"/>
          </g>
          <rect class="cls-11" x="5.678" y="94.727" width="40.943" height="66.287"/>
          <path class="cls-6" d="M25.711,113.16h-.148c-10.176-.299-9.844,22.85-9.844,22.85v25.004h19.836v-25.004s.332-23.148-9.844-22.85Z"/>
          <path class="cls-9" d="M24.912,161.014h1.445v-47.826c-.213-.016-.424-.031-.646-.027h-.148c-.225-.008-.437.012-.65.027v47.826Z"/>
          <rect class="cls-9" x="15.719" y="136.365" width="19.836" height="1.445"/>
          <g>
            <polygon class="cls-2" points="5.678 94.727 26.148 59.176 46.619 94.727 5.678 94.727"/>
            <g>
              <polygon class="cls-8" points="19.852 70.113 32.445 70.113 30.783 67.223 21.516 67.223 19.852 70.113"/>
              <polygon class="cls-8" points="36.56 77.258 34.896 74.367 17.402 74.367 15.738 77.258 36.56 77.258"/>
              <polygon class="cls-8" points="40.674 84.4 39.012 81.514 13.287 81.514 11.623 84.4 40.674 84.4"/>
              <polygon class="cls-8" points="44.789 91.547 43.125 88.656 9.174 88.656 7.51 91.547 44.789 91.547"/>
            </g>
          </g>
        </g>
        <g>
          <path class="cls-3" d="M62.455,48.391c-.262-.121-.42-.332-.48-.635-.059-.301.021-.705.242-1.209.316-.75.641-1.574.967-2.473.326-.9.592-1.77.797-2.615.129-.524.092-.924-.113-1.203-.203-.279-.539-.537-1.004-.768-.316-.129-.717-.27-1.207-.42-.488-.152-1.008-.314-1.56-.486-.535-.15-1.086-.299-1.65-.445-.564-.145-1.051-.291-1.455-.438-.283-.104-.463-.252-.543-.434-.082-.182-.076-.426.014-.727.111-.416.324-.652.646-.717.32-.064.652-.061.994.02,1.125.213,2.244.49,3.359.826,1.111.336,2.195.711,3.248,1.119.853.357,1.455.861,1.803,1.51.344.654.418,1.383.221,2.191-.148.52-.287,1.012-.414,1.477-.131.467-.277.906-.445,1.326-.152.441-.34.902-.564,1.377-.225.479-.486.98-.785,1.512-.342.668-.682,1.074-1.014,1.211-.336.139-.686.141-1.055,0ZM75.814,39.258c.486.103.781.293.885.562.102.273.143.623.125,1.049-.008.149-.051.428-.133.836-.08.408-.184.91-.305,1.504-.103.586-.226,1.201-.367,1.851-.143.649-.295,1.279-.457,1.891-.154.646-.305,1.238-.455,1.773-.15.539-.281.965-.393,1.283-.098.338-.267.584-.51.74-.242.154-.551.18-.928.076-.199-.035-.377-.15-.529-.346-.152-.197-.217-.481-.187-.85.016-.316.072-.742.166-1.279.096-.537.207-1.123.338-1.756.125-.611.268-1.254.42-1.922.154-.666.303-1.299.445-1.891.123-.598.242-1.117.357-1.553.115-.441.205-.738.269-.894.143-.389.311-.674.502-.858.191-.18.441-.256.756-.219Z"/>
          <path class="cls-3" d="M77.949,47.932c.045-.48.244-.756.594-.824.35-.07.719-.092,1.107-.059,1.045.125,2.162.287,3.348.475,1.186.186,2.379.389,3.578.598,1.18.226,2.373.459,3.576.697,1.207.24,2.369.479,3.49.711.34.1.601.209.787.336.182.127.244.373.18.732-.043.24-.143.432-.301.582-.156.15-.439.209-.846.176-.41-.018-.973-.067-1.688-.156-.715-.088-1.529-.211-2.439-.371-.875-.135-1.803-.295-2.785-.477-.978-.18-1.924-.359-2.83-.537-.91-.16-1.76-.312-2.549-.461-.789-.146-1.408-.279-1.858-.396-.379-.084-.705-.193-.98-.328-.279-.133-.408-.367-.385-.697ZM85.799,36.371c.062-.365.178-.619.346-.77.168-.15.434-.201.801-.156.385.051.652.188.801.408.148.223.211.557.189,1.004-.06.551-.142,1.184-.248,1.896-.107.713-.221,1.414-.342,2.106-.125.713-.25,1.373-.377,1.988-.127.613-.232,1.111-.316,1.49-.121.373-.244.662-.363.865-.121.203-.281.353-.488.447-.17.123-.379.185-.623.199-.246.016-.517.004-.812-.027-.129-.006-.324-.025-.582-.061-.254-.035-.527-.078-.818-.129-.291-.051-.58-.109-.871-.168-.289-.06-.508-.111-.648-.154-.281-.107-.512-.242-.687-.404-.18-.162-.307-.336-.389-.518-.072-.219-.115-.439-.123-.654-.008-.219-.006-.475.008-.773.008-.355.049-.859.125-1.51.078-.652.174-1.314.293-1.988.115-.652.221-1.264.32-1.828.1-.562.182-.932.252-1.109.158-.703.32-1.193.484-1.475.16-.281.496-.377,1.006-.289.746.131,1.037.605.877,1.42-.137.559-.273,1.17-.408,1.842-.043.238-.09.453-.143.648.414.096.828.193,1.24.305.408.127.758.227,1.045.295.08-.453.146-.893.203-1.312.088-.608.17-1.135.25-1.588ZM90.131,54.484c-.016.615-.074,1.269-.176,1.965-.105.693-.305,1.41-.602,2.144-.184.4-.514.754-.99,1.065-.477.31-1.01.441-1.6.393-.242-.023-.494-.055-.758-.09-.268-.037-.553-.084-.863-.137-.309-.055-.67-.129-1.088-.219-.414-.09-.879-.211-1.398-.359-.894-.25-1.527-.615-1.902-1.092-.377-.481-.535-1.041-.479-1.688.084-.699.195-1.303.332-1.811.137-.512.264-.943.381-1.299.254-.685.637-1.16,1.15-1.416.514-.256,1.156-.346,1.93-.264.561.023,1.211.1,1.959.231.744.129,1.572.32,2.484.576.533.166.937.426,1.215.773.275.352.41.76.404,1.227ZM82.74,40.502c-.078.438-.137.838-.184,1.205-.086.49-.123.859-.111,1.107-.031.387.057.645.258.773.203.131.451.213.746.246.33.037.59.027.777-.033.191-.061.336-.279.439-.656.094-.432.193-.939.295-1.522l.096-.545c-.396-.088-.809-.191-1.24-.303-.377-.106-.734-.195-1.076-.273ZM83.859,57.52c.43.111.859.213,1.283.293.428.084.824.141,1.197.17.404.031.686-.023.842-.164.158-.141.297-.35.42-.629.068-.176.135-.414.195-.709.06-.299.109-.608.146-.918.051-.402.002-.703-.15-.898-.154-.197-.428-.346-.822-.455-.307-.072-.703-.156-1.191-.248-.492-.096-.984-.17-1.482-.219-.352-.023-.633.029-.844.16-.209.131-.369.396-.476.789-.053.195-.107.412-.168.645-.061.234-.094.473-.098.715-.023.24-.031.441-.023.613.008.17.049.311.123.416.098.092.23.17.396.238.166.066.383.133.652.201ZM91.383,37.096c-.1.449-.215.996-.344,1.629-.117.447-.215.898-.295,1.354.4.07.773.146,1.113.225.381.086.713.172.998.258l.053.01c.072-.307.156-.619.25-.94.162-.703.291-1.338.391-1.902.16-.91.605-1.264,1.338-1.057.355.115.59.305.703.559.115.254.121.615.021,1.086-.103.488-.228,1.084-.371,1.791-.142.707-.295,1.412-.455,2.115-.166.721-.322,1.387-.479,1.996-.152.611-.287,1.084-.404,1.42-.076.23-.158.463-.248.703-.088.236-.199.42-.334.543-.164.18-.35.311-.562.396-.213.084-.467.127-.769.131-.17.01-.383-.008-.639-.041-.256-.035-.51-.076-.766-.121-.256-.045-.5-.09-.736-.143-.232-.049-.395-.094-.482-.129-.285-.086-.535-.182-.75-.285-.217-.104-.394-.232-.537-.391-.158-.178-.258-.381-.301-.615-.043-.23-.051-.533-.023-.904.018-.428.078-.949.176-1.57.1-.621.223-1.285.363-1.988.141-.69.293-1.406.463-2.156.17-.748.326-1.482.473-2.211.119-.467.293-.781.518-.947.227-.168.537-.207.935-.117.357.1.586.24.684.43.1.184.103.475.018.873ZM90.375,41.871c-.045.252-.09.51-.135.764-.133.65-.226,1.18-.277,1.58-.07.402-.047.672.068.812.115.146.336.244.664.299.303.094.559.109.764.053.209-.059.355-.275.439-.654.061-.232.158-.637.297-1.215.082-.357.18-.754.293-1.184-.443-.039-.816-.105-1.119-.197-.307-.072-.639-.158-.994-.258Z"/>
          <path class="cls-3" d="M96.551,56.678c.064-.475.269-.758.615-.85.342-.088.727-.113,1.15-.078,1.022.162,1.986.314,2.891.453.902.139,1.799.285,2.691.441.869.174,1.775.35,2.717.535.943.184,1.986.385,3.131.605.32.096.57.217.75.371.18.152.238.41.174.775-.039.217-.143.4-.309.549-.166.15-.445.219-.838.205-.406-.031-.908-.084-1.506-.15-.598-.066-1.232-.162-1.906-.281-.709-.123-1.445-.252-2.211-.385-.762-.135-1.508-.266-2.236-.394-.744-.146-1.441-.285-2.094-.406-.652-.125-1.195-.246-1.625-.357-.4-.07-.736-.182-1.012-.334-.273-.148-.4-.383-.383-.699ZM112.004,47.803c-.156.889-.469,1.701-.934,2.424-.463.723-1.016,1.311-1.658,1.76-.66.449-1.398.756-2.215.92-.816.17-1.67.17-2.561.016-.945-.184-1.783-.467-2.523-.85-.738-.383-1.35-.869-1.826-1.463-.496-.592-.83-1.271-1.004-2.045-.174-.771-.178-1.637-.008-2.602.139-.781.398-1.533.789-2.252.389-.719.912-1.34,1.563-1.863.641-.543,1.414-.934,2.316-1.17.902-.232,1.91-.254,3.02-.062.965.172,1.793.504,2.484,1,.691.496,1.262,1.065,1.711,1.707.389.668.658,1.396.812,2.182.152.787.164,1.553.033,2.299ZM106.609,42.637c-.783-.137-1.473-.127-2.072.031-.6.156-1.111.412-1.527.771-.441.373-.787.814-1.035,1.324-.248.508-.422,1.045-.519,1.609-.115.654-.107,1.246.023,1.775.131.529.379.996.74,1.398.346.379.768.697,1.268.951.498.258,1.039.438,1.621.539.582.1,1.143.088,1.68-.043.541-.133,1.016-.365,1.432-.707.416-.338.775-.754,1.078-1.246.301-.49.504-1.025.605-1.607.08-.453.082-.932.012-1.43-.07-.5-.225-.99-.461-1.463-.225-.434-.572-.828-1.045-1.18-.473-.355-1.07-.596-1.799-.725ZM104.603,49.26c-.254-.383-.49-.789-.715-1.221-.184-.336-.346-.699-.482-1.1-.137-.396-.185-.754-.15-1.066.037-.31.115-.572.236-.789.123-.211.281-.387.473-.522.15-.103.336-.18.561-.223.223-.049.422-.025.594.059.223.117.389.287.5.512.111.225.186.436.227.633.047.267.072.555.076.854.178-.266.357-.488.537-.662.16-.162.336-.283.531-.373.191-.088.393-.074.598.035.291.164.51.402.66.719.15.32.139.658-.037,1.022-.18.381-.551.762-1.115,1.141-.562.379-1.394.707-2.492.982ZM116.406,48.996c.465.119.746.32.838.6.092.275.119.629.08,1.055-.006.148-.059.424-.158.828-.098.406-.225.883-.379,1.44-.158.572-.324,1.183-.506,1.836-.18.654-.353,1.291-.519,1.92-.205.639-.393,1.223-.559,1.744-.166.525-.316.945-.445,1.26-.127.295-.312.52-.555.676-.244.154-.551.17-.924.051-.215-.061-.396-.178-.541-.365-.146-.185-.193-.479-.139-.883.031-.295.113-.707.244-1.236.131-.529.277-1.109.445-1.734.166-.629.344-1.271.535-1.932.189-.66.367-1.287.525-1.877.158-.57.307-1.074.447-1.512.142-.434.248-.74.316-.914.283-.756.713-1.074,1.293-.955Z"/>
        </g>
        <g>
          <path class="cls-10" d="M46.06,79.635c.062-.633.318-.996.764-1.098.447-.1.916-.129,1.41-.096,1.328.162,2.742.363,4.236.6,1.494.24,3.006.492,4.529.758,1.498.289,3.014.582,4.545.887,1.531.305,3.01.604,4.434.902.455.125.791.275,1.012.443.223.172.291.488.211.949-.049.279-.18.51-.391.697-.213.191-.566.277-1.064.262-.521-.018-1.23-.084-2.129-.193-.896-.111-1.936-.266-3.115-.473-.789-.117-1.611-.248-2.467-.4-.178,1.02-.348,1.918-.508,2.701-.162.926-.299,1.568-.41,1.93-.158.496-.377.885-.652,1.172-.275.283-.699.365-1.275.24-.406-.119-.711-.326-.908-.621-.197-.297-.267-.691-.205-1.18.082-.463.205-1.166.371-2.115.113-.789.26-1.693.439-2.709-.506-.113-1-.213-1.484-.297-1.156-.203-2.236-.398-3.24-.588-1.002-.185-1.791-.352-2.359-.5-.48-.109-.898-.246-1.248-.416-.353-.17-.518-.455-.494-.855ZM54.053,66.635c.209.035.477.072.805.105.559.072,1.234.168,2.024.281.744.109,1.527.215,2.355.324.826.107,1.611.219,2.355.322l1.977.348c.086-.629.162-1.272.229-1.924.082-.75.174-1.4.271-1.953.094-.676.273-1.121.537-1.338.264-.217.641-.295,1.131-.229.494.037.838.211,1.033.518.197.311.262.852.199,1.623-.014.617-.06,1.434-.142,2.441-.082,1.01-.18,2.057-.297,3.131-.133,1.024-.297,2.01-.498,2.951-.201.938-.428,1.65-.678,2.131-.244.434-.543.756-.902.967-.359.215-.918.31-1.678.297-.576.018-1.264.006-2.064-.043-.803-.045-1.637-.117-2.5-.221-.865-.08-1.736-.18-2.609-.297-.873-.115-1.639-.268-2.295-.453-.576-.125-1.061-.311-1.459-.561-.396-.248-.709-.535-.937-.861-.252-.328-.432-.666-.539-1.006-.109-.342-.152-.699-.133-1.076-.019-.432.018-1.086.111-1.965.094-.879.213-1.791.355-2.742.115-.934.225-1.795.326-2.588.103-.789.199-1.299.285-1.523.229-.889.463-1.514.705-1.877.242-.363.686-.488,1.334-.375,1.025.133,1.447.721,1.266,1.76-.127.717-.252,1.492-.373,2.328-.066.514-.131,1.016-.193,1.504ZM63.269,70.535l-.279-.051c-.58-.076-1.232-.164-1.953-.268-.766-.111-1.562-.225-2.387-.348-.824-.121-1.607-.244-2.346-.375-.744-.107-1.393-.209-1.947-.305-.26-.021-.471-.047-.631-.074-.035.207-.059.404-.066.594-.096.676-.145,1.156-.146,1.441-.045.658.08,1.139.373,1.439.291.303.76.523,1.404.658.391.07.873.135,1.447.197.57.068,1.148.139,1.732.217.56.051,1.096.096,1.602.137.504.043.887.061,1.15.059.523-.002.93-.135,1.213-.394.281-.26.463-.609.541-1.047.092-.533.189-1.158.293-1.881Z"/>
          <path class="cls-10" d="M78.359,80.682c.072-.416.156-.769.256-1.064.162-.66.309-1.221.437-1.67.277-.908.805-1.34,1.584-1.299.605.084.99.299,1.154.65.166.352.236.797.213,1.34.008.359-.043.863-.158,1.512l-.176,1.002c.602.106,1.227.203,1.879.295,1.201.211,2.531.443,3.988.699.437.076.768.193.992.351.219.158.301.483.24.973-.049.275-.176.516-.377.721-.201.201-.555.307-1.057.314-.523.002-1.16-.031-1.91-.105-.752-.07-1.566-.17-2.449-.301-.908-.111-1.846-.24-2.809-.385-.965-.144-1.92-.301-2.867-.467-.951-.142-1.844-.275-2.682-.4-.836-.121-1.543-.232-2.121-.334-.484-.086-.91-.205-1.275-.365-.365-.158-.535-.451-.508-.875.029-.307.113-.545.252-.725.139-.182.307-.299.51-.357.182-.088.398-.131.648-.137.25-.004.519-.004.805-.004,1.31.137,2.537.279,3.678.43.607.058,1.193.129,1.752.201ZM75.711,65.604c.207.037.672.096,1.398.174.725.08,1.598.184,2.625.316.42.049.861.104,1.328.162.121-.553.23-.973.33-1.266.316-.992.879-1.418,1.687-1.277.578.102.943.326,1.098.676.152.346.215.807.187,1.373-.006.166-.057.453-.15.865.627.088,1.242.17,1.848.254.934.115,1.748.223,2.447.32.695.1,1.115.16,1.252.184.418.074.707.225.867.457.162.23.242.488.24.773-.006.166-.021.324-.047.473-.027.15-.086.291-.18.418-.094.125-.227.238-.4.338-.17.104-.41.137-.713.107-.219.012-.676-.021-1.379-.098-.512-.065-1.049-.125-1.613-.176.269.238.529.51.787.818.469.582.797,1.229.982,1.939.184.711.215,1.424.09,2.143-.15.855-.43,1.603-.84,2.246-.412.643-.949,1.156-1.611,1.541-.689.406-1.48.67-2.371.801-.894.127-1.906.092-3.037-.106-1.064-.185-2.012-.465-2.84-.834-.826-.371-1.512-.846-2.057-1.416-.547-.547-.93-1.18-1.15-1.898-.219-.717-.254-1.504-.105-2.357.135-.762.402-1.469.801-2.113.398-.646.959-1.201,1.686-1.672l.4-.25c-.189-.008-.365-.027-.525-.055-.725-.08-1.191-.139-1.4-.176-.609-.057-1.027-.183-1.256-.377-.226-.195-.344-.557-.346-1.082.037-.899.693-1.307,1.967-1.227ZM82.228,70.211c-.764-.133-1.445-.152-2.045-.055-.602.098-1.113.264-1.535.498-.455.279-.803.607-1.045.98-.246.371-.406.781-.482,1.221-.154.875.057,1.646.631,2.307.576.66,1.686,1.133,3.324,1.422,1.504.264,2.633.144,3.387-.356.754-.498,1.217-1.246,1.393-2.24.053-.301.029-.646-.066-1.047-.098-.396-.281-.785-.547-1.168-.32-.342-.725-.656-1.211-.945-.484-.285-1.088-.492-1.803-.617ZM80.83,75.754c-.277-.332-.537-.676-.787-1.031-.15-.359-.295-.719-.436-1.078-.139-.357-.213-.715-.221-1.072.004-.309.082-.574.228-.801.146-.225.301-.395.463-.506.191-.137.395-.213.613-.234.219-.021.418-.004.598.049.219.111.389.273.506.484.117.211.211.465.277.762.053.248.074.527.068.834.164-.258.346-.473.545-.654.146-.164.326-.303.533-.406.211-.106.414-.107.609-.002.283.146.506.377.664.69.162.314.162.637.01.965-.18.352-.551.703-1.113,1.057-.562.355-1.416.67-2.559.945ZM87.633,90.775c.486.084.797.107.936.072.135-.033.229-.119.275-.254.039-.088.076-.232.111-.43.033-.193.033-.33,0-.408-.023-.146-.127-.268-.312-.357-.186-.096-.603-.199-1.25-.31-.416-.074-.793-.131-1.131-.18-.336-.047-.68-.102-1.025-.162-.328-.031-.689-.08-1.084-.135-.396-.057-.848-.131-1.355-.221-.82-.07-1.158-.523-1.014-1.356.072-.537.301-.867.693-.988.389-.121.797-.168,1.219-.143.727.078,1.346.152,1.857.217.514.066.99.127,1.434.178.439.078.877.162,1.314.25.437.092.943.197,1.516.318.936.238,1.543.51,1.824.822.277.311.402.76.369,1.352-.035.469-.086.894-.152,1.275-.066.383-.164.801-.291,1.254-.119.404-.23.74-.334.996-.105.258-.24.453-.408.588-.162.115-.396.189-.699.219-.303.031-.678.029-1.125,0-.234-.019-.543-.055-.928-.109-.385-.055-.797-.121-1.234-.197-.461-.082-.941-.166-1.438-.254-.498-.086-.988-.172-1.475-.256-.277-.049-.488-.062-.637-.043-.146.025-.264.146-.35.371-.039.088-.07.201-.096.338-.023.141-.031.248-.019.318.039.316.162.494.371.529.209.039.598.129,1.168.275.543.168,1.144.303,1.805.406.66.104,1.271.191,1.83.268.58.078,1.094.143,1.535.197.445.053.748.094.908.123.557.098.932.26,1.131.484.199.223.264.535.195.928-.094.531-.285.844-.576.936-.289.092-.68.106-1.168.045-.478.01-1.062-.025-1.75-.109-.687-.086-1.379-.188-2.07-.309-.764-.137-1.496-.277-2.197-.42-.701-.148-1.322-.305-1.865-.471-.527-.117-1.049-.34-1.562-.666-.514-.33-.768-.793-.758-1.385-.018-.574.021-1.117.123-1.621.1-.508.203-.928.311-1.27.199-.727.551-1.17,1.057-1.332.504-.164,1.268-.166,2.287-.012l4.035.637ZM95.557,71.438c.621.131.99.369,1.109.711.119.342.176.799.17,1.369-.027.164-.09.51-.184,1.043-.092.529-.213,1.152-.361,1.863-.135.645-.275,1.297-.414,1.967.279.025.539.047.773.062.402.021.799.062,1.193.117.396.059.686.105.873.139.775.184,1.146.58,1.109,1.193-.039.492-.152.836-.34,1.031-.189.193-.51.283-.961.277-.311.02-.686.012-1.121-.02-.436-.023-.853-.053-1.256-.074l-.879-.082-.043.242c-.209.797-.404,1.531-.582,2.203-.178.672-.336,1.199-.473,1.578-.123.432-.348.754-.672.975-.322.215-.709.25-1.16.1-.273-.074-.504-.223-.689-.443-.187-.223-.26-.594-.217-1.111.018-.377.086-.902.205-1.57.115-.67.254-1.397.416-2.178.168-.828.351-1.672.551-2.533.197-.857.385-1.666.566-2.418.15-.736.301-1.383.445-1.941.146-.561.25-.949.314-1.178.178-.469.393-.818.648-1.047.254-.231.578-.32.976-.275Z"/>
          <path class="cls-10" d="M112.496,75.512c-.578.852-1.146,1.656-1.709,2.414-.371.484-.754.965-1.146,1.443.113.164.242.316.385.461.309.412.688.896,1.139,1.449.424.576.959,1.258,1.605,2.051.648.791,1.43,1.769,2.348,2.932.289.385.492.752.609,1.105.115.355.039.697-.234,1.031-.305.377-.684.537-1.139.479-.455-.053-.836-.301-1.139-.734-.682-.881-1.283-1.654-1.81-2.318-.527-.662-1.014-1.283-1.459-1.863-.518-.59-1.019-1.189-1.508-1.801l-.471-.582c-.518.648-1.031,1.269-1.543,1.875-.752.889-1.506,1.797-2.262,2.711-.119.146-.252.291-.396.43-.144.145-.307.258-.488.346-.211.105-.43.172-.662.203-.232.031-.504-.016-.814-.141-.135-.045-.27-.131-.404-.248-.135-.121-.217-.275-.256-.477-.064-.178-.084-.359-.064-.547.021-.186.109-.385.266-.596.721-.992,1.478-1.98,2.269-2.963.791-.981,1.58-1.947,2.367-2.906.748-1.014,1.467-1.996,2.16-2.945.389-.457.732-.92,1.029-1.393l-4.369-.764c-.609-.06-1.025-.203-1.246-.435-.223-.227-.314-.576-.279-1.047.051-.443.25-.76.594-.949.344-.191.832-.266,1.469-.229.184.035.592.1,1.217.199.625.094,1.357.205,2.193.328l5.168.904c.783.137,1.465.262,2.041.375.574.115.92.18,1.035.199.387.113.664.295.836.541.172.244.242.518.211.822-.027.305-.115.6-.26.881-.144.287-.535.41-1.172.367-.189-.008-.586-.061-1.187-.152-.604-.094-1.311-.215-2.117-.355-.256-.043-.521-.078-.805-.102ZM118.627,95.596c.277.047.502.062.67.045.172-.018.285-.057.344-.119.082-.057.146-.117.193-.182.045-.06.076-.129.088-.199.049-.156.09-.305.113-.443.025-.137.023-.27-.002-.393-.035-.223-.141-.395-.32-.521-.182-.129-.598-.227-1.254-.291-.42-.051-.799-.098-1.135-.145-.338-.047-.668-.1-.992-.152-.324-.059-.682-.119-1.076-.176-.397-.055-.859-.131-1.391-.225-.818-.094-1.152-.56-1.008-1.391.088-.508.316-.83.688-.971.369-.137.787-.176,1.254-.119.701.076,1.32.146,1.855.217.535.07,1.025.133,1.471.186.437.078.875.16,1.312.25.437.088.932.191,1.482.312.936.234,1.555.506,1.859.807.305.303.418.736.346,1.293-.043.52-.117,1.041-.223,1.572-.103.527-.209,1.021-.312,1.479-.168.83-.445,1.383-.826,1.66-.383.279-1.039.348-1.967.211-.092-.018-.307-.057-.641-.115-.336-.057-.736-.113-1.203-.17-.463-.084-.941-.16-1.441-.238-.498-.074-.992-.154-1.476-.24-.625-.109-.977.07-1.057.529-.021.115-.047.221-.072.312-.029.088-.043.205-.045.35-.006.305.1.521.316.643.217.121.621.256,1.215.408.496.16,1.068.289,1.719.391.65.102,1.277.195,1.881.277.582.078,1.088.143,1.521.193.432.051.717.092.855.113.576.102.971.266,1.182.494.211.229.281.539.213.932-.094.531-.297.84-.609.928-.314.088-.705.106-1.17.045-.502.008-1.092-.029-1.768-.109-.678-.084-1.394-.193-2.158-.326-.717-.125-1.426-.266-2.125-.408-.701-.146-1.324-.303-1.865-.471-.547-.145-1.057-.369-1.525-.676-.471-.309-.713-.764-.727-1.363.008-.594.047-1.158.117-1.693.07-.533.199-1.131.385-1.791.203-.75.545-1.203,1.025-1.354.479-.158,1.229-.156,2.25,0l4.033.635ZM127.141,75.752c.619.133.994.369,1.125.715.131.344.184.789.158,1.332-.004.168-.059.52-.166,1.062-.107.539-.234,1.168-.383,1.879-.131.738-.287,1.529-.469,2.365-.182.838-.381,1.666-.596,2.486-.187.799-.379,1.543-.568,2.225-.189.682-.352,1.201-.486,1.559-.123.43-.342.756-.654.975-.311.219-.705.248-1.178.096-.252-.066-.476-.211-.674-.438-.199-.225-.277-.598-.234-1.113.016-.356.082-.869.199-1.537.117-.674.26-1.42.43-2.248.094-.412.182-.838.258-1.275l-1.039-.184c-.463-.08-.982-.18-1.557-.291-.576-.111-1.094-.221-1.553-.324-.434-.1-.738-.273-.91-.516-.172-.246-.193-.592-.066-1.049.104-.316.279-.57.527-.766.248-.193.568-.258.963-.191.484.086,1,.172,1.545.256.545.082,1.051.166,1.512.248l1.18.205.252-1.027c.15-.736.299-1.385.445-1.94.144-.559.262-.951.35-1.174.18-.494.393-.85.633-1.068.24-.219.56-.307.957-.262Z"/>
        </g>
        <g>
          <path class="cls-5" d="M44.17,45.248l-.453-.144,4.199-13.246.248.121c.053.027,5.307,2.682,3.846,7.879l-.457-.127c1.193-4.248-2.357-6.623-3.353-7.195l-4.029,12.713Z"/>
          <path class="cls-5" d="M46.08,46.76c0,2.32-1.879,4.197-4.195,4.197s-4.197-1.877-4.197-4.197,1.879-4.195,4.197-4.195,4.195,1.879,4.195,4.195Z"/>
        </g>
        <g>
          <g>
            <polygon class="cls-4" points="53.486 18.922 49.846 7.188 57.652 5.678 62.717 16.854 62.285 17.051 57.375 6.215 50.455 7.553 53.939 18.781 53.486 18.922"/>
            <polygon class="cls-4" points="51.158 10.453 51.041 9.992 58.482 8.092 58.602 8.551 51.158 10.453"/>
          </g>
          <path class="cls-4" d="M56.598,19.281c.935,1.779.172,4.025-1.705,5.012-1.877.986-4.158.342-5.092-1.436-.937-1.781-.174-4.025,1.701-5.014,1.877-.986,4.158-.344,5.096,1.438Z"/>
          <path class="cls-4" d="M65.939,17.539c.936,1.781.172,4.023-1.703,5.01-1.877.986-4.158.346-5.094-1.434-.937-1.781-.174-4.025,1.701-5.014,1.879-.986,4.158-.342,5.096,1.438Z"/>
        </g>
      </g>
    </g>
  </g>
</svg>