<?xml version="1.0" encoding="UTF-8"?>
<svg id="_레이어_2" data-name="레이어 2" xmlns="http://www.w3.org/2000/svg" viewBox="0 0 266.317 132.026">
  <defs>
    <style>
      .cls-1 {
        fill: #e7688d;
      }

      .cls-1, .cls-2, .cls-3, .cls-4 {
        stroke-width: 0px;
      }

      .cls-2 {
        fill: #fff;
      }

      .cls-3 {
        fill: #5e4f45;
      }

      .cls-4 {
        fill: #e26292;
      }
    </style>
  </defs>
  <g id="_레이어_1-2" data-name="레이어 1">
    <g>
      <g>
        <path class="cls-1" d="M125.142,18.064c1.916,1.917,4.56,3.101,7.482,3.101-2.064-2.067-4.771-3.096-7.482-3.101Z"/>
        <path class="cls-1" d="M125.144,24.265c2.709,0,5.414-1.036,7.48-3.1-2.921,0-5.565,1.186-7.48,3.1Z"/>
        <path class="cls-1" d="M129.527,28.647c1.914-1.915,3.097-4.557,3.097-7.482-2.064,2.064-3.097,4.771-3.097,7.482Z"/>
        <path class="cls-1" d="M150.692,13.681c0-2.707-1.033-5.415-3.099-7.483-2.066-2.065-4.775-3.098-7.484-3.098-1.916-1.913-4.562-3.101-7.485-3.101s-5.566,1.187-7.482,3.101c-2.709,0-5.416,1.033-7.484,3.098-2.066,2.067-3.099,4.776-3.099,7.483-1.915,1.917-3.1,4.564-3.1,7.483s1.184,5.569,3.1,7.482c0,2.711,1.033,5.42,3.099,7.487,2.066,2.068,4.774,3.101,7.484,3.095,1.914,1.917,4.56,3.104,7.482,3.104s5.568-1.187,7.485-3.099c2.707,0,5.418-1.033,7.484-3.101,2.066-2.067,3.099-4.775,3.099-7.487,1.916-1.913,3.099-4.557,3.099-7.482s-1.183-5.566-3.099-7.483ZM143.209,10.585c-.002,2.92-1.187,5.566-3.102,7.484,2.708,0,5.416,1.029,7.48,3.096-2.063,2.064-4.772,3.1-7.481,3.1,1.915,1.913,3.1,4.559,3.1,7.483-2.921,0-5.566-1.187-7.482-3.101,0,2.707-1.032,5.418-3.1,7.483-2.064-2.065-3.097-4.776-3.097-7.483-1.916,1.915-4.562,3.101-7.484,3.101,0-2.925,1.187-5.567,3.101-7.483-2.71,0-5.417-1.036-7.483-3.1,2.066-2.067,4.773-3.101,7.482-3.101-1.912-1.913-3.099-4.559-3.099-7.483h0c2.923,0,5.568,1.187,7.484,3.104,0-2.711,1.032-5.415,3.097-7.484h.003c2.064,2.068,3.099,4.772,3.097,7.484,1.915-1.917,4.561-3.101,7.482-3.101h.004Z"/>
        <path class="cls-1" d="M135.724,28.647c-.002-2.711-1.032-5.418-3.1-7.482,0,2.925,1.185,5.566,3.1,7.482Z"/>
        <path class="cls-1" d="M129.527,13.686c0,2.707,1.031,5.412,3.097,7.479,0-2.919-1.183-5.566-3.097-7.479Z"/>
        <path class="cls-1" d="M135.724,13.686c-1.915,1.913-3.1,4.56-3.1,7.479,2.067-2.067,3.1-4.772,3.1-7.479Z"/>
        <path class="cls-1" d="M140.107,18.069c-2.708,0-5.415,1.029-7.483,3.096,2.923,0,5.566-1.183,7.483-3.096Z"/>
        <path class="cls-1" d="M140.106,24.265c-1.915-1.914-4.559-3.1-7.482-3.1,2.067,2.064,4.774,3.1,7.482,3.1Z"/>
      </g>
      <g>
        <path class="cls-4" d="M24.864,131.867h-7.508c-.532,0-.967-.16-1.303-.479-.339-.321-.507-.764-.507-1.332v-12.405H0v-2.98h40.517v2.98h-15.653v14.217ZM6.123,108.759c-.959,0-1.624-.248-1.997-.745-.372-.497-.558-1.153-.558-1.97v-15.493c0-.816-.179-1.375-.532-1.677-.356-.3-.853-.452-1.491-.452H.532v-1.864h11.394v8.093h16.558v-4.294c0-.859-.169-1.431-.505-1.717-.338-.286-.808-.431-1.411-.431h-1.012v-1.917h11.447v22.468H6.123ZM28.484,97.632H11.926v8.146h16.558v-8.146Z"/>
        <path class="cls-4" d="M42.54,126.064c2.378-1.668,4.26-3.478,5.643-5.431,1.385-1.952,2.422-4.019,3.115-6.203.693-2.183,1.126-4.473,1.305-6.868.177-2.397.266-4.853.266-7.375v-5.004h-8.625v-3.089h8.625v-3.886c-.072-.71-.266-1.189-.587-1.438-.319-.248-.78-.372-1.384-.372h-1.012v-1.97h11.341v7.666h7.986v3.089h-7.986v2.767c0,2.982.08,5.786.239,8.413.16,2.627.587,5.067,1.278,7.32.693,2.255,1.731,4.34,3.115,6.256,1.385,1.917,3.301,3.657,5.751,5.218l-1.81,2.183c-2.344-1.102-4.624-2.644-6.842-4.633-2.218-1.987-4.127-4.33-5.723-7.027-1.562,2.946-3.407,5.43-5.537,7.453-2.129,2.023-4.632,3.727-7.508,5.111l-1.65-2.182ZM65.86,104.554h7.827v-15.6c-.072-.71-.285-1.189-.638-1.438-.356-.248-.817-.372-1.385-.372h-1.065v-1.97h11.181v46.853h-6.347c-1.163,0-1.746-.604-1.746-1.81v-22.521h-7.827v-3.141Z"/>
        <path class="cls-4" d="M91.043,89.965c-.072-.71-.258-1.189-.558-1.438-.302-.248-.72-.372-1.252-.372h-1.065v-1.864h11.447v19.22h14.961v2.982h-20.923c-.853,0-1.501-.235-1.944-.705-.444-.472-.665-1.09-.665-1.857v-15.965ZM92.534,113.659h35.14v18.209h-30.082c-.887,0-1.474-.249-1.757-.745-.285-.498-.425-1.083-.425-1.757v-11.714c0-.816-.152-1.365-.454-1.65-.302-.283-.79-.426-1.464-.426h-.959v-1.916ZM103.928,129.152h15.387v-12.832h-15.387v12.832ZM119.262,89.273c0-.887-.179-1.472-.532-1.757-.356-.283-.853-.425-1.491-.425h-1.065v-1.97h11.447v25.822h-6.336c-.817,0-1.358-.16-1.624-.479-.266-.319-.399-.834-.399-1.544v-19.647Z"/>
        <path class="cls-4" d="M176.284,111.209c3.408-2.131,5.937-4.659,7.588-7.588,1.65-2.927,2.51-6.309,2.581-10.142v-3.195c-.036-.602-.239-1.02-.612-1.251-.372-.23-.824-.346-1.358-.346h-.904v-1.864h11.607v4.473c0,4.366.86,8.023,2.581,10.969,1.721,2.946,4.234,5.413,7.535,7.4l-1.704,2.448c-3.195-1.278-5.803-2.839-7.827-4.685-2.023-1.846-3.639-3.78-4.845-5.803-.64,1.527-1.438,2.91-2.397,4.152-.957,1.243-2.005,2.352-3.141,3.328-1.136.977-2.334,1.846-3.594,2.608-1.261.764-2.528,1.429-3.806,1.997l-1.704-2.503ZM192.949,128.566h23.905v3.301h-30.667c-.923,0-1.508-.249-1.757-.745-.249-.498-.372-1.083-.372-1.757v-9.637c0-.817-.179-1.385-.532-1.704-.356-.319-.87-.479-1.544-.479h-.959v-1.81h11.926v12.832ZM208.229,89.273c0-.887-.177-1.472-.532-1.757-.355-.283-.851-.425-1.491-.425h-1.065v-1.97h11.447v33.702h-6.336c-.817,0-1.358-.167-1.624-.507-.266-.336-.399-.841-.399-1.517v-27.527Z"/>
        <path class="cls-4" d="M225.266,89.965c-.072-.71-.258-1.18-.558-1.411-.302-.23-.72-.346-1.252-.346h-1.065v-1.917h11.447v16.665h14.961v3.088h-20.923c-.853,0-1.501-.23-1.945-.691-.444-.461-.665-1.1-.665-1.917v-13.47ZM238.63,129.099h22.948v2.714h-29.284c-.887,0-1.544-.248-1.97-.745-.425-.496-.638-1.083-.638-1.757v-5.536c0-.853-.152-1.429-.454-1.731-.302-.3-.79-.452-1.464-.452h-.959v-1.97h24.971v-6.283h-23.001v-2.714h31.999v11.66h-22.149v6.815ZM252.366,89.273c0-.887-.177-1.472-.532-1.757-.355-.283-.834-.425-1.437-.425h-1.012v-1.97h11.394v10.009h5.537v2.663h-5.537v10.382h-6.39c-.781,0-1.314-.16-1.597-.479-.285-.319-.426-.851-.426-1.597v-16.825Z"/>
        <g>
          <path class="cls-4" d="M159.139,115.895v12.885h15.6v3.088h-40.517v-3.088h15.652v-12.885"/>
          <circle class="cls-4" cx="154.481" cy="104.009" r="19.872" transform="translate(17.762 230.462) rotate(-76.717)"/>
          <g>
            <polygon class="cls-2" points="166.069 115.598 153.018 115.598 153.018 102.544 155.949 102.544 155.949 112.667 166.069 112.667 166.069 115.598"/>
            <polygon class="cls-2" points="166.069 105.474 153.018 105.474 153.018 102.544 163.139 102.544 163.139 92.421 166.069 92.421 166.069 105.474"/>
            <polygon class="cls-2" points="155.949 105.474 153.018 105.474 153.018 95.351 142.894 95.351 142.894 92.421 155.949 92.421 155.949 105.474"/>
            <polygon class="cls-2" points="145.824 115.598 142.894 115.598 142.894 102.544 155.949 102.544 155.949 105.474 145.824 105.474 145.824 115.598"/>
          </g>
        </g>
      </g>
      <g>
        <path class="cls-3" d="M12.91,53.968h-3.37v2.455c0,1.541.043,2.953.132,4.237.089,1.285.289,2.48.602,3.587.313,1.107.783,2.143,1.408,3.106.627.963,1.477,1.902,2.553,2.817l-.651.914c-.61-.289-1.203-.658-1.781-1.107s-1.119-.939-1.624-1.468c-.507-.531-.972-1.092-1.396-1.686-.426-.594-.791-1.18-1.096-1.758-.289.595-.654,1.209-1.096,1.843-.441.634-.923,1.239-1.444,1.817-.522.578-1.072,1.096-1.65,1.552-.578.458-1.155.807-1.733,1.047l-.674-.987c.963-.77,1.748-1.661,2.359-2.671.61-1.012,1.086-2.083,1.432-3.215.345-1.13.578-2.295.698-3.49.12-1.196.18-2.372.18-3.527v-3.467h-3.684v-1.374h10.834v1.374ZM21.025,62.297h-2.528v10.738h-2.889c-.24,0-.434-.073-.578-.216-.145-.145-.216-.346-.216-.602v-18.658c-.033-.322-.124-.538-.278-.651-.153-.112-.358-.169-.614-.169h-.458v-.89h5.032v9.1h2.528v1.348Z"/>
        <path class="cls-3" d="M24.299,70.94c-.385,0-.678-.113-.879-.336-.202-.226-.302-.515-.302-.867v-15.457c0-.369-.069-.621-.205-.758-.136-.136-.341-.205-.614-.205h-.481v-.843h5.055v7.416h2.962v-5.875c-.033-.321-.096-.534-.193-.638-.096-.103-.28-.156-.554-.156h-.434v-.867h4.743v18.587h-9.1ZM26.874,61.286v8.257h2.962v-8.257h-2.962ZM39.465,73.035h-2.893c-.511,0-.765-.273-.765-.818v-18.658c-.033-.322-.124-.538-.278-.651-.152-.112-.365-.169-.638-.169h-.481v-.89h5.055v21.186Z"/>
        <path class="cls-3" d="M59.376,64.994h-5.513v4.912h7.007v1.395h-18.322v-1.395h7.126v-4.912h-4.261c-.401,0-.683-.116-.843-.348-.16-.232-.24-.532-.24-.9v-3.959c0-.383-.06-.644-.18-.78-.12-.136-.342-.203-.662-.203h-.434v-.864h12.038v-4.19h-11.05v-1.396h14.348c.273,0,.466.064.578.193.113.129.169.353.169.674v6.067h-10.786v4.261h11.026v1.445Z"/>
        <path class="cls-3" d="M74.376,68.509h-3.347c-.289,0-.502-.06-.638-.182-.136-.12-.205-.341-.205-.661v-4.045h-7.872v-1.348h18.322v1.348h-6.26v4.888ZM68.357,71.518h11.05v1.444h-14.155c-.386,0-.642-.112-.771-.336s-.192-.489-.192-.794v-3.9c0-.369-.073-.622-.217-.758-.145-.136-.369-.205-.674-.205h-.458v-.867h5.417v5.417ZM71.415,60.54c-1.107,0-2.139-.08-3.093-.24-.956-.16-1.781-.418-2.48-.771-.698-.352-1.245-.806-1.637-1.359-.393-.554-.591-1.216-.591-1.986,0-.803.197-1.485.591-2.048.392-.561.939-1.023,1.637-1.384.698-.362,1.524-.622,2.48-.783.954-.16,1.986-.24,3.093-.24,1.123,0,2.166.08,3.131.24.963.16,1.797.421,2.503.783.707.361,1.256.823,1.65,1.384.393.562.59,1.245.59,2.048,0,.77-.196,1.432-.59,1.986-.393.554-.943,1.007-1.65,1.359-.705.353-1.54.611-2.503.771-.964.16-2.007.24-3.131.24ZM71.415,59.143c1.445,0,2.484-.256,3.118-.77.634-.514.952-1.243.952-2.191,0-.98-.318-1.73-.952-2.252-.634-.521-1.673-.783-3.118-.783-1.412,0-2.435.262-3.069.783-.635.522-.952,1.272-.952,2.252,0,.947.316,1.677.952,2.191.634.514,1.657.77,3.069.77Z"/>
        <path class="cls-3" d="M99.413,52.474c.305,0,.509.064.614.193.104.129.157.345.157.65v17.383h-8.764c-.385,0-.678-.113-.879-.338-.202-.225-.302-.514-.302-.866v-15.217c0-.369-.069-.621-.205-.758-.136-.136-.341-.205-.614-.205h-.481v-.843h10.472ZM94.093,69.303h2.551v-15.433h-2.551v15.433ZM108.586,62.297h-2.335v10.738h-2.895c-.511,0-.765-.273-.765-.818v-18.658c-.031-.322-.136-.538-.313-.651-.176-.112-.376-.169-.601-.169h-.602v-.89h5.177v9.1h2.335v1.348Z"/>
        <path class="cls-3" d="M127.993,63.453h-18.322v-1.348h18.322v1.348ZM110.489,65.643h15.938v7.319h-13.579c-.369,0-.622-.112-.758-.336-.137-.225-.205-.489-.205-.794v-4.383c0-.385-.077-.645-.229-.783-.153-.136-.358-.205-.614-.205h-.554v-.818ZM118.771,60.275c-1.107,0-2.139-.076-3.093-.229-.956-.152-1.781-.396-2.48-.734s-1.245-.774-1.637-1.312c-.393-.538-.591-1.192-.591-1.962,0-.787.197-1.457.591-2.01.392-.554.939-1,1.637-1.336.698-.338,1.524-.582,2.48-.734.954-.153,1.986-.229,3.093-.229,1.123,0,2.166.076,3.131.229.963.152,1.797.396,2.503.734.707.336,1.256.783,1.65,1.336.393.554.59,1.223.59,2.01,0,.77-.196,1.424-.59,1.962-.393.538-.943.974-1.65,1.312-.705.338-1.54.582-2.503.734-.964.153-2.007.229-3.131.229ZM118.771,58.878c1.445,0,2.484-.232,3.118-.698.634-.465.952-1.179.952-2.142,0-.979-.318-1.706-.952-2.179s-1.673-.711-3.118-.711c-1.412,0-2.435.238-3.069.711-.635.474-.952,1.2-.952,2.179,0,.963.316,1.677.952,2.142.634.466,1.657.698,3.069.698ZM115.713,71.734h6.862v-4.886h-6.862v4.886Z"/>
        <path class="cls-3" d="M129.75,61.707c0-2.083.147-3.755.445-5.014.296-1.258.701-2.224,1.216-2.897.512-.672,1.115-1.117,1.806-1.334.69-.217,1.435-.325,2.238-.325.787,0,1.521.107,2.203.325.683.216,1.272.661,1.77,1.334.497.674.886,1.64,1.168,2.897.28,1.259.421,2.93.421,5.014s-.14,3.756-.421,5.014c-.282,1.259-.667,2.228-1.156,2.91-.489.68-1.076,1.129-1.757,1.346-.683.216-1.425.323-2.228.323s-1.548-.107-2.238-.323c-.691-.217-1.293-.667-1.806-1.346-.515-.683-.92-1.651-1.216-2.91-.298-1.258-.445-2.929-.445-5.014ZM133.409,61.696c0,1.814.04,3.258.12,4.334.08,1.075.205,1.902.373,2.48.169.577.381.954.638,1.13.256.177.561.266.914.266s.654-.089.903-.266c.249-.176.454-.554.614-1.13.16-.578.278-1.405.349-2.48.073-1.076.109-2.52.109-4.334,0-1.797-.036-3.238-.109-4.323-.072-1.083-.189-1.913-.349-2.491-.16-.578-.365-.954-.614-1.132-.249-.176-.549-.265-.903-.265s-.658.104-.914.313c-.258.209-.469.605-.638,1.192-.169.585-.293,1.417-.373,2.491-.08,1.076-.12,2.48-.12,4.214ZM146.819,73.035h-2.893c-.511,0-.765-.273-.765-.818v-18.658c-.033-.322-.124-.538-.278-.651-.152-.112-.365-.169-.638-.169h-.481v-.89h5.055v21.186Z"/>
        <path class="cls-3" d="M175.349,62.274h-18.322v-1.349h7.679v-1.956c0-.371-.064-.628-.192-.773-.129-.146-.353-.217-.674-.217h-.122c-.176.322-.365.62-.565.893-.2.275-.405.541-.614.798l-1.83-.29c.064-.29.129-.632.193-1.026.064-.395.12-.798.169-1.209.047-.411.083-.821.107-1.232.024-.409.037-.777.037-1.099v-1.183h-3.444v-1.396h5.562c.979,0,1.469.458,1.469,1.372,0,.611-.057,1.2-.169,1.77-.113.569-.273,1.112-.482,1.625h4.285v3.923h6.911v1.349ZM157.797,72.192c.979-.273,1.87-.605,2.673-.999.803-.393,1.488-.816,2.059-1.265.569-.449,1.006-.91,1.312-1.384.305-.474.456-.943.456-1.408v-.122h-5.658v-1.348h5.658v-.608c0-.227-.06-.409-.18-.548-.12-.137-.309-.206-.565-.206h-.482v-.901h5.49v2.264h5.658v1.348h-5.658v.049c0,1.012.565,1.93,1.697,2.757,1.132.826,2.669,1.528,4.61,2.106l-.698,1.301c-1.686-.386-3.151-.883-4.394-1.494-1.243-.61-2.347-1.419-3.31-2.431-.963,1.156-2.112,2.042-3.443,2.66-1.334.618-2.817,1.103-4.454,1.457l-.771-1.228ZM165.936,52.234h6.861c.963,0,1.445.458,1.445,1.372,0,.627-.069,1.245-.205,1.854-.137.61-.322,1.192-.554,1.746-.233.554-.498,1.07-.796,1.552-.296.482-.605.899-.927,1.252l-1.902-.385c.305-.787.522-1.621.65-2.504.129-.883.193-1.653.193-2.312v-1.179h-4.766v-1.396Z"/>
        <path class="cls-3" d="M189.385,52.474v1.396h-1.661v15.433h1.902v1.396h-12.616v-1.396h1.854v-15.433h-1.854v-1.396h12.375ZM182.162,53.87v15.433h2.359v-15.433h-2.359ZM194.513,73.035h-2.889c-.562,0-.843-.273-.843-.818v-18.658c-.016-.322-.096-.538-.24-.651-.145-.112-.353-.169-.627-.169h-.385v-.89h4.984v21.186Z"/>
        <path class="cls-3" d="M215.579,63.526h-18.322v-1.349h18.322v1.349ZM199.11,53.799c-.031-.321-.12-.542-.265-.662-.145-.12-.361-.18-.65-.18h-.434v-.843h5.177v6.091h11.146v1.421h-13.843c-.401,0-.69-.116-.867-.349-.176-.233-.265-.518-.265-.856v-4.622ZM203.348,71.518h10.979v1.444h-14.085c-.385,0-.642-.112-.77-.336-.129-.225-.193-.489-.193-.794v-4.31c0-.369-.072-.627-.216-.771-.145-.145-.362-.216-.651-.216h-.481v-.818h5.417v5.802Z"/>
        <path class="cls-3" d="M223.162,70.291c.786-.674,1.424-1.445,1.914-2.312.489-.866.861-1.817,1.119-2.852.256-1.036.429-2.143.518-3.322.087-1.18.132-2.428.132-3.745v-3.996c0-.385-.064-.647-.192-.783-.129-.136-.346-.205-.651-.205h-.432v-.843h4.935v4.815c0,1.701.04,3.195.12,4.479.08,1.285.245,2.428.494,3.431s.602,1.897,1.059,2.684c.458.787,1.072,1.525,1.843,2.215l-.891.89c-.434-.225-.883-.574-1.348-1.046-.466-.474-.907-.992-1.325-1.554-.418-.561-.786-1.128-1.107-1.697-.321-.569-.554-1.063-.698-1.481-.209.674-.489,1.332-.843,1.975-.352.642-.743,1.232-1.168,1.77-.425.538-.874,1.023-1.348,1.457-.474.434-.927.778-1.361,1.035l-.77-.914ZM231.637,59.866h2.48v-6.164c0-.368-.033-.641-.096-.818-.064-.176-.282-.265-.651-.265h-.289v-.89h4.238v21.234h-2.557c-.239,0-.406-.072-.502-.216-.096-.145-.143-.289-.143-.434v-11.05h-2.48v-1.397ZM238.98,53.702c0-.385-.036-.661-.109-.83-.072-.169-.3-.253-.687-.253h-.216v-.89h4.214v21.234h-2.553c-.225,0-.389-.06-.494-.18s-.156-.276-.156-.469v-18.611Z"/>
        <path class="cls-3" d="M243.626,62.563c3.033-1.879,4.582-4.51,4.646-7.897v-.747c-.031-.273-.132-.458-.3-.554-.169-.096-.358-.145-.565-.145h-.531v-.867h5.297v1.59c.033,1.893.438,3.483,1.216,4.766.778,1.285,1.897,2.384,3.358,3.3l-.77,1.059c-1.445-.562-2.617-1.263-3.516-2.106-.899-.843-1.63-1.714-2.191-2.613-.305.674-.674,1.288-1.107,1.841s-.911,1.047-1.432,1.481c-.522.434-1.067.814-1.637,1.143-.571.329-1.136.614-1.698.856l-.77-1.107ZM247.045,68.919c0-.787.173-1.472.518-2.059.345-.585.838-1.079,1.481-1.481.641-.401,1.417-.701,2.324-.903.906-.2,1.922-.3,3.045-.3,1.107,0,2.115.1,3.022.3.906.202,1.681.502,2.324.903.641.402,1.139.896,1.492,1.481.352.587.529,1.272.529,2.059,0,.803-.177,1.497-.529,2.082-.353.587-.851,1.076-1.492,1.469-.642.392-1.418.685-2.324.879-.907.192-1.914.289-3.022.289-1.123,0-2.139-.097-3.045-.289-.907-.193-1.683-.486-2.324-.879-.642-.393-1.136-.883-1.481-1.469-.345-.585-.518-1.279-.518-2.082ZM250.825,68.93c0,.661.087,1.216.265,1.667.176.451.425.813.747,1.087.321.273.698.475,1.132.604.432.129.914.193,1.444.193.514,0,.987-.064,1.421-.193s.81-.331,1.132-.604c.321-.275.574-.637.758-1.087.185-.451.276-1.006.276-1.667,0-.677-.092-1.243-.276-1.703-.185-.459-.438-.83-.758-1.112-.322-.282-.698-.482-1.132-.604-.434-.12-.907-.18-1.421-.18-.529,0-1.012.06-1.444.18-.434.122-.811.322-1.132.604-.322.282-.571.652-.747,1.112-.177.459-.265,1.026-.265,1.703ZM257.807,53.702c0-.401-.082-.665-.242-.794-.16-.127-.376-.192-.65-.192h-.458v-.891h5.152v5.201h2.504v1.203h-2.504v5.344h-2.889c-.353,0-.594-.072-.723-.216-.129-.145-.192-.378-.192-.698v-8.957Z"/>
      </g>
    </g>
  </g>
</svg>