<?xml version="1.0" encoding="UTF-8"?>
<svg id="_레이어_2" data-name="레이어 2" xmlns="http://www.w3.org/2000/svg" viewBox="0 0 142.353 182.942">
  <defs>
    <style>
      .cls-1 {
        fill: #e2d1b4;
      }

      .cls-1, .cls-2, .cls-3, .cls-4, .cls-5 {
        stroke-width: 0px;
      }

      .cls-2 {
        fill: #24221b;
      }

      .cls-3 {
        fill: #dd8c3f;
      }

      .cls-4 {
        fill: #f5f5f5;
      }

      .cls-5 {
        fill: #3c382f;
      }
    </style>
  </defs>
  <g id="_레이어_1-2" data-name="레이어 1">
    <g>
      <path class="cls-5" d="M142.353,0H29.144C13.048,0,0,13.048,0,29.144v124.655c0,16.095,13.048,29.143,29.144,29.143h113.209V0Z"/>
      <path class="cls-1" d="M139.106,143.034H35.886c-26.573,0-26.573,13.799-26.573,16.994v4.125c0,3.196,4.346,15.201,26.573,15.201h103.22v-36.321Z"/>
      <path class="cls-4" d="M21.872,9.423c.101,5.289.145,10.578.219,15.868l.124,15.868c.074,10.578.067,21.157.105,31.735-.035,10.579-.032,21.157-.103,31.736l-.125,15.867c-.074,5.289-.118,10.578-.22,15.867-.102-5.289-.145-10.578-.22-15.867l-.125-15.867c-.072-10.579-.068-21.157-.103-31.736.037-10.578.03-21.157.104-31.735l.125-15.868c.074-5.289.117-10.578.218-15.868Z"/>
      <g>
        <polygon class="cls-4" points="109.609 44.101 90.405 44.101 90.405 22.873 73.592 22.873 73.592 45.258 53.041 45.258 53.041 59.732 72.246 59.732 72.246 100.645 90.405 100.645 90.405 59.732 109.609 59.732 109.609 44.101"/>
        <polygon class="cls-2" points="108.265 42.942 89.059 42.942 89.059 21.715 70.901 21.715 70.901 42.942 51.695 42.942 51.695 58.574 70.901 58.574 70.901 99.873 87.714 99.873 87.714 57.416 108.265 57.416 108.265 42.942"/>
        <polygon class="cls-3" points="108.265 44.101 89.059 44.101 89.059 22.873 72.246 22.873 72.246 44.101 53.041 44.101 53.041 58.574 72.246 58.574 72.246 99.873 89.059 99.873 89.059 58.574 108.265 58.574 108.265 44.101"/>
      </g>
    </g>
  </g>
</svg>