<?xml version="1.0" encoding="UTF-8"?>
<svg id="_레이어_2" data-name="레이어 2" xmlns="http://www.w3.org/2000/svg" viewBox="0 0 328.114 191.754">
  <defs>
    <style>
      .cls-1 {
        fill: #fcf0a0;
      }

      .cls-1, .cls-2, .cls-3, .cls-4, .cls-5 {
        stroke-width: 0px;
      }

      .cls-2 {
        fill: #6b9dd4;
      }

      .cls-3 {
        fill: #fff;
      }

      .cls-4 {
        fill: #5ac2d6;
      }

      .cls-5 {
        fill: #32a3b4;
      }
    </style>
  </defs>
  <g id="_레이어_1-2" data-name="레이어 1">
    <g id="_01" data-name="01">
      <circle class="cls-4" cx="215.208" cy="165.583" r="24.375"/>
      <ellipse class="cls-4" cx="64.527" cy="113.068" rx="25.592" ry="25.044"/>
      <path class="cls-5" d="M82.782,92.965c-.593-.472-.85-1.214-1.479-1.702s-1.323-.7-2.045-.993c-.712-.289-1.293-.451-2.025-.636-.704-.178-1.224-.729-1.832-1.104-.573-.353-.994-.885-1.588-1.224-.89-.508-1.781-.508-2.745-.306-.588.124-.601.008-1.153-.291-.841-.455-1.801-.605-2.74-.495-1.239.145-2.613.286-3.827.018-1.565-.345-2.971.33-4.496.417-.674.038-1.328.195-1.994.259-.924.089-1.737.191-2.52.742-.495.349-.727.956-1.257,1.199-.274.126-.623.107-.914.191-.52.149-.946.464-1.42.701-.723.362-1.337.601-1.969,1.133-.558.469-1.033,1.042-1.521,1.581-.53.586-.799,1.269-1.166,1.894-.045.077-.229.089-.288.149-.261.266.44-.058.05.006-.538.087-.948.144-1.425.442-1.292.807-2.287,2.883-2.51,4.32-.096.618-.368,1.115-.55,1.724-.076.254-.077.583-.206.818-.161.293-.506.462-.739.716-.661.72-.892,1.59-1.022,2.526-.087.622-.248.68-.679,1.128-1.19,1.236-.616,2.852-1.259,4.231-.672,1.443-.704,3.246-.287,4.789.073.27.703,1.413.714,1.187.005-.117-.34.383-.408.501-.238.409-.384.903-.401,1.378-.033.924.318,1.666.849,2.384.419.567.261.493.233,1.287-.049,1.396.59,3.608,1.607,4.587.575.553.859.397.959,1.168.133,1.027.665,2.01,1.571,2.564.318.195.776.252,1.072.459.167.116.33.418.486.577.502.513,1.04,1.005,1.562,1.497.464.438,1.034.765,1.434,1.242.622.742,1.08,1.31,2.003,1.722,1.352.604,2.782,1.046,4.143,1.623.662.281,1.247.641,1.968.785.475.095.956.12,1.432.014.141-.032.722-.272.68-.275.479.026,1.047.648,1.525.804.669.218,1.363.692,2.082.662.167-.007,1.234-.335.758-.308-.345.019-.149-.107-.021.098.133.212.606.397.794.463.759.265,1.641.034,2.169-.583.042-.049.294-.38.296-.378-.007-.007-.488.044-.353.222.028.037.522.174.586.198.102.037,1.01.343.654.165.403.202.636.6,1.107.758.681.229,1.507-.008,2.196-.15.379-.078.749-.187,1.077-.408.018-.012.282-.177.278-.193.039.144-1.422.163-.199.344.721.107,1.519-.037,2.208-.273.339-.116.601-.335.916-.476.338-.152.716-.166,1.071-.273.167-.05.863-.225.938-.405-.043.103-.646-.327-.368-.078.114.102.382.187.525.23.927.28,1.672-.155,2.487-.528.703-.322,1.389-.577,1.857-1.227.146-.203.214-.388.322-.612.203-.423-.033.049-.038.049.388-.012.761-.093,1.123-.226.417-.154.811-.38,1.144-.678.187-.167.435-.418.543-.628.037-.072.238-.609-.031-.149-.18.308-.056.091.237-.056.205-.103.368-.212.558-.336.329-.214.67-.399,1.001-.608.666-.421,1.217-1.01,1.574-1.712.32-.628.242-1.115.734-1.555.661-.592,1.25-1.005,1.646-1.843.306-.649.534-1.447.709-2.138.187-.737-.023-1.388.242-2.1.255-.685.553-1.358.793-2.047.153-.438.122-1.002.288-1.388.301-.703.937-1.119,1.176-1.915.141-.47.179-.951.076-1.436-.224-1.049-.081.177-.325.285.679-.299.606-2.161.509-2.678-.073-.391-.287-.84-.183-1.215.073-.263.381-.582.495-.85.212-.5.248-1.009.279-1.544.045-.761.121-1.488.035-2.25-.089-.783-.488-1.274-.765-1.954-.218-.533.079-1.09.064-1.666-.012-.459-.115-.898-.286-1.32-.079-.197-.16-.376-.269-.555-.083-.136-.458-.821-.244-.286-.301-.753-.562-1.392-1.019-2.069-.259-.384-.615-1.06-.77-1.6-.247-.859-.509-1.601-1.193-2.228-.531-.486-.999-.625-1.476-1.157-1.55-1.729-4.089.824-2.546,2.546.441.492,1.275.835,1.63,1.33.134.187.108.517.173.742.15.525.446.956.685,1.438.3.606.737,1.113.98,1.726.19.479.655,1.161.734,1.573.06.31-.156.773-.158,1.104-.003.437.06.925.192,1.345.238.755.749,1.186.723,1.995-.021.668-.052,1.255-.301,1.762-.477.972-.707,1.783-.511,2.889.048.273.155.562.173.841.037.553.055.125.066.067-.015.08-.175.29-.224.386-.215.418-.285.863-.216,1.324.018.124.037.488.157.576.071.24.11.16.117-.239l-.281.364c-.855.874-1.1,2.652-1.565,3.887-.304.808-.723,1.631-.792,2.499-.025.311.061.621.036.924-.031.365-.243.815-.365,1.181-.213.64-.591.674-1.091,1.117-.791.701-.874,1.507-1.301,2.369-.25.504-1.035.918-1.545,1.202-.445.248-.804.331-1.162.73-.166.185-.294.546-.467.652-.435.265-1.188.191-1.689.47-.522.291-.913.667-1.194,1.195-.051.096-.308.589-.271.685l.447-.595-.218.125c-.442.053-.901.487-1.329.582h.957c-.876-.203-1.704-.499-2.847.039-.711.335-1.525.462-2.355.864-.224.108-.373.249-.716.246-.426-.003-.824-.247-1.288-.182-.528.074-.769.406-1.214.549-.165.053-.895.126-1.212.175h.957c.851.295.498.246.152-.054-.307-.266-.63-.468-1.013-.601-.521-.182-1.081-.396-1.629-.515-.717-.155-1.508-.255-2.2.03-.328.135-.609.333-.862.585-.113.112-.581.503-.269.37l1.387-.181c1.029.398-.055-.225-.363-.399-.411-.232-.899-.337-1.365-.33-.262.003-.535.025-.782.117-.345.128-.67.065,0,.227,1.001.242-.562-.388-.784-.469-.582-.214-1.058-.62-1.664-.823-.472-.158-.984-.235-1.481-.204-.396.024-.888.304-1.18.319-.494.025-1.473-.636-2.011-.822-.823-.285-1.567-.683-2.382-.997-.66-.255-1.077-.308-1.508-.854-.575-.728-1.267-1.194-1.936-1.815-.498-.462-1.006-.93-1.481-1.415-.359-.367-.669-.775-1.106-1.058-.228-.148-.445-.241-.704-.345-.137-.055-.682-.385-.411-.051.235.289.058-.683.011-.883-.121-.515-.354-.984-.668-1.406-.292-.393-.65-.616-1.003-.936-.344-.31-.311-.248-.46-.765-.236-.821-.239-1.189-.201-2.006.045-.965-.289-2.058-.986-2.754-.398-.398-.058-.18-.291.158.174-.253.39-.492.537-.773.475-.912.479-2.096-.006-3.006-.045-.084-.498-.662-.447-.545-.146-.333-.149-1.063-.17-1.438-.041-.727.396-1.203.619-1.87.148-.441.223-.927.249-1.391.015-.284-.084-.716.008-.986.126-.368.986-1.044,1.246-1.663.263-.626.113-1.534.444-2.081.164-.269.598-.498.81-.757.363-.442.605-.964.779-1.508.236-.738.612-1.507.77-2.253.067-.316.014-.765.108-1.032.121-.344.588-.693.65-1.096,0-.003.432-.738-.2-.217.055-.045.434-.046.474-.057.409-.113.779-.219,1.161-.423.99-.528,1.479-1.238,1.971-2.2.692-1.351,1.974-2.135,3.324-2.765.718-.335,1.523-.378,2.235-.796.43-.253.754-.567,1.053-.958.312-.409.095-.341.534-.383,1.617-.154,3.179-.339,4.771-.692.834-.185,1.424.113,2.251.174.96.071,1.924-.058,2.865-.094,1.06-.041,1.189-.17,2.115.333,1.082.587,1.926.428,3.054.328.619-.055,0-.221.466.124.392.29.728.612,1.15.87.839.511,1.6,1.198,2.571,1.479.896.259,1.677.425,2.558.793.819.342.995,1.13,1.697,1.689.766.61,1.795.734,2.546,0,.635-.621.759-1.941,0-2.546h0Z"/>
      <path class="cls-5" d="M226.951,139.829c-.81-.198-1.692-.258-2.469-.565-.956-.378-1.786-.804-2.855-.758-.922.039-1.812-.043-2.738.03-.79.063-1.553-.194-2.351-.242-.824-.049-1.645.012-2.466.052-.997.049-1.967-.199-2.97.078-.819.226-1.215.694-2.063.626-.995-.08-1.938.176-2.906.401-1.73.401-3.731.866-5.237,1.851-.452.295-.868.678-1.146,1.145-.129.216-.154.487-.297.696-.081.119-.168.249-.054.187-.35.19-.901.132-1.295.313-.613.281-1.173.744-1.539,1.323-.478.757-.332,1.371-1.1,1.849-.99.616-1.777,1.663-1.804,2.867-.006.293.142.621.103.899-.061.423.18-.197.02-.045-.282.268-.686.407-.976.696-.696.693-1.205,1.744-1.552,2.66-.335.885-.319,1.789-.578,2.677s-.651,1.696-.82,2.62c-.13.713-.133,1.373-.416,2.037-.47,1.105-.692,2.001-.499,3.201.123.761.015,1.444,0,2.215-.018.883-.444,1.591-.438,2.484.011,1.701.408,3.838.988,5.437.271.745.749,1.662,1.188,2.306.215.315.637.573.821.892.193.335.07.849.155,1.22.092.4.325.733.435,1.118.146.513.114.99.354,1.493.446.933,1.23,1.548,1.859,2.339.594.747.963,1.596,1.781,2.16.456.314.916.499,1.471.541.179.013.383-.026.554-.008.331.035.142-.101.274.01.289.244.46.747.746,1.032.311.309.711.535,1.059.8.746.567,1.529,1.088,2.366,1.517,1.063.544,2.101.666,3.267.741,1.015.065,2.01.387,3.033.417.882.026,1.613-.389,2.48-.246.524.087,1.176.101,1.671.253.216.067.708.376,1.047.472,1.062.301,2.5.116,3.269-.753.057-.064.279-.2.267-.268.122.66-1.256-.696-.834.008.229.383.785.709,1.196.807.707.169,1.373-.077,1.915-.528.415-.345.438-.241.961-.38.944-.251,1.815-.821,2.693-1.221l-1.387.181c-.392-.233-.359-.188.098.136.139.123.297.216.472.278.451.215.916.302,1.41.228.483-.072.903-.279,1.279-.594.354-.297,1.001-.695.008-.294h-.957c.692.119,1.31.277,2.015.07.425-.125.772-.351,1.117-.614.197-.15.582-.351.191-.181,1.242-.54,2.221-.878,3.451-1.39.698-.29,1.278-.608,1.573-1.352.065-.14.12-.284.165-.432-.701.356-.853.539-.456.551.173.144.812-.054.966-.093.718-.178,1.394-.552,1.883-1.101.527-.591.482-1.342.665-1.83l-.827,1.076c-.689.341-.604.197-.048.146.331-.03.642-.089.947-.223.654-.288,1.1-.842,1.46-1.443.229-.383.342-.845.602-1.2.303-.412.652-.555,1.025-.898.893-.82,1.162-1.936,1.553-3.028.196-.546.336-1.125.546-1.664.188-.484.535-.843.774-1.297.51-.967.673-2.296.789-3.375.062-.573-.073-1.071-.087-1.635-.015-.591.117-1.194-.104-1.773-.047-.124-.393-.726-.233-.228-.146.276-.122.299.072.071l.127-.141c.396-.424.617-1.119.755-1.684.159-.65.131-1.378-.196-1.974-.146-.267-.387-.504-.609-.704-.233-.209-.714-.795-.332-.126l.181,1.387c-.364.53-.4.628-.109.294.159-.185.312-.377.456-.574.222-.359.335-.726.372-1.142.07-.806-.264-1.567-.685-2.24-.1-.19-.224-.363-.372-.521-.222-.272-.223-.203-.001.208.109-.307.185-.624.204-.95.041-.713-.085-1.503-.197-2.208-.065-.41-.184-.679-.314-1.078-.043-.233-.1-.278-.17-.133.05-.169.083-.341.099-.516.078-.719-.074-1.579-.352-2.261-.261-.642-.67-1.372-1.213-1.81-.186-.149-.816-.733-.394-.142-.078-.109-.385-.836-.362-.693v.957c.304-1.425.103-2.293-.793-3.443-.62-.796-1.597-1.363-2.281-1.895-.451-.351-.763-.836-1.274-1.137-.371-.219-.696-.343-1.044-.574-.64-.425.108.333-.215-.172-.163-.255-.228-.512-.426-.755-.38-.465-.943-.764-1.458-1.062-2.008-1.164-3.823,1.946-1.817,3.108.088.051.67.489.779.472-.139.022-.861-1.169-.211.067.355.674.904,1.052,1.531,1.45.895.569,1.67,1.186,2.528,1.799.246.176.467.373.705.564.079.063.585.558.203.124-.149-.169.495.806.354.246.085.338-.135.814-.054,1.208.106.513.443,1.105.725,1.553.115.183.344.482.47.609.102.103,1.095,1.017.597.36.107.141.284.35.345.51.056.147.059,1.207.086.476-.028.772-.161,1.242.106,2.007.372,1.068.419,1.776.265,2.905-.1.732.017,1.418.425,2.042-.079-.121.581.637.416.503l.095.204c.228.482.336.278.325-.61-.273-.045-.788,1.168-.817,1.294-.187.805.208,1.923,1.04,2.265.785.322-.489-1.01-.269-.309l-.052.214.28-.516s-.634.743-.605.697c-.177.278-.294.57-.363.892-.163.759.118,1.353.203,2.071.066.559.08,1.229.097,1.801.022.748-.17,1.85-.526,2.551-.316.622-.712,1.124-.943,1.814-.22.658-.438,1.318-.657,1.977-.106.319-.156.732-.36,1.002-.336.443-.964.748-1.34,1.192-.321.38-.671.886-.783,1.338-.044.176-.607.839.212.32-.31.196-.977.059-1.366.261-.531.275-.88.738-1.029,1.318-.298,1.16.314.392.238.181.033.091-.502-.03-.359.009-.71-.193-1.721.339-2.184.835-.231.247-.38.511-.511.815-.068.15-.127.302-.177.459.808-.637.93-.833.367-.587-.525.081-1.535.506-2.011.756-.575.303-1.153.441-1.725.728-.254.127-.562.282-.72.529-.264.247-.191.245.219-.006-.229-.042-.46-.076-.691-.101-.574.018-1.451.335-1.7.917l-.171.199c1.17.151,1.557.087,1.159-.192-.161-.303-.827-.548-1.119-.613-.81-.179-1.301.191-1.978.509-.65.306-1.155.484-1.759.625-.369.086-.752.192-1.081.389-.259.154-1.435.869-.321.425h.957c.902.351.459.126.052-.229-.366-.319-.753-.52-1.233-.607-.91-.164-1.837.186-2.515.797-.004.003-.301.332-.346.337-.006,0,.213-.079.145-.092-.179-.034-.484-.249-.666-.32-.752-.295-1.655-.343-2.456-.48-.896-.153-1.626-.075-2.5.087-.625.115-1.186.049-1.819-.061-.786-.136-1.567-.145-2.346-.247-.794-.104-1.558-.629-2.221-1.043-.46-.288-1.043-.638-1.39-1.047-.669-.789-1.073-1.574-2.152-1.913-.398-.125-.803-.114-1.21-.115-.155,0-.441-.068-.341.007.139.104.02-.117.02-.117-.523-.707-.98-1.414-1.588-2.062-.62-.661-.558-.769-.793-1.642-.087-.323-.314-.629-.381-.95-.087-.416-.029-.863-.145-1.285-.25-.907-.839-1.419-1.374-2.123-.415-.546-.764-1.414-.91-2.087-.235-1.082-.837-2.633-.631-3.706.067-.35.296-.679.368-1.042.101-.509.045-.997.066-1.508.033-.815.182-1.577.025-2.396-.135-.707-.093-.849.214-1.489.371-.774.424-1.724.546-2.465.113-.683.338-1.333.581-1.977.306-.811.377-1.564.525-2.403.104-.593.451-1.45.86-1.904.596-.663,1.372-.961,1.79-1.856.222-.476.31-.967.285-1.492-.009-.193-.108-.425-.088-.616.043-.414-.168.171-.03.045.671-.615,1.434-.892,1.913-1.763.165-.301.23-1.067.445-1.281-.014.014.442-.038.599-.074,1.076-.245,1.969-.955,2.431-1.958.157-.34.166-.467.416-.658.225-.173.585-.25.84-.348.742-.286,1.473-.421,2.228-.646.736-.219,1.652-.581,2.423-.619,1.055-.052,1.843.145,2.866-.353.779-.379,1.106-.332,1.966-.286.85.045,1.718-.076,2.573-.069.885.008,1.73.303,2.617.301.433,0,.853-.167,1.276-.181.32-.01.859.177,1.283.156.912-.046,1.303.153,2.152.481.874.337,1.807.435,2.712.657,2.25.55,3.21-2.92.957-3.471h0Z"/>
      <path class="cls-3" d="M77.449,102.882c-.547-.328-1.116-.613-1.666-.936-.617-.362-1.104-.885-1.726-1.242-1.092-.626-2.376-.759-3.549-1.188-1.192-.437-2.752-.755-4.023-.669-1.135.077-2.327.519-3.41.85-2.327.711-3.983,3.27-5.222,5.213-.75,1.175-1.4,2.377-1.902,3.679-.214.555-.404,1.122-.595,1.686-.186.548-.48.907-.705,1.543-.436,1.234-.439,2.961-.438,4.264,0,.625.208,1.204.307,1.814.107.66.156,1.209.421,1.827.532,1.24,1.399,2.184,2.386,3.088.417.382.912.651,1.348,1.004.473.382.821.84,1.365,1.147,2.299,1.295,5.666,1.081,8.109.358,2.292-.679,4.503-2.273,6.248-3.877,2.082-1.913,3.228-4.812,4.105-7.455.46-1.388,1.091-2.751,1.373-4.191.316-1.614.047-3.268.141-4.894.134-2.314-3.466-2.307-3.6,0-.063,1.081-.02,2.201.012,3.284.03,1.002-.424,2.225-.747,3.169-.682,1.998-1.578,4.302-2.509,5.995-.845,1.536-2.74,2.771-4.098,3.617-1.758,1.094-3.903,1.498-6.085,1.189-.692-.098-1.153-.339-1.747-.871-.87-.778-1.579-1.179-2.39-2.051-1.239-1.331-1.013-3.512-.913-5.427.049-.928.59-1.694.888-2.574.335-.992.659-1.998,1.18-2.911.931-1.635,1.99-3.461,3.41-4.723.335-.297.607-.414,1.013-.523.614-.165,1.228-.413,1.841-.561.93-.225,2.097.084,2.997.368.558.176,1.074.45,1.65.581.539.123,1.016.128,1.493.447.481.321.889.737,1.385,1.046.595.372,1.234.673,1.837,1.034,1.992,1.194,3.804-1.917,1.817-3.108h0Z"/>
      <path class="cls-1" d="M310.619,158.76s40.199-35.098-7.854-57.49c-40.24-18.752-49.449-17.011-103.018-42.71C146.176,32.861,100.369,4.141,64.949,2.136,38.998.667,16.662,13.397,6.394,34.777c-7.572,15.766-9.885,25.313,1.267,35.787,11.152,10.473,61.206,36.271,109.862,45.07,48.655,8.799,57.596,9.843,76.384,19.595,18.788,9.752,71.219,30.75,89.805,29.884s26.908-6.353,26.908-6.353Z"/>
      <path class="cls-3" d="M224.952,151.407c-.662-.183-1.327-.191-1.994-.309-.597-.106-1.177-.295-1.778-.395-1.485-.245-2.832-.697-4.358-.42-1.258.228-2.419-.208-3.671.238-1.111.396-2.369,1.382-3.216,2.203-1.734,1.68-2.97,4.278-3.53,6.595-.305,1.263-.413,2.555-.656,3.829-.254,1.334.126,2.606-.027,3.921-.303,2.606.664,5.358,2.505,7.243.878.899,1.754,1.654,2.898,2.211,1.368.666,2.6.665,4.063.766,1.228.085,2.537.098,3.752-.153,1.273-.263,2.219-1.038,3.27-1.729,1.936-1.275,4.024-2.987,4.975-5.163.314-.719.257-1.5.59-2.197.327-.683.69-1.284.842-2.043.146-.728-.126-1.574.077-2.26.19-.643.583-1.121.665-1.832.175-1.506-.106-3.074-.302-4.569-.201-1.535-.499-3.108-.81-4.626-.465-2.268-3.936-1.308-3.471.957.447,2.18.823,4.462,1.015,6.71.026.307.044,1.088.039,1.105-.129.444-.479.83-.608,1.297-.326,1.18.103,2.212-.486,3.309-.29.54-.554,1.122-.67,1.725-.096.5-.07.826-.318,1.267-.413.732-1.212,1.547-1.858,2.065-1.267,1.016-2.756,2.401-4.317,2.507-1.13.077-2.192.049-3.323.029-.988-.017-1.643-.385-2.43-.917-1.371-.927-2.647-2.857-2.65-4.718,0-.484.19-1.799.116-2.648-.113-1.296.184-2.408.329-3.71.213-1.91.958-3.807,2.015-5.413.62-.941,1.386-1.419,2.28-2.092.246-.185.488-.32.756-.344.212-.019.651.118.83.135.512.049,1.003.005,1.511-.075,1.17-.185,2.058.075,3.217.268.566.095,1.113.245,1.673.367.699.152,1.413.147,2.099.337,2.236.619,3.19-2.853.957-3.471h0Z"/>
      <g>
        <path class="cls-2" d="M102.884,28.511c-2.285,2.543-4.385,5.269-6.894,7.607-1.309,1.22-2.741,2.309-3.93,3.654-1.118,1.265-2.504,2.166-3.629,3.429-1.205,1.353-2.344,2.67-3.636,3.945-1.255,1.238-2.788,2.206-3.802,3.653-.453.646-1,.945-1.613,1.43-.701.554-1.231,1.246-1.846,1.886-1.224,1.274-2.786,2.189-3.954,3.514-1.285,1.456-2.931,2.464-4.368,3.772s-2.747,2.629-4.324,3.784c-1.851,1.354-.057,4.479,1.817,3.108,1.478-1.081,2.893-2.168,4.181-3.477,1.23-1.25,2.613-2.194,3.952-3.303.651-.539,1.12-1.213,1.724-1.793.692-.666,1.472-1.241,2.212-1.852,1.303-1.076,2.307-2.386,3.661-3.39.764-.566,1.158-1.229,1.712-1.959.576-.757,1.542-1.254,2.235-1.9,1.282-1.194,2.601-2.394,3.671-3.782.438-.569.917-1.116,1.41-1.639.663-.704,1.477-1.168,2.178-1.827,1.271-1.195,2.373-2.518,3.712-3.657,3.025-2.572,5.438-5.72,8.078-8.658,1.545-1.719-.993-4.273-2.546-2.546h0Z"/>
        <path class="cls-2" d="M257.297,94.87c-2.006,1.995-4.023,3.95-5.914,6.057-.949,1.058-1.885,2.24-2.976,3.154-.536.449-1.102.825-1.576,1.348-.468.515-.838,1.098-1.382,1.544s-1.112.81-1.586,1.34-.833,1.133-1.393,1.589c-1.159.947-2.176,1.918-3.233,2.98-.974.978-2.097,1.806-3.034,2.816-.98,1.057-1.987,2.007-3.119,2.901-2.504,1.977-4.718,4.271-7.228,6.239-.771.605-.622,1.91,0,2.546.747.764,1.785.597,2.546,0,2.231-1.749,4.202-3.763,6.386-5.567s4.245-3.72,6.286-5.683c.994-.956,1.871-2.109,2.965-2.95.587-.451,1.158-.857,1.65-1.422.449-.516.8-1.056,1.324-1.507.591-.508,1.218-.896,1.733-1.497.406-.475.757-.973,1.237-1.384,1.158-.993,2.179-1.99,3.221-3.109,2.174-2.335,4.378-4.601,6.64-6.85,1.645-1.636-.9-4.182-2.546-2.546h0Z"/>
        <path class="cls-2" d="M317.215,144.311c.685-.392,1.477-.121,2.155-.686.622-.519.84-1.327.906-2.109-.017.202-.685.176-.231.272.151.032.35.029.504.033.376.008.761.031,1.129-.074.814-.233,1.391-.955,1.938-1.568.564-.632.866-1.229.783-2.09-.034-.353-.228-.721-.238-1.066-.011-.378-.09-.09-.126,0,.091-.223.542-.456.711-.637.568-.608.956-1.486.838-2.339-.035-.252-.548.049.184-.139.365-.094.785-.213,1.112-.404.68-.398,1.001-.974,1.08-1.744.102-.99.023-1.984.132-2.993.112-1.041-.2-1.779-.416-2.769-.09-.413-.218-.904-.25-1.322-.044-.577.227-.946.362-1.496.17-.694.111-1.379-.344-1.953-.201-.253-.468-.449-.743-.616-.18-.109-.379-.217-.579-.285-.613-.209-.088-.205-.274.065l.151.285.107-.397c.083-.163.103-.409.127-.589.054-.392.058-.714-.023-1.102-.174-.83-.668-2.068-1.295-2.676-.571-.554-1.418-.589-1.954-1.135-.728-.741-1.242-1.73-1.944-2.505-.692-.765-1.431-1.184-1.957-2.086-.423-.726-.909-1.258-1.735-1.501-.339-.099-.715-.058-.999-.254-.323-.222-.458-.791-.724-1.096-.64-.735-1.339-.714-2.183-1.018-1.15-.415-1.554-1.207-2.323-2.032-.693-.745-1.371-.58-2.243-.81-.419-.111-.11.077-.04.148-.088-.089-.199-.582-.235-.667-.136-.323-.279-.645-.523-.904-.542-.574-1.271-.716-2.022-.566-.225.045-.986.487-1.21.416.513.162-.183-.594-.278-.677-.701-.62-1.704-.848-2.36-1.489-.529-.517-.777-1.13-1.549-1.375-.751-.238-1.706.352-2.215.181-.354-.119-.707-.566-1.062-.742-.469-.233-1.041-.274-1.494-.517-.778-.418-1.07-1.338-1.985-1.618-.817-.249-1.428.349-2.153.288-.908-.076-1.509-.988-2.117-1.516-.534-.464-1.203-.683-1.904-.536-.391.082-.703.325-1.058.48-.565.247-.647.255-1.291-.008-1.524-.622-2.615-2.624-4.365-2.578-.357.009-.899.321-1.221.261.232.044-.318-.492-.45-.617-.751-.708-1.436-.529-2.332-.795-.755-.224-1.019-1.115-1.812-1.413-.697-.261-1.366-.083-2,.264-.079.043-.852.497-.842.533l.665.025-.164-.314c-.034-.146-.196-.324-.284-.441-.543-.724-1.199-.923-2.051-1.146-.894-.234-2.095-.268-2.849-.767-.805-.533-1.205-.98-2.231-1.102-2.173-.259-3.82-1.652-5.847-2.358-.958-.334-1.842-.116-2.743-.641-.94-.547-1.855-1.142-2.757-1.747-.719-.483-1.3-.927-2.208-.85-.378.032-.77.308-1.127.315-.462.008.219.23-.009-.177-.116-.207-.271-.421-.432-.596-.496-.536-1.106-.819-1.845-.745-.441.044-.773.269-1.188.391-.501.147-.198.162-.84-.172-.765-.397-.472-.352-1.08-1.198s-1.279-.953-2.248-1.109c-.99-.16-1.707-.862-2.678-1.019-.366-.059-.716-.036-1.075.062-.162.044-.358.114-.506.193-.367.196-.676.025-.182.336.622.392.073-.372-.07-.61-.214-.356-.457-.643-.779-.907-.632-.517-1.491-1.192-2.295-1.375-.923-.21-1.803.104-2.745-.101-.61-.133-.284.122-.576-.283-.238-.328-.303-.746-.578-1.07-.516-.609-1.214-.832-1.994-.723-.352.049-.649.202-.985.298-.018.005-.534.114-.239.117.23.002-.451-.208-.546-.244-.88-.331-.832-.834-1.471-1.478-.75-.756-1.785-.679-2.755-.861-.404-.076-.932-.09-1.316-.209-.089-.028.305.536.035.098-.076-.124-.075-.354-.113-.494-.189-.702-.434-1.449-1.122-1.823-.617-.335-1.3-.222-1.916.036-.268.112-.685.274-.888.483l-.15.085c-.462.211-.181.365.846.461.044-.072-.121-.571-.145-.664-.156-.608-.328-1.19-.821-1.612-.873-.748-1.862-.243-2.855-.49-1.83-.454-2.26-2.581-4.436-1.86-.25.083-.667.404-.934.377.056.006-.885-.539-1.057-.628-.956-.496-1.631-1.059-2.419-1.754-.614-.542-1.109-1.306-1.79-1.759-.824-.548-1.701-.563-2.454-1.239-.634-.569-1.176-.973-2.072-.973-.405,0-.752.129-1.148.048-.592-.121-1.17-.573-1.726-.815-.386-.168-.944-.263-1.278-.511-.35-.261-.558-.775-.899-1.069-.312-.268-.618-.427-1.009-.546-.303-.092-1.071.019-1.247-.073-.235-.122-.504-.848-.689-1.053-.252-.28-.532-.48-.862-.66-.837-.455-1.77-.7-2.665-.966-1.816-.541-3.231-2.41-5.393-2.117-.982.133-1.199.192-2.05-.481-.697-.551-1.333-1.267-2-1.875-.571-.521-1.04-1.003-1.848-1.101-.362-.044-.787.14-1.123.078-.495-.091-.657-.503-1.055-.838-.546-.46-1.762-.581-2.081-.889-.343-.331-.456-1.369-1.073-1.843-.628-.482-1.51-1.013-2.277-1.224-.863-.238-1.853-.153-2.75-.311-1.085-.192-1.887-.419-2.327-1.455-.306-.719-.739-1.275-1.516-1.5-.767-.222-1.568-.004-2.347-.164-.537-.111-.896-.098-1.329-.455-.348-.287-.569-.68-.952-.954-.769-.552-1.627-1.038-2.499-1.404-.955-.4-1.727-1.09-2.663-1.48-.435-.182-.861-.23-1.331-.23-.638,0-.182.313-.454-.091-.482-.714-.628-1.194-1.367-1.724-1.259-.902-2.989-2.454-4.652-1.953-.33.099-.744.434-1.085.473-.247.028-.183-.018-.141-.003.288.099-.298-.417-.274-.387-.254-.312-.539-.469-.77-.813-.278-.413-.421-.818-.83-1.146-.581-.467-1.257-.541-1.976-.4-.092.018-.451.066-.51.137-.33.399.357.024.268.397.074-.311-.276-1.042-.428-1.335-.294-.565-.752-.979-1.384-1.107-.589-.12-1.845.115-2.253.613-.165.202-.62-.014.149.244.726.243.28.135.239-.164-.038-.274-.302-.633-.467-.849-.564-.742-1.54-1.145-2.354-1.565-.982-.506-1.905-.982-2.822-1.596-.868-.582-1.706-1.299-2.719-1.611-.954-.294-1.779-.315-2.728-.431-.694-.085-1.091-.788-1.677-1.268-.617-.506-1.119-1.204-1.936-1.396-.849-.2-1.347.245-2.118.427-.358.084-.024.183-.485-.182-.437-.346-1.043-.544-1.55-.757-.332-.14-.721-.216-.927-.44-.247-.268-.341-.713-.574-1.011-.49-.626-1.125-.946-1.923-.886-.335.025-.708.114-1.008.268-.04.02-.505.16-.507.185l.703.302-.099-.276c.057-1.695-1.982-2.326-3.22-1.813-.489.203-1.187.329-.542.64.674.326.268-.188.089-.571-.37-.789-.804-1.253-1.64-1.554-.742-.267-1.661-.564-2.453-.514-.388.025-.731.179-1.105.255-.457.092.258.301.087-.062-.095-.201-.238-.396-.375-.57-.431-.546-.954-.926-1.673-.953-.406-.015-.744.098-1.116.251-.209.085-.961.426-.79.434.174.008-.712-.476-.904-.577-.435-.226-.795-.479-1.2-.751-.975-.656-2.1-.469-3.064-1.019-.88-.502-1.382-.877-2.438-.893-1.471-.023-2.168-.547-3.294-1.369-1.514-1.105-2.866-1.843-4.813-1.789-.362.01-.659.087-.996.217-.24.093-1.035.341-.62.456-.279-.078-.624-.618-.894-.787-.424-.265-.938-.457-1.39-.67-.812-.382-1.52-.605-2.406-.336-.159.048-.391.132-.532.22-.374.237.072.041.222.249-.229-.316-.367-.684-.616-.99-1.384-1.704-2.951-.038-4.636-.697-.825-.323-1.392-1.109-2.359-1.171-.362-.023-.715.095-1.042.225-.173.069-.356.148-.508.257-.115.071-.231.142-.346.213-.356.166-.213.241.431.223-.584-1.84-3.252-1.389-4.583-1.623-.815-.143-1.553-.323-2.335.047-.302.143-.624.586-.93.657.499-.116.255.044.059-.274-.11-.179-.376-.354-.546-.47-.652-.447-1.32-.503-2.09-.341-.647.136-1.043.288-1.742.217-.605-.061-1.122-.102-1.731-.026-1.084.135-2.06-.109-3.119-.038-.949.063-2.079.693-2.926,1.111-.538.266-.486.357-1.015.223-.326-.083-.612-.33-.952-.405-.797-.176-1.518.091-2.047.691-.57.647-.623,1.457-1.653,1.594-.756.101-1.499-.356-2.341-.181-1.935.404-3.601,1.463-5.477,2.052-1.542.484-3.559,1.156-4.169,2.834-.063.172-.102.577-.195.697-.032.042.594-.322-.082-.012-.332.152-.94.235-1.31.323-.796.19-1.699.145-2.349.733-.543.491-.646,1.175-.74,1.859-.021.154-.003.353-.05.499-.105.331-.085.091-.019.045.298-.204-1.051.126-1.215.152-.72.111-1.397-.078-2.096.259-.823.397-1.615,1.29-2.199,1.981-.25.297-.4.679-.72.888s-.774.2-1.13.35c-.884.372-2.033,1.202-2.54,2.022-.188.303-.265.608-.327.956-.024.136-.092.416-.059.552.106.434-.321.406.354.171.835-.291-.191-.287-.514-.33-.38-.051-.735-.091-1.115-.013-1.488.305-2.92,2.04-2.962,3.529-.011.378.03.749-.067.869-.086.107-.919.5-1.134.723-.687.713-1.441,1.67-1.662,2.64-.056.244-.03.888-.1.987-.065.092-.776.303-.978.445-.674.474-1.054,1.222-1.038,2.05.003.149.081.51.031.642-.04.105.804-.607-.134.077-.272.198-.638.26-.917.469-.689.515-1.084,1.427-1.44,2.19-.825,1.766-1.582,3.741-.98,5.711.185.604.416.969.471,1.612.046.535.097,1.074.174,1.605.178,1.225.625,2.426.708,3.669.061.91-.164,1.662.404,2.476.214.307.48.521.769.752.132.105.504.297.566.428-.149-.311-.168.073-.173.223-.025.73-.184,1.401.235,2.073.504.807,1.514.822,2.063,1.486.517.624.48,1.435,1.21,1.98.354.264.734.35,1.137.517.629.261.773.457,1.207,1.016.611.787,1.356.996,2.073,1.601.656.553,1.223,1.651,1.802,2.33.554.65,1.03,1.106,1.885,1.286,1.241.261,1.939.802,2.833,1.73.302.313.588.642.955.885.293.194,1.167.422,1.29.551.28.296.266,1.45.699,1.974.586.707,1.6.938,2.4,1.33.778.382,1.621.953,2.502,1.028.353.03,1.288.084.963-.241-.368-.367-.143.444-.099.659.134.66.383,1.321.996,1.686.617.367,1.473.308,2.119.05.145-.058.357-.152.512-.17-.056.007-.531-.408-.139-.004.32.329.545.697.897,1.001.707.61,1.497,1.29,2.382,1.613,1.08.394,1.954.9,2.988,1.406.833.407,1.708.736,2.55,1.124.909.418,1.212,1.432,2.139,1.837.697.304,1.465-.179,2.051.03.224.08.505.712.682.886.303.296.671.491,1.074.598.983.261,1.589-.058,2.491.582.952.675,1.872,1.332,2.939,1.809,1.018.456.631.35,1.306,1.299.513.722,1.179,1.065,2.062,1.019.384-.02.748-.215,1.12-.237.277-.016.718.179,1.262.366.923.318,1.977.116,2.815.489.99.441,1.66.758,2.749.983.025.005-.348-.593-.126-.179.069.129.088.318.125.459.093.35.184.703.346,1.03.781,1.566,3.154,1.545,4.683,1.826.817.15,1.478.137,2.235-.247.301-.152.305.016.144-.085-.358-.225.05.378.045.365.121.344.588.695.883.877.815.503,1.898.589,2.788.94.931.368,1.742.743,2.765.462.612-.168.101-.222.388.191.192.276.361.591.613.821.842.768,1.77.421,2.762.697.914.254,1.554.853,2.556.893.332.013.756-.142,1.071-.031.433.153.831.709,1.278.917.848.395,1.826.365,2.699.717.898.362,1.6.728,2.561.387.303-.108.711-.5,1.008-.533.048-.005-.603-.178-.029.057.149.061.329.308.463.408.779.582,1.847.677,2.612,1.253.591.445.866,1.121,1.661,1.32.789.197,1.459-.157,2.087-.588.135-.093.281-.2.405-.306.292-.251-.093-.037-.25-.126.382.215.685.654,1.075.892.69.42,1.414.931,2.18,1.205,1.232.44,2.552.689,3.832.936.84.162,1.827.467,2.683.289.242-.05,1.283-.343.854-.488-.382-.129.067.457.21.682.414.652.935,1.096,1.721,1.183.813.091,1.806-.173,2.63-.23.176-.012.528-.154.687-.1.032.011-.399-.294-.013.049.264.235.389.748.638,1.03.533.605,1.189.801,1.981.747.407-.028.784-.207,1.165-.106.469.124.862.574,1.344.732.404.132.832.162,1.257.18.639.026.927.13,1.507.42.959.48,2.234.93,3.319.88.367-.017.661-.104.995-.251.126-.055,1.041-.572.662-.556-.272.011-.068-.032.091.221.122.194.332.406.502.547.322.268.696.471,1.11.539.708.117,1.349-.176,1.955-.51.379-.209-.137-.101-.265-.242.149.164.266.389.407.566.252.317.497.598.857.795.788.43,1.426.178,2.232.015,1.066-.216,2.552.283,3.649.494.477.092,1.211.156,1.625.417.369.233.51.647.813.986.496.554,1.149.881,1.904.758.336-.055.644-.196.941-.36.122-.068.344-.178.431-.289.55-.7-.004.123-.239-.347.335.672.855,1.247,1.538,1.553.84.377,2.061.8,2.988.602.95-.203,1.407-.831,2.421-.221.606.365.877,1.131,1.574,1.479.864.432,1.808.341,2.652.838.697.41,1.303.83,2.153.627.296-.07.588-.248.841-.408.127-.08.315-.208.414-.319.091-.069.182-.14.27-.213.267-.159.145-.237-.366-.234.175.515,1.186,1.115,1.677,1.253.379.106.775.069,1.157.035.178-.016.42-.107.594-.092.397.036-.182-.274.187.2.446.572.808,1.026,1.511,1.287.577.214,1.22.24,1.799.45.587.213,1.107.581,1.706.772.984.314,1.784.488,2.706.969.878.458,2.213.926,3.219.863.367-.023.705-.149,1.036-.302.089-.041.456-.181.497-.269.208-.437-.072.121-.249-.267.3.657.982,1.359,1.689,1.564.342.099.737.079,1.082.024.273-.044.834-.393,1.079-.338-.163-.037.501.608.64.706.396.281.8.441,1.274.542.879.189,1.849.375,2.739.23.13-.021.52-.18.635-.143-.155-.051-.316-.037-.146.166.256.307.379.72.682,1.005.713.668,1.578.582,2.485.663.436.039.932.092,1.36.194-.06-.014.481-.061.341-.135.138.072.254.505.332.639.389.67.846,1.239,1.638,1.401.912.188,1.645-.397,2.508-.206.621.138,1.167.474,1.81.554.395.049.751-.092.878.012.216.177.32.692.487.934.233.337.495.572.83.804.711.492,1.562,1.119,2.45,1.191.381.031.741-.056,1.115-.124.723-.131.303-.178.854.381,1.368,1.386,3.541,1.364,4.975,2.47.746.575,1.323.617,2.17.916.937.331,1.324,1.372,2.342,1.664.763.218,1.643.145,2.431.281.616.107.98.192,1.487.573.358.269.64.585,1.062.765.585.249,1.764.037,1.891.123.279.189.451.785.714,1.049.298.299.669.496,1.069.61.415.117.788.039,1.202.069.156.011.343-.127.144-.231.085.045.27.579.288.612.358.668.788,1.203,1.546,1.417.377.106.705.027,1.079.051.597.039.56-.041.997.442.584.645,1.168,1.036,2.066,1.021.331-.005.756-.205,1.055-.091.182.069.774.696.926.897.427.561.5,1.316,1.048,1.827.72.672,1.711.598,2.596.883.849.273,1.673.796,2.587.73.353-.025.904-.131,1.207-.342.086-.06.766-.183.058-.22-.487-.026-.217-.139-.097.232.27.83,1.171,1.404,1.963,1.601.642.16,1.882.603,2.542.421-.011.003.697-.023.349-.158-.115-.044-.101-.103.048.122.237.357.294.81.56,1.165.495.661,1.256.895,1.983,1.232.909.422,1.739,1.316,2.759,1.405.753.065,1.192-.359,1.855-.582.963-.323,1.845.233,2.722.691,1.673.874,3.671,1.653,5.524,1.937.917.141,1.968.195,2.738.679.938.59,1.423.799,2.548.774,1.026-.023,1.281.651,2.225.937.784.237,1.456-.027,2.125-.441.131-.081.307-.288.459-.321.575-.127-.179.025-.034.071.414.129.762.513,1.205.649.482.147.992.125,1.487.201.696.106,1.243.367,1.886.624,1.573.629,2.83,1.707,4.311.273.18-.175,1.072-.985.319-.705-.474.176-.179.324.201.696.544.533,1.194.863,1.969.722.4-.073.708-.263,1.028-.5.132-.098.87-.7.534-.645-.268.044.392.4.62.52.436.231.885.371,1.384.322.364-.035.686-.172.996-.355.126-.074.927-.696.598-.643-.251.041-.053-.009.129.192.11.122.288.244.423.338.38.262.756.453,1.225.495.836.075,1.81-.329,2.596-.591.374-.125.673-.423,1.021-.545.571-.199.718.049,1.283.222.78.239,1.413.084,2.121-.283.585-.303.598-.417,1.273-.361.395.032.749.14,1.153.123.802-.033,1.855-.107,2.589-.444.673-.31.994-1.041,1.649-1.119.881-.106,1.516.174,2.312-.408.288-.211.562-.765.866-.912.167-.081.705.062.981.056,2.148-.05,4.368-1.681,6.28-2.526,1.692-.747.228-3.23-1.454-2.487-1.012.447-1.946.916-2.923,1.42-.505.26-1.253.618-1.82.696-.648.089-1.287-.163-1.941.04-.757.235-1.02,1.061-1.631,1.328-.177.077-.713-.123-.979-.129-.472-.01-.927.078-1.343.3-.778.417-.967,1.1-1.89,1.212s-1.736-.249-2.64-.172c-.827.07-1.431.809-2.162.701-.877-.13-1.326-.641-2.285-.277-.838.317-1.424.885-2.329,1.107-.664.163-.137.236-.619-.066-.355-.223-.617-.524-1.015-.688-.767-.317-1.5-.135-2.164.31-.141.095-.859.557-.388.573-.277-.01-.805-.578-1.104-.696-.688-.272-1.362-.216-1.996.161-.183.109-.79.485-.835.7-.114.543.355-.185.41.156-.021-.132-.348-.435-.443-.534-1.197-1.243-2.472-1.009-3.589.157-.117.122-.218.26-.337.381-.337.343.196-.091.259-.041-.322-.257-.681-.453-1.059-.611-.93-.388-1.845-.809-2.854-.913-2.005-.206-3.099-1.66-5.034-.37-.088.059-.35.31-.456.309.272.001.325-.152.203-.306-.206-.259-.583-.486-.875-.626-.923-.444-1.881.066-2.754-.353s-1.364-.763-2.381-.927c-1.039-.168-2.159-.247-3.129-.656-.828-.349-1.67-.666-2.499-1.015-.95-.399-1.737-.988-2.769-1.191-.807-.159-1.61-.432-2.42-.172-.344.11-.631.33-.958.472-.071.031-.487.164-.201.172.257.007-.371-.377-.471-.445-.385-.261-.78-.441-1.204-.631-.228-.102-1.111-.518-1.021-.42.143.156-.159-.521-.224-.66-.159-.343-.313-.703-.589-.975-1.194-1.176-3.39-.165-4.409-1.215-.531-.547-.707-1.198-1.515-1.469-.839-.282-1.447.199-2.226.334-.388.067-.076.066.006.071-.186-.013-.473-.186-.651-.252-.434-.159-.872-.349-1.315-.477-.185-.053-1.272-.255-1.133-.133-.233-.205-.31-.883-.486-1.168-.725-1.176-2.156-2.517-3.606-2.419-.446.03-.617.163-.991-.06-.285-.17-.489-.617-.774-.833-.834-.633-1.503-.379-2.442-.379.016,0,.405.478.137.088-.095-.139-.135-.316-.214-.463-.156-.29-.309-.602-.545-.839-.69-.69-1.373-.535-2.234-.654-.438-.061-.075.249-.499-.301-.225-.292-.391-.597-.673-.841-.836-.727-1.655-.262-2.543-.573-.703-.246-1.135-1.004-1.924-1.239-.905-.27-1.902-.267-2.822-.438-.545-.101-.578-.137-.987-.545-.274-.273-.505-.575-.856-.767-.374-.204-.775-.23-1.174-.332-.699-.179-1.026-.399-1.569-.838-.734-.593-1.465-.621-2.334-.87-.974-.279-1.747-.858-2.493-1.494-.605-.516-1.177-.817-1.986-.778-.344.016-.78.253-1.105.221-.276-.028-.797-.394-1.139-.67-.419-.337-.136-.058-.095-.006-.102-.126-.17-.335-.238-.482-.145-.315-.304-.62-.535-.882-.641-.728-1.401-.733-2.304-.839-1.026-.121-1.967-.817-3.009-.788-.329.009-.846.093-1.124.278-.541.36-.118-.135-.116.3.277.225.337.225.181.002-.089-.158-.171-.319-.247-.484-1.03-1.77-2.629-1.4-4.395-1.811-.565-.132-.459-.078-.814-.541-.215-.28-.378-.575-.656-.802-.697-.571-1.445-.479-2.277-.373-1.091.138-1.873-.061-2.739-.706-.701-.522-1.296-.852-2.201-.708-.35.055-.738.331-1.078.338.451-.009.244-.057-.062-.454-.469-.607-1.029-1.051-1.827-1.065-.841-.015-1.446.63-2.236.626-1.119-.006-2.05-.944-3.089-1.248-.948-.278-1.773-.492-2.682-.894-.995-.44-1.914-.35-2.586-1.222-.495-.642-1.06-1.031-1.883-1.08-.382-.022-.813.171-1.18.125-.27-.034-.202-.08-.61-.456-1.114-1.027-2.662-.974-3.684.215-.176.205.04.174.273.22-.145-.028-.366-.252-.485-.338-.359-.261-.744-.497-1.174-.629-.427-.131-.965-.079-1.369-.255-.381-.166-.483-.425-.768-.754-1.02-1.178-3.218-1.792-4.662-1.163-.944.411-1.573.223-2.266-.563-.525-.595-.927-1.164-1.799-1.219-.541-.034-1.448.235-1.803.679-.27.338-.355-.031-.024.269.504.457.082-.227.072-.254-.122-.336-.506-.724-.784-.938-.781-.601-2.048-.76-2.986-.924-1.114-.194-2.259-.55-3.376-.666-.406-.042-.765-.017-1.16.081-.188.047-.437.207-.625.214-.073.003.506.325.066.016-.627-.44-.768-1.196-1.629-1.421-.575-.15-1.531-.016-1.989.396-.439.396-.321.069.01.261-.127-.073-.275-.334-.367-.45-.259-.323-.577-.594-.954-.766-.683-.31-1.376-.205-2.031.132-1.128.58-1.815.385-2.956-.216-.895-.471-1.586-.411-2.546-.558-.927-.142-1.557-.949-2.569-.993-.401-.017-.777.093-1.171.152-.478.072-.003.059.084.147-.097-.097-.185-.337-.243-.462-.296-.635-.824-1.21-1.507-1.419-.767-.234-1.905-.026-2.692.022-.263.016-1.307.155-1.053.299.257.145-.229-.677-.345-.848-.392-.58-.928-.979-1.637-1.044-.847-.078-1.513.476-2.343.435-2.128-.105-4.513-.845-6.251-2.029-1.431-.975-2.193-1.785-3.855-.643-.064.044-.384.237-.405.306-.134.46.294-.159.363.189-.047-.233-.561-.656-.744-.806-.773-.634-1.84-.738-2.667-1.277-.69-.449-1.07-1.073-1.971-1.147-.833-.068-1.423.658-2.139.669-.361.005-.809-.334-1.154-.451-.451-.152-.903-.205-1.368-.297-.966-.193-1.521-1.029-2.492-1.252-.479-.11-.929.002-1.403-.041-.525-.047-.949-.311-1.433-.528-.812-.363-1.875-.179-2.436-.754-.506-.518-.717-1.098-1.481-1.334-.365-.113-.775-.077-1.144-.038-.732.076-1.087.094-1.813-.183-.743-.284-1.834-.413-2.422-.93-.646-.568-.804-1.274-1.765-1.463-.786-.155-1.258.292-1.976.396-.857.124-1.761-.476-2.637-.467-.015,0-.836-.104-.402.267-.07-.06-.103-.362-.129-.449-.089-.297-.148-.599-.262-.889-.265-.674-.649-1.171-1.339-1.438-.95-.366-1.787-.44-2.712-.938-.905-.487-1.572-.32-2.528-.432-1.07-.125-1.903-.818-3.019-.697-.232.025-.966.088-1.12.265.241-.277.41.659.467.112.013-.121-.25-.502-.317-.612-.47-.777-1.032-1.083-1.849-1.449-1.027-.46-1.957-1.115-2.876-1.766-.805-.57-1.363-.986-2.372-1.024-.479-.018-.584.099-.953-.187-.317-.246-.482-.683-.826-.939-.623-.464-1.295-.478-2.039-.36-.626.099-.154.414-.616-.095-.313-.345-.528-.691-.919-.964-.761-.529-1.74-.868-2.595-1.233-.951-.407-1.778-.984-2.706-1.424-.951-.451-1.727-.626-2.578-1.289-.662-.516-1.099-1.387-1.844-1.788-.608-.327-1.503-.362-2.124-.046-.047.024-.508.132-.512.17-.017.142.541.357.604.247.097-.166-.113-.918-.176-1.114-.624-1.929-2.257-1.156-3.671-1.675-.444-.163-.839-.419-1.259-.63-.203-.102-1.175-.348-1.148-.322-.172-.164-.136-.855-.203-1.092-.111-.39-.291-.748-.568-1.045-.628-.676-1.607-.793-2.274-1.431-.801-.766-1.587-1.645-2.544-2.232-.708-.434-1.578-.246-2.184-.772-.701-.608-1.023-1.505-1.611-2.192-.647-.757-1.636-.979-2.245-1.762-.586-.754-.986-1.367-1.916-1.713-1.018-.378-.793-.265-1.298-1.255-.485-.951-1.075-1.118-1.912-1.644-.235-.148-.213,0-.14.162-.043-.095.058-.449.072-.554.052-.366.098-.72.042-1.088-.137-.901-.706-1.202-1.256-1.819-.529-.594-.423-1.769-.574-2.618-.226-1.27-.543-2.535-.642-3.823-.035-.458-.002-.934-.127-1.384-.114-.406-.427-.78-.505-1.193-.205-1.096.245-2.179.692-3.148.206-.446.416-.987.713-1.382.353-.469.047-.126.006-.094.119-.094.341-.161.481-.216.791-.311,1.409-.821,1.646-1.655.271-.956-.278-1.21.479-1.597.731-.373,1.284-.869,1.501-1.695.104-.397,0-.883.132-1.263.195-.564.875-1.148,1.332-1.496.787-.599,1.436-.99,1.593-2.038.131-.879-.114-1.372.772-1.934-.21.133-.145-.017.315.047.374.052.749.134,1.126.106.692-.052,1.264-.335,1.633-.937.516-.84.111-1.741.958-2.342.752-.533,1.68-.539,2.414-1.088.668-.5,1.089-1.311,1.685-1.896.791-.775.694-.546,1.752-.671.757-.09,1.817-.387,2.504-.697.631-.285,1.033-.728,1.238-1.401.092-.304.142-.683.148-1,0-.056.083-.419.054-.453.062-.212,0-.171-.187.124-.292.225-.292.298-.001.217.471.234,1.978-.422,2.469-.525.932-.196,1.541-.596,1.919-1.488.364-.858.476-1.232,1.4-1.676.889-.428,1.93-.59,2.876-.865.887-.258,1.557-.892,2.414-1.195.297-.105.882-.328,1.191-.32.406.01.828.3,1.252.335.903.074,2.087-.386,2.869-.826.382-.215,1.326-1.053,1.262-1.565-.061-.497-.365.305-.486.04.046.099.38.203.472.265.278.186.661.309.988.358.994.151,1.704-.467,2.555-.858.484-.222,1.064-.512,1.585-.589.502-.074.951.101,1.457.114,1.174.031,2.273-.208,3.462-.127.443.03.871-.006,1.307-.093.593-.118.542-.211,1.014.072.709.424,1.055.979,1.982.908.771-.059,1.234-.819,1.784-.96.329-.084,1.019.22,1.369.267.518.07,1.036-.006,1.547.05.397.043.633.563,1.235.969.688.465,1.408.482,2.167.18.19-.076.874-.621,1.028-.581-.447-.116.254.549.198.484.127.148.333.235.5.319.813.411,2.093.728,3.009.673.314-.019.808-.094,1.068-.289.13-.098.608-.101.145-.232-.4-.113-.104-.034-.037.202.171.602.852,1.246,1.422,1.457.346.128.696.149,1.062.105.408-.049.867-.428,1.242-.416.869.028,1.691.98,2.339,1.431,1.577,1.097,2.666-.387,4.275-.1.802.143,1.65.857,2.295,1.373.835.67,1.522,1.054,2.565,1.402.993.331,2.091.141,2.964.63.389.218.707.51,1.146.649.526.167,1.095.106,1.614.284,1.653.566,2.994,2.453,4.928,1.771.206-.073.806-.255.924-.439.314-.487-.425.199-.415-.115-.004.114.211.329.259.433.318.677,1.037,1.141,1.754,1.227.559.067,1.51-.307,1.699-.313.22-.007,1.355.335,1.311.296-.02-.018.236.61.348.833.672,1.333,2.153,1.819,3.437.9.05-.036.474-.204.477-.254-.003.041-.687-.506-.756-.182-.043.205.28.77.375.954.366.708.919,1.188,1.729,1.253.365.029.702-.041,1.052-.142.415-.12,1.046-.174.523-.448-.609-.319-.095.353.069.628.212.355.441.667.778.913.8.582,1.862.828,2.732,1.318.792.446,1.5.831,2.431.578.332-.09.63-.315.96-.396.264-.065.266-.002.127-.062-.363-.155.133.342.129.336.193.327.636.443.891.696.274.272.426.668.696.951.551.579,1.18.795,1.97.785,1.212-.015,2.119.004,3.183.726.742.504,1.467,1.051,2.239,1.512.976.582,2.166.907,3.074,1.601,1.097.838,1.272,2.601,3.197,2.068.302-.084.664-.235.928-.404.09-.058.371-.13.427-.218.206-.32-.836-.271-.771-.356-.248.323.641,1.732.877,1.955.529.502,1.176.599,1.874.504.135-.018,1.122-.228.735-.322-.293-.071-.054-.022.029.244.09.285.286.573.474.798.948,1.131,2.515,2.212,4.009,1.717.321-.106.622-.342.946-.424.152-.038.325-.013.11-.045-.38-.057.27.278.273.281.737.646,1.782.87,2.315,1.719.377.601.498,1.216,1.169,1.604.824.475,1.769.099,2.568.561,1.616.936,3.48,1.572,4.775,2.939.727.767,1.359.938,2.36,1.158.395.087.774.25,1.177.3.433.053.887-.141,1.299-.082-.121-.017-.363-.436-.2-.028.066.164.115.335.185.499.139.326.281.643.525.907.611.662,1.796,1.215,2.649,1.472,1.447.437,3.927-.045,4.87,1.311.414.595.41,1.231,1.06,1.697.337.242.753.37,1.146.498.627.204.835.371,1.285.84.589.614,1.185,1.014,2.065,1.011.337-.001.747-.188,1.058-.076s.687.609.947.836c1.138.993,2.41,2.64,4.038,2.818.786.086,1.419-.284,2.164-.128,1.114.234,1.634,1.123,2.608,1.588.821.392,1.805.436,2.668.766.88.337.995,1.079,1.709,1.644.8.633,1.822.373,2.555,1.057.713.666,1.224,1.018,2.147,1.398.916.377,1.801,1.07,2.778,1.262.388.077.735-.044,1.111-.013.566.045.509.09.959.494.752.675,1.612.629,2.404,1.123.353.22.543.718.836,1.006.312.307.69.558,1.009.862,1.189,1.132,3.191,2.471,4.833,2.741.813.133,1.262-.319,2.001-.433.865-.133-.142-.034-.027.084.124.128.249.3.357.442.319.417.829.624,1.289.83.624.279,1.896,1.007,2.642.704-.035.014.771-.121.293-.239-.195-.048-.055-.272-.014.138.037.374.159.782.311,1.124.639,1.444,2.343,1.595,3.523.623.056-.046.442-.2.453-.262.005-.031-.851-.452-.95-.225-.071.163.18.784.239.958.239.7.633,1.234,1.34,1.504.743.284,1.906.45,2.697.483.673.029.518-.091.911.456.262.364.449.699.816.974.612.458,1.57.797,2.308.99.47.123,1.836.142,2.184-.31.215-.279-.492-.309-.497-.303-.017.018.203.446.214.485.094.319.291.645.505.897.651.767,1.627.84,2.559,1.026.84.168,1.827-.065,2.567.29.927.445.721.571,1.236,1.384.36.568.86.989,1.529,1.098.366.059.716.036,1.075-.062.228-.062.451-.216.677-.263.157-.033.434-.041.214-.088.843.179,1.412,1.028,2.383.983.569-.026.447-.159.741.139.253.256.361.705.616.989,1.07,1.188,2.983,1.896,4.469,1.238.091-.04.425-.25.515-.234-.273-.048-.366.036-.274.244.137.308.434.634.686.848.635.537,1.404.6,2.187.392.208-.055.649-.264.737-.248.302.054.888.606,1.166.784.923.59,1.787,1.232,2.754,1.759.935.51,1.793.235,2.738.535.879.279,1.787.92,2.645,1.297.81.355,1.636.836,2.496,1.049.441.11.935.031,1.358.187.46.169.721.567,1.138.836.816.526,1.811.482,2.724.707.354.087.917.139,1.198.36.275.216.409.701.643.978.423.5.964.843,1.645.826.445-.011,1.73-.406,1.937-.85.227-.488-.384.222-.396-.079.003.085.353.491.442.59.23.252.482.487.791.641.368.184.776.24,1.18.288.66.078.754.066,1.229.488.578.514,1,.92,1.824.957.363.016.863-.241,1.188-.183.344.061.4.267.765.571,1.227,1.021,3.17,2.326,4.845,2.247.735-.035,1.273-.49,1.894-.814-.2.104-.553-.305-.328.075.082.138.226.302.338.417.294.304.601.498.971.69.742.383,1.675.918,2.529.899.36-.008.764-.112,1.095-.249.194-.08.446-.017.234-.119-.299-.145.163.403.195.449.524.75,1.291.914,2.102,1.213.971.358,1.735,1.253,2.779,1.373.362.041.695,0,1.05-.09.174-.044.614-.291.755-.26-.165-.037-.37-.046-.173.163.628.667,1.078,1.063,1.898,1.515,1.458.804,2.186,2.313,4.064,1.767.231-.067,1.354-.386.52-.449-.623-.047-.263-.213-.246.22.006.155.214.572.266.669.378.716.958,1.109,1.751,1.249.246.044.82-.059,1.004.051.183.11.366.661.522.85.609.742,1.664,1.326,2.534,1.704.951.413,1.216.325,1.822,1.211.586.856,1.202.927,2.096,1.241.732.257.804.999,1.355,1.566.738.759,1.545,1.297,2.208,2.151.527.678.999,1.529,1.633,2.106.749.682,1.807.592,2.046,1.754.155.752-.27,1.482-.083,2.263.174.727.693,1.184,1.328,1.539.132.074.303.164.448.21.418.134-.102-.152-.023-.339-.147.348-.348.691-.433,1.063-.21.915.159,1.991.343,2.89.101.495.377.995.424,1.494.047.489-.126,1.025-.188,1.507-.044.34-.172.84-.045,1.173-.021-.055.148.839.247.332.255-.101.268-.114.04-.037-.109.035-.218.067-.328.096-.615.176-1.27.37-1.715.855-.676.735-.275,1.49-.578,2.265-.301.769-1.255,1.065-1.463,1.963-.171.742.391,1.451.285,2.112.069-.433-.425.402-.63.512-.186.1-.375.085-.69.078-.696-.016-1.385.006-1.946.478-.676.568-.509,1.227-.85,1.92-.213.432.068.043.093.026-.1.068-.452.053-.576.069-.434.054-.79.198-1.169.415-1.608.92-.159,3.41,1.454,2.487h0Z"/>
        <path class="cls-2" d="M1.33,64.365c.459.35,1.199.383,1.58.676.29.223.489.892.741,1.192.244.29.48.54.814.736.273.16.873.242,1.085.461-.265-.272-.097-.346-.208.095-.168.667.149,1.662.632,2.136.488.478,1.162.577,1.813.567.202-.003.468-.027.675-.062l-.267-.354c.067.234.134.467.202.7.231.65.583,1.239,1.228,1.539.33.153.666.22,1.03.239.232.002.464-.006.696-.024.406-.002.457-.005.152-.01-.366-.384.083.708.071.682.16.323.341.559.574.833.458.539.913,1.259,1.53,1.632.589.357,1.144.23,1.77.318,1.244.175,1.648,1.151,2.434,2,.679.733,1.51.685,2.333,1.109.56.289,1.173.884,1.533,1.38.436.602.709,1.17,1.457,1.444.313.115.621.133.951.117.244-.025.486-.065.725-.118.485-.023.476-.139-.028-.35.609,1.239,1.012,2.258,2.637,2.201.489-.017.845.114.496-.309.187.226.237.739.381,1.008.362.679.912,1.057,1.649,1.267.533.152.862.101,1.328.437.304.219.511.567.829.789.486.34.943.476,1.532.43.272-.021.76-.08.993-.249l.312-.113c-.478-.449-.593-.438-.344.03.093.749.826,1.526,1.51,1.764.418.145,1.273.171,1.666-.069l.341-.108c-.478-.646-.63-.72-.458-.221-.011.257.112.656.188.901.428,1.386,2.009,2.098,3.372,2.309.572.088,1.571-.241,1.784-.244.382-.005.751.238,1.149.125l.416-.04c-.108-.29-.107-.322.003-.097.45.337.564,1.126,1.09,1.506.319.231.625.331,1.013.411.287.049.577.075.869.078.015-.321.077-.309.186.035.329.402.384.965.782,1.35.505.488,1.15.642,1.829.536.32-.05.619-.193.912-.324.858-.386.24-.062.147-.235.339.631.898,1.131,1.557,1.392.777.308,1.813.491,2.644.574.503.05,1.014.073,1.516.128.04.004,1.362.088.87-.191.249.141.391,1.147.553,1.415.43.71,1.096,1.076,1.925,1.1.712.021,1.321-.056,2.036.057.505.08.955.137,1.451.272-.066-.018,1.173.425.862.148.516.46.57,1.255,1.196,1.703.657.47,1.86.878,2.659.982.381.05.814-.1,1.169-.038.538.095.556.304.963.644.611.511,1.468.868,2.206,1.153.612.236,1.112.318,1.763.122.298-.089.702-.421,1.004-.443-.254.019.885.549,1.095.643.801.356,1.637.568,2.371,1.049.58.381,1.026.708,1.727.86.391.085.909.002,1.26.227.266.17.452.581.701.795.577.495,1.242.662,1.984.552.772-.114,1.3-.349,2.104-.266.778.08.184-.271.731.158.245.192.382.545.624.759.491.435,1.072.572,1.71.623.617.049.828-.029,1.358.275.448.257.763.61,1.279.767.878.267,1.866.159,2.771.35.9.189,1.777.441,2.655.716.836.262,1.689.666,2.576.709.64.031.444-.12.753.254.218.263.293.67.511.954,1.081,1.41,2.286.39,3.596.701.664.158,1.171.587,1.897.546.315-.018.812-.101,1.073-.299.494-.107.483-.222-.034-.345.104.194.209.389.313.583.942,1.528,2.231.987,3.567,1.698.776.413,1.236.781,2.16.869,1.064.101,2.177.26,3.246.286.752.018,1.355-.256,2.074-.049.822.236,1.08.728,1.624,1.294,1.13,1.177,3.206,1.216,4.706,1.387,1.693.193,3.425.212,5.002.773,1.796.639,3.744.916,5.618.563.958-.181,1.79-.056,2.73.3.808.306,1.105.593,1.699,1.171,1.321,1.282,3.244.405,4.859.867.907.259,1.529.87,2.533.82.311-.015.912-.314,1.185-.254-.218-.047.222.223.349.338,1.449,1.323,2.314.862,3.796-.034.509-.308-.378-.226.505-.058.273.052.707-.056.948.052-.358-.162.162.33.219.413.177.257.38.522.623.719.657.533,1.29.521,2.1.475,1.091-.062,1.84.271,2.908.365,1.005.088,1.924-.034,2.943.138.949.161,1.887.154,2.834.285,1.786.246,3.335,1.094,4.854,1.995.58.344.996.812,1.653,1.043.765.27,1.758.557,2.574.568.285.004.84-.213,1.106-.11.231.089.522.612.727.783.622.519,1.438.705,2.206.903.805.208,1.322.251,2.108-.062l.328-.141c.56-.163.446-.319-.341-.468-.028.033.421.866.465.937,1.005,1.646,2.954.86,4.347,1.842,1.155.814,1.381,1.987,3.109,1.55.21-.053.812-.418,1.012-.356-.663-.206.237.669.263.693.546.491,1.132.981,1.708,1.44.632.504,1.331,1.191,2.102,1.47.677.245,1.527.255,2.238.353.723.1,1.332-.013,2.045.144-.004,0,.94.238.894.198.321.277.431.922.749,1.256.668.701,1.406.456,2.17.805.631.288.876,1.065,1.504,1.392.616.321,1.495.349,2.141.088-.165.066-.466-.752-.113.229.107.296.218.599.396.86.459.674,1.171.851,1.896,1.125.941.356,1.883.948,2.87,1.157.364.077.846-.051,1.182.05-.11-.033-.213-.258.05.084.506.657.663,1.362,1.552,1.66.769.258,1.294-.161,2.008-.246.79-.095-.079-.096.624.097.158.043,1.122.673.712.237.48.51.554,1.193,1.171,1.637.699.504,1.983,1.098,2.856,1.082.609-.011,1.045-.41,1.601-.544.57-.138.187-.079.849.133.75.24.259-.369.306.119.164,1.673,1.281,2.375,2.757,2.86.988.325,1.39.176,2.364.051.524-.068,1.021.095,1.573.461.557.37.839.99,1.469,1.297.793.386,2.039.405,2.909.381.638-.017,1.166-.343,1.786-.326,1.033.029,1.216.522,1.897,1.115,1.412,1.229,3.252,1.213,4.82,1.975.772.375,1.339.765,2.238.597.725-.135,1.081-.399,1.833-.263.885.16,1.096.646,1.821,1.092.818.504,1.766,1.077,2.722,1.227.708.111,1.137-.039,1.746.291.686.372,1.142.835,1.991.797.389-.017.694-.206,1.061-.263.831-.129-.253-.344.554.126.685.399,1.099.892,1.989.823.872-.067,1.161-.617,1.951-.172.626.352,1.217.734,1.838,1.093.61.353,1.226.549,1.935.372.922-.23,1.639-.927,2.68-.692.647.146,1.113.74,1.778.918.502.135,1.107.027,1.591.207.444.165.642.401,1.021.652.579.384,1.231.606,1.925.394.705-.216,1.029-.99,1.638-1.22-.602.228.063.334.394.476.355.152.721.211,1.078.353.78.311,1.292.734,2.184.606.688-.099,1.265-.489,1.936-.636,1.092-.24,2.102-.016,3.193.026.948.036,1.979.018,2.881-.288.822-.279,1.675-.438,2.559-.273.795.149,1.411.585,2.261.405.656-.139,1.096-.923,1.683-1.006.284-.04.831.259,1.151.28.398.026.728-.029,1.1-.168.271-.101.754-.567.999-.593.346-.038.604.213.921.327,1.244.445,3.385.4,4.319-.628.224-.246.336-.587.552-.826.441-.491.007-.119.741-.386.671-.244,1.253-.311,1.859-.742.394-.28.477-.424.954-.497.336-.051.83.037,1.185.02.789-.039,1.564.068,2.35-.097,1.813-.38,1.046-3.157-.766-2.777-.394.083-.838-.106-1.235-.094-.384.011-.74.12-1.128.12-.833.001-1.463-.109-2.221.355-.693.424-.938.739-1.765.935-.915.217-1.569.371-2.137,1.171-.165.232-.283.629-.485.82.38-.36-.15-.116-.49-.109-.846.018-1.213-.356-2.008-.55-.821-.201-1.399.111-2.101.471-.864.444-1.215-.051-2.168.023-.857.067-1.171.778-1.865.989-.432.132-1.412-.292-1.935-.32-.812-.043-1.634-.133-2.429.095-1.283.369-2.338.508-3.695.38-.815-.077-1.469-.032-2.282.055-.402.043-.814.021-1.209.135-.29.084-.82.527-1.094.521-.326-.007-1.419-.608-1.794-.762-.754-.308-1.291-.779-2.168-.622-.581.104-1.271.53-1.618,1.02l-.254.247c.473-.006.575-.09.305-.254-.022-.149-.594-.473-.718-.54-.891-.481-1.948-.209-2.835-.705-.866-.484-1.348-.821-2.396-.768-.741.037-1.49-.004-2.19.255-.356.132-.555.356-.936.289-.216-.038-.746-.481-.965-.599-.557-.302-1.074-.731-1.666-.966-.357-.142-.654-.211-1.041-.18-.498.04-.964.462-1.414.486l.089.111c-.195-.197-.404-.378-.625-.545-.296-.214-.61-.435-.974-.527-.653-.165-1.143.133-1.758.205-.563.065-.357.069-.856-.266-.309-.208-.638-.411-1.002-.513-.426-.12-.884-.08-1.317-.104-.64-.035-.87-.262-1.427-.562-.65-.35-1.074-.848-1.699-1.227-.674-.409-1.627-.552-2.395-.668-.684-.103-1.13.105-1.778.223-.994.181.391.291-.719-.071-.557-.182-1.006-.548-1.604-.688-.852-.199-1.469-.305-2.236-.73-.673-.373-.983-.962-1.616-1.381-.663-.439-1.615-.571-2.385-.699-.831-.138-1.363.225-2.151.314-.268.03-.968-.016-1.21-.079-.561-.145-.473-.165-.879-.572-.47-.471-1.031-.715-1.624-.994-.762-.358-1.382-.693-2.244-.567-.353.052-.75.323-1.093.33-.343-.132-.686-.265-1.028-.4.093.343.086.333-.022-.03-.572-1.277-.583-2.034-2.048-2.58-.589-.219-1.252-.55-1.893-.537-.365.007-.667.128-.998.262-.208.081-.409.176-.604.284-.216.23-.402.211-.558-.059-.864-.175-.808-.685-1.31-1.321-.49-.621-1.118-.84-1.841-1.152-.775-.335-1.381-.591-2.235-.377-.08.02-1.003.31-1.004.349.658.433.829.426.512-.021l-.147-.308c-.977-1.745-2.463-1.227-4.071-1.905-.567-.239-1.758-.49-2.188-.853.416.351.024-.273-.042-.458-.148-.411-.312-.832-.62-1.153-.393-.41-.936-.62-1.5-.636-.291-.008-.861.25-1.113.175-.272-.081-.469-.57-.655-.753-.265-.261-.587-.456-.927-.594s-1.017-.065-1.298-.237c-.373-.229-.63-1.047-1.086-1.414-1.258-1.014-3.062-.911-4.544-1.023-.897-.068-1.418-.197-2.141-.72s-1.419-1.1-2.09-1.683c-1.148-.997-1.747-1.812-3.41-1.304l-.343.132c-.461.124-.446.152.045.086-.179-.231-.331-.486-.539-.694-.618-.619-1.459-.855-2.271-1.129-.399-.135-.808-.339-1.243-.329-.694.015-.363.179-.687-.195-.414-.479-.442-.99-1.004-1.395-.568-.409-1.238-.444-1.896-.247-.91.273-1.291.568-2.247.038-.558-.309-.845-.946-1.462-1.232-.814-.377-1.488-.074-2.319-.126-1.738-.109-3.019-1.419-4.459-2.216s-3.08-1.243-4.701-1.433c-.982-.115-1.935-.133-2.918-.299-.97-.163-1.907.015-2.853-.141-.864-.143-1.699-.644-2.607-.382-.703.203-.335.27-.65.038-.24-.176-.392-.586-.607-.806-.927-.946-3.117-1.15-4.296-.658-.094.039-1.401.815-1.366.923h.671c-.177-.191-.354-.382-.531-.573-.269-.25-.527-.44-.862-.587-.884-.386-1.443.081-2.294.055s-1.736-.687-2.631-.804c-.46-.06-.939-.147-1.402-.171-.364-.019-1.099.18-1.419.07.277.095-.264-.316-.353-.411-.15-.16-.271-.3-.447-.439-1.31-1.03-3.914-1.792-5.551-1.504-1.777.312-3.228.278-4.971-.363s-3.517-.581-5.373-.802c-.871-.104-1.918-.056-2.714-.5-.469-.261-.67-.728-1.094-1.091-.565-.484-1.448-.843-2.138-1.099-.917-.341-1.484-.081-2.378.014-.871.093-1.826-.172-2.692-.254-.547-.052-.849-.01-1.336-.258-.349-.178-.604-.447-.977-.604-.5-.21-1.501-.066-1.872-.301-.573-.363-.636-1.317-1.38-1.681-.573-.28-1.178-.238-1.771-.051-.505.159-.584.305-1.131.214-.402-.067-.794-.392-1.199-.487-.709-.166-1.45.001-2.115.262.665-.26.475.513.304-.253-.074-.33-.342-.709-.56-.956-.502-.569-1.075-.7-1.809-.8-.82-.111-1.522-.281-2.309-.535-1.02-.329-2.045-.628-3.091-.856-.985-.215-2.26-.154-3.082-.634-.621-.362-.976-.719-1.737-.837-.28-.044-1.003.122-1.201.021-.199-.101-.444-.653-.603-.823-.954-1.019-2.786-.971-4.067-.781-.295.044-.796.351-1.071.317.53.067-.086-.388-.229-.535-.47-.481-.941-.722-1.598-.864-.441-.096-.95-.03-1.369-.225-.336-.156-.605-.501-.926-.691-.763-.451-1.672-.612-2.467-.994-.727-.349-1.371-.898-2.224-.87-.378.012-.688.139-1.032.275-.526.208-.459.223-.944.107-.762-.182-1.164-.759-1.721-1.226-.823-.69-1.504-.582-2.495-.579-.488.002-1.15-.043-1.57-.369-.077-.06-.231-.229-.37-.417-.388-.522-.562-1.044-1.173-1.386-.71-.398-1.744-.655-2.54-.805-.561-.106-1.976-.491-2.553-.265l-.383.051c.156.429.172.478.048.149-.164-.268-.212-.658-.353-.945-.254-.516-.582-.936-1.122-1.172-1.629-.712-4.168.134-5.584-.991-.483-.383-.604-.952-1.212-1.249-.646-.316-1.265-.233-1.914.005-.097.035-.889.313-.914.421l.766.343c-.102-.179-.191-.364-.268-.555-.185-.569-.615-1.129-1.137-1.421-.32-.179-.809-.322-1.179-.305-.685.032-.414.214-.739-.14-.402-.437-.493-.987-1.009-1.361-.686-.498-1.343-.362-2.129-.385-.363-.01-.717-.123-1.078-.127-.51-.006-1.011.308-1.5.302.19.002.411-.071-.325-.184-.524-.08-.528-.029-.694-.353-.27-.526-.17-1.165-.53-1.693-.307-.45-.736-.742-1.271-.837-.366-.065-.708-.04-1.072.036-.227.056-.451.122-.673.198.392.441.473.433.242-.024-.217-1.327-1.544-2.064-2.775-1.788-1.005.225-.666.373-1.436-.303-.288-.253-.586-.438-.939-.583-.317-.13-1.133-.141-1.388-.322.312.222-.118-.532-.141-.587-.139-.334-.274-.634-.521-.906-.492-.541-1.166-.708-1.873-.682-.247.009-.513.109-.761.105l.262.235c-.072-.212-.153-.421-.242-.626-.323-.735-.783-1.345-1.615-1.521-.646-.137-1.158.141-1.774.165l.29.186c-.114-.204-.227-.409-.34-.614-.188-.294-.393-.535-.647-.771-.61-.568-1.409-1.189-2.172-1.525-.244-.108-.579-.145-.81-.267-.638-.337-.693-.689-1.163-1.202-.591-.645-1.583-1.37-2.393-1.675-.578-.218-1.324.06-1.827-.145.001,0-.807-1.091-.965-1.379-.411-.751-.497-1.468-1.363-1.868-.55-.254-1.134-.244-1.729-.212l.178.341c-.068-.233-.136-.467-.202-.7-.118-.334-.253-.626-.464-.908-.356-.474-.772-.704-1.347-.809-.279-.051-.759-.119-1.037-.012-.52-.045-.489.137.095.546.001-.225.003-.45.005-.676-.03-.668-.149-1.302-.626-1.804-.468-.493-1.191-.502-1.68-.901-.554-.451-.689-1.318-1.314-1.782-.556-.413-1.291-.417-1.822-.822-1.473-1.124-2.91,1.377-1.454,2.487h0Z"/>
      </g>
    </g>
  </g>
</svg>