<?xml version="1.0" encoding="UTF-8"?>
<svg id="_레이어_2" data-name="레이어 2" xmlns="http://www.w3.org/2000/svg" viewBox="0 0 259.286 211.288">
  <defs>
    <style>
      .cls-1 {
        fill: #fcf0a0;
      }

      .cls-1, .cls-2, .cls-3, .cls-4 {
        stroke-width: 0px;
      }

      .cls-2 {
        fill: #6b9dd4;
      }

      .cls-3 {
        fill: #c2e5ef;
      }

      .cls-4 {
        fill: #5ac2d6;
      }
    </style>
  </defs>
  <g id="_레이어_1-2" data-name="레이어 1">
    <g id="_15" data-name="15">
      <path class="cls-3" d="M67.483,101.812c-29.749,0-55.578,24.093-55.578,53.842s19.708,53.62,55.578,53.888c29.748.222,53.865-24.116,53.865-53.865,0-8.365-3.094-13.548-6.497-20.612-8.698-18.056-25.984-33.253-47.368-33.253ZM67.483,199.505c-24.206,0-45.779-21.077-45.779-45.283s21.574-42.374,45.779-42.374,43.828,19.623,43.828,43.828-19.623,43.828-43.828,43.828Z"/>
      <path class="cls-3" d="M202.723,72.639c-29.749,0-55.578,24.093-55.578,53.842s19.708,53.62,55.578,53.888c29.748.222,53.865-24.116,53.865-53.865,0-8.365-3.094-13.548-6.497-20.612-8.698-18.056-25.984-33.253-47.368-33.253ZM202.723,170.333c-24.206,0-45.779-21.077-45.779-45.283s21.574-42.374,45.779-42.374,43.828,19.623,43.828,43.828-19.623,43.828-43.828,43.828Z"/>
      <ellipse class="cls-3" cx="62.617" cy="153.315" rx="6.136" ry="6.048"/>
      <path class="cls-1" d="M143.753,47.256c-1.776,0-10.585-4.424-19.94,1.023-3.39,1.974-7.724,6.082-11.535,8.735-6.704,4.668-11.843,8.439-7.766,13.951,3.336,4.51,11.967,2.088,20.067-.275,7.424-2.166,14.296-3.964,18.486-7.078,8.763-6.513,8.527-11.277,5.567-13.882-2.96-2.605-4.879-2.474-4.879-2.474Z"/>
      <ellipse class="cls-3" cx="199.897" cy="124.418" rx="6.316" ry="6.212"/>
      <path class="cls-4" d="M91.105,36.802c-.981,0-22.141,6.273-22.141,6.273l5.108,12.529,22.286-9.789-5.253-9.012Z"/>
      <path class="cls-4" d="M67.994,17.637c-.981,0-22.144,9.635-22.144,9.635l5.993,7.301,19.16-11.356-3.009-5.58Z"/>
      <g>
        <g>
          <path class="cls-2" d="M51.589,104.082c-1.35.27-2.761.338-4.084.754-1.456.458-2.745,1.327-4.134,1.923-1.275.547-2.54,1.161-3.816,1.696-1.406.59-2.889,1.009-4.207,1.8-1.193.716-2.278,1.573-3.432,2.344-1.276.852-2.474,1.73-3.52,2.866-.399.433-.643.997-1.058,1.41-.473.47-1.133.817-1.651,1.251-.523.439-1.111.846-1.582,1.345-.486.514-.689,1.415-1.185,1.869-.285.261-.792.41-1.112.643-.541.394-.905.863-1.204,1.458-.651,1.298-1.526,2.392-2.238,3.658-.625,1.113-1.127,2.385-1.966,3.345-.969,1.109-1.754,2.436-2.25,3.832-.458,1.287-.661,2.673-1.178,3.929-.591,1.435-1.284,2.866-1.455,4.429-.148,1.352-.327,2.688-.549,4.033-.117.707-.252,1.421-.27,2.139-.021.848.076,1.532-.197,2.354-.464,1.396-.25,2.75-.226,4.193.012.745-.02,1.494.099,2.233.111.689.526,1.346.531,2.036.004.613-.214,1.224-.203,1.85.012.722.106,1.467.188,2.184.182,1.584.427,3.187.736,4.752.134.68.387,1.342.493,2.026.112.723.031,1.474.219,2.19.171.648.59,1.138.842,1.737.282.672.199,1.438.37,2.145.323,1.331,1.113,2.649,1.584,3.948.238.656.24,1.327.426,1.992.209.746.646,1.457,1.015,2.132.661,1.21,1.296,2.589,2.363,3.495,1.105.937,1.999,2.08,2.835,3.261.876,1.238,1.996,2.258,3.102,3.288,1.026.956,1.624,2.187,2.754,3.044,1.084.823,2.122,1.952,3.305,2.614.497.278,1.119.35,1.59.663.615.41,1.005,1.143,1.645,1.569,1.178.785,2.59,1.246,3.84,1.899.631.329,1.215.744,1.858,1.051.716.343,1.657.375,2.313.801.438.285.768.742,1.224,1.022.599.368,1.281.488,1.951.647,1.524.361,3.008.884,4.518,1.299,1.362.374,2.801.486,4.185.794.647.144,1.152.422,1.764.659.751.292,1.582.384,2.379.501,1.437.211,2.897.051,4.342-.032,1.555-.089,3.122.017,4.683-.038,1.449-.051,2.681.337,4.095-.194,1.382-.519,2.903-.533,4.362-.725.743-.098,1.41-.273,2.121-.516.693-.237,1.095-.147,1.825-.12.662.024,1.329-.077,1.916-.403.464-.258.886-.817,1.383-.964.601-.178,1.299-.043,1.922-.232.691-.21,1.335-.585,2.005-.849.676-.266,1.382-.441,2.052-.725.747-.317,1.284-.809,1.953-1.257,1.14-.763,2.309-1.362,3.551-1.92,1.284-.577,2.323-1.64,3.529-2.373,1.263-.768,2.498-1.568,3.646-2.501,1.165-.947,2.443-1.796,3.454-2.912s2.239-1.967,3.274-3.063c1.029-1.089,2.031-2.202,3.057-3.293.848-.902,1.23-2.191,2.163-2.972.502-.42.962-.818,1.291-1.396.352-.617.348-1.448.755-2.001.369-.501.893-.856,1.249-1.385.39-.58.703-1.221,1.031-1.838.335-.631.693-1.254,1-1.899.35-.735.423-1.387.559-2.173.22-1.27.972-2.543,1.43-3.751.509-1.344,1.409-2.439,1.369-3.945-.016-.606-.101-1.007.08-1.582.21-.669.515-1.216.605-1.924.193-1.531-.028-3.125.277-4.638.308-1.529.22-2.757.006-4.305s-.516-3.067-.649-4.639c-.123-1.454-.432-2.836-.765-4.254-.362-1.543-.977-2.979-1.369-4.507-.37-1.442-1.039-2.645-1.729-3.957-.732-1.392-1.438-2.78-2.102-4.209-.554-1.193-1.475-2.262-1.781-3.528-.148-.611-.309-1.17-.667-1.695s-1.042-.782-1.373-1.277c-.307-.459-.344-1.171-.602-1.669-.294-.569-.701-1.009-1.155-1.454-1.037-1.018-1.622-2.409-2.619-3.504-.85-.934-1.397-2.105-2.214-3.092-.964-1.164-2.155-1.819-3.313-2.745-.509-.406-1.03-.759-1.445-1.266-.441-.539-.786-1.056-1.373-1.465-1.287-.896-2.74-1.596-4.058-2.465-.586-.386-1.128-.81-1.77-1.105-.586-.269-1.231-.37-1.815-.628-.623-.275-1.178-.694-1.803-.972-.735-.327-1.481-.282-2.227-.521-.546-.175-.959-.616-1.457-.889-.629-.344-1.317-.493-2.006-.659-1.325-.32-2.445-1.175-3.792-1.551-1.46-.408-2.973-.787-4.489-.899-.667-.049-.897-.122-1.471-.461-.604-.356-1.233-.622-1.947-.627-.638-.004-1.225.25-1.849.288-.649.04-1.337-.244-1.993-.276-.723-.035-1.406.158-2.119.227-.749.073-1.524,0-2.277.005-1.492.009-2.924.066-4.41.233-1.543.174-2.885.497-4.382.869-2.247.558-1.295,4.031.957,3.471,1.379-.342,2.628-.662,4.052-.814,1.409-.15,2.791-.163,4.205-.174.703-.005,1.395.059,2.097-.007.62-.058,1.223-.255,1.849-.211.634.045,1.257.27,1.897.28.406.007.81-.06,1.208-.138.117-.023.916-.121.619-.185.433.094.878.571,1.295.756.588.26,1.194.305,1.828.354,1.497.114,2.945.478,4.389.895,1.19.343,2.143,1.131,3.377,1.435.711.175,1.15.294,1.758.696.54.356,1.069.686,1.704.852.589.154,1.187.113,1.755.345.672.275,1.267.728,1.943,1.008.486.202,1.015.299,1.494.51.69.304,1.292.824,1.926,1.231.602.386,1.192.806,1.803,1.178.533.325,1.173.532,1.662.917.431.34.664.874,1.044,1.269.563.584,1.3,1.078,1.935,1.586.954.764,1.856,1.241,2.653,2.197.869,1.043,1.422,2.231,2.358,3.243.876.947,1.302,2.183,2.213,3.11.451.459.688.608.9,1.213.205.584.373,1.154.735,1.664.344.484.924.727,1.256,1.182.275.377.258.939.409,1.391.437,1.306,1.396,2.432,1.977,3.686.568,1.227,1.114,2.474,1.785,3.648.32.56.598,1.14.911,1.703.455.817.619,1.489.873,2.375.357,1.243.887,2.397,1.177,3.666.35,1.533.64,3.007.812,4.569.143,1.299.289,2.566.541,3.847.129.654.261,1.402.3,2.067.042.714-.214,1.366-.312,2.069-.197,1.413.048,2.927-.202,4.323-.093.518-.381.973-.56,1.462-.257.701-.278,1.363-.211,2.093.101,1.086-.743,2.136-1.126,3.165-.492,1.322-1.293,2.665-1.534,4.055-.118.681-.14,1.15-.459,1.782-.258.51-.538,1.011-.808,1.515-.305.571-.581,1.199-.995,1.7-.502.607-1.071,1.02-1.435,1.75-.235.471-.241,1.062-.483,1.51-.252.465-.792.727-1.168,1.103-.907.907-1.299,2.137-2.2,3.069-.99,1.024-1.91,2.116-2.897,3.145-.993,1.035-2.142,1.862-3.122,2.914-1.951,2.095-4.578,3.634-6.989,5.132-.938.583-1.674,1.43-2.683,1.885-1.378.621-2.703,1.302-3.94,2.185-.471.336-.864.697-1.409.914-.626.249-1.277.42-1.9.681-.555.232-1.167.609-1.765.723-.723.137-1.429.039-2.143.305-.551.205-.897.581-1.381.879-.505.311-.606.156-1.273.122-1.395-.071-2.661.66-4.033.827-1.344.164-2.848.173-4.13.615-.458.158-.838.382-1.331.393-.858.02-1.694-.208-2.575-.159-1.351.075-2.699-.08-4.044-.003-1.476.085-2.984.275-4.447.038-1.173-.19-2.144-.76-3.294-1.022-1.449-.331-2.973-.44-4.39-.854-1.296-.379-2.585-.803-3.892-1.144-.558-.145-1.159-.174-1.644-.494-.478-.315-.845-.778-1.361-1.057-.659-.357-1.401-.392-2.08-.673-.641-.265-1.21-.71-1.823-1.03-1.196-.624-2.789-1.039-3.84-1.899-.441-.36-.742-.87-1.193-1.232-.495-.398-1.036-.6-1.616-.845-.555-.234-.889-.501-1.338-.903-.653-.585-1.373-1.056-2.048-1.609-.864-.708-1.374-1.808-2.214-2.592-1.099-1.025-2.197-2.02-3.063-3.25-.741-1.052-1.619-2.233-2.587-3.087-1.072-.946-1.67-2.051-2.35-3.316-.633-1.177-.741-2.417-1.199-3.665-.471-1.285-1.255-2.59-1.43-3.94-.096-.736-.163-1.412-.491-2.094-.229-.476-.562-.867-.668-1.388-.129-.633-.073-1.309-.193-1.95-.158-.842-.42-1.656-.57-2.502-.224-1.261-.454-2.535-.586-3.809-.069-.67-.189-1.441-.149-2.114.042-.71.255-1.368.178-2.09-.064-.599-.318-1.099-.467-1.669-.17-.651-.118-1.322-.129-1.994-.013-.727-.13-1.469-.104-2.193.023-.64.292-1.145.44-1.763.322-1.346.073-2.801.298-4.179.227-1.389.392-2.777.57-4.168.161-1.258.773-2.468,1.268-3.619.576-1.343.72-2.839,1.274-4.197.436-1.07,1.086-1.896,1.801-2.769.894-1.091,1.456-2.507,2.153-3.729.643-1.127,1.52-2.052,2.047-3.245.43-.973,1.538-1.187,2.199-2.058.333-.439.495-.989.829-1.417.398-.512,1.082-.947,1.582-1.345.486-.387,1.022-.712,1.49-1.121.543-.475.829-1.093,1.286-1.626.818-.954,1.87-1.637,2.897-2.333,1.199-.813,2.327-1.764,3.615-2.443,1.108-.584,2.325-.929,3.472-1.421,1.319-.566,2.616-1.173,3.937-1.738,1.197-.512,2.291-1.263,3.534-1.682,1.307-.441,2.741-.485,4.084-.754,2.27-.454,1.309-3.924-.957-3.471h0Z"/>
          <path class="cls-2" d="M73.951,200.612c1.302-.09,2.381.068,3.645-.408,1.128-.424,2.326-.423,3.444-.836.486-.179.909-.492,1.386-.676.463-.179.877-.163,1.379-.209,1.297-.12,1.854-.829,2.928-1.382.915-.471,1.957-.393,2.857-1.004.913-.62,1.78-1.314,2.684-1.949.98-.688,2.039-1.276,3.043-1.93,1.035-.674,1.879-1.511,2.832-2.283.994-.806,1.845-1.476,2.643-2.486.692-.877,1.521-1.758,2.359-2.496.904-.796,1.509-1.561,2.132-2.598s1.439-1.931,2.014-3.008c1.166-2.186,2.229-4.49,3.244-6.747.481-1.068.449-2.232.774-3.346.373-1.28.421-2.427.547-3.737.219-2.281.845-4.666.655-6.967-.042-.503-.185-1.041-.105-1.541.074-.467.313-.899.386-1.375.178-1.147.11-2.601-.201-3.714-.298-1.065-.41-1.989-.435-3.107-.028-1.262-.05-2.43-.267-3.682-.184-1.063-.215-2.132-.47-3.186-.292-1.203-.755-2.052-1.305-3.127-.45-.879-.464-1.93-.918-2.84-.593-1.19-1.29-2.402-1.972-3.545-1.259-2.113-2.862-3.669-4.56-5.397-1.629-1.658-2.744-3.689-4.612-5.129-.453-.349-.905-.52-1.427-.744-.561-.241-.914-.51-1.384-.899-.92-.763-1.913-1.629-2.96-2.207-1.064-.588-2.2-1.055-3.275-1.641-1.085-.592-2.08-1.267-3.208-1.784-1.1-.503-2.255-1.109-3.416-1.453-.589-.175-1.185-.143-1.783-.227-.651-.091-1.189-.388-1.8-.614-1.151-.426-2.409-.412-3.594-.714-1.276-.325-2.394-.321-3.694-.352-1.217-.029-2.435-.113-3.65-.18-1.288-.071-2.652-.323-3.927-.065-1.139.23-2.194.428-3.359.531-1.303.115-2.593.158-3.894.334-1.179.16-2.217.655-3.328,1.056-1.182.426-2.376.727-3.561,1.127-2.203.744-4.497,1.723-6.43,3.026-1.95,1.316-4.015,2.553-5.892,3.973-.884.669-1.605,1.524-2.473,2.188-.379.29-.857.442-1.252.71-.59.4-1.026.916-1.482,1.453-.738.869-1.666,1.518-2.412,2.377-.841.97-1.603,2.006-2.353,3.046-.661.916-1.336,1.818-1.977,2.748-.683.991-.994,1.971-1.48,3.045-.463,1.024-1.15,1.926-1.597,2.974-.5,1.173-.784,2.412-1.273,3.581-.449,1.074-.856,2.099-1.11,3.245-.28,1.265-.109,2.523-.337,3.794-.193,1.076-.46,2.326-.435,3.417.012.524.142,1.025.292,1.522.189.627.179.975.087,1.618-.172,1.201.073,2.321.304,3.499.255,1.299.42,2.592.972,3.806.982,2.162,1.79,4.387,2.211,6.72.203,1.124.874,1.838,1.316,2.838.481,1.088.459,2.215,1.171,3.234.652.934,1.24,1.851,1.781,2.862.582,1.087.702,2.285,1.546,3.25.341.39.796.685,1.116,1.088.291.366.448.815.682,1.216.603,1.036,1.493,1.596,2.321,2.418.811.804,1.459,1.667,2.422,2.313.988.663,1.862,1.403,2.753,2.197.803.715,1.444,1.458,2.466,1.873.418.17.909.246,1.301.468.523.297.923.822,1.427,1.158.896.597,2.016,1.113,3.031,1.469.5.175,1.048.238,1.528.461s.889.586,1.357.835c1.007.534,2.136.781,3.165,1.265.585.275,1.158.608,1.786.776.603.161,1.175.078,1.782.127,1.008.081,1.866.702,2.896.785.672.054,1.318-.126,1.985-.098s1.327.271,1.998.344c1.183.128,2.376-.019,3.563.073,1.419.11,2.611-.166,4.004-.36.97-.135,1.482-1.363,1.257-2.214-.274-1.04-1.256-1.391-2.214-1.257-.573.08-1.144.267-1.72.315-.59.049-1.188-.091-1.776-.125-1.193-.067-2.334.077-3.514-.154-.596-.117-1.193-.235-1.803-.221-.502.011-1.008.166-1.51.101-1.11-.143-1.991-.757-3.165-.789-1.079-.029-1.759-.458-2.757-.867-1.02-.418-2.001-.701-2.935-1.297-1.734-1.106-3.884-1.209-5.48-2.594-.799-.693-1.567-1.067-2.549-1.425-.858-.313-1.509-1.097-2.199-1.694-.847-.732-1.607-1.454-2.551-2.067-.904-.587-1.474-1.478-2.264-2.194-.728-.659-1.286-1.051-1.75-1.932-.249-.473-.514-.9-.867-1.305-.357-.41-.884-.728-1.187-1.176-.232-.343-.275-.837-.406-1.219-.19-.555-.453-1.051-.743-1.559-.563-.989-1.209-1.89-1.798-2.851-.494-.806-.477-1.837-.875-2.702-.48-1.043-1.015-1.692-1.177-2.855-.295-2.112-1.276-4.432-2.177-6.36s-1.28-4.376-1.06-6.466c.109-1.034-.279-1.768-.415-2.742-.147-1.049.26-2.356.445-3.396.188-1.061-.026-2.141.224-3.172.274-1.129.73-2.114,1.132-3.193.365-.98.585-1.99,1.002-2.955.472-1.092,1.216-2.027,1.668-3.121.381-.921.67-1.677,1.242-2.51.639-.932,1.317-1.832,1.977-2.748.65-.901,1.305-1.824,2.067-2.636.78-.831,1.65-1.522,2.405-2.387.641-.734,1.455-1.021,2.201-1.621.933-.751,1.705-1.632,2.684-2.341,1.731-1.254,3.609-2.402,5.391-3.58s3.927-2.19,5.99-2.734,4.1-1.714,6.203-1.969c2.324-.282,4.62-.346,6.92-.793,1.022-.199,2.135.03,3.179.078,1.216.056,2.432.139,3.649.184,1.131.041,2.052.006,3.162.287s2.291.252,3.369.655c.553.207,1.061.477,1.64.606.526.117,1.054.078,1.577.161,1.123.18,2.302.874,3.33,1.349.99.458,1.862,1.078,2.816,1.602,1.017.558,2.053,1.021,3.086,1.538.993.497,1.898,1.32,2.747,2.027.382.318.753.672,1.182.926.483.287,1.077.372,1.55.658,1.765,1.064,2.857,3.302,4.239,4.779.641.686,1.371,1.279,2.017,1.967.822.876,1.489,1.795,2.106,2.83.576.966,1.087,1.976,1.647,2.953.569.992.573,2.117,1.082,3.132.423.844.821,1.427,1.055,2.37.261,1.049.307,2.119.483,3.185.347,2.097-.107,4.349.526,6.395.28.905.47,1.913.318,2.87-.074.467-.307.902-.385,1.375-.103.629-.012,1.189.048,1.814.202,2.106-.255,4.368-.552,6.452-.139.977-.057,1.933-.321,2.888-.152.548-.342,1.084-.443,1.644-.115.637-.086,1.278-.349,1.877-.874,1.992-1.849,4.006-2.849,5.943-.534,1.035-1.219,1.89-1.87,2.845-.636.932-1.051,1.664-1.908,2.413-.799.698-1.576,1.533-2.254,2.348-.769.925-1.474,1.621-2.416,2.369-.828.657-1.546,1.407-2.435,1.986-1.004.653-2.066,1.24-3.043,1.93-.782.552-1.574,1.098-2.336,1.678-.84.639-1.735.603-2.678,1.014-.798.348-1.328,1.078-2.192,1.187-.528.066-1.043.042-1.563.192-.555.16-1.038.489-1.554.731-.908.426-1.943.359-2.894.661-.517.164-1.017.473-1.562.541-.56.071-1.161-.071-1.729-.032-2.299.158-2.316,3.759,0,3.6h0Z"/>
          <path class="cls-2" d="M66.662,147.218c-.677-.155-1.382-.256-2.074-.293s-1.381-.144-2.08-.117c-1.302.049-2.594.716-3.668,1.419-1.21.792-1.867,2.275-2.227,3.628-.345,1.299-.424,2.694-.265,4.027.085.716.33,1.278.691,1.896.405.693.696,1.337,1.405,1.796.535.346,1.184.597,1.805.724.643.131,1.273.367,1.939.357.272-.004.561-.064.826-.098.07-.009.338-.005.045-.005.292,0,.589.004.881-.018.818-.063,1.681-.373,2.392-.775.45-.254.907-.555,1.323-.861.687-.506.963-1.125,1.421-1.796.413-.605.708-1.229.876-1.947.1-.43.146-.873.189-1.312-.006.056.059-.492.03-.298-.009.106.002.052.031-.162.033-.226.064-.452.093-.679.146-1.571-.072-3.346-1.014-4.653-.549-.762-1.592-1.207-2.463-.646-.756.487-1.234,1.646-.646,2.463.073.101.139.202.207.306.168.257.097.158.053.064.102.219.182.468.243.701-.018-.069-.014-.325.005.074.006.125.009.249.011.374.006.28.021.561.024.841,0,.03-.005.405.005.238.009-.149-.026.174-.025.161-.053.349-.104.697-.14,1.048-.011.112-.022.225-.032.337.029-.324.009-.049-.008.021-.057.244-.156.49-.201.735-.043.236.137-.153-.011.033-.069.086-.123.189-.187.279-.128.179-.251.352-.356.546-.048.089-.093.18-.142.268l-.036.066c-.095.149-.105.169-.029.061-.004-.018.123-.142.144-.126-.004-.003-.427.269-.447.282-.198.124-.389.259-.587.383-.1.062-.2.119-.303.175.064-.035.293-.107-.055.022-.192.071-.397.117-.587.191-.224.087.196.041-.042,0-.137-.024-.302-.008-.443-.003-.338.011-.668.089-1.003.117.313-.026.013-.008-.042-.006-.13.005-.282-.075-.018.01-.43-.139-.912-.275-1.361-.331-.259-.032.216.109-.028-.002-.076-.034-.153-.072-.23-.103-.333-.131-.082-.074-.056.016.073.258.056.102.003-.002-.092-.183-.175-.372-.274-.551-.049-.089-.105-.174-.157-.261-.024-.039-.247-.396-.13-.185.132.239-.075-.228-.014-.004.054.199-.008-.149-.01-.202-.01-.239-.018-.478-.029-.717-.009-.207-.017-.415-.009-.623.005-.12.016-.238.027-.357.049-.565-.07.324.032-.228.082-.444.189-.88.332-1.308.013-.039.156-.376.073-.203-.084.175.09-.153.108-.187.036-.065.326-.668.385-.662.045.005-.16.196-.174.182,0,0,.325-.192.364-.214.218-.125.435-.252.652-.378.29-.168.103-.062.025-.027.153-.069.316-.133.472-.194.102-.04.221-.068.319-.113-.135.062-.181,0,.02-.002,1.192-.012,2.173.048,3.197.282.916.209,1.992-.281,2.214-1.257.209-.916-.275-1.99-1.257-2.214h0Z"/>
          <path class="cls-2" d="M68.28,160.891c.049.846.022,1.595.29,2.424.211.653.73,1.243.917,1.881.05.169.018.595.089.832.126.424.392.764.586,1.15.348.689.382,1.456.564,2.19.184.741.635,1.352.87,2.076.25.771.143,1.636.507,2.362.284.567.604.828.737,1.469.18.86.321,1.712,1.224,2.157.298.227.18.084-.353-.428.027.214.056.428.088.641.104.433.365.757.514,1.161.255.694.499,1.227.84,1.87.296.559.338,1.225.587,1.804.12.278.351.524.456.792.157.4.115.815.314,1.228.258.537.71,1.001.954,1.526.298.64.475,1.461.729,2.136.133.354.27.683.484.998.481.708.137-.11.298.765.15.816.729,1.284.984,2.021.753,2.176,4.232,1.241,3.471-.957-.132-.381-.202-.78-.378-1.146-.073-.151-.627-.945-.54-.753-.174-.385-.097-.827-.307-1.234-.121-.235-.433-.473-.541-.651-.304-.499-.509-1.252-.672-1.81-.235-.802-.526-1.312-.956-2.018-.377-.618-.361-1.305-.737-1.954-.307-.53-.427-1.077-.643-1.66-.255-.69-.659-1.212-.866-1.9-.119-.396-.438-.769-.536-1.153-.023-.093.025-.653-.044-.86-.117-.352-.348-.727-.617-.993-.965-.956-.352.118-.174.082.215-.044-.635-2.21-.682-2.288-.115-.174-.24-.341-.375-.501.04.539.062.564.065.075-.019-.378-.111-.748-.197-1.113-.186-.782-.507-1.51-.832-2.243-.266-.6-.307-1.242-.49-1.884-.207-.725-.648-1.429-.87-2.085-.157-.464-.089-.767-.3-1.228-.136-.297-.319-.571-.472-.86-.357-.677-.346-1.174-.389-1.919-.134-2.303-3.735-2.318-3.6,0h0Z"/>
          <path class="cls-2" d="M71.935,157.036c1.119.583,2.4.804,3.477,1.444.587.348,1.038.727,1.679.997.581.244,1.168.343,1.724.614.631.308,1.214.458,1.765.861.508.372,1.162.621,1.747.842,1.121.423,2.104,1.189,3.192,1.718,1.189.578,2.387,1.048,3.561,1.671.626.332,1.131.842,1.792,1.101.619.242.92.446,1.455.876.821.66,2.426.93,2.975,1.522.58.626.898.999,1.693,1.385.637.309,1.245.73,1.853,1.104,1.979,1.217,3.789-1.895,1.817-3.108-.639-.393-1.272-.894-1.965-1.177l-.43-.181c.191.238.191.212,0-.079-.223-.237-.385-.475-.642-.684-1.029-.836-2.408-1.044-3.363-1.84-.577-.481-1.12-.775-1.791-1.097-.485-.233-.925-.57-1.43-.855-1.207-.681-2.47-1.149-3.707-1.745-1.116-.538-2.121-1.372-3.267-1.823-.558-.22-1.062-.354-1.558-.691-.635-.432-1.182-.62-1.879-.906-.61-.251-1.121-.466-1.756-.655-.63-.187-.949-.55-1.5-.884-1.137-.691-2.464-.911-3.625-1.516-2.052-1.07-3.874,2.036-1.817,3.108h0Z"/>
          <path class="cls-2" d="M73.568,149.278c1.041.095,2.077.201,3.118.283.995.078,1.957.274,2.942.347.932.069,1.806.422,2.755.503.926.079,1.79-.052,2.678.246,1.926.647,4.117.737,6.145.808.996.034,1.939.229,2.95.274.522.023.964.213,1.467.306.713.132,1.293-.122,1.975-.224h-.957c.498.175.882.425,1.428.467.494.038.994-.047,1.49-.011,1.134.082,2.284.303,3.432.399,2.309.192,2.296-3.409,0-3.6-1.316-.109-2.608-.425-3.928-.407-.551.007-.784-.109-1.306-.263-.785-.231-1.371.055-2.134.168h.957c-1.929-.462-3.894-.617-5.866-.749-1.008-.068-1.954-.13-2.963-.265-.972-.13-1.773-.456-2.739-.63-.875-.158-1.759-.024-2.636-.141-.454-.06-.846-.231-1.28-.354-.498-.141-.977-.075-1.475-.143-1.999-.274-4.028-.429-6.052-.613-2.306-.209-2.292,3.392,0,3.6h0Z"/>
          <path class="cls-2" d="M80.408,122.147c-.131.242-.195.536-.337.762-.193.306.402-.317-.252.215-.392.319-.691.829-.95,1.257-.274.455-.42.919-.734,1.343-.299.403-.6.803-.878,1.22-.585.879-1.263,1.732-1.797,2.633-.515.869-.93,1.793-1.415,2.678s-1.072,1.719-1.526,2.617c-.218.43-.289.954-.501,1.36-.24.459-.631.875-.886,1.335-.252.455-.431.975-.586,1.472-.162.52-.322.845-.567,1.331-.486.963-.701,2.133-1.122,3.142-.375.897.404,1.98,1.257,2.214,1.037.285,1.838-.356,2.214-1.257.363-.869.583-1.875,1.008-2.695.446-.86.597-1.826,1.073-2.663.278-.488.672-.907.903-1.416.194-.427.243-.872.465-1.287.475-.885,1.05-1.72,1.529-2.614.448-.836.813-1.746,1.341-2.537.554-.831,1.157-1.656,1.717-2.495.253-.379.525-.74.803-1.101.335-.435.473-.854.721-1.331s.612-.715.958-1.098.43-.828.669-1.269c1.105-2.037-2.002-3.856-3.108-1.817h0Z"/>
          <path class="cls-2" d="M44.887,135.078c.13.15.346.445.605.757.205.246.405.503.621.74.436.476.885.931,1.313,1.416.359.407.9.916,1.151,1.255.108.146.349.577.533.812.191.244.54.565.667.703.286.31.648.965.959,1.408.243.347.547.609.805.937-.133-.169.077.134.111.186.088.135.177.269.268.402.804,1.178,1.479,2.085,2.159,3.2.506.829,1.613,1.143,2.463.646.829-.485,1.154-1.63.646-2.463-.731-1.199-1.341-2.005-2.159-3.2-.419-.612-.892-1.157-1.343-1.74.138.178-.156-.288-.15-.278-.068-.11-.138-.218-.213-.324-.23-.325-.468-.647-.715-.959-.189-.24-.547-.565-.664-.706-.092-.111-.368-.596-.535-.81-.424-.545-.912-1.032-1.373-1.543-.434-.481-.864-.951-1.311-1.418-.576-.602-.749-.939-1.293-1.566-.638-.734-1.892-.653-2.546,0-.728.728-.639,1.809,0,2.546h0Z"/>
          <path class="cls-2" d="M33.085,159.346c.223-.038.535-.138.714-.144.436-.014.755.088,1.211.003.593-.11,1.137-.283,1.749-.308.656-.026,1.283-.146,1.919-.213.79-.083,1.614-.06,2.411-.126,1.571-.128,3.176-.08,4.729-.394.66-.134,1.32-.224,1.991-.305.683-.082,1.401.021,2.1.006,2.313-.049,2.321-3.65,0-3.6-.806.017-1.624-.105-2.421.014-.713.106-1.448.153-2.154.296-1.506.305-3.038.263-4.566.415-.805.08-1.61.042-2.413.101-.409.03-.792.198-1.19.234-.286.025-.595-.027-.888,0-.65.059-1.391.314-1.988.341-.433.02-.758-.084-1.211-.003-.321.057-.629.156-.95.211-.959.165-1.497,1.343-1.257,2.214.279,1.014,1.253,1.423,2.214,1.257h0Z"/>
          <path class="cls-2" d="M49.441,162.841c-1.471,1.465-2.998,2.872-4.499,4.306-.047.045-.176.222-.244.229.192-.139.208-.15.046-.034l-.111.078c-.306.221-.601.455-.882.708-.362.325-.678.665-1.012,1.015-.252.265.055.031.055-.012,0,.042-.242.165-.292.2-.376.263-.733.529-.974.929-.702,1.167.162,3.075,1.654,2.931.957-.092,1.816-.75,1.8-1.8v-.054c-.015-.941-.819-1.844-1.801-1.8-.963.043-1.815.791-1.8,1.8v.054c.601-.6,1.201-1.2,1.801-1.8l-.052.005,1.273.527-.047-.053.463.794-.014-.088v.957c-.089.589-.899.99-.437.674.081-.056.163-.11.243-.167.252-.18.503-.366.714-.594.285-.309.557-.601.872-.883.066-.059.135-.117.199-.179.307-.295-.203.124-.001-.016.272-.188.548-.386.797-.602.337-.293.648-.615.979-.914.645-.586,1.23-1.232,1.876-1.817.664-.602,1.304-1.215,1.94-1.847.668-.665.715-1.889,0-2.546-.72-.661-1.833-.71-2.546,0h0Z"/>
          <path class="cls-2" d="M57.754,164.96c-.087.976-.019,1.918-.109,2.891-.04.43-.036.852-.139,1.273-.131.536-.387,1.002-.43,1.563-.037.483.008.964-.07,1.445-.077.473-.274.93-.287,1.417-.015.595.1.873,0,1.454-.081.475-.135.952-.224,1.426-.091.485-.281.924-.389,1.401-.108.474-.056.964-.143,1.437-.173.948-.176,1.922-.383,2.861-.104.473-.282.927-.38,1.399-.111.537-.034,1.074-.078,1.614-.048.594-.156.317-.382.989-.2.596-.071,1.096-.045,1.703.101,2.308,3.701,2.32,3.6,0-.005-.125-.022-1.152-.103-.671-.063.374.186-.264.203-.3.226-.496.258-1.026.308-1.562.041-.437.013-.859.104-1.281.101-.47.268-.929.355-1.404.175-.95.208-1.912.382-2.861.104-.565.08-1.043.245-1.584.139-.458.216-.944.289-1.416.074-.478.153-.948.243-1.423.111-.587,0-1.044.02-1.608.015-.439.199-.965.249-1.431.045-.411-.006-.904.076-1.298.098-.469.318-.899.398-1.387.088-.532.124-1.06.167-1.597.081-1.027.03-2.026.121-3.051.206-2.307-3.395-2.293-3.6,0h0Z"/>
        </g>
        <g>
          <path class="cls-2" d="M187.451,74.839c-.582.087-1.186-.112-1.786.001-.706.133-1.26.5-1.898.797-1.335.622-2.949.702-4.347,1.249-1.154.452-2.221,1.266-3.299,1.883-1.212.694-2.533.808-3.655,1.725-.99.809-2.101,1.438-3.161,2.155-1.206.816-2.723,1.397-3.683,2.508-.809.936-1.655,1.826-2.729,2.475-1.335.807-2.188,1.713-3.181,2.917-.869,1.054-1.892,2.103-2.671,3.222-.324.466-.468,1.107-.824,1.532-.331.395-.886.591-1.274.947-.928.849-1.588,2.278-2.128,3.398-.308.639-.647,1.264-.883,1.935-.263.749-.438,1.086-.963,1.664-1.035,1.139-.844,2.103-1.199,3.473-.168.649-.542,1.275-.773,1.908-.283.775-.518,1.565-.768,2.35-.418,1.314-.805,2.633-1.147,3.968-.178.695-.409,1.37-.472,2.089-.071.802.15,1.55-.076,2.329-.194.67-.46,1.191-.504,1.907s.042,1.489.097,2.2c.057.747.312,1.447.381,2.182.082.869-.14,1.743-.054,2.622.071.726.263,1.439.251,2.172-.012.767-.159,1.471-.029,2.245.119.708.497,1.377.522,2.094.032.924-.15,1.735.018,2.68.119.668.223,1.375.419,2.024.175.581.496,1.102.655,1.69.379,1.4.645,2.922.843,4.358.1.726.107,1.439.314,2.149.2.684.507,1.332.705,2.017.203.703.285,1.415.568,2.096.308.741.785,1.379,1.166,2.08.64,1.177,1.153,2.435,1.808,3.599.762,1.354,1.987,2.538,2.975,3.732,1.907,2.305,3.809,4.732,6.104,6.677.98.83,2.084,1.508,3.088,2.316,1.207.971,2.495,1.723,3.907,2.338,1.108.482,1.821,1.519,2.959,2.038,1.439.656,2.756,1.542,4.25,2.072,1.265.448,2.552.875,3.668,1.629,1.127.762,2.65,1.393,3.992,1.638,1.269.232,2.826.237,4.01.744.619.265,1.163.601,1.84.707.733.114,1.366-.156,2.077-.183,1.352-.051,2.794.608,4.131.766.739.087,1.405-.051,2.137-.089.846-.043,1.71.105,2.555.17.711.055,1.428.236,2.144.215.688-.021,1.239-.295,1.878-.477.658-.188,1.272-.03,1.945-.032.851-.003,1.762-.156,2.603-.289.727-.115,1.362-.366,2.07-.542.7-.174,1.415-.153,2.123-.283.672-.123,1.229-.392,1.833-.709.72-.379,1.435-.434,2.225-.615,1.38-.316,2.806-.657,4.161-1.058,1.451-.429,2.851-1.354,4.147-2.114,1.27-.745,2.587-1.389,3.838-2.17,1.173-.733,2.44-1.141,3.497-2.063,1.044-.91,2.185-1.62,3.354-2.371,1.384-.889,2.395-2.048,3.663-3.069,1.037-.835,1.767-1.811,2.634-2.806.399-.458.73-1.039,1.211-1.419.548-.433,1.167-.648,1.676-1.158,2.005-2.008,3.176-4.827,4.668-7.208.381-.608.861-1.132,1.257-1.728.411-.619.621-1.294.903-1.976.248-.6.653-.983,1.035-1.506.473-.647.867-1.389,1.227-2.103.64-1.267,1.085-2.781,1.244-4.187.08-.708.314-1.031.67-1.648.38-.659.577-1.388.808-2.108.465-1.451.292-2.809.488-4.287s.118-2.987.454-4.43c.348-1.495-.036-2.811-.205-4.3-.179-1.567.054-3.218-.448-4.723-.946-2.837-1.348-5.847-2.279-8.697-.218-.666-.441-1.278-.844-1.853-.416-.593-.736-.871-.95-1.57-.213-.694-.338-1.351-.728-1.98-.409-.66-.967-1.072-1.235-1.813-.452-1.248-.783-2.752-1.533-3.858-.331-.489-.873-.76-1.207-1.219-.357-.49-.373-1.24-.635-1.804-.534-1.15-1.383-2.311-2.25-3.234-.426-.454-.509-.772-.704-1.369-.242-.737-.644-1.302-1.109-1.913-.859-1.128-1.799-2.135-2.895-3.038-.465-.383-.992-.67-1.423-1.091-.55-.537-.979-1.161-1.584-1.646-.496-.398-1.098-.643-1.588-1.038-.447-.36-.733-.877-1.144-1.273-1.116-1.076-2.497-1.931-3.833-2.699-1.196-.688-2.383-1.388-3.709-1.791-1.284-.391-2.36-1.305-3.601-1.856-1.316-.585-2.596-1.346-4.01-1.652-1.57-.339-3.022-1.077-4.633-1.193-.771-.055-.857-.116-1.478-.571-.517-.379-1.044-.604-1.667-.769-1.546-.411-3.088-.54-4.666-.738-.692-.087-1.393-.208-2.093-.171-.651.035-1.266.294-1.905.171-.646-.125-1.195-.436-1.884-.428-.742.009-1.332.387-2.027.551-.631.149-1.299-.089-1.946-.075-.756.016-1.408.267-2.124.466-1.437.4-2.888.179-4.34.319-2.286.22-2.308,3.822,0,3.6,1.398-.135,2.795-.048,4.205-.236.666-.089,1.259-.327,1.907-.473.754-.17,1.492.09,2.254.051.687-.036,1.213-.402,1.861-.512.505-.085.782.121,1.311.258.645.166,1.251.158,1.903.064.887-.127,1.565-.149,2.468-.038,1.255.154,2.467.285,3.7.567,1.278.292,2.041,1.32,3.396,1.496.667.087,1.271.057,1.915.261.685.217,1.326.547,2.027.716.635.154,1.267.193,1.875.453.719.307,1.418.674,2.135.992,1.139.505,2.102,1.267,3.219,1.779.517.237,1.064.343,1.591.54.737.276,1.443.722,2.127,1.112,1.128.644,2.239,1.287,3.224,2.144.457.397.783.885,1.207,1.31.497.498,1.106.82,1.688,1.2,1.05.684,1.711,1.81,2.748,2.541,1.054.742,2.021,1.658,2.808,2.684.8,1.043.902,2.314,1.767,3.329.76.891,1.689,1.801,2.096,2.928.439,1.213.656,2.024,1.629,2.938.927.872,1.156,2.405,1.592,3.584.413,1.118,1.393,1.852,1.727,2.959.208.69.32,1.366.712,1.989.321.511.789.903,1.05,1.449.613,1.281.732,2.795,1.123,4.147.395,1.368.575,2.795.988,4.149.222.728.492,1.244.495,2.016.003.667-.045,1.287.043,1.957.187,1.429.616,2.975.291,4.368-.302,1.294-.182,2.57-.323,3.88-.076.701-.245,1.413-.26,2.118-.018.841.031,1.471-.234,2.297-.378,1.179-1.207,2.15-1.462,3.361-.299,1.423-.406,2.779-1.105,4.098-.609,1.149-1.543,2.096-2.086,3.26-.241.518-.366,1.089-.641,1.59-.407.74-1.038,1.367-1.488,2.087-.679,1.086-1.332,2.185-1.991,3.282-.669,1.114-1.174,2.361-2.17,3.255-.33.296-.787.456-1.151.716-.575.411-.962.941-1.407,1.476-.818.983-1.58,2.056-2.569,2.869-1.115.915-2.06,1.993-3.272,2.772-1.193.767-2.476,1.481-3.538,2.426-.912.811-1.904,1.158-2.939,1.775-1.329.792-2.678,1.525-4.022,2.289-1.109.63-2.262,1.461-3.478,1.866-1.387.462-2.938.798-4.371,1.099-.611.128-1.215.19-1.803.409-.559.208-1.058.631-1.626.798-.673.198-1.439.11-2.128.257-.701.15-1.358.448-2.063.583-1.356.26-2.685.028-4.029.181-.588.067-1.076.33-1.637.463-.759.18-1.59-.071-2.369-.126-.638-.045-1.277-.138-1.915-.169-.653-.032-1.281.144-1.928.144-1.448,0-2.935-.614-4.383-.778-.632-.071-1.207.156-1.818.144-.54-.011-.87-.234-1.377-.456-1.286-.562-2.832-.605-4.208-.845-1.344-.235-2.466-.793-3.595-1.517-1.123-.72-2.559-1.218-3.821-1.647-1.277-.433-2.368-1.213-3.602-1.755-1.276-.561-2.062-1.667-3.342-2.218-2.225-.958-4.158-2.535-6.082-3.995-1.143-.867-2.009-2.046-2.982-3.08-1.002-1.065-1.921-2.124-2.841-3.261-.846-1.044-1.892-2.042-2.599-3.182-.729-1.176-1.238-2.535-1.902-3.755-.304-.558-.723-1.071-.961-1.66-.239-.592-.282-1.251-.471-1.862-.209-.676-.551-1.323-.709-2.014-.175-.763-.17-1.567-.32-2.34-.255-1.316-.435-2.664-.773-3.963-.33-1.271-.948-2.368-1.074-3.714-.068-.728.149-1.434.095-2.163-.058-.772-.439-1.433-.554-2.181-.099-.644.085-1.292.073-1.938-.015-.805-.247-1.586-.287-2.388-.036-.732.121-1.456.093-2.187-.023-.614-.225-1.189-.32-1.788-.107-.674-.19-1.468-.162-2.156.03-.742.436-1.375.568-2.106.107-.59.022-1.147.009-1.736-.016-.705.177-1.291.352-1.965.346-1.334.728-2.654,1.147-3.968s.891-2.589,1.384-3.877c.222-.578.299-1.12.366-1.736.07-.652.41-.821.824-1.314.834-.992,1.093-2.389,1.649-3.544.271-.563.582-1.1.895-1.641.413-.715.574-.904,1.23-1.36,1.02-.71,1.256-1.616,1.905-2.594.355-.535.883-.968,1.297-1.455.493-.58.921-1.209,1.417-1.787.391-.456.729-1.062,1.208-1.432.429-.332.972-.52,1.415-.845,1.086-.798,1.982-1.664,2.878-2.648.459-.505,1.002-.681,1.584-1.021.594-.347,1.142-.774,1.714-1.155,1.114-.741,2.222-1.44,3.279-2.259.802-.621,1.925-.705,2.835-1.184,1.112-.585,2.205-1.532,3.386-1.93,1.249-.421,2.607-.534,3.817-1.026.566-.23,1.116-.68,1.716-.755.625-.078,1.264.034,1.909-.062.969-.144,1.483-1.356,1.257-2.214-.272-1.033-1.257-1.4-2.214-1.257h0Z"/>
          <path class="cls-2" d="M210.339,171.616c1.181-.245,2.33-.592,3.518-.829s2.377-.416,3.559-.691c.63-.146,1.253-.269,1.835-.57.452-.234.795-.629,1.238-.864.385-.204.782-.173,1.216-.227.639-.079,1.177-.27,1.75-.566,1.046-.54,1.93-1.181,2.839-1.912.902-.725,2.204-1.076,3.229-1.648.987-.551,1.623-1.2,2.396-1.995.793-.815,1.802-1.483,2.804-2.005,1.064-.554,1.772-1.47,2.53-2.373.778-.926,1.523-1.912,2.208-2.91.608-.886,1.456-1.553,2.048-2.446.319-.481.482-1.031.739-1.543.289-.577.699-1.061,1.057-1.593.656-.974.884-2.134,1.512-3.116.656-1.025,1.151-2.081,1.588-3.223.86-2.249,1.31-4.584,1.634-6.963.153-1.121.262-2.224.227-3.355-.041-1.289.542-2.444.309-3.755-.198-1.116-.267-2.077-.283-3.221-.017-1.248.072-2.429.143-3.666.061-1.064-.136-2.227-.305-3.277-.194-1.212-.091-2.411-.29-3.612-.381-2.298-1.114-4.495-2.004-6.636-.902-2.17-2.201-4.162-3.343-6.212-1.156-2.075-2.823-3.864-4.494-5.544-.859-.864-1.716-1.753-2.647-2.54-.885-.747-1.764-1.351-2.586-2.174-.85-.851-1.909-1.38-2.898-2.041-.998-.667-1.871-1.389-2.82-2.108-.822-.623-1.794-.732-2.676-1.197-.432-.227-.781-.588-1.187-.854-.59-.386-1.256-.6-1.929-.789-2.363-.662-4.578-1.792-6.948-2.424-1.155-.308-2.509-.488-3.702-.467-.559.01-.998.076-1.538-.088-.561-.17-1.048-.38-1.638-.449-1.22-.144-2.468-.022-3.699-.126-1.261-.108-2.414.306-3.657.299-1.267-.006-2.442.174-3.695.319-1.299.15-2.583.181-3.883.398-2.296.384-4.232,1.443-6.364,2.27-1.029.399-1.986.982-3.033,1.322-1.194.387-2.392.854-3.515,1.421-2.081,1.049-4.213,2.261-5.914,3.873-.346.328-.581.773-.941,1.082-.338.29-.761.428-1.144.646-.994.565-2.052,1.429-2.818,2.279-.696.772-1.265,1.533-2.035,2.246-.892.825-1.824,1.801-2.474,2.833-.538.855-1.015,1.742-1.562,2.596-.615.96-1.55,1.638-2.076,2.665-1.045,2.043-1.646,4.398-2.861,6.335s-1.4,4.502-1.87,6.711c-.259,1.218-.133,2.373-.261,3.59-.136,1.289-.282,2.498-.203,3.802.069,1.142.432,2.251.344,3.395-.106,1.369.236,2.482.625,3.779.321,1.071.799,2.081.962,3.191.197,1.337.667,2.474,1.156,3.728.469,1.204.967,2.397,1.501,3.574.477,1.053,1.148,1.986,1.617,3.034.534,1.193,1.059,2.343,1.697,3.486.603,1.08.991,2.213,1.7,3.238.681.984,1.439,1.893,2.185,2.825.725.906,1.181,1.976,2.175,2.648.394.267.976.395,1.321.718.227.213.382.632.56.889.749,1.086,1.635,1.329,2.739,1.9.891.461,1.829,1.196,2.521,1.914.909.943,1.817,1.242,3.004,1.69.912.345,1.595,1.097,2.507,1.471,1.068.438,2.183.7,3.256,1.156,1.007.428,2.112.78,3.042,1.36,1.096.684,1.912,1.093,3.241,1.155,1.038.048,1.79.626,2.794.83,1.28.26,2.735.099,4.036.091,2.512-.014,5.029.081,7.536-.116,2.294-.181,2.314-3.782,0-3.6-2.359.186-4.725.106-7.089.11-1.152.002-2.435.161-3.57.012-1.021-.134-1.858-.802-2.927-.897-.413-.037-.878.045-1.274-.078-.441-.137-.835-.585-1.242-.809-.98-.539-2.099-.895-3.128-1.336-.95-.407-1.852-.802-2.852-1.063-.988-.258-1.671-1.04-2.592-1.457-.902-.409-1.619-.476-2.323-1.202-.794-.818-1.843-1.545-2.809-2.152-.719-.452-1.544-.501-2.019-1.209-.647-.963-1.226-1.569-2.257-2.122-.829-.444-1.107-1.215-1.681-1.94-.784-.99-1.605-1.926-2.301-2.985-.553-.841-.848-1.784-1.33-2.662-.629-1.146-1.191-2.272-1.715-3.47-.402-.92-1.013-1.708-1.43-2.621-.534-1.171-1.032-2.354-1.5-3.552-.379-.97-.83-1.907-.993-2.941-.186-1.185-.564-2.193-.92-3.333-.319-1.022-.718-1.987-.64-3.063.09-1.238-.243-2.365-.325-3.589-.07-1.039-.03-2.056.117-3.083.17-1.194,0-2.379.268-3.556.234-1.027.399-2.066.635-3.091.124-.541.205-1.121.379-1.648.169-.513.466-.894.736-1.36,1.097-1.895,1.534-4.183,2.669-6.069.465-.772,1.24-1.359,1.751-2.126.61-.914,1.126-1.866,1.699-2.796.511-.83,1.286-1.601,1.999-2.258.808-.744,1.415-1.577,2.157-2.373.647-.693,1.456-1.31,2.29-1.751.945-.5,1.539-1.093,2.25-1.87,1.426-1.557,3.563-2.631,5.428-3.57.986-.496,2.018-.822,3.054-1.181,1.045-.361,1.985-.957,3.02-1.345,2.017-.756,3.822-1.764,5.978-2.124,2.235-.373,4.574-.537,6.836-.585,1.172-.025,2.266-.401,3.441-.303,1.074.09,2.292-.093,3.336.09,1.094.192,1.932.654,3.098.608,1.141-.045,2.289.041,3.395.361,2.217.643,4.314,1.657,6.528,2.312,1.015.3,1.574.823,2.468,1.336.887.509,1.899.583,2.677,1.26,1.616,1.407,3.77,2.244,5.235,3.788.72.759,1.529,1.285,2.345,1.924.948.742,1.793,1.672,2.641,2.524,1.575,1.583,3.005,3.212,4.114,5.145,1.098,1.913,2.307,3.809,3.132,5.858.381.946.75,1.859.986,2.854.234.988.626,2.057.649,3.072.026,1.127.108,2.13.281,3.249.161,1.036.281,2.088.134,3.128-.146,1.028-.073,2.061-.058,3.096.017,1.222-.016,2.363.261,3.559.227.981-.294,1.986-.303,3.003-.009,1.16-.01,2.266-.169,3.422-.308,2.23-.778,4.437-1.621,6.531-.368.914-.862,1.639-1.344,2.485-.595,1.045-.856,2.17-1.566,3.16-.624.87-.914,1.957-1.549,2.79-.647.849-1.43,1.551-2.048,2.446-.597.865-1.249,1.7-1.929,2.499-.353.414-.686.96-1.125,1.29-.401.301-.933.443-1.352.725-.823.553-1.739,1.221-2.45,1.913-.344.334-.597.767-.965,1.076-.397.334-.934.544-1.386.797-.988.554-2.093.827-2.985,1.545-.782.63-1.567,1.329-2.522,1.706-.935.369-1.932.182-2.851.714-.421.244-.75.665-1.192.869-.471.217-1.055.256-1.555.375-1.106.263-2.232.422-3.349.638s-2.196.557-3.31.788c-2.267.471-1.308,3.941.957,3.471h0Z"/>
          <path class="cls-2" d="M202.51,118.015c-.68-.177-1.42-.419-2.131-.32-.452.063.139.075-.108.016-.138-.033-.276-.069-.415-.095-.479-.092-.904-.099-1.384-.034-1.273.171-2.599.498-3.645,1.278-1.15.858-2.086,2.116-2.334,3.559-.037.213-.09.516-.089.752.002.329.067-.388-.016.147-.061.392-.117.785-.158,1.179-.064.605-.125,1.171-.055,1.778.166,1.428.763,3.018,1.933,3.922.51.394,1.209.693,1.834.832.691.153,1.396.347,2.105.369,2.734.082,5.525-1.111,6.966-3.497.82-1.356,1.078-3.089,1.109-4.651.03-1.538.031-3.216-.921-4.499-.559-.754-1.584-1.212-2.463-.646-.746.481-1.246,1.654-.646,2.463.143.192.331.41.408.64-.073-.217-.012-.013-.035.04.006-.015-.046-.427-.013-.007.038.486.022.969.05,1.455.03.512.033,1.054-.044,1.563.034-.224-.031.106-.034.121-.031.13-.056.264-.082.395-.051.249-.096.5-.165.744-.013.045-.134.369-.052.18.075-.173-.046.077-.053.09-.114.197-.22.402-.355.587.159-.218-.017.01-.05.043-.082.083-.16.169-.242.251-.082.082-.173.159-.251.244l-.13.118c.116-.078.122-.081.019-.011-.193.134-.4.238-.611.339-.266.128.219-.075-.056.025-.109.04-.219.078-.33.111-.196.058-.395.106-.594.152-.114.026-.228.049-.341.074-.525.118.325-.01-.212.036-.204.017-.408.032-.613.038-.115.003-.234-.01-.348-.001-.266.019.226.088-.012-.004-.43-.166-.921-.196-1.365-.315.324.086-.251-.117-.334-.158.12.06.08.217-.019-.018.014.032.119.226.058.047-.063-.185-.209-.379-.3-.552-.019-.036-.171-.365-.098-.184.069.171-.073-.251-.083-.291-.029-.113-.052-.23-.071-.345.014.085.019.308.001-.054-.012-.241-.01-.471.014-.711.021-.207.049-.414.069-.622.004-.045.047-.413.019-.202-.028.209.043-.241.049-.282.052-.34.08-.682.121-1.023-.045.375.153-.445.033-.14.088-.223.222-.423.339-.63.026-.046.198-.275.015-.046.087-.109.186-.209.288-.304.061-.057.124-.114.189-.167-.259.211.165-.096.188-.109.096-.057.195-.106.295-.158-.226.116,0,0,.116-.042.479-.175.987-.199,1.467-.351.228-.072-.21-.058.02-.008.298.064-.425-.122.104.002.348.081.703.155,1.061.169.251.01.511-.034.761-.004-.119-.014-.238-.049.081.044.193.056.39.102.585.153.91.237,1.996-.3,2.214-1.257.214-.94-.282-1.96-1.257-2.214h0Z"/>
          <path class="cls-2" d="M204.085,131.657c.079.781-.07,1.779.607,2.365.194.304.211.232.05-.217-.038.17-.044.341-.021.511.016.543.19,1.054.351,1.567.237.756.552,1.379.919,2.064.34.634.303,1.336.61,1.979.101.212.427.881.279.269.085.352-.031.784.075,1.155.107.375.387.647.514.993.122.332.132.687.266,1.022.324.814.91,1.546,1.094,2.426.063.302-.02.682.081,1,.137.428.432.688.648,1.067.607,1.065.806,2.353,1.34,3.483.356.753.413,1.544.778,2.284.158.32.343.615.486.944.185.424.578.885.723,1.294-.143-.403.077.705.082.72.087.302.235.607.357.896.27.641.678,1.21.958,1.841.58,1.31,1.173,2.492,1.989,3.674,1.308,1.894,4.43.096,3.108-1.817-.136-.197-.427-.485-.529-.653-.186-.305-.223-.718-.402-1.036-.123-.219-.425-.473-.531-.655-.174-.3-.22-.724-.376-1.047-.259-.534-.616-1.025-.868-1.562-.305-.65-.25-1.373-.584-2.007-.352-.67-.739-1.291-1.058-1.991-.289-.636-.422-1.317-.705-1.983-.508-1.19-.831-2.413-1.33-3.615-.156-.376-.521-.712-.649-1.067.144.4-.043-.709-.048-.728-.217-.835-.647-1.736-1.03-2.511-.274-.556-.303-1.289-.693-1.797-.395-.514-.122.384-.098-.331.014-.425-.105-.857-.281-1.236-.515-1.114-.9-2.285-1.444-3.417-.39-.811-.312-1.479-.472-2.304-.073-.379-.212-.868-.527-1.134-.193-.305-.212-.232-.058.22.029-.223.024-.445-.015-.667-.231-2.283-3.833-2.307-3.6,0h0Z"/>
          <path class="cls-2" d="M208.248,127.913c1.251.522,2.641,1.003,3.714,1.782.569.413,1.293.562,1.95.793.482.169.891.413,1.343.661.589.323,1.214.491,1.812.764.488.223.938.573,1.427.807.428.205,1.366.429,1.654.624.52.352.769.802,1.417,1.068.272.111.549.236.827.331.111.038.977.404.42.041.24.156.414.455.664.626.34.232.734.293,1.083.483,1.001.544,2.015,1.103,3.049,1.642.617.322,1.133.663,1.685,1.075.523.39,1.135.522,1.666.849.585.361.996.875,1.648,1.137.727.292,1.124.552,1.714,1.079,1.722,1.54,4.277-.997,2.546-2.546-.617-.551-1.16-1.119-1.914-1.504-.316-.161-.779-.214-1.078-.38-.166-.092-.473-.431-.649-.564-.639-.485-1.175-.636-1.871-.961.445.208.059-.016-.15-.192-.351-.294-.729-.536-1.126-.762-.595-.338-1.181-.685-1.773-1.023-.566-.323-1.099-.42-1.621-.79-.3-.212-.647-.399-1.007-.49-.701-.179.183.324-.322-.226-.498-.543-1.192-.743-1.88-.915-.614-.153-.736-.597-1.346-.96-.52-.31-1.18-.473-1.731-.72-.534-.239-1.01-.554-1.517-.838-.589-.33-1.224-.452-1.812-.764-.63-.334-1.2-.712-1.881-.942-.647-.218-1.117-.362-1.665-.748-1.202-.847-2.971-1.347-4.32-1.909-.904-.377-1.97.407-2.214,1.257-.297,1.033.365,1.842,1.257,2.214h0Z"/>
          <path class="cls-2" d="M208.989,119.698c.869.259,1.808.617,2.741.513.792-.088,1.323.092,2.133.267.706.152,1.495.09,2.168.249.569.134.943.354,1.559.346.342-.004.654-.075,1.003-.051.698.048,1.381.287,2.108.371.656.076,1.298.254,1.956.361.707.115,1.511-.03,2.187.11.486.1.704.333,1.227.353.511.02,1.002-.207,1.498-.274h-.957c.486.119.965.271,1.442.42.644.201,1.118.098,1.772.112.846.018,1.851.381,2.798.377,1.008-.004,1.853.302,2.855.27.32-.01.831.25,1.388.293.575.045.919.073,1.478.221,2.242.593,3.198-2.879.957-3.471-.611-.162-1.144-.272-1.771-.369-.529-.082-1.057-.352-1.616-.367-.08-.002-.931.129-.735.147-.241-.023-.505-.225-.75-.282-.649-.151-1.315.01-1.971-.033-.504-.033-.972-.168-1.47-.278-.665-.148-1.161-.044-1.797-.055-.422-.007-1.016-.307-1.46-.418-.786-.196-1.376.068-2.137.171h.957c-.776-.261-1.258-.419-2.093-.416-.621.002-1.208-.039-1.813-.177-.689-.157-1.446-.133-2.109-.288-.763-.178-1.265-.418-2.107-.381-.207.009-.93.053-.933.053-.102-.019-.669-.29-.943-.337-.743-.128-1.47-.077-2.212-.259-.674-.166-1.4-.372-2.098-.359-.382.007-.723.116-1.102.071-.425-.051-.788-.24-1.194-.361-2.225-.662-3.176,2.811-.957,3.471h0Z"/>
          <path class="cls-2" d="M216.657,92.614c-.688.879-1.295,1.796-1.984,2.672-.644.819-1.001,1.743-1.628,2.574-.567.752-.931,1.698-1.574,2.352-.775.789-1.019,1.861-1.624,2.762-.576.857-1.135,1.835-1.52,2.786-.198.49-.541.915-.711,1.428-.041.123-.322,1.082-.118.662.209-.432-.567.6-.44.411-.322.478-.316.941-.497,1.436-.195.532-.488,1.059-.697,1.594-.39.994-.879,1.926-1.227,2.941-.754,2.196,2.722,3.139,3.471.957.33-.96.824-1.839,1.172-2.791.151-.415.346-.771.536-1.168.152-.317.25-.633.296-.982.083-.639-.168.199.06-.068.485-.567.61-.925.819-1.63.207-.699-.219.281.144-.321.18-.299.376-.545.496-.882.315-.889.787-1.758,1.323-2.557.481-.715.701-1.57,1.257-2.195.659-.74,1.008-1.639,1.583-2.436.307-.425.647-.828.922-1.276.229-.375.349-.802.587-1.163.32-.484.762-.874,1.09-1.353.277-.403.504-.82.807-1.208.599-.765.746-1.8,0-2.546-.623-.623-1.943-.77-2.546,0h0Z"/>
          <path class="cls-2" d="M180.726,105.848c.222.222.512.418.702.667-.224-.292.053.165.067.189.109.177.237.342.368.503.426.525.949.933,1.419,1.409.083.088.09.093.02.014l.11.16c.139.208.312.393.453.599.035.051.306.456.484.68.251.316.559.568.818.876-.115-.137.041.063.067.099.113.157.235.307.349.463.243.334.47.672.726.997.1.126.201.251.302.377.04.049.256.345.132.17.238.335.45.689.718,1.002.054.063.6.547.591.564-.042.088-.267-.558-.101-.064.064.192.148.407.245.582.215.386.532.683.826,1.004.22.24-.195-.298.132.172.092.132.192.259.283.391.201.292.37.604.56.904.519.821,1.603,1.149,2.463.646.819-.479,1.167-1.638.646-2.463-.388-.614-.769-1.212-1.209-1.791-.126-.165-.253-.324-.395-.475-.071-.068-.14-.137-.207-.208-.154-.172-.111-.079.129.281.086-.167-.338-.871-.439-1.037-.189-.309-.466-.595-.753-.817-.295-.228.075.171-.162-.188-.089-.134-.179-.268-.273-.398-.503-.699-.767-1.012-1.219-1.62-.445-.598-.903-1.145-1.41-1.687.142.152-.176-.243-.184-.254-.143-.206-.308-.395-.452-.6-.077-.094-.08-.101-.01-.022l-.11-.16c-.137-.206-.294-.409-.455-.598-.434-.51-1.058-.873-1.448-1.427.213.303-.053-.17-.066-.191-.109-.177-.237-.343-.369-.503-.241-.291-.535-.526-.802-.793-.688-.687-1.858-.688-2.546,0s-.69,1.857,0,2.546h0Z"/>
          <path class="cls-2" d="M168.941,130.054c1.354-.225,2.774-.259,4.16-.43,1.491-.183,3.004-.165,4.487-.39,1.433-.218,2.918-.043,4.327-.373.633-.148,1.277-.038,1.931-.081s1.262-.2,1.917-.234c2.305-.121,2.319-3.722,0-3.6-.734.039-1.483.222-2.198.249-.786.03-1.598-.122-2.372.106-.615.181-1.184.152-1.839.206-.81.066-1.594.11-2.404.207-.696.083-1.396.033-2.09.112-.799.09-1.601.167-2.397.277-.693.096-1.378.219-2.079.23-.84.014-1.577.113-2.4.25-.96.16-1.496,1.347-1.257,2.214.28,1.018,1.252,1.417,2.214,1.257h0Z"/>
          <path class="cls-2" d="M185.313,133.603c-.812.76-1.678,1.482-2.429,2.304-.756.828-1.669,1.48-2.462,2.269s-1.639,1.509-2.486,2.242c-.903.781-1.162,2.075-.274,2.995.471.487,1.237.637,1.875.45.822-.241,1.345-.966,1.366-1.813.023-.942-.844-1.843-1.8-1.8-.995.045-1.775.791-1.8,1.8v.043c.175-.424.35-.849.526-1.273l-.043.034.794-.463.355-.051,1.273.527-.035-.034.527,1.273.002-.087-.246.908c-.201.219-.243.275-.126.168.034-.029.067-.059.101-.088.084-.073.169-.146.254-.218.169-.146.336-.295.505-.44.323-.276.643-.553.966-.828.663-.565,1.22-1.242,1.904-1.788.669-.535,1.21-1.184,1.835-1.763.656-.607,1.312-1.212,1.964-1.822.689-.645.7-1.903,0-2.546-.738-.678-1.811-.688-2.546,0h0Z"/>
          <path class="cls-2" d="M193.878,135.254c-.145.544-.356,1.003-.338,1.577.003.091.076.844.128.53-.042.25-.228.489-.291.74-.116.468-.067.963-.153,1.434-.1.548-.16,1.037-.158,1.597.001.483.023.973-.009,1.453-.031.468-.217.794-.333,1.248-.126.494-.237,1.084-.24,1.587-.002.536-.157.71-.292,1.251-.217.87-.118,1.827-.264,2.715-.157.96-.106,1.919-.319,2.871s-.353,1.891-.611,2.824c-.276.998-.248,2.015-.499,3.004-.571,2.246,2.9,3.205,3.471.957.242-.954.221-1.91.456-2.849s.408-1.875.62-2.822c.229-1.019.276-1.995.37-3.027.043-.479.159-.948.199-1.429.037-.449-.026-1.013.087-1.445.106-.406.387-.75.413-1.236.024-.458-.056-.832.053-1.286.245-1.024.515-1.931.499-3.008-.014-.977.056-1.916.225-2.88.08-.456.404-.884.41-1.405.003-.269-.102-.537-.103-.806,0-.118.099-.446.151-.64.598-2.241-2.873-3.197-3.471-.957h0Z"/>
        </g>
        <path class="cls-2" d="M45.728,28.704c-.671.303-1.329.651-1.995.968-.552.263-.943.715-1.467.99-.688.361-1.319.505-1.98.98-.718.516-1.445,1.023-2.15,1.558-1.243.943-2.386,2.127-3.374,3.337-.442.542-.753,1.183-1.136,1.767-.412.628-.943,1.116-1.36,1.733-.474.703-.963,1.52-1.357,2.27-.259.493-.37,1.043-.646,1.525-.782,1.364-1.232,2.831-1.964,4.2-.685,1.281-.857,3.004-1.052,4.407-.105.758-.403,1.482-.516,2.247-.149.999-.124,1.985-.19,2.988-.039.596-.256,1.191-.23,1.795.03.7.454,1.386.673,2.036.456,1.35.936,2.699,2.089,3.632.477.385.9.405,1.437.632.695.294,1.298.775,2.027,1.031.64.224,1.311.256,1.981.345.951.126,1.929.393,2.886.288.683-.074,1.348-.294,2.022-.407.837-.14,1.705-.059,2.549-.196.596-.097,1.048-.38,1.611-.564.802-.263,1.693-.286,2.508-.539.729-.226,1.402-.545,2.035-.955.559-.362,1.14-.527,1.75-.791.788-.341,1.491-.821,2.257-1.193.383-.186.805-.299,1.177-.51.364-.207.677-.551,1.056-.727.742-.345,1.322-.512,2.002-1.012.685-.504,1.432-.939,2.143-1.405,1.62-1.062,3.419-1.819,5.036-2.88,1.351-.886,2.428-1.866,3.974-2.443,1.518-.566,2.764-1.391,4.184-2.131,1.456-.759.168-2.961-1.287-2.202-1.111.579-2.076,1.296-3.258,1.743-1.287.487-2.44.998-3.55,1.825-2.245,1.674-4.79,2.864-7.136,4.394-.556.363-1.129.688-1.66,1.089-.48.363-.902.46-1.438.694-.657.287-1.172.773-1.836,1.059-.76.327-1.44.771-2.182,1.132-.64.311-1.363.444-1.984.776-.552.295-.962.691-1.562.927-.661.259-1.369.407-2.063.548-.675.137-1.238.402-1.887.587-.625.178-1.289.136-1.934.168-.692.035-1.34.191-2.016.333-1.398.293-3.401.046-4.76-.448-.609-.222-1.09-.644-1.683-.885-.552-.224-.934-.294-1.305-.833-.362-.525-.534-1.162-.724-1.76-.195-.614-.561-1.233-.478-1.864.175-1.335.06-2.704.291-4.038.121-.697.405-1.344.5-2.043.13-.95.314-1.766.547-2.697.176-.704.419-1.098.711-1.741.306-.672.421-1.406.723-2.084.248-.555.613-.994.895-1.527.316-.598.459-1.221.832-1.798.422-.652.746-1.361,1.246-1.95.51-.602.951-1.179,1.365-1.858.818-1.342,1.889-2.575,3.093-3.603.646-.552,1.359-1.022,2.048-1.519.705-.508,1.261-.768,2.029-1.112.688-.309,1.179-.859,1.876-1.164.647-.284,1.251-.636,1.892-.925,1.493-.675.198-2.873-1.287-2.202h0Z"/>
        <path class="cls-2" d="M47.957,32.741c-2.008,1.516-3.905,3.16-5.701,4.927-.336.33-.579.722-.895,1.059-.31.33-.694.467-1.051.754-.831.668-1.332,1.783-2.015,2.604-.758.911-1.357,1.892-1.886,2.956-.571,1.146-1.134,2.418-1.42,3.661-.545,2.374-1.228,4.544-.91,7.017.261,2.032,1.187,4.659,3.631,4.751.949.036,1.926.215,2.862-.015,1.231-.302,2.495-.826,3.65-1.347.993-.448,2.087-.849,2.976-1.479.834-.591,1.736-.937,2.531-1.593.848-.699,1.98-1.246,2.939-1.811.565-.333,1.134-.752,1.723-1.031.474-.224,1.011-.272,1.488-.517,1.206-.62,2.287-1.317,3.541-1.864,1.395-.609,2.756-1.284,4.168-1.854.587-.237,1.034-.552,1.57-.864.613-.357,1.432-.537,2.106-.742.53-.162,1.056-.216,1.588-.35.607-.153,1.103-.539,1.669-.787,1.5-.657.203-2.855-1.287-2.202-.419.183-.777.458-1.222.568-.404.1-.808.123-1.213.242-1.016.299-2.177.579-3.066,1.171-.858.571-1.824.901-2.768,1.318-1.053.464-2.081.99-3.153,1.405-.952.368-1.789.86-2.654,1.397-.828.514-1.768.714-2.621,1.233-.886.539-1.757,1.119-2.649,1.643-.485.285-1.003.469-1.457.809-.368.276-.649.612-1.058.826-1.711.892-3.335,1.857-5.167,2.538-1.017.378-1.976.919-3.078.799-1.025-.112-1.714.161-2.187-.979-.834-2.013-.343-4.376.195-6.376.561-2.09,1.294-4.076,2.396-5.961.567-.969,1.434-2.035,2.166-2.894.302-.355.653-.473,1.029-.766.404-.314.609-.711.934-1.097,1.552-1.851,3.666-3.495,5.586-4.945,1.293-.977.024-3.192-1.287-2.202h0Z"/>
        <path class="cls-2" d="M67.571,45.157c1.492.931,2.036,2.776,2.637,4.329.351.908.606,1.874.908,2.801s.515,1.898.743,2.848c.382,1.595,2.841.92,2.459-.678-.25-1.043-.477-2.116-.84-3.127-.366-1.02-.628-2.063-1.031-3.069-.383-.957-.738-1.963-1.238-2.867-.541-.978-1.406-1.85-2.351-2.439-1.396-.871-2.678,1.334-1.287,2.202h0Z"/>
        <path class="cls-2" d="M73.978,56.152c1.77-.827,3.616-1.496,5.412-2.285s3.594-1.543,5.441-2.205c1.794-.643,3.544-1.388,5.325-2.066.933-.355,1.786-.768,2.734-1.075.937-.303,2.036-.838,2.749-1.529,1.18-1.145-.624-2.947-1.803-1.803-.677.657-1.717.846-2.575,1.125-.917.298-1.794.815-2.696,1.174-1.77.705-3.523,1.447-5.337,2.036-1.749.568-3.44,1.404-5.124,2.141-1.8.789-3.636,1.455-5.412,2.285-1.485.694-.192,2.893,1.287,2.202h0Z"/>
        <path class="cls-2" d="M69.743,44.643c2.465-.854,4.858-1.975,7.378-2.665,2.592-.71,5.126-1.574,7.724-2.266,1.169-.312,2.431-.511,3.565-.9.591-.203,1.1-.542,1.745-.582.843-.053,1.281.322,1.777,1.031,1.531,2.189,2.169,4.899,2.6,7.484.269,1.615,2.727.93,2.459-.678-.481-2.884-1.282-5.833-2.972-8.274-.769-1.111-1.935-2.225-3.371-2.224-1.421.001-2.765.745-4.119,1.03-1.43.302-2.799.907-4.225,1.217-1.463.318-2.921.791-4.33,1.305-.765.279-1.583.404-2.361.66-.692.228-1.351.536-2.047.75-1.528.469-2.987,1.129-4.499,1.653-1.541.534-.879,2.998.678,2.459h0Z"/>
        <path class="cls-2" d="M53.508,33.917c-1.93-2.841-4.766-5.205-7.748-6.895l.258,2.002c.735-.718,1.615-1.122,2.359-1.804.708-.649,1.586-.996,2.427-1.486,1.945-1.135,4.142-1.605,6.198-2.457,1.091-.452,2.178-.812,3.292-1.206,1.101-.389,2.133-.977,3.241-1.337,1.091-.355,2.085-.837,3.119-1.34.385-.187.822-.594,1.188-.397.245.131.522.855.669,1.092.428.69.799,1.957,1.516,2.409.263.458.443.294.542-.494-.198.104-.39.22-.576.345-.45.273-.867.501-1.348.708-.872.377-1.602.982-2.451,1.415-.52.265-.969.653-1.489.909-.46.226-.951.359-1.402.609-1.966,1.088-3.875,2.295-5.818,3.417-.993.573-2.048,1.133-2.985,1.792-.79.555-1.48,1.296-2.239,1.902-1.282,1.024.533,2.818,1.803,1.803.69-.551,1.366-1.249,2.093-1.733.839-.558,1.736-1.066,2.615-1.562,1.827-1.031,3.651-2.095,5.446-3.188.871-.53,1.807-.909,2.686-1.441.763-.461,1.534-.889,2.292-1.356,1.119-.689,3.535-1.195,3.619-2.83.04-.791-.427-1.394-.878-1.98-.602-.782-1.038-1.701-1.557-2.548-.855-1.396-1.955-2.431-3.675-1.742-.861.345-1.693.824-2.528,1.231-.996.484-2.069.811-3.09,1.262-.958.424-1.933.759-2.934,1.063-.969.294-1.849.773-2.794,1.13-2.208.835-4.319,1.521-6.394,2.684-.856.479-1.53.726-2.275,1.401-.776.703-1.7,1.168-2.475,1.926-.582.569-.451,1.6.258,2.002,2.568,1.455,5.169,3.53,6.833,5.98.917,1.35,3.127.076,2.202-1.287h0Z"/>
        <path class="cls-2" d="M70.593,20.494c1.029-.653,2.029-1.487,2.973-2.262.905-.742,1.457-1.73,2.295-2.503,1.766-1.63,3.106-3.65,4.922-5.229,1.79-1.557,3.453-3.223,5.473-4.484,2.06-1.285,4.083-2.572,6.351-3.464,1.51-.594.852-3.061-.678-2.459-2.331.917-4.407,2.143-6.527,3.461-2.074,1.289-3.869,2.83-5.674,4.462-.896.81-1.701,1.601-2.516,2.485-.838.909-1.63,1.853-2.477,2.752-1.708,1.815-3.285,3.679-5.428,5.039-1.382.877-.104,3.084,1.287,2.202h0Z"/>
        <path class="cls-2" d="M70.682,21.379c.638-.508,1.267-.772,1.934-1.201.573-.369.911-.903,1.515-1.237,1.148-.633,2.082-1.623,3.23-2.197.654-.328,1.005-.743,1.558-1.186.648-.52,1.517-.902,2.224-1.362,1.396-.91,2.863-1.708,4.293-2.554s2.95-1.547,4.379-2.407c1.301-.782,2.818-1.131,4.194-1.788,1.531-.731,3.147-1.305,4.8-1.679.407-.092.772-.14,1.155-.307.307-.134.565-.408.869-.521.752-.28,1.786-.293,2.573-.438,1.612-.298.929-2.756-.678-2.459-.836.154-1.765.194-2.576.435-.73.217-1.263.651-2.021.83-1.653.391-3.274.944-4.823,1.652-.764.349-1.481.757-2.285.992-.738.215-1.441.485-2.12.86-.758.418-1.531.835-2.282,1.265-.815.467-1.672.881-2.472,1.363-1.486.893-3.026,1.708-4.473,2.675-.703.47-1.501.842-2.178,1.332-.576.416-.948.813-1.575,1.162-.616.342-1.051.786-1.603,1.212-.608.469-1.274.744-1.913,1.144-.572.359-.95.89-1.521,1.233-.73.438-1.326.836-2.007,1.379-1.283,1.022.532,2.816,1.803,1.803h0Z"/>
        <path class="cls-2" d="M72.869,20.618c1.613-.323,3.213-.654,4.817-1.029,1.655-.388,3.273-.888,4.921-1.281,3.271-.779,6.283-2.218,9.34-3.574,1.497-.664.201-2.862-1.287-2.202-2.963,1.314-5.879,2.647-9.052,3.388-.801.187-1.562.499-2.359.703-.743.19-1.495.331-2.241.506-1.604.376-3.203.706-4.817,1.029s-.927,2.78.678,2.459h0Z"/>
        <path class="cls-2" d="M96.044,41.727c2.113-.903,4.304-1.883,6.51-2.522,1.9-.55,3.708-1.412,5.617-1.936,4.121-1.131,9.15-1.82,13.349-.814,1.595.382,2.276-2.076.678-2.459-4.587-1.099-9.724-.367-14.264.688-2.217.516-4.314,1.554-6.494,2.197-2.274.671-4.5,1.711-6.682,2.643-1.504.643-.207,2.84,1.287,2.202h0Z"/>
        <path class="cls-2" d="M95.132,41.629c4.583.136,9.189-.094,13.779.244,4.491.331,8.845,1.217,13.297,1.9,1.605.246,2.297-2.21.678-2.459-4.533-.695-8.959-1.695-13.539-1.958-2.327-.134-4.663-.22-6.993-.299-2.412-.082-4.819.093-7.222.022-1.641-.049-1.64,2.501,0,2.55h0Z"/>
        <path class="cls-2" d="M96.196,40.353c3.49-2.292,7.322-4.118,11.091-5.904.973-.461,2.066-.62,3.034-1.097.813-.4,1.67-.609,2.509-.957,1.066-.442,2.254-.759,3.359-1.111s2.197-.633,3.327-.866c1.606-.33.926-2.789-.678-2.459-1.131.233-2.224.52-3.327.866-1.085.34-2.209.666-3.269,1.065-.981.368-1.971.665-2.921,1.106-.976.453-2.053.657-3.03,1.109-3.877,1.793-7.808,3.699-11.381,6.046-1.366.897-.09,3.106,1.287,2.202h0Z"/>
        <path class="cls-2" d="M34.964,66.641c.22,2.394.297,4.785.709,7.145.43,2.465.61,4.964,1.07,7.426.446,2.386.984,4.751,1.525,7.12.56,2.452.997,4.891,1.786,7.282.512,1.551,2.975.887,2.459-.678-1.495-4.532-2.173-9.322-3.224-13.969-.518-2.29-.652-4.671-1.012-6.988-.379-2.438-.536-4.875-.762-7.338-.149-1.621-2.7-1.636-2.55,0h0Z"/>
        <path class="cls-2" d="M41.137,65.793c.062,2.508.623,4.969.841,7.453.106,1.212.341,2.411.519,3.614.182,1.226.2,2.523.446,3.729.234,1.144.51,2.304.779,3.447.287,1.218.443,2.466.764,3.672.172.647.18,1.315.343,1.959.109.433.342.822.468,1.25.373,1.269.562,2.585.943,3.857.47,1.568,2.932.9,2.459-.678-.341-1.136-.586-2.27-.849-3.426-.121-.533-.357-1.001-.51-1.521-.159-.542-.151-1.139-.279-1.693-.544-2.36-.903-4.788-1.541-7.118-.299-1.094-.304-2.37-.47-3.501-.175-1.191-.429-2.391-.522-3.591-.193-2.489-.779-4.949-.841-7.453-.041-1.638-2.591-1.644-2.55,0h0Z"/>
        <path class="cls-2" d="M122.715,126.574c-.663-1.566-1.142-3.143-2.159-4.544-.491-.677-.779-1.158-1.047-1.943-.328-.964-.904-1.654-1.533-2.436-.496-.616-.995-1.093-1.563-1.632-.571-.542-.889-1.281-1.314-1.939-.385-.596-.68-1.253-1.115-1.815-.581-.75-1.311-.888-2.001-1.435-.476-.377-.681-1.112-1.092-1.586-.507-.587-1.171-.873-1.752-1.354-.536-.443-.762-1.109-1.238-1.622-.66-.711-1.558-1.126-2.306-1.726-1.223-.982-2.347-1.943-3.79-2.61-.624-.289-1.397-.268-1.931-.665-.773-.575-1.2-1.247-2.166-1.592-1.481-.53-2.938-.94-4.342-1.673-1.593-.832-3.306-1.763-5.005-2.349-.756-.261-1.586-.49-2.375-.617-.749-.12-1.476.032-2.209-.131-1.662-.371-3.318-.833-4.871-1.493-1.499-.637-3.428-.463-5.04-.591-.775-.061-1.637.077-2.395-.059s-1.402-.542-2.2-.567c-.793-.025-1.564.326-2.335.176-.803-.156-1.446-.455-2.294-.393-.853.062-1.669.324-2.528.393-.404.033-.86.15-1.266.106-.436-.048-.851-.243-1.284-.321-1.642-.297-3.453.159-5.072.425-1.774.291-3.538.699-5.332.782-.872.04-1.617.183-2.411.549-.776.357-1.252.344-2.1.417-.826.071-1.762.218-2.567.413-.979.237-1.49.868-2.345,1.287-.648.318-1.458.331-2.137.604-.724.291-1.391.693-2.093,1.029-1.641.787-3.303,1.498-4.845,2.471-.71.448-1.452.825-2.17,1.257s-1.323,1.014-2.022,1.472c-.593.389-1.274.598-1.856,1.004-.714.498-1.116,1.246-1.768,1.797-.655.553-1.424.914-2.046,1.528-.596.589-1.098,1.214-1.753,1.743-.666.538-1.249,1.022-1.656,1.792-.154.291-.223.756-.452.999-.2.212-.612.331-.858.49-1.312.849-2.251,2.451-3.086,3.74-.374.577-.705,1.117-.954,1.757-.318.815-.704,1.164-1.261,1.827-.537.64-.886,1.389-1.254,2.133-.363.734-.514,1.714-.928,2.39-.366.598-.996.981-1.335,1.624-.424.805-.328,1.694-.551,2.543-.401,1.521-1.307,2.685-1.905,4.109-.347.828-.711,1.572-.795,2.48-.092.98-.121,1.959-.278,2.935-.134.831-.404,1.779-.737,2.552-.391.908-.892,1.559-.911,2.606-.008.426.126.862.09,1.287-.045.528-.286,1.033-.411,1.544-.195.801-.321,1.634-.442,2.45-.141.948-.083,1.899-.356,2.819-.316,1.066-.409,1.853-.301,2.961.079.814.124,1.832-.052,2.641-.199.915-.657,1.542-.612,2.532.044.972.241,1.86.225,2.848-.015.941.03,1.885.007,2.825-.024.999-.24,1.913-.024,2.912.085.394.286.785.339,1.183.076.56-.099,1.102-.097,1.661.003,1.063.497,1.947.758,2.948.246.942.414,1.935.536,2.897.139,1.09.376,1.865,1.023,2.754.541.743.743,1.577,1.065,2.435.808,2.149,4.289,1.218,3.471-.957-.301-.802-.505-1.667-.881-2.437-.311-.637-.896-1.115-1.078-1.794-.184-.686-.183-1.473-.332-2.181-.21-.998-.444-1.925-.754-2.893-.281-.877-.041-1.614-.098-2.51-.046-.72-.407-1.361-.48-2.061-.081-.765.145-1.585.142-2.359-.004-.941-.011-1.882.011-2.823.017-.726-.01-1.389-.136-2.103-.142-.804.177-1.144.387-1.917.213-.781.167-1.629.201-2.431.034-.786-.202-1.62-.106-2.388.104-.833.509-1.589.578-2.455.064-.808.106-1.574.246-2.374.121-.692.277-1.349.466-2.024.12-.428.231-.839.271-1.284.048-.528-.178-1.205-.056-1.703.156-.634.656-1.231.869-1.869s.446-1.329.597-1.986c.408-1.777.216-3.6.932-5.285.255-.601.549-1.04.903-1.589.442-.687.653-1.452.917-2.219.266-.774.297-1.556.522-2.317.186-.63.746-.948,1.115-1.516.867-1.332.978-3.048,2.02-4.31.4-.484.898-.861,1.232-1.409.445-.732.629-1.557,1.088-2.285.708-1.122,1.42-2.427,2.574-3.115.642-.383,1.209-.812,1.596-1.469.186-.316.266-.687.452-.999.278-.467.641-.694,1.066-1.037.554-.447,1.01-.944,1.495-1.463.585-.625,1.264-1.005,1.934-1.524.601-.466.969-1.119,1.54-1.594.509-.425,1.195-.593,1.751-.954.701-.455,1.302-1.039,2.022-1.472.657-.396,1.344-.731,1.993-1.143,1.48-.94,3.052-1.676,4.641-2.412.684-.317,1.346-.743,2.052-1.002.737-.27,1.525-.305,2.242-.65.648-.312,1.114-.879,1.802-1.078.78-.226,1.666-.255,2.47-.303.883-.052,1.61-.189,2.414-.571.745-.353,1.266-.333,2.088-.385,1.679-.106,3.365-.578,5.022-.846,1.373-.222,2.911-.637,4.283-.305,1.88.456,3.517-.015,5.384-.197.598-.058,1.045.2,1.625.329.925.206,1.683-.126,2.582-.127.668,0,1.285.369,1.949.485.855.149,1.724.036,2.586.086,1.491.087,3.299-.013,4.628.637,1.442.706,3.2.956,4.749,1.359.809.211,1.519.133,2.329.189.598.041,1.283.254,1.855.439,1.674.54,3.359,1.481,4.91,2.313.765.41,1.549.694,2.361.993.707.26,1.721.43,2.362.798.606.347.967,1.077,1.596,1.444.764.445,1.656.464,2.431.861.911.468,1.612,1.018,2.384,1.676.626.533,1.523.92,2.09,1.501.582.597.86,1.376,1.524,1.93.649.541,1.329.786,1.773,1.522.403.668.793,1.297,1.462,1.736.701.46,1.127.462,1.543,1.207.844,1.512,1.722,2.856,2.982,4.039.578.542,1.279,1.3,1.614,2.022.337.726.433,1.442.895,2.133.56.837,1.11,1.575,1.564,2.484.442.887.724,1.817,1.11,2.729.382.902,1.696,1.082,2.463.646.933-.531,1.023-1.573.646-2.463h0Z"/>
        <path class="cls-2" d="M118.966,126.281c-.139.232-.292.455-.457.669l.281-.364c-.363.466-.781.884-1.248,1.246l.364-.281c-.137.105-.276.205-.42.3-.21.113-.378.268-.505.464-.159.174-.266.378-.322.612-.075.239-.086.479-.032.718.011.24.082.463.214.669.248.384.617.723,1.076.827s.983.086,1.387-.181c1.123-.745,2.074-1.703,2.77-2.862.132-.207.203-.43.214-.669.054-.239.043-.479-.032-.718-.056-.234-.163-.438-.322-.612-.127-.196-.295-.35-.505-.464-.418-.221-.924-.331-1.387-.181-.45.146-.828.416-1.076.827h0Z"/>
        <path class="cls-2" d="M6.662,183.148c1.785-.32,3.548-.823,5.225-1.511.452-.185.819-.388,1.076-.827.226-.386.321-.954.181-1.387-.141-.436-.411-.856-.827-1.076-.398-.211-.95-.361-1.387-.181-1.678.688-3.44,1.191-5.225,1.511-.421.075-.868.471-1.076.827-.226.386-.321.954-.181,1.387.141.436.411.856.827,1.076.45.238.887.271,1.387.181h0Z"/>
        <path class="cls-2" d="M255.604,98.379c-.19-.637-.144-1.314-.335-1.954-.218-.726-.679-1.257-1.171-1.811-.428-.482-.38-.832-.535-1.465-.21-.858-.643-1.468-1.179-2.157-1.854-2.382-3.221-5.235-5.556-7.179-.915-.762-1.382-1.92-2.426-2.549-.516-.311-1.091-.444-1.58-.798-.622-.45-1.269-.999-1.781-1.575-.474-.533-.861-1.046-1.487-1.422-.555-.333-1.24-.45-1.768-.823-.485-.342-.827-.857-1.329-1.193-.658-.44-1.34-.573-2.085-.798-1.247-.376-2.301-.909-3.365-1.63-1.283-.869-2.914-1.37-4.398-1.75-1.449-.371-2.808-.803-4.279-1.08-1.517-.286-2.962-.901-4.472-1.206-.716-.145-1.441-.098-2.157-.198-.837-.117-1.627-.437-2.475-.509-.647-.055-1.348.134-1.978-.01-.759-.173-1.363-.618-2.177-.684-.682-.055-1.374.104-2.051.025-.725-.084-1.408-.374-2.146-.425-.691-.047-1.423.003-2.115.042-.852.048-1.682.392-2.503.181-.702-.18-1.296-.39-2.035-.324-.618.055-1.263.51-1.855.499-.501-.01-1.087-.372-1.624-.4-.886-.045-1.617.304-2.468.421-.668.092-1.355-.024-2.029.034-.775.067-1.572.197-2.336.344-.742.143-1.396.584-2.132.707-.844.142-1.658-.067-2.503.23-.552.194-1.028.707-1.569.858s-1.22-.044-1.788.077c-.683.146-1.202.466-1.749.88-.689.522-1.252.427-2.069.628-1.446.354-2.95,1.158-4.274,1.836-.596.305-1.089.669-1.578,1.133-.551.524-1.083.427-1.8.654-.61.192-1.135.552-1.568,1.015-.32.342-.53.792-.901.988-.296.156-.766.146-1.091.261-.416.147-.725.346-1.08.595-.661.464-1.376,1.001-1.941,1.577-.42.43-.698.973-1.13,1.392-.482.466-1.101.903-1.633,1.311-1.095.84-2.387,1.593-3.349,2.588-.975,1.008-1.375,2.477-2.358,3.524-.414.441-.972.703-1.403,1.126-.573.562-1.101,1.302-1.57,1.949-.798,1.101-1.464,2.333-1.891,3.622-.485,1.464-1.471,2.837-2.186,4.208-.376.721-.932,1.317-1.292,2.043-.394.796-.527,1.686-.824,2.517-.292.816-.731,1.587-.926,2.436-.207.901-.279,1.634-.698,2.483-.779,1.58-.636,3.269-1.205,4.917-.243.703-.744,1.238-1.011,1.94-.283.745-.359,1.585-.49,2.369-.534,3.2-1.265,6.753-.827,9.991.211,1.558-.473,2.874.331,4.388.817,1.538.663,3.235,1.021,4.921.481,2.265,3.952,1.307,3.471-.957-.282-1.329-.214-2.75-.547-4.076-.154-.614-.702-1.125-.837-1.705-.08-.341.276-1.312.263-1.833-.017-.682-.214-1.35-.238-2.033s.055-1.382.108-2.064c.107-1.353.315-2.687.505-4.029.174-1.227.157-2.777.705-3.893.289-.59.683-1.021.904-1.664.26-.755.502-1.613.639-2.397.125-.714.041-1.381.315-2.058.25-.619.628-1.168.808-1.822.195-.712.199-1.44.447-2.143.265-.752.629-1.466.873-2.226.212-.661.305-1.289.688-1.874.36-.551.709-1.023,1.019-1.609.726-1.371,1.681-2.717,2.227-4.168.442-1.173.873-2.243,1.621-3.28.34-.471.709-1.014,1.14-1.407.564-.516,1.176-.852,1.66-1.457.438-.548.893-1.123,1.296-1.698.318-.453.47-1.069.805-1.495.348-.442.973-.735,1.402-1.084.637-.518,1.308-.987,1.947-1.504.487-.394.992-.774,1.47-1.18.492-.417.783-.954,1.214-1.42.382-.415.858-.814,1.325-1.136.632-.435,1.375-.423,2.062-.757,1.023-.498,1.321-1.667,2.403-1.873.644-.123,1.216-.284,1.772-.657.563-.377.973-.906,1.559-1.246,1.045-.606,2.417-1.297,3.603-1.566.719-.164,1.424-.116,2.11-.443.557-.266,1.021-.863,1.587-1.02.589-.163,1.287.058,1.91-.122.627-.181,1.096-.654,1.685-.872.574-.212,1.232-.058,1.846-.136.812-.102,1.486-.495,2.266-.702,1.306-.347,2.561-.225,3.882-.331.685-.055,1.447-.462,2.12-.446.689.016,1.317.422,2.039.404.669-.017,1.221-.377,1.857-.454.517-.063.94.205,1.462.32,1.344.298,2.847-.207,4.217-.242,1.409-.037,2.762.415,4.198.388.71-.013,1.077.199,1.722.435.83.304,1.571.258,2.434.247.711-.01,1.31.184,2.004.329.718.15,1.431.165,2.156.244,1.346.146,2.695.691,4.007,1.036,1.369.36,2.728.545,4.086.977,1.425.454,2.952.692,4.252,1.483.58.353,1.042.829,1.669,1.117.702.323,1.453.568,2.176.841.586.221,1.289.278,1.807.626.627.421,1.039,1.037,1.733,1.409.543.291,1.176.397,1.637.817.505.459.874,1.014,1.406,1.457.619.515,1.222,1.163,1.927,1.566.616.352,1.167.448,1.645.993.413.471.721,1.013,1.19,1.442.562.513,1.138.831,1.564,1.468.9,1.346,1.933,2.588,2.791,3.965.416.667,1.002,1.24,1.4,1.906.363.608.318,1.326.578,1.986.31.787,1.039,1.196,1.386,1.904.267.544.153,1.315.331,1.909.662,2.214,4.137,1.271,3.471-.957h0Z"/>
        <path class="cls-2" d="M252.812,97.489c-.318.375-.674.712-1.062,1.013l.364-.281c-.379.29-.784.541-1.211.753-.21.113-.378.268-.505.464-.159.174-.266.378-.322.612-.075.239-.086.479-.032.718.011.24.082.463.214.669.248.384.617.723,1.076.827l.479.064c.325-.001.628-.083.908-.246.577-.286,1.084-.652,1.591-1.046.382-.298.734-.631,1.047-1.001.176-.163.3-.356.372-.579.113-.215.164-.446.155-.694.009-.248-.042-.479-.155-.694-.073-.223-.197-.416-.372-.579-.343-.315-.793-.549-1.273-.527-.454.02-.967.167-1.273.527h0Z"/>
        <path class="cls-2" d="M143.247,138.637c1.029-.106,2.062-.225,3.077-.427.859-.171,1.704-.4,2.543-.65.902-.268,1.561-1.276,1.257-2.214-.295-.913-1.248-1.545-2.214-1.257-1.262.375-2.533.684-3.838.862l.479-.064c-.434.057-.868.106-1.303.15-.49.05-.913.167-1.273.527-.312.312-.547.824-.527,1.273.021.466.174.948.527,1.273.331.304.806.575,1.273.527h0Z"/>
        <path class="cls-2" d="M144.552,46.253c-1.046-.09-2.04-.243-3.075-.43-1.148-.207-2.414-.658-3.578-.679-.403-.007-.828.208-1.197.206-.312-.002-.687-.211-1.031-.266-.946-.153-1.993.158-2.952.196-1.084.043-1.983.237-3.015.475-.932.215-1.809.134-2.755.489-.963.362-1.833.925-2.784,1.3-.916.361-1.545.493-2.311,1.194-.658.602-1.434,1.016-2.084,1.662-.656.652-1.41,1.434-2.18,1.942-.36.238-.753.391-1.105.651-.321.237-.624.659-.973.828-.325.158-.748.186-1.089.368-.5.268-.971.644-1.431.981-.82.6-1.731,1.11-2.518,1.743-.736.593-1.239,1.026-2.14,1.339-.886.308-1.369.788-2.056,1.385-.788.685-1.69,1.219-2.451,1.936-1.71,1.611-2.442,3.424-2.6,5.743-.145,2.13.301,4.038,1.939,5.509.694.623,1.439,1.108,2.314,1.434.929.346,1.878.858,2.883.894.946.034,1.808-.298,2.713-.337.4-.017.801.12,1.209.105.585-.022,1.216-.137,1.793-.24,1.083-.193,2.174-.422,3.249-.66.512-.114.983-.3,1.481-.45.574-.173,1.158-.177,1.744-.31.875-.198,1.648-.702,2.492-.923.368-.096.792-.04,1.17-.123.623-.138,1.225-.412,1.84-.591,2.036-.593,4.108-1.094,6.166-1.593,1-.243,1.921-.612,2.877-.984.474-.185.944-.393,1.421-.569.518-.191.977-.163,1.516-.305,1.034-.272,2.155-.987,3.086-1.515.995-.565,2.016-.705,2.949-1.423,1.68-1.293,3.153-2.774,4.361-4.521.614-.888.9-1.944,1.481-2.832.693-1.059.766-2.087,1.013-3.308.219-1.083-.133-1.981-.16-3.036-.019-.733-.258-1.256-.492-1.934-.164-.478-.186-.975-.37-1.447-.833-2.135-4.316-1.206-3.471.957.129.331.138.628.218.971.094.402.328.748.432,1.141.123.465.031.934.087,1.411.037.313.272.701.285.98.018.393-.251.909-.293,1.319-.034.342-.026.56-.144.848-.174.425-.515.831-.707,1.274-.191.44-.396.885-.637,1.3-.831,1.431-2.018,2.474-3.211,3.579-.62.574-1.055.605-1.806.87-.93.33-1.813.974-2.695,1.428-.292.151-.583.369-.898.46-.357.102-.769.046-1.136.15-.948.268-1.893.761-2.811,1.121-1.743.684-3.64,1.035-5.453,1.512-1.756.462-3.482.992-5.247,1.33-.696.134-1.304.505-1.975.722-.925.299-1.88.33-2.795.653-.908.321-1.845.49-2.792.664-.902.166-1.814.465-2.737.476-.858.01-1.527-.051-2.379.123-.951.195-1.395-.003-2.264-.322-1.69-.621-2.695-1.275-2.661-3.196.015-.835.042-1.815.461-2.561.426-.759,1.205-1.377,1.893-1.88.684-.5,1.301-1.157,1.992-1.628.495-.337,1.273-.521,1.898-.863.76-.416,1.296-1.03,1.998-1.496.713-.472,1.397-.952,2.088-1.457.34-.249.686-.528,1.063-.706.341-.161.723-.207,1.061-.396.716-.401,1.265-1.007,1.987-1.41,1.46-.815,2.414-2.339,3.807-3.214.399-.25.788-.465,1.132-.796.114-.109.209-.241.317-.356.308-.327-.45.11-.002.001,1.017-.246,1.864-.732,2.808-1.178.433-.204.9-.452,1.373-.552.381-.081.778-.018,1.172-.056.527-.05.945-.281,1.443-.403.451-.111.957-.082,1.419-.1.769-.03,1.8-.299,2.495-.208.52.068.934.307,1.482.294.398-.01.781-.198,1.168-.203.951-.013,2.147.444,3.098.617,1.208.219,2.371.368,3.591.473,2.308.198,2.295-3.403,0-3.6h0Z"/>
        <path class="cls-2" d="M124.998,65.573c1.323-.53,2.681-.888,4.073-1.195.694-.153,1.388-.272,2.087-.4.654-.12,1.285-.335,1.941-.442.761-.124,1.374-.364,2.088-.648.661-.263,1.338-.453,1.981-.769.705-.346,1.315-.782,1.927-1.271.481-.384,1.007-.73,1.445-1.165,1.647-1.634-.898-4.179-2.546-2.546-3.635,3.604-9.402,3.139-13.954,4.963-.902.361-1.536,1.201-1.257,2.214.235.857,1.307,1.621,2.214,1.257h0Z"/>
        <path class="cls-2" d="M130.436,68.681c.566,2.523,1.143,5.042,1.756,7.554.223.915,1.308,1.55,2.214,1.257.95-.308,1.497-1.234,1.257-2.214-.613-2.512-1.19-5.031-1.756-7.554-.206-.92-1.32-1.547-2.214-1.257-.965.312-1.478,1.229-1.257,2.214h0Z"/>
        <path class="cls-2" d="M137.312,66.777c.612,2.51,1.193,5.031,1.772,7.551.211.919,1.317,1.548,2.214,1.257.961-.311,1.483-1.23,1.257-2.214-.579-2.519-1.16-5.04-1.772-7.551-.223-.915-1.308-1.55-2.214-1.257-.951.308-1.496,1.233-1.257,2.214h0Z"/>
        <g>
          <path class="cls-2" d="M139,154.138c1.193-.273,1.914-1.378,2.016-2.541.08-.914-.345-1.84-.775-2.622-.79-1.44-2.183-2.696-3.804-3.099-1.705-.424-3.663-.037-4.967,1.17-1.274,1.179-1.738,3.105-1.343,4.763.23.967.803,1.826,1.584,2.429.938.725,2.054.941,3.208.722.927-.176,1.54-1.341,1.257-2.214-.32-.99-1.221-1.446-2.214-1.257.289-.028.334-.036.135-.023-.199-.008-.154.005.134.039-.076-.013-.151-.03-.226-.051-.184-.062-.149-.043.104.058,0,0-.312-.158-.305-.174.205.168.235.189.09.064-.057-.053-.111-.108-.162-.167.158.216.181.246.07.089-.043-.064-.082-.131-.119-.198-.202-.303.094.356-.005.006-.014-.049-.09-.439-.117-.45.033.287.041.331.023.132-.005-.077-.006-.154-.005-.231,0-.057.003-.115.007-.172.011-.141,0-.077-.034.193.064-.084.068-.341.1-.449.022-.074.046-.146.073-.218-.111.252-.126.29-.044.114.056-.101.112-.199.171-.298.11-.157.084-.127-.078.089.049-.058.1-.115.154-.169.054-.055.111-.107.17-.157-.215.161-.244.187-.087.078.072-.041.243-.111.3-.167-.256.102-.293.118-.111.048.073-.026.146-.05.22-.071.047-.014.427-.135.453-.101l-.22.03c.087-.009.174-.015.261-.019.101-.004.444-.052.524.013-.262-.04-.292-.042-.091-.007.085.018.17.038.253.063l.124.039c.191.071.164.058-.081-.041.08-.022.362.19.433.233.07.043.138.088.206.135.157.114.134.095-.07-.058.075.007.228.2.276.246.119.114.226.236.337.357.123.151.104.126-.056-.074.048.067.094.134.138.203.156.241.292.494.415.753.035.074.069.148.101.223-.088-.213-.109-.257-.063-.131.032.133.097.576.059.077-.004.209.008.169.036-.122-.056.182-.035.137.065-.137.091-.15.215-.265.37-.347.283-.095.332-.119.147-.072-.919.21-1.547,1.317-1.257,2.214.311.961,1.23,1.482,2.214,1.257h0Z"/>
          <path class="cls-2" d="M132.934,154.87c3.031,5.14,5.725,10.454,8.134,15.912.393.889,1.691,1.097,2.463.646.917-.536,1.04-1.57.646-2.463-2.409-5.458-5.103-10.773-8.134-15.912-1.176-1.994-4.289-.185-3.108,1.817h0Z"/>
          <path class="cls-2" d="M137.274,153.19c2.959,5.187,5.67,10.474,8.143,15.913.402.885,1.685,1.101,2.463.646.91-.532,1.05-1.574.646-2.463-2.473-5.439-5.184-10.726-8.143-15.913-1.148-2.012-4.259-.201-3.108,1.817h0Z"/>
          <path class="cls-2" d="M153.593,165.538c-5.631,2.216-11.243,4.479-16.878,6.676-1.148.447-1.607,1.513-1.076,2.644.723,1.54,1.423,3.088,2.157,4.623.32.669,1.334,1.075,2.033.827,4.071-1.443,8.122-2.926,12.197-4.36,1-.352,2.005-.693,2.998-1.064.931-.348,2.262-.653,2.948-1.403.837-.915.48-2.023.147-3.061-.352-1.097-.707-2.205-1.128-3.277-.355-.904-1.206-1.534-2.214-1.257-.862.237-1.614,1.304-1.257,2.214.289.737.522,1.493.781,2.241.163.472.633,1.501.599,1.868l.527-1.273-.169.173.794-.463c-2.848,1.166-5.79,2.109-8.695,3.121-2.84.99-5.649,2.064-8.485,3.07l2.033.827c-.734-1.534-1.435-3.083-2.157-4.623l-1.076,2.644c5.636-2.197,11.247-4.46,16.878-6.676.904-.356,1.534-1.206,1.257-2.214-.237-.861-1.304-1.615-2.214-1.257h0Z"/>
        </g>
        <path class="cls-2" d="M132.707,74.805c-.928.43-1.751.969-2.654,1.433-.771.396-1.552.747-2.263,1.251-1.369.969-2.818,1.717-4.149,2.724s-2.49,2.193-3.802,3.234c-1.477,1.172-2.737,2.543-4.016,3.902-.566.601-1.119,1.1-1.609,1.777-.424.587-1.018.997-1.438,1.608-.935,1.361-1.945,2.64-2.911,3.978-.558.774-1.167,1.471-1.641,2.31-.417.738-.71,1.576-1.174,2.284-1.012,1.547-1.766,3.138-2.37,4.894-.754,2.196,2.722,3.139,3.471.957.285-.829.625-1.554.997-2.349.327-.699.718-1.193,1.11-1.849.442-.737.738-1.566,1.178-2.309.445-.751,1.019-1.389,1.52-2.098.901-1.275,1.825-2.606,2.802-3.825.893-1.113,1.963-2.079,2.882-3.168,1.089-1.291,2.402-2.483,3.73-3.537,1.248-.99,2.335-2.13,3.602-3.093.621-.472,1.206-.702,1.875-1.083.689-.392,1.296-.934,1.947-1.379.715-.489,1.503-.82,2.269-1.215.838-.433,1.596-.938,2.46-1.339,2.1-.974.273-4.078-1.817-3.108h0Z"/>
        <path class="cls-2" d="M158.546,79.523c-1.094-.099-2.175-.145-3.268-.111-.527.016-.766-.106-1.283-.232-.707-.172-1.296.067-1.984.143-2.129.238-4.292.312-6.363.889-.438.122-.844.11-1.294.168-.625.081-1.1.367-1.695.538-1.148.329-2.279.367-3.383.873-.916.42-1.833.734-2.703,1.248-.943.557-1.973.928-3.007,1.28-1.871.636-3.477,2.17-5.184,3.181-.867.514-1.516.86-2.243,1.575-.584.574-1.365.893-1.977,1.503-.551.549-.991,1.193-1.607,1.657-.849.641-1.432,1.456-2.193,2.191-.644.622-1.329,1.091-1.913,1.788-.695.831-1.55,1.477-2.218,2.351-1.357,1.773-2.617,3.615-3.832,5.515-.7,1.096-1.273,2.253-1.934,3.365-.222.374-.539.684-.744,1.07-.297.559-.295,1.131-.466,1.72-.649,2.229,2.824,3.181,3.471.957.099-.341.084-.736.226-1.054.12-.27.376-.488.533-.738.523-.831.952-1.734,1.463-2.579.924-1.528,1.851-3.239,3.07-4.532.532-.564.827-1.268,1.32-1.854.568-.676,1.26-1.193,1.816-1.879.505-.623,1.181-1.024,1.755-1.586.561-.55,1.011-1.216,1.599-1.72.628-.538,1.118-.984,1.668-1.598.526-.588,1.003-.856,1.65-1.254s.958-1.035,1.598-1.385c.826-.452,1.632-.919,2.424-1.435.747-.487,1.448-1.06,2.196-1.538.601-.385,1.424-.577,2.118-.842,1.708-.652,3.211-1.681,4.93-2.299,1.064-.382,2.274-.518,3.36-.842.48-.143.952-.103,1.449-.187.456-.077.849-.305,1.295-.405,2.157-.48,4.456-.54,6.637-.842h-.957c.453.08.844.298,1.296.383.484.092.904-.004,1.389-.029.988-.052,2.001.057,2.985.146,2.307.209,2.292-3.392,0-3.6h0Z"/>
        <path class="cls-2" d="M141.761,76.095c4.222-.614,8.405-.699,12.657-.534s8.364,1.231,12.5,2.076c2.262.462,3.229-3.007.957-3.471-2.313-.473-4.567-1.107-6.923-1.416-1.013-.133-1.98-.364-2.984-.55-1.172-.216-2.362-.194-3.55-.24-2.184-.085-4.409-.146-6.583-.043-2.343.111-4.699.366-7.031.705-.969.141-1.483,1.359-1.257,2.214.273,1.035,1.257,1.396,2.214,1.257h0Z"/>
        <path class="cls-2" d="M136.92,79.813c.96-.321,1.935-.584,2.921-.81.429-.099.857-.453,1.076-.827.226-.386.321-.954.181-1.387-.141-.436-.411-.856-.827-1.076-.439-.232-.898-.294-1.387-.181-.986.226-1.961.489-2.921.81-.445.149-.835.415-1.076.827-.226.386-.321.954-.181,1.387.141.436.411.856.827,1.076s.927.335,1.387.181h0Z"/>
        <path class="cls-2" d="M121.035,146.645c9.341-1.643,18.664-3.441,27.997-5.156,2.275-.418,1.312-3.888-.957-3.471-9.333,1.715-18.656,3.513-27.997,5.156-2.278.401-1.312,3.871.957,3.471h0Z"/>
        <path class="cls-2" d="M139.795,151.183c3.737-.731,7.477-1.405,11.229-2.055.93-.161,1.536-1.351,1.257-2.214-.324-1.002-1.218-1.43-2.214-1.257-3.752.651-7.492,1.325-11.229,2.055-.926.181-1.541,1.338-1.257,2.214.319.986,1.222,1.451,2.214,1.257h0Z"/>
        <path class="cls-2" d="M123.574,154.689c2.539-.572,5.081-1.136,7.627-1.679.922-.197,1.544-1.327,1.257-2.214-.315-.973-1.226-1.468-2.214-1.257-2.546.543-5.088,1.107-7.627,1.679-.92.207-1.547,1.319-1.257,2.214.312.964,1.229,1.479,2.214,1.257h0Z"/>
      </g>
    </g>
  </g>
</svg>