<?xml version="1.0" encoding="UTF-8"?>
<svg id="_레이어_2" data-name="레이어 2" xmlns="http://www.w3.org/2000/svg" viewBox="0 0 160.533 287.482">
  <defs>
    <style>
      .cls-1 {
        fill: #fff;
      }

      .cls-1, .cls-2, .cls-3 {
        stroke-width: 0px;
      }

      .cls-2 {
        fill: #4f4e4e;
      }

      .cls-3 {
        fill: #eb6468;
      }
    </style>
  </defs>
  <g id="_레이어_1-2" data-name="레이어 1">
    <g>
      <g>
        <g>
          <path class="cls-1" d="M140.975,70.191c.01-2.123.246-4.271.81-6.456.227-.88.475-1.753.741-2.62-8.487-2.488-16.946-5.07-25.376-7.744-.263.861-.544,1.717-.846,2.566-.794,2.233-1.868,4.226-3.125,6.063,9.067,3.354,18.361,6.085,27.796,8.192Z"/>
          <path class="cls-2" d="M140.975,71.692c-.109,0-.219-.012-.327-.036-9.531-2.129-18.948-4.904-27.989-8.249-.434-.16-.769-.511-.909-.952-.14-.44-.069-.921.191-1.302,1.284-1.877,2.249-3.747,2.95-5.718.294-.829.567-1.663.824-2.503.117-.383.383-.703.737-.889.356-.186.772-.222,1.15-.102,8.371,2.656,16.899,5.258,25.345,7.734.385.113.709.375.898.728.19.353.231.768.114,1.151-.26.846-.502,1.698-.724,2.557-.503,1.949-.752,3.941-.762,6.087-.002.454-.21.883-.565,1.166-.269.214-.599.327-.935.327ZM115.451,61.232c7.816,2.812,15.903,5.193,24.088,7.094.113-1.71.376-3.348.793-4.966.107-.411.217-.821.331-1.229-7.515-2.214-15.083-4.524-22.539-6.878-.131.396-.267.792-.407,1.186-.586,1.649-1.333,3.231-2.266,4.793Z"/>
        </g>
        <g>
          <path class="cls-1" d="M144.241,56.209c1.718-4.419,3.833-8.695,6.08-12.875,3.738-6.953,7.944-13.996,8.634-21.86.425-4.839-.904-10.149-4.007-13.951-8.188-10.033-23.416-6.683-29.221,3.782-3.829,6.903-4.285,15.094-5.079,22.948-.471,4.663-1.1,9.332-2.126,13.901,8.383,3.25,16.982,5.935,25.719,8.055Z"/>
          <path class="cls-2" d="M144.241,57.71c-.117,0-.236-.014-.354-.042-8.835-2.145-17.552-4.875-25.907-8.115-.692-.268-1.084-1.003-.922-1.727.88-3.917,1.547-8.278,2.098-13.723.075-.75.148-1.503.221-2.257.701-7.252,1.425-14.752,5.039-21.267,3.261-5.879,9.453-9.903,16.16-10.502,6.064-.54,11.721,1.828,15.534,6.5,3.199,3.92,4.822,9.539,4.34,15.031-.651,7.422-4.25,14.043-7.729,20.447-.361.665-.722,1.329-1.078,1.992-2.617,4.868-4.524,8.906-6.003,12.709-.229.587-.792.956-1.398.956ZM120.26,47.215c7.468,2.839,15.216,5.267,23.07,7.226,1.449-3.561,3.27-7.353,5.669-11.816.358-.667.722-1.334,1.085-2.004,3.333-6.133,6.779-12.476,7.377-19.277.415-4.731-.959-9.543-3.676-12.871-3.22-3.945-7.826-5.867-12.942-5.408-5.73.511-11.02,3.948-13.805,8.969-3.311,5.969-4.005,13.153-4.676,20.1-.073.759-.146,1.517-.223,2.271-.505,4.992-1.107,9.104-1.88,12.811Z"/>
        </g>
        <g>
          <path class="cls-3" d="M142.526,61.115c.507-1.657,1.087-3.29,1.715-4.905-8.737-2.121-17.336-4.805-25.719-8.055-.394,1.756-.846,3.497-1.372,5.217,8.43,2.674,16.889,5.256,25.376,7.744Z"/>
          <path class="cls-2" d="M143.526,62.971l-1.422-.417c-8.468-2.483-17.016-5.092-25.407-7.754l-1.416-.449.435-1.42c.495-1.616.935-3.287,1.343-5.106l.382-1.7,1.624.63c8.233,3.192,16.823,5.882,25.53,7.997l1.665.404-.62,1.597c-.659,1.694-1.208,3.265-1.679,4.801l-.435,1.417ZM119.003,52.384c7.455,2.355,15.023,4.665,22.539,6.878.218-.656.45-1.321.698-2.002-7.707-1.938-15.311-4.318-22.652-7.092-.188.758-.382,1.494-.585,2.216Z"/>
        </g>
        <g>
          <path class="cls-1" d="M141.598,76.704c-4.926-.926-9.814-2.234-14.625-3.586-6.13-1.722-12.264-3.537-18.144-5.954-4.475,4.472-9.879,8.157-14.454,12.567-27.688,26.693-28.57,71.518-30.296,107.332-.088,1.834-.146,3.795.817,5.359.755,1.227,2.032,2.024,3.286,2.735,4.18,2.372,8.614,4.294,13.202,5.722l8.218,2.515c4.602,1.384,9.353,2.273,14.144,2.647,1.436.112,2.941.167,4.253-.427,1.673-.757,2.723-2.415,3.676-3.984,18.614-30.645,42.971-68.287,34.965-105.903-1.36-6.388-3.874-12.631-5.042-19.023Z"/>
          <path class="cls-2" d="M105.254,207.612c-.559,0-1.106-.034-1.625-.075-4.894-.382-9.758-1.292-14.458-2.706l-8.226-2.517c-4.694-1.462-9.235-3.43-13.504-5.852-1.353-.767-2.875-1.714-3.823-3.253-1.241-2.016-1.123-4.445-1.037-6.219l.224-4.743c1.613-34.598,3.622-77.656,30.529-103.596,2.22-2.14,4.646-4.124,6.992-6.043,2.53-2.071,5.147-4.212,7.441-6.504.429-.428,1.072-.556,1.631-.326,5.999,2.466,12.426,4.337,17.98,5.897,5.368,1.508,9.888,2.69,14.497,3.556.61.115,1.087.594,1.198,1.205.612,3.352,1.634,6.76,2.621,10.056.871,2.904,1.771,5.908,2.412,8.924,7.781,36.556-14.653,73.363-32.68,102.939l-2.469,4.055c-.922,1.518-2.185,3.596-4.341,4.572-1.094.495-2.254.631-3.363.631ZM109.177,68.924c-2.211,2.127-4.617,4.096-6.951,6.006-2.3,1.881-4.678,3.827-6.81,5.882-26.049,25.111-28.026,67.509-29.615,101.576l-.224,4.749c-.087,1.792-.101,3.368.596,4.501.575.933,1.673,1.607,2.749,2.217,4.082,2.316,8.425,4.199,12.908,5.595l8.211,2.513c4.489,1.351,9.142,2.221,13.821,2.586,1.234.096,2.522.152,3.519-.298,1.212-.549,2.081-1.863,3.013-3.396l2.472-4.059c17.75-29.122,39.84-65.364,32.308-100.753-.617-2.897-1.499-5.84-2.351-8.687-.914-3.051-1.856-6.195-2.504-9.367-4.37-.865-8.692-2.002-13.75-3.422-5.356-1.505-11.517-3.296-17.391-5.639Z"/>
        </g>
        <g>
          <path class="cls-3" d="M126.973,73.118c4.812,1.352,9.7,2.66,14.625,3.586-.393-2.15-.634-4.317-.624-6.513-9.435-2.107-18.729-4.838-27.796-8.192-1.278,1.868-2.753,3.568-4.35,5.164,5.88,2.417,12.014,4.232,18.144,5.954Z"/>
          <path class="cls-2" d="M143.465,78.582l-2.145-.403c-4.717-.886-9.309-2.086-14.753-3.616h0c-5.636-1.584-12.162-3.484-18.31-6.011l-2.083-.857,1.593-1.592c1.671-1.669,3.036-3.289,4.173-4.951l.661-.966,1.098.406c8.915,3.298,18.202,6.035,27.603,8.135l1.179.263-.006,1.208c-.01,1.938.186,3.978.599,6.236l.392,2.147ZM127.378,71.674c4.555,1.279,8.498,2.324,12.403,3.14-.155-1.182-.251-2.316-.289-3.42-8.759-2.006-17.412-4.557-25.755-7.592-.691.935-1.451,1.86-2.291,2.788,5.393,2.071,11.006,3.7,15.932,5.083h0Z"/>
        </g>
      </g>
      <g>
        <g>
          <path class="cls-1" d="M42.73,141.434c-.992-1.876-1.798-3.882-2.332-6.075-.215-.883-.408-1.77-.583-2.66-8.657,1.81-17.333,3.525-26.028,5.144.174.883.33,1.77.465,2.662.354,2.343.347,4.607.105,6.82,9.576-1.321,19.06-3.298,28.372-5.892Z"/>
          <path class="cls-2" d="M14.358,148.826c-.388,0-.764-.15-1.046-.424-.331-.322-.495-.779-.445-1.238.246-2.261.215-4.365-.098-6.434-.131-.869-.283-1.734-.453-2.596-.077-.393.006-.8.23-1.132.225-.332.573-.559.967-.632,8.645-1.61,17.391-3.338,25.995-5.138.391-.083.801-.004,1.135.218.334.221.565.567.644.96.172.869.359,1.734.568,2.595.477,1.954,1.196,3.828,2.201,5.729.212.401.231.877.052,1.294s-.538.73-.976.852c-9.405,2.62-19.017,4.616-28.569,5.933-.068.01-.137.014-.205.014ZM15.534,139.043c.071.412.139.825.201,1.238.261,1.73.349,3.478.263,5.295,8.222-1.209,16.476-2.924,24.586-5.11-.707-1.563-1.249-3.131-1.644-4.752-.101-.413-.196-.826-.288-1.24-7.662,1.592-15.424,3.126-23.118,4.569Z"/>
        </g>
        <g>
          <path class="cls-1" d="M39.013,127.566c-.57-4.707-.723-9.475-.713-14.221.015-7.894.401-16.088-2.701-23.347-1.909-4.467-5.586-8.522-10.116-10.41-11.953-4.983-23.8,5.156-23.98,17.121-.119,7.893,3.343,15.33,6.349,22.629,1.785,4.334,3.433,8.747,4.684,13.26,8.924-1.089,17.773-2.78,26.477-5.032Z"/>
          <path class="cls-2" d="M12.535,134.097c-.666,0-1.263-.443-1.444-1.099-1.075-3.875-2.545-8.034-4.626-13.09-.287-.696-.578-1.393-.869-2.092C2.791,111.091-.109,104.136.003,96.686c.102-6.723,3.663-13.192,9.295-16.885,5.089-3.335,11.198-3.917,16.762-1.598,4.672,1.947,8.753,6.136,10.919,11.206,2.927,6.852,2.879,14.387,2.832,21.674-.005.757-.01,1.513-.012,2.266-.01,5.527.213,9.988.703,14.038.09.746-.386,1.444-1.113,1.632-8.803,2.277-17.776,3.983-26.671,5.068-.062.008-.122.011-.183.011ZM19.123,79.783c-2.83,0-5.621.848-8.18,2.526-4.812,3.155-7.854,8.681-7.941,14.421-.103,6.826,2.675,13.488,5.361,19.931.294.703.586,1.404.874,2.104,1.908,4.635,3.317,8.545,4.387,12.183,7.924-1.019,15.899-2.535,23.751-4.513-.402-3.823-.587-8.026-.577-13.094.002-.757.007-1.517.012-2.279.045-6.981.091-14.198-2.591-20.476-1.866-4.367-5.348-7.962-9.314-9.616-1.905-.794-3.853-1.188-5.782-1.188Z"/>
        </g>
        <g>
          <path class="cls-3" d="M39.815,132.7c-.334-1.7-.594-3.413-.802-5.134-8.704,2.252-17.553,3.942-26.477,5.032.481,1.734.904,3.482,1.252,5.247,8.695-1.619,17.371-3.334,26.028-5.144Z"/>
          <path class="cls-2" d="M12.603,139.59l-.287-1.456c-.324-1.644-.736-3.372-1.225-5.136l-.465-1.678,1.728-.211c8.765-1.07,17.607-2.75,26.282-4.995l1.659-.429.206,1.701c.218,1.805.475,3.449.784,5.025l.286,1.454-1.451.303c-8.625,1.804-17.394,3.537-26.06,5.15l-1.459.272ZM14.426,133.87c.191.753.368,1.497.529,2.229,7.693-1.443,15.457-2.977,23.118-4.569-.117-.681-.226-1.377-.328-2.095-7.71,1.928-15.538,3.417-23.319,4.435Z"/>
        </g>
        <g>
          <path class="cls-1" d="M46.352,146.883c-4.78,1.508-9.707,2.66-14.587,3.738-6.217,1.374-12.482,2.668-18.807,3.311-1.836,6.055-4.862,11.853-6.815,17.9-11.819,36.598,8.552,76.537,23.928,108.929.787,1.659,1.662,3.415,3.249,4.34,1.245.726,2.747.825,4.187.861,4.804.119,9.621-.278,14.34-1.184l8.433-1.66c4.711-.951,9.319-2.408,13.719-4.339,1.319-.579,2.671-1.24,3.549-2.384,1.118-1.457,1.261-3.414,1.361-5.247,1.954-35.802,5.67-80.482-19.137-109.872-4.212-4.99-9.375-9.309-13.421-14.393Z"/>
          <path class="cls-2" d="M39.165,287.482c-.565,0-1.13-.007-1.695-.021-1.557-.039-3.348-.157-4.905-1.065-2.045-1.192-3.087-3.389-3.849-4.993l-2.04-4.286c-14.9-31.267-33.446-70.18-21.96-105.747.948-2.935,2.151-5.831,3.315-8.631,1.255-3.019,2.552-6.14,3.492-9.242.176-.579.682-.996,1.284-1.057,6.452-.656,13.002-2.039,18.636-3.283,5.444-1.203,9.986-2.294,14.459-3.705.592-.186,1.238.011,1.625.497,2.121,2.667,4.63,5.19,7.057,7.63,2.137,2.15,4.348,4.373,6.336,6.729,24.107,28.562,21.692,71.601,19.752,106.183l-.264,4.738c-.097,1.773-.229,4.202-1.669,6.079-1.099,1.432-2.711,2.219-4.136,2.844-4.497,1.973-9.216,3.465-14.025,4.435l-8.44,1.661c-4.272.82-8.626,1.233-12.972,1.233ZM14.095,155.319c-.944,2.917-2.137,5.787-3.294,8.571-1.141,2.745-2.319,5.583-3.229,8.402-11.12,34.431,7.141,72.748,21.814,103.535l2.042,4.29c.769,1.621,1.499,3.017,2.648,3.687.943.55,2.231.626,3.47.658,4.684.114,9.408-.273,14.02-1.158l8.426-1.658c4.593-.927,9.106-2.354,13.407-4.241,1.133-.497,2.295-1.055,2.96-1.923.811-1.055.957-2.624,1.054-4.416l.264-4.743c1.911-34.051,4.29-76.43-19.049-104.08-1.909-2.263-4.076-4.441-6.171-6.549-2.245-2.258-4.56-4.586-6.627-7.079-4.261,1.299-8.608,2.336-13.738,3.471-5.433,1.2-11.71,2.527-17.995,3.232Z"/>
        </g>
        <g>
          <path class="cls-3" d="M31.765,150.621c4.88-1.078,9.807-2.231,14.587-3.738-1.361-1.711-2.596-3.507-3.622-5.448-9.313,2.593-18.796,4.571-28.372,5.892-.246,2.25-.744,4.445-1.399,6.606,6.325-.643,12.59-1.937,18.807-3.311Z"/>
          <path class="cls-2" d="M10.869,155.652l.653-2.155c.686-2.26,1.125-4.332,1.344-6.334l.127-1.163,1.159-.16c9.42-1.299,18.899-3.267,28.175-5.851l1.164-.324.564,1.068c.906,1.713,2.041,3.419,3.471,5.215l1.359,1.708-2.082.657c-4.577,1.443-9.192,2.552-14.714,3.773h0c-5.715,1.262-12.366,2.665-18.979,3.338l-2.24.228ZM15.7,148.652c-.169,1.15-.402,2.324-.704,3.539,5.731-.718,11.449-1.93,16.446-3.034,4.618-1.02,8.588-1.961,12.416-3.083-.694-.969-1.315-1.924-1.868-2.879-8.666,2.363-17.499,4.197-26.29,5.458ZM31.766,150.621h.01-.01Z"/>
        </g>
      </g>
    </g>
  </g>
</svg>