<?xml version="1.0" encoding="UTF-8"?>
<svg id="_레이어_2" data-name="레이어 2" xmlns="http://www.w3.org/2000/svg" viewBox="0 0 275.66 152.743">
  <defs>
    <style>
      .cls-1 {
        fill: #b7b7b7;
      }

      .cls-1, .cls-2 {
        stroke-width: 0px;
      }

      .cls-2 {
        fill: #4f4e4e;
      }
    </style>
  </defs>
  <g id="_레이어_1-2" data-name="레이어 1">
    <g>
      <path class="cls-1" d="M20.231,119.645c-4.688-.464-9.366-1.022-14.031-1.673-.972-.136-2.055-.25-2.852.324-.432.311-.715.786-.942,1.268-2.19,4.64-.063,10.1,2.336,14.636,2.379,4.496,5.042,8.846,8.061,12.939,1.704,2.31,4.281,4.793,7.017,3.924,1.589-.505,2.612-2.007,3.51-3.411,1.95-3.045,3.9-6.09,5.85-9.136l2.284-1.673c71.604-34.44,150.731-52.217,220.075-91.009,6.771-3.788,13.631-7.945,18.17-14.237s6.208-15.279,2.03-21.817c-3.15-4.928-9.037-7.592-14.859-8.15-5.822-.557-11.654.72-17.315,2.19C172.418,21.246,84.023,91.763,20.526,119.698"/>
      <path class="cls-2" d="M18.673,152.743c-1.898,0-4.357-1.027-7.077-4.713-2.897-3.928-5.649-8.345-8.181-13.129-2.247-4.248-4.939-10.526-2.366-15.978.252-.533.673-1.304,1.421-1.844,1.326-.956,2.958-.729,3.938-.592,4.612.643,9.295,1.201,13.917,1.659,25.549-11.293,54.833-29.277,85.826-48.312C151.818,41.789,199.04,12.788,239.188,2.369c5.363-1.391,11.61-2.826,17.835-2.23,6.892.66,12.865,3.962,15.981,8.835,4.828,7.553,2.435,17.246-2.077,23.502-4.724,6.549-11.806,10.838-18.654,14.669-38.857,21.737-81.439,37.133-122.62,52.023-32.411,11.719-65.928,23.837-97.413,38.97l-1.945,1.426-5.7,8.899c-.852,1.33-2.139,3.338-4.319,4.031-.473.15-1.01.25-1.601.25ZM4.943,119.362c-.294,0-.56.038-.718.151-.207.149-.399.558-.463.691-1.976,4.186.194,9.304,2.306,13.294,2.462,4.652,5.134,8.942,7.942,12.75,1.135,1.539,3.34,4.02,5.355,3.385,1.059-.337,1.883-1.512,2.702-2.79l5.851-9.135c.1-.156.227-.292.376-.401l2.283-1.673c.074-.055.153-.102.236-.142,31.659-15.228,65.292-27.388,97.818-39.148,41.066-14.849,83.531-30.202,122.175-51.819,6.556-3.667,13.32-7.754,17.685-13.806,3.792-5.257,6.03-13.799,1.983-20.131-2.622-4.102-7.758-6.892-13.738-7.464-5.748-.55-11.682.82-16.796,2.148-39.714,10.306-86.741,39.188-132.222,67.119-31.246,19.19-60.76,37.315-86.59,48.679-.334.146-.69.162-1.015.069-.011,0-.022,0-.032-.002-4.68-.464-9.421-1.028-14.091-1.68-.292-.04-.691-.097-1.05-.097Z"/>
    </g>
  </g>
</svg>