<?xml version="1.0" encoding="UTF-8"?>
<svg id="_레이어_2" data-name="레이어 2" xmlns="http://www.w3.org/2000/svg" viewBox="0 0 179.501 109.888">
  <defs>
    <style>
      .cls-1 {
        fill: #4f4e4e;
      }

      .cls-1, .cls-2 {
        stroke-width: 0px;
      }

      .cls-2 {
        fill: #de88b6;
      }
    </style>
  </defs>
  <g id="_레이어_1-2" data-name="레이어 1">
    <g>
      <g>
        <path class="cls-2" d="M111.088,68.129c4.34-1.073,8.679-2.147,13.021-3.208,2.085-.51,4.233-1.023,6.358-.718,8.566,1.228,5.553,14.826,14.329,16.876,2.926.683,5.994.159,8.907-.576,6.714-1.692,20.082-5.602,23.418-12.352.953-1.927.926-4.176.838-6.324-.407-9.994-2.14-20.844-4.27-30.617-1.859-8.532-3.619-20.364-10.227-26.695-4.947-4.74-12.304-2.779-18.263-1.563-5.588,1.14-13.374,2.757-16.881,7.771-3.407,4.871-2.643,11.422-3.203,17.113-.074.756-.175,1.573-.7,2.122-.455.477-1.135.649-1.777.8-12.962,3.051-4.757,1.12-17.719,4.171l-36.321,8.666c-12.943,3.13-4.75,1.148-17.693,4.278-.641.155-1.325.308-1.946.089-.716-.253-1.175-.936-1.583-1.577-3.069-4.825-5.344-11.015-10.584-13.823-5.393-2.89-13.07-.818-18.571.688-5.866,1.606-13.316,3.178-15.59,9.641-3.037,8.632.734,19.984,2.928,28.436,2.513,9.681,5.865,20.145,10.014,29.246.892,1.956,1.883,3.975,3.603,5.264,6.025,4.516,19.718,1.969,26.473.448,2.931-.66,5.906-1.577,8.208-3.508,4.44-3.723,2.949-9.632,2.332-14.577-.281-2.25.011-4.804,1.714-6.305,3.337-2.94,8.518-3.402,12.705-4.281,13.562-2.849,27.024-6.159,40.479-9.484Z"/>
        <path class="cls-1" d="M29.797,109.888c-5.131,0-8.984-.951-11.519-2.851-1.971-1.478-3.049-3.607-4.068-5.842-3.716-8.151-7.209-18.349-10.101-29.491-.252-.972-.526-1.982-.807-3.022-2.194-8.115-4.925-18.214-2.083-26.289,2.381-6.769,9.599-8.706,15.397-10.263l1.211-.327c5.463-1.495,13.718-3.755,19.676-.563,4.356,2.334,6.737,6.602,9.039,10.729.71,1.274,1.382,2.477,2.102,3.611.194.306.557.875.816.967.224.079.747-.047,1.095-.132l17.692-4.278,54.049-12.839c.348-.082.874-.207,1.037-.377.19-.199.256-.871.291-1.231.132-1.338.187-2.716.246-4.174.19-4.721.388-9.603,3.22-13.652,3.874-5.538,12.262-7.248,17.811-8.381l1.229-.255c5.877-1.229,13.189-2.759,18.371,2.205,6.181,5.922,8.304,16.167,10.01,24.4.219,1.054.431,2.079.644,3.059,2.451,11.246,3.938,21.922,4.303,30.875.101,2.455.1,4.841-.992,7.05-2.62,5.3-10.829,9.722-24.397,13.142-2.878.726-6.273,1.363-9.614.582-5.159-1.205-6.825-5.691-8.296-9.65-1.551-4.176-2.722-6.745-5.905-7.201-1.866-.268-3.861.219-5.789.69-3.92.958-7.838,1.927-11.757,2.895l-1.26.312h0c-12.416,3.068-26.489,6.546-40.531,9.496-.748.157-1.526.301-2.32.448-3.57.66-7.262,1.342-9.702,3.491-1.495,1.319-1.349,3.932-1.217,4.994.07.565.153,1.142.236,1.728.655,4.614,1.472,10.356-3.092,14.184-2.63,2.205-5.945,3.169-8.842,3.822-6.336,1.427-11.739,2.14-16.184,2.14ZM30.184,32.62c-3.981,0-8.313,1.186-11.566,2.076l-1.225.331c-5.385,1.446-11.489,3.084-13.345,8.361-2.532,7.195.064,16.796,2.149,24.51.284,1.05.56,2.071.814,3.052,2.849,10.977,6.282,21.005,9.927,29.001.852,1.868,1.732,3.632,3.138,4.686,2.748,2.059,9.357,3.762,25.244.185,2.545-.573,5.436-1.401,7.573-3.194,3.286-2.756,2.657-7.183,2.049-11.463-.085-.603-.17-1.198-.242-1.779-.41-3.292.375-5.997,2.21-7.616,3.064-2.698,7.355-3.491,11.141-4.19.769-.143,1.524-.282,2.248-.434,13.991-2.939,28.036-6.41,40.428-9.473l1.261-.311c3.921-.97,7.842-1.939,11.765-2.897,2.102-.514,4.482-1.096,6.927-.746,5.179.743,6.833,5.197,8.292,9.126,1.382,3.721,2.575,6.935,6.165,7.773,2.717.633,5.67.067,8.2-.57,15.79-3.98,20.919-8.484,22.44-11.562.778-1.575.768-3.547.684-5.598-.356-8.782-1.821-19.28-4.236-30.359-.216-.99-.43-2.024-.65-3.088-1.622-7.826-3.64-17.565-9.148-22.843-4.04-3.871-10.226-2.576-15.681-1.435l-1.244.258c-5.083,1.037-12.765,2.604-15.952,7.161-2.329,3.329-2.508,7.764-2.681,12.054-.059,1.436-.118,2.921-.258,4.346-.076.771-.203,2.062-1.108,3.011-.778.814-1.825,1.06-2.518,1.224l-17.72,4.171-36.317,8.665-17.687,4.277c-.69.167-1.737.42-2.799.044-1.237-.436-1.934-1.532-2.35-2.187-.767-1.207-1.49-2.504-2.19-3.759-2.092-3.75-4.254-7.627-7.835-9.546-1.716-.919-3.758-1.264-5.901-1.264ZM111.088,68.129h.01-.01Z"/>
      </g>
      <path class="cls-1" d="M33.343,108.951c-.368,0-.737-.135-1.027-.407-.891-.838-1.562-1.825-2.173-2.763-6.163-9.465-10.93-20.838-15.003-35.792-3.198-11.741-4.739-21.281-4.851-30.021-.023-1.789.318-2.462.922-3.498.145-.249.315-.54.509-.914.381-.735,1.287-1.022,2.022-.641.736.381,1.022,1.287.641,2.022-.222.427-.415.759-.581,1.044-.447.767-.527.905-.514,1.95.108,8.48,1.616,17.781,4.746,29.271,3.989,14.644,8.636,25.748,14.623,34.944.533.818,1.065,1.604,1.714,2.214.603.567.633,1.517.065,2.12-.295.314-.694.473-1.093.473Z"/>
      <path class="cls-1" d="M171.977,73.348c-.702,0-1.33-.496-1.47-1.212l-8.293-42.338c-1.703-8.692-3.823-19.509-10.412-26.843-.554-.616-.503-1.564.113-2.118.618-.554,1.564-.502,2.119.113,7.142,7.95,9.35,19.218,11.123,28.271l8.293,42.338c.159.813-.37,1.601-1.183,1.761-.097.019-.194.028-.29.028Z"/>
    </g>
  </g>
</svg>