<?xml version="1.0" encoding="UTF-8"?>
<svg id="_레이어_2" data-name="레이어 2" xmlns="http://www.w3.org/2000/svg" viewBox="0 0 123.994 183.97">
  <defs>
    <style>
      .cls-1 {
        fill: #4f4e4e;
      }

      .cls-1, .cls-2, .cls-3 {
        stroke-width: 0px;
      }

      .cls-2 {
        fill: #d7d7d7;
      }

      .cls-3 {
        fill: #eb6468;
      }
    </style>
  </defs>
  <g id="_레이어_1-2" data-name="레이어 1">
    <g>
      <g>
        <path class="cls-2" d="M52.872,142.906c.07,9.484,2.103,18.856,4.441,28.086.785,3.098,1.727,6.385,4.268,8.511,1.446,1.21,3.297,1.929,5.182,2.366,5.156,1.194,10.579.4,15.796-.535,11.491-2.059,22.859-4.785,33.876-8.463,1.88-.628,3.876-1.374,4.97-2.933.9-1.282,1.026-2.894,1.061-4.426.206-8.853-1.69-17.619-3.577-26.297-1.493-6.863-2.985-13.726-4.478-20.59"/>
        <path class="cls-1" d="M72.421,183.97c-2.009,0-4.017-.183-5.996-.641-2.392-.554-4.345-1.454-5.806-2.677-2.818-2.357-3.859-5.741-4.759-9.293-2.288-9.032-4.415-18.729-4.487-28.443-.006-.828.661-1.505,1.489-1.511h.011c.824,0,1.494.664,1.5,1.489.069,9.395,2.153,18.879,4.395,27.728.774,3.056,1.646,5.946,3.776,7.729,1.096.917,2.63,1.608,4.558,2.056,4.88,1.13,10.182.347,15.193-.551,12.312-2.206,23.324-4.956,33.666-8.409,1.686-.562,3.401-1.208,4.218-2.371.673-.96.759-2.305.789-3.6.203-8.712-1.701-17.472-3.543-25.943l-4.478-20.589c-.176-.809.338-1.608,1.146-1.785.808-.18,1.608.337,1.785,1.147l4.479,20.589c1.879,8.644,3.822,17.582,3.611,26.651-.04,1.678-.179,3.606-1.334,5.252-1.34,1.911-3.562,2.773-5.724,3.494-10.479,3.499-21.629,6.285-34.086,8.517-3.381.605-6.896,1.16-10.404,1.16Z"/>
      </g>
      <g>
        <path class="cls-3" d="M9.8,104.63c-5.36-6.92-9.115-15.579-8.152-24.279.963-8.7,7.643-17.058,16.351-17.951-3.598-6.986-6.322-14.422-8.089-22.079-.887-3.844-1.508-8.004.043-11.631.931-2.177,2.571-3.967,4.272-5.615C30.702,7.116,54.783,1.206,77.72,1.513c5.229.07,10.516.439,15.495,2.039,13.709,4.406,23.067,17.687,26.733,31.612,3.666,13.925,2.589,28.602,1.486,42.959-1.117,14.539-2.234,29.079-3.352,43.618-.243,3.166-.503,6.4-1.762,9.315-3.807,8.809-14.816,11.483-24.334,12.713-10.321,1.335-20.691,2.297-31.081,2.885-11.176.632-16.667-14.031-23.669-20.865-8.476-8.272-19.797-11.298-27.436-21.159Z"/>
        <path class="cls-1" d="M60.202,148.174c-8.2,0-13.455-7.364-18.108-13.886-2.008-2.814-3.904-5.471-5.907-7.425-3.564-3.479-7.597-5.967-11.867-8.601-5.517-3.403-11.221-6.923-15.706-12.714h0C2.258,97.341-.745,88.334.157,80.186c1.027-9.275,7.56-17.038,15.592-18.925-3.205-6.562-5.658-13.483-7.302-20.602-.909-3.939-1.605-8.511.125-12.558,1.052-2.458,2.836-4.386,4.608-6.102C28.186,7.464,51.119-.362,77.74.013c4.832.064,10.504.366,15.934,2.111,12.889,4.143,23.513,16.657,27.725,32.658,3.77,14.316,2.632,29.13,1.531,43.456l-3.352,43.618c-.239,3.105-.51,6.624-1.881,9.796-4.229,9.786-16.589,12.452-25.519,13.606-10.306,1.333-20.8,2.308-31.189,2.896-.265.015-.528.022-.788.022ZM10.986,103.712c4.152,5.361,9.377,8.584,14.91,11.998,4.221,2.603,8.585,5.296,12.388,9.006,2.193,2.141,4.165,4.904,6.253,7.83,4.563,6.395,9.266,13.036,16.284,12.611,10.318-.583,20.739-1.551,30.974-2.874,8.896-1.15,19.567-3.533,23.149-11.822,1.172-2.711,1.412-5.824,1.644-8.835l3.352-43.618c1.081-14.078,2.198-28.635-1.441-42.462-3.1-11.773-11.489-25.985-25.742-30.565-5.052-1.624-10.446-1.906-15.056-1.967-25.839-.36-48,7.162-62.431,21.14-1.546,1.498-3.094,3.156-3.937,5.127-1.388,3.245-.802,7.062.039,10.704,1.741,7.541,4.419,14.851,7.962,21.729l1.007,1.955-2.187.224c-8.34.855-14.183,9.124-15.013,16.624-.816,7.371,1.97,15.608,7.847,23.196h0Z"/>
      </g>
      <path class="cls-1" d="M36.811,97.439c-.01,0-.02,0-.03,0-.828-.016-1.486-.701-1.47-1.529.072-3.663-1.128-7.527-3.471-11.175-1.085-1.69-2.341-3.239-3.671-4.879-.558-.689-1.116-1.377-1.66-2.075-6.905-8.86-11.508-19.184-15.958-29.167-.337-.757.003-1.644.759-1.981.758-.336,1.643.003,1.981.759,4.377,9.819,8.904,19.973,15.584,28.545.532.683,1.078,1.356,1.624,2.029,1.323,1.631,2.69,3.317,3.865,5.148,2.665,4.149,4.03,8.595,3.946,12.855-.016.818-.684,1.47-1.499,1.47Z"/>
      <path class="cls-1" d="M54.449,159.687c-.828,0-1.499-.671-1.5-1.499,0-.828.67-1.5,1.499-1.501,20.426-.018,46.696-5.493,63.885-13.315.753-.345,1.644-.011,1.986.744.343.754.01,1.644-.744,1.986-17.814,8.108-43.986,13.566-65.124,13.585h-.001Z"/>
      <path class="cls-1" d="M65.665,172.562c-2.606,0-5.214-.082-7.822-.247-.827-.053-1.455-.766-1.402-1.592.052-.827.769-1.443,1.592-1.402,21.274,1.349,42.605-2.966,61.684-12.477.741-.367,1.643-.067,2.012.674.369.741.067,1.642-.674,2.012-17.212,8.579-36.214,13.032-55.39,13.032Z"/>
    </g>
  </g>
</svg>