<?xml version="1.0" encoding="UTF-8"?>
<svg id="_레이어_2" data-name="레이어 2" xmlns="http://www.w3.org/2000/svg" viewBox="0 0 127.805 127.804">
  <defs>
    <style>
      .cls-1 {
        fill: #fff;
      }

      .cls-1, .cls-2 {
        stroke-width: 0px;
      }

      .cls-2 {
        fill: #e48278;
      }
    </style>
  </defs>
  <g id="_레이어_1-2" data-name="레이어 1">
    <g>
      <circle class="cls-1" cx="63.902" cy="63.902" r="63.902" transform="translate(-24.111 43.394) rotate(-31.883)"/>
      <g>
        <path class="cls-2" d="M40.684,72.286l-8.006-7.381c-.554-.511-.588-1.373-.078-1.926.512-.554,1.373-.588,1.926-.079l6.082,5.607,6.184-6.184c.532-.533,1.395-.533,1.928,0,.532.532.532,1.395,0,1.928l-8.035,8.035Z"/>
        <path class="cls-2" d="M40.202,80.444l-7.322-8.06c-.506-.558-.465-1.419.093-1.926.557-.505,1.419-.466,1.926.092l5.562,6.123,6.706-5.613c.578-.483,1.437-.407,1.921.17.482.577.406,1.437-.171,1.92l-8.714,7.293Z"/>
        <path class="cls-2" d="M37.435,87.546l-5.784-9.225c-.4-.638-.208-1.479.43-1.879.64-.399,1.479-.207,1.879.431l4.396,7.007,7.59-4.343c.655-.373,1.488-.147,1.86.507.374.653.147,1.486-.506,1.86l-9.864,5.642Z"/>
        <path class="cls-2" d="M35.11,93.743l-4.855-9.746c-.336-.674-.061-1.493.612-1.829.674-.335,1.492-.062,1.828.612l3.687,7.404,7.979-3.58c.686-.309,1.493,0,1.802.686.309.687.002,1.494-.686,1.802l-10.368,4.65Z"/>
        <path class="cls-2" d="M30.939,100.777l-3.778-10.213c-.261-.706.1-1.49.806-1.751.706-.261,1.49.099,1.752.806l2.869,7.756,8.318-2.699c.714-.231,1.485.16,1.718.876.233.716-.16,1.485-.876,1.717l-10.809,3.508Z"/>
        <path class="cls-2" d="M25.58,107.538l-1.925-10.718c-.134-.741.36-1.45,1.101-1.583.74-.133,1.449.36,1.583,1.101l1.462,8.14,8.663-1.195c.738-.106,1.434.418,1.537,1.164.104.746-.419,1.434-1.164,1.537l-11.257,1.554Z"/>
        <path class="cls-2" d="M30.044,110.707h-.015l-8.745.039-.419-8.287c-.038-.751-.665-1.342-1.431-1.304-.752.038-1.33.673-1.292,1.425l.316,6.241c1.596,1.614,3.276,3.143,5.035,4.581l6.563-.066c.753-.007,1.357-.576,1.35-1.329-.009-.748-.617-1.3-1.363-1.3Z"/>
        <path class="cls-2" d="M41.065,64.093l-8.503-6.805c-.588-.47-.683-1.328-.212-1.916.47-.589,1.328-.683,1.916-.212l6.458,5.168,5.736-6.601c.492-.568,1.354-.629,1.924-.135.568.494.628,1.355.134,1.923l-7.453,8.577Z"/>
        <path class="cls-2" d="M41.743,55.821l-9.289-5.682c-.643-.393-.845-1.232-.452-1.874.393-.643,1.233-.843,1.874-.452l7.056,4.316,4.862-7.27c.419-.626,1.268-.792,1.892-.375.625.419.793,1.266.375,1.892l-6.317,9.445Z"/>
        <path class="cls-2" d="M40.033,47.334l-10.216-3.771c-.707-.261-1.067-1.044-.807-1.751.261-.707,1.044-1.066,1.751-.807l7.759,2.864,3.358-8.075c.288-.694,1.085-1.026,1.782-.735.695.289,1.024,1.087.735,1.782l-4.363,10.492Z"/>
        <path class="cls-2" d="M38.012,39.709l-10.653-2.254c-.736-.156-1.207-.879-1.052-1.616.156-.737.884-1.208,1.616-1.051l8.092,1.712,2.155-8.476c.186-.729.926-1.173,1.658-.985.729.186,1.17.927.984,1.657l-2.801,11.013Z"/>
        <path class="cls-2" d="M34.377,32.438l-10.653-2.254c-.737-.156-1.207-.879-1.052-1.616.156-.737.884-1.21,1.616-1.051l8.092,1.712,2.154-8.476c.185-.729.928-1.172,1.658-.985.729.186,1.171.928.985,1.657l-2.801,11.013Z"/>
        <path class="cls-2" d="M19.864,25.707c-.75,0-1.359-.288-1.363-1.039-.003-.752.604-1.206,1.356-1.21l8.27.038.311-8.701c.027-.752.613-1.313,1.411-1.294.752.027,1.341.668,1.314,1.421l-.403,11.043-10.89-.258h-.007Z"/>
        <path class="cls-2" d="M26.526,12.085c-.954.689-1.892,1.4-2.805,2.14l-.138,3.866-4.217.005c-.852.829-1.686,1.676-2.491,2.551l9.341.06.31-8.622Z"/>
      </g>
      <g>
        <path class="cls-2" d="M87.121,72.286l8.006-7.381c.554-.511.588-1.373.078-1.926-.512-.554-1.373-.588-1.926-.079l-6.082,5.607-6.184-6.184c-.532-.533-1.395-.533-1.928,0-.532.532-.532,1.395,0,1.928l8.035,8.035Z"/>
        <path class="cls-2" d="M87.602,80.444l7.322-8.06c.506-.558.465-1.419-.093-1.926-.557-.505-1.419-.466-1.926.092l-5.562,6.123-6.706-5.613c-.578-.483-1.437-.407-1.921.17-.482.577-.406,1.437.171,1.92l8.714,7.293Z"/>
        <path class="cls-2" d="M90.37,87.546l5.784-9.225c.4-.638.208-1.479-.43-1.879-.64-.399-1.479-.207-1.879.431l-4.395,7.007-7.59-4.343c-.655-.373-1.488-.147-1.86.507-.374.653-.147,1.486.506,1.86l9.864,5.642Z"/>
        <path class="cls-2" d="M92.694,93.743l4.855-9.746c.336-.674.061-1.493-.612-1.829-.674-.335-1.492-.062-1.828.612l-3.687,7.404-7.979-3.58c-.686-.309-1.493,0-1.802.686s-.002,1.494.686,1.802l10.368,4.65Z"/>
        <path class="cls-2" d="M96.866,100.777l3.778-10.213c.261-.706-.1-1.49-.806-1.751-.706-.261-1.49.099-1.752.806l-2.869,7.756-8.318-2.699c-.714-.231-1.485.16-1.718.876-.232.716.16,1.485.876,1.717l10.809,3.508Z"/>
        <path class="cls-2" d="M102.225,107.538l1.925-10.718c.134-.741-.36-1.45-1.101-1.583-.74-.133-1.449.36-1.583,1.101l-1.462,8.14-8.663-1.195c-.738-.106-1.434.418-1.537,1.164-.103.746.419,1.434,1.164,1.537l11.257,1.554Z"/>
        <path class="cls-2" d="M109.662,102.574c.038-.752-.54-1.392-1.292-1.431-.766-.038-1.393.541-1.431,1.292l-.419,8.31-8.745-.039h-.015c-.746,0-1.354.551-1.363,1.299-.008.753.597,1.344,1.35,1.352l6.563.054c1.759-1.438,3.439-2.974,5.035-4.588l.316-6.25Z"/>
        <path class="cls-2" d="M86.74,64.093l8.503-6.805c.588-.47.683-1.328.212-1.916-.47-.589-1.328-.683-1.916-.212l-6.458,5.168-5.736-6.601c-.492-.568-1.353-.629-1.924-.135-.568.494-.628,1.355-.134,1.923l7.453,8.577Z"/>
        <path class="cls-2" d="M86.061,55.821l9.289-5.682c.643-.393.845-1.232.452-1.874-.392-.643-1.233-.843-1.874-.452l-7.056,4.316-4.862-7.27c-.419-.626-1.267-.792-1.892-.375-.625.419-.793,1.266-.375,1.892l6.317,9.445Z"/>
        <path class="cls-2" d="M87.771,47.334l10.216-3.771c.707-.261,1.067-1.044.807-1.751-.261-.707-1.044-1.066-1.751-.807l-7.759,2.864-3.358-8.075c-.288-.694-1.085-1.026-1.782-.735-.695.289-1.024,1.087-.735,1.782l4.363,10.492Z"/>
        <path class="cls-2" d="M89.793,39.709l10.653-2.254c.736-.156,1.207-.879,1.052-1.616-.156-.737-.884-1.208-1.616-1.051l-8.092,1.712-2.155-8.476c-.186-.729-.926-1.173-1.658-.985-.729.186-1.17.927-.984,1.657l2.801,11.013Z"/>
        <path class="cls-2" d="M93.428,32.438l10.653-2.254c.737-.156,1.207-.879,1.052-1.616-.156-.737-.884-1.21-1.616-1.051l-8.092,1.712-2.154-8.476c-.186-.729-.928-1.172-1.658-.985-.729.186-1.171.928-.985,1.657l2.801,11.013Z"/>
        <path class="cls-2" d="M107.94,25.707c.75,0,1.359-.288,1.363-1.039.003-.752-.603-1.206-1.356-1.21l-8.27.038-.311-8.701c-.027-.752-.613-1.313-1.411-1.294-.752.027-1.341.668-1.314,1.421l.403,11.043,10.89-.258h.007Z"/>
        <path class="cls-2" d="M101.588,20.707l9.341-.06c-.805-.875-1.64-1.722-2.491-2.551l-4.217-.005-.138-3.866c-.913-.74-1.851-1.45-2.805-2.14l.31,8.622Z"/>
      </g>
    </g>
  </g>
</svg>