<?xml version="1.0" standalone="no"?>
<!DOCTYPE svg PUBLIC "-//W3C//DTD SVG 20010904//EN"
 "http://www.w3.org/TR/2001/REC-SVG-20010904/DTD/svg10.dtd">
<svg version="1.0" xmlns="http://www.w3.org/2000/svg"
 width="928.000000pt" height="208.000000pt" viewBox="0 0 928.000000 208.000000"
 preserveAspectRatio="xMidYMid meet">

<g transform="translate(0.000000,208.000000) scale(0.100000,-0.100000)"
fill="#000000" stroke="none">
<path d="M165 1971 c-48 -22 -69 -44 -90 -94 -13 -32 -15 -139 -15 -839 0
-758 1 -805 19 -843 22 -48 44 -69 94 -90 32 -13 499 -15 4437 -15 3938 0
4405 2 4437 15 50 21 72 42 94 90 18 38 19 85 19 845 0 760 -1 807 -19 845
-22 48 -44 69 -94 90 -32 13 -499 15 -4439 15 -4251 0 -4404 -1 -4443 -19z
m8875 -49 c73 -36 70 7 70 -882 0 -889 3 -846 -70 -882 -33 -17 -266 -18
-4430 -18 -4164 0 -4397 1 -4430 18 -73 36 -70 -7 -70 882 0 889 -3 846 70
882 33 17 266 18 4430 18 4164 0 4397 -1 4430 -18z"/>
</g>
</svg>
