<?xml version="1.0" encoding="UTF-8" standalone="no" ?>
<!DOCTYPE svg PUBLIC "-//W3C//DTD SVG 1.1//EN" "http://www.w3.org/Graphics/SVG/1.1/DTD/svg11.dtd">
<svg xmlns="http://www.w3.org/2000/svg" xmlns:xlink="http://www.w3.org/1999/xlink" version="1.1" width="541.0104" height="81.90960000000001" viewBox="0 0 541.01 81.91" xml:space="preserve">
<desc>Created with Fabric.js 5.3.0</desc>
<defs>
</defs>
<g transform="matrix(1 0 0 1 273.5 41.96)" id="376565bb-850f-4a23-8817-0f1edf56d4c7"  >
<g style=""   >
		<g transform="matrix(0.58 0 0 0.58 0.37 0.39)"  >
<g style=""   >
		<g transform="matrix(1 0 0 1 0.5 0.5)"  >
<path style="stroke: rgb(255,255,255); stroke-width: 1; stroke-dasharray: none; stroke-linecap: butt; stroke-dashoffset: 0; stroke-linejoin: miter; stroke-miterlimit: 4; fill: rgb(255,255,255); fill-rule: nonzero; opacity: 1;"  transform=" translate(-43.24, -55.8)" d="M 7.778 39.733 C 6.593999999999999 38.663 5.523 37.394999999999996 4.5649999999999995 35.928999999999995 C 3.6069999999999993 34.46399999999999 2.7899999999999996 32.858 2.1139999999999994 31.109999999999996 C 1.4379999999999993 29.363999999999997 0.9169999999999994 27.516999999999996 0.5499999999999994 25.572999999999997 C 0.1839999999999994 23.628999999999998 -6.661338147750939e-16 21.670999999999996 -6.661338147750939e-16 19.697999999999997 C -6.661338147750939e-16 17.668999999999997 0.19799999999999934 15.682999999999996 0.5919999999999993 13.737999999999996 C 0.9869999999999993 11.793999999999997 1.5509999999999993 9.975999999999996 2.2829999999999995 8.284999999999997 C 3.0159999999999996 6.593999999999997 3.8889999999999993 5.044999999999996 4.904 3.6349999999999962 C 5.918 2.2269999999999963 7.073 1.0139999999999962 8.370000000000001 -3.552713678800501e-15 L 56.471999999999994 -3.552713678800501e-15 C 62.05199999999999 -3.552713678800501e-15 66.75699999999999 0.5919999999999964 70.58999999999999 1.7749999999999964 C 74.42199999999998 2.958999999999996 77.52199999999999 4.606999999999996 79.88899999999998 6.7209999999999965 C 82.25599999999999 8.833999999999996 83.94699999999997 11.342999999999996 84.96099999999998 14.244999999999997 C 85.97599999999998 17.147999999999996 86.48299999999999 20.288999999999998 86.48299999999999 23.671 C 86.48299999999999 26.152 86.27199999999999 28.659 85.84899999999999 31.195 C 85.42599999999999 33.731 84.877 36.267 84.201 38.803 L 60.446 80.227 C 58.641999999999996 83.43900000000001 57.247 86.58200000000001 56.262 89.653 C 55.275 92.72500000000001 54.782000000000004 95.866 54.782000000000004 99.07900000000001 C 54.782000000000004 100.20700000000001 54.824000000000005 101.334 54.909000000000006 102.46000000000001 C 54.99300000000001 103.58800000000001 55.17600000000001 104.715 55.458000000000006 105.84200000000001 C 52.75300000000001 108.09700000000001 49.638000000000005 109.61800000000001 46.117000000000004 110.40700000000001 C 42.594 111.19500000000001 39.227000000000004 111.59100000000001 36.015 111.59100000000001 C 31.675 111.59100000000001 27.857 110.92800000000001 24.560000000000002 109.60400000000001 C 21.263 108.28100000000002 18.501 106.47600000000001 16.275000000000002 104.19400000000002 C 14.048000000000002 101.91100000000002 12.372000000000002 99.27800000000002 11.245000000000001 96.29000000000002 C 10.117 93.30300000000003 9.554 90.14800000000002 9.554 86.82200000000002 C 9.554 83.94800000000002 10.019 81.04600000000002 10.949 78.11500000000001 C 11.879 75.185 13.076 72.33900000000001 14.542 69.57700000000001 L 28.067999999999998 43.70800000000001 L 41.425 43.70800000000001 C 42.382999999999996 43.70800000000001 43.256 43.539000000000016 44.046 43.201000000000015 C 44.833999999999996 42.863000000000014 45.229 42.131000000000014 45.229 41.003000000000014 L 45.229 40.411000000000016 C 45.229 40.186000000000014 45.199999999999996 39.960000000000015 45.144 39.735000000000014 L 7.778 39.735000000000014 Z" stroke-linecap="round" />
</g>
		<g transform="matrix(1 0 0 1 -0.59 -0.58)"  >
<path style="stroke: rgb(255,255,255); stroke-width: 1; stroke-dasharray: none; stroke-linecap: butt; stroke-dashoffset: 0; stroke-linejoin: miter; stroke-miterlimit: 4; fill: rgb(255,255,255); fill-rule: nonzero; opacity: 1;"  transform=" translate(-42.15, -54.71)" d="M 9.618 39.972 C 8.532 38.99 7.549 37.827 6.67 36.482 C 5.792 35.138 5.041 33.664 4.420999999999999 32.061 C 3.8009999999999993 30.459 3.3229999999999995 28.765 2.9859999999999993 26.981 C 2.6499999999999995 25.197000000000003 2.4819999999999993 23.401000000000003 2.4819999999999993 21.591 C 2.4819999999999993 19.73 2.6639999999999993 17.907 3.0249999999999995 16.123 C 3.3869999999999996 14.339 3.9049999999999994 12.672 4.576 11.121000000000002 C 5.249 9.570000000000002 6.0489999999999995 8.148000000000003 6.9799999999999995 6.855000000000002 C 7.911 5.563000000000002 8.969999999999999 4.451000000000002 10.16 3.5200000000000022 L 54.290000000000006 3.5200000000000022 C 59.409000000000006 3.5200000000000022 63.72500000000001 4.063000000000002 67.242 5.149000000000003 C 70.757 6.235000000000003 73.602 7.7470000000000026 75.77300000000001 9.686000000000003 C 77.94500000000001 11.625000000000004 79.49600000000001 13.926000000000004 80.42600000000002 16.589000000000002 C 81.35700000000001 19.253000000000004 81.82200000000002 22.134 81.82200000000002 25.237000000000002 C 81.82200000000002 27.513 81.62800000000001 29.813000000000002 81.24000000000002 32.14 C 80.85200000000002 34.467 80.34800000000003 36.794 79.72800000000002 39.120000000000005 L 57.934000000000026 77.123 C 56.279000000000025 80.07000000000001 54.999000000000024 82.953 54.09500000000003 85.771 C 53.190000000000026 88.59 52.73800000000003 91.471 52.73800000000003 94.419 C 52.73800000000003 95.454 52.77700000000003 96.488 52.855000000000025 97.521 C 52.93200000000002 98.556 53.10000000000002 99.59 53.35900000000002 100.623 C 50.877000000000024 102.69200000000001 48.020000000000024 104.08800000000001 44.78900000000002 104.811 C 41.55700000000002 105.534 38.468000000000025 105.897 35.52100000000002 105.897 C 31.539000000000023 105.897 28.03700000000002 105.289 25.01200000000002 104.07400000000001 C 21.987000000000023 102.86000000000001 19.45300000000002 101.20400000000001 17.411000000000023 99.11000000000001 C 15.368000000000023 97.01600000000002 13.830000000000023 94.60000000000001 12.796000000000022 91.85800000000002 C 11.761000000000022 89.11800000000002 11.245000000000022 86.22300000000001 11.245000000000022 83.17200000000003 C 11.245000000000022 80.53500000000003 11.672000000000022 77.87300000000002 12.525000000000022 75.18400000000003 C 13.378000000000021 72.49600000000002 14.476000000000022 69.88500000000002 15.821000000000021 67.35100000000003 L 28.23000000000002 43.61800000000002 L 40.48400000000002 43.61800000000002 C 41.36300000000002 43.61800000000002 42.16400000000002 43.46300000000002 42.88800000000002 43.15300000000002 C 43.61100000000002 42.84300000000002 43.97400000000002 42.17100000000002 43.97400000000002 41.13700000000002 L 43.97400000000002 40.59400000000002 C 43.97400000000002 40.38800000000002 43.948000000000015 40.181000000000026 43.896000000000015 39.974000000000025 L 9.618 39.974000000000025 Z" stroke-linecap="round" />
</g>
		<g transform="matrix(1 0 0 1 -1.67 -1.67)"  >
<path style="stroke: rgb(255,255,255); stroke-width: 1; stroke-dasharray: none; stroke-linecap: butt; stroke-dashoffset: 0; stroke-linejoin: miter; stroke-miterlimit: 4; fill: rgb(255,255,255); fill-rule: nonzero; opacity: 1;"  transform=" translate(-41.07, -53.62)" d="M 8.531 38.884 C 7.445 37.902 6.462000000000001 36.739 5.5840000000000005 35.394 C 4.706 34.05 3.9560000000000004 32.576 3.3350000000000004 30.973 C 2.7150000000000003 29.371 2.237 27.677 1.9000000000000004 25.893 C 1.5640000000000003 24.109 1.3960000000000004 22.313000000000002 1.3960000000000004 20.503 C 1.3960000000000004 18.642 1.5780000000000003 16.819 1.9390000000000005 15.035 C 2.3020000000000005 13.251 2.8190000000000004 11.584 3.49 10.033000000000001 C 4.162 8.482000000000001 4.963 7.060000000000001 5.894 5.767000000000001 C 6.824 4.475000000000001 7.884 3.3630000000000013 9.074 2.4320000000000013 L 53.204 2.4320000000000013 C 58.323 2.4320000000000013 62.639 2.9750000000000014 66.156 4.061000000000002 C 69.67200000000001 5.147000000000002 72.516 6.659000000000002 74.68700000000001 8.598000000000003 C 76.85900000000001 10.537000000000003 78.41000000000001 12.838000000000003 79.34100000000001 15.501000000000001 C 80.272 18.164 80.73700000000001 21.046 80.73700000000001 24.149 C 80.73700000000001 26.425 80.543 28.725 80.15500000000002 31.052 C 79.76700000000001 33.379 79.26300000000002 35.706 78.64300000000001 38.032 L 56.84900000000002 76.035 C 55.19400000000002 78.982 53.914000000000016 81.865 53.01000000000002 84.68299999999999 C 52.10500000000002 87.502 51.65300000000002 90.38399999999999 51.65300000000002 93.33099999999999 C 51.65300000000002 94.36599999999999 51.69200000000002 95.39999999999999 51.77000000000002 96.43299999999999 C 51.847000000000016 97.46799999999999 52.01400000000002 98.502 52.274000000000015 99.535 C 49.792000000000016 101.604 46.93500000000002 103 43.704000000000015 103.723 C 40.472000000000016 104.446 37.38300000000002 104.809 34.436000000000014 104.809 C 30.454000000000015 104.809 26.952000000000012 104.201 23.927000000000014 102.986 C 20.902000000000015 101.772 18.368000000000013 100.116 16.326000000000015 98.022 C 14.283000000000015 95.92800000000001 12.745000000000015 93.51100000000001 11.711000000000015 90.77000000000001 C 10.676000000000014 88.03000000000002 10.160000000000014 85.135 10.160000000000014 82.084 C 10.160000000000014 79.447 10.587000000000014 76.785 11.440000000000014 74.096 C 12.293000000000013 71.408 13.391000000000014 68.797 14.736000000000013 66.262 L 27.145000000000014 42.528999999999996 L 39.399000000000015 42.528999999999996 C 40.27800000000001 42.528999999999996 41.079000000000015 42.373999999999995 41.804000000000016 42.06399999999999 C 42.527000000000015 41.75399999999999 42.890000000000015 41.081999999999994 42.890000000000015 40.04699999999999 L 42.890000000000015 39.50399999999999 C 42.890000000000015 39.29799999999999 42.863000000000014 39.090999999999994 42.81200000000001 38.88399999999999 L 8.531 38.88399999999999 Z" stroke-linecap="round" />
</g>
		<g transform="matrix(1 0 0 1 -2.11 -2.11)"  >
<path style="stroke: rgb(255,255,255); stroke-width: 1; stroke-dasharray: none; stroke-linecap: butt; stroke-dashoffset: 0; stroke-linejoin: miter; stroke-miterlimit: 4; fill: rgb(255,255,255); fill-rule: nonzero; opacity: 1;"  transform=" translate(-40.63, -53.19)" d="M 34 102.199 C 30.318 102.199 27.055 101.63799999999999 24.301000000000002 100.533 C 21.574 99.438 19.268 97.937 17.447000000000003 96.069 C 15.624000000000002 94.2 14.232000000000003 92.013 13.310000000000002 89.568 C 12.373000000000003 87.088 11.899000000000003 84.42399999999999 11.899000000000003 81.649 C 11.899000000000003 79.248 12.295000000000003 76.782 13.077000000000002 74.318 C 13.887000000000002 71.764 14.945000000000002 69.25 16.221000000000004 66.847 L 28.026000000000003 44.26899999999999 L 38.963 44.26899999999999 C 40.133 44.26899999999999 41.230000000000004 44.05399999999999 42.223 43.62799999999999 C 43.751999999999995 42.971999999999994 44.628 41.50899999999999 44.628 39.611999999999995 L 44.628 39.068999999999996 C 44.628 38.690999999999995 44.581 38.306999999999995 44.487 37.928 L 44.079 36.274 L 8.969 36.274 C 8.25 35.542 7.579 34.703 6.968999999999999 33.769 C 6.177 32.556 5.488999999999999 31.205 4.927999999999999 29.753 C 4.358999999999999 28.285 3.9129999999999994 26.704 3.601999999999999 25.055 C 3.291999999999999 23.411 3.134999999999999 21.733 3.134999999999999 20.067999999999998 C 3.134999999999999 18.363999999999997 3.302999999999999 16.668999999999997 3.634999999999999 15.031999999999998 C 3.964999999999999 13.406999999999998 4.440999999999999 11.868999999999998 5.049999999999999 10.461999999999998 C 5.656999999999999 9.060999999999998 6.388999999999999 7.761999999999998 7.223999999999998 6.602999999999998 C 7.881999999999999 5.688999999999998 8.618999999999998 4.873999999999998 9.421 4.171999999999998 L 52.769 4.171999999999998 C 57.644999999999996 4.171999999999998 61.788 4.686999999999998 65.08 5.703999999999998 C 68.279 6.691999999999998 70.878 8.064999999999998 72.804 9.784999999999998 C 74.714 11.489999999999998 76.038 13.451999999999998 76.85300000000001 15.782999999999998 C 77.69900000000001 18.201999999999998 78.12700000000001 20.869999999999997 78.12700000000001 23.712999999999997 C 78.12700000000001 25.857999999999997 77.941 28.060999999999996 77.575 30.257999999999996 C 77.21600000000001 32.413999999999994 76.74600000000001 34.601 76.179 36.76199999999999 L 54.528000000000006 74.517 C 52.800000000000004 77.59299999999999 51.45 80.637 50.50500000000001 83.582 C 49.53500000000001 86.601 49.043000000000006 89.734 49.043000000000006 92.89399999999999 C 49.043000000000006 93.97599999999998 49.084 95.07499999999999 49.166000000000004 96.15899999999999 C 49.217000000000006 96.84299999999999 49.304 97.532 49.42700000000001 98.21699999999998 C 47.46300000000001 99.62699999999998 45.23700000000001 100.61699999999999 42.794000000000004 101.16399999999999 C 39.731 101.85 36.772000000000006 102.19699999999999 34.001000000000005 102.19699999999999 Z" stroke-linecap="round" />
</g>
		<g transform="matrix(1 0 0 1 -1.67 -1.68)"  >
<path style="stroke: rgb(255,255,255); stroke-width: 1; stroke-dasharray: none; stroke-linecap: butt; stroke-dashoffset: 0; stroke-linejoin: miter; stroke-miterlimit: 4; fill: rgb(255,255,255); fill-rule: nonzero; opacity: 1;"  transform=" translate(-41.07, -53.62)" d="M 34.435 102.633 C 30.753000000000004 102.633 27.490000000000002 102.07199999999999 24.736000000000004 100.967 C 22.009000000000004 99.872 19.703000000000003 98.371 17.882000000000005 96.503 C 16.059000000000005 94.634 14.667000000000005 92.447 13.745000000000005 90.002 C 12.808000000000005 87.52199999999999 12.334000000000005 84.85799999999999 12.334000000000005 82.083 C 12.334000000000005 79.682 12.730000000000006 77.216 13.512000000000004 74.752 C 14.323000000000004 72.198 15.380000000000004 69.684 16.656000000000006 67.28099999999999 L 28.461000000000006 44.70399999999999 L 39.398 44.70399999999999 C 40.568000000000005 44.70399999999999 41.665000000000006 44.48799999999999 42.658 44.062999999999995 C 44.187 43.407 45.063 41.943999999999996 45.063 40.047 L 45.063 39.504 C 45.063 39.126 45.016000000000005 38.742 44.922000000000004 38.363 L 44.514 36.709 L 9.404 36.709 C 8.685 35.977000000000004 8.014 35.138000000000005 7.404 34.204 C 6.611 32.991 5.9239999999999995 31.64 5.3629999999999995 30.188000000000002 C 4.794 28.720000000000002 4.348 27.139000000000003 4.036999999999999 25.490000000000002 C 3.726999999999999 23.847 3.569999999999999 22.168000000000003 3.569999999999999 20.503 C 3.569999999999999 18.799 3.737999999999999 17.104 4.0699999999999985 15.467 C 4.399999999999999 13.842 4.875999999999999 12.304 5.4849999999999985 10.897 C 6.091999999999999 9.496 6.823999999999998 8.197 7.657999999999999 7.038 C 8.315999999999999 6.1240000000000006 9.052999999999999 5.309 9.854999999999999 4.607 L 53.202999999999996 4.607 C 58.07899999999999 4.607 62.221 5.122 65.514 6.139 C 68.713 7.127000000000001 71.312 8.5 73.238 10.22 C 75.148 11.925 76.472 13.887 77.287 16.218 C 78.13300000000001 18.637 78.561 21.305 78.561 24.148 C 78.561 26.293 78.375 28.496 78.009 30.692999999999998 C 77.65 32.849 77.18 35.036 76.613 37.196999999999996 L 54.962 74.952 C 53.234 78.02799999999999 51.883 81.072 50.93900000000001 84.017 C 49.96900000000001 87.036 49.477000000000004 90.169 49.477000000000004 93.329 C 49.477000000000004 94.41099999999999 49.518 95.509 49.6 96.594 C 49.651 97.279 49.738 97.967 49.861000000000004 98.65199999999999 C 47.896 100.06299999999999 45.67100000000001 101.05199999999999 43.227000000000004 101.59899999999999 C 40.164 102.285 37.205000000000005 102.63199999999999 34.434000000000005 102.63199999999999 Z" stroke-linecap="round" />
</g>
		<g transform="matrix(1 0 0 1 2.86 -0.32)"  >
<path style="stroke: rgb(255,255,255); stroke-width: 1; stroke-dasharray: none; stroke-linecap: butt; stroke-dashoffset: 0; stroke-linejoin: miter; stroke-miterlimit: 4; fill: rgb(255,255,255); fill-rule: nonzero; opacity: 1;"  transform=" translate(-45.6, -54.98)" d="M 15.713 91.106 C 18.628999999999998 94.96499999999999 23.171 97.321 27.84 98.58699999999999 C 32.197 99.76799999999999 36.803 100.10099999999998 41.259 99.37799999999999 C 43.368 99.03599999999999 45.623 98.33299999999998 46.802 96.55199999999999 C 47.678 95.22999999999999 47.791 93.565 47.974 91.98899999999999 C 49.077 82.446 53.608999999999995 73.63999999999999 58.768 65.53599999999999 C 63.927 57.43099999999998 69.806 49.746999999999986 74.094 41.14999999999999 C 78.125 33.06899999999999 80.62299999999999 23.24599999999999 76.612 15.15499999999999 C 75.472 12.855999999999991 73.597 10.652999999999992 71.062 10.25599999999999 C 68.38799999999999 9.836999999999989 65.758 11.61399999999999 64.331 13.913999999999989 C 62.904 16.213999999999988 62.422000000000004 18.95699999999999 61.937000000000005 21.61999999999999 C 60.12500000000001 31.56999999999999 57.824000000000005 41.61399999999999 52.827000000000005 50.40699999999999 C 47.82900000000001 59.19999999999999 39.745000000000005 66.69699999999999 29.862000000000005 68.85099999999998 C 24.671000000000006 69.98199999999999 19.043000000000006 69.81099999999998 15.153000000000006 73.98999999999998 C 14.046000000000006 75.17999999999998 12.982000000000006 76.49999999999999 12.683000000000005 78.13999999999999 C 12.380000000000004 79.80299999999998 12.708000000000006 81.57299999999998 12.854000000000005 83.23499999999999 C 13.106000000000005 86.10099999999998 13.962000000000005 88.78899999999999 15.713000000000005 91.10599999999998 Z" stroke-linecap="round" />
</g>
		<g transform="matrix(1 0 0 1 -13.87 -30.66)"  >
<path style="stroke: rgb(255,255,255); stroke-width: 1; stroke-dasharray: none; stroke-linecap: butt; stroke-dashoffset: 0; stroke-linejoin: miter; stroke-miterlimit: 4; fill: rgb(255,255,255); fill-rule: nonzero; opacity: 1;"  transform=" translate(-28.87, -24.64)" d="M 30.7 34.655 C 34.122 34.358000000000004 37.622 34.04 40.742999999999995 32.606 C 44.73799999999999 30.771 47.837999999999994 27.091 48.967999999999996 22.844 C 49.355 21.39 49.516999999999996 19.829 49.071999999999996 18.392000000000003 C 48.166 15.466000000000003 44.858 13.774000000000003 41.79899999999999 13.938000000000002 C 38.74099999999999 14.102000000000002 35.95099999999999 15.749000000000002 33.58999999999999 17.700000000000003 C 31.22899999999999 19.650000000000002 29.15699999999999 21.944000000000003 26.70099999999999 23.772000000000002 C 23.39399999999999 26.234 19.42299999999999 27.795 15.32399999999999 28.244000000000003 C 13.984999999999989 28.391000000000002 12.61699999999999 28.425000000000004 11.33999999999999 28.853 C 10.06299999999999 29.282 8.85499999999999 30.202 8.513999999999989 31.504 C 7.631999999999989 34.871 12.24699999999999 35.029 14.323999999999987 35.187 C 17.787999999999986 35.449999999999996 21.267999999999986 35.352 24.72999999999999 35.128 C 26.72199999999999 34.999 28.71099999999999 34.827 30.69899999999999 34.654 Z" stroke-linecap="round" />
</g>
		<g transform="matrix(1 0 0 1 -20.35 37.36)"  >
<path style="stroke: rgb(255,255,255); stroke-width: 1; stroke-dasharray: none; stroke-linecap: butt; stroke-dashoffset: 0; stroke-linejoin: miter; stroke-miterlimit: 4; fill: rgb(255,255,255); fill-rule: nonzero; opacity: 1;"  transform=" translate(-22.38, -92.65)" d="M 19.284 96.499 C 22.061999999999998 99.39399999999999 25.902 101.51899999999999 29.909 101.32799999999999 C 30.212 101.314 30.544999999999998 101.27199999999999 30.75 101.04899999999999 C 30.964 100.81599999999999 30.969 100.457 30.894 100.14899999999999 C 30.637999999999998 99.09199999999998 29.651 98.36599999999999 28.639 97.96699999999998 C 27.627 97.56799999999998 26.531 97.40099999999998 25.54 96.95199999999998 C 23.179 95.88099999999999 21.807 93.41899999999998 20.74 91.05699999999999 C 20.075 89.58599999999998 19.451999999999998 88.07999999999998 18.561 86.72599999999998 C 17.844 85.63699999999999 16.491 83.80099999999999 14.989 83.97299999999998 C 13.323 84.16299999999998 13.854000000000001 86.26099999999998 14.132000000000001 87.30499999999998 C 14.563 88.92599999999997 15.187000000000001 90.49499999999998 15.986 91.96999999999998 C 16.878 93.61699999999999 17.987000000000002 95.14799999999998 19.284 96.49899999999998 Z" stroke-linecap="round" />
</g>
		<g transform="matrix(1 0 0 1 -6.46 43.95)"  >
<path style="stroke: rgb(255,255,255); stroke-width: 1; stroke-dasharray: none; stroke-linecap: butt; stroke-dashoffset: 0; stroke-linejoin: miter; stroke-miterlimit: 4; fill: rgb(255,255,255); fill-rule: nonzero; opacity: 1;"  transform=" translate(-36.28, -99.25)" d="M 32.556 98.792 C 32.342999999999996 99.523 32.596 100.34100000000001 33.095 100.916 C 33.594 101.49099999999999 34.31 101.846 35.049 102.03099999999999 C 36.369 102.36299999999999 37.812 102.17899999999999 39.007 101.52799999999999 C 39.35 101.341 39.684 101.106 39.879 100.767 C 40.11 100.366 40.116 99.868 40.010999999999996 99.416 C 39.706999999999994 98.1 38.565 97.118 37.32299999999999 96.588 C 36.352 96.17299999999999 35.291 96.195 34.38399999999999 96.761 C 33.660999999999994 97.21199999999999 32.79999999999999 97.952 32.55599999999999 98.791 Z" stroke-linecap="round" />
</g>
		<g transform="matrix(1 0 0 1 7.3 25.73)"  >
<path style="stroke: rgb(255,255,255); stroke-width: 1; stroke-dasharray: none; stroke-linecap: butt; stroke-dashoffset: 0; stroke-linejoin: miter; stroke-miterlimit: 4; fill: rgb(255,255,255); fill-rule: nonzero; opacity: 1;"  transform=" translate(-50.04, -81.02)" d="M 48.095 94.62 C 47.839999999999996 90.358 48.433 86.046 49.829 82.01100000000001 C 51.848 76.17600000000002 55.494 70.989 57.325 65.09200000000001 C 57.532000000000004 64.427 57.71 63.686000000000014 57.418000000000006 63.05300000000001 C 56.857000000000006 61.84100000000001 55.078 61.92300000000001 53.86800000000001 62.491000000000014 C 50.82300000000001 63.921000000000014 48.912000000000006 67.00300000000001 47.56500000000001 70.08600000000001 C 43.936000000000014 78.39700000000002 43.20800000000001 87.64000000000001 42.52800000000001 96.68300000000002 C 42.429000000000016 98.00600000000001 42.78700000000001 99.95800000000003 44.481000000000016 99.94900000000003 C 46.09800000000001 99.94000000000003 47.64100000000002 99.06500000000003 48.015000000000015 97.43300000000002 C 48.22600000000001 96.51400000000002 48.15100000000002 95.55100000000002 48.09500000000001 94.61900000000003 Z" stroke-linecap="round" />
</g>
		<g transform="matrix(1 0 0 1 19.77 -1.05)"  >
<path style="stroke: rgb(255,255,255); stroke-width: 1; stroke-dasharray: none; stroke-linecap: butt; stroke-dashoffset: 0; stroke-linejoin: miter; stroke-miterlimit: 4; fill: rgb(255,255,255); fill-rule: nonzero; opacity: 1;"  transform=" translate(-62.51, -54.24)" d="M 59.6 53.97 C 59.228 54.628 58.868 55.313 58.758 56.061 C 58.648 56.809 58.828 57.64 59.393 58.141 C 60.241 58.891999999999996 61.581 58.646 62.581 58.114 C 64.147 57.281 65.38300000000001 55.846 65.97500000000001 54.174 C 66.28500000000001 53.298 66.42 52.321 66.11600000000001 51.442 C 65.75300000000001 50.392 64.67400000000002 49.56 63.57400000000001 49.984 C 62.40000000000001 50.437000000000005 61.49800000000001 51.212 60.73900000000001 52.207 C 60.314000000000014 52.764 59.94400000000001 53.361000000000004 59.60000000000001 53.97 Z" stroke-linecap="round" />
</g>
		<g transform="matrix(1 0 0 1 -30.17 -23.02)"  >
<path style="stroke: rgb(255,255,255); stroke-width: 1; stroke-dasharray: none; stroke-linecap: butt; stroke-dashoffset: 0; stroke-linejoin: miter; stroke-miterlimit: 4; fill: rgb(255,255,255); fill-rule: nonzero; opacity: 1;"  transform=" translate(-12.57, -32.27)" d="M 11.077 34.895 C 12.202 35.309000000000005 13.468 35.080000000000005 14.586 34.645 C 15.384 34.335 16.232 33.805 16.363 32.958000000000006 C 16.522 31.931000000000004 15.558 31.104000000000006 14.669 30.566000000000006 C 13.904 30.104000000000006 13.098 29.678000000000004 12.22 29.507000000000005 C 11.045 29.279000000000003 9.673 29.582000000000004 9.049000000000001 30.693000000000005 C 8.398000000000001 31.852000000000004 8.975000000000001 32.602000000000004 9.585 33.609 C 9.937000000000001 34.189 10.432 34.656 11.077000000000002 34.894 Z" stroke-linecap="round" />
</g>
		<g transform="matrix(1 0 0 1 -11.46 -21.47)"  >
<path style="stroke: rgb(255,255,255); stroke-width: 1; stroke-dasharray: none; stroke-linecap: butt; stroke-dashoffset: 0; stroke-linejoin: miter; stroke-miterlimit: 4; fill: rgb(255,255,255); fill-rule: nonzero; opacity: 1;"  transform=" translate(-31.27, -33.82)" d="M 21.984 36.752 C 25.642000000000003 36.775000000000006 29.3 36.792 32.958 36.804 C 36.725 36.816 40.555 36.813 44.166 35.742000000000004 C 44.379999999999995 35.678000000000004 44.62 35.588 44.702 35.38 C 44.782 35.179 44.678 34.954 44.558 34.773 C 43.722 33.515 42.129 33.03 40.647999999999996 32.733000000000004 C 38.037 32.209 35.376 31.986000000000004 32.723 31.764000000000003 C 29.226 31.472 25.729 31.180000000000003 22.232 30.887000000000004 C 20.538999999999998 30.746000000000006 18.377 30.753000000000004 17.912 32.783 C 17.587 34.206 18.137 34.986000000000004 19.206 35.86 C 20.078 36.572 20.868 36.745 21.983999999999998 36.752 Z" stroke-linecap="round" />
</g>
		<g transform="matrix(1 0 0 1 -4.09 -38.32)"  >
<path style="stroke: rgb(255,255,255); stroke-width: 1; stroke-dasharray: none; stroke-linecap: butt; stroke-dashoffset: 0; stroke-linejoin: miter; stroke-miterlimit: 4; fill: rgb(255,255,255); fill-rule: nonzero; opacity: 1;"  transform=" translate(-38.65, -16.98)" d="M 7.002 17.172 C 7.218 14.326 7.99 11.276 10.235 9.513000000000002 C 12.067 8.074000000000002 14.518999999999998 7.771000000000002 16.839 7.562000000000001 C 29.305999999999997 6.438000000000001 41.881 6.503000000000001 54.336 7.755000000000001 C 58.927 8.217 63.702 8.914000000000001 67.486 11.555 C 68.982 12.599 70.367 14.123 70.388 15.947 C 70.411 17.927 68.74900000000001 19.615 66.872 20.244999999999997 C 64.995 20.874999999999996 62.95 20.669999999999998 60.99 20.391 C 54.003 19.395999999999997 47.131 17.548 40.09 17.083 C 33.048 16.618 25.578000000000003 17.695999999999998 19.954000000000004 21.959 C 18.055000000000003 23.399 16.390000000000004 25.181 14.278000000000004 26.286 C 13.201000000000004 26.85 11.978000000000005 27.192 10.758000000000004 27.191000000000003 C 9.833000000000004 27.19 8.180000000000005 26.979000000000003 7.674000000000005 26.073000000000004 C 7.084000000000005 25.016000000000005 7.118000000000005 22.999000000000002 7.020000000000005 21.816000000000003 C 6.893000000000005 20.272000000000002 6.887000000000005 18.718000000000004 7.004000000000005 17.173000000000002 Z" stroke-linecap="round" />
</g>
		<g transform="matrix(1 0 0 1 -10.87 5.83)"  >
<path style="stroke: rgb(255,255,255); stroke-width: 1; stroke-dasharray: none; stroke-linecap: butt; stroke-dashoffset: 0; stroke-linejoin: miter; stroke-miterlimit: 4; fill: rgb(255,255,255); fill-rule: nonzero; opacity: 1;"  transform=" translate(-31.87, -61.13)" d="M 25.378 53.437 C 22.585 58.667 19.792 63.897 16.999000000000002 69.127 C 16.329 70.381 15.640000000000002 71.82199999999999 16.098000000000003 73.169 C 16.793000000000003 75.215 19.676000000000002 75.57 21.644000000000002 74.678 C 26.353 72.54299999999999 27.948 66.221 32.579 63.922999999999995 C 33.825 63.30499999999999 35.207 63.02799999999999 36.546 62.651999999999994 C 41.406 61.28699999999999 46.188 58.093999999999994 47.547 53.23199999999999 C 47.927 51.870999999999995 47.958999999999996 50.24399999999999 46.983 49.221999999999994 C 45.727 47.90599999999999 43.568999999999996 48.178999999999995 41.928999999999995 48.22299999999999 C 40.251999999999995 48.26899999999999 38.66 48.25699999999999 37.041 47.77199999999999 C 34.169999999999995 46.91299999999999 31.269999999999996 46.63899999999999 28.752999999999997 48.715999999999994 C 27.266999999999996 49.94199999999999 26.228999999999996 51.73499999999999 25.377999999999997 53.437999999999995 Z" stroke-linecap="round" />
</g>
		<g transform="matrix(1 0 0 1 12.83 -27.81)"  >
<path style="stroke: rgb(255,255,255); stroke-width: 1; stroke-dasharray: none; stroke-linecap: butt; stroke-dashoffset: 0; stroke-linejoin: miter; stroke-miterlimit: 4; fill: rgb(255,255,255); fill-rule: nonzero; opacity: 1;"  transform=" translate(-55.57, -27.49)" d="M 49.98 24.201 C 48.692 24.916 47.526999999999994 26.098 47.391 27.565 C 47.245999999999995 29.134 48.355 30.617 49.757 31.338 C 51.158 32.059 52.794 32.155 54.369 32.109 C 56.753 32.039 59.185 31.655 61.269 30.495 C 62.522 29.797 63.71 28.658 63.763999999999996 27.224 C 63.934 22.656 56.69199999999999 22.617 53.757999999999996 23.015 C 52.443 23.193 51.145999999999994 23.554000000000002 49.98 24.201 Z" stroke-linecap="round" />
</g>
		<g transform="matrix(1 0 0 1 -19.31 -42.23)"  >
<path style="stroke: rgb(255,255,255); stroke-width: 1; stroke-dasharray: none; stroke-linecap: butt; stroke-dashoffset: 0; stroke-linejoin: miter; stroke-miterlimit: 4; fill: rgb(255,255,255); fill-rule: nonzero; opacity: 1;"  transform=" translate(-23.43, -13.06)" d="M 36.282 6.082 C 30.449999999999996 6.1659999999999995 24.617999999999995 6.288 18.787999999999997 6.461 C 16.043999999999997 6.542000000000001 13.109999999999996 6.636 10.676999999999996 8.078 C 7.944999999999996 9.697 6.372999999999996 12.294999999999998 6.157999999999996 15.440999999999999 C 5.988999999999996 17.918 8.388999999999996 20.032 10.748999999999995 20.032 C 13.165999999999995 20.032 14.876999999999995 18.245 15.265999999999995 16.023 C 15.290999999999995 16.012999999999998 16.291999999999994 15.764 16.594999999999995 15.732 C 18.698999999999995 15.51 20.871999999999996 15.583 22.985999999999997 15.529 C 27.418 15.416 31.849999999999998 15.329 36.282 15.265 C 42.184999999999995 15.18 42.202999999999996 5.997 36.282 6.083 Z" stroke-linecap="round" />
</g>
		<g transform="matrix(1 0 0 1 6.73 -43.15)"  >
<path style="stroke: rgb(255,255,255); stroke-width: 1; stroke-dasharray: none; stroke-linecap: butt; stroke-dashoffset: 0; stroke-linejoin: miter; stroke-miterlimit: 4; fill: rgb(255,255,255); fill-rule: nonzero; opacity: 1;"  transform=" translate(-49.47, -12.15)" d="M 49.468 7.556 C 43.56 7.556 43.550000000000004 16.738 49.468 16.738 C 55.386 16.738 55.386 7.555999999999999 49.468 7.555999999999999 Z" stroke-linecap="round" />
</g>
		<g transform="matrix(1 0 0 1 -13.24 0.91)"  >
<path style="stroke: rgb(255,255,255); stroke-width: 1; stroke-dasharray: none; stroke-linecap: butt; stroke-dashoffset: 0; stroke-linejoin: miter; stroke-miterlimit: 4; fill: rgb(255,255,255); fill-rule: nonzero; opacity: 1;"  transform=" translate(-29.5, -56.2)" d="M 33.887 48.676 C 31.691 47.516000000000005 28.894 48.104 27.605 50.323 C 26.226 52.697 24.848 55.071 23.469 57.445 C 22.262 59.523 22.92 62.566 25.116 63.727000000000004 C 27.312 64.887 30.109 64.299 31.398 62.080000000000005 C 32.777 59.706 34.156 57.33200000000001 35.534 54.958000000000006 C 36.741 52.88 36.083 49.837 33.887 48.67700000000001 Z" stroke-linecap="round" />
</g>
</g>
</g>
</g>
</g>
</svg>