<?xml version="1.0" encoding="UTF-8" standalone="no" ?>
<!DOCTYPE svg PUBLIC "-//W3C//DTD SVG 1.1//EN" "http://www.w3.org/Graphics/SVG/1.1/DTD/svg11.dtd">
<svg xmlns="http://www.w3.org/2000/svg" xmlns:xlink="http://www.w3.org/1999/xlink" version="1.1" width="482.52240000000006" height="81.8768" viewBox="0 0 482.52 81.88" xml:space="preserve">
<desc>Created with Fabric.js 5.3.0</desc>
<defs>
</defs>
<g transform="matrix(0.61 0 0 0.61 47.36 34.94)"  >
<g style=""   >
		<g transform="matrix(1 0 0 1 0 0)"  >
<path style="stroke: none; stroke-width: 0; stroke-dasharray: none; stroke-linecap: butt; stroke-dashoffset: 0; stroke-linejoin: miter; stroke-miterlimit: 4; fill: rgb(19,21,20); fill-rule: evenodd; opacity: 1;"  transform=" translate(-40.95, -34.45)" d="M 16.942 1.462 L 64.957 1.462 C 68.92899999999999 -0.32600000000000007 73.43799999999999 -0.8089999999999999 77.175 1.939 C 79.291 3.495 80.744 5.841 81.438 8.609 C 82.196 11.626 81.96900000000001 14.869 81.127 17.829 L 81.091 17.955000000000002 L 81.091 17.964000000000002 C 79.698 22.748 76.71799999999999 26.859 73.383 30.046000000000003 C 69.96799999999999 33.309000000000005 65.96499999999999 35.855000000000004 61.797999999999995 37.836000000000006 C 61.391 38.318000000000005 60.964999999999996 38.782000000000004 60.51899999999999 39.227000000000004 C 57.343999999999994 42.402 53.21499999999999 44.623000000000005 48.611999999999995 45.411 L 53.85699999999999 54.644000000000005 L 64.026 54.644000000000005 L 64.026 68.906 L 18.171 68.906 L 18.171 54.644000000000005 L 28.34 54.644000000000005 L 33.585 45.411 C 28.982 44.623000000000005 24.853 42.402 21.678 39.227000000000004 C 21.305 38.854000000000006 20.945 38.468 20.599 38.069 C 16.254 36.055 12.067 33.438 8.517 30.045 C 5.1819999999999995 26.858 2.201999999999999 22.747 0.8089999999999993 17.963 L 0.8089999999999993 17.954 L 0.7729999999999992 17.828 C -0.07 14.868 -0.296 11.626 0.461 8.609 C 1.156 5.841 2.609 3.495 4.724 1.939 C 8.461 -0.8079999999999998 12.97 -0.32499999999999973 16.942 1.4620000000000002 L 16.942 1.4620000000000002 Z M 67.019 4.609 L 67.019 23.595 C 67.019 26.442 66.474 29.166999999999998 65.485 31.671999999999997 C 67.418 30.461999999999996 69.26 29.092 70.948 27.54 C 73.844 24.878 76.50899999999999 21.439999999999998 77.85199999999999 17.404 L 77.87199999999999 17.411 L 78.09499999999998 16.627000000000002 C 78.72699999999999 14.402000000000003 78.93399999999998 11.957000000000003 78.36399999999999 9.684000000000003 C 77.89299999999999 7.810000000000002 76.91 6.203000000000003 75.47599999999998 5.149000000000003 C 72.94299999999998 3.2870000000000026 69.83499999999998 3.5360000000000027 67.01899999999998 4.608000000000002 L 67.01899999999998 4.608000000000002 Z M 63.781 4.745 L 63.76 4.7 L 18.415 4.7 L 18.415 23.595 C 18.415 28.788999999999998 20.541 33.513 23.967 36.938 C 27.392999999999997 40.36300000000001 32.116 42.49 37.31 42.49 L 44.887 42.49 C 50.081 42.49 54.805 40.364000000000004 58.230000000000004 36.938 C 61.655 33.513000000000005 63.782000000000004 28.789 63.782000000000004 23.595000000000002 L 63.782000000000004 4.745 L 63.782000000000004 4.745 Z M 16.81 31.918 C 15.758 29.346 15.177 26.535 15.177 23.595 L 15.177 4.726 C 12.283 3.556 9.045 3.221 6.421999999999999 5.149 C 4.987999999999999 6.203 4.004999999999999 7.8100000000000005 3.533999999999999 9.684000000000001 C 2.962999999999999 11.957 3.170999999999999 14.402000000000001 3.802999999999999 16.627000000000002 L 4.025999999999999 17.411 L 4.0459999999999985 17.404 C 5.3889999999999985 21.439999999999998 8.053999999999998 24.878 10.95 27.54 C 12.753 29.197 14.732 30.648 16.808999999999997 31.916999999999998 L 16.808999999999997 31.916999999999998 Z M 60.788 57.882 L 21.409 57.882 L 21.409 65.66799999999999 L 60.788 65.66799999999999 L 60.788 57.88199999999999 L 60.788 57.88199999999999 Z M 36.846 46.208 L 32.074999999999996 54.607 L 50.122 54.607 L 45.351 46.208 L 36.846 46.208 Z" stroke-linecap="round" />
</g>
		<g transform="matrix(1 0 0 1 0 -14.08)"  >
<polygon style="stroke: none; stroke-width: 0; stroke-dasharray: none; stroke-linecap: butt; stroke-dashoffset: 0; stroke-linejoin: miter; stroke-miterlimit: 4; fill: rgb(19,21,20); fill-rule: evenodd; opacity: 1;"  points="0,-9.72 2.4,-2.28 10.22,-2.29 3.89,2.29 6.31,9.72 0,5.11 -6.31,9.72 -3.88,2.29 -10.22,-2.29 -2.4,-2.28 0,-9.72 " />
</g>
</g>
</g>
</svg>