<?xml version="1.0" encoding="UTF-8" standalone="no" ?>
<!DOCTYPE svg PUBLIC "-//W3C//DTD SVG 1.1//EN" "http://www.w3.org/Graphics/SVG/1.1/DTD/svg11.dtd">
<svg xmlns="http://www.w3.org/2000/svg" xmlns:xlink="http://www.w3.org/1999/xlink" version="1.1" width="482.52240000000006" height="81.8768" viewBox="0 0 482.52 81.88" xml:space="preserve">
<desc>Created with Fabric.js 5.3.0</desc>
<defs>
</defs>
<g transform="matrix(1 0 0 1 32.99 36.14)" style=""  >
		<text xml:space="preserve" font-family="Arial" font-size="20" font-style="normal" font-weight="normal" style="stroke: none; stroke-width: 1; stroke-dasharray: none; stroke-linecap: butt; stroke-dashoffset: 0; stroke-linejoin: miter; stroke-miterlimit: 4; fill: rgb(0,0,0); fill-rule: nonzero; opacity: 1; white-space: pre;" ><tspan x="-54.61" y="-5.02" style="white-space: pre; ">텍^스*트我를 </tspan><tspan x="-76.43" y="17.58" >입abc력de♥하세요</tspan></text>
</g>
<g transform="matrix(0.4 0 0 0.4 476.92 45.62)"  >
<g style=""   >
		<g transform="matrix(1 0 0 1 25.68 58.56)"  >
<path style="stroke: none; stroke-width: 0; stroke-dasharray: none; stroke-linecap: butt; stroke-dashoffset: 0; stroke-linejoin: miter; stroke-miterlimit: 4; fill: rgb(215,215,215); fill-rule: nonzero; opacity: 1;"  transform=" translate(-87.68, -150.55)" d="M 52.872 142.906 C 52.942 152.39000000000001 54.975 161.762 57.313 170.99200000000002 C 58.098 174.09000000000003 59.04 177.377 61.581 179.50300000000001 C 63.027 180.71300000000002 64.878 181.43200000000002 66.763 181.86900000000003 C 71.91900000000001 183.06300000000002 77.34200000000001 182.26900000000003 82.559 181.33400000000003 C 94.05 179.27500000000003 105.418 176.54900000000004 116.435 172.87100000000004 C 118.315 172.24300000000005 120.311 171.49700000000004 121.405 169.93800000000005 C 122.305 168.65600000000003 122.431 167.04400000000004 122.46600000000001 165.51200000000006 C 122.67200000000001 156.65900000000005 120.77600000000001 147.89300000000006 118.88900000000001 139.21500000000006 C 117.39600000000002 132.35200000000006 115.90400000000001 125.48900000000006 114.41100000000002 118.62500000000006" stroke-linecap="round" />
</g>
		<g transform="matrix(1 0 0 1 25.69 58.56)"  >
<path style="stroke: none; stroke-width: 0; stroke-dasharray: none; stroke-linecap: butt; stroke-dashoffset: 0; stroke-linejoin: miter; stroke-miterlimit: 4; fill: rgb(79,78,78); fill-rule: nonzero; opacity: 1;"  transform=" translate(-87.68, -150.55)" d="M 72.421 183.97 C 70.412 183.97 68.40400000000001 183.787 66.42500000000001 183.329 C 64.03300000000002 182.775 62.08000000000001 181.875 60.619000000000014 180.65200000000002 C 57.801000000000016 178.29500000000002 56.76000000000001 174.911 55.860000000000014 171.359 C 53.57200000000002 162.327 51.445000000000014 152.63 51.37300000000001 142.916 C 51.36700000000001 142.088 52.03400000000001 141.411 52.86200000000001 141.405 L 52.87300000000001 141.405 C 53.69700000000001 141.405 54.36700000000001 142.069 54.37300000000001 142.894 C 54.442000000000014 152.28900000000002 56.52600000000001 161.773 58.768000000000015 170.622 C 59.542000000000016 173.67800000000003 60.414000000000016 176.568 62.54400000000001 178.35100000000003 C 63.640000000000015 179.26800000000003 65.174 179.95900000000003 67.102 180.40700000000004 C 71.982 181.53700000000003 77.284 180.75400000000005 82.295 179.85600000000005 C 94.607 177.65000000000006 105.619 174.90000000000006 115.961 171.44700000000006 C 117.64699999999999 170.88500000000005 119.362 170.23900000000006 120.179 169.07600000000005 C 120.852 168.11600000000004 120.938 166.77100000000004 120.968 165.47600000000006 C 121.171 156.76400000000007 119.26700000000001 148.00400000000005 117.425 139.53300000000004 L 112.947 118.94400000000005 C 112.771 118.13500000000005 113.285 117.33600000000004 114.093 117.15900000000005 C 114.90100000000001 116.97900000000004 115.70100000000001 117.49600000000005 115.878 118.30600000000005 L 120.357 138.89500000000004 C 122.236 147.53900000000004 124.179 156.47700000000003 123.968 165.54600000000005 C 123.928 167.22400000000005 123.789 169.15200000000004 122.634 170.79800000000006 C 121.294 172.70900000000006 119.072 173.57100000000005 116.91 174.29200000000006 C 106.431 177.79100000000005 95.28099999999999 180.57700000000006 82.824 182.80900000000005 C 79.443 183.41400000000004 75.928 183.96900000000005 72.42 183.96900000000005 Z" stroke-linecap="round" />
</g>
		<g transform="matrix(1 0 0 1 -0.01 -17.89)"  >
<path style="stroke: none; stroke-width: 0; stroke-dasharray: none; stroke-linecap: butt; stroke-dashoffset: 0; stroke-linejoin: miter; stroke-miterlimit: 4; fill: rgb(235,100,104); fill-rule: nonzero; opacity: 1;"  transform=" translate(-61.99, -74.09)" d="M 9.8 104.63 C 4.44 97.71 0.6850000000000005 89.05099999999999 1.6480000000000015 80.351 C 2.6110000000000015 71.651 9.291 63.293 17.999000000000002 62.4 C 14.401000000000003 55.414 11.677000000000003 47.977999999999994 9.910000000000002 40.321 C 9.023000000000001 36.477 8.402000000000001 32.317 9.953000000000001 28.689999999999998 C 10.884 26.512999999999998 12.524000000000001 24.723 14.225000000000001 23.074999999999996 C 30.702 7.116 54.783 1.206 77.72 1.513 C 82.949 1.583 88.236 1.952 93.215 3.552 C 106.924 7.958 116.28200000000001 21.239 119.94800000000001 35.164 C 123.614 49.089 122.537 63.766000000000005 121.43400000000001 78.123 C 120.31700000000001 92.662 119.20000000000002 107.202 118.08200000000001 121.74100000000001 C 117.83900000000001 124.90700000000001 117.57900000000001 128.14100000000002 116.32000000000001 131.056 C 112.513 139.865 101.504 142.53900000000002 91.986 143.769 C 81.665 145.104 71.295 146.066 60.905 146.654 C 49.729 147.286 44.238 132.623 37.236000000000004 125.789 C 28.760000000000005 117.517 17.439000000000004 114.491 9.800000000000004 104.63 Z" stroke-linecap="round" />
</g>
		<g transform="matrix(1 0 0 1 0 -17.89)"  >
<path style="stroke: none; stroke-width: 0; stroke-dasharray: none; stroke-linecap: butt; stroke-dashoffset: 0; stroke-linejoin: miter; stroke-miterlimit: 4; fill: rgb(79,78,78); fill-rule: nonzero; opacity: 1;"  transform=" translate(-62, -74.09)" d="M 60.202 148.174 C 52.001999999999995 148.174 46.747 140.81 42.093999999999994 134.288 C 40.08599999999999 131.47400000000002 38.19 128.817 36.187 126.86300000000001 C 32.623 123.38400000000001 28.589999999999996 120.89600000000002 24.319999999999997 118.26200000000001 C 18.802999999999997 114.85900000000001 13.098999999999997 111.33900000000001 8.613999999999997 105.54800000000002 L 8.613999999999997 105.54800000000002 C 2.258 97.341 -0.745 88.334 0.157 80.186 C 1.184 70.911 7.717 63.14800000000001 15.749 61.26100000000001 C 12.544 54.69900000000001 10.091000000000001 47.778000000000006 8.447000000000001 40.659000000000006 C 7.538000000000001 36.720000000000006 6.8420000000000005 32.14800000000001 8.572000000000001 28.101000000000006 C 9.624 25.643000000000008 11.408000000000001 23.715000000000007 13.18 21.999000000000006 C 28.186 7.464 51.119 -0.362 77.74 0.013 C 82.57199999999999 0.077 88.244 0.379 93.67399999999999 2.124 C 106.56299999999999 6.2669999999999995 117.187 18.781 121.399 34.782000000000004 C 125.169 49.098000000000006 124.031 63.912000000000006 122.93 78.238 L 119.578 121.856 C 119.339 124.961 119.068 128.48 117.697 131.652 C 113.468 141.438 101.108 144.10399999999998 92.178 145.25799999999998 C 81.872 146.59099999999998 71.378 147.56599999999997 60.989 148.15399999999997 C 60.724 148.16899999999995 60.461 148.17599999999996 60.201 148.17599999999996 Z M 10.986 103.712 C 15.138000000000002 109.07300000000001 20.363 112.296 25.896 115.71000000000001 C 30.117 118.313 34.481 121.00600000000001 38.284 124.71600000000001 C 40.477 126.85700000000001 42.449 129.62 44.537 132.54600000000002 C 49.1 138.94100000000003 53.803 145.58200000000002 60.821 145.157 C 71.139 144.574 81.56 143.60600000000002 91.795 142.28300000000002 C 100.691 141.133 111.362 138.75000000000003 114.944 130.461 C 116.116 127.75000000000001 116.35600000000001 124.63700000000001 116.58800000000001 121.626 L 119.94000000000001 78.00800000000001 C 121.02100000000002 63.93000000000001 122.138 49.373000000000005 118.49900000000001 35.54600000000001 C 115.39900000000002 23.773000000000007 107.01 9.561000000000007 92.757 4.981000000000005 C 87.70500000000001 3.357000000000005 82.311 3.0750000000000055 77.70100000000001 3.014000000000005 C 51.86200000000001 2.6540000000000052 29.701000000000008 10.176000000000005 15.27000000000001 24.154000000000007 C 13.72400000000001 25.652000000000008 12.17600000000001 27.310000000000006 11.33300000000001 29.281000000000006 C 9.945000000000011 32.526 10.531000000000011 36.343 11.37200000000001 39.98500000000001 C 13.11300000000001 47.52600000000001 15.791000000000011 54.836000000000006 19.33400000000001 61.714000000000006 L 20.34100000000001 63.669000000000004 L 18.15400000000001 63.893 C 9.81400000000001 64.748 3.9710000000000107 73.017 3.1410000000000107 80.517 C 2.325000000000011 87.88799999999999 5.11100000000001 96.125 10.98800000000001 103.713 L 10.98800000000001 103.713 Z" stroke-linecap="round" />
</g>
		<g transform="matrix(1 0 0 1 -37.63 -20.01)"  >
<path style="stroke: none; stroke-width: 0; stroke-dasharray: none; stroke-linecap: butt; stroke-dashoffset: 0; stroke-linejoin: miter; stroke-miterlimit: 4; fill: rgb(79,78,78); fill-rule: nonzero; opacity: 1;"  transform=" translate(-24.37, -71.97)" d="M 36.811 97.439 C 36.801 97.439 36.791 97.439 36.781 97.439 C 35.952999999999996 97.42299999999999 35.295 96.738 35.311 95.91 C 35.383 92.247 34.183 88.383 31.84 84.735 C 30.755 83.045 29.499 81.496 28.169 79.856 C 27.611 79.167 27.053 78.479 26.509 77.78099999999999 C 19.604 68.92099999999999 15.001000000000001 58.596999999999994 10.551 48.61399999999999 C 10.214 47.85699999999999 10.554 46.96999999999999 11.31 46.63299999999999 C 12.068000000000001 46.29699999999999 12.953000000000001 46.63599999999999 13.291 47.39199999999999 C 17.668 57.21099999999999 22.195 67.36499999999998 28.875 75.93699999999998 C 29.407 76.61999999999999 29.953 77.29299999999998 30.499 77.96599999999998 C 31.822 79.59699999999998 33.189 81.28299999999999 34.364 83.11399999999998 C 37.028999999999996 87.26299999999998 38.394 91.70899999999997 38.309999999999995 95.96899999999998 C 38.294 96.78699999999998 37.626 97.43899999999998 36.81099999999999 97.43899999999998 Z" stroke-linecap="round" />
</g>
		<g transform="matrix(1 0 0 1 24.7 59.48)"  >
<path style="stroke: none; stroke-width: 0; stroke-dasharray: none; stroke-linecap: butt; stroke-dashoffset: 0; stroke-linejoin: miter; stroke-miterlimit: 4; fill: rgb(79,78,78); fill-rule: nonzero; opacity: 1;"  transform=" translate(-86.7, -151.46)" d="M 54.449 159.687 C 53.620999999999995 159.687 52.949999999999996 159.01600000000002 52.949 158.18800000000002 C 52.949 157.36 53.619 156.68800000000002 54.448 156.687 C 74.874 156.669 101.144 151.19400000000002 118.333 143.372 C 119.086 143.02700000000002 119.977 143.36100000000002 120.319 144.116 C 120.662 144.87 120.32900000000001 145.76000000000002 119.575 146.102 C 101.761 154.21 75.589 159.668 54.45100000000001 159.687 L 54.45000000000001 159.687 Z" stroke-linecap="round" />
</g>
		<g transform="matrix(1 0 0 1 27.16 72.64)"  >
<path style="stroke: none; stroke-width: 0; stroke-dasharray: none; stroke-linecap: butt; stroke-dashoffset: 0; stroke-linejoin: miter; stroke-miterlimit: 4; fill: rgb(79,78,78); fill-rule: nonzero; opacity: 1;"  transform=" translate(-89.16, -164.62)" d="M 65.665 172.562 C 63.059000000000005 172.562 60.45100000000001 172.48000000000002 57.843 172.315 C 57.016000000000005 172.262 56.388000000000005 171.549 56.441 170.72299999999998 C 56.493 169.896 57.21 169.27999999999997 58.033 169.321 C 79.307 170.67 100.638 166.355 119.717 156.844 C 120.458 156.477 121.36 156.777 121.729 157.518 C 122.098 158.25900000000001 121.79599999999999 159.16 121.05499999999999 159.53 C 103.84299999999999 168.109 84.841 172.562 65.66499999999999 172.562 Z" stroke-linecap="round" />
</g>
</g>
</g>
</svg>