<?xml version="1.0" encoding="UTF-8"?>
                <svg xmlns="http://www.w3.org/2000/svg" 
                    xmlns:xlink="http://www.w3.org/1999/xlink"
                    width="506" 
                    height="303.59999999999997" 
                    viewBox="0 0 506 303.59999999999997">
                    <defs>
                        







                    </defs>
                    
                    <g transform="translate(0, 0)">
                        <g transform="matrix(0.84 0 0 0.74 253.32 37.87)"  >
<g style=""   >
		<g transform="matrix(1 0 0 1 0 3.8)"  >
<linearGradient id="SVGID_89" gradientUnits="userSpaceOnUse" gradientTransform="matrix(1 0 0 1 -301.57 -54.97)"  x1="0" y1="54.967" x2="603.153" y2="54.967">
<stop offset="0%" style="stop-color:rgb(222,112,173);stop-opacity: 1"/>
<stop offset="2.9000000000000004%" style="stop-color:rgb(222,112,173);stop-opacity: 1"/>
<stop offset="17.599999999999998%" style="stop-color:rgb(222,112,173);stop-opacity: 1"/>
<stop offset="27.1%" style="stop-color:rgb(222,112,173);stop-opacity: 1"/>
<stop offset="45.300000000000004%" style="stop-color:rgb(222,112,173);stop-opacity: 1"/>
<stop offset="76.2%" style="stop-color:rgb(222,112,173);stop-opacity: 1"/>
<stop offset="100%" style="stop-color:rgb(222,112,173);stop-opacity: 1"/>
</linearGradient>
<rect style="stroke: none; stroke-width: 0; stroke-dasharray: none; stroke-linecap: butt; stroke-dashoffset: 0; stroke-linejoin: miter; stroke-miterlimit: 4; fill: url(#SVGID_89); fill-rule: nonzero; opacity: 1;"  x="-301.575" y="-43.865" rx="7" ry="7" width="603.15" height="87.73" />
</g>
		<g transform="matrix(1 0 0 1 0 7.3)"  >
<linearGradient id="SVGID_90" gradientUnits="userSpaceOnUse" gradientTransform="matrix(1 0 0 1 -301.57 -58.48)"  x1="0" y1="58.48" x2="603.153" y2="58.48">
<stop offset="0%" style="stop-color:rgb(222,112,173);stop-opacity: 1"/>
<stop offset="2.9000000000000004%" style="stop-color:rgb(222,112,173);stop-opacity: 1"/>
<stop offset="17.599999999999998%" style="stop-color:rgb(222,112,173);stop-opacity: 1"/>
<stop offset="27.1%" style="stop-color:rgb(222,112,173);stop-opacity: 1"/>
<stop offset="45.300000000000004%" style="stop-color:rgb(222,112,173);stop-opacity: 1"/>
<stop offset="76.2%" style="stop-color:rgb(222,112,173);stop-opacity: 1"/>
<stop offset="100%" style="stop-color:rgb(222,112,173);stop-opacity: 1"/>
</linearGradient>
<rect style="stroke: none; stroke-width: 0; stroke-dasharray: none; stroke-linecap: butt; stroke-dashoffset: 0; stroke-linejoin: miter; stroke-miterlimit: 4; fill: url(#SVGID_90); fill-rule: nonzero; opacity: 1;"  x="-301.575" y="-43.865" rx="7" ry="7" width="603.15" height="87.73" />
</g>
		<g transform="matrix(1 0 0 1 0 -7.3)"  >
<linearGradient id="SVGID_91" gradientUnits="userSpaceOnUse" gradientTransform="matrix(1 0 0 1 -301.57 -43.87)"  x1="0" y1="43.866" x2="603.153" y2="43.866">
<stop offset="0%" style="stop-color:rgb(242,132,193);stop-opacity: 1"/>
<stop offset="12.5%" style="stop-color:rgb(242,132,193);stop-opacity: 1"/>
<stop offset="27.1%" style="stop-color:rgb(242,132,193);stop-opacity: 1"/>
<stop offset="66.4%" style="stop-color:rgb(242,132,193);stop-opacity: 1"/>
<stop offset="100%" style="stop-color:rgb(242,132,193);stop-opacity: 1"/>
</linearGradient>
<rect style="stroke: none; stroke-width: 0; stroke-dasharray: none; stroke-linecap: butt; stroke-dashoffset: 0; stroke-linejoin: miter; stroke-miterlimit: 4; fill: url(#SVGID_91); fill-rule: nonzero; opacity: 1;"  x="-301.575" y="-43.865" rx="7" ry="7" width="603.15" height="87.73" />
</g>
		<g transform="matrix(1 0 0 1 0 0.37)"  >
<linearGradient id="SVGID_92" gradientUnits="userSpaceOnUse" gradientTransform="matrix(1 0 0 1 -301.57 -51.54)"  x1="0" y1="51.544" x2="603.153" y2="51.544">
<stop offset="0%" style="stop-color:rgb(197,87,148);stop-opacity: 1"/>
<stop offset="5.7%" style="stop-color:rgb(212,102,163);stop-opacity: 1"/>
<stop offset="12.8%" style="stop-color:rgb(222,112,173);stop-opacity: 1"/>
<stop offset="18.3%" style="stop-color:rgb(232,122,183);stop-opacity: 1"/>
<stop offset="62.5%" style="stop-color:rgb(232,122,183);stop-opacity: 1"/>
<stop offset="78.4%" style="stop-color:rgb(222,112,173);stop-opacity: 1"/>
<stop offset="89.7%" style="stop-color:rgb(212,102,163);stop-opacity: 1"/>
<stop offset="98.8%" style="stop-color:rgb(202,92,153);stop-opacity: 1"/>
<stop offset="100%" style="stop-color:rgb(197,87,148);stop-opacity: 1"/>
</linearGradient>
<rect style="stroke: none; stroke-width: 0; stroke-dasharray: none; stroke-linecap: butt; stroke-dashoffset: 0; stroke-linejoin: miter; stroke-miterlimit: 4; fill: url(#SVGID_92); fill-rule: nonzero; opacity: 1;"  x="-301.575" y="-43.865" rx="0" ry="0" width="603.15" height="87.73" />
</g>
</g>
</g>
                    </g>

                    <g transform="translate(0, 75.89999999999999)">
                        <g transform="matrix(0.84 0 0 0.74 253.32 37.87)"  >
<g style=""   >
		<g transform="matrix(1 0 0 1 0 3.8)"  >
<linearGradient id="SVGID_93" gradientUnits="userSpaceOnUse" gradientTransform="matrix(1 0 0 1 -301.57 -54.97)"  x1="0" y1="54.967" x2="603.153" y2="54.967">
<stop offset="0%" style="stop-color:rgb(222,112,173);stop-opacity: 1"/>
<stop offset="2.9000000000000004%" style="stop-color:rgb(222,112,173);stop-opacity: 1"/>
<stop offset="17.599999999999998%" style="stop-color:rgb(222,112,173);stop-opacity: 1"/>
<stop offset="27.1%" style="stop-color:rgb(222,112,173);stop-opacity: 1"/>
<stop offset="45.300000000000004%" style="stop-color:rgb(222,112,173);stop-opacity: 1"/>
<stop offset="76.2%" style="stop-color:rgb(222,112,173);stop-opacity: 1"/>
<stop offset="100%" style="stop-color:rgb(222,112,173);stop-opacity: 1"/>
</linearGradient>
<rect style="stroke: none; stroke-width: 0; stroke-dasharray: none; stroke-linecap: butt; stroke-dashoffset: 0; stroke-linejoin: miter; stroke-miterlimit: 4; fill: url(#SVGID_93); fill-rule: nonzero; opacity: 1;"  x="-301.575" y="-43.865" rx="7" ry="7" width="603.15" height="87.73" />
</g>
		<g transform="matrix(1 0 0 1 0 7.3)"  >
<linearGradient id="SVGID_94" gradientUnits="userSpaceOnUse" gradientTransform="matrix(1 0 0 1 -301.57 -58.48)"  x1="0" y1="58.48" x2="603.153" y2="58.48">
<stop offset="0%" style="stop-color:rgb(222,112,173);stop-opacity: 1"/>
<stop offset="2.9000000000000004%" style="stop-color:rgb(222,112,173);stop-opacity: 1"/>
<stop offset="17.599999999999998%" style="stop-color:rgb(222,112,173);stop-opacity: 1"/>
<stop offset="27.1%" style="stop-color:rgb(222,112,173);stop-opacity: 1"/>
<stop offset="45.300000000000004%" style="stop-color:rgb(222,112,173);stop-opacity: 1"/>
<stop offset="76.2%" style="stop-color:rgb(222,112,173);stop-opacity: 1"/>
<stop offset="100%" style="stop-color:rgb(222,112,173);stop-opacity: 1"/>
</linearGradient>
<rect style="stroke: none; stroke-width: 0; stroke-dasharray: none; stroke-linecap: butt; stroke-dashoffset: 0; stroke-linejoin: miter; stroke-miterlimit: 4; fill: url(#SVGID_94); fill-rule: nonzero; opacity: 1;"  x="-301.575" y="-43.865" rx="7" ry="7" width="603.15" height="87.73" />
</g>
		<g transform="matrix(1 0 0 1 0 -7.3)"  >
<linearGradient id="SVGID_95" gradientUnits="userSpaceOnUse" gradientTransform="matrix(1 0 0 1 -301.57 -43.87)"  x1="0" y1="43.866" x2="603.153" y2="43.866">
<stop offset="0%" style="stop-color:rgb(242,132,193);stop-opacity: 1"/>
<stop offset="12.5%" style="stop-color:rgb(242,132,193);stop-opacity: 1"/>
<stop offset="27.1%" style="stop-color:rgb(242,132,193);stop-opacity: 1"/>
<stop offset="66.4%" style="stop-color:rgb(242,132,193);stop-opacity: 1"/>
<stop offset="100%" style="stop-color:rgb(242,132,193);stop-opacity: 1"/>
</linearGradient>
<rect style="stroke: none; stroke-width: 0; stroke-dasharray: none; stroke-linecap: butt; stroke-dashoffset: 0; stroke-linejoin: miter; stroke-miterlimit: 4; fill: url(#SVGID_95); fill-rule: nonzero; opacity: 1;"  x="-301.575" y="-43.865" rx="7" ry="7" width="603.15" height="87.73" />
</g>
		<g transform="matrix(1 0 0 1 0 0.37)"  >
<linearGradient id="SVGID_96" gradientUnits="userSpaceOnUse" gradientTransform="matrix(1 0 0 1 -301.57 -51.54)"  x1="0" y1="51.544" x2="603.153" y2="51.544">
<stop offset="0%" style="stop-color:rgb(197,87,148);stop-opacity: 1"/>
<stop offset="5.7%" style="stop-color:rgb(212,102,163);stop-opacity: 1"/>
<stop offset="12.8%" style="stop-color:rgb(222,112,173);stop-opacity: 1"/>
<stop offset="18.3%" style="stop-color:rgb(232,122,183);stop-opacity: 1"/>
<stop offset="62.5%" style="stop-color:rgb(232,122,183);stop-opacity: 1"/>
<stop offset="78.4%" style="stop-color:rgb(222,112,173);stop-opacity: 1"/>
<stop offset="89.7%" style="stop-color:rgb(212,102,163);stop-opacity: 1"/>
<stop offset="98.8%" style="stop-color:rgb(202,92,153);stop-opacity: 1"/>
<stop offset="100%" style="stop-color:rgb(197,87,148);stop-opacity: 1"/>
</linearGradient>
<rect style="stroke: none; stroke-width: 0; stroke-dasharray: none; stroke-linecap: butt; stroke-dashoffset: 0; stroke-linejoin: miter; stroke-miterlimit: 4; fill: url(#SVGID_96); fill-rule: nonzero; opacity: 1;"  x="-301.575" y="-43.865" rx="0" ry="0" width="603.15" height="87.73" />
</g>
</g>
</g>
                    </g>

                    <g transform="translate(0, 151.79999999999998)">
                        <g transform="matrix(0.84 0 0 0.74 253.98 37.87)"  >
<linearGradient id="SVGID_97" gradientUnits="userSpaceOnUse" gradientTransform="matrix(1 0 0 1 0 0)"  x1="0" y1="51.173" x2="604.72" y2="51.173">
<stop offset="0%" style="stop-color:rgb(197,87,148);stop-opacity: 1"/>
<stop offset="5.7%" style="stop-color:rgb(212,102,163);stop-opacity: 1"/>
<stop offset="12.8%" style="stop-color:rgb(222,112,173);stop-opacity: 1"/>
<stop offset="18.3%" style="stop-color:rgb(232,122,183);stop-opacity: 1"/>
<stop offset="62.5%" style="stop-color:rgb(232,122,183);stop-opacity: 1"/>
<stop offset="78.4%" style="stop-color:rgb(222,112,173);stop-opacity: 1"/>
<stop offset="89.7%" style="stop-color:rgb(212,102,163);stop-opacity: 1"/>
<stop offset="98.8%" style="stop-color:rgb(202,92,153);stop-opacity: 1"/>
<stop offset="100%" style="stop-color:rgb(197,87,148);stop-opacity: 1"/>
</linearGradient>
<path style="stroke: none; stroke-width: 0; stroke-dasharray: none; stroke-linecap: butt; stroke-dashoffset: 0; stroke-linejoin: miter; stroke-miterlimit: 4; fill: url(#SVGID_97); fill-rule: nonzero; opacity: 1;"  transform=" translate(-302.36, -51.17)" d="M 604.72 102.346 L 0 102.346 C 4.004 102.346 4.004 0 0 0 L 604.72 0 C 600.5400000000001 0 600.5400000000001 102.346 604.72 102.346 Z" stroke-linecap="round" />
</g>
<g id="43563742-e8c2-4457-a5a0-592d3872e1f7" clip-path="url(#CLIPPATH_98)"  >
<g transform="matrix(1 0 0 1 272.98 59.84)"  >
<clipPath id="CLIPPATH_98" >
	<rect transform="matrix(1 0 0 1 253.5 38.45)" x="-215.04999999999998" y="-28.4625" rx="0" ry="0" width="430.09999999999997" height="56.925" />
</clipPath>
<g style=""   >
		<g transform="matrix(0.51 0 0 0.51 0.22 0.35)"  >
<g style=""   >
		<g transform="matrix(1 0 0 1 42.79 -60.3)"  >
<path style="stroke: rgb(255,255,255); stroke-width: 1; stroke-dasharray: none; stroke-linecap: butt; stroke-dashoffset: 0; stroke-linejoin: miter; stroke-miterlimit: 4; fill: rgb(255,255,255); fill-rule: nonzero; opacity: 1;"  transform=" translate(-91.75, -17.27)" d="M 86.166 13.431 C 87.005 11.447999999999999 88.74 9.863999999999999 90.792 9.210999999999999 C 91.35000000000001 9.032999999999998 92.065 8.966 92.425 9.428999999999998 C 92.715 9.800999999999998 92.625 10.326999999999998 92.6 10.796999999999999 C 92.57499999999999 11.267 92.72099999999999 11.850999999999999 93.17999999999999 11.957999999999998 C 93.398 12.008999999999999 93.62499999999999 11.929999999999998 93.848 11.95 C 94.616 12.019 94.797 13.052999999999999 94.75 13.822999999999999 C 94.738 14.014 94.731 14.221999999999998 94.845 14.374999999999998 C 95.028 14.618999999999998 95.395 14.580999999999998 95.698 14.615999999999998 C 96.76799999999999 14.739999999999998 97.28699999999999 16.336 96.493 17.064999999999998 C 97.49499999999999 17.186999999999998 98.169 18.269 98.142 19.278 C 98.115 20.287 97.55799999999999 21.205 96.922 21.99 C 95.467 23.787 93.411 25.2 91.11099999999999 25.438 C 88.81099999999999 25.676 86.31099999999999 24.535999999999998 85.35699999999999 22.429" stroke-linecap="round" />
</g>
		<g transform="matrix(1 0 0 1 42.78 -60.31)"  >
<path style="stroke: rgb(255,255,255); stroke-width: 1; stroke-dasharray: none; stroke-linecap: butt; stroke-dashoffset: 0; stroke-linejoin: miter; stroke-miterlimit: 4; fill: rgb(255,255,255); fill-rule: nonzero; opacity: 1;"  transform=" translate(-91.74, -17.26)" d="M 86.849 13.83 C 87.336 12.7 88.092 11.697 89.077 10.971 C 89.581 10.6 90.149 10.278 90.72 10.07 C 90.919 9.997 91.301 9.883000000000001 91.414 9.874 C 91.474 9.869 91.534 9.867 91.59400000000001 9.867 C 91.81 9.870000000000001 91.52700000000002 9.824000000000002 91.72800000000001 9.882000000000001 C 91.74000000000001 9.885000000000002 91.873 9.927000000000001 91.77100000000002 9.894000000000002 C 91.91800000000002 9.942000000000002 91.82400000000001 9.950000000000001 91.79800000000002 9.910000000000002 C 91.88300000000001 10.043000000000003 91.83400000000002 10.418000000000003 91.81900000000002 10.644000000000002 C 91.79700000000001 10.980000000000002 91.81500000000001 11.322000000000003 91.91700000000002 11.645000000000001 C 92.15600000000002 12.399000000000001 92.92000000000002 12.958000000000002 93.73600000000002 12.738000000000001 C 93.69800000000002 12.748000000000001 93.74500000000002 12.735000000000001 93.78300000000002 12.738000000000001 C 93.64400000000002 12.725000000000001 93.84200000000001 12.789000000000001 93.73500000000001 12.699000000000002 C 93.76900000000002 12.727000000000002 93.80400000000002 12.764000000000001 93.83100000000002 12.798000000000002 C 93.74000000000002 12.682000000000002 93.82300000000002 12.795000000000002 93.82800000000002 12.816000000000003 C 93.87700000000002 13.040000000000003 93.79400000000001 12.678000000000003 93.86800000000002 12.907000000000002 C 93.88400000000003 12.958000000000002 93.89900000000003 13.009000000000002 93.91200000000002 13.061000000000002 C 93.92500000000003 13.114000000000003 93.93600000000002 13.167000000000002 93.94600000000003 13.221000000000002 C 93.96200000000003 13.318000000000001 93.96400000000003 13.329000000000002 93.95100000000002 13.257000000000001 C 93.95500000000003 13.298000000000002 93.95800000000003 13.340000000000002 93.96000000000002 13.381000000000002 C 93.96800000000002 13.693000000000001 93.92600000000002 14.015000000000002 93.98800000000003 14.324000000000002 C 94.08000000000003 14.778000000000002 94.38600000000002 15.128000000000002 94.82100000000003 15.282000000000002 C 94.99300000000002 15.343000000000002 95.17200000000003 15.364000000000003 95.35400000000003 15.381000000000002 C 95.44000000000003 15.389000000000001 95.52800000000003 15.388000000000002 95.61400000000003 15.399000000000003 C 95.48500000000003 15.382000000000003 95.66500000000003 15.415000000000003 95.69900000000003 15.424000000000003 C 95.53100000000002 15.380000000000003 95.90100000000002 15.570000000000004 95.77400000000003 15.461000000000004 C 95.81900000000003 15.500000000000004 95.85900000000002 15.542000000000003 95.90000000000003 15.585000000000004 C 95.93600000000004 15.627000000000004 95.93200000000003 15.620000000000005 95.88800000000003 15.564000000000004 C 95.91600000000004 15.603000000000003 95.94100000000003 15.643000000000004 95.96500000000003 15.685000000000004 C 95.98900000000003 15.726000000000004 96.01200000000003 15.769000000000004 96.03200000000002 15.813000000000004 C 95.96500000000003 15.671000000000005 96.04800000000003 15.877000000000004 96.05300000000003 15.895000000000005 C 96.05200000000002 15.890000000000004 96.10000000000002 16.120000000000005 96.08200000000002 16.002000000000006 C 96.06800000000003 15.910000000000005 96.08500000000002 16.122000000000007 96.08600000000003 16.147000000000006 C 96.08900000000003 16.193000000000005 96.06100000000002 16.342000000000006 96.09100000000002 16.184000000000005 C 96.07800000000002 16.253000000000004 96.06000000000002 16.320000000000004 96.03700000000002 16.387000000000004 C 96.08300000000003 16.253000000000004 96.05300000000003 16.363000000000003 96.03000000000002 16.389000000000003 C 95.98000000000002 16.464000000000002 95.98100000000001 16.469 96.03300000000002 16.403000000000002 C 96.00200000000001 16.44 95.96900000000002 16.475 95.93300000000002 16.508000000000003 C 95.54500000000002 16.888 95.67700000000002 17.738000000000003 96.28200000000002 17.829000000000004 C 96.75300000000003 17.900000000000006 97.01100000000002 18.119000000000003 97.22200000000002 18.588000000000005 C 97.40000000000002 18.983000000000004 97.38000000000002 19.491000000000003 97.20300000000002 20.013000000000005 C 96.81500000000001 21.157000000000004 95.81200000000001 22.158000000000005 94.90800000000002 22.918000000000006 C 93.99900000000001 23.682000000000006 92.92100000000002 24.260000000000005 91.76300000000002 24.532000000000007 C 90.66700000000002 24.78900000000001 89.62300000000002 24.711000000000006 88.57700000000003 24.328000000000007 C 87.47900000000003 23.926000000000005 86.55100000000003 23.130000000000006 86.04000000000002 22.032000000000007 C 85.86000000000001 21.645000000000007 85.30200000000002 21.547000000000008 84.95800000000003 21.748000000000008 C 84.56100000000002 21.980000000000008 84.49400000000003 22.44100000000001 84.67400000000002 22.83000000000001 C 85.91400000000002 25.49600000000001 89.11900000000003 26.64100000000001 91.88200000000002 26.120000000000008 C 93.39200000000002 25.835000000000008 94.76900000000002 25.07100000000001 95.94600000000003 24.10300000000001 C 97.12300000000003 23.13500000000001 98.30700000000003 21.82100000000001 98.76100000000002 20.332000000000008 C 99.24200000000002 18.756000000000007 98.53600000000003 16.582000000000008 96.70200000000003 16.305000000000007 L 97.05100000000003 17.62600000000001 C 98.06600000000003 16.631000000000007 97.74600000000002 14.816000000000008 96.56100000000004 14.097000000000008 C 96.23800000000004 13.90000000000001 95.89600000000003 13.842000000000008 95.52600000000004 13.813000000000008 C 95.55500000000004 13.815000000000008 95.26900000000003 13.796000000000008 95.37300000000003 13.803000000000008 L 95.39400000000003 13.805000000000009 C 95.30000000000004 13.779000000000009 95.28800000000004 13.77800000000001 95.35900000000004 13.801000000000009 C 95.59700000000004 14.263000000000009 95.54100000000004 13.85200000000001 95.54500000000004 13.667000000000009 C 95.55800000000005 12.97300000000001 95.41700000000004 12.21700000000001 94.94800000000005 11.68200000000001 C 94.71900000000005 11.42100000000001 94.39800000000005 11.24500000000001 94.05700000000004 11.189000000000009 C 94.03700000000005 11.186000000000009 93.41900000000004 11.11400000000001 93.39900000000004 11.184000000000008 C 93.38800000000005 11.223000000000008 93.47500000000004 11.219000000000008 93.46400000000004 11.252000000000008 C 93.49300000000004 11.305000000000009 93.49400000000004 11.307000000000007 93.46500000000005 11.260000000000007 C 93.44000000000004 11.213000000000006 93.43700000000004 11.215000000000007 93.45400000000005 11.265000000000008 C 93.34600000000005 10.990000000000007 93.39900000000004 10.750000000000007 93.41600000000005 10.385000000000007 C 93.43600000000005 9.947000000000006 93.38500000000005 9.498000000000006 93.16200000000005 9.112000000000007 C 92.25900000000004 7.548000000000007 89.99700000000004 8.542000000000007 88.85600000000005 9.223000000000008 C 87.38000000000005 10.104000000000008 86.16200000000005 11.452000000000009 85.48100000000005 13.033000000000008 C 85.31200000000005 13.425000000000008 85.36500000000005 13.881000000000009 85.76500000000006 14.115000000000009 C 86.09900000000006 14.31000000000001 86.67700000000006 14.22600000000001 86.84700000000005 13.831000000000008 L 86.84700000000005 13.831000000000008 Z" stroke-linecap="round" />
</g>
		<g transform="matrix(1 0 0 1 38.18 -61.08)"  >
<path style="stroke: rgb(255,255,255); stroke-width: 1; stroke-dasharray: none; stroke-linecap: butt; stroke-dashoffset: 0; stroke-linejoin: miter; stroke-miterlimit: 4; fill: rgb(255,255,255); fill-rule: nonzero; opacity: 1;"  transform=" translate(-87.13, -16.49)" d="M 83.702 20.236 C 82.89 18.5 83.024 16.354 84.04599999999999 14.733 C 84.874 13.42 86.46199999999999 12.432 87.958 12.848 C 89.108 13.168000000000001 89.895 14.196000000000002 90.595 15.162 C 90.757 15.386000000000001 90.92099999999999 15.613000000000001 91.015 15.873000000000001 C 91.382 16.892 90.242 18.092000000000002 89.206 17.778000000000002" stroke-linecap="round" />
</g>
		<g transform="matrix(1 0 0 1 38.17 -61.07)"  >
<path style="stroke: rgb(255,255,255); stroke-width: 1; stroke-dasharray: none; stroke-linecap: butt; stroke-dashoffset: 0; stroke-linejoin: miter; stroke-miterlimit: 4; fill: rgb(255,255,255); fill-rule: nonzero; opacity: 1;"  transform=" translate(-87.13, -16.5)" d="M 84.385 19.837 C 83.561 18.029 83.93900000000001 15.638 85.44900000000001 14.3 C 86.15 13.679 87.04700000000001 13.370000000000001 87.89000000000001 13.654 C 88.74200000000002 13.941 89.38400000000001 14.827 89.91300000000001 15.561 C 90.01700000000001 15.705 90.12500000000001 15.848 90.20800000000001 16.005 C 90.23600000000002 16.058 90.302 16.294 90.29200000000002 16.198999999999998 C 90.31200000000001 16.391 90.27500000000002 16.482 90.16200000000002 16.660999999999998 C 90.11200000000002 16.738999999999997 90.12000000000002 16.727999999999998 90.01800000000001 16.825999999999997 C 89.96000000000001 16.881999999999998 89.92700000000002 16.908999999999995 89.80600000000001 16.972999999999995 C 89.80300000000001 16.974999999999994 89.68400000000001 17.029999999999994 89.56900000000002 17.044999999999995 C 89.69100000000002 17.028999999999996 89.55400000000002 17.038999999999994 89.53500000000001 17.037999999999993 C 89.373 17.023999999999994 89.59200000000001 17.061999999999994 89.41600000000001 17.014999999999993 C 88.43100000000001 16.754999999999992 88.01100000000001 18.279999999999994 88.99600000000001 18.539999999999992 C 90.39800000000001 18.909999999999993 91.876 17.72499999999999 91.876 16.279999999999994 C 91.876 15.493999999999994 91.372 14.870999999999993 90.91900000000001 14.277999999999995 C 90.46900000000001 13.686999999999996 89.99700000000001 13.134999999999994 89.39600000000002 12.691999999999995 C 88.20100000000002 11.810999999999995 86.70100000000002 11.776999999999994 85.39700000000002 12.436999999999994 C 84.08000000000003 13.102999999999994 83.16500000000002 14.369999999999994 82.70900000000002 15.747999999999994 C 82.17700000000002 17.354999999999993 82.32300000000002 19.105999999999995 83.02000000000002 20.634999999999994 C 83.19700000000003 21.023999999999994 83.76000000000002 21.118999999999993 84.10200000000002 20.918999999999993 C 84.50100000000002 20.68499999999999 84.56300000000002 20.226999999999993 84.38600000000002 19.836999999999993 L 84.38600000000002 19.836999999999993 Z" stroke-linecap="round" />
</g>
		<g transform="matrix(1 0 0 1 5.59 -39.51)"  >
<path style="stroke: rgb(255,255,255); stroke-width: 1; stroke-dasharray: none; stroke-linecap: butt; stroke-dashoffset: 0; stroke-linejoin: miter; stroke-miterlimit: 4; fill: rgb(255,255,255); fill-rule: nonzero; opacity: 1;"  transform=" translate(-54.54, -38.06)" d="M 19.27 20.375 C 20.265 16.961 21.251 13.676 23.582 10.597 C 28.16 4.549 34.783 0.775 42.038 0.803 C 55.187 0.8550000000000001 64.445 6.512 69.673 18.466 C 72.258 24.376 73.965 30.735 76.175 36.844 C 77.36099999999999 40.122 78.624 43.5 81.047 46.006 C 82.842 47.863 85.15899999999999 49.116 87.185 50.717 C 89.21100000000001 52.318 91.045 54.49 91.211 57.067 C 91.377 59.644 89.149 62.419 86.605 61.976 C 87.793 64.211 87.37100000000001 67.191 85.608 69.007 C 83.845 70.82300000000001 80.879 71.334 78.60900000000001 70.21300000000001 C 77.436 73.045 74.418 74.78800000000001 71.38000000000001 75.20100000000001 C 68.34200000000001 75.614 65.269 74.906 62.32900000000001 74.039 C 39.30700000000001 67.25 11.232000000000006 47.963 19.269000000000005 20.375 Z" stroke-linecap="round" />
</g>
		<g transform="matrix(1 0 0 1 5.58 -39.53)"  >
<path style="stroke: rgb(255,255,255); stroke-width: 1; stroke-dasharray: none; stroke-linecap: butt; stroke-dashoffset: 0; stroke-linejoin: miter; stroke-miterlimit: 4; fill: rgb(255,255,255); fill-rule: nonzero; opacity: 1;"  transform=" translate(-54.54, -38.05)" d="M 20.032 20.585 C 20.623 18.559 21.217 16.517000000000003 22.111 14.600000000000001 C 23.005000000000003 12.683 24.195 10.953000000000001 25.605 9.377000000000002 C 28.135 6.549000000000003 31.283 4.222000000000002 34.855000000000004 2.8930000000000025 C 36.598000000000006 2.2440000000000024 38.429 1.8120000000000025 40.285000000000004 1.6620000000000024 C 42.105000000000004 1.5150000000000023 43.957 1.6020000000000023 45.773 1.7700000000000025 C 48.955000000000005 2.0660000000000025 52.263000000000005 2.823000000000002 55.155 4.108000000000002 C 57.999 5.3720000000000026 60.517 7.099000000000002 62.691 9.288000000000002 C 65.04 11.654000000000002 66.879 14.441000000000003 68.33800000000001 17.448 C 70.328 21.549 71.70200000000001 25.942 73.11600000000001 30.264000000000003 C 73.85900000000001 32.535000000000004 74.60100000000001 34.807 75.41400000000002 37.05500000000001 C 76.13700000000001 39.056000000000004 76.87800000000001 41.068000000000005 77.89200000000001 42.94400000000001 C 78.92500000000001 44.85600000000001 80.272 46.54100000000001 81.971 47.90000000000001 C 83.665 49.25500000000001 85.569 50.338000000000015 87.21000000000001 51.759000000000015 C 88.623 52.98300000000001 89.91000000000001 54.50400000000001 90.322 56.37300000000001 C 90.667 57.94100000000001 90.086 59.671000000000014 88.787 60.64500000000001 C 88.20400000000001 61.08200000000001 87.498 61.32300000000001 86.81700000000001 61.21500000000001 C 86.14 61.10800000000001 85.58600000000001 61.72500000000001 85.924 62.37600000000001 C 86.71000000000001 63.890000000000015 86.667 65.79700000000001 85.873 67.30000000000001 C 85.072 68.81600000000002 83.52900000000001 69.81800000000001 81.824 69.98600000000002 C 80.865 70.08000000000001 79.883 69.95200000000001 79.00999999999999 69.53100000000002 C 78.66399999999999 69.36400000000002 78.10499999999999 69.39700000000002 77.928 69.81500000000003 C 76.583 72.98900000000003 73.11099999999999 74.46200000000003 69.837 74.52900000000002 C 67.681 74.57300000000002 65.562 74.12200000000003 63.495000000000005 73.55000000000003 C 62.05200000000001 73.15000000000002 60.62200000000001 72.69900000000003 59.205000000000005 72.21600000000002 C 53.641000000000005 70.32000000000002 48.291000000000004 67.87800000000003 43.21900000000001 64.87300000000002 C 38.11500000000001 61.84800000000002 33.34000000000001 58.27000000000002 29.24600000000001 53.96200000000002 C 25.40300000000001 49.91800000000002 22.16600000000001 45.152000000000015 20.35100000000001 39.887000000000015 C 18.45400000000001 34.38600000000002 18.17600000000001 28.537000000000013 19.44700000000001 22.858000000000015 C 19.61800000000001 22.094000000000015 19.81500000000001 21.336000000000016 20.03300000000001 20.584000000000014 C 20.317000000000007 19.605000000000015 18.791000000000007 19.187000000000015 18.50800000000001 20.164000000000012 C 16.77900000000001 26.129000000000012 16.57600000000001 32.46200000000001 18.25100000000001 38.46300000000001 C 19.82700000000001 44.11000000000001 22.925000000000008 49.211000000000006 26.77300000000001 53.59700000000001 C 30.79600000000001 58.18400000000001 35.64600000000001 62.02600000000001 40.80700000000001 65.25500000000001 C 45.96800000000001 68.48400000000001 51.537000000000006 71.13700000000001 57.27700000000001 73.21100000000001 C 60.565000000000005 74.39900000000002 63.970000000000006 75.549 67.45 75.97700000000002 C 71.165 76.43500000000002 75.297 75.67100000000002 77.90100000000001 72.76800000000001 C 78.477 72.12600000000002 78.95600000000002 71.40600000000002 79.293 70.61100000000002 L 78.21100000000001 70.89500000000002 C 80.24800000000002 71.87700000000002 82.67000000000002 71.80300000000003 84.65400000000001 70.71500000000002 C 86.66100000000002 69.61500000000002 87.86200000000001 67.52300000000002 88.04700000000001 65.27200000000002 C 88.15200000000002 63.996000000000016 87.87700000000001 62.71000000000002 87.28900000000002 61.57700000000002 L 86.39600000000002 62.73800000000002 C 88.38800000000002 63.05200000000002 90.17400000000002 61.95900000000002 91.18200000000002 60.26800000000002 C 92.26300000000002 58.45200000000002 92.18200000000002 56.36200000000002 91.34000000000002 54.47200000000002 C 89.48200000000001 50.30200000000002 84.91200000000002 48.70400000000002 81.83500000000002 45.675000000000026 C 80.29500000000002 44.15900000000003 79.22400000000002 42.258000000000024 78.35800000000002 40.29500000000002 C 77.44400000000002 38.22300000000002 76.71600000000002 36.059000000000026 75.98900000000002 33.916000000000025 C 74.40400000000002 29.242000000000026 72.99900000000002 24.501000000000026 71.14000000000001 19.924000000000024 C 69.70700000000001 16.398000000000025 67.96400000000001 13.047000000000025 65.54400000000001 10.092000000000024 C 63.46400000000001 7.553000000000024 60.91800000000001 5.389000000000023 58.049000000000014 3.7880000000000233 C 55.11400000000001 2.1500000000000234 51.875000000000014 1.0950000000000233 48.56500000000001 0.5470000000000232 C 44.783000000000015 -0.07999999999997676 40.799000000000014 -0.2949999999999767 37.04100000000001 0.5810000000000233 C 33.13900000000001 1.4900000000000233 29.55600000000001 3.4980000000000233 26.58200000000001 6.161000000000024 C 25.00900000000001 7.569000000000024 23.57600000000001 9.173000000000023 22.38300000000001 10.916000000000023 C 21.09900000000001 12.790000000000024 20.19200000000001 14.888000000000023 19.47000000000001 17.033000000000023 C 19.12200000000001 18.068000000000023 18.81400000000001 19.11600000000002 18.50900000000001 20.164000000000023 C 18.22400000000001 21.143000000000022 19.74900000000001 21.56100000000002 20.03400000000001 20.584000000000024 Z" stroke-linecap="round" />
</g>
		<g transform="matrix(1 0 0 1 17.42 69.77)"  >
<path style="stroke: rgb(255,255,255); stroke-width: 1; stroke-dasharray: none; stroke-linecap: butt; stroke-dashoffset: 0; stroke-linejoin: miter; stroke-miterlimit: 4; fill: rgb(255,255,255); fill-rule: nonzero; opacity: 1;"  transform=" translate(-66.38, -147.35)" d="M 62.709 155.352 C 66.04 155.27700000000002 69.345 154.207 72.084 152.309 C 72.471 152.041 72.863 151.737 73.057 151.308 C 73.291 150.787 73.191 150.183 73.078 149.623 C 72.378 146.171 71.846 140.92399999999998 67.99000000000001 139.557 C 66.42200000000001 139.00099999999998 64.647 139.55499999999998 63.281000000000006 140.504 C 62.11600000000001 141.313 61.11200000000001 142.489 60.91400000000001 143.89399999999998 C 60.64800000000001 145.78099999999998 61.39000000000001 147.41799999999998 60.71600000000001 149.34699999999998 C 60.373000000000005 150.331 59.82500000000001 151.248 59.62100000000001 152.26899999999998 C 59.41700000000001 153.28999999999996 59.66700000000001 154.515 60.56800000000001 155.03799999999998 C 61.03700000000001 155.30999999999997 61.60300000000001 155.349 62.14500000000001 155.355 C 62.33300000000001 155.357 62.52100000000001 155.356 62.70900000000001 155.352 Z" stroke-linecap="round" />
</g>
		<g transform="matrix(1 0 0 1 17.41 69.78)"  >
<path style="stroke: rgb(255,255,255); stroke-width: 1; stroke-dasharray: none; stroke-linecap: butt; stroke-dashoffset: 0; stroke-linejoin: miter; stroke-miterlimit: 4; fill: rgb(255,255,255); fill-rule: nonzero; opacity: 1;"  transform=" translate(-66.37, -147.35)" d="M 62.709 156.143 C 64.63300000000001 156.093 66.555 155.746 68.366 155.093 C 69.284 154.762 70.181 154.362 71.036 153.89 C 71.822 153.456 72.742 152.96499999999997 73.342 152.284 C 74.079 151.447 74.045 150.44799999999998 73.84 149.414 C 73.717 148.79399999999998 73.604 148.172 73.486 147.552 C 73.229 146.20399999999998 72.944 144.851 72.46600000000001 143.56099999999998 C 71.99300000000001 142.28499999999997 71.34500000000001 141.03199999999998 70.33900000000001 140.09099999999998 C 69.09400000000001 138.927 67.47000000000001 138.36399999999998 65.775 138.62499999999997 C 64.028 138.89399999999998 62.32300000000001 139.95299999999997 61.23700000000001 141.33699999999996 C 60.64500000000001 142.09099999999995 60.24600000000001 142.93899999999996 60.12400000000001 143.89499999999995 C 60.00300000000001 144.83999999999995 60.12000000000001 145.77299999999994 60.18600000000001 146.71699999999996 C 60.220000000000006 147.19999999999996 60.24100000000001 147.69299999999996 60.18500000000001 148.17599999999996 C 60.12400000000001 148.69699999999995 59.94900000000001 149.19799999999995 59.74600000000001 149.67899999999995 C 59.33000000000001 150.66799999999995 58.84400000000001 151.62899999999993 58.77200000000001 152.71799999999993 C 58.71100000000001 153.64599999999993 58.985000000000014 154.66999999999993 59.66300000000001 155.33399999999995 C 60.47900000000001 156.13299999999995 61.63700000000001 156.16399999999996 62.71000000000001 156.14299999999994 C 63.726000000000006 156.12299999999993 63.73000000000001 154.54199999999994 62.71000000000001 154.56199999999995 C 62.31000000000001 154.56999999999996 61.888000000000005 154.59399999999997 61.492000000000004 154.52899999999997 C 61.160000000000004 154.47499999999997 60.901 154.34499999999997 60.721000000000004 154.15299999999996 C 60.402 153.81099999999995 60.303000000000004 153.19399999999996 60.36000000000001 152.62599999999998 C 60.42700000000001 151.95899999999997 60.846000000000004 151.09699999999998 61.145 150.39399999999998 C 61.514 149.52599999999998 61.765 148.67099999999996 61.794000000000004 147.71999999999997 C 61.841 146.20099999999996 61.275000000000006 144.46999999999997 61.992000000000004 143.05799999999996 C 62.648 141.76499999999996 63.979000000000006 140.76999999999995 65.349 140.34199999999996 C 66.036 140.12799999999996 66.76700000000001 140.04099999999997 67.47 140.22399999999996 C 67.994 140.35999999999996 68.582 140.67399999999995 68.932 140.95599999999996 C 69.13 141.11599999999996 69.316 141.29099999999997 69.489 141.47599999999997 C 69.59400000000001 141.58799999999997 69.694 141.70399999999998 69.79 141.82299999999998 C 69.888 141.945 69.828 141.873 69.808 141.84599999999998 C 69.87 141.92899999999997 69.93 142.01299999999998 69.98700000000001 142.09799999999998 C 70.14900000000002 142.33599999999998 70.296 142.58399999999997 70.43100000000001 142.838 C 70.49300000000001 142.95499999999998 70.55300000000001 143.07399999999998 70.61100000000002 143.194 C 70.64600000000002 143.267 70.68000000000002 143.33999999999997 70.71300000000002 143.41299999999998 C 70.71700000000003 143.42199999999997 70.81100000000002 143.63799999999998 70.76200000000003 143.521 C 71.24400000000003 144.664 71.53900000000003 145.88299999999998 71.78900000000003 147.094 C 71.91200000000003 147.691 72.02200000000003 148.291 72.13400000000003 148.89 C 72.24400000000003 149.476 72.49200000000003 150.165 72.40100000000002 150.761 C 72.35000000000002 151.094 72.10600000000002 151.311 71.85100000000003 151.506 C 71.49800000000003 151.776 71.11200000000002 152.011 70.73000000000003 152.238 C 69.94400000000003 152.707 69.12000000000003 153.118 68.26500000000003 153.446 C 66.48700000000002 154.128 64.61200000000002 154.509 62.70900000000003 154.558 C 61.69300000000003 154.584 61.68900000000003 156.166 62.70900000000003 156.13899999999998 Z" stroke-linecap="round" />
</g>
		<g transform="matrix(1 0 0 1 -27.82 58.34)"  >
<path style="stroke: rgb(255,255,255); stroke-width: 1; stroke-dasharray: none; stroke-linecap: butt; stroke-dashoffset: 0; stroke-linejoin: miter; stroke-miterlimit: 4; fill: rgb(255,255,255); fill-rule: nonzero; opacity: 1;"  transform=" translate(-21.14, -135.92)" d="M 17.082 132.85 C 17.623 134.469 16.978 136.242 16.134 137.725 C 15.29 139.208 14.22 140.608 13.816 142.266 C 13.58 143.231 13.657 144.408 14.452 145.004 C 15.482 145.77599999999998 16.936 145.10399999999998 18.012999999999998 144.39999999999998 C 20.970999999999997 142.46599999999998 23.79 140.319 26.441 137.98099999999997 C 27.548 137.00399999999996 28.718999999999998 135.76499999999996 28.570999999999998 134.29599999999996 C 28.499999999999996 133.58499999999995 28.119999999999997 132.94599999999997 27.738 132.34199999999996 C 26.454 130.30799999999996 25.041 128.35499999999996 23.512 126.49799999999996" stroke-linecap="round" />
</g>
		<g transform="matrix(1 0 0 1 -27.81 58.35)"  >
<path style="stroke: rgb(255,255,255); stroke-width: 1; stroke-dasharray: none; stroke-linecap: butt; stroke-dashoffset: 0; stroke-linejoin: miter; stroke-miterlimit: 4; fill: rgb(255,255,255); fill-rule: nonzero; opacity: 1;"  transform=" translate(-21.14, -135.91)" d="M 16.319 133.06 C 16.730999999999998 134.358 16.301 135.705 15.697 136.872 C 15.049999999999999 138.12300000000002 14.190999999999999 139.25400000000002 13.604 140.537 C 13.059999999999999 141.727 12.62 143.168 13.117999999999999 144.453 C 13.666999999999998 145.872 15.110999999999999 146.39000000000001 16.523 145.99 C 17.897 145.601 19.097 144.644 20.25 143.84 C 21.519 142.955 22.759 142.029 23.972 141.06900000000002 C 25.137 140.14800000000002 26.304000000000002 139.20600000000002 27.386000000000003 138.18800000000002 C 28.375000000000004 137.257 29.285000000000004 136.10700000000003 29.369000000000003 134.699 C 29.42 133.853 29.080000000000002 133.043 28.658000000000005 132.329 C 28.223000000000006 131.59300000000002 27.741000000000003 130.881 27.258000000000006 130.175 C 26.260000000000005 128.716 25.193000000000005 127.30400000000002 24.070000000000007 125.93800000000002 C 23.799000000000007 125.60800000000002 23.233000000000008 125.65700000000001 22.95200000000001 125.93800000000002 C 22.625000000000007 126.26500000000001 22.68000000000001 126.72500000000002 22.95200000000001 127.05600000000001 C 23.84400000000001 128.14200000000002 24.695000000000007 129.26000000000002 25.50200000000001 130.41000000000003 C 25.91900000000001 131.00400000000002 26.32500000000001 131.60600000000002 26.71900000000001 132.21600000000004 C 27.053000000000008 132.73300000000003 27.451000000000008 133.26600000000005 27.657000000000007 133.85200000000003 C 28.040000000000006 134.94200000000004 27.438000000000006 135.86900000000003 26.683000000000007 136.65900000000002 C 25.75100000000001 137.633 24.66700000000001 138.484 23.623000000000008 139.33300000000003 C 22.559000000000008 140.19800000000004 21.47000000000001 141.03100000000003 20.357000000000006 141.83200000000002 C 19.255000000000006 142.62500000000003 18.138000000000005 143.479 16.937000000000005 144.11800000000002 C 16.466000000000005 144.36900000000003 15.936000000000005 144.58 15.432000000000006 144.55300000000003 C 15.057000000000006 144.53300000000002 14.754000000000005 144.30400000000003 14.597000000000005 143.92300000000003 C 14.613000000000005 143.96100000000004 14.550000000000004 143.75500000000002 14.536000000000005 143.69300000000004 C 14.500000000000005 143.53900000000004 14.505000000000004 143.56300000000005 14.497000000000005 143.45400000000004 C 14.487000000000005 143.31500000000003 14.486000000000006 143.17600000000004 14.493000000000006 143.03800000000004 C 14.500000000000005 142.88100000000003 14.504000000000005 142.84100000000004 14.521000000000006 142.74200000000005 C 14.625000000000005 142.14400000000003 14.847000000000007 141.56900000000005 15.116000000000007 141.02800000000005 C 15.770000000000007 139.71200000000005 16.677000000000007 138.53800000000004 17.291000000000007 137.20100000000005 C 17.945000000000007 135.77600000000004 18.332000000000008 134.17700000000005 17.84400000000001 132.63800000000006 C 17.715000000000007 132.23100000000005 17.294000000000008 131.97000000000006 16.87100000000001 132.08600000000007 C 16.47000000000001 132.19600000000008 16.18900000000001 132.65000000000006 16.31900000000001 133.05900000000008 L 16.31900000000001 133.05900000000008 Z" stroke-linecap="round" />
</g>
		<g transform="matrix(1 0 0 1 -22.22 29.37)"  >
<path style="stroke: rgb(255,255,255); stroke-width: 1; stroke-dasharray: none; stroke-linecap: butt; stroke-dashoffset: 0; stroke-linejoin: miter; stroke-miterlimit: 4; fill: rgb(255,255,255); fill-rule: nonzero; opacity: 1;"  transform=" translate(-26.74, -106.94)" d="M 34.387 79.755 C 31.301000000000002 82.37299999999999 28.205 84.51599999999999 25.325000000000003 87.362 C 21.302000000000003 91.339 16.369000000000003 94.205 12.697000000000003 98.576 C 9.761000000000003 102.071 7.6060000000000025 106.41399999999999 7.570000000000003 110.978 C 7.546000000000003 114.05399999999999 8.471000000000004 117.048 9.388000000000003 119.984 C 10.288000000000004 122.868 11.188000000000004 125.753 12.089000000000004 128.637 C 12.539000000000003 130.077 13.024000000000004 131.578 14.092000000000004 132.644 C 16.531000000000006 135.078 20.671000000000003 134.142 23.734 132.562 C 24.957 131.931 26.187 131.181 26.917 130.01500000000001 C 28.001 128.28500000000003 27.75 126.07800000000002 27.999000000000002 124.05200000000002 C 28.742 118.00600000000001 33.905 113.65000000000002 38.339 109.47400000000002 C 42.774 105.29800000000002 47.122 99.57400000000001 45.586999999999996 93.67900000000002" stroke-linecap="round" />
</g>
		<g transform="matrix(1 0 0 1 -22.21 29.38)"  >
<path style="stroke: rgb(255,255,255); stroke-width: 1; stroke-dasharray: none; stroke-linecap: butt; stroke-dashoffset: 0; stroke-linejoin: miter; stroke-miterlimit: 4; fill: rgb(255,255,255); fill-rule: nonzero; opacity: 1;"  transform=" translate(-26.74, -106.95)" d="M 33.828 79.196 C 32.105000000000004 80.655 30.308000000000003 82.024 28.557000000000002 83.449 C 27.685000000000002 84.15899999999999 26.825000000000003 84.884 25.994000000000003 85.64 C 25.190000000000005 86.372 24.431000000000004 87.151 23.626000000000005 87.882 C 20.591000000000005 90.641 17.170000000000005 92.94800000000001 14.217000000000004 95.801 C 11.253000000000004 98.664 8.784000000000004 102.161 7.554000000000004 106.125 C 6.932000000000004 108.13 6.666000000000004 110.249 6.829000000000004 112.344 C 7.009000000000004 114.66 7.615000000000004 116.90799999999999 8.293000000000005 119.11999999999999 C 8.993000000000004 121.404 9.715000000000005 123.68199999999999 10.426000000000005 125.963 C 10.774000000000006 127.079 11.116000000000005 128.198 11.473000000000006 129.31199999999998 C 11.783000000000007 130.27999999999997 12.132000000000007 131.26299999999998 12.680000000000007 132.12599999999998 C 13.724000000000007 133.76899999999998 15.381000000000007 134.68499999999997 17.294000000000008 134.88499999999996 C 19.06800000000001 135.06999999999996 20.910000000000007 134.62399999999997 22.54800000000001 133.96599999999995 C 24.35100000000001 133.24099999999996 26.25500000000001 132.28499999999994 27.42300000000001 130.67799999999994 C 28.67400000000001 128.95699999999994 28.56500000000001 126.72899999999994 28.72500000000001 124.71099999999994 C 29.009000000000007 121.12299999999995 31.012000000000008 118.03199999999994 33.406000000000006 115.39499999999994 C 36.00200000000001 112.53599999999994 39.07000000000001 110.14799999999994 41.607000000000006 107.23599999999993 C 44.23500000000001 104.21899999999994 46.584 100.52399999999993 46.690000000000005 96.40099999999993 C 46.715 95.41699999999993 46.593 94.42499999999993 46.35 93.47099999999992 C 46.099000000000004 92.48499999999991 44.574 92.90299999999992 44.825 93.89099999999992 C 45.773 97.61699999999992 44.145 101.26899999999992 41.980000000000004 104.25499999999992 C 39.737 107.34899999999992 36.769000000000005 109.76399999999992 34.06700000000001 112.43099999999993 C 31.509000000000007 114.95599999999993 29.069000000000006 117.77399999999993 27.858000000000008 121.21399999999993 C 27.55700000000001 122.06999999999992 27.355000000000008 122.95099999999992 27.235000000000007 123.84999999999992 C 27.104000000000006 124.83499999999992 27.092000000000006 125.82899999999992 27.010000000000005 126.81799999999993 C 26.937000000000005 127.71199999999993 26.791000000000004 128.63999999999993 26.345000000000006 129.43199999999993 C 25.913000000000007 130.19899999999993 25.232000000000006 130.76699999999994 24.495000000000005 131.22899999999993 C 23.018000000000004 132.15599999999992 21.413000000000004 132.83799999999994 19.698000000000004 133.17799999999994 C 18.213000000000005 133.47299999999993 16.594000000000005 133.43799999999993 15.308000000000003 132.61899999999994 C 13.799000000000003 131.65899999999993 13.254000000000003 129.71999999999994 12.733000000000004 128.05199999999994 C 12.035000000000004 125.81599999999993 11.337000000000003 123.57899999999994 10.639000000000005 121.34299999999993 C 9.377000000000004 117.29899999999994 7.826000000000004 113.08399999999993 8.544000000000004 108.78399999999993 C 9.186000000000003 104.93999999999994 11.201000000000004 101.41899999999994 13.775000000000004 98.53699999999994 C 16.443000000000005 95.54999999999994 19.724000000000004 93.22399999999993 22.795 90.68299999999994 C 23.557000000000002 90.05299999999994 24.307000000000002 89.40799999999993 25.033 88.73499999999994 C 25.826 88.00099999999995 26.582 87.22999999999995 27.388 86.50899999999994 C 29.013 85.05399999999995 30.736 83.71699999999994 32.442 82.35899999999994 C 33.286 81.68799999999993 34.124 81.00999999999993 34.947 80.31299999999993 C 35.273 80.03699999999994 35.231 79.47899999999993 34.947 79.19499999999994 C 34.624 78.87199999999994 34.156000000000006 78.91799999999994 33.829 79.19499999999994 L 33.829 79.19499999999994 Z" stroke-linecap="round" />
</g>
		<g transform="matrix(1 0 0 1 7.02 39.19)"  >
<path style="stroke: rgb(255,255,255); stroke-width: 1; stroke-dasharray: none; stroke-linecap: butt; stroke-dashoffset: 0; stroke-linejoin: miter; stroke-miterlimit: 4; fill: rgb(255,255,255); fill-rule: nonzero; opacity: 1;"  transform=" translate(-55.98, -116.77)" d="M 38.556 104.367 C 41.775999999999996 110.774 45.717999999999996 116.336 48.269999999999996 123.196 C 50.096 128.10399999999998 51.922 133.013 53.748 137.921 C 54.582 140.16299999999998 55.617999999999995 142.62699999999998 57.806 143.594 C 58.335 143.828 58.922 143.966 59.369 144.334 C 59.835 144.717 60.12 145.328 60.671 145.574 C 61.089999999999996 145.76100000000002 61.573 145.69500000000002 62.025 145.61700000000002 C 64.564 145.181 67.06099999999999 144.495 69.467 143.573 C 70.05799999999999 143.347 70.675 143.08100000000002 71.042 142.566 C 71.508 141.913 71.453 141.041 71.534 140.243 C 71.729 138.311 73.043 136.951 73.296 135.063 C 73.646 132.44899999999998 73.048 129.456 72.537 126.89999999999999 C 71.426 121.339 69.372 116.02 67.44600000000001 110.70499999999998 C 64.50800000000001 102.59699999999998 60.58400000000001 94.77199999999999 55.417000000000016 87.84699999999998" stroke-linecap="round" />
</g>
		<g transform="matrix(1 0 0 1 7.03 39.19)"  >
<path style="stroke: rgb(255,255,255); stroke-width: 1; stroke-dasharray: none; stroke-linecap: butt; stroke-dashoffset: 0; stroke-linejoin: miter; stroke-miterlimit: 4; fill: rgb(255,255,255); fill-rule: nonzero; opacity: 1;"  transform=" translate(-55.98, -116.77)" d="M 37.873 104.766 C 39.623 108.24000000000001 41.64 111.56700000000001 43.515 114.97300000000001 C 44.434 116.64300000000001 45.317 118.33400000000002 46.115 120.06700000000001 C 46.968 121.91900000000001 47.665 123.82900000000001 48.375 125.73800000000001 C 49.882 129.787 51.388 133.83700000000002 52.894999999999996 137.88600000000002 C 53.468999999999994 139.42900000000003 54.059999999999995 141.00900000000001 55.06999999999999 142.32800000000003 C 55.580999999999996 142.99700000000004 56.181999999999995 143.58900000000003 56.910999999999994 144.02100000000004 C 57.611 144.43600000000004 58.522999999999996 144.54500000000004 59.084999999999994 145.16000000000005 C 59.370999999999995 145.47300000000004 59.611999999999995 145.80200000000005 59.955999999999996 146.05800000000005 C 60.38699999999999 146.38000000000005 60.916999999999994 146.50900000000004 61.452 146.48100000000005 C 62.446 146.43000000000006 63.469 146.16000000000005 64.43599999999999 145.93600000000006 C 66.42699999999999 145.47600000000006 68.467 144.90800000000007 70.33399999999999 144.06400000000005 C 71.219 143.66400000000004 71.898 142.99200000000005 72.13 142.02700000000004 C 72.33699999999999 141.16700000000003 72.24799999999999 140.28200000000004 72.50699999999999 139.43100000000004 C 72.74099999999999 138.66000000000005 73.13099999999999 137.95700000000005 73.454 137.21400000000003 C 73.823 136.36400000000003 74.053 135.53700000000003 74.13799999999999 134.61 C 74.323 132.61 74.02799999999999 130.58200000000002 73.67299999999999 128.616 C 73.30999999999999 126.60900000000001 72.87599999999999 124.61700000000002 72.332 122.65000000000002 C 71.225 118.64300000000001 69.755 114.75100000000002 68.33699999999999 110.84800000000001 C 65.64299999999999 103.43200000000002 62.23699999999999 96.26700000000001 57.75399999999999 89.75500000000001 C 57.21699999999999 88.97500000000001 56.66499999999999 88.206 56.099999999999994 87.447 C 55.84499999999999 87.105 55.416 86.931 55.017999999999994 87.163 C 54.68099999999999 87.36 54.477999999999994 87.89999999999999 54.733999999999995 88.24499999999999 C 59.291999999999994 94.36399999999999 62.894999999999996 101.16499999999999 65.681 108.25999999999999 C 66.41 110.11599999999999 67.078 111.996 67.759 113.86899999999999 C 68.448 115.76299999999999 69.127 117.66099999999999 69.75 119.57699999999998 C 70.385 121.53199999999998 70.962 123.50599999999999 71.428 125.50899999999999 C 71.854 127.34099999999998 72.243 129.208 72.462 131.07799999999997 C 72.669 132.84699999999998 72.791 134.74299999999997 72.08500000000001 136.41899999999998 C 71.77900000000001 137.14499999999998 71.38700000000001 137.87099999999998 71.11000000000001 138.62499999999997 C 70.80100000000002 139.46699999999998 70.76000000000002 140.31299999999996 70.67000000000002 141.19499999999996 C 70.63700000000001 141.52399999999997 70.57500000000002 141.89799999999997 70.35800000000002 142.16599999999997 C 70.16600000000003 142.40299999999996 69.82300000000002 142.57299999999998 69.53600000000002 142.69799999999998 C 68.64900000000002 143.08599999999998 67.70500000000001 143.379 66.78100000000002 143.664 C 65.82800000000002 143.958 64.86400000000002 144.21699999999998 63.89200000000002 144.438 C 63.40600000000002 144.54899999999998 62.917000000000016 144.64999999999998 62.427000000000014 144.743 C 62.03500000000001 144.817 61.51100000000002 144.98499999999999 61.106000000000016 144.894 C 60.81800000000002 144.829 60.646000000000015 144.565 60.45200000000001 144.335 C 60.14700000000001 143.973 59.83000000000001 143.642 59.408000000000015 143.413 C 58.69100000000002 143.024 57.90400000000002 142.86100000000002 57.250000000000014 142.348 C 56.20600000000002 141.52900000000002 55.47600000000001 140.125 54.960000000000015 138.872 C 54.20500000000001 137.037 53.558000000000014 135.15300000000002 52.866000000000014 133.293 C 52.13600000000002 131.33 51.405000000000015 129.366 50.67500000000001 127.403 C 49.94500000000001 125.44 49.25400000000001 123.462 48.46100000000001 121.527 C 47.734000000000016 119.755 46.91600000000001 118.024 46.033000000000015 116.325 C 44.30000000000002 112.991 42.344000000000015 109.779 40.552000000000014 106.477 C 40.10200000000001 105.647 39.66300000000001 104.811 39.238000000000014 103.968 C 39.046000000000014 103.587 38.50800000000002 103.47800000000001 38.15600000000001 103.684 C 37.768000000000015 103.911 37.680000000000014 104.383 37.872000000000014 104.76599999999999 L 37.872000000000014 104.76599999999999 Z" stroke-linecap="round" />
</g>
		<g transform="matrix(1 0 0 1 -2.36 -19.79)"  >
<path style="stroke: rgb(255,255,255); stroke-width: 1; stroke-dasharray: none; stroke-linecap: butt; stroke-dashoffset: 0; stroke-linejoin: miter; stroke-miterlimit: 4; fill: rgb(255,255,255); fill-rule: nonzero; opacity: 1;"  transform=" translate(-46.59, -57.78)" d="M 88.896 22.373 C 87.078 20.838 84.903 18.162 82.281 18.79 C 79.899 19.36 78.45400000000001 22.372999999999998 76.81500000000001 24.009999999999998 C 74.50800000000001 26.313999999999997 71.89000000000001 28.275 69.35200000000002 30.311 C 66.86400000000002 32.307 64.62000000000002 34.733 62.28800000000002 36.91 C 61.14100000000002 37.980999999999995 59.99400000000002 39.052 58.84800000000002 40.122 C 58.32600000000002 40.61 56.37100000000002 43.042 55.72000000000002 43.042 C 55.47800000000002 43.268 55.23600000000002 43.499 55.04500000000002 43.767 C 53.33300000000002 43.177 51.57700000000003 42.831 50.130000000000024 42.585 C 45.962000000000025 41.875 41.38700000000002 42.382 37.18300000000002 42.235 C 32.99400000000002 42.088 28.63300000000002 43.274 24.844000000000023 45.039 C 19.672000000000022 47.448 14.687000000000022 49.909 9.490000000000023 52.227000000000004 C 5.508000000000023 54.00300000000001 2.444000000000023 57.291000000000004 1.2850000000000232 61.584 C -0.6989999999999768 68.93 3.2120000000000233 75.153 10.258000000000024 77.4 C 13.440000000000024 78.415 16.899000000000022 78.533 20.204000000000022 77.98100000000001 C 19.992000000000022 82.19900000000001 19.841000000000022 86.42000000000002 19.33400000000002 90.64600000000002 C 19.27500000000002 91.13400000000001 19.22000000000002 91.65000000000002 19.41600000000002 92.10100000000001 C 19.765000000000022 92.90600000000002 20.74100000000002 93.19200000000001 21.59800000000002 93.37700000000001 C 32.53100000000002 95.72500000000001 44.86400000000002 97.71100000000001 56.06500000000002 96.50900000000001 C 66.34100000000002 95.40700000000001 62.423000000000016 85.35400000000001 62.77600000000002 77.98000000000002 C 62.838000000000015 76.69000000000001 62.884000000000015 75.39900000000002 62.920000000000016 74.10800000000002 C 64.10400000000001 73.38100000000001 65.21300000000002 72.38800000000002 66.16200000000002 71.42500000000001 C 68.60200000000002 68.94600000000001 71.02600000000002 66.44800000000001 73.29500000000002 63.811000000000014 C 79.22200000000001 56.920000000000016 84.04500000000002 49.085000000000015 87.55800000000002 40.70300000000002 C 89.01800000000001 37.22000000000002 91.73000000000002 32.271000000000015 92.33600000000003 28.667000000000016 C 92.79600000000002 25.932000000000016 90.80700000000003 23.987000000000016 88.89700000000002 22.374000000000017 Z" stroke-linecap="round" />
</g>
		<g transform="matrix(1 0 0 1 -2.37 -19.78)"  >
<path style="stroke: rgb(255,255,255); stroke-width: 1; stroke-dasharray: none; stroke-linecap: butt; stroke-dashoffset: 0; stroke-linejoin: miter; stroke-miterlimit: 4; fill: rgb(255,255,255); fill-rule: nonzero; opacity: 1;"  transform=" translate(-46.59, -57.79)" d="M 89.455 21.814 C 87.402 20.065 85.225 17.391 82.197 18 C 79.462 18.55 78.157 21.45 76.409 23.294 C 73.924 25.914 70.905 27.959 68.155 30.278 C 65.352 32.641 62.82 35.333 60.141000000000005 37.835 C 59.074000000000005 38.831 58.051 39.826 57.06400000000001 40.897 C 56.67900000000001 41.314 56.199000000000005 41.839 55.80400000000001 42.137 C 55.81500000000001 42.129 55.650000000000006 42.237 55.59400000000001 42.272 C 55.53800000000001 42.306999999999995 55.51800000000001 42.356 55.635000000000005 42.259 C 55.50900000000001 42.363 55.907000000000004 42.168 55.615 42.268 C 55.065000000000005 42.457 54.711 42.911 54.362 43.37 L 55.255 43.007 C 52.084 41.93 48.713 41.464 45.374 41.413 C 43.643 41.38699999999999 41.913000000000004 41.443 40.182 41.465999999999994 C 38.536 41.486999999999995 36.883 41.37499999999999 35.24 41.46999999999999 C 31.893 41.663999999999994 28.630000000000003 42.559999999999995 25.553000000000004 43.864999999999995 C 22.282000000000004 45.25299999999999 19.105000000000004 46.885 15.894000000000004 48.403999999999996 C 14.284000000000004 49.165 12.671000000000003 49.921 11.051000000000004 50.660999999999994 C 9.648000000000003 51.300999999999995 8.218000000000004 51.88099999999999 6.9200000000000035 52.724 C 4.656000000000004 54.193999999999996 2.7520000000000033 56.236 1.5530000000000035 58.663999999999994 C -0.6959999999999966 63.221999999999994 -0.6139999999999963 68.913 2.5300000000000034 73.03699999999999 C 6.0850000000000035 77.701 12.209000000000003 79.42999999999999 17.871000000000002 79.047 C 18.723000000000003 78.98899999999999 19.572000000000003 78.883 20.415000000000003 78.74499999999999 L 19.414 77.98299999999999 C 19.246000000000002 81.34299999999999 19.115000000000002 84.707 18.814 88.059 C 18.736 88.923 18.644 89.785 18.544 90.64699999999999 C 18.463 91.35399999999998 18.452 92.09299999999999 18.85 92.71699999999998 C 19.593 93.88299999999998 21.104000000000003 94.08099999999999 22.343 94.34299999999999 C 28.594 95.66299999999998 34.907 96.76599999999999 41.275999999999996 97.314 C 44.44199999999999 97.586 47.622 97.71799999999999 50.79899999999999 97.639 C 52.36699999999999 97.6 53.934999999999995 97.50999999999999 55.495999999999995 97.35799999999999 C 56.660999999999994 97.24499999999999 57.824999999999996 97.091 58.931 96.69099999999999 C 60.608 96.085 62.059 94.99499999999999 62.902 93.39799999999998 C 63.719 91.85099999999998 63.962 90.07499999999999 64.007 88.34699999999998 C 64.055 86.47599999999998 63.873000000000005 84.60699999999999 63.728 82.74399999999999 C 63.567 80.67299999999999 63.545 78.64699999999999 63.628 76.57199999999999 C 63.661 75.75099999999999 63.688 74.92899999999999 63.711 74.10699999999999 L 63.318999999999996 74.78999999999999 C 65.24499999999999 73.588 66.792 71.92099999999999 68.36399999999999 70.30499999999999 C 70.00099999999999 68.62199999999999 71.61699999999999 66.91799999999999 73.16799999999999 65.15599999999999 C 76.02099999999999 61.91499999999999 78.63799999999999 58.46499999999999 80.98499999999999 54.840999999999994 C 83.30999999999999 51.25099999999999 85.37099999999998 47.489999999999995 87.14699999999999 43.59899999999999 C 87.951 41.83699999999999 88.687 40.04699999999999 89.502 38.28999999999999 C 90.351 36.46199999999999 91.21 34.635999999999996 91.94 32.75699999999999 C 92.661 30.90099999999999 93.492 28.752999999999993 93.067 26.737999999999992 C 92.63199999999999 24.67599999999999 90.99799999999999 23.121999999999993 89.455 21.813999999999993 C 89.129 21.537999999999993 88.65599999999999 21.494999999999994 88.337 21.813999999999993 C 88.054 22.096999999999994 88.01 22.654999999999994 88.337 22.93199999999999 C 89.804 24.17499999999999 91.581 25.725999999999992 91.611 27.813999999999993 C 91.625 28.80099999999999 91.29 29.815999999999992 90.988 30.744999999999994 C 90.645 31.799999999999994 90.234 32.83299999999999 89.794 33.852 C 88.907 35.906 87.904 37.907 87.02 39.962999999999994 C 86.063 42.190999999999995 85.072 44.39699999999999 83.961 46.553999999999995 C 81.66 51.02199999999999 78.973 55.291 75.937 59.29599999999999 C 72.77799999999999 63.462999999999994 69.181 67.279 65.493 70.978 C 64.568 71.90599999999999 63.586 72.672 62.52199999999999 73.42699999999999 C 61.94799999999999 73.83399999999999 62.11399999999999 74.71799999999999 62.09299999999999 75.342 C 62.06899999999999 76.04599999999999 62.04199999999999 76.75 62.01099999999999 77.454 C 61.938999999999986 79.073 61.99299999999999 80.67599999999999 62.11399999999999 82.291 C 62.32999999999999 85.176 62.78699999999999 88.33 62.09799999999999 91.08099999999999 C 61.78499999999999 92.33099999999999 61.26199999999999 93.31899999999999 60.28999999999999 94.16799999999999 C 59.22099999999999 95.10199999999999 57.550999999999995 95.556 56.06699999999999 95.72 C 50.907999999999994 96.292 45.672999999999995 96.147 40.513999999999996 95.66499999999999 C 35.251999999999995 95.17399999999999 30.031999999999996 94.29799999999999 24.853999999999996 93.25099999999999 C 23.675999999999995 93.01299999999999 22.471999999999994 92.814 21.311999999999998 92.49699999999999 C 20.948999999999998 92.39799999999998 20.480999999999998 92.26599999999999 20.238999999999997 91.94999999999999 C 19.932 91.54999999999998 20.093999999999998 90.92799999999998 20.147999999999996 90.469 C 20.473999999999997 87.68299999999999 20.651999999999997 84.883 20.795999999999996 82.083 C 20.865999999999996 80.716 20.928999999999995 79.35 20.996999999999996 77.983 C 21.024999999999995 77.423 20.471999999999998 77.143 19.995999999999995 77.221 C 14.663999999999994 78.092 8.506999999999994 77.156 4.6349999999999945 73.086 C 3.1329999999999947 71.507 2.1329999999999947 69.53099999999999 1.7389999999999946 67.388 C 1.3079999999999945 65.051 1.6599999999999946 62.577000000000005 2.5159999999999947 60.37500000000001 C 3.409999999999995 58.07500000000001 5.0259999999999945 56.03300000000001 7.012999999999995 54.57800000000001 C 8.112999999999994 53.77200000000001 9.307999999999995 53.17600000000001 10.546999999999993 52.61800000000001 C 12.092999999999993 51.92200000000001 13.631999999999994 51.21000000000001 15.166999999999994 50.49000000000001 C 18.286999999999995 49.02600000000001 21.390999999999995 47.52700000000001 24.511999999999993 46.06600000000001 C 27.375999999999994 44.72500000000001 30.355999999999995 43.66100000000001 33.50099999999999 43.22000000000001 C 35.06099999999999 43.00200000000001 36.60499999999999 43.030000000000015 38.17399999999999 43.051000000000016 C 39.80799999999999 43.073000000000015 41.440999999999995 43.021000000000015 43.07499999999999 42.99900000000002 C 46.24799999999999 42.95500000000002 49.344999999999985 43.12300000000002 52.44199999999999 43.850000000000016 C 53.25099999999999 44.04000000000001 54.04999999999999 44.265000000000015 54.836999999999996 44.53200000000002 C 55.19799999999999 44.655000000000015 55.523999999999994 44.44000000000002 55.73 44.16900000000002 C 55.888 43.96100000000002 56.092 43.78200000000002 56.282 43.60400000000002 L 55.723 43.83600000000002 C 56.67 43.77100000000002 57.438 42.81600000000002 58.04 42.17200000000002 C 58.795 41.36400000000002 59.525999999999996 40.57500000000002 60.336 39.81900000000002 C 61.659 38.58300000000002 62.992999999999995 37.35800000000002 64.289 36.094000000000015 C 65.528 34.887000000000015 66.748 33.661000000000016 68.027 32.49500000000002 C 70.571 30.17600000000002 73.417 28.215000000000018 75.971 25.904000000000018 C 77.056 24.92200000000002 78.01100000000001 23.898000000000017 78.9 22.73900000000002 C 79.61800000000001 21.80300000000002 80.352 20.767000000000017 81.337 20.093000000000018 C 84.031 18.247000000000018 86.455 21.32900000000002 88.339 22.93400000000002 C 89.11 23.590000000000018 90.233 22.477000000000018 89.457 21.81600000000002 Z" stroke-linecap="round" />
</g>
		<g transform="matrix(1 0 0 1 -24.68 -51.8)"  >
<path style="stroke: rgb(255,255,255); stroke-width: 1; stroke-dasharray: none; stroke-linecap: butt; stroke-dashoffset: 0; stroke-linejoin: miter; stroke-miterlimit: 4; fill: rgb(255,255,255); fill-rule: nonzero; opacity: 1;"  transform=" translate(-24.27, -25.78)" d="M 26.918 31.564 C 26.166 31.775 25.361 31.842 24.538 31.737 C 21.246000000000002 31.316999999999997 18.917 28.308 19.336 25.016 C 19.754999999999995 21.723999999999997 22.764999999999997 19.394999999999996 26.057 19.814 C 27.291999999999998 19.971 28.391 20.493 29.259999999999998 21.257" stroke-linecap="round" />
</g>
		<g transform="matrix(1 0 0 1 -24.68 -51.8)"  >
<path style="stroke: rgb(255,255,255); stroke-width: 1; stroke-dasharray: none; stroke-linecap: butt; stroke-dashoffset: 0; stroke-linejoin: miter; stroke-miterlimit: 4; fill: rgb(255,255,255); fill-rule: nonzero; opacity: 1;"  transform=" translate(-24.27, -25.78)" d="M 26.707 30.801 C 25.858 31.029999999999998 24.972 31.061999999999998 24.114 30.858999999999998 C 23.407 30.691999999999997 22.863 30.447 22.253 30.019 C 21.195 29.279 20.442 28.092 20.172 26.779999999999998 C 19.623 24.11 21.383 21.379999999999995 24.035 20.708999999999996 C 24.746 20.528999999999996 25.515 20.492999999999995 26.277 20.645999999999997 C 27.172 20.825999999999997 28.009 21.217 28.701 21.814999999999998 C 29.024 22.093999999999998 29.502 22.131999999999998 29.819 21.814999999999998 C 30.104 21.529999999999998 30.144 20.976999999999997 29.819 20.697 C 28.274 19.362 26.285999999999998 18.771 24.264 19.058 C 22.601 19.294 21.03 20.21 19.991999999999997 21.528 C 18.897999999999996 22.915999999999997 18.337999999999997 24.698 18.535999999999998 26.465 C 18.729 28.187 19.546 29.823 20.883 30.942999999999998 C 22.616999999999997 32.396 24.936999999999998 32.916 27.128999999999998 32.324999999999996 C 28.11 32.059999999999995 27.694 30.533999999999995 26.708999999999996 30.799999999999997 L 26.708999999999996 30.799999999999997 Z" stroke-linecap="round" />
</g>
		<g transform="matrix(1 0 0 1 -4.31 -31.91)"  >
<path style="stroke: rgb(255,255,255); stroke-width: 1; stroke-dasharray: none; stroke-linecap: butt; stroke-dashoffset: 0; stroke-linejoin: miter; stroke-miterlimit: 4; fill: rgb(255,255,255); fill-rule: nonzero; opacity: 1;"  transform=" translate(-44.65, -45.66)" d="M 52.621 39.964 C 51.699000000000005 43.202 51.513000000000005 46.797 48.855000000000004 49.208999999999996 C 46.964000000000006 50.925 44.29900000000001 51.75299999999999 41.768 51.412 C 40.992 51.307 40.22 51.094 39.549 50.69 C 35.621 48.323 36.834 43.542 36.932 39.830999999999996" stroke-linecap="round" />
</g>
		<g transform="matrix(1 0 0 1 -4.3 -31.9)"  >
<path style="stroke: rgb(255,255,255); stroke-width: 1; stroke-dasharray: none; stroke-linecap: butt; stroke-dashoffset: 0; stroke-linejoin: miter; stroke-miterlimit: 4; fill: rgb(255,255,255); fill-rule: nonzero; opacity: 1;"  transform=" translate(-44.66, -45.67)" d="M 51.858 39.754 C 51.287 41.775 51.015 43.891999999999996 50.217 45.845 C 49.448 47.727 47.992999999999995 49.245999999999995 46.080999999999996 50.053 C 44.169 50.86 41.598 51.074 39.784 49.903999999999996 C 39.053 49.433 38.518 48.839999999999996 38.124 48.062999999999995 C 38.004000000000005 47.82599999999999 38.006 47.827999999999996 37.932 47.626 C 37.853 47.412 37.786 47.193 37.729 46.971999999999994 C 37.682 46.788 37.641999999999996 46.602 37.608 46.41499999999999 C 37.555 46.12199999999999 37.556999999999995 46.13099999999999 37.529999999999994 45.846999999999994 C 37.333999999999996 43.840999999999994 37.666 41.834999999999994 37.72299999999999 39.82999999999999 C 37.751999999999995 38.81199999999999 36.17099999999999 38.81299999999999 36.14199999999999 39.82999999999999 C 36.03699999999999 43.517999999999994 34.99899999999999 48.12799999999999 38.33499999999999 50.79399999999999 C 40.36099999999999 52.41299999999999 43.18099999999998 52.59999999999999 45.61099999999999 51.88899999999999 C 47.96499999999999 51.200999999999986 50.02099999999999 49.64299999999999 51.18799999999999 47.47199999999999 C 52.40699999999999 45.20599999999999 52.69299999999999 42.61699999999999 53.38299999999999 40.173999999999985 C 53.65999999999999 39.192999999999984 52.13499999999999 38.77399999999999 51.85799999999999 39.753999999999984 L 51.85799999999999 39.753999999999984 Z" stroke-linecap="round" />
</g>
		<g transform="matrix(1 0 0 1 17.93 -45.65)"  >
<path style="stroke: rgb(255,255,255); stroke-width: 1; stroke-dasharray: none; stroke-linecap: butt; stroke-dashoffset: 0; stroke-linejoin: miter; stroke-miterlimit: 4; fill: rgb(255,255,255); fill-rule: nonzero; opacity: 1;"  transform=" translate(-66.88, -31.92)" d="M 62.369 37.119 C 63.044 37.512 63.807 37.778 64.63 37.883 C 67.922 38.303000000000004 70.931 35.974000000000004 71.351 32.681000000000004 C 71.771 29.388000000000005 69.442 26.380000000000003 66.149 25.960000000000004 C 64.914 25.803000000000004 63.72 26.032000000000004 62.686 26.553000000000004" stroke-linecap="round" />
</g>
		<g transform="matrix(1 0 0 1 17.93 -45.65)"  >
<path style="stroke: rgb(255,255,255); stroke-width: 1; stroke-dasharray: none; stroke-linecap: butt; stroke-dashoffset: 0; stroke-linejoin: miter; stroke-miterlimit: 4; fill: rgb(255,255,255); fill-rule: nonzero; opacity: 1;"  transform=" translate(-66.89, -31.93)" d="M 61.97 37.802 C 63.656 38.762 65.732 39.004 67.574 38.362 C 69.188 37.799 70.584 36.649 71.386 35.131 C 72.214 33.564 72.42099999999999 31.689 71.91 29.987000000000002 C 71.41799999999999 28.348000000000003 70.30499999999999 26.92 68.828 26.054000000000002 C 66.824 24.879 64.357 24.852000000000004 62.288000000000004 25.872000000000003 C 61.905 26.061000000000003 61.800000000000004 26.604000000000003 62.004000000000005 26.954000000000004 C 62.232000000000006 27.344000000000005 62.70100000000001 27.427000000000003 63.086000000000006 27.238000000000003 C 64.515 26.533000000000005 66.299 26.551000000000002 67.644 27.212000000000003 C 68.83800000000001 27.799000000000003 69.801 28.822000000000003 70.24600000000001 29.996000000000002 C 70.74300000000001 31.307000000000002 70.74900000000001 32.642 70.203 33.962 C 69.976 34.511 69.56400000000001 35.123000000000005 69.122 35.573 C 68.64 36.064 68.178 36.386 67.529 36.689 C 66.93299999999999 36.968 66.13799999999999 37.136 65.454 37.143 C 64.508 37.152 63.59199999999999 36.907000000000004 62.76899999999999 36.438 C 61.88299999999999 35.934000000000005 61.08599999999999 37.299 61.97099999999999 37.803000000000004 L 61.97099999999999 37.803000000000004 Z" stroke-linecap="round" />
</g>
		<g transform="matrix(1 0 0 1 -3.27 -48.97)"  >
<path style="stroke: rgb(255,255,255); stroke-width: 1; stroke-dasharray: none; stroke-linecap: butt; stroke-dashoffset: 0; stroke-linejoin: miter; stroke-miterlimit: 4; fill: rgb(255,255,255); fill-rule: nonzero; opacity: 1;"  transform=" translate(-45.68, -28.61)" d="M 64.826 25.059 C 61.486999999999995 23.626 58.452999999999996 21.538 55.443 19.462 C 52.379 17.35 49.132999999999996 15.004 47.867 11.392999999999999 C 40.824 15.349999999999998 33.187999999999995 18.128 25.342 19.594 C 25.128999999999998 20.427 24.959 21.28 24.848 22.155 C 23.381 33.665 31.523 44.184 43.033 45.650999999999996 C 54.543 47.117999999999995 65.062 38.976 66.529 27.465999999999998 C 66.61699999999999 26.776999999999997 66.66799999999999 26.090999999999998 66.688 25.410999999999998 C 66.161 25.47 65.543 25.365999999999996 64.82600000000001 25.058999999999997 Z" stroke-linecap="round" />
</g>
		<g transform="matrix(1 0 0 1 -3.26 -48.97)"  >
<path style="stroke: rgb(255,255,255); stroke-width: 1; stroke-dasharray: none; stroke-linecap: butt; stroke-dashoffset: 0; stroke-linejoin: miter; stroke-miterlimit: 4; fill: rgb(255,255,255); fill-rule: nonzero; opacity: 1;"  transform=" translate(-45.69, -28.6)" d="M 65.225 24.376 C 62.355 23.137 59.72299999999999 21.436 57.148999999999994 19.678 C 54.955999999999996 18.18 52.681999999999995 16.707 50.86699999999999 14.745000000000001 C 49.90899999999999 13.71 49.10599999999999 12.517000000000001 48.62999999999999 11.183000000000002 C 48.45799999999999 10.701000000000002 47.93999999999999 10.446000000000002 47.46899999999999 10.71 C 42.048999999999985 13.749 36.261999999999986 16.101 30.25199999999999 17.681 C 28.559999999999988 18.126 26.852999999999987 18.508000000000003 25.133999999999986 18.831 C 24.873999999999985 18.88 24.644999999999985 19.134999999999998 24.581999999999987 19.383 C 23.346999999999987 24.275 23.812999999999988 29.441 25.932999999999986 34.019999999999996 C 27.847999999999985 38.156 31.112999999999985 41.657 35.09699999999999 43.867999999999995 C 39.33399999999999 46.21999999999999 44.28799999999999 47.074 49.070999999999984 46.34499999999999 C 53.61099999999998 45.65299999999999 57.887999999999984 43.44699999999999 61.128999999999984 40.19999999999999 C 64.44099999999999 36.88199999999999 66.62699999999998 32.505999999999986 67.26799999999999 27.86099999999999 C 67.37999999999998 27.04699999999999 67.45299999999999 26.23099999999999 67.47999999999999 25.40999999999999 C 67.493 25.01099999999999 67.106 24.57999999999999 66.689 24.61899999999999 C 66.103 24.67399999999999 65.591 24.52599999999999 65.03699999999999 24.294999999999987 C 64.64299999999999 24.130999999999986 64.16699999999999 24.471999999999987 64.064 24.846999999999987 C 63.93899999999999 25.301999999999985 64.22 25.654999999999987 64.616 25.819999999999986 C 65.266 26.090999999999987 65.98 26.266999999999985 66.688 26.200999999999986 L 65.897 25.409999999999986 C 65.747 29.992999999999988 64.031 34.50799999999999 61.047000000000004 37.963999999999984 C 58.226000000000006 41.231999999999985 54.49400000000001 43.508999999999986 50.30800000000001 44.49799999999998 C 46.03300000000001 45.50799999999998 41.31100000000001 45.054999999999986 37.318000000000005 43.222999999999985 C 33.382000000000005 41.41699999999999 30.158000000000005 38.44099999999999 28.051000000000005 34.695999999999984 C 26.985000000000007 32.80099999999998 26.257000000000005 30.823999999999984 25.830000000000005 28.647999999999982 C 25.620000000000005 27.57699999999998 25.512000000000004 26.60399999999998 25.477000000000004 25.467999999999982 C 25.442000000000004 24.331999999999983 25.494000000000003 23.179999999999982 25.652000000000005 22.05099999999998 C 25.759000000000004 21.29299999999998 25.916000000000004 20.54299999999998 26.104000000000006 19.80099999999998 L 25.552000000000007 20.35299999999998 C 31.757000000000005 19.18899999999998 37.79400000000001 17.21299999999998 43.50500000000001 14.52599999999998 C 45.12100000000001 13.76599999999998 46.70800000000001 12.94599999999998 48.26600000000001 12.07299999999998 L 47.10500000000001 11.59999999999998 C 48.05300000000001 14.25699999999998 49.97500000000001 16.32699999999998 52.16100000000001 18.04399999999998 C 53.25600000000001 18.90499999999998 54.400000000000006 19.696999999999978 55.54700000000001 20.48699999999998 C 56.88600000000001 21.40899999999998 58.23000000000001 22.32399999999998 59.613000000000014 23.179999999999982 C 61.16000000000001 24.13799999999998 62.756000000000014 25.01599999999998 64.42800000000001 25.73699999999998 C 64.82000000000001 25.90599999999998 65.27600000000001 25.85299999999998 65.51 25.45299999999998 C 65.705 25.118999999999982 65.62100000000001 24.540999999999983 65.226 24.37099999999998 Z" stroke-linecap="round" />
</g>
		<g transform="matrix(1 0 0 1 8.2 -46.37)"  >
<circle style="stroke: rgb(255,255,255); stroke-width: 1; stroke-dasharray: none; stroke-linecap: butt; stroke-dashoffset: 0; stroke-linejoin: miter; stroke-miterlimit: 4; fill: rgb(255,255,255); fill-rule: nonzero; opacity: 1;"  cx="0" cy="0" r="4.387" />
</g>
		<g transform="matrix(1 0 0 1 -16.5 -49.52)"  >
<circle style="stroke: rgb(255,255,255); stroke-width: 1; stroke-dasharray: none; stroke-linecap: butt; stroke-dashoffset: 0; stroke-linejoin: miter; stroke-miterlimit: 4; fill: rgb(255,255,255); fill-rule: nonzero; opacity: 1;"  cx="0" cy="0" r="4.387" />
</g>
		<g transform="matrix(1 0 0 1 3.72 -52.41)"  >
<circle style="stroke: rgb(255,255,255); stroke-width: 1; stroke-dasharray: none; stroke-linecap: butt; stroke-dashoffset: 0; stroke-linejoin: miter; stroke-miterlimit: 4; fill: rgb(255,255,255); fill-rule: nonzero; opacity: 1;"  cx="0" cy="0" r="1.648" />
</g>
		<g transform="matrix(1 0 0 1 -10.52 -54.38)"  >
<circle style="stroke: rgb(255,255,255); stroke-width: 1; stroke-dasharray: none; stroke-linecap: butt; stroke-dashoffset: 0; stroke-linejoin: miter; stroke-miterlimit: 4; fill: rgb(255,255,255); fill-rule: nonzero; opacity: 1;"  cx="0" cy="0" r="1.648" />
</g>
		<g transform="matrix(1 0 0 1 -3.97 -52.52)"  >
<path style="stroke: rgb(255,255,255); stroke-width: 1; stroke-dasharray: none; stroke-linecap: butt; stroke-dashoffset: 0; stroke-linejoin: miter; stroke-miterlimit: 4; fill: rgb(255,255,255); fill-rule: nonzero; opacity: 1;"  transform=" translate(-44.99, -25.05)" d="M 46.122 23.314 C 45.876 23.114 45.623 22.993 45.299 22.985 C 45.057 22.979 44.793 23.054 44.586999999999996 23.182 C 44.181999999999995 23.433999999999997 43.961 23.849999999999998 43.806 24.285999999999998 C 43.555 24.993999999999996 43.565 25.834999999999997 43.83 26.537999999999997 C 43.903999999999996 26.734999999999996 44.006 26.900999999999996 44.193 27.010999999999996 C 44.361999999999995 27.109999999999996 44.611999999999995 27.151999999999994 44.802 27.090999999999994 C 45.179 26.968999999999994 45.51 26.532999999999994 45.354 26.117999999999995 C 45.283 25.928999999999995 45.234 25.735999999999994 45.205 25.536999999999995 L 45.233 25.746999999999996 C 45.202 25.503999999999998 45.202 25.260999999999996 45.233 25.017999999999997 L 45.205 25.227999999999998 C 45.238 24.999999999999996 45.298 24.779999999999998 45.385 24.566999999999997 L 45.305 24.755999999999997 C 45.352 24.647999999999996 45.405 24.544999999999998 45.474 24.449999999999996 L 45.349999999999994 24.609999999999996 C 45.397999999999996 24.548999999999996 45.449999999999996 24.494999999999997 45.51199999999999 24.446999999999996 L 45.352 24.570999999999994 C 45.391999999999996 24.542999999999996 45.431999999999995 24.520999999999994 45.476 24.500999999999994 L 45.287 24.580999999999992 C 45.330999999999996 24.563999999999993 45.375 24.552999999999994 45.421 24.54499999999999 L 45.211 24.57299999999999 C 45.257999999999996 24.56799999999999 45.302 24.56699999999999 45.348 24.57199999999999 L 45.138 24.54399999999999 C 45.172 24.54999999999999 45.202999999999996 24.55699999999999 45.236 24.56899999999999 L 45.047 24.48899999999999 C 45.07899999999999 24.50299999999999 45.105999999999995 24.51799999999999 45.135 24.53699999999999 L 44.975 24.41299999999999 L 45.002 24.434999999999988 C 45.17 24.570999999999987 45.336000000000006 24.666999999999987 45.561 24.666999999999987 C 45.755 24.666999999999987 45.987 24.58099999999999 46.12 24.434999999999988 C 46.257999999999996 24.28399999999999 46.361 24.08699999999999 46.352 23.875999999999987 C 46.342999999999996 23.678999999999988 46.279999999999994 23.44699999999999 46.12 23.316999999999986 L 46.12 23.316999999999986 Z" stroke-linecap="round" />
</g>
		<g transform="matrix(1 0 0 1 -4.33 -45.01)"  >
<path style="stroke: rgb(255,255,255); stroke-width: 1; stroke-dasharray: none; stroke-linecap: butt; stroke-dashoffset: 0; stroke-linejoin: miter; stroke-miterlimit: 4; fill: rgb(255,255,255); fill-rule: nonzero; opacity: 1;"  transform=" translate(-44.63, -32.56)" d="M 40.556 33.938 C 39.952999999999996 32.796 39.419 30.446 40.251999999999995 29.277 C 40.80499999999999 28.5 42.638 28.893 43.43899999999999 28.963 C 44.98499999999999 29.099 46.51499999999999 29.424 47.98299999999999 29.93 C 48.42799999999999 30.083 48.89099999999999 30.271 49.16999999999999 30.65 C 49.575999999999986 31.201999999999998 49.45899999999999 31.983999999999998 49.17599999999999 32.608 C 48.33999999999999 34.449 47.106999999999985 36.233 44.88299999999999 36.321999999999996 C 43.069999999999986 36.394 41.426999999999985 35.589999999999996 40.554999999999986 33.937999999999995 Z" stroke-linecap="round" />
</g>
		<g transform="matrix(1 0 0 1 -4.33 -45)"  >
<path style="stroke: rgb(255,255,255); stroke-width: 1; stroke-dasharray: none; stroke-linecap: butt; stroke-dashoffset: 0; stroke-linejoin: miter; stroke-miterlimit: 4; fill: rgb(255,255,255); fill-rule: nonzero; opacity: 1;"  transform=" translate(-44.62, -32.56)" d="M 41.238 33.539 C 41.206 33.476 41.174 33.413000000000004 41.144 33.349000000000004 C 41.123 33.304 41.102 33.258 41.082 33.212 C 41.089 33.228 41.121 33.306000000000004 41.087 33.219 C 41.015 33.035000000000004 40.95 32.849000000000004 40.893 32.661 C 40.836 32.474000000000004 40.787 32.284 40.745 32.093 C 40.704 31.907000000000004 40.663999999999994 31.690000000000005 40.650999999999996 31.571000000000005 C 40.629999999999995 31.388000000000005 40.617999999999995 31.204000000000004 40.614999999999995 31.021000000000004 C 40.61299999999999 30.916000000000004 40.614999999999995 30.811000000000003 40.62 30.707000000000004 C 40.622 30.669000000000004 40.641 30.435000000000006 40.629 30.527000000000005 C 40.652 30.349000000000004 40.698 30.175000000000004 40.754 30.005000000000006 C 40.782 29.919000000000008 40.754 29.992000000000004 40.745999999999995 30.010000000000005 C 40.760999999999996 29.974000000000004 40.778999999999996 29.939000000000004 40.797 29.905000000000005 C 40.821 29.860000000000003 40.849 29.817000000000004 40.872 29.772000000000006 C 40.927 29.665000000000006 40.839 29.859000000000005 40.87 29.765000000000004 C 40.876999999999995 29.745000000000005 40.919 29.713000000000005 40.934999999999995 29.699000000000005 C 40.913 29.718000000000004 40.864999999999995 29.787000000000006 40.900999999999996 29.729000000000006 C 40.912 29.711000000000006 40.965999999999994 29.691000000000006 40.985 29.681000000000008 C 40.853 29.74900000000001 40.943 29.69400000000001 40.981 29.683000000000007 C 41.049 29.66400000000001 41.116 29.642000000000007 41.186 29.627000000000006 C 41.222 29.619000000000007 41.259 29.613000000000007 41.295 29.607000000000006 C 41.422000000000004 29.585000000000008 41.115 29.610000000000007 41.351 29.604000000000006 C 41.705999999999996 29.595000000000006 42.053 29.599000000000007 42.407 29.634000000000007 C 43.208 29.713000000000008 44.016 29.794000000000008 44.809 29.931000000000008 C 45.861999999999995 30.113000000000007 46.912 30.37600000000001 47.916999999999994 30.74300000000001 C 48.227999999999994 30.85700000000001 48.528999999999996 31.01700000000001 48.614 31.28800000000001 C 48.699 31.55900000000001 48.599999999999994 31.95700000000001 48.474999999999994 32.250000000000014 C 48.318 32.616000000000014 48.126999999999995 32.97300000000001 47.925999999999995 33.317000000000014 C 47.730999999999995 33.65000000000001 47.504999999999995 33.988000000000014 47.294 34.23600000000001 C 46.794 34.82100000000001 46.266999999999996 35.22700000000001 45.574 35.42000000000001 C 43.882999999999996 35.89000000000001 42.077 35.08800000000001 41.239 33.53900000000001 C 40.754999999999995 32.644000000000005 39.388999999999996 33.44100000000001 39.873999999999995 34.33700000000001 C 40.904999999999994 36.24300000000001 43.029999999999994 37.31800000000001 45.181 37.09000000000001 C 47.332 36.86200000000001 48.775999999999996 35.23600000000001 49.681999999999995 33.38200000000001 C 50.202999999999996 32.317000000000014 50.55799999999999 31.001000000000012 49.666999999999994 30.013000000000012 C 49.248999999999995 29.55000000000001 48.653999999999996 29.32300000000001 48.077999999999996 29.12800000000001 C 47.477999999999994 28.92500000000001 46.867999999999995 28.75300000000001 46.251 28.61200000000001 C 45.134 28.35600000000001 44.003 28.24600000000001 42.869 28.10600000000001 C 42.008 27.99900000000001 41.054 27.896000000000008 40.247 28.288000000000007 C 39.226 28.784000000000006 38.996 30.13800000000001 39.039 31.15800000000001 C 39.085 32.25300000000001 39.371 33.36300000000001 39.875 34.33700000000001 C 40.071 34.71600000000001 40.602 34.82800000000001 40.957 34.62100000000001 C 41.342 34.39600000000001 41.437 33.92000000000001 41.241 33.53900000000001 Z" stroke-linecap="round" />
</g>
		<g transform="matrix(1 0 0 1 -4.86 -27.14)"  >
<path style="stroke: rgb(255,255,255); stroke-width: 1; stroke-dasharray: none; stroke-linecap: butt; stroke-dashoffset: 0; stroke-linejoin: miter; stroke-miterlimit: 4; fill: rgb(255,255,255); fill-rule: nonzero; opacity: 1;"  transform=" translate(-44.1, -50.43)" d="M 33.006 44.501 C 32.11 46.797 32.232 49.413 33.27 51.638999999999996 C 34.169000000000004 53.565999999999995 35.832 55.172999999999995 37.779 56.019999999999996 C 40.085 57.022999999999996 42.712 57.038 45.179 56.836 C 47.564 56.641 50.028000000000006 56.104 52.03 54.729 C 54.075 53.324 55.586 51.183 55.785000000000004 48.667 C 55.819 48.241 55.398 47.876000000000005 54.99400000000001 47.876000000000005 C 54.538000000000004 47.876000000000005 54.23700000000001 48.239000000000004 54.20300000000001 48.667 C 54.06600000000001 50.405 52.98100000000001 52.008 51.59300000000001 53.101 C 49.99800000000001 54.357 47.92300000000001 54.949 45.93000000000001 55.181 C 44.80200000000001 55.312999999999995 43.660000000000004 55.36 42.525000000000006 55.340999999999994 C 41.404 55.321999999999996 40.28900000000001 55.211999999999996 39.21300000000001 54.87899999999999 C 37.467000000000006 54.33899999999999 35.94200000000001 53.12299999999999 35.00500000000001 51.54399999999999 C 33.81400000000001 49.53799999999999 33.68700000000001 47.07999999999999 34.52900000000001 44.92199999999999 C 34.68400000000001 44.52399999999999 34.35800000000001 44.05399999999999 33.97700000000001 43.94899999999999 C 33.52900000000001 43.82599999999999 33.16000000000001 44.10199999999999 33.00400000000001 44.50099999999999 L 33.00400000000001 44.50099999999999 Z" stroke-linecap="round" />
</g>
		<g transform="matrix(1 0 0 1 -30.48 58.99)"  >
<path style="stroke: rgb(255,255,255); stroke-width: 1; stroke-dasharray: none; stroke-linecap: butt; stroke-dashoffset: 0; stroke-linejoin: miter; stroke-miterlimit: 4; fill: rgb(255,255,255); fill-rule: nonzero; opacity: 1;"  transform=" translate(-18.47, -136.56)" d="M 17.236 137.326 C 18.060000000000002 137.344 18.884 137.361 19.708000000000002 137.379 C 20.122000000000003 137.38799999999998 20.517000000000003 137.009 20.499000000000002 136.588 C 20.479000000000003 136.152 20.152 135.807 19.708000000000002 135.797 L 17.236 135.744 C 16.822 135.735 16.427 136.114 16.445 136.535 C 16.465 136.971 16.792 137.316 17.236 137.326 L 17.236 137.326 Z" stroke-linecap="round" />
</g>
		<g transform="matrix(1 0 0 1 -32.14 62.32)"  >
<path style="stroke: rgb(255,255,255); stroke-width: 1; stroke-dasharray: none; stroke-linecap: butt; stroke-dashoffset: 0; stroke-linejoin: miter; stroke-miterlimit: 4; fill: rgb(255,255,255); fill-rule: nonzero; opacity: 1;"  transform=" translate(-16.81, -139.89)" d="M 15.365 140.454 L 17.842 140.85500000000002 C 18.058 140.89000000000001 18.255 140.89000000000001 18.451 140.775 C 18.615000000000002 140.679 18.771 140.491 18.814 140.302 C 18.86 140.1 18.85 139.87199999999999 18.734 139.69299999999998 C 18.629 139.53099999999998 18.461000000000002 139.362 18.261000000000003 139.32999999999998 L 15.784000000000002 138.92899999999997 C 15.568000000000003 138.89399999999998 15.371000000000002 138.89399999999998 15.175000000000002 139.009 C 15.011000000000003 139.105 14.855000000000002 139.29299999999998 14.812000000000003 139.482 C 14.766000000000004 139.684 14.776000000000003 139.912 14.892000000000003 140.091 C 14.997000000000003 140.25300000000001 15.165000000000003 140.422 15.365000000000004 140.454 L 15.365000000000004 140.454 Z" stroke-linecap="round" />
</g>
		<g transform="matrix(1 0 0 1 16.64 70.43)"  >
<path style="stroke: rgb(255,255,255); stroke-width: 1; stroke-dasharray: none; stroke-linecap: butt; stroke-dashoffset: 0; stroke-linejoin: miter; stroke-miterlimit: 4; fill: rgb(255,255,255); fill-rule: nonzero; opacity: 1;"  transform=" translate(-65.6, -148)" d="M 64.348 149.002 C 64.466 148.923 64.587 148.84900000000002 64.712 148.78300000000002 C 64.775 148.75000000000003 64.839 148.721 64.903 148.69000000000003 C 64.982 148.65500000000003 64.968 148.66100000000003 64.861 148.70700000000002 C 64.894 148.69400000000002 64.927 148.681 64.96000000000001 148.669 C 65.036 148.64100000000002 65.71400000000001 148.423 65.73100000000001 148.473 C 65.60900000000001 148.489 65.59100000000001 148.49200000000002 65.679 148.48100000000002 C 65.714 148.47700000000003 65.75 148.47400000000002 65.785 148.47100000000003 C 65.856 148.46600000000004 65.92699999999999 148.46200000000005 65.997 148.46000000000004 C 66.121 148.45700000000005 66.245 148.46000000000004 66.369 148.47000000000003 C 66.404 148.473 66.44 148.47600000000003 66.475 148.479 C 66.56299999999999 148.489 66.54499999999999 148.48600000000002 66.42299999999999 148.471 C 66.42499999999998 148.465 66.61599999999999 148.504 66.63199999999999 148.508 C 66.77099999999999 148.537 66.90799999999999 148.574 67.04199999999999 148.61800000000002 C 67.43599999999999 148.746 67.92299999999999 148.46900000000002 68.01499999999999 148.06600000000003 C 68.11399999999999 147.63200000000003 67.88399999999999 147.23000000000002 67.46299999999998 147.09300000000002 C 66.17299999999997 146.674 64.67499999999998 146.87800000000001 63.54899999999998 147.63600000000002 C 63.20699999999998 147.86700000000002 63.02399999999998 148.34300000000002 63.26499999999998 148.71800000000002 C 63.48499999999998 149.05900000000003 63.97999999999998 149.24900000000002 64.34699999999998 149.002 L 64.34699999999998 149.002 Z" stroke-linecap="round" />
</g>
		<g transform="matrix(1 0 0 1 16.43 73.2)"  >
<path style="stroke: rgb(255,255,255); stroke-width: 1; stroke-dasharray: none; stroke-linecap: butt; stroke-dashoffset: 0; stroke-linejoin: miter; stroke-miterlimit: 4; fill: rgb(255,255,255); fill-rule: nonzero; opacity: 1;"  transform=" translate(-65.38, -150.77)" d="M 63.822 151.796 C 64.394 151.66899999999998 64.971 151.56199999999998 65.551 151.477 C 65.574 151.47400000000002 65.788 151.44400000000002 65.685 151.458 C 65.584 151.472 65.83 151.44 65.854 151.437 C 65.991 151.42000000000002 66.128 151.405 66.265 151.39000000000001 C 66.562 151.359 66.86 151.334 67.158 151.31400000000002 C 67.57000000000001 151.28600000000003 67.96900000000001 150.97000000000003 67.949 150.52300000000002 C 67.931 150.11800000000002 67.6 149.70300000000003 67.158 149.73200000000003 C 65.895 149.81700000000004 64.637 149.99600000000004 63.401 150.27000000000004 C 62.997 150.36000000000004 62.722 150.85000000000005 62.849000000000004 151.24300000000005 C 62.986000000000004 151.66700000000006 63.389 151.89100000000005 63.822 151.79500000000004 L 63.822 151.79500000000004 Z" stroke-linecap="round" />
</g>
		<g transform="matrix(1 0 0 1 -38.5 -13.91)"  >
<path style="stroke: rgb(255,255,255); stroke-width: 1; stroke-dasharray: none; stroke-linecap: butt; stroke-dashoffset: 0; stroke-linejoin: miter; stroke-miterlimit: 4; fill: rgb(255,255,255); fill-rule: nonzero; opacity: 1;"  transform=" translate(-10.45, -63.66)" d="M 7.194 69.447 C 5.479 67.034 4.336 63.829 5.696 61.028000000000006 C 6.545999999999999 59.276 7.308 57.458000000000006 8.961 56.29200000000001 C 9.689 55.77900000000001 10.546 55.39900000000001 11.437000000000001 55.415000000000006 C 12.328000000000003 55.431000000000004 13.242 55.907000000000004 13.604000000000001 56.721000000000004 C 13.966000000000001 57.535000000000004 13.608 58.647000000000006 12.772 58.953 C 13.608 59.161 14.3 59.866 14.492 60.707 C 14.684000000000001 61.548 14.365 62.483000000000004 13.701 63.032000000000004 C 14.475000000000001 62.809000000000005 15.382000000000001 63.35 15.553 64.137 C 15.724 64.924 15.125 65.793 14.328000000000001 65.912 C 15.707 66.44200000000001 16.194000000000003 68.34800000000001 15.502 69.652 C 13.639000000000001 73.162 9.139 72.183 7.195 69.447 Z" stroke-linecap="round" />
</g>
		<g transform="matrix(1 0 0 1 -38.5 -13.9)"  >
<path style="stroke: rgb(255,255,255); stroke-width: 1; stroke-dasharray: none; stroke-linecap: butt; stroke-dashoffset: 0; stroke-linejoin: miter; stroke-miterlimit: 4; fill: rgb(255,255,255); fill-rule: nonzero; opacity: 1;"  transform=" translate(-10.46, -63.67)" d="M 7.877 69.047 C 6.326 66.846 5.1739999999999995 63.937 6.4239999999999995 61.333 C 6.986 60.163 7.516 58.911 8.365 57.914 C 9.15 56.992000000000004 10.478 55.999 11.703 56.228 C 12.264999999999999 56.333 12.793 56.673 12.924 57.166000000000004 C 12.981 57.38100000000001 12.985999999999999 57.521 12.873999999999999 57.816 C 12.921 57.692 12.813999999999998 57.927 12.815 57.927 C 12.801 57.951 12.668999999999999 58.116 12.745999999999999 58.03 C 12.710999999999999 58.069 12.671 58.11 12.630999999999998 58.144 C 12.749999999999998 58.046 12.419999999999998 58.248 12.561999999999998 58.190999999999995 C 12.232999999999997 58.32299999999999 11.981999999999998 58.577 11.981999999999998 58.952999999999996 C 11.981999999999998 59.29899999999999 12.226999999999997 59.623999999999995 12.561999999999998 59.714999999999996 C 13.857999999999997 60.06699999999999 14.127999999999998 61.619 13.141999999999998 62.471999999999994 C 12.518999999999998 63.010999999999996 13.188999999999998 63.974999999999994 13.910999999999998 63.79299999999999 C 14.126999999999997 63.73899999999999 13.816999999999998 63.776999999999994 14.037999999999998 63.770999999999994 C 14.060999999999998 63.770999999999994 14.250999999999998 63.788999999999994 14.186999999999998 63.776999999999994 C 14.285999999999998 63.794999999999995 14.318999999999997 63.80899999999999 14.453999999999997 63.88699999999999 C 14.615999999999998 63.980999999999995 14.739999999999997 64.128 14.779999999999998 64.30399999999999 C 14.810999999999998 64.442 14.779999999999998 64.14299999999999 14.791999999999998 64.39999999999999 C 14.796999999999999 64.514 14.799999999999997 64.43199999999999 14.787999999999998 64.49699999999999 C 14.752999999999998 64.68099999999998 14.741999999999999 64.69599999999998 14.645999999999999 64.83799999999998 C 14.677 64.79199999999997 14.453999999999999 65.03299999999997 14.498999999999999 64.99899999999998 C 14.354999999999999 65.10699999999999 14.323999999999998 65.10999999999999 14.117999999999999 65.14899999999999 C 13.780999999999999 65.21199999999999 13.537999999999998 65.58599999999998 13.537999999999998 65.91099999999999 C 13.537999999999998 66.28599999999999 13.791999999999998 66.53999999999999 14.117999999999999 66.67299999999999 C 14.035999999999998 66.63999999999999 14.242999999999999 66.74599999999998 14.288999999999998 66.77399999999999 C 14.412999999999998 66.84999999999998 14.353999999999997 66.81299999999999 14.321999999999997 66.78899999999999 C 14.362999999999998 66.82 14.402999999999997 66.85699999999999 14.440999999999997 66.89299999999999 C 14.641999999999998 67.08099999999999 14.652999999999997 67.10499999999999 14.775999999999998 67.329 C 14.801999999999998 67.37599999999999 14.825999999999999 67.42399999999999 14.848999999999998 67.472 C 14.905999999999999 67.59299999999999 14.816999999999998 67.381 14.863999999999999 67.50699999999999 C 14.902 67.609 14.934 67.713 14.960999999999999 67.81899999999999 C 15.027 68.082 15.027 68.09799999999998 15.022999999999998 68.38399999999999 C 15.022999999999998 68.41799999999999 15.002999999999998 68.69699999999999 15.017999999999997 68.58499999999998 C 15.003999999999998 68.69299999999998 14.978999999999997 68.80199999999998 14.949999999999998 68.90699999999998 C 14.934999999999997 68.95999999999998 14.918999999999997 69.01199999999999 14.901999999999997 69.06399999999998 C 14.897999999999998 69.07699999999998 14.848999999999997 69.20499999999998 14.891999999999998 69.10399999999998 C 14.840999999999998 69.22299999999998 14.774999999999997 69.33699999999999 14.708999999999998 69.44899999999998 C 14.483999999999998 69.83099999999999 14.282999999999998 70.08599999999998 13.914999999999997 70.40299999999998 C 13.875999999999998 70.43599999999998 13.836999999999998 70.46999999999997 13.795999999999998 70.50099999999998 C 13.823999999999998 70.47999999999998 13.898999999999997 70.42699999999998 13.772999999999998 70.51399999999998 C 13.690999999999997 70.57099999999998 13.606999999999998 70.62599999999998 13.520999999999997 70.67699999999998 C 13.435999999999996 70.72699999999998 13.348999999999997 70.77399999999997 13.259999999999998 70.81799999999998 C 13.215999999999998 70.83999999999999 13.171999999999999 70.86099999999999 13.126999999999999 70.87999999999998 C 13.230999999999998 70.83499999999998 13.129 70.87799999999999 13.078 70.89599999999999 C 12.905999999999999 70.957 12.732 71.00999999999999 12.553999999999998 71.04899999999999 C 12.458999999999998 71.07 12.363999999999999 71.088 12.267999999999999 71.101 C 12.422999999999998 71.079 12.098999999999998 71.112 12.041999999999998 71.115 C 11.845999999999998 71.124 11.648999999999997 71.121 11.452999999999998 71.106 C 11.411999999999997 71.103 11.196999999999997 71.079 11.262999999999998 71.088 C 11.358999999999998 71.10199999999999 11.204999999999998 71.07799999999999 11.183999999999997 71.074 C 11.122999999999998 71.063 11.060999999999998 71.05199999999999 10.999999999999998 71.039 C 10.802999999999999 70.998 10.607999999999999 70.94500000000001 10.415999999999999 70.882 C 10.318999999999999 70.85000000000001 10.223999999999998 70.816 10.128999999999998 70.78 C 9.982999999999997 70.725 10.072999999999999 70.759 10.104999999999999 70.773 C 10.033999999999999 70.743 9.963999999999999 70.711 9.894999999999998 70.678 C 9.685999999999998 70.578 9.481999999999998 70.466 9.285999999999998 70.344 C 9.186999999999998 70.282 9.090999999999998 70.21799999999999 8.995999999999999 70.151 C 8.953999999999999 70.121 8.911999999999999 70.091 8.87 70.06 C 8.806999999999999 70.013 8.918 70.101 8.815999999999999 70.016 C 8.636 69.867 8.463999999999999 69.711 8.300999999999998 69.543 C 8.210999999999999 69.45 8.123999999999999 69.35400000000001 8.040999999999999 69.25500000000001 C 8.008 69.21600000000001 7.974999999999999 69.17600000000002 7.942999999999999 69.135 C 8.022999999999998 69.23700000000001 7.890999999999999 69.063 7.879999999999999 69.048 C 7.630999999999999 68.702 7.191999999999999 68.534 6.797999999999999 68.764 C 6.4559999999999995 68.964 6.262999999999999 69.49799999999999 6.513999999999999 69.84599999999999 C 7.764999999999999 71.57999999999998 9.861999999999998 72.80099999999999 12.043 72.698 C 14.293999999999999 72.592 16.509999999999998 70.83 16.604 68.46799999999999 C 16.662 67.02799999999999 15.878 65.695 14.54 65.14899999999999 L 14.54 66.67399999999999 C 15.773 66.445 16.615 65.092 16.305999999999997 63.88399999999999 C 15.996999999999996 62.67599999999999 14.669999999999998 61.971999999999994 13.491999999999997 62.267999999999994 L 14.260999999999997 63.58899999999999 C 15.130999999999997 62.83599999999999 15.509999999999998 61.61099999999999 15.255999999999997 60.49499999999999 C 15.001999999999995 59.37899999999999 14.072999999999997 58.48499999999999 12.983999999999996 58.18899999999999 L 12.983999999999996 59.71399999999999 C 14.664999999999996 59.035999999999994 15.021999999999997 56.85399999999999 13.765999999999996 55.581999999999994 C 12.393999999999997 54.19199999999999 10.251999999999997 54.49999999999999 8.748999999999995 55.483 C 7.293999999999995 56.434999999999995 6.362999999999995 57.876 5.605999999999995 59.406 C 5.231999999999996 60.163 4.816999999999996 60.927 4.579999999999996 61.741 C 4.331999999999995 62.588 4.256999999999995 63.501 4.340999999999996 64.378 C 4.531999999999996 66.364 5.373999999999995 68.226 6.513999999999996 69.845 C 6.759999999999996 70.194 7.204999999999996 70.357 7.595999999999996 70.129 C 7.940999999999995 69.927 8.126999999999995 69.39800000000001 7.8799999999999955 69.04700000000001 Z" stroke-linecap="round" />
</g>
		<g transform="matrix(1 0 0 1 -26.68 -14.02)"  >
<path style="stroke: rgb(255,255,255); stroke-width: 1; stroke-dasharray: none; stroke-linecap: butt; stroke-dashoffset: 0; stroke-linejoin: miter; stroke-miterlimit: 4; fill: rgb(255,255,255); fill-rule: nonzero; opacity: 1;"  transform=" translate(-22.27, -63.55)" d="M 21.725 53.148 C 21.357000000000003 58.55500000000001 21.195 63.976 21.243000000000002 69.396 C 21.257 70.926 21.287000000000003 72.455 21.334000000000003 73.984 C 21.365000000000002 74.999 22.946000000000005 75.00399999999999 22.915000000000003 73.984 C 22.750000000000004 68.567 22.791000000000004 63.14399999999999 23.043000000000003 57.72999999999999 C 23.114000000000004 56.20199999999999 23.202 54.67499999999999 23.306000000000004 53.14799999999999 C 23.335000000000004 52.72099999999999 22.922000000000004 52.35699999999999 22.515000000000004 52.35699999999999 C 22.063000000000002 52.35699999999999 21.753000000000004 52.71999999999999 21.724000000000004 53.14799999999999 L 21.724000000000004 53.14799999999999 Z" stroke-linecap="round" />
</g>
</g>
</g>
</g>
</g>
</g>
                    </g>

                    <g transform="translate(0, 227.7)">
                        
                    </g>
                </svg>