<?xml version="1.0" encoding="UTF-8"?>
<svg xmlns="http://www.w3.org/2000/svg" xmlns:xlink="http://www.w3.org/1999/xlink" viewBox="0 0 97.557 113.365">
  <defs>
    <style>
      .cls-1 {
        fill: #fb4900;
      }

      .cls-1, .cls-2, .cls-3, .cls-4, .cls-5, .cls-6 {
        stroke-width: 0px;
      }

      .cls-2 {
        fill: #ff7b24;
      }

      .cls-7 {
        opacity: .32;
      }

      .cls-7, .cls-5 {
        mix-blend-mode: multiply;
      }

      .cls-8 {
        isolation: isolate;
      }

      .cls-3, .cls-6 {
        fill: #fff;
      }

      .cls-4 {
        fill: url(#_쥔晤牆渾_藎雪猥粧_2167);
      }

      .cls-5 {
        fill: #f4f4f4;
      }

      .cls-6 {
        opacity: .16;
      }
    </style>
    <linearGradient id="_쥔晤牆渾_藎雪猥粧_2167" data-name="쥔晤牆渾 藎雪猥粧 2167" x1="137.161" y1="-198.526" x2="137.161" y2="-250.988" gradientTransform="translate(-100.727 287.481) scale(1.09)" gradientUnits="userSpaceOnUse">
      <stop offset="0" stop-color="#606060"/>
      <stop offset=".506" stop-color="#8b8b8b"/>
      <stop offset="1" stop-color="#b2b2b2"/>
    </linearGradient>
  </defs>
  <g class="cls-8">
    <g id="_레이어_2" data-name="레이어 2">
      <g id="_레이어_1-2" data-name="레이어 1">
        <g>
          <g>
            <g class="cls-7">
              <path class="cls-4" d="M19.698,62.389c.789,0,1.395-.281,1.818-.845.423-.563.634-1.239.634-2.029-1.748-.676-3.72-1.606-5.918-2.79-2.198-1.183-4.269-2.718-6.214-4.607-1.944-1.888-3.593-4.198-4.945-6.932-1.353-2.733-2.029-5.988-2.029-9.764,0-5.072,1.042-9.764,3.128-14.076,2.085-4.311,5.058-8.059,8.919-11.243,3.86-3.183,8.524-5.664,13.991-7.439,5.465-1.775,11.609-2.663,18.429-2.663,6.256,0,12.144.832,17.669,2.494,5.523,1.663,10.327,4.015,14.414,7.059,4.086,3.043,7.313,6.665,9.679,10.863,2.367,4.199,3.551,8.834,3.551,13.906,0,2.819-.451,5.524-1.353,8.116-.902,2.593-2.198,4.537-3.889,5.833-.452-.281-1.086-.689-1.902-1.226-.818-.535-1.733-1.057-2.748-1.564-1.014-.507-2.043-.957-3.086-1.353-1.043-.394-1.986-.592-2.832-.592-1.748,0-2.621.959-2.621,2.874,3.551,1.183,6.748,2.635,9.595,4.354,2.845,1.72,5.269,3.777,7.27,6.171,2,2.396,3.551,5.199,4.649,8.412,1.099,3.212,1.649,6.877,1.649,10.99,0,6.031-1.283,11.343-3.846,15.935-2.565,4.594-6.031,8.454-10.398,11.582-4.368,3.128-9.455,5.495-15.259,7.101-5.805,1.606-11.92,2.409-18.345,2.409-7.384,0-14.118-.875-20.204-2.621-6.087-1.746-11.315-4.24-15.682-7.481-4.368-3.24-7.764-7.199-10.187-11.878-2.424-4.677-3.635-9.975-3.635-15.893,0-2.705.239-5.114.719-7.228.478-2.114,1.085-3.959,1.818-5.537.732-1.577,1.549-2.917,2.451-4.015.901-1.099,1.746-1.987,2.536-2.663.619.733,1.479,1.466,2.578,2.198,1.099.733,2.24,1.409,3.424,2.029,1.183.621,2.338,1.128,3.466,1.522,1.127.395,2.029.592,2.705.592ZM51.484,41.677c.619-.619,1.014-1.169,1.184-1.649.169-.478.253-1.084.253-1.818,0-.958-.423-1.733-1.268-2.325-.845-.592-2.058-.888-3.635-.888-1.466,0-2.621.268-3.466.803-.845.536-1.268,1.34-1.268,2.409,0,.507.254.945.761,1.311.507.367,1.169.676,1.987.93.816.253,1.704.479,2.663.676.958.198,1.888.38,2.79.549ZM46.412,71.181c-.676.621-1.156,1.141-1.437,1.564-.283.423-.423,1.001-.423,1.733,0,.959.423,1.733,1.268,2.325.845.592,2.057.888,3.635.888,1.465,0,2.621-.267,3.466-.803.845-.535,1.268-1.338,1.268-2.409,0-.394-.241-.761-.719-1.099-.479-.338-1.086-.634-1.818-.888-.733-.254-1.564-.493-2.494-.719-.93-.225-1.846-.423-2.747-.592Z"/>
            </g>
            <path class="cls-3" d="M21.011,60.83c.724,0,1.28-.258,1.667-.776.388-.516.582-1.137.582-1.861-1.603-.621-3.413-1.474-5.429-2.559-2.017-1.086-3.917-2.494-5.701-4.227-1.784-1.732-3.296-3.851-4.537-6.36-1.241-2.507-1.861-5.493-1.861-8.958,0-4.653.956-8.958,2.87-12.913,1.912-3.956,4.641-7.394,8.182-10.315,3.541-2.921,7.82-5.196,12.836-6.825,5.014-1.629,10.651-2.443,16.907-2.443,5.739,0,11.142.763,16.21,2.288,5.067,1.526,9.474,3.684,13.224,6.476,3.748,2.792,6.709,6.115,8.88,9.966,2.172,3.853,3.257,8.105,3.257,12.758,0,2.586-.414,5.068-1.241,7.446-.828,2.379-2.017,4.163-3.568,5.351-.414-.258-.996-.632-1.745-1.124-.75-.491-1.59-.969-2.521-1.435-.93-.465-1.874-.878-2.831-1.241-.957-.361-1.822-.543-2.598-.543-1.603,0-2.404.88-2.404,2.637,3.257,1.086,6.191,2.418,8.802,3.994,2.611,1.578,4.834,3.465,6.67,5.662,1.835,2.198,3.257,4.77,4.266,7.717,1.008,2.947,1.513,6.309,1.513,10.082,0,5.533-1.177,10.406-3.529,14.62-2.353,4.215-5.533,7.756-9.54,10.626-4.007,2.87-8.674,5.041-13.999,6.515-5.326,1.474-10.936,2.21-16.83,2.21-6.774,0-12.952-.802-18.536-2.404-5.584-1.602-10.381-3.89-14.387-6.864-4.008-2.973-7.123-6.605-9.346-10.897-2.224-4.291-3.335-9.152-3.335-14.581,0-2.482.219-4.692.66-6.631.439-1.939.995-3.632,1.667-5.08.671-1.447,1.421-2.676,2.249-3.684.827-1.008,1.602-1.823,2.327-2.443.568.673,1.357,1.345,2.365,2.017,1.008.672,2.056,1.293,3.141,1.861,1.086.57,2.145,1.035,3.18,1.396,1.034.362,1.861.543,2.482.543ZM50.173,41.829c.568-.568.93-1.072,1.086-1.512.155-.439.232-.995.232-1.668,0-.879-.388-1.59-1.163-2.133-.775-.543-1.888-.814-3.335-.814-1.345,0-2.404.246-3.18.737-.775.492-1.163,1.229-1.163,2.21,0,.466.233.867.698,1.202.465.337,1.073.62,1.823.853.749.233,1.563.44,2.443.62.878.182,1.732.349,2.559.504ZM45.52,68.896c-.62.57-1.06,1.047-1.318,1.435-.259.388-.388.919-.388,1.59,0,.88.388,1.59,1.164,2.133.775.543,1.887.814,3.335.814,1.344,0,2.405-.245,3.18-.737.776-.491,1.164-1.227,1.164-2.21,0-.361-.221-.698-.659-1.008-.44-.31-.996-.582-1.668-.814-.673-.233-1.435-.452-2.288-.659-.853-.206-1.694-.388-2.521-.543Z"/>
            <path class="cls-1" d="M19.924,59.743c.724,0,1.28-.258,1.667-.776.388-.516.582-1.137.582-1.861-1.603-.62-3.413-1.474-5.429-2.559-2.017-1.086-3.917-2.494-5.701-4.227-1.784-1.732-3.296-3.851-4.537-6.36-1.241-2.507-1.861-5.493-1.861-8.958,0-4.653.956-8.958,2.87-12.913,1.912-3.956,4.64-7.394,8.182-10.315,3.541-2.921,7.82-5.196,12.836-6.825,5.014-1.629,10.651-2.443,16.907-2.443,5.739,0,11.142.763,16.21,2.288,5.067,1.526,9.474,3.684,13.224,6.476,3.748,2.792,6.709,6.115,8.88,9.966,2.172,3.853,3.257,8.105,3.257,12.758,0,2.586-.414,5.068-1.241,7.446-.828,2.379-2.016,4.163-3.567,5.352-.415-.258-.996-.633-1.745-1.125-.75-.491-1.59-.969-2.521-1.435-.93-.465-1.874-.878-2.831-1.241-.957-.361-1.822-.543-2.598-.543-1.603,0-2.404.88-2.404,2.637,3.257,1.086,6.191,2.418,8.803,3.994,2.61,1.578,4.834,3.465,6.67,5.662,1.835,2.198,3.258,4.77,4.266,7.717,1.008,2.947,1.513,6.309,1.513,10.082,0,5.533-1.177,10.406-3.529,14.62-2.354,4.215-5.533,7.756-9.54,10.625-4.007,2.87-8.674,5.041-13.999,6.515-5.326,1.474-10.936,2.21-16.83,2.21-6.774,0-12.952-.802-18.536-2.404-5.584-1.602-10.381-3.89-14.387-6.864-4.008-2.973-7.123-6.605-9.346-10.897-2.224-4.291-3.335-9.152-3.335-14.581,0-2.482.219-4.692.659-6.631.439-1.939.995-3.632,1.668-5.08.671-1.447,1.421-2.676,2.249-3.684.827-1.008,1.602-1.823,2.327-2.443.568.673,1.357,1.345,2.365,2.017,1.008.673,2.055,1.293,3.141,1.861,1.086.57,2.145,1.035,3.18,1.396,1.034.362,1.861.543,2.482.543ZM49.086,40.741c.568-.568.93-1.072,1.086-1.512.155-.439.232-.995.232-1.667,0-.879-.388-1.59-1.163-2.133-.775-.543-1.888-.814-3.335-.814-1.345,0-2.404.246-3.18.737-.775.492-1.163,1.229-1.163,2.21,0,.465.233.867.698,1.202.465.337,1.073.62,1.823.853.749.233,1.563.44,2.443.62.878.182,1.732.349,2.559.504ZM44.432,67.809c-.62.57-1.06,1.047-1.318,1.435-.259.388-.388.919-.388,1.59,0,.88.388,1.59,1.164,2.133.775.543,1.887.814,3.335.814,1.344,0,2.405-.245,3.18-.737.776-.491,1.164-1.227,1.164-2.21,0-.361-.221-.698-.66-1.008-.44-.31-.996-.582-1.667-.815-.673-.233-1.435-.452-2.288-.659-.853-.206-1.694-.388-2.52-.543Z"/>
            <path class="cls-3" d="M47.022,103.9c-6.536,0-12.571-.78-17.936-2.32-5.308-1.523-9.914-3.716-13.691-6.52-3.722-2.761-6.653-6.176-8.71-10.151-2.052-3.959-3.092-8.528-3.092-13.581,0-2.311.204-4.38.605-6.15.403-1.779.914-3.341,1.519-4.645.591-1.275,1.25-2.358,1.958-3.22.234-.286.463-.553.687-.803.343.27.716.538,1.119.807,1.066.711,2.189,1.377,3.338,1.978,1.175.617,2.344,1.129,3.472,1.523,1.274.447,2.321.664,3.198.664,1.402,0,2.613-.585,3.408-1.647.673-.897,1.016-1.963,1.016-3.165v-1.49l-1.39-.538c-1.511-.585-3.254-1.408-5.183-2.446-1.832-.986-3.586-2.289-5.216-3.872-1.598-1.551-2.978-3.491-4.103-5.764-1.085-2.193-1.636-4.883-1.636-7.994,0-4.302.892-8.328,2.652-11.966,1.766-3.652,4.325-6.876,7.609-9.585,3.314-2.733,7.393-4.898,12.123-6.434,4.774-1.55,10.236-2.337,16.236-2.337,5.497,0,10.74.739,15.583,2.196,4.8,1.445,9.023,3.51,12.551,6.138,3.485,2.596,6.273,5.722,8.285,9.29,1.975,3.504,2.977,7.437,2.977,11.69,0,2.329-.377,4.593-1.12,6.731-.467,1.343-1.063,2.451-1.777,3.312-.093-.061-.189-.124-.287-.188-.824-.539-1.745-1.064-2.742-1.562-.987-.494-2.007-.941-3.033-1.329-1.204-.454-2.337-.684-3.369-.684-2.824,0-4.579,1.844-4.579,4.812v1.568l1.487.496c3.087,1.029,5.901,2.305,8.366,3.793,2.392,1.446,4.454,3.194,6.125,5.195,1.656,1.984,2.961,4.348,3.877,7.026.926,2.706,1.396,5.862,1.396,9.378,0,5.131-1.094,9.693-3.253,13.56-2.185,3.912-5.181,7.249-8.907,9.917-3.779,2.707-8.259,4.788-13.313,6.187-5.112,1.414-10.58,2.132-16.25,2.132ZM42.527,65.772c-.76.697-1.302,1.297-1.659,1.832-.498.745-.752,1.687-.752,2.795,0,1.58.743,2.971,2.091,3.915,1.16.812,2.659,1.208,4.582,1.208,1.759,0,3.221-.362,4.345-1.076,1.401-.886,2.173-2.324,2.173-4.047,0-.623-.205-1.812-1.579-2.784-.614-.433-1.337-.791-2.211-1.094-.732-.253-1.568-.495-2.486-.718-.899-.217-1.784-.408-2.633-.567l-1.07-.2-.802.736ZM45.471,32.004c-1.755,0-3.217.361-4.343,1.074-1.403.891-2.175,2.328-2.175,4.048,0,1.168.568,2.221,1.6,2.966.66.478,1.463.86,2.451,1.167.816.253,1.708.48,2.65.674.845.175,3.724.723,3.724.723l.811-.811c.809-.809,1.332-1.57,1.599-2.326.239-.677.356-1.46.356-2.391,0-1.581-.743-2.971-2.091-3.915-1.16-.812-2.659-1.207-4.582-1.207Z"/>
            <path class="cls-2" d="M47.457,104.335c-6.536,0-12.571-.78-17.937-2.32-5.308-1.523-9.914-3.716-13.691-6.52-3.722-2.761-6.653-6.176-8.71-10.15-2.052-3.959-3.092-8.528-3.092-13.581,0-2.311.204-4.38.605-6.15.403-1.779.914-3.341,1.519-4.646.592-1.275,1.25-2.358,1.958-3.22.234-.286.463-.554.687-.803.344.27.716.539,1.119.807,1.066.711,2.189,1.377,3.338,1.978,1.175.617,2.344,1.129,3.472,1.523,1.274.447,2.321.664,3.198.664,1.402,0,2.613-.585,3.408-1.647.674-.897,1.016-1.963,1.016-3.165v-1.49l-1.39-.538c-1.511-.585-3.254-1.407-5.183-2.446-1.832-.986-3.586-2.289-5.216-3.872-1.598-1.552-2.978-3.491-4.103-5.764-1.085-2.193-1.636-4.882-1.636-7.994,0-4.302.892-8.328,2.653-11.966,1.765-3.652,4.325-6.876,7.608-9.585,3.314-2.733,7.393-4.898,12.124-6.434,4.774-1.551,10.236-2.337,16.236-2.337,5.497,0,10.74.739,15.583,2.196,4.8,1.445,9.023,3.51,12.552,6.138,3.485,2.596,6.273,5.722,8.284,9.29,1.976,3.504,2.977,7.438,2.977,11.69,0,2.329-.377,4.593-1.12,6.731-.467,1.343-1.063,2.451-1.777,3.312-.093-.061-.189-.124-.287-.189-.824-.539-1.746-1.064-2.742-1.562-.987-.494-2.007-.941-3.033-1.329-1.204-.454-2.337-.684-3.369-.684-2.824,0-4.579,1.844-4.579,4.812v1.567l1.487.496c3.087,1.029,5.901,2.305,8.366,3.793,2.393,1.446,4.453,3.194,6.125,5.194,1.656,1.984,2.961,4.348,3.876,7.026.926,2.706,1.396,5.862,1.396,9.378,0,5.131-1.094,9.693-3.253,13.56-2.184,3.912-5.181,7.249-8.907,9.917-3.779,2.707-8.259,4.788-13.313,6.187-5.112,1.414-10.58,2.132-16.25,2.132ZM42.962,66.207c-.76.697-1.302,1.297-1.659,1.832-.498.745-.752,1.687-.752,2.795,0,1.58.743,2.971,2.091,3.915,1.16.812,2.659,1.208,4.582,1.208,1.759,0,3.221-.362,4.345-1.076,1.401-.886,2.173-2.324,2.173-4.047,0-.623-.205-1.813-1.579-2.784-.614-.433-1.337-.791-2.211-1.094-.732-.253-1.568-.495-2.486-.717-.899-.217-1.784-.408-2.633-.567l-1.07-.2-.802.736ZM45.906,32.439c-1.756,0-3.217.361-4.343,1.074-1.403.891-2.175,2.328-2.175,4.048,0,1.168.568,2.221,1.6,2.966.66.478,1.463.86,2.451,1.167.816.254,1.708.48,2.65.674.845.175,3.724.723,3.724.723l.811-.811c.809-.809,1.332-1.57,1.598-2.326.239-.677.356-1.46.356-2.391,0-1.581-.743-2.971-2.091-3.915-1.16-.812-2.659-1.207-4.582-1.207Z"/>
          </g>
          <path class="cls-5" d="M18.276,92.176c4.803,4.003,10.15,7.571,16.203,9.137,3.758.972,7.683,1.145,11.56.969,10.484-.474,20.969-3.557,29.518-9.644,2.374-1.69,4.617-3.633,6.238-6.054,2.362-3.53,3.251-7.85,3.542-12.087.499-7.246-.781-14.961-5.391-20.574-1.614-1.965-3.666-3.659-6.1-4.396-1.713-.519-3.544-.547-5.26-1.057-1.716-.51-3.424-1.709-3.724-3.473-.483-2.849,2.875-4.883,5.759-5.064,2.884-.181,5.949.55,8.567-.672,2.993-1.397,4.401-4.998,4.332-8.301-.157-7.495-7.345-14.093-14.826-13.61-1.794.116-3.58.59-5.122,1.515-2.643,1.585-4.372,4.367-5.426,7.263-5.016,13.788,3.559,29.138,1.04,43.592-.349,2.005-.934,4.018-2.137,5.659-2.789,3.804-8.282,4.678-12.856,3.527-4.575-1.151-8.547-3.902-12.65-6.23-3.694-2.097-7.564-3.878-11.54-5.372-3.032-1.139-6.325-2.556-9.511-1.133-6.822,3.047-4.112,11.782-1.063,16.519,2.354,3.657,5.522,6.715,8.846,9.485Z"/>
          <path class="cls-5" d="M40.358,60.199c2.579.4,5.486-.264,7.099-2.316,1.926-2.45,1.365-6.277-.773-8.545-2.689-2.852-7.367-3.699-9.109-7.21-1.36-2.741-.275-6.2,1.826-8.424,1.023-1.083,2.374-2.213,2.231-3.696-.1-1.036-.986-1.88-1.987-2.162-1.001-.283-2.083-.088-3.052.291-3.59,1.401-5.767,5.034-7.257,8.587-1.111,2.65-1.995,5.396-2.637,8.198-.782,3.412-.722,6.77,1.713,9.518,1.469,1.658,3.983,2.404,5.885,3.432,1.907,1.03,3.901,1.992,6.062,2.327Z"/>
          <path class="cls-5" d="M34.502,101.03c1.016.273,2.348.391,2.881-.516.373-.635.102-1.487-.419-2.007-.521-.52-1.234-.788-1.919-1.057-4.678-1.837-9.077-4.384-13-7.526-3.459-2.771-6.535-5.989-9.901-8.872-.941-.806-2.336-1.697-3.319-.454-.802,1.014-.019,1.928.62,2.781,1.53,2.045,3.08,4.031,4.88,5.852,1.774,1.795,3.7,3.44,5.749,4.915,2.049,1.475,4.22,2.779,6.486,3.892,2.265,1.112,4.624,2.033,7.047,2.741.298.087.597.171.897.251Z"/>
          <path class="cls-5" d="M71.425,98.156c3.061-1.646,5.942-3.743,8.03-6.522,2.364-3.147,3.592-7.005,4.374-10.862.597-2.951.947-6.07-.004-8.926-.168-.505-.405-1.031-.863-1.304-.666-.396-1.569-.082-2.088.493-.519.576-.751,1.346-.987,2.085-2.574,8.076-7.648,15.717-15.219,19.528-5.356,2.696-11.482,3.286-17.298,4.742-1.079.27-2.221.615-2.93,1.471-.513.619-.68,1.613-.281,2.332.463.836,1.199.873,2.069,1.024,2.078.361,4.186.549,6.295.568,4.196.036,8.398-.598,12.396-1.874,2.247-.717,4.429-1.638,6.507-2.754Z"/>
          <path class="cls-5" d="M77.8,60.742c.018,1.034.525,2,1.139,2.833.528.716,1.176,1.389,2.011,1.695s1.888.154,2.433-.55c.463-.599.466-1.422.436-2.178-.033-.822-.084-1.657-.363-2.432-.279-.774-.818-1.492-1.58-1.801-.806-.327-2.247-.261-2.986.218-.722.468-1.104,1.374-1.089,2.216Z"/>
          <path class="cls-5" d="M34.102,48.384c2.393,3.049,6.471,4.679,10.306,4.12,1.025-.149,2.06-.46,2.849-1.13.789-.67,1.283-1.758,1.027-2.762-.423-1.659-2.418-2.223-4.002-2.873-3.236-1.327-5.8-4.195-6.757-7.559-.148-.522-.273-1.078-.638-1.48-.508-.558-1.372-.666-2.099-.462-.689.194-1.642.685-2.148,1.219-.534.564-.644,1.652-.752,2.384-.28,1.905-.064,3.881.614,5.683.386,1.026.922,1.997,1.6,2.86Z"/>
          <path class="cls-5" d="M69.58,38.5c2.869-.047,5.552,1.59,8.421,1.619,1.18.012,2.599-.486,2.794-1.65.163-.972-.63-1.827-1.408-2.433-2.072-1.613-4.549-2.741-7.155-3.062-2.606-.321-5.338.193-7.558,1.595-1.625,1.026-3.163,2.882-2.964,4.92.082.843.669,2.148,1.724,1.858.984-.271,1.732-1.328,2.607-1.839,1.071-.625,2.299-.988,3.541-1.008Z"/>
          <path class="cls-5" d="M76.644,30.953c.684,1.371,2.326,2.192,3.834,1.916.473-.087.937-.277,1.284-.609.587-.563.751-1.437.752-2.25.001-1.524-.543-3.142-1.792-4.016-.92-.644-2.504-.784-3.425-.042-.694.559-.716,1.692-.885,2.494-.18.852-.164,1.713.232,2.508Z"/>
          <path class="cls-6" d="M43.425,9.887c-8.083.975-16.27,3.139-22.737,8.084-6.468,4.945-10.91,13.109-9.698,21.16.571,3.796,2.532,7.561,5.881,9.435,3.349,1.874,8.144,1.291,10.33-1.864,2.533-3.654.874-8.888,2.802-12.895,1.81-3.762,6.343-5.447,10.516-5.575,4.173-.128,8.3.93,12.474.994,3.561.054,7.132-.626,10.423-1.987,2.462-1.017,4.975-2.654,6.236-5.08,1.528-2.937.33-5.515-1.705-7.785-1.251-1.395-2.565-2.602-4.368-3.211-2.556-.863-5.396-1.313-8.067-1.575-4.022-.395-8.083-.185-12.087.298Z"/>
          <path class="cls-6" d="M21.439,64.165c-2.263-.466-4.404-1.416-6.665-1.896-2.261-.48-4.799-.422-6.656.954-2.778,2.058-2.901,6.5-.895,9.316,2.006,2.816,5.538,4.183,8.977,4.543,4.532.475,9.21-.58,13.099-2.954,2.701-1.648,4.993-3.884,7.569-5.722,2.576-1.838,5.618-3.313,8.775-3.09-.022-.002-.943-1.655-1.097-1.826-.505-.561-1.119-1.023-1.79-1.366-1.239-.633-2.797-.845-4.182-.775-1.627.082-3.309,1.065-4.846,1.564-1.878.609-3.798,1.113-5.756,1.384-2.168.3-4.383.308-6.533-.135Z"/>
          <path class="cls-6" d="M50.295,54.846c-.092,2.055.135,4.235,1.335,5.906s3.612,2.602,5.406,1.595c1.26-.707,1.917-2.135,2.371-3.507,1.641-4.96,1.599-10.437-.002-15.402-.501-1.555-1.465-4.685-3.756-3.992-1.07.324-1.407,1.636-1.812,2.544-.559,1.253-1.088,2.52-1.56,3.809-1.065,2.907-1.842,5.942-1.981,9.045Z"/>
          <path class="cls-3" d="M42.797,5.628c-12.73.339-24.776,7.445-31.082,18.543-2.923,5.145,5.007,9.778,7.929,4.635,4.752-8.365,13.765-13.745,23.153-13.995,2.48-.066,4.591-2.063,4.591-4.591,0-2.437-2.101-4.657-4.591-4.591Z"/>
          <path class="cls-3" d="M55.509,6.981c-5.908,0-5.918,9.182,0,9.182s5.918-9.182,0-9.182Z"/>
          <path class="cls-3" d="M37.616,57.366c-5.908,0-5.918,9.182,0,9.182s5.918-9.182,0-9.182Z"/>
        </g>
      </g>
    </g>
  </g>
</svg>