<?xml version="1.0" encoding="UTF-8"?>
<svg xmlns="http://www.w3.org/2000/svg" xmlns:xlink="http://www.w3.org/1999/xlink" viewBox="0 0 86.482 111.59">
  <defs>
    <style>
      .cls-1 {
        opacity: .32;
      }

      .cls-1, .cls-2 {
        mix-blend-mode: multiply;
      }

      .cls-3 {
        isolation: isolate;
      }

      .cls-4 {
        fill: #1fc5ff;
      }

      .cls-4, .cls-5, .cls-6, .cls-7, .cls-2, .cls-8 {
        stroke-width: 0px;
      }

      .cls-5 {
        fill: #5ad9ff;
      }

      .cls-6, .cls-8 {
        fill: #fff;
      }

      .cls-7 {
        fill: url(#_쥔晤牆渾_藎雪猥粧_2167);
      }

      .cls-2 {
        fill: #f4f4f4;
      }

      .cls-8 {
        opacity: .16;
      }
    </style>
    <linearGradient id="_쥔晤牆渾_藎雪猥粧_2167" data-name="쥔晤牆渾 藎雪猥粧 2167" x1="108.998" y1="-199.486" x2="108.998" y2="-251.126" gradientTransform="translate(-75.567 287.414) scale(1.09)" gradientUnits="userSpaceOnUse">
      <stop offset="0" stop-color="#606060"/>
      <stop offset=".506" stop-color="#8b8b8b"/>
      <stop offset="1" stop-color="#b2b2b2"/>
    </linearGradient>
  </defs>
  <g class="cls-3">
    <g id="_레이어_2" data-name="레이어 2">
      <g id="_레이어_1-2" data-name="레이어 1">
        <g>
          <g>
            <g class="cls-1">
              <path class="cls-7" d="M7.778,39.733c-1.184-1.07-2.255-2.338-3.213-3.804-.958-1.465-1.775-3.071-2.451-4.819-.676-1.746-1.197-3.593-1.564-5.537-.366-1.944-.55-3.902-.55-5.875,0-2.029.198-4.015.592-5.96.395-1.944.959-3.762,1.691-5.453.733-1.691,1.606-3.24,2.621-4.65,1.014-1.408,2.169-2.621,3.466-3.635h48.102c5.58,0,10.285.592,14.118,1.775,3.832,1.184,6.932,2.832,9.299,4.946,2.367,2.113,4.058,4.622,5.072,7.524,1.015,2.903,1.522,6.044,1.522,9.426,0,2.481-.211,4.988-.634,7.524-.423,2.536-.972,5.072-1.648,7.608l-23.755,41.424c-1.804,3.212-3.199,6.355-4.184,9.426-.987,3.072-1.48,6.213-1.48,9.426,0,1.128.042,2.255.127,3.381.084,1.128.267,2.255.549,3.382-2.705,2.255-5.82,3.776-9.341,4.565-3.523.788-6.89,1.184-10.102,1.184-4.34,0-8.158-.663-11.455-1.987-3.297-1.323-6.059-3.128-8.285-5.41-2.227-2.283-3.903-4.916-5.03-7.904-1.128-2.987-1.691-6.142-1.691-9.468,0-2.874.465-5.776,1.395-8.707.93-2.93,2.127-5.776,3.593-8.538l13.526-25.869h13.357c.958,0,1.831-.169,2.621-.507.788-.338,1.183-1.07,1.183-2.198v-.592c0-.225-.029-.451-.085-.676H7.778Z"/>
            </g>
            <path class="cls-6" d="M9.618,39.972c-1.086-.982-2.069-2.145-2.948-3.49-.878-1.344-1.629-2.818-2.249-4.421-.62-1.602-1.098-3.296-1.435-5.08-.336-1.784-.504-3.58-.504-5.39,0-1.861.182-3.684.543-5.468.362-1.784.88-3.451,1.551-5.002.673-1.551,1.473-2.973,2.404-4.266.931-1.292,1.99-2.404,3.18-3.335h44.13c5.119,0,9.435.543,12.952,1.629,3.515,1.086,6.36,2.598,8.531,4.537,2.172,1.939,3.723,4.24,4.653,6.903.931,2.664,1.396,5.545,1.396,8.648,0,2.276-.194,4.576-.582,6.903-.388,2.327-.892,4.654-1.512,6.98l-21.794,38.003c-1.655,2.947-2.935,5.83-3.839,8.648-.905,2.819-1.357,5.7-1.357,8.648,0,1.035.039,2.069.117,3.102.077,1.035.245,2.069.504,3.102-2.482,2.069-5.339,3.465-8.57,4.188-3.232.723-6.321,1.086-9.268,1.086-3.982,0-7.484-.608-10.509-1.823-3.025-1.214-5.559-2.87-7.601-4.964-2.043-2.094-3.581-4.51-4.615-7.252-1.035-2.74-1.551-5.635-1.551-8.686,0-2.637.427-5.299,1.28-7.988.853-2.688,1.951-5.299,3.296-7.833l12.409-23.733h12.254c.879,0,1.68-.155,2.404-.465.723-.31,1.086-.982,1.086-2.016v-.543c0-.206-.026-.413-.078-.62H9.618Z"/>
            <path class="cls-4" d="M8.531,38.884c-1.086-.982-2.069-2.145-2.947-3.49-.878-1.344-1.628-2.818-2.249-4.421-.62-1.602-1.098-3.296-1.435-5.08-.336-1.784-.504-3.58-.504-5.39,0-1.861.182-3.684.543-5.468.363-1.784.88-3.451,1.551-5.002.672-1.551,1.473-2.973,2.404-4.266.93-1.292,1.99-2.404,3.18-3.335h44.13c5.119,0,9.435.543,12.952,1.629,3.516,1.086,6.36,2.598,8.531,4.537,2.172,1.939,3.723,4.24,4.654,6.903.931,2.663,1.396,5.545,1.396,8.648,0,2.276-.194,4.576-.582,6.903-.388,2.327-.892,4.654-1.512,6.98l-21.794,38.003c-1.655,2.947-2.935,5.83-3.839,8.648-.905,2.819-1.357,5.701-1.357,8.648,0,1.035.039,2.069.117,3.102.077,1.035.244,2.069.504,3.102-2.482,2.069-5.339,3.465-8.57,4.188-3.232.723-6.321,1.086-9.268,1.086-3.982,0-7.484-.608-10.509-1.823-3.025-1.214-5.559-2.87-7.601-4.964-2.043-2.094-3.581-4.511-4.615-7.252-1.035-2.74-1.551-5.635-1.551-8.686,0-2.637.427-5.299,1.28-7.988.853-2.688,1.951-5.299,3.296-7.834l12.409-23.733h12.254c.879,0,1.68-.155,2.405-.465.723-.31,1.086-.982,1.086-2.017v-.543c0-.206-.027-.413-.078-.62H8.531Z"/>
            <path class="cls-6" d="M34,102.199c-3.682,0-6.945-.561-9.699-1.666-2.727-1.095-5.033-2.596-6.854-4.464-1.823-1.869-3.215-4.056-4.137-6.501-.937-2.48-1.411-5.144-1.411-7.919,0-2.401.396-4.867,1.178-7.331.81-2.554,1.868-5.068,3.144-7.471l11.805-22.578h10.937c1.17,0,2.267-.215,3.26-.641,1.529-.656,2.405-2.119,2.405-4.016v-.543c0-.378-.047-.762-.141-1.141l-.408-1.654H8.969c-.719-.732-1.39-1.571-2-2.505-.792-1.213-1.48-2.564-2.041-4.016-.569-1.468-1.015-3.049-1.326-4.698-.31-1.644-.467-3.322-.467-4.987,0-1.704.168-3.399.5-5.036.33-1.625.806-3.163,1.415-4.57.607-1.401,1.339-2.7,2.174-3.859.658-.914,1.395-1.729,2.197-2.431h43.348c4.876,0,9.019.515,12.311,1.532,3.199.988,5.798,2.361,7.724,4.081,1.91,1.705,3.234,3.667,4.049,5.998.846,2.419,1.274,5.087,1.274,7.93,0,2.145-.186,4.348-.552,6.545-.359,2.156-.829,4.343-1.396,6.504l-21.651,37.755c-1.728,3.076-3.078,6.12-4.023,9.065-.97,3.019-1.462,6.152-1.462,9.312,0,1.082.041,2.181.123,3.265.051.684.138,1.373.261,2.058-1.964,1.41-4.19,2.4-6.633,2.947-3.063.686-6.022,1.033-8.793,1.033Z"/>
            <path class="cls-5" d="M34.435,102.633c-3.682,0-6.945-.561-9.699-1.666-2.727-1.095-5.033-2.596-6.854-4.464-1.823-1.869-3.215-4.056-4.137-6.501-.937-2.48-1.411-5.144-1.411-7.919,0-2.401.396-4.867,1.178-7.331.811-2.554,1.868-5.068,3.144-7.471l11.805-22.577h10.937c1.17,0,2.267-.216,3.26-.641,1.529-.656,2.405-2.119,2.405-4.016v-.543c0-.378-.047-.762-.141-1.141l-.408-1.654H9.404c-.719-.732-1.39-1.571-2-2.505-.793-1.213-1.48-2.564-2.041-4.016-.569-1.468-1.015-3.049-1.326-4.698-.31-1.643-.467-3.322-.467-4.987,0-1.704.168-3.399.5-5.036.33-1.625.806-3.163,1.415-4.57.607-1.401,1.339-2.7,2.173-3.859.658-.914,1.395-1.729,2.197-2.431h43.348c4.876,0,9.018.515,12.311,1.532,3.199.988,5.798,2.361,7.724,4.081,1.91,1.705,3.234,3.667,4.049,5.998.846,2.419,1.274,5.087,1.274,7.93,0,2.145-.186,4.348-.552,6.545-.359,2.156-.829,4.343-1.396,6.504l-21.651,37.755c-1.728,3.076-3.079,6.12-4.023,9.065-.97,3.019-1.462,6.152-1.462,9.312,0,1.082.041,2.18.123,3.265.051.685.138,1.373.261,2.058-1.965,1.411-4.19,2.4-6.634,2.947-3.063.686-6.022,1.033-8.793,1.033Z"/>
          </g>
          <path class="cls-2" d="M15.713,91.106c2.916,3.859,7.458,6.215,12.127,7.481,4.357,1.181,8.963,1.514,13.419.791,2.109-.342,4.364-1.045,5.543-2.826.876-1.322.989-2.987,1.172-4.563,1.103-9.543,5.635-18.349,10.794-26.453,5.159-8.105,11.038-15.789,15.326-24.386,4.031-8.081,6.529-17.904,2.518-25.995-1.14-2.299-3.015-4.502-5.55-4.899-2.674-.419-5.304,1.358-6.731,3.658-1.427,2.3-1.909,5.043-2.394,7.706-1.812,9.95-4.113,19.994-9.11,28.787-4.998,8.793-13.082,16.29-22.965,18.444-5.191,1.131-10.819.96-14.709,5.139-1.107,1.19-2.171,2.51-2.47,4.15-.303,1.663.025,3.433.171,5.095.252,2.866,1.108,5.554,2.859,7.871Z"/>
          <path class="cls-2" d="M30.7,34.655c3.422-.297,6.922-.615,10.043-2.049,3.995-1.835,7.095-5.515,8.225-9.762.387-1.454.549-3.015.104-4.452-.906-2.926-4.214-4.618-7.273-4.454-3.058.164-5.848,1.811-8.209,3.762-2.361,1.95-4.433,4.244-6.889,6.072-3.307,2.462-7.278,4.023-11.377,4.472-1.339.147-2.707.181-3.984.609-1.277.429-2.485,1.349-2.826,2.651-.882,3.367,3.733,3.525,5.81,3.683,3.464.263,6.944.165,10.406-.059,1.992-.129,3.981-.301,5.969-.474Z"/>
          <path class="cls-2" d="M19.284,96.499c2.778,2.895,6.618,5.02,10.625,4.829.303-.014.636-.056.841-.279.214-.233.219-.592.144-.9-.256-1.057-1.243-1.783-2.255-2.182-1.012-.399-2.108-.566-3.099-1.015-2.361-1.071-3.733-3.533-4.8-5.895-.665-1.471-1.288-2.977-2.179-4.331-.717-1.089-2.07-2.925-3.572-2.753-1.666.19-1.135,2.288-.857,3.332.431,1.621,1.055,3.19,1.854,4.665.892,1.647,2.001,3.178,3.298,4.529Z"/>
          <path class="cls-2" d="M32.556,98.792c-.213.731.04,1.549.539,2.124s1.215.93,1.954,1.115c1.32.332,2.763.148,3.958-.503.343-.187.677-.422.872-.761.231-.401.237-.899.132-1.351-.304-1.316-1.446-2.298-2.688-2.828-.971-.415-2.032-.393-2.939.173-.723.451-1.584,1.191-1.828,2.03Z"/>
          <path class="cls-2" d="M48.095,94.62c-.255-4.262.338-8.574,1.734-12.609,2.019-5.835,5.665-11.022,7.496-16.919.207-.665.385-1.406.093-2.039-.561-1.212-2.34-1.13-3.55-.562-3.045,1.43-4.956,4.512-6.303,7.595-3.629,8.311-4.357,17.554-5.037,26.597-.099,1.323.259,3.275,1.953,3.266,1.617-.009,3.16-.884,3.534-2.516.211-.919.136-1.882.08-2.814Z"/>
          <path class="cls-2" d="M59.6,53.97c-.372.658-.732,1.343-.842,2.091s.07,1.579.635,2.08c.848.751,2.188.505,3.188-.027,1.566-.833,2.802-2.268,3.394-3.94.31-.876.445-1.853.141-2.732-.363-1.05-1.442-1.882-2.542-1.458-1.174.453-2.076,1.228-2.835,2.223-.425.557-.795,1.154-1.139,1.763Z"/>
          <path class="cls-2" d="M11.077,34.895c1.125.414,2.391.185,3.509-.25.798-.31,1.646-.84,1.777-1.687.159-1.027-.805-1.854-1.694-2.392-.765-.462-1.571-.888-2.449-1.059-1.175-.228-2.547.075-3.171,1.186-.651,1.159-.074,1.909.536,2.916.352.58.847,1.047,1.492,1.285Z"/>
          <path class="cls-2" d="M21.984,36.752c3.658.023,7.316.04,10.974.052,3.767.012,7.597.009,11.208-1.062.214-.064.454-.154.536-.362.08-.201-.024-.426-.144-.607-.836-1.258-2.429-1.743-3.91-2.04-2.611-.524-5.272-.747-7.925-.969-3.497-.292-6.994-.584-10.491-.877-1.693-.141-3.855-.134-4.32,1.896-.325,1.423.225,2.203,1.294,3.077.872.712,1.662.885,2.778.892Z"/>
          <path class="cls-8" d="M7.002,17.172c.216-2.846.988-5.896,3.233-7.659,1.832-1.439,4.284-1.742,6.604-1.951,12.467-1.124,25.042-1.059,37.497.193,4.591.462,9.366,1.159,13.15,3.8,1.496,1.044,2.881,2.568,2.902,4.392.023,1.98-1.639,3.668-3.516,4.298-1.877.63-3.922.425-5.882.146-6.987-.995-13.859-2.843-20.9-3.308-7.042-.465-14.512.613-20.136,4.876-1.899,1.44-3.564,3.222-5.676,4.327-1.077.564-2.3.906-3.52.905-.925-.001-2.578-.212-3.084-1.118-.59-1.057-.556-3.074-.654-4.257-.127-1.544-.133-3.098-.016-4.643Z"/>
          <path class="cls-8" d="M25.378,53.437c-2.793,5.23-5.586,10.46-8.379,15.69-.67,1.254-1.359,2.695-.901,4.042.695,2.046,3.578,2.401,5.546,1.509,4.709-2.135,6.304-8.457,10.935-10.755,1.246-.618,2.628-.895,3.967-1.271,4.86-1.365,9.642-4.558,11.001-9.42.38-1.361.412-2.988-.564-4.01-1.256-1.316-3.414-1.043-5.054-.999-1.677.046-3.269.034-4.888-.451-2.871-.859-5.771-1.133-8.288.944-1.486,1.226-2.524,3.019-3.375,4.722Z"/>
          <path class="cls-8" d="M49.98,24.201c-1.288.715-2.453,1.897-2.589,3.364-.145,1.569.964,3.052,2.366,3.773,1.401.721,3.037.817,4.612.771,2.384-.07,4.816-.454,6.9-1.614,1.253-.698,2.441-1.837,2.495-3.271.17-4.568-7.072-4.607-10.006-4.209-1.315.178-2.612.539-3.778,1.186Z"/>
          <path class="cls-6" d="M36.282,6.082c-5.832.084-11.664.206-17.494.379-2.744.081-5.678.175-8.111,1.617-2.732,1.619-4.304,4.217-4.519,7.363-.169,2.477,2.231,4.591,4.591,4.591,2.417,0,4.128-1.787,4.517-4.009.025-.01,1.026-.259,1.329-.291,2.104-.222,4.277-.149,6.391-.203,4.432-.113,8.864-.2,13.296-.264,5.903-.085,5.921-9.268,0-9.182Z"/>
          <path class="cls-6" d="M49.468,7.556c-5.908,0-5.918,9.182,0,9.182s5.918-9.182,0-9.182Z"/>
          <path class="cls-6" d="M33.887,48.676c-2.196-1.16-4.993-.572-6.282,1.647-1.379,2.374-2.757,4.748-4.136,7.122-1.207,2.078-.549,5.121,1.647,6.282,2.196,1.16,4.993.572,6.282-1.647,1.379-2.374,2.758-4.748,4.136-7.122,1.207-2.078.549-5.121-1.647-6.281Z"/>
        </g>
      </g>
    </g>
  </g>
</svg>