<?xml version="1.0" encoding="UTF-8"?>
<svg xmlns="http://www.w3.org/2000/svg" xmlns:xlink="http://www.w3.org/1999/xlink" viewBox="0 0 96.542 113.45">
  <defs>
    <style>
      .cls-1 {
        opacity: .32;
      }

      .cls-1, .cls-2 {
        mix-blend-mode: multiply;
      }

      .cls-3 {
        isolation: isolate;
      }

      .cls-4, .cls-5, .cls-6, .cls-2, .cls-7, .cls-8 {
        stroke-width: 0px;
      }

      .cls-4, .cls-7 {
        fill: #fff;
      }

      .cls-5 {
        fill: #ff0f33;
      }

      .cls-6 {
        fill: url(#_쥔晤牆渾_藎雪猥粧_2167);
      }

      .cls-2 {
        fill: #f4f4f4;
      }

      .cls-7 {
        opacity: .16;
      }

      .cls-8 {
        fill: #ff4772;
      }
    </style>
    <linearGradient id="_쥔晤牆渾_藎雪猥粧_2167" data-name="쥔晤牆渾 藎雪猥粧 2167" x1="159.216" y1="-198.468" x2="159.216" y2="-250.969" gradientTransform="translate(-125.274 287.471) scale(1.09)" gradientUnits="userSpaceOnUse">
      <stop offset="0" stop-color="#606060"/>
      <stop offset=".506" stop-color="#8b8b8b"/>
      <stop offset="1" stop-color="#b2b2b2"/>
    </linearGradient>
  </defs>
  <g class="cls-3">
    <g id="_레이어_2" data-name="레이어 2">
      <g id="_레이어_1-2" data-name="레이어 1">
        <g>
          <g>
            <g class="cls-1">
              <path class="cls-6" d="M49.539,79.804c-.902.169-1.986.31-3.255.423-1.268.113-2.973.169-5.114.169-3.212,0-6.467-.338-9.764-1.014-3.297-.676-6.467-1.691-9.511-3.043-3.043-1.353-5.904-3.071-8.581-5.157-2.678-2.085-5.002-4.536-6.975-7.355-1.973-2.817-3.523-6.015-4.649-9.595-1.128-3.578-1.691-7.537-1.691-11.878,0-6.142,1.07-11.793,3.213-16.95,2.141-5.157,5.241-9.623,9.299-13.399,4.058-3.775,9.003-6.721,14.837-8.834,5.833-2.113,12.412-3.17,19.739-3.17,7.439,0,14.188,1.339,20.247,4.015,6.058,2.678,11.257,6.44,15.597,11.286,4.339,4.848,7.693,10.624,10.06,17.33,2.367,6.708,3.551,14.09,3.551,22.149,0,8.454-1.255,16.26-3.762,23.417-2.509,7.158-6.186,13.357-11.032,18.598-4.847,5.241-10.793,9.328-17.837,12.258-7.046,2.93-15.077,4.396-24.093,4.396-2.649,0-5.397-.156-8.242-.465-2.847-.31-5.552-.705-8.116-1.184-2.565-.478-4.861-1-6.89-1.564-2.029-.563-3.551-1.099-4.565-1.606-1.466-2.422-2.523-4.959-3.17-7.608-.648-2.648-.972-5.269-.972-7.862,0-1.577.14-3.17.423-4.776.282-1.606.662-3.141,1.141-4.607.478-1.465,1.042-2.832,1.691-4.1.647-1.268,1.338-2.38,2.071-3.339,1.184.902,2.748,1.818,4.692,2.748,1.944.93,4.128,1.775,6.552,2.536,2.422.761,5.001,1.382,7.735,1.86,2.733.48,5.508.718,8.327.718.732,0,1.634-.028,2.705-.084,1.07-.056,2.099-.182,3.086-.381.986-.197,1.831-.507,2.536-.93.704-.423,1.057-.972,1.057-1.648,0-.562-.114-1.014-.338-1.352ZM52.244,46.158c0-1.972-.521-3.593-1.564-4.861-1.043-1.268-2.523-1.902-4.438-1.902-1.297,0-2.339.296-3.128.888-.79.592-1.184,1.452-1.184,2.578,0,1.466.493,2.494,1.48,3.086.985.592,2.268.888,3.846.888,1.972,0,3.635-.225,4.987-.676Z"/>
            </g>
            <path class="cls-4" d="M48.347,76.811c-.828.155-1.822.285-2.986.388-1.163.104-2.728.155-4.692.155-2.947,0-5.933-.31-8.958-.931-3.025-.621-5.933-1.551-8.725-2.792s-5.417-2.817-7.872-4.731c-2.457-1.912-4.589-4.161-6.399-6.747-1.81-2.585-3.232-5.519-4.266-8.803-1.035-3.283-1.551-6.915-1.551-10.897,0-5.635.982-10.819,2.947-15.55,1.964-4.731,4.808-8.828,8.531-12.293,3.723-3.463,8.26-6.166,13.612-8.105,5.351-1.939,11.388-2.908,18.11-2.908,6.825,0,13.016,1.229,18.575,3.684,5.557,2.457,10.327,5.908,14.309,10.354,3.981,4.448,7.058,9.747,9.23,15.899,2.172,6.154,3.257,12.927,3.257,20.32,0,7.756-1.151,14.918-3.451,21.484-2.301,6.567-5.675,12.254-10.121,17.062-4.447,4.809-9.902,8.558-16.364,11.246-6.464,2.688-13.832,4.033-22.104,4.033-2.431,0-4.951-.143-7.562-.427-2.612-.285-5.094-.647-7.446-1.086-2.353-.439-4.459-.917-6.321-1.435-1.862-.516-3.257-1.008-4.188-1.474-1.345-2.222-2.315-4.549-2.908-6.98-.595-2.43-.892-4.834-.892-7.213,0-1.447.129-2.908.388-4.382.258-1.474.607-2.882,1.047-4.227.439-1.344.956-2.598,1.551-3.762.594-1.163,1.227-2.184,1.9-3.063,1.086.828,2.521,1.668,4.305,2.521,1.784.853,3.787,1.629,6.011,2.327,2.222.698,4.588,1.268,7.097,1.706,2.507.44,5.053.659,7.639.659.672,0,1.499-.025,2.482-.078.982-.051,1.926-.167,2.831-.349.904-.181,1.68-.466,2.327-.853.646-.388.969-.892.969-1.512,0-.516-.104-.931-.31-1.241ZM50.829,45.943c0-1.809-.478-3.296-1.435-4.46-.957-1.163-2.315-1.745-4.072-1.745-1.19,0-2.146.271-2.87.814-.725.543-1.086,1.332-1.086,2.366,0,1.345.452,2.288,1.357,2.831.904.543,2.081.814,3.529.814,1.809,0,3.335-.206,4.576-.62Z"/>
            <path class="cls-5" d="M47.26,75.723c-.828.155-1.822.285-2.986.388-1.163.104-2.728.155-4.692.155-2.947,0-5.933-.31-8.958-.931-3.025-.62-5.933-1.551-8.725-2.792-2.792-1.241-5.417-2.818-7.872-4.731-2.457-1.912-4.589-4.161-6.399-6.748-1.81-2.585-3.232-5.519-4.266-8.803-1.035-3.283-1.551-6.915-1.551-10.897,0-5.635.982-10.819,2.947-15.55,1.964-4.731,4.808-8.828,8.531-12.293,3.723-3.463,8.26-6.166,13.612-8.105,5.351-1.939,11.387-2.908,18.11-2.908,6.825,0,13.016,1.229,18.575,3.684,5.558,2.457,10.327,5.908,14.309,10.354,3.981,4.447,7.058,9.747,9.23,15.899,2.172,6.154,3.257,12.927,3.257,20.32,0,7.756-1.151,14.918-3.451,21.484-2.302,6.567-5.675,12.254-10.121,17.063-4.447,4.809-9.902,8.558-16.365,11.246-6.464,2.688-13.832,4.033-22.104,4.033-2.431,0-4.951-.143-7.562-.427-2.612-.285-5.094-.647-7.446-1.086-2.353-.439-4.459-.917-6.321-1.435-1.862-.516-3.257-1.008-4.188-1.474-1.345-2.222-2.315-4.549-2.908-6.98-.595-2.43-.892-4.834-.892-7.213,0-1.447.129-2.908.388-4.382.258-1.474.607-2.882,1.047-4.227.439-1.344.956-2.598,1.551-3.762.594-1.163,1.227-2.184,1.9-3.064,1.086.828,2.521,1.667,4.305,2.521,1.784.853,3.787,1.629,6.011,2.327,2.222.698,4.588,1.268,7.097,1.706,2.507.44,5.053.659,7.639.659.671,0,1.499-.026,2.482-.078.982-.051,1.926-.167,2.831-.349.904-.18,1.68-.465,2.327-.853.646-.388.969-.892.969-1.512,0-.516-.104-.931-.31-1.241ZM49.742,44.856c0-1.809-.478-3.296-1.435-4.46-.957-1.163-2.314-1.745-4.072-1.745-1.19,0-2.146.271-2.87.814-.725.543-1.086,1.332-1.086,2.365,0,1.345.452,2.288,1.357,2.831.904.543,2.081.814,3.529.814,1.809,0,3.335-.206,4.576-.62Z"/>
            <path class="cls-4" d="M37.906,103.982c-2.333,0-4.798-.139-7.327-.414-2.537-.277-4.988-.634-7.282-1.062-2.275-.424-4.34-.893-6.137-1.392-1.578-.438-2.596-.8-3.243-1.071-1.054-1.854-1.835-3.804-2.324-5.803-.551-2.249-.83-4.502-.83-6.697,0-1.318.119-2.666.355-4.006.239-1.365.566-2.686.972-3.927.401-1.228.879-2.388,1.42-3.447.184-.361.373-.707.566-1.037.815.486,1.732.973,2.764,1.466,1.869.894,3.988,1.714,6.298,2.44,2.308.725,4.789,1.322,7.374,1.774,2.616.459,5.312.692,8.014.692.714,0,1.587-.027,2.597-.081,1.081-.056,2.139-.187,3.144-.389,1.142-.228,2.157-.605,3.017-1.12,1.307-.784,2.026-1.984,2.026-3.378,0-.949-.227-1.772-.674-2.445l-.797-1.199-1.415.265c-.759.142-1.694.263-2.777.359-1.087.097-2.601.147-4.501.147-2.787,0-5.654-.298-8.521-.886-2.857-.586-5.643-1.478-8.279-2.649-2.62-1.164-5.116-2.665-7.419-4.459-2.274-1.771-4.277-3.883-5.953-6.279-1.675-2.391-3.011-5.153-3.973-8.209-.963-3.054-1.451-6.501-1.451-10.244,0-5.324.936-10.275,2.781-14.716,1.834-4.418,4.527-8.299,8.004-11.535,3.492-3.248,7.822-5.823,12.871-7.652,5.088-1.843,10.932-2.778,17.369-2.778,6.486,0,12.44,1.177,17.696,3.498,5.247,2.319,9.812,5.621,13.568,9.815,3.772,4.214,6.732,9.319,8.799,15.172,2.079,5.892,3.133,12.485,3.133,19.596,0,7.473-1.12,14.459-3.329,20.765-2.191,6.253-5.443,11.739-9.666,16.305-4.214,4.556-9.463,8.161-15.603,10.714-6.17,2.566-13.326,3.866-21.269,3.866ZM43.8,36.041c-1.665,0-3.07.421-4.175,1.25-.891.667-1.956,1.923-1.956,4.105,0,2.685,1.313,4.036,2.414,4.696,1.242.746,2.806,1.124,4.647,1.124,2.067,0,3.789-.24,5.264-.732l1.486-.496v-1.567c0-2.318-.649-4.283-1.93-5.841-1.367-1.661-3.356-2.539-5.752-2.539Z"/>
            <path class="cls-8" d="M38.341,104.417c-2.333,0-4.798-.139-7.327-.414-2.537-.277-4.988-.634-7.282-1.062-2.276-.424-4.34-.893-6.137-1.392-1.579-.438-2.596-.8-3.243-1.071-1.054-1.854-1.835-3.804-2.323-5.803-.551-2.249-.83-4.502-.83-6.697,0-1.318.119-2.666.355-4.006.239-1.364.566-2.686.972-3.927.401-1.228.879-2.388,1.42-3.447.184-.361.373-.707.566-1.037.815.486,1.732.973,2.764,1.466,1.868.894,3.987,1.714,6.298,2.44,2.308.725,4.789,1.322,7.374,1.774,2.616.459,5.312.692,8.014.692.714,0,1.587-.027,2.597-.081,1.081-.056,2.139-.187,3.144-.388,1.142-.228,2.157-.605,3.017-1.12,1.307-.784,2.026-1.984,2.026-3.378,0-.949-.227-1.772-.674-2.445l-.797-1.199-1.415.265c-.76.143-1.694.263-2.777.359-1.087.097-2.6.147-4.5.147-2.787,0-5.654-.298-8.521-.886-2.857-.586-5.643-1.477-8.279-2.649-2.62-1.164-5.116-2.665-7.418-4.459-2.274-1.771-4.277-3.883-5.953-6.279-1.675-2.391-3.011-5.153-3.973-8.209-.963-3.054-1.451-6.5-1.451-10.244,0-5.324.936-10.275,2.781-14.716,1.834-4.418,4.527-8.299,8.004-11.535,3.492-3.248,7.822-5.823,12.871-7.652,5.088-1.843,10.932-2.778,17.369-2.778,6.486,0,12.44,1.177,17.696,3.499,5.247,2.319,9.812,5.622,13.568,9.816,3.772,4.214,6.733,9.319,8.799,15.172,2.079,5.892,3.133,12.485,3.133,19.596,0,7.473-1.12,14.459-3.329,20.764-2.191,6.253-5.443,11.739-9.666,16.305-4.214,4.556-9.463,8.161-15.603,10.714-6.17,2.566-13.326,3.866-21.269,3.866ZM44.235,36.476c-1.666,0-3.07.421-4.175,1.25-.891.668-1.956,1.923-1.956,4.105,0,2.685,1.313,4.036,2.414,4.696,1.242.746,2.806,1.124,4.647,1.124,2.067,0,3.789-.24,5.264-.733l1.486-.496v-1.567c0-2.318-.649-4.283-1.93-5.841-1.367-1.661-3.356-2.539-5.752-2.539Z"/>
          </g>
          <path class="cls-2" d="M45.044,101.197c9.717-.892,19.519-4.396,26.258-11.454,7.758-8.126,10.502-19.774,11.753-30.939.76-6.784,1.082-13.68-.052-20.411-1.134-6.731-3.808-13.33-8.442-18.342-2.079-2.248-4.842-4.258-7.898-4.056-2.304.152-4.352,1.553-5.966,3.204-2.739,2.803-4.575,6.474-5.175,10.347-.898,5.804.918,11.834-.377,17.562-.177.784-.428,1.584-.971,2.176-.767.836-1.965,1.103-3.091,1.244-4.966.62-10.125-.422-14.462-2.919-2.73-1.572-5.16-3.708-8.11-4.814-3.16-1.184-6.698-1.077-9.961-.215-2.683.709-5.346,2.008-6.945,4.277-2.312,3.281-1.805,8.005.505,11.287,2.311,3.282,6.094,5.273,9.978,6.286,3.884,1.013,7.931,1.16,11.933,1.472,3.758.293,7.505.736,11.228,1.328,3.865.615,8.198,1.735,10.058,5.178,1.623,3.003.661,6.925-1.6,9.482-2.261,2.557-5.567,3.954-8.879,4.782-4.838,1.21-9.848,1.367-14.805,1.617-2.535.128-5.073.278-7.592.605-2.071.269-5.065.392-6.668,1.91-2.248,2.128-1.534,6.316,1.059,7.757,3.015,1.675,7.174,1.742,10.513,2.14,5.207.621,10.465.956,15.706.644.668-.04,1.335-.09,2.001-.151Z"/>
          <path class="cls-2" d="M19.087,98.898c9.433,4.199,20.255,3.521,30.496,2.206,6.296-.809,12.935-1.996,17.697-6.194.229-.202.468-.439.498-.743.057-.573-.617-.919-1.181-1.037-3.432-.717-6.887.747-10.233,1.795-7.61,2.385-15.864,2.678-23.624.838-4.953-1.174-9.721-3.199-14.78-3.772-.94-.107-1.936-.153-2.785.265-.564.278-1.028.817-1.174,1.433-.143.603.219.904.506,1.386.695,1.168,1.474,2.052,2.632,2.792.62.396,1.277.732,1.948,1.03Z"/>
          <path class="cls-2" d="M82.743,74.545c.427-.969.826-1.965.961-3.015.054-.417.058-.868-.164-1.225-.575-.926-2.041-.491-2.84.25-1.481,1.374-2.227,3.337-3.085,5.166-1.36,2.898-3.103,5.598-4.982,8.183-.94,1.293-1.915,2.56-2.9,3.819-.253.323-1.562,1.526-1.261,2.082.22.407,1.084.117,1.395.027.891-.258,1.743-.672,2.546-1.129,2.196-1.248,3.645-3.056,5.112-5.08,1.841-2.538,3.441-5.251,4.769-8.092.153-.327.302-.656.448-.987Z"/>
          <path class="cls-2" d="M79.966,60.647c.198,1.499.577,3.015,1.443,4.255.228.326.501.64.866.795.995.422,2.036-.495,2.624-1.402,2.16-3.33,2.461-7.604,1.375-11.361-.415-1.437-1.251-4.132-3.209-3.942-1.635.158-2.319,2.54-2.645,3.831-.642,2.547-.798,5.221-.454,7.824Z"/>
          <path class="cls-2" d="M29.713,70.939c3.498,1.236,7.263,1.527,10.972,1.479,2.663-.034,5.414-.263,7.764-1.515.38-.202.797-.526.749-.954-.024-.217-.168-.401-.32-.558-1.708-1.774-4.539-1.556-6.999-1.442-3.277.152-6.633-.128-9.661-1.389-1.702-.709-3.261-1.705-4.862-2.608-1.522-.858-3.323-1.89-5.106-2.017-1.609-.114-1.644,1.171-1.075,2.313.725,1.455,1.92,2.699,3.168,3.717,1.593,1.301,3.434,2.288,5.371,2.972Z"/>
          <path class="cls-2" d="M50.334,65.653c.375-.114.755-.266,1.023-.553.428-.46.47-1.188.231-1.769-.239-.581-.714-1.034-1.224-1.401-1.051-.755-2.314-1.203-3.603-1.308-1.013-.082-2.433-.078-3.182.731-.576.623-.629,1.561-.301,2.316.454,1.042,1.561,1.55,2.582,1.888,1.437.475,3.02.536,4.473.096Z"/>
          <path class="cls-7" d="M55.934,9.88c-7.841-1.632-16.041-2.183-23.827-.308-7.786,1.875-15.142,6.378-19.345,13.195-2.266,3.675-3.553,7.872-4.444,12.097-1.048,4.972-1.573,10.166-.425,15.116.45,1.939,1.316,4.005,3.123,4.839,3.059,1.412,6.409-1.654,7.582-4.813,1.173-3.159,1.377-6.806,3.549-9.382,2.752-3.265,7.555-3.599,11.812-3.934,7.023-.553,13.993-1.781,20.783-3.66,3.923-1.086,7.919-2.467,10.883-5.257,2.624-2.471,4.053-6.3,3.922-9.901-.122-3.353-3.748-4.872-6.436-5.939-2.316-.919-4.739-1.546-7.176-2.053Z"/>
          <path class="cls-7" d="M79.309,42.796c-.795,2.396-2.349,4.486-4.181,6.223-1.976,1.874-4.387,3.416-7.082,3.807-2.695.391-5.686-.561-7.227-2.806-1.941-2.829-1.132-6.691.198-9.854,1.771-4.212,4.636-8.54,9.134-10.155,3.978-1.429,6.772,1.905,8.569,5.058,1.337,2.345,1.427,5.195.587,7.728Z"/>
          <path class="cls-7" d="M13.468,86.307c.826,1.437,2.65,1.897,4.283,2.18,6.559,1.136,13.235,1.593,19.888,1.361,3.444-.12,7.123-.518,9.77-2.724.19-.158.379-.334.464-.566.266-.731-.611-1.346-1.356-1.571-2.592-.781-5.358-.6-8.065-.645-4.624-.078-9.235-.852-13.635-2.273-2.87-.927-6.452-3.341-9.307-1.232-1.641,1.212-3.231,3.4-2.041,5.471Z"/>
          <path class="cls-7" d="M33.996,45.393c-1.714-.882-3.647-1.5-5.556-1.228-1.908.272-3.752,1.613-4.152,3.498-.355,1.671.481,3.429,1.762,4.559,1.281,1.13,2.943,1.727,4.599,2.145,1.899.479,3.85.756,5.808.825,1.952.069,4.326-.353,5.024-2.177.761-1.986-.944-3.693-2.457-4.689-1.597-1.05-3.332-2.06-5.028-2.934Z"/>
          <path class="cls-4" d="M38.373,8.568c-12.556,1.228-24.237,9.048-29.262,20.804-.974,2.278-.68,4.921,1.647,6.282,1.932,1.13,5.302.645,6.282-1.647,1.941-4.54,4.895-8.394,8.482-11.057,3.913-2.905,8.572-4.78,12.851-5.198,2.468-.242,4.591-1.937,4.591-4.591,0-2.296-2.108-4.834-4.591-4.591Z"/>
          <path class="cls-4" d="M50.601,9.339c-5.908,0-5.918,9.182,0,9.182s5.918-9.182,0-9.182Z"/>
          <path class="cls-4" d="M73.204,31c-5.908,0-5.918,9.182,0,9.182s5.918-9.182,0-9.182Z"/>
        </g>
      </g>
    </g>
  </g>
</svg>