<?xml version="1.0" encoding="UTF-8"?>
<svg id="_레이어_2" data-name="레이어 2" xmlns="http://www.w3.org/2000/svg" viewBox="0 0 46.011 73.97">
  <defs>
    <style>
      .cls-1 {
        fill: #131514;
        fill-rule: evenodd;
        stroke-width: 0px;
      }
    </style>
  </defs>
  <g id="_레이어_1-2" data-name="레이어 1">
    <path class="cls-1" d="M46.005,36.985c.004.242.006.483.006.723,0,8.716-2.83,16.701-6.616,22.908-4.977,8.159-11.843,13.354-16.39,13.354s-11.413-5.194-16.39-13.354c-3.786-6.207-6.616-14.192-6.616-22.908,0-.242.003-.483.006-.723-.004-.241-.006-.482-.006-.723,0-8.716,2.83-16.701,6.616-22.908C11.593,5.194,18.459,0,23.006,0s11.413,5.194,16.39,13.354c3.786,6.207,6.616,14.192,6.616,22.908,0,.24-.002.481-.006.723h0ZM22.282,23.608v2.326c-1.992.091-3.495.499-3.495.988s1.503.897,3.495.988v2.655c-1.992.091-3.495.499-3.495.988s1.503.897,3.495.988v2.648c-3.329.096-5.905.755-5.905,1.554s2.576,1.458,5.905,1.554v2.648c-1.992.091-3.495.499-3.495.988s1.503.897,3.495.988v2.655c-1.992.091-3.495.499-3.495.988s1.503.897,3.495.988v2.326h1.446v-2.317c2.111-.068,3.736-.489,3.736-.997s-1.625-.929-3.736-.998v-2.636c2.111-.068,3.736-.489,3.736-.998s-1.625-.929-3.736-.998v-2.633c3.445-.071,6.146-.742,6.146-1.561s-2.701-1.49-6.146-1.56v-2.633c2.111-.068,3.736-.489,3.736-.997s-1.625-.929-3.736-.998v-2.636c2.111-.068,3.736-.489,3.736-.998s-1.625-.929-3.736-.998v-2.317h-1.446ZM11.145,14.687c7.953,3.037,15.824,2.981,23.611-.169-4.019-6.126-8.796-9.964-11.751-9.964-2.982,0-7.819,3.908-11.861,10.133h0ZM37.064,18.492c-9.309,3.949-18.713,4.013-28.212.189-2.543,5.054-4.297,11.095-4.297,17.581,0,.242.002.483.007.723-.004.24-.007.482-.007.723,0,6.481,1.751,12.517,4.291,17.569,9.31-3.814,18.715-3.744,28.213.211,2.597-5.094,4.397-11.209,4.397-17.78,0-.243-.002-.484-.006-.723.004-.239.006-.48.006-.723,0-6.567-1.798-12.678-4.392-17.77h0ZM34.748,59.464c-7.954-3.156-15.825-3.222-23.613-.197,4.043,6.234,8.886,10.148,11.871,10.148,2.953,0,7.725-3.832,11.742-9.951Z"/>
  </g>
</svg>