<?xml version="1.0" encoding="UTF-8"?>
<svg id="_레이어_2" data-name="레이어 2" xmlns="http://www.w3.org/2000/svg" viewBox="0 0 82.664 80.644">
  <defs>
    <style>
      .cls-1 {
        fill: #9f1f24;
      }

      .cls-1, .cls-2, .cls-3 {
        stroke-width: 0px;
      }

      .cls-2 {
        fill: #fff;
      }

      .cls-3 {
        fill: #15282c;
      }
    </style>
  </defs>
  <g id="_레이어_1-2" data-name="레이어 1">
    <g>
      <path class="cls-2" d="M36.381,80.282c4.444,0,9.215-.685,14.183-2.041,1.046-.283,2.087-.647,3.095-.999.883-.308,1.797-.624,2.714-.893,3.68-1.07,7.517-1.783,11.228-2.473l.378-.07c3.291-.613,6.243-1.316,9.044-3.741,1.82-1.578,3.325-3.401,4.35-5.273.769-1.52,1.084-3.413.856-5.179-.083-.644-.376-1.298-.662-1.932-.333-.738-.677-1.502-.706-2.289-.013-.368-.026-.732-.037-1.094-.076-2.413-.146-4.691-.866-7.039-2.004-6.527-5.999-12.552-9.589-17.686-3.057-4.376-6.493-8.808-10.213-13.174-.33-.388-.662-.771-.994-1.151-1.283-1.473-2.609-2.994-3.672-4.733-.406-.666-.749-1.403-1.111-2.189-.742-1.602-1.51-3.26-2.835-4.171-1.072-.736-2.265-.954-3.531-1.183-.271-.05-.849-.16-.849-.16l-.033-.016c-1.135-.477-2.325-.894-3.473-1.298l-.686-.241c-1.731-.611-3.774-.894-6.429-.894-1.553,0-3.086.094-4.569.187,0,0-1.35.09-1.883.128-1.329.097-2.703.198-4.088.198-1.345,0-3.213.248-4.466,1.428-.464.437-.828,1.039-1.181,1.62-.221.367-.451.746-.707,1.089-.571.761-1.198,1.489-1.806,2.193-.494.573-1.006,1.167-1.478,1.772-1.78,2.276-2.12,4.476-1.131,7.353l.193.564c1.097,3.233,2.34,6.898,6.025,6.898.193,0,.392-.012.599-.032.099-.01.196-.013.293-.013.429,0,.835.086,1.229.171.387.082.752.16,1.136.16.929,0,1.896-.203,2.798-.59.529-.226,1.044-.247,1.541-.269.275-.009.554-.022.835-.066.895-.151,1.807-.459,2.711-.914l.109-.055c.975-.491,1.464-.738,2.712-.785.965-.039,1.302-.232,2.201-.748.105-.062.197-.128.31-.207.637-.449.988-.662,1.264-.662h.035l.068.01.117.024.078.09c.475.532.844,1.163,1.143,1.708.928,1.695,1.633,3.522,2.257,5.244.732,2.021,1.427,4.203,2.064,6.487.366,1.309.455,2.637.539,3.92.061.885.121,1.801.272,2.697l.12.707-.641-.324c-1.946-.984-4.04-1.486-6.223-1.486-2.319,0-4.657.59-6.761,1.701-.596.315-1.16.662-1.678,1.031-.211.149-.441.224-.684.224-.505,0-.948-.316-1.377-.618-.177-.126-.351-.25-.525-.346-2.403-1.292-4.66-2.249-6.902-2.926-2.258-.68-4.645-1.041-6.905-1.041-3.353,0-8.015.784-11.178,4.513C.271,44.432.332,49.73.373,53.236c.063,5.675.795,11.422,1.501,16.981,0,0,.199,1.603.237,1.946.232,2.052.47,4.175,1.742,5.834,1.086,1.417,2.829,2.23,4.781,2.23.155,0,.311-.004.464-.014,2.796-.182,5.44-1.668,7.185-2.771.854-.539,1.679-1.122,2.457-1.731l.204-.16.216.141c1.017.656,2.101,1.25,3.224,1.767,4.079,1.874,8.79,2.825,13.997,2.825Z"/>
      <path class="cls-1" d="M16.089,59.111c.01-.031.022-.058.031-.089,0,0-.01.031-.031.089Z"/>
      <path class="cls-3" d="M51.842,58.562c-18.72,16.874-29.743-1.38-29.743-1.38,14.718,11.652,29.743,1.38,29.743,1.38Z"/>
      <path class="cls-3" d="M.009,53.24c.069,6.006.867,11.993,1.621,17.941.308,2.425.385,5.014,1.934,7.036,1.326,1.729,3.42,2.494,5.559,2.355,2.637-.171,5.156-1.437,7.354-2.826.856-.541,1.689-1.127,2.486-1.752,1.044.675,2.139,1.271,3.268,1.791,8.827,4.054,19.279,3.298,28.428.804,1.976-.537,3.857-1.324,5.816-1.893,3.785-1.102,7.7-1.816,11.571-2.536,3.504-.651,6.419-1.405,9.214-3.822,1.735-1.505,3.323-3.35,4.431-5.373.819-1.622,1.128-3.6.899-5.397-.188-1.465-1.317-2.82-1.367-4.19-.106-2.838-.076-5.476-.919-8.227-1.974-6.431-5.816-12.318-9.637-17.787-3.189-4.565-6.623-8.962-10.233-13.201-1.621-1.904-3.32-3.688-4.633-5.839-1.247-2.041-1.99-5.053-4.05-6.468-1.372-.942-2.904-1.077-4.479-1.394-1.367-.576-2.78-1.053-4.178-1.547C39.585-.322,35.332-.022,31.683.206c-1.917.117-3.765.309-5.678.309-1.659,0-3.466.351-4.714,1.525-.802.755-1.278,1.885-1.93,2.755-1.026,1.375-2.225,2.609-3.279,3.959-1.936,2.473-2.169,4.843-1.19,7.693,1.217,3.54,2.511,8.134,7.195,7.675.895-.085,1.7.32,2.623.32,1.002,0,2.019-.226,2.941-.62.745-.319,1.486-.177,2.293-.312.979-.165,1.929-.501,2.814-.946,1.052-.529,1.46-.757,2.672-.803,1.076-.043,1.47-.281,2.423-.828.218-.126,1.115-.839,1.366-.786.438.491.781,1.065,1.095,1.642.904,1.652,1.594,3.426,2.235,5.192.767,2.125,1.447,4.284,2.055,6.46.607,2.17.427,4.364.801,6.582-4.228-2.141-9.147-1.988-13.316.219-.595.314-1.17.665-1.719,1.055-.728.518-1.481-.374-2.205-.763-2.222-1.196-4.549-2.222-6.969-2.953-6.08-1.834-14.019-1.657-18.465,3.583C-.043,44.239-.033,49.37.009,53.24ZM5.082,43.232s6.132-8.791,22.69,1.02c0,0-5.314,6.544-11.857,9.608,0,0,6.747-1.021,15.742-9.608,0,0,8.587-7.971,17.579,3.68,0,0,1.431-1.022,2.454.206,0,0,4.89,9.044,11.652,8.994,0,0-6.133-3.271-10.221-11.242,0,0-5.213-.176-4.907-11.04,0,0-3.27-13.111-6.744-16.878,0,0,5.22.126,5.161-5.479,0,0-1.396,4.15-6.302,3.458,0,0-4.66-2.232-6.116-1.772l4.446,2.684-2.453,1.15-1.522.548s-.565.229-2.788-2.914c0,0-2.375-2.147-1.931-3.302l1.412-4.637-2.598,3.558s-1.635,1.928,1.38,5.519c0,0,1.714,2.417,2.223,2.759,0,0-2.377,1.841-4.064.384l-2.299-3.68s-1.48-1.292-.152-4.829l1.277-3.438-2.735,3.361s-2.094,2.542-.689,4.828l2.759,4.753s-2.095,1.284-3.246-.785l-2.044-4.35s-1.303-2.071.92-4.907l1.373-2.527s-2.751,2.374-3.902,4.29c0,0-.766,1.456-.308,2.452l2.608,5.903s-2.148.384-2.683-1.992c0,0-1.534-3.91-1.61-4.446-.078-.537-.997-1.61,1.303-4.292,0,0,2.522-2.91,2.982-3.602,0,0,1.15-1.531,1.456-2.222,0,0,.69-1.15,4.217-.689,0,0,7.666-1.137,13.875-.109,0,0,3.604,1.258,4.676,1.718,1.073.459,3.603.153,4.599,1.839,0,0,2.224,5.673,6.21,9.659,0,0,22.467,25.6,21.086,36.18,0,0,.129,2.585.155,4.048,0,0,2.488,2.239.801,6.378,0,0-3.101,5.675-8.314,7.055,0,0-13.423,2.3-16.949,3.833,0,0-20.383,8.443-33.722-2.428,0,0-2.55-4.821.104-7.153,0,0-4.864,1.302-2.717,8.509,0,0-11.215,9.198-12.265.306-.063-.533-.132-1.095-.206-1.682,2.462-1.213,8.656-4.953,11.214-12.795-.292.81-2.82,7.066-11.687,9.046-1.153-9.215-2.471-21.521.679-24.925Z"/>
    </g>
  </g>
</svg>