<?xml version="1.0" encoding="UTF-8"?>
<svg id="_레이어_2" data-name="레이어 2" xmlns="http://www.w3.org/2000/svg" viewBox="0 0 131.869 52.297">
  <defs>
    <style>
      .cls-1 {
        fill: #231815;
        stroke-width: 0px;
      }
    </style>
  </defs>
  <g id="_레이어_1-2" data-name="레이어 1">
    <g>
      <path class="cls-1" d="M14.119,5.913c-2.993.188-5.981.389-8.96.61-.041,4.859-.081,9.723-.121,14.584,2.494-.605,5.002-1.174,7.525-1.702-.035,1.96-.072,3.92-.108,5.879-2.509.69-5.001,1.428-7.471,2.218-.06,7.266-.122,14.533-.182,21.801-1.618.957-3.219,1.955-4.801,2.994V0h14.236c-.04,1.97-.08,3.942-.117,5.913Z"/>
      <path class="cls-1" d="M23.025,40.501c-1.721.659-3.431,1.357-5.128,2.1C18.242,28.402,18.586,14.198,18.931,0h5.212c-.373,13.499-.746,26.999-1.119,40.501Z"/>
      <path class="cls-1" d="M45.102,4.567c-1.923.046-3.847.101-5.768.162-.288,10.343-.574,20.684-.862,31.027-1.77.415-3.533.871-5.289,1.369.318-10.739.633-21.477.947-32.215-1.92.073-3.837.152-5.752.238.049-1.716.1-3.433.149-5.148h16.686c-.038,1.522-.074,3.044-.11,4.567Z"/>
      <path class="cls-1" d="M67.226,32.585c-1.591-.017-3.18-.002-4.77.045-2.878-6.762-5.674-13.472-8.394-20.327.212,1.012.313,1.804.304,2.383-.092,6.159-.182,12.319-.274,18.477-1.762.174-3.522.389-5.274.642.229-11.269.458-22.536.687-33.804h4.568c2.678,6.826,5.429,13.47,8.257,20.124-.223-.998-.333-1.781-.329-2.352.029-5.924.062-11.849.092-17.772h5.079c.018,10.862.038,21.723.055,32.585Z"/>
      <path class="cls-1" d="M88.32,34.679c-4.967-.939-9.979-1.566-15.005-1.873-.105-10.936-.209-21.872-.312-32.806h14.323c.039,1.527.077,3.054.114,4.582-3.049-.077-6.101-.137-9.156-.182.052,3.238.105,6.476.156,9.713,2.657.124,5.313.285,7.963.489.035,1.488.07,2.976.106,4.464-2.66-.265-5.329-.477-7.999-.639.055,3.479.11,6.959.165,10.437,3.19.297,6.369.708,9.532,1.23.037,1.529.076,3.056.114,4.585Z"/>
      <path class="cls-1" d="M110.374,37.38c.066,2.52-.937,3.338-3.034,2.557-3.478-1.278-7.004-2.39-10.561-3.335-2.132-.569-3.236-1.896-3.295-4.073-.08-2.846-.16-5.689-.237-8.533,1.764.281,3.522.589,5.276.928.074,2.527.148,5.051.222,7.578,2.15.536,4.286,1.128,6.409,1.772-.074-2.566-.148-5.129-.222-7.693-3.591-4.527-7.207-8.599-10.814-12.356-.787-.829-1.194-1.812-1.226-2.971-.074-2.651-.149-5.307-.222-7.96C92.608,1.103,93.626.007,95.718,0h10.493c2.109-.011,3.197,1.233,3.263,3.732.081,3.067.164,6.134.246,9.201-1.729-.215-3.464-.418-5.202-.608-.071-2.463-.142-4.927-.213-7.389-2.124-.093-4.25-.177-6.377-.255.066,2.24.13,4.482.196,6.723,3.601,3.809,7.204,7.953,10.77,12.572.775,1.004,1.181,2.213,1.217,3.598.087,3.27.174,6.535.262,9.806Z"/>
      <path class="cls-1" d="M131.869,47.518c-.003,3.202-.957,4.15-2.901,2.933-3.228-1.992-6.528-3.818-9.888-5.477-2.009-1.001-3.062-2.774-3.121-5.422-.077-3.457-.155-6.916-.232-10.374,1.702.518,3.395,1.065,5.079,1.639.053,3.124.105,6.249.159,9.372,2.038.915,4.056,1.885,6.051,2.907-.028-3.224-.055-6.448-.082-9.672-3.357-5.964-6.83-11.27-10.355-16.061-.768-1.054-1.168-2.269-1.2-3.679-.073-3.227-.144-6.455-.217-9.68C115.101,1.347,116.119.01,118.213,0h10.493c2.11-.016,3.166,1.569,3.163,4.745v11.695c-1.688-.328-3.384-.641-5.084-.942-.027-3.097-.052-6.195-.078-9.294-2.106-.146-4.214-.285-6.325-.418.047,2.772.095,5.541.141,8.313,3.506,4.854,6.95,10.247,10.267,16.313.721,1.314,1.078,2.879,1.078,4.64v12.464Z"/>
    </g>
  </g>
</svg>