<?xml version="1.0" encoding="UTF-8"?>
<svg id="_레이어_2" data-name="레이어 2" xmlns="http://www.w3.org/2000/svg" viewBox="0 0 122.619 59.493">
  <defs>
    <style>
      .cls-1 {
        fill: #131514;
        fill-rule: evenodd;
        stroke-width: 0px;
      }
    </style>
  </defs>
  <g id="_레이어_1-2" data-name="레이어 1">
    <g>
      <path class="cls-1" d="M28.956,15.251c4.874,0,9.365,1.64,12.952,4.397l-6.752-10.503c-.097-.151-.162-.313-.198-.479h-7.782c-1.064,0-1.934-.87-1.934-1.934h0c0-1.064.871-1.934,1.934-1.934h15.166c1.064,0,1.934.871,1.934,1.934h0c0,1.064-.871,1.934-1.934,1.934h-4.024l10.475,16.295,25.56-13.218-5.071-7.874h-1.251c-1.064,0-1.934-.87-1.934-1.934h0c0-1.064.87-1.934,1.934-1.934h10.524c1.064,0,1.934.87,1.934,1.934h0c0,1.064-.87,1.935-1.934,1.935h-5.802l9.042,14.039c3.052-1.693,6.564-2.657,10.301-2.657,5.873,0,11.191,2.381,15.041,6.23,3.849,3.849,6.23,9.167,6.23,15.041s-2.381,11.191-6.23,15.041c-3.849,3.849-9.167,6.23-15.041,6.23s-11.191-2.381-15.041-6.23c-3.849-3.849-6.23-9.167-6.23-15.041s2.381-11.191,6.23-15.041c.715-.715,1.48-1.379,2.291-1.987l-.743-1.153-19.098,22.835h3.276c.972,0,1.768.795,1.768,1.768h0c0,.972-.795,1.768-1.768,1.768h-9.618c-.973,0-1.768-.795-1.768-1.768h0c0-.973.795-1.768,1.768-1.768h2.584l-6.058-9.423c.351,1.533.537,3.129.537,4.769,0,5.874-2.381,11.191-6.23,15.041-3.849,3.849-9.167,6.23-15.041,6.23s-11.191-2.381-15.041-6.23c-3.849-3.849-6.23-9.167-6.23-15.041s2.381-11.191,6.23-15.041c3.849-3.849,9.167-6.23,15.041-6.23h0ZM57.044,16.068c-.792.398-1.114,1.372-.715,2.164h0c.398.792,1.372,1.114,2.164.716l7.832-3.94c.792-.398,1.114-1.372.715-2.163h0c-.398-.792-1.372-1.114-2.164-.716l-7.832,3.94h0ZM76.947,15.771l-1.007-1.564-25.563,13.219,7.311,11.373,19.259-23.028h0ZM87.756,32.554l-6.823-10.593c-.638.49-1.243,1.021-1.811,1.589-3.32,3.32-5.373,7.907-5.373,12.973s2.054,9.653,5.373,12.973c3.32,3.32,7.907,5.373,12.973,5.373s9.653-2.054,12.973-5.373c3.32-3.32,5.374-7.907,5.374-12.973s-2.054-9.653-5.374-12.973c-3.32-3.32-7.907-5.374-12.973-5.374-3.154,0-6.121.796-8.713,2.197l6.815,10.582c.595-.203,1.233-.313,1.898-.313,3.248,0,5.88,2.633,5.88,5.88s-2.633,5.881-5.88,5.881-5.881-2.633-5.881-5.881c0-1.53.584-2.923,1.541-3.968h0ZM45.989,29.695l-11.241,5.813c.057.33.087.668.087,1.014,0,3.248-2.633,5.881-5.88,5.881s-5.881-2.633-5.881-5.881,2.633-5.88,5.881-5.88c1.856,0,3.512.86,4.589,2.204l11.145-5.763c-.775-1.289-1.704-2.476-2.761-3.533-3.32-3.32-7.907-5.374-12.973-5.374s-9.653,2.053-12.973,5.374c-3.32,3.32-5.373,7.907-5.373,12.973s2.054,9.653,5.373,12.973c3.32,3.32,7.907,5.373,12.973,5.373s9.653-2.054,12.973-5.373c3.32-3.32,5.374-7.907,5.374-12.973,0-2.413-.466-4.717-1.313-6.827Z"/>
      <path class="cls-1" d="M1.148,59.493c-.634,0-1.148-.514-1.148-1.148s.514-1.148,1.148-1.148h13.667c.634,0,1.148.514,1.148,1.148s-.514,1.148-1.148,1.148H1.148Z"/>
      <path class="cls-1" d="M107.804,59.493c-.634,0-1.148-.514-1.148-1.148s.514-1.148,1.148-1.148h13.667c.634,0,1.148.514,1.148,1.148s-.514,1.148-1.148,1.148h-13.667Z"/>
    </g>
  </g>
</svg>