<?xml version="1.0" encoding="UTF-8"?>
<svg id="_레이어_2" data-name="레이어 2" xmlns="http://www.w3.org/2000/svg" viewBox="0 0 214.204 116.755">
  <defs>
    <style>
      .cls-1 {
        fill: none;
      }

      .cls-1, .cls-2, .cls-3 {
        stroke-width: 0px;
      }

      .cls-2 {
        fill: #fff;
      }

      .cls-3 {
        fill: #15282c;
      }
    </style>
  </defs>
  <g id="_레이어_1-2" data-name="레이어 1">
    <g>
      <path class="cls-1" d="M119.147,106.984c-2.784-1.082-6.251-2.494-9.393-1.299-.419-.628-.764-1.151-1.056-1.681.15-4.781-.194-9.604-1.045-14.02-1.01,4.427-1.516,9.295-1.511,14.13-.278.494-.608.991-1.01,1.572-3.168-1.211-6.579.258-9.401,1.297-.375.286-1.996-5.214-2.113-5.639-.354,1.786-.722,8.964,3.059,7.248,1.812-.564,4.601-1.477,6.866-1.338.661.027,1.593.447,2.178.2.182-.109.341-.234.49-.369.136,3.006.469,5.963,1.015,8.752.648-2.832,1.081-5.84,1.314-8.904.209.222.452.423.735.59.446.265,2.013-.319,2.577-.273,2.114.038,4.669.818,6.351,1.342,3.781,1.706,3.416-5.454,3.058-7.248-.117.427-1.709,5.932-2.114,5.639Z"/>
      <path class="cls-1" d="M114.966,114.533c3.173,1.822,5.806-2.893,3.409-5.221-1.013,2.14-1.529,3.651-3.409,5.221Z"/>
      <path class="cls-1" d="M97.004,99.616c2.425-1.542,4.865-3.804,7.533-4.929-2.689-.711-6.908,1.826-8.595,3.102-2.1.808-3.128-2.707-3.781-4.302-.028-.072-.062-.149-.098-.235-.626,3.177.884,8.115,4.941,6.365Z"/>
      <path class="cls-1" d="M122.718,93.486c-.649,1.588-1.686,5.12-3.781,4.302-1.695-1.276-5.903-3.811-8.597-3.102,2.789,1.173,4.836,3.832,7.616,4.98,4.033,1.669,5.473-3.328,4.86-6.416-.04.087-.07.163-.098.235Z"/>
      <path class="cls-1" d="M118.375,86.852c5.819.517,15.076-3.368,14.104-10.575-2.683,5.99-8.73,7.829-14.104,10.575Z"/>
      <path class="cls-1" d="M129.475,86.852c-.009,1.652-.377,2.892-1.718,3.843-.449.737-.436.947-.392,1.894.061,1.279.023,2.176-.883,3.017-.773.717-.534,2.418-1.056,3.421.98-.318,1.676-1.312,2.146-2.228,1.844-.778,2.142-3.083,1.825-4.943,1.222-1.431,1.502-3.432.078-5.004Z"/>
      <path class="cls-1" d="M102.901,71.959c2.935,3.465.001,8.286-.655,12.02,2.883-2.221,6.94-11.05.655-12.02Z"/>
      <path class="cls-1" d="M87.512,92.588c.044-.946.056-1.157-.391-1.894-1.34-.956-1.709-2.186-1.72-3.843-1.421,1.573-1.146,3.574.081,5.005-.32,1.861-.02,4.162,1.823,4.942.471.916,1.168,1.91,2.144,2.228-.517-1.005-.282-2.704-1.053-3.421-.906-.841-.943-1.737-.884-3.017Z"/>
      <path class="cls-1" d="M134.961,71.959c-3.378,2.168-7.366,2.707-10.969,4.317,3.615,1.47,10.053.18,10.969-4.317Z"/>
      <path class="cls-1" d="M56.365,30.325c-.675,1.74-1.789,1.998-3.365,2.523-1.573.525-2.098,1.705-2.098,1.705-.394,3.542,0,16.297,0,16.297,4.198,5.116,4.686,10.417,4.686,10.417-1.607,4.592.036,6.166.036,6.166-.264-3.411,1.05-5.102,1.05-5.102,6.295-4.577,13.64,1.691,13.64,1.691,2.537,5.641,6.559,4.46,6.559,4.46-3.935-1.836-4.065-4.067-4.065-4.067,7.738-5.77,18.495-.742,18.495-.742-3.016.787-4.592,3.104-4.592,3.104,9.314-4.066,17.818,1.727,17.818,1.727-1.574-3.41-7.979-5.531-7.979-5.531,1.182-1.967,0-6.821,0-6.821-.788-1.311-1.136-5.771-1.136-5.771-.875.874-1.223-2.755-1.223-2.755-.526-3.804,1.048-1.968,1.048-1.968-1.312-7.609,2.362-10.494,2.362-10.494,3.553-3.316,8.817-3.316,9.804-3.286.982-.032,6.252-.033,9.809,3.286,0,0,3.673,2.885,2.362,10.494,0,0,1.573-1.837,1.049,1.968,0,0-.351,3.629-1.227,2.754,0,0-.349,4.461-1.134,5.772,0,0-1.182,4.854,0,6.821,0,0-6.405,2.121-7.981,5.531,0,0,8.505-5.794,17.819-1.727,0,0-1.574-2.318-4.592-3.104,0,0,10.758-5.028,18.497.742,0,0-.131,2.23-4.066,4.067,0,0,4.022,1.18,6.559-4.46,0,0,7.345-6.27,13.64-1.692,0,0,1.313,1.692,1.052,5.102,0,0,1.641-1.574.033-6.166,0,0,.489-5.3,4.688-10.415,0,0,.393-12.755,0-16.297,0,0-.525-1.179-2.1-1.705-1.574-.524-2.688-.783-3.361-2.523,0,0-1.142-1.711-1.475-2.445H57.839c-.333.734-1.474,2.445-1.474,2.445Z"/>
      <path class="cls-1" d="M112.632,83.979c-.654-3.736-3.589-8.553-.653-12.02-6.286.973-2.229,9.799.653,12.02Z"/>
      <path class="cls-1" d="M96.5,86.852c-5.369-2.75-11.416-4.585-14.1-10.575-.98,7.206,8.291,11.092,14.1,10.575Z"/>
      <path class="cls-1" d="M90.886,76.276c-3.605-1.611-7.591-2.149-10.966-4.317.91,4.497,7.354,5.786,10.966,4.317Z"/>
      <path class="cls-1" d="M70.627,74.088c-4.262.85-8.713-1.859-11.99-4.211,2.362,4.786,8.131,7.445,13.201,5.943,2.478-.784,4.096-2.986,6.513-3.862-2.793-.359-5.119,1.609-7.725,2.129Z"/>
      <path class="cls-1" d="M96.5,109.311c-2.393,2.33.241,7.043,3.414,5.221-1.884-1.569-2.398-3.082-3.414-5.221Z"/>
      <path class="cls-1" d="M144.249,74.088c-2.602-.519-4.928-2.489-7.723-2.129,2.418.875,4.037,3.075,6.514,3.862,5.073,1.503,10.833-1.169,13.202-5.943-3.28,2.351-7.73,5.061-11.993,4.211Z"/>
      <path class="cls-2" d="M20.261,1.671h-2.906c-.781,0-1.412.632-1.412,1.413v43.459c0,.78.63,1.412,1.412,1.412h2.906c.31,0,.595-.104.828-.273-.062.008-.121.018-.184.018h-2.565c-.689,0-1.246-.558-1.246-1.247V6.95c0-.691.557-1.248,1.246-1.248h2.565c.289,0,.554.103.767.27v-2.888c0-.781-.633-1.413-1.411-1.413Z"/>
      <path class="cls-2" d="M5.314,16.199h-1.451c-.391,0-.706.099-.706.22v4.549c0,.121.315.221.706.221h1.451c.39,0,.705-.099.705-.221v-4.049c-.212.013-.424.025-.637.037-.333.019-.559.047-.717.091-.224.06-.315.152-.403.291-.085.137-.302.615-.348.98-.09.711-.241.897-.311,1.608-.016.157-.032.315-.046.472v-3.469c0-.108.294-.195.658-.195h1.804v-.316c0-.121-.315-.22-.705-.22Z"/>
      <path class="cls-2" d="M12.099,1.671h-2.905c-.781,0-1.412.632-1.412,1.413v43.459c0,.78.63,1.412,1.412,1.412h2.905c.308,0,.594-.104.828-.273-.06.008-.122.018-.184.018h-2.565c-.688,0-1.247-.558-1.247-1.247V6.95c0-.691.559-1.248,1.247-1.248h2.565c.29,0,.555.103.767.27v-2.888c0-.781-.632-1.413-1.411-1.413Z"/>
      <path class="cls-2" d="M1.487,24.49c0,.246.049.444.103.583h.956v-1.166h-.956c-.055.138-.103.336-.103.583Z"/>
      <path class="cls-2" d="M25.517,47.955h2.904c.308,0,.593-.104.829-.273-.061.008-.122.018-.183.018h-2.566c-.689,0-1.248-.558-1.248-1.247V6.95c0-.691.559-1.248,1.248-1.248h2.566c.289,0,.553.103.766.27v-2.888c0-.781-.632-1.413-1.412-1.413h-2.904c-.78,0-1.414.632-1.414,1.413v43.459c0,.78.633,1.412,1.414,1.412Z"/>
      <path class="cls-2" d="M196.851,1.653h-2.907c-.778,0-1.411.633-1.411,1.413v2.887c.212-.167.477-.27.766-.27h2.566c.688,0,1.247.559,1.247,1.248v39.503c0,.688-.559,1.247-1.247,1.247h-2.566c-.063,0-.121-.01-.182-.018.233.171.517.273.827.273h2.907c.778,0,1.41-.633,1.41-1.412V3.066c0-.78-.631-1.413-1.41-1.413Z"/>
      <path class="cls-2" d="M188.689,1.653h-2.905c-.779,0-1.413.633-1.413,1.413v2.887c.211-.167.479-.27.767-.27h2.567c.687,0,1.246.559,1.246,1.248v39.503c0,.688-.559,1.247-1.246,1.247h-2.567c-.062,0-.123-.01-.181-.018.233.171.517.273.827.273h2.905c.779,0,1.412-.633,1.412-1.412V3.066c0-.78-.632-1.413-1.412-1.413Z"/>
      <path class="cls-2" d="M212.717,24.47c0-.245-.047-.444-.103-.582h-.957v1.166h.957c.057-.138.103-.337.103-.584Z"/>
      <path class="cls-2" d="M208.888,21.169h1.454c.389,0,.705-.098.705-.218v-4.549c0-.123-.316-.22-.705-.22h-1.454c-.387,0-.704.098-.704.22v.316h1.804c.364,0,.658.087.658.194v3.468c-.013-.157-.031-.313-.046-.47-.069-.712-.22-.898-.311-1.61-.046-.365-.263-.844-.349-.98-.088-.138-.177-.231-.404-.291-.157-.042-.381-.07-.718-.09-.211-.014-.422-.025-.636-.037v4.049c0,.12.317.218.704.218Z"/>
      <path class="cls-2" d="M204.027,5.683c.686,0,1.245.559,1.245,1.248v39.503c0,.688-.559,1.247-1.245,1.247h-2.567c-.062,0-.123-.01-.182-.018.233.171.517.273.829.273h2.904c.78,0,1.411-.633,1.411-1.412V3.066c0-.78-.63-1.413-1.411-1.413h-2.904c-.78,0-1.413.633-1.413,1.413v2.887c.212-.167.476-.27.766-.27h2.567Z"/>
      <path class="cls-2" d="M46.733,23.907h-1.328c.026.541-.071.946-.3,1.163-.001.001-.003.002-.004.003h1.983c-.153-.199-.252-.415-.29-.507-.025-.21-.044-.432-.06-.659Z"/>
      <path class="cls-2" d="M174.156,24.83c-.064.005-.464.03-.684-.186-.162-.158-.353-.469-.42-.737h-1.628c-.015.197-.032.391-.054.575-.048.109-.184.39-.398.591h12.183v-1.166h-8.243c-.011.126-.024.25-.04.369-.073.144-.316.554-.716.554Z"/>
      <path class="cls-2" d="M43.392,23.907h-1.627c-.066.268-.258.579-.42.737-.22.216-.619.191-.684.186-.402,0-.644-.41-.716-.553-.016-.119-.029-.243-.04-.37h-8.664c-.055.138-.103.336-.103.583s.049.444.103.583h12.604c-.215-.201-.351-.482-.399-.59-.022-.184-.039-.378-.054-.575Z"/>
      <path class="cls-2" d="M57.839,27.88h99.139c-.003-.006-.005-.011-.007-.016H57.846c-.002.005-.005.011-.007.016Z"/>
      <path class="cls-2" d="M161.613,27.864c.011.006.023.01.034.016h21.508v-.016h-21.542Z"/>
      <path class="cls-2" d="M162.022,23.971c.002-.021.002-.043.004-.065H52.792c.002.022.002.044.004.066.036.347.018.791-.185,1.1h2.037c.162-1.378,1.238-1.144,1.238-1.144.181.376.406.765.64,1.144h101.763c.234-.38.46-.768.64-1.144,0,0,1.076-.235,1.237,1.144h2.037c-.201-.31-.22-.753-.183-1.101Z"/>
      <path class="cls-2" d="M165.875,23.907h-1.531c-.018.268-.043.529-.075.775-.038.078-.125.236-.255.391h2.081c-.171-.264-.245-.66-.22-1.166Z"/>
      <path class="cls-2" d="M31.049,27.864v.016h22.123c.011-.006.023-.011.034-.016h-22.158Z"/>
      <path class="cls-2" d="M50.474,23.907h-1.53c.024.506-.051.901-.22,1.166h2.08c-.13-.155-.216-.312-.253-.391-.033-.245-.057-.506-.076-.775Z"/>
      <path class="cls-2" d="M169.414,23.907h-1.328c-.016.227-.035.449-.06.659-.039.091-.139.307-.293.507h1.984s-.003-.002-.004-.003c-.228-.217-.326-.623-.3-1.163Z"/>
      <path class="cls-3" d="M165.907,22.896c0-.007,0-.012,0-.019h-1.52c0,.006,0,.012,0,.019h1.521Z"/>
      <path class="cls-3" d="M46.683,22.896c0-.006,0-.012,0-.019h-1.308c0,.006,0,.012,0,.019h1.309Z"/>
      <path class="cls-3" d="M50.431,22.896v-.019h-1.52c0,.007,0,.012,0,.019h1.521Z"/>
      <path class="cls-3" d="M173.049,22.896c0-.006,0-.012,0-.019h-1.573c0,.006,0,.012,0,.019h1.574Z"/>
      <path class="cls-3" d="M43.341,22.896c0-.006,0-.012,0-.019h-1.571c0,.006,0,.012,0,.019h1.572Z"/>
      <path class="cls-3" d="M183.558,22.896V2.013c0-.888.721-1.609,1.608-1.609h4.139c.888,0,1.61.721,1.61,1.609h.402c0-1.112-.9-2.013-2.012-2.013h-4.139c-1.109,0-2.011.901-2.011,2.013v20.865h-8.19c0,.006,0,.012,0,.019h8.593Z"/>
      <path class="cls-3" d="M169.443,22.896c0-.006,0-.012,0-.019h-1.307c0,.006,0,.012,0,.019h1.308Z"/>
      <path class="cls-3" d="M162.037,22.896c0-.006,0-.012-.001-.019H52.782c0,.006,0,.012-.001.019h109.256Z"/>
      <path class="cls-3" d="M189.305,50.374h-4.139c-.887,0-1.608-.722-1.608-1.609v-20.884h-.403v20.884c0,1.11.901,2.012,2.011,2.012h4.139c1.111,0,2.012-.902,2.012-2.012h-.402c0,.887-.722,1.609-1.61,1.609Z"/>
      <path class="cls-3" d="M30.647,48.782c0,.888-.722,1.609-1.608,1.609h-4.141c-.887,0-1.608-.721-1.608-1.609h-.403c0,1.112.901,2.012,2.011,2.012h4.141c1.109,0,2.01-.9,2.01-2.012v-20.902h-.402v20.902Z"/>
      <path class="cls-3" d="M193.327.404h4.139c.887,0,1.61.721,1.61,1.609h.402c0-1.112-.9-2.013-2.012-2.013h-4.139c-1.11,0-2.011.901-2.011,2.013h.404c0-.888.72-1.609,1.607-1.609Z"/>
      <path class="cls-3" d="M197.466,50.374h-4.139c-.887,0-1.607-.722-1.607-1.609h-.404c0,1.11.9,2.012,2.011,2.012h4.139c1.112,0,2.012-.902,2.012-2.012h-.402c0,.887-.723,1.609-1.61,1.609Z"/>
      <path class="cls-3" d="M213.418,22.89v-.029h-1.763v-6.5c0-.556-.449-1.005-1.005-1.005h-2.071c-.433,0-.8.278-.941.663V2.013c0-1.112-.9-2.013-2.011-2.013h-4.139c-1.113,0-2.012.901-2.012,2.013h.404c0-.888.72-1.609,1.608-1.609h4.139c.886,0,1.609.721,1.609,1.609v14.006l.78.137c.085-.238.314-.399.562-.399h2.071c.332,0,.603.271.603.604v6.901h2.014l.021.009c.146.061.512.773.512,2.082s-.366,2.018-.512,2.08l-.019.008h-2.016v6.971c0,.334-.271.604-.603.604h-2.071c-.248,0-.477-.16-.562-.397l-.78.137v14.008c0,.887-.723,1.609-1.609,1.609h-4.139c-.888,0-1.608-.722-1.608-1.609h-.404c0,1.11.899,2.012,2.012,2.012h4.139c1.111,0,2.011-.902,2.011-2.012v-14.008c.141.385.508.664.941.664h2.071c.556,0,1.005-.45,1.005-1.007v-6.568h1.763v-.028c.442-.148.786-1.189.786-2.462s-.344-2.316-.786-2.464Z"/>
      <path class="cls-3" d="M20.876,50.391h-4.14c-.886,0-1.607-.721-1.607-1.609h-.404c0,1.112.901,2.012,2.011,2.012h4.14c1.112,0,2.011-.9,2.011-2.012h-.402c0,.888-.721,1.609-1.609,1.609Z"/>
      <path class="cls-3" d="M12.715,50.391h-4.139c-.887,0-1.61-.721-1.61-1.609v-14.007l-.78-.137c-.087.238-.31.399-.563.399h-2.069c-.332,0-.603-.272-.603-.604v-6.971H.936l-.022-.009c-.143-.062-.51-.773-.51-2.081s.367-2.018.512-2.082l.02-.008h2.015v-6.903c0-.33.271-.602.603-.602h2.069c.253,0,.476.16.563.399l.78-.138V2.029c0-.887.723-1.609,1.61-1.609h4.139c.887,0,1.61.722,1.61,1.609h.401C14.726.919,13.825.018,12.715.018h-4.139C7.466.018,6.564.919,6.564,2.029v14.007c-.14-.386-.507-.664-.942-.664h-2.069c-.557,0-1.007.451-1.007,1.005v6.5H.786v.03c-.443.148-.786,1.188-.786,2.463s.344,2.313.786,2.462v.031h1.76v6.569c0,.555.45,1.006,1.007,1.006h2.069c.435,0,.802-.278.942-.664v14.007c0,1.112.901,2.012,2.012,2.012h4.139c1.109,0,2.011-.9,2.011-2.012h-.401c0,.888-.723,1.609-1.61,1.609Z"/>
      <path class="cls-3" d="M24.898.42h4.141c.886,0,1.608.722,1.608,1.609v20.867h9.204v-.019h-8.803V2.029C31.049.919,30.148.018,29.039.018h-4.141c-1.109,0-2.011.901-2.011,2.011h.403c0-.887.721-1.609,1.608-1.609Z"/>
      <path class="cls-3" d="M16.737.42h4.14c.888,0,1.609.722,1.609,1.609h.402C22.887.919,21.988.018,20.876.018h-4.14c-1.109,0-2.011.901-2.011,2.011h.404c0-.887.721-1.609,1.607-1.609Z"/>
      <path class="cls-3" d="M24.898,50.391h4.141c.886,0,1.608-.721,1.608-1.609v-20.902h-.211v-.028c-.441-.149-.786-1.19-.786-2.464s.345-2.316.786-2.462v-.03h.211V2.029c0-.887-.722-1.609-1.608-1.609h-4.141c-.887,0-1.608.722-1.608,1.609h-.804c0-.887-.721-1.609-1.609-1.609h-4.14c-.886,0-1.607.722-1.607,1.609h-.804c0-.887-.723-1.609-1.61-1.609h-4.139c-.887,0-1.61.722-1.61,1.609v14.007l-.78.138c-.087-.238-.31-.399-.563-.399h-2.069c-.332,0-.603.272-.603.602v6.903H.936l-.02.008c-.145.064-.512.774-.512,2.082s.367,2.019.51,2.081l.022.009h2.015v6.971c0,.332.271.604.603.604h2.069c.253,0,.476-.161.563-.399l.78.137v14.007c0,.888.723,1.609,1.61,1.609h4.139c.887,0,1.61-.721,1.61-1.609h.804c0,.888.721,1.609,1.607,1.609h4.14c.888,0,1.609-.721,1.609-1.609h.804c0,.888.721,1.609,1.608,1.609ZM24.103,3.084c0-.781.633-1.413,1.414-1.413h2.904c.779,0,1.412.632,1.412,1.413v2.888c-.213-.167-.477-.27-.766-.27h-2.566c-.689,0-1.248.557-1.248,1.248v39.504c0,.689.559,1.247,1.248,1.247h2.566c.061,0,.122-.01.183-.018-.236.169-.521.273-.829.273h-2.904c-.78,0-1.414-.633-1.414-1.412V3.084ZM2.547,25.072h-.956c-.055-.139-.103-.336-.103-.583s.049-.445.103-.583h.956v1.166ZM6.019,16.736h-1.804c-.364,0-.658.087-.658.195v3.469c.014-.158.031-.315.046-.472.069-.711.221-.897.311-1.608.046-.365.263-.843.348-.98.088-.139.179-.231.403-.291.158-.044.384-.072.717-.091.213-.012.425-.024.637-.037v4.049c0,.121-.315.221-.705.221h-1.451c-.391,0-.706-.099-.706-.221v-4.549c0-.121.315-.22.706-.22h1.451c.39,0,.705.099.705.22v.316ZM13.51,5.972c-.212-.167-.477-.27-.767-.27h-2.565c-.688,0-1.247.557-1.247,1.248v39.504c0,.689.559,1.247,1.247,1.247h2.565c.062,0,.124-.01.184-.018-.234.169-.52.273-.828.273h-2.905c-.781,0-1.412-.633-1.412-1.412V3.084c0-.781.63-1.413,1.412-1.413h2.905c.778,0,1.411.632,1.411,1.413v2.888ZM21.671,5.972c-.213-.167-.478-.27-.767-.27h-2.565c-.689,0-1.246.557-1.246,1.248v39.504c0,.689.557,1.247,1.246,1.247h2.565c.063,0,.122-.01.184-.018-.233.169-.517.273-.828.273h-2.906c-.781,0-1.412-.633-1.412-1.412V3.084c0-.781.63-1.413,1.412-1.413h2.906c.777,0,1.411.632,1.411,1.413v2.888Z"/>
      <path class="cls-3" d="M201.49,50.374h4.139c.886,0,1.609-.722,1.609-1.609v-14.008l.78-.137c.085.238.314.397.562.397h2.071c.332,0,.603-.27.603-.604v-6.971h2.016l.019-.008c.146-.062.512-.773.512-2.08s-.366-2.021-.512-2.082l-.021-.009h-2.014v-6.901c0-.334-.271-.604-.603-.604h-2.071c-.248,0-.477.161-.562.399l-.78-.137V2.013c0-.888-.723-1.609-1.609-1.609h-4.139c-.888,0-1.608.721-1.608,1.609h-.805c0-.888-.723-1.609-1.61-1.609h-4.139c-.887,0-1.607.721-1.607,1.609h-.805c0-.888-.722-1.609-1.61-1.609h-4.139c-.887,0-1.608.721-1.608,1.609v20.883h.718c.495,0,.893,1.116.893,2.492s-.398,2.492-.893,2.492h-.718v20.884c0,.887.721,1.609,1.608,1.609h4.139c.888,0,1.61-.722,1.61-1.609h.805c0,.887.72,1.609,1.607,1.609h4.139c.887,0,1.61-.722,1.61-1.609h.805c0,.887.72,1.609,1.608,1.609ZM211.656,23.889h.957c.057.138.103.336.103.582,0,.248-.047.446-.103.584h-.957v-1.166ZM208.185,16.902c.213.012.424.023.636.037.337.02.561.048.718.09.227.061.316.153.404.291.086.136.303.615.349.98.09.712.241.898.311,1.61.014.157.032.312.046.47v-3.468c0-.107-.294-.194-.658-.194h-1.804v-.316c0-.123.317-.22.704-.22h1.454c.389,0,.705.098.705.22v4.549c0,.12-.316.218-.705.218h-1.454c-.387,0-.704-.098-.704-.218v-4.049ZM200.695,3.066c0-.78.632-1.413,1.413-1.413h2.904c.78,0,1.411.633,1.411,1.413v43.459c0,.778-.63,1.412-1.411,1.412h-2.904c-.312,0-.596-.103-.829-.273.059.008.12.018.182.018h2.567c.686,0,1.245-.559,1.245-1.247V6.931c0-.689-.559-1.248-1.245-1.248h-2.567c-.29,0-.554.103-.766.27v-2.887ZM190.1,46.525c0,.778-.632,1.412-1.412,1.412h-2.905c-.309,0-.594-.103-.827-.273.058.008.119.018.181.018h2.567c.687,0,1.246-.559,1.246-1.247V6.931c0-.689-.559-1.248-1.246-1.248h-2.567c-.288,0-.556.103-.767.27v-2.887c0-.78.633-1.413,1.413-1.413h2.905c.779,0,1.412.633,1.412,1.413v43.459ZM198.261,46.525c0,.778-.631,1.412-1.41,1.412h-2.907c-.309,0-.594-.103-.827-.273.061.008.119.018.182.018h2.566c.688,0,1.247-.559,1.247-1.247V6.931c0-.689-.559-1.248-1.247-1.248h-2.566c-.289,0-.554.103-.766.27v-2.887c0-.78.632-1.413,1.411-1.413h2.907c.778,0,1.41.633,1.41,1.413v43.459Z"/>
      <path class="cls-3" d="M158.29,25.072H56.527c.705,1.141,1.492,2.2,1.394,2.594-.013.051-.041.12-.075.198h99.125c-.035-.078-.063-.147-.075-.198-.097-.393.69-1.452,1.395-2.594Z"/>
      <path class="cls-3" d="M169.414,23.907c.003-.057,0-.109.006-.17.024-.308.03-.586.024-.841h-1.308c-.01.342-.026.682-.05,1.01h1.328Z"/>
      <path class="cls-3" d="M53.206,27.864c.875-.428,1.751-.46,1.751-.46-.305-1.075-.369-1.814-.308-2.332h-2.037c-.032.049-.057.103-.099.144-.325.316-.87.273-.937.27-.344-.001-.599-.205-.774-.414h-2.08c-.039.061-.076.124-.125.171-.301.286-.75.249-.75.249l-.078-.004c-.291-.001-.521-.199-.687-.416h-1.983c-.276.257-.697.225-.765.22-.192,0-.356-.095-.49-.22h-12.604c-.055-.139-.103-.336-.103-.583s.049-.445.103-.583h8.664c-.03-.325-.046-.669-.053-1.01h-9.204v4.984h.402v-.016h22.158Z"/>
      <path class="cls-3" d="M165.875,23.907c.003-.061,0-.114.005-.178.023-.304.03-.577.027-.833h-1.521c-.007.339-.019.68-.042,1.01h1.531Z"/>
      <path class="cls-3" d="M183.558,22.896h-8.593c-.007.341-.023.686-.052,1.01h8.243v1.166h-12.183c-.134.125-.297.219-.49.22-.069.005-.49.037-.765-.22h-1.984c-.166.217-.396.415-.687.416l-.075.004s-.449.037-.75-.249c-.049-.047-.087-.11-.126-.171h-2.081c-.175.208-.43.412-.773.414-.066.003-.612.045-.938-.27-.042-.041-.066-.095-.098-.144h-2.037c.061.518-.004,1.256-.308,2.33,0,0,.877.031,1.753.461h21.542v.016h.403v-4.984Z"/>
      <path class="cls-3" d="M45.399,23.737c.006.061.003.112.006.17h1.328c-.024-.328-.04-.668-.05-1.01h-1.309c-.007.255,0,.532.025.841Z"/>
      <path class="cls-3" d="M48.939,23.729c.006.064.002.117.005.178h1.53c-.023-.331-.036-.672-.043-1.01h-1.521c-.003.256.004.529.028.833Z"/>
      <path class="cls-3" d="M173.053,23.907c-.019-.079-.031-.155-.024-.221.024-.259.03-.529.02-.79h-1.574c-.009.342-.026.683-.051,1.01h1.628Z"/>
      <path class="cls-3" d="M52.792,23.907h109.234c.027-.329.035-.677.011-1.01H52.78c-.024.334-.016.681.012,1.01Z"/>
      <path class="cls-3" d="M41.789,23.686c.007.066-.005.142-.024.221h1.627c-.025-.328-.042-.668-.051-1.01h-1.572c-.01.26-.004.531.02.79Z"/>
      <path class="cls-3" d="M30.436,22.926c-.441.146-.786,1.188-.786,2.462s.345,2.315.786,2.464v.028h.211v-4.984h-.211v.03Z"/>
      <path class="cls-3" d="M184.276,27.88c.495,0,.893-1.117.893-2.492s-.398-2.492-.893-2.492h-.718v4.984h.718Z"/>
      <path class="cls-3" d="M171.409,19.581c-.02-.208-.398-.428-.548-.484-.707-.188-1.209-.201-1.571-.142.009.052.028.1.034.156.005.092.105,1.6.082,3.261.021.155.032.326.037.506h2.033c.043-1.644-.066-3.283-.067-3.297Z"/>
      <path class="cls-3" d="M168.065,19.198c-.023-.273-.453-.516-.612-.576-1.487-.409-2.154-.083-2.438.178.274.238.507.556.55.983.003.059.053.731.078,1.639.169.339.255.829.264,1.455h2.23c.05-1.823-.069-3.663-.071-3.679Z"/>
      <path class="cls-3" d="M164.308,19.881c-.017-.168-.406-.397-.625-.468-1.967-.471-2.584.12-2.723.3-.072.726-.325,1.792-.48,2.441l.49.355c.096-.739.212-1.18.212-1.18.579.173.798.821.854,1.548h2.35c.029-1.529-.077-2.983-.078-2.996Z"/>
      <path class="cls-3" d="M174.902,20.512c-.025-.069-.245-.217-.413-.27-.913-.216-1.466-.141-1.785-.004.017.373.033.858.039,1.396.187.221.283.707.304,1.244h1.917c.024-1.211-.062-2.366-.062-2.366Z"/>
      <path class="cls-3" d="M171.424,23.907h-2.011c-.026.54.072.945.3,1.163.001.001.003.002.004.003h1.255c.214-.201.35-.482.398-.591.022-.184.039-.378.054-.575Z"/>
      <path class="cls-3" d="M173.472,24.644c.22.216.62.191.684.186.4,0,.643-.41.716-.554.016-.118.028-.242.04-.369h-1.86c.066.268.258.579.42.737Z"/>
      <path class="cls-3" d="M164.344,23.907h-2.318c-.002.021-.002.044-.004.065-.037.348-.018.791.183,1.101h1.808c.13-.155.217-.313.255-.391.032-.245.057-.506.075-.775Z"/>
      <path class="cls-3" d="M168.085,23.907h-2.211c-.024.506.049.901.22,1.166h1.638c.154-.2.254-.415.293-.507.025-.21.044-.432.06-.659Z"/>
      <path class="cls-3" d="M168.135,22.896c0-.006,0-.012,0-.019h-2.23c0,.007,0,.012,0,.019h2.228Z"/>
      <path class="cls-3" d="M164.386,22.896c0-.006,0-.012,0-.019h-2.35c0,.006,0,.012.001.019h2.349Z"/>
      <path class="cls-3" d="M171.475,22.896c0-.006,0-.012,0-.019h-2.033c0,.006,0,.012,0,.019h2.032Z"/>
      <path class="cls-3" d="M174.965,22.896c0-.006,0-.012,0-.019h-1.917c0,.006,0,.012,0,.019h1.916Z"/>
      <path class="cls-3" d="M162.026,23.907h2.318c.023-.331.035-.672.042-1.01h-2.349c.024.334.016.681-.011,1.01Z"/>
      <path class="cls-3" d="M165.88,23.729c-.006.064-.002.117-.005.178h2.211c.024-.328.04-.668.05-1.01h-2.228c.003.256-.003.529-.027.833Z"/>
      <path class="cls-3" d="M169.419,23.737c-.006.061-.003.112-.006.17h2.011c.025-.328.042-.668.051-1.01h-2.032c.007.255,0,.532-.024.841Z"/>
      <path class="cls-3" d="M170.482,25.292c.193,0,.356-.095.49-.22h-1.255c.275.257.696.225.765.22Z"/>
      <path class="cls-3" d="M162.303,25.216c.326.315.871.273.938.27.343-.002.598-.206.773-.414h-1.808c.032.049.056.103.098.144Z"/>
      <path class="cls-3" d="M173.028,23.686c-.007.066.005.142.024.221h1.86c.029-.325.045-.669.052-1.01h-1.916c.01.26.004.531-.02.79Z"/>
      <path class="cls-3" d="M166.22,25.243c.301.286.75.249.75.249l.075-.004c.291-.001.521-.199.687-.416h-1.638c.039.061.076.124.126.171Z"/>
      <path class="cls-3" d="M49.175,21.422c.024-.906.075-1.58.078-1.639.04-.426.277-.745.55-.983-.285-.261-.951-.587-2.437-.178-.159.06-.592.303-.615.576,0,.016-.12,1.857-.069,3.679h2.229c.009-.626.095-1.117.264-1.455Z"/>
      <path class="cls-3" d="M48.944,23.907h-2.211c.016.227.036.449.06.659.038.092.137.307.29.507h1.64c.17-.264.244-.66.22-1.166Z"/>
      <path class="cls-3" d="M48.91,22.896c0-.007,0-.012,0-.019h-2.229c0,.006,0,.012,0,.019h2.227Z"/>
      <path class="cls-3" d="M47.77,25.488l.078.004s.449.037.75-.249c.049-.047.086-.11.125-.171h-1.64c.166.217.396.415.687.416Z"/>
      <path class="cls-3" d="M48.944,23.907c-.003-.061,0-.114-.005-.178-.024-.304-.031-.577-.028-.833h-2.227c.01.342.026.682.05,1.01h2.211Z"/>
      <path class="cls-3" d="M53.635,21.329s.117.442.211,1.18l.491-.355c-.155-.65-.406-1.714-.48-2.441-.138-.18-.753-.771-2.722-.299-.218.071-.608.3-.625.469-.001.013-.109,1.466-.079,2.995h2.351c.055-.727.274-1.374.853-1.548Z"/>
      <path class="cls-3" d="M52.797,23.972c-.002-.021-.003-.044-.004-.066h-2.318c.019.268.043.529.076.775.037.079.123.236.253.391h1.809c.202-.309.22-.753.185-1.1Z"/>
      <path class="cls-3" d="M52.78,22.896c0-.006,0-.012.001-.019h-2.351v.019h2.35Z"/>
      <path class="cls-3" d="M51.577,25.486c.066.003.612.047.937-.27.042-.041.067-.095.099-.144h-1.809c.174.208.43.413.774.414Z"/>
      <path class="cls-3" d="M52.792,23.907c-.028-.329-.036-.677-.012-1.01h-2.349c.007.339.02.68.043,1.01h2.318Z"/>
      <path class="cls-3" d="M45.41,22.372c-.022-1.661.079-3.168.085-3.261.003-.056.025-.104.032-.155-.361-.06-.863-.047-1.57.142-.152.055-.531.274-.549.483-.002.014-.111,1.653-.068,3.297h2.034c.005-.18.016-.351.036-.506Z"/>
      <path class="cls-3" d="M45.405,23.907h-2.013c.015.198.032.392.054.575.048.109.185.39.399.59h1.255s.003-.002.004-.003c.229-.217.326-.622.3-1.163Z"/>
      <path class="cls-3" d="M45.374,22.896c0-.006,0-.012,0-.019h-2.034c0,.006,0,.012,0,.019h2.033Z"/>
      <path class="cls-3" d="M45.405,23.907c-.003-.057,0-.109-.006-.17-.026-.308-.032-.586-.025-.841h-2.033c.009.342.026.683.051,1.01h2.013Z"/>
      <path class="cls-3" d="M44.335,25.292c.068.005.489.037.765-.22h-1.255c.134.125.297.219.49.22Z"/>
      <path class="cls-3" d="M42.073,21.634c.005-.539.024-1.023.04-1.395-.318-.138-.872-.214-1.785.003-.168.054-.388.201-.415.27,0,0-.086,1.155-.062,2.366h1.918c.022-.537.118-1.023.303-1.243Z"/>
      <path class="cls-3" d="M40.661,24.83c.065.005.464.031.684-.186.162-.158.354-.469.42-.737h-1.86c.012.127.024.251.04.37.072.144.315.553.716.553Z"/>
      <path class="cls-3" d="M41.769,22.896c0-.006,0-.012,0-.019h-1.918v.019h1.918Z"/>
      <path class="cls-3" d="M41.789,23.686c-.024-.259-.03-.53-.02-.79h-1.917c.007.341.024.686.053,1.01h1.86c.019-.079.031-.155.024-.221Z"/>
      <path class="cls-3" d="M158.453,30.325c.674,1.74,1.787,1.998,3.361,2.523,1.575.526,2.1,1.705,2.1,1.705.393,3.542,0,16.297,0,16.297-4.199,5.116-4.688,10.415-4.688,10.415,1.608,4.591-.033,6.166-.033,6.166.262-3.409-1.052-5.102-1.052-5.102-6.295-4.577-13.64,1.692-13.64,1.692-2.538,5.639-6.559,4.46-6.559,4.46,3.935-1.837,4.066-4.067,4.066-4.067-7.739-5.77-18.497-.742-18.497-.742,3.018.787,4.592,3.104,4.592,3.104-9.314-4.068-17.819,1.727-17.819,1.727,1.576-3.41,7.981-5.531,7.981-5.531-1.182-1.967,0-6.821,0-6.821.786-1.311,1.134-5.772,1.134-5.772.877.875,1.227-2.754,1.227-2.754.524-3.804-1.049-1.968-1.049-1.968,1.311-7.609-2.362-10.494-2.362-10.494-3.557-3.319-8.827-3.318-9.809-3.286-.987-.031-6.251-.031-9.804,3.286,0,0-3.674,2.886-2.362,10.494,0,0-1.574-1.837-1.048,1.968,0,0,.349,3.629,1.223,2.755,0,0,.349,4.46,1.136,5.771,0,0,1.182,4.855,0,6.821,0,0,6.405,2.121,7.979,5.531,0,0-8.504-5.793-17.818-1.727,0,0,1.576-2.318,4.592-3.104,0,0-10.757-5.028-18.495.742,0,0,.13,2.231,4.065,4.067,0,0-4.023,1.181-6.559-4.46,0,0-7.345-6.268-13.64-1.691,0,0-1.314,1.691-1.05,5.102,0,0-1.643-1.574-.036-6.166,0,0-.488-5.301-4.686-10.417,0,0-.394-12.755,0-16.297,0,0,.525-1.179,2.098-1.705,1.575-.525,2.69-.783,3.365-2.523,0,0,1.141-1.711,1.474-2.445h-4.667c-.426.213-.848.521-1.167.968h-1.527s-3.613-.019-4.124,1.513c0,0-.586-.869.022-1.513h-5.049s-1.377,1.311.787,3.083c0,0,2.298-1.05,4-.46,0,0-3.934.853-4,2.295,0,0-.327,3.412-.655,5.576-.328,2.164-1.64,16.493-1.902,17.542,0,0-2.558,4.831,1.639,11.627,0,0-1.573,7.317,3.672,7.58,0,0,3.412,1.312,5.772,2.887,2.362,1.573,19.154,12.068,25.188,4.721,0,0,3.148-4.459,4.459-5.511,0,0-4.198,4.724-3.411,9.709,0,0,5.621,10.096,11.529,12.569,0,0,.096,3.397.148,5.769.078,3.635.083,8.615-.394,10.521h38.502c-.477-1.905-.473-6.886-.394-10.521.051-2.372.148-5.77.148-5.77,5.906-2.473,11.528-12.568,11.528-12.568.786-4.986-3.412-9.709-3.412-9.709,1.313,1.051,4.459,5.511,4.459,5.511,6.036,7.347,22.825-3.149,25.189-4.722,2.36-1.575,5.771-2.886,5.771-2.886,5.246-.264,3.672-7.582,3.672-7.582,4.199-6.794,1.641-11.625,1.641-11.625-.263-1.05-1.575-15.378-1.903-17.542-.327-2.164-.655-5.576-.655-5.576-.067-1.442-4.001-2.295-4.001-2.295,1.705-.59,4.001.46,4.001.46,2.163-1.771.788-3.083.788-3.083h-5.051c.609.646.023,1.515.023,1.515-.511-1.534-4.126-1.515-4.126-1.515h-1.525c-.318-.446-.74-.753-1.164-.966h-4.669c.333.734,1.475,2.445,1.475,2.445ZM111.979,71.959c-2.936,3.467-.001,8.284.653,12.02-2.882-2.221-6.939-11.048-.653-12.02ZM102.901,71.959c6.285.97,2.228,9.799-.655,12.02.656-3.734,3.59-8.555.655-12.02ZM71.839,75.821c-5.07,1.501-10.84-1.157-13.201-5.943,3.277,2.351,7.728,5.061,11.99,4.211,2.606-.52,4.931-2.488,7.725-2.129-2.417.875-4.035,3.078-6.513,3.862ZM79.92,71.959c3.375,2.168,7.361,2.707,10.966,4.317-3.612,1.469-10.056.18-10.966-4.317ZM82.4,76.276c2.684,5.99,8.731,7.825,14.1,10.575-5.809.517-15.08-3.369-14.1-10.575ZM87.304,96.798c-1.842-.78-2.142-3.081-1.823-4.942-1.226-1.431-1.502-3.432-.081-5.005.011,1.657.38,2.887,1.72,3.843.447.737.436.947.391,1.894-.059,1.279-.022,2.176.884,3.017.771.717.535,2.417,1.053,3.421-.976-.318-1.673-1.312-2.144-2.228ZM92.063,93.251c.036.087.07.163.098.235.653,1.595,1.681,5.11,3.781,4.302,1.687-1.276,5.906-3.812,8.595-3.102-2.668,1.125-5.108,3.387-7.533,4.929-4.057,1.75-5.567-3.188-4.941-6.365ZM96.5,109.311c1.016,2.14,1.531,3.652,3.414,5.221-3.173,1.822-5.807-2.892-3.414-5.221ZM114.966,114.533c1.88-1.57,2.396-3.082,3.409-5.221,2.397,2.329-.236,7.043-3.409,5.221ZM118.203,108.594c-1.683-.524-4.237-1.304-6.351-1.342-.564-.046-2.131.538-2.577.273-.283-.167-.526-.368-.735-.59-.233,3.063-.667,6.072-1.314,8.904-.546-2.789-.88-5.746-1.015-8.752-.149.135-.307.261-.49.369-.586.246-1.517-.173-2.178-.2-2.264-.138-5.054.775-6.866,1.338-3.782,1.715-3.413-5.463-3.059-7.248.117.425,1.739,5.925,2.113,5.639,2.822-1.039,6.233-2.508,9.401-1.297.403-.581.732-1.077,1.01-1.572-.005-4.835.501-9.703,1.511-14.13.852,4.416,1.195,9.239,1.045,14.02.292.53.637,1.053,1.056,1.681,3.142-1.196,6.609.217,9.393,1.299.406.293,1.997-5.212,2.114-5.639.358,1.794.722,8.954-3.058,7.248ZM117.957,99.667c-2.78-1.148-4.827-3.808-7.616-4.98,2.694-.71,6.902,1.826,8.597,3.102,2.095.818,3.132-2.714,3.781-4.302.028-.072.058-.149.098-.235.613,3.088-.827,8.085-4.86,6.416ZM127.573,96.798c-.471.916-1.166,1.91-2.146,2.228.522-1.003.283-2.704,1.056-3.421.906-.841.944-1.737.883-3.017-.043-.946-.057-1.157.392-1.894,1.341-.951,1.709-2.191,1.718-3.843,1.424,1.572,1.145,3.573-.078,5.004.318,1.86.02,4.165-1.825,4.943ZM118.375,86.852c5.374-2.746,11.421-4.585,14.104-10.575.972,7.207-8.285,11.092-14.104,10.575ZM123.991,76.276c3.604-1.611,7.591-2.149,10.969-4.317-.916,4.497-7.354,5.788-10.969,4.317ZM143.04,75.821c-2.477-.787-4.096-2.986-6.514-3.862,2.794-.36,5.121,1.61,7.723,2.129,4.263.85,8.713-1.859,11.993-4.211-2.369,4.775-8.128,7.446-13.202,5.943Z"/>
      <path class="cls-3" d="M57.846,27.864h-4.64c-.011.006-.023.01-.034.016h4.667c.003-.006.005-.011.007-.016Z"/>
      <path class="cls-3" d="M55.887,23.928s-1.076-.234-1.238,1.144h1.878c-.234-.38-.46-.768-.64-1.144Z"/>
      <path class="cls-3" d="M158.93,23.928c-.181.376-.406.765-.64,1.144h1.877c-.162-1.379-1.237-1.144-1.237-1.144Z"/>
      <path class="cls-3" d="M156.971,27.864c.002.005.005.011.007.016h4.669c-.011-.006-.023-.011-.034-.016h-4.642Z"/>
      <path class="cls-3" d="M56.527,25.072h-1.878c-.061.518.003,1.257.308,2.332,0,0-.876.031-1.751.46h4.64c.035-.078.062-.147.075-.198.098-.393-.69-1.452-1.394-2.594Z"/>
      <path class="cls-3" d="M156.896,27.666c.013.051.041.12.075.198h4.642c-.876-.43-1.753-.461-1.753-.461.304-1.074.368-1.813.308-2.33h-1.877c-.705,1.141-1.492,2.2-1.395,2.594Z"/>
    </g>
  </g>
</svg>