<?xml version="1.0" encoding="UTF-8"?>
<svg id="_레이어_2" data-name="레이어 2" xmlns="http://www.w3.org/2000/svg" viewBox="0 0 89.652 103.082">
  <defs>
    <style>
      .cls-1, .cls-2 {
        fill-rule: evenodd;
      }

      .cls-1, .cls-2, .cls-3, .cls-4 {
        stroke-width: 0px;
      }

      .cls-1, .cls-3, .cls-5 {
        fill: #131514;
      }

      .cls-2 {
        fill: #fff;
      }

      .cls-4 {
        fill: #253535;
      }

      .cls-5 {
        stroke: #131514;
        stroke-miterlimit: 22.926;
        stroke-width: .139px;
      }
    </style>
  </defs>
  <g id="_레이어_1-2" data-name="레이어 1">
    <g>
      <path class="cls-1" d="M81.573,13.593c4.534,2.63,7.224,7.391,7.907,12.963.663,5.411-.578,11.605-3.881,17.301-3.051,5.261-7.346,9.207-11.944,11.442-.126.085-.267.154-.42.202l-.023.007c-.233.108-.468.211-.702.309-1.064.447-2.141.803-3.219,1.065-3.145,1.226-6.029,2.669-8.65,4.329-3.084,1.953-5.808,4.214-8.174,6.782l-11.475,19.786.031.018c.231.134.31.432.176.662l-8.341,14.382c-.134.231-.432.31-.662.176l-3.718-2.157c-.231-.134-.31-.432-.176-.662l8.341-14.382c.134-.231.432-.31.662-.176l.03.018,11.408-19.672c1.08-3.368,1.702-6.898,1.869-10.592.141-3.149-.046-6.421-.562-9.816-.283-1.013-.493-2.066-.625-3.149-.024-.194-.045-.389-.064-.585l-.047-.216c-.044-.203-.048-.406-.017-.599-.309-5.063.987-10.69,4.009-15.9,3.303-5.696,8.063-9.849,13.089-11.961,5.175-2.174,10.643-2.204,15.178.425h0ZM60.653,20.867l-.85,1.466,3.128,1.814,1.814-3.128-2.592-1.503c-.511.424-1.012.875-1.499,1.351h0ZM59.031,23.663l-1.814,3.128,3.128,1.814,1.814-3.128-3.128-1.814h0ZM56.446,28.12l-1.814,3.128,3.128,1.814,1.814-3.128-3.128-1.814h0ZM53.861,32.578l-.605,1.044c-.216.833-.387,1.664-.512,2.488l2.432,1.41,1.814-3.128-3.128-1.814h0ZM80.048,45.988l1.814-3.128-3.128-1.814-1.814,3.128,3.128,1.814h0ZM82.634,41.531l1.814-3.128-3.128-1.814-1.814,3.128,3.128,1.814h0ZM70.42,52.318l1.814-3.128-3.128-1.814-1.814,3.128,3.128,1.814h0ZM73.005,47.861l1.814-3.128-3.128-1.814-1.814,3.128,3.128,1.814h0ZM75.591,43.403l1.814-3.128-3.128-1.814-1.814,3.128,3.128,1.814h0ZM78.176,38.945l1.814-3.128-3.128-1.814-1.814,3.128,3.128,1.814h0ZM80.761,34.488l1.814-3.128-3.128-1.814-1.814,3.128,3.128,1.814h0ZM83.346,30.03l1.814-3.128-3.128-1.814-1.814,3.128,3.128,1.814h0ZM85.931,25.572l.095-.163c-.334-1.598-.876-3.088-1.618-4.417l-1.605,2.767,3.128,1.814h0ZM86.372,27.877l-1.696,2.924,1.631.946c.138-1.321.158-2.617.064-3.87h0ZM83.905,32.131l-1.814,3.128,3.064,1.777c.404-1.219.711-2.439.922-3.645l-2.173-1.26h0ZM76.149,45.504l-1.814,3.128,2.012,1.167c.964-.766,1.894-1.625,2.774-2.571l-2.973-1.724h0ZM73.564,49.962l-1.451,2.501c.98-.467,1.946-1.025,2.886-1.669l-1.436-.833h0ZM63.438,54.085l1.753-3.022-3.128-1.814-2.215,3.818c1.137.531,2.343.867,3.59,1.018h0ZM65.962,49.733l1.814-3.128-3.128-1.814-1.814,3.128,3.128,1.814h0ZM68.548,45.275l1.814-3.128-3.128-1.814-1.814,3.128,3.128,1.814h0ZM71.133,40.818l1.814-3.128-3.128-1.814-1.814,3.128,3.128,1.814h0ZM73.718,36.36l1.814-3.128-3.128-1.814-1.814,3.128,3.128,1.814h0ZM76.303,31.902l1.814-3.128-3.128-1.814-1.814,3.128,3.128,1.814h0ZM78.888,27.445l1.814-3.128-3.128-1.814-1.814,3.128,3.128,1.814h0ZM81.474,22.987l1.998-3.445c-.75-1.007-1.64-1.887-2.666-2.61l-2.459,4.241,3.128,1.814h0ZM66.521,51.834l-1.36,2.345c1.07-.011,2.159-.148,3.25-.403.293-.112.588-.223.885-.332l-2.776-1.61h0ZM58.503,52.325l2.231-3.847-3.128-1.814-1.851,3.192c.781.961,1.698,1.794,2.748,2.469h0ZM61.505,47.148l1.814-3.128-3.128-1.814-1.814,3.128,3.128,1.814h0ZM64.09,42.69l1.814-3.128-3.128-1.814-1.814,3.128,3.128,1.814h0ZM66.675,38.232l1.814-3.128-3.128-1.814-1.814,3.128,3.128,1.814h0ZM69.26,33.775l1.814-3.128-3.128-1.814-1.814,3.128,3.128,1.814h0ZM71.846,29.317l1.814-3.128-3.128-1.814-1.814,3.128,3.128,1.814h0ZM74.431,24.859l1.814-3.128-3.128-1.814-1.814,3.128,3.128,1.814h0ZM77.016,20.402l2.476-4.269c-1.107-.576-2.286-.958-3.508-1.159l-2.096,3.614,3.128,1.814h0ZM54.778,48.475l1.498-2.582-3.128-1.814-.065.112c.034.205.068.41.1.614.381,1.325.914,2.559,1.596,3.67h0ZM57.047,44.563l1.814-3.128-3.128-1.814-1.814,3.128,3.128,1.814h0ZM59.632,40.105l1.814-3.128-3.128-1.814-1.814,3.128,3.128,1.814h0ZM62.217,35.647l1.814-3.128-3.128-1.814-1.814,3.128,3.128,1.814h0ZM64.803,31.189l1.814-3.128-3.128-1.814-1.814,3.128,3.128,1.814h0ZM67.388,26.732l1.814-3.128-3.128-1.814-1.814,3.128,3.128,1.814h0ZM69.973,22.274l1.814-3.128-3.128-1.814-1.814,3.128,3.128,1.814h0ZM72.558,17.816l1.742-3.005c-1.477-.045-2.997.154-4.515.578l-.355.612,3.128,1.814h0ZM52.651,41.872l1.752-3.022-1.855-1.076c-.101,1.252-.096,2.48.012,3.666.03.144.061.288.09.432h0ZM65.515,19.689l1.814-3.128-.278-.161c-1.223.562-2.426,1.265-3.587,2.1l2.051,1.189h0ZM61.431,57.009c-1.424-.329-2.8-.864-4.099-1.617-1.31-.76-2.466-1.698-3.465-2.782.014.986,0,1.962-.043,2.928-.115,2.555-.431,5.036-.947,7.44l.058.033c1.831-1.643,3.827-3.148,5.988-4.517.813-.515,1.649-1.01,2.509-1.485Z"/>
      <path class="cls-1" d="M8.08,13.593C3.545,16.223.855,20.985.172,26.556c-.663,5.411.578,11.605,3.881,17.301,3.051,5.261,7.346,9.207,11.944,11.442.126.085.267.154.419.202l.023.007c.234.108.468.211.702.309,1.064.447,2.141.803,3.219,1.065,3.145,1.226,6.029,2.669,8.65,4.329,3.083,1.953,5.808,4.214,8.174,6.782l11.475,19.786-.03.018c-.231.134-.31.432-.176.662l8.341,14.382c.134.231.432.31.662.176l3.719-2.157c.231-.134.31-.432.176-.662l-8.341-14.382c-.134-.231-.432-.31-.662-.176l-.031.018-11.408-19.672c-1.08-3.368-1.703-6.898-1.869-10.592-.142-3.149.046-6.421.562-9.816.284-1.013.493-2.066.625-3.149.024-.194.045-.389.064-.585l.047-.216c.044-.203.048-.406.017-.599.309-5.063-.987-10.69-4.009-15.9-3.303-5.696-8.063-9.849-13.089-11.961-5.175-2.174-10.643-2.204-15.178.425h0ZM29,20.867l.85,1.466-3.128,1.814-1.814-3.128,2.592-1.503c.511.424,1.011.875,1.499,1.351h0ZM30.621,23.663l1.814,3.128-3.128,1.814-1.814-3.128,3.128-1.814h0ZM33.206,28.12l1.814,3.128-3.128,1.814-1.814-3.128,3.128-1.814h0ZM35.792,32.578l.605,1.044c.216.833.387,1.664.512,2.488l-2.432,1.41-1.814-3.128,3.128-1.814h0ZM9.604,45.988l-1.814-3.128,3.128-1.814,1.814,3.128-3.128,1.814h0ZM7.019,41.531l-1.814-3.128,3.128-1.814,1.814,3.128-3.128,1.814h0ZM19.232,52.318l-1.814-3.128,3.128-1.814,1.814,3.128-3.128,1.814h0ZM16.647,47.861l-1.814-3.128,3.128-1.814,1.814,3.128-3.128,1.814h0ZM14.062,43.403l-1.814-3.128,3.128-1.814,1.814,3.128-3.128,1.814h0ZM11.476,38.945l-1.814-3.128,3.128-1.814,1.814,3.128-3.128,1.814h0ZM8.891,34.488l-1.814-3.128,3.128-1.814,1.814,3.128-3.128,1.814h0ZM6.306,30.03l-1.814-3.128,3.128-1.814,1.814,3.128-3.128,1.814h0ZM3.721,25.572l-.095-.163c.335-1.598.876-3.088,1.618-4.417l1.605,2.767-3.128,1.814h0ZM3.28,27.877l1.696,2.924-1.631.946c-.138-1.321-.158-2.617-.065-3.87h0ZM5.747,32.131l1.814,3.128-3.065,1.777c-.404-1.219-.711-2.439-.922-3.645l2.173-1.26h0ZM13.503,45.504l1.814,3.128-2.012,1.167c-.964-.766-1.894-1.625-2.774-2.571l2.972-1.724h0ZM16.088,49.962l1.451,2.501c-.98-.467-1.946-1.025-2.886-1.669l1.436-.833h0ZM26.214,54.085l-1.753-3.022,3.128-1.814,2.215,3.818c-1.137.531-2.343.867-3.59,1.018h0ZM23.69,49.733l-1.814-3.128,3.128-1.814,1.814,3.128-3.128,1.814h0ZM21.105,45.275l-1.814-3.128,3.128-1.814,1.814,3.128-3.128,1.814h0ZM18.519,40.818l-1.814-3.128,3.128-1.814,1.814,3.128-3.128,1.814h0ZM15.934,36.36l-1.814-3.128,3.128-1.814,1.814,3.128-3.128,1.814h0ZM13.349,31.902l-1.814-3.128,3.128-1.814,1.814,3.128-3.128,1.814h0ZM10.764,27.445l-1.814-3.128,3.128-1.814,1.814,3.128-3.128,1.814h0ZM8.178,22.987l-1.998-3.445c.75-1.007,1.641-1.887,2.666-2.61l2.459,4.241-3.128,1.814h0ZM23.131,51.834l1.36,2.345c-1.07-.011-2.159-.148-3.25-.403-.293-.112-.588-.223-.885-.332l2.776-1.61h0ZM31.15,52.325l-2.231-3.847,3.128-1.814,1.851,3.192c-.781.961-1.698,1.794-2.748,2.469h0ZM28.148,47.148l-1.814-3.128,3.128-1.814,1.814,3.128-3.128,1.814h0ZM25.562,42.69l-1.814-3.128,3.128-1.814,1.814,3.128-3.128,1.814h0ZM22.977,38.232l-1.814-3.128,3.128-1.814,1.814,3.128-3.128,1.814h0ZM20.392,33.775l-1.814-3.128,3.128-1.814,1.814,3.128-3.128,1.814h0ZM17.807,29.317l-1.814-3.128,3.128-1.814,1.814,3.128-3.128,1.814h0ZM15.221,24.859l-1.814-3.128,3.128-1.814,1.814,3.128-3.128,1.814h0ZM12.636,20.402l-2.476-4.269c1.107-.576,2.286-.958,3.508-1.159l2.096,3.614-3.128,1.814h0ZM34.874,48.475l-1.498-2.582,3.128-1.814.065.112c-.034.205-.068.41-.1.614-.381,1.325-.914,2.559-1.596,3.67h0ZM32.605,44.563l-1.814-3.128,3.128-1.814,1.814,3.128-3.128,1.814h0ZM30.02,40.105l-1.814-3.128,3.128-1.814,1.814,3.128-3.128,1.814h0ZM27.435,35.647l-1.814-3.128,3.128-1.814,1.814,3.128-3.128,1.814h0ZM24.85,31.189l-1.814-3.128,3.128-1.814,1.814,3.128-3.128,1.814h0ZM22.264,26.732l-1.814-3.128,3.128-1.814,1.814,3.128-3.128,1.814h0ZM19.679,22.274l-1.814-3.128,3.128-1.814,1.814,3.128-3.128,1.814h0ZM17.094,17.816l-1.743-3.005c1.477-.045,2.997.154,4.515.578l.355.612-3.128,1.814h0ZM37.002,41.872l-1.753-3.022,1.855-1.076c.101,1.252.096,2.48-.012,3.666-.03.144-.061.288-.09.432h0ZM24.137,19.689l-1.814-3.128.278-.161c1.223.562,2.426,1.265,3.587,2.1l-2.051,1.189h0ZM28.221,57.009c1.424-.329,2.8-.864,4.099-1.617,1.31-.76,2.466-1.698,3.465-2.782-.015.986,0,1.962.043,2.928.115,2.555.431,5.036.947,7.44l-.058.033c-1.831-1.643-3.827-3.148-5.988-4.517-.813-.515-1.649-1.01-2.509-1.485Z"/>
      <g>
        <path class="cls-1" d="M58.157,71.141c-.724,0-1.311-.587-1.311-1.311s.587-1.311,1.311-1.311h9.328c.724,0,1.311.587,1.311,1.311s-.587,1.311-1.311,1.311h-9.328Z"/>
        <path class="cls-1" d="M58.157,80.068c-.724,0-1.311-.587-1.311-1.311s.587-1.311,1.311-1.311h21.162c.724,0,1.311.587,1.311,1.311s-.587,1.311-1.311,1.311h-21.162Z"/>
        <path class="cls-1" d="M58.157,75.604c-.724,0-1.311-.587-1.311-1.311s.587-1.311,1.311-1.311h13.723c.724,0,1.311.587,1.311,1.311s-.587,1.311-1.311,1.311h-13.723Z"/>
        <path class="cls-1" d="M30.492,71.14c.724,0,1.311-.587,1.311-1.311s-.587-1.311-1.311-1.311h-9.327c-.724,0-1.311.587-1.311,1.311s.587,1.311,1.311,1.311h9.327Z"/>
        <path class="cls-1" d="M30.492,80.067c.724,0,1.311-.587,1.311-1.311s-.587-1.312-1.311-1.312H9.33c-.724,0-1.312.587-1.312,1.312s.587,1.311,1.312,1.311h21.162Z"/>
        <path class="cls-1" d="M30.492,75.604c.724,0,1.311-.587,1.311-1.311s-.587-1.311-1.311-1.311h-13.723c-.724,0-1.311.587-1.311,1.311s.587,1.311,1.311,1.311h13.723Z"/>
      </g>
      <g>
        <path class="cls-1" d="M36.989,1.188c.679-.304,1.42-.303,2.066-.056.068.026.135.055.201.086.369-.446.883-.778,1.488-.913.726-.162,1.452-.013,2.036.358.026.017.053.034.079.052.482-.444,1.125-.716,1.829-.716s1.35.274,1.833.72c.028-.019.056-.038.085-.056.584-.371,1.31-.521,2.036-.358.606.135,1.119.467,1.488.912.066-.031.133-.06.201-.086.647-.247,1.388-.248,2.067.056.679.304,1.171.857,1.418,1.504.247.647.248,1.388-.056,2.067h-.001c-.014.03-.031.06-.051.09l-6.411,9.28c-.124.209-.373.324-.623.266-.218-.051-.379-.22-.428-.424l-.015.035c-.08.23-.301.392-.557.385-.232-.006-.428-.149-.513-.349-.1.252-.368.406-.643.352-.152-.03-.277-.116-.36-.234-.102.136-.262.226-.445.231-.256.007-.478-.155-.557-.385l-.015-.035c-.05.204-.21.374-.428.424-.25.058-.499-.057-.623-.266l-6.41-9.28c-.02-.029-.037-.059-.051-.09h-.001c-.304-.678-.303-1.419-.056-2.066.247-.647.739-1.2,1.418-1.504Z"/>
        <path class="cls-2" d="M38.646,2.205c-.372-.142-.798-.143-1.188.031-.389.174-.672.492-.814.865-.138.36-.143.771.015,1.151l4.691,6.791-1.86-8.067c-.178-.367-.486-.633-.844-.77Z"/>
        <path class="cls-2" d="M42.165,1.634c-.336-.214-.754-.3-1.17-.207-.416.093-.757.348-.971.685-.207.326-.294.727-.215,1.131l3.239,7.591-.21-8.276c-.101-.395-.35-.718-.673-.923Z"/>
        <path class="cls-2" d="M45.785,1.606c-.282-.282-.67-.457-1.097-.457s-.815.175-1.097.457c-.273.273-.446.646-.456,1.057l1.508,8.115,1.598-8.123c-.013-.408-.185-.777-.456-1.048Z"/>
        <path class="cls-2" d="M48.645,8.347l-.067.157-.599,2.585.071-.103-.013.057,4.691-6.791c.067-.161.105-.328.116-.495.032-.261-.003-.522-.097-.76-.145-.369-.431-.68-.822-.844-.391-.164-.817-.153-1.188-.002-.36.147-.667.424-.842.799l-1.25,5.396Z"/>
        <path class="cls-2" d="M49.358,2.095c-.215-.333-.557-.582-.972-.666-.416-.084-.831.012-1.165.233-.323.215-.57.547-.667.949l-.24,8.279,3.268-7.675c.073-.403-.017-.801-.224-1.121Z"/>
        <rect class="cls-4" x="42.468" y="14.939" width="4.441" height="1.622"/>
        <path class="cls-5" d="M41.893,13.79h5.59c.317,0,.574.257.574.574v2.772c0,.317-.257.574-.574.574h-5.59c-.317,0-.574-.257-.574-.574v-2.772c0-.317.257-.575.575-.575Z"/>
        <path class="cls-1" d="M48.057,19.763c0,.02,0,.041,0,.061,0,.931-.377,1.774-.987,2.384-.61.61-1.453.987-2.384.987s-1.774-.378-2.384-.987c-.61-.61-.987-1.453-.987-2.384,0-.02,0-.04,0-.061h1.149c0,.02,0,.041,0,.061,0,.614.249,1.169.651,1.571.402.402.958.651,1.572.651s1.169-.249,1.571-.651c.402-.402.651-.958.651-1.571,0-.02,0-.04,0-.061h1.149Z"/>
        <rect class="cls-3" x="41.315" y="18.122" width="6.745" height="1.155"/>
      </g>
    </g>
  </g>
</svg>