<?xml version="1.0" encoding="UTF-8"?>
<svg id="_레이어_2" data-name="레이어 2" xmlns="http://www.w3.org/2000/svg" viewBox="0 0 343.502 139.134">
  <defs>
    <style>
      .cls-1 {
        fill: #221e1f;
        stroke-width: 0px;
      }
    </style>
  </defs>
  <g id="_레이어_1-2" data-name="레이어 1">
    <g>
      <path class="cls-1" d="M97.662,41.906c-1.755-.594-11.029-.701-11.029-.701-3.382,1.864-9.127,4.511-14.597,6.817.083-.355.134-.705.134-1.041,0-1.965-.403-3.33.122-6.271.525-2.941-.888-5.907-1.382-6.522-1.092-1.359-2.39-2.352-3.673-3.081l.119-.138-1.508-2.934c-.188-.366-.575-.559-.958-.518.13-.256.268-.479.4-.668,1.051.047,2.041.218,2.696.617,1.184.719,2.246.351,2.318-.226.054-.433.174-1.044.437-1.449.087-.135.166-.207.255-.319.223-.281.106-.414-.161-.475-.091-.021-.186-.019-.271-.009.33-.098.83-.314.702-.704-.08-.244-.147-.369.118-.911.161-.032.393-.041.715.024.759.154.758-.814.496-2.258-.153-.842-.268-1.36.505-3.168.447-1.047.314-2.776.123-4.047,2.349-.8,1.527-3.655,1.527-3.655-1.299.853-4.354-2.769-10.091-3.083-1.561-.278-3.342-.133-5.157.946-1.496.89-4.055,9.233-3.638,10.899.166.664.232,1.391.288,2.089-.65.828-1.501,1.713-2.583,2.483-.007-.011-.013-.024-.02-.035-.335-.584-1.055-.819-1.671-.546-.693.306-1.529.774-1.844,1.345-.716-.006-1.322.027-1.749.114h0c-1.695-.071-3.511.074-5.368.573-1.084.292-5.204,2.517-7.072,6.343-1.868,3.825-3.48,5.057-5.131,7.318-1.651,2.261-1.688,6.491-3.188,7.89-1.501,1.4.091,4.053.53,5.004.391.846,6.135,2.13,9.419,2.161.205,1.241.413,2.49.611,3.727-1.479,1.386-2.603,3.152-3.216,4.992-6.384-1.607-12.037-3.468-14.272-1.896l3.046,5.115s5.899-3.073,11.011-2.491c0,0,0,0,0,0-1.488,5.8-8.848,15.34-8.848,15.34l-2.216,8.722c2.445-.694,8.977-11.894,13.51-23.441.067.028.134.057.201.088.084.039.167.074.251.11-1.559,3.372-2.922,7.692-3.546,10.11-1.3,5.045-11.389,24.516-14.699,28.268-3.311,3.753-7.441,14.511-7.441,14.511-.083.538-1.098,5.768.041,6.238.048.02.095.037.143.056-.816,1.348-1.617,2.595-2.088,3.123-1.247,1.4-2.86,2.798-3.295,3.2-.957.883-5.232,3.251-6.084,3.992-1.445,1.257-.102,5.007,2.949,5.517,1.708.285,3.573-.176,4.475-1.467.762-1.09,1.383-2.356,2.321-3.308.774-.786,2.048-1.215,3.044-1.768.951-.529,1.597-1.404,1.619-2.226.048-1.775,2.023-4.334,3.914-6.453.704-.181,1.204-.416,1.442-.602.76-.593,4.976-8.497,5.244-8.788.268-.292,1.572-3.074,1.572-3.074,0,0,1.114-1.02,2.575-2.153.786-.609,3.796-3.969,6.812-7.646,1.837-1.744,3.815-3.894,5.529-6.5,3.442-5.231,11.534-12.126,18-16.12,3.597-2.221,10.118-8.455,15.197-13.549.138.249.303.534.499.869-1.509,1.712-3.076,3.164-4.356,3.555-.862.264-1.709,1.194-2.158,2.342-.47,1.202-.778,2.658-1.517,3.696-.895,1.258-1.471,2.871-2.312,4.159-1.235,1.89-.496,4.135-.004,5.836.878,3.038,3.773,2.094,4.19-.034.25-1.276,2.284-4.824,4.669-7.576.447-.517,1.017-1.863,2.349-3.575.729-.937,2.816-3.267,4.556-5.184,1.839-.032,3.68-.215,3.934-.285,0,0,8.087-8.767,11.282-12.346l2.117-1.919s.892-12.435-.862-13.029ZM37.518,62.758c.301-.789.591-1.579.869-2.365.032-.09.066-.178.1-.263.081.559.157,1.113.227,1.658-.157.265-.313.546-.468.839-.236.058-.478.102-.728.131Z"/>
      <path class="cls-1" d="M196.175,135.277c-.987-.144-3.944-1.38-5.98-3.294-.877-.824-1.166-2.414-1.356-3.983,1.211-.785,3.381-2.878,2.581-3.848,0,0-3.595-12.401-4.672-17.131l-.82-6.538s-1.493-5.193-3.176-6.014l.107-.111c-3.923-4.793-7.235-10.207-12.978-19.062,5.052,1.092,8.496,7.136,8.496,7.136l5.831-1.628c-1.528-2.377-7.177-6.755-13.943-7.731-.32-.046-.623-.108-.909-.184.431-.751.652-1.21.652-1.21l-4.257-5.66s-.723-.741-1.453-1.947c-.006-.023-.015-.054-.026-.091,2.376-.885,5.499-2.253,6.377-3.083,1.382-1.306,6.174-3.13,9.112-4.168,1.273-.45,1.895-1.888,1.353-3.125l-.65-1.485c.591.069,1.163.122,1.488.013.723-.241,1.992-2.244,1.965-2.672s-.288-1.024-.252-1.693c.036-.669-.749-.746-.83-.88-.08-.134.544-.406.589-.776.161-1.338-1.047-1.158-.963-1.659.134-.803-.589-1.418-1.07-1.632-.482-.214-2.623.642-3.425,1.231-.462.338-1.524,1.747-2.344,2.883l-.761-.415-3.965,1.915c.651-.445,1.276-.86,1.828-1.22,1.13-.739,1.394-2.283.575-3.356l-.871-1.142c.954-.385,1.745-.719,1.98-.875.656-.434,1.019-1.071,1.173-1.688.154-.617-.05-1.207.077-2.061.127-.854-.863-1.039-.863-1.039,0,0,.114-1.033-.043-1.926-.157-.893-1.646-.252-1.78-.677-.134-.424-.863-1.039-1.552-1.115-.689-.076-2.896,1.621-3.519,2.443-.361.476-1.093,1.821-1.645,2.868l-.713-.19-3.461,2.852c-.189-.251-.39-.502-.603-.752-2.402-4.111-5.922-8.236-5.922-8.236,0,0-.045-.011-.129-.029-.173-.916-.073-1.714.072-2.283.965-.316,1.917-.5,2.646-.363,1.315.246,2.148-.45,2.016-.995-.099-.409-.199-1.002-.1-1.457.033-.152.079-.244.121-.375.106-.33-.046-.41-.308-.374-.09.012-.175.046-.248.085.265-.201.642-.567.394-.876-.156-.193-.259-.283-.204-.863.135-.084.341-.172.654-.223.738-.12.407-.994-.323-2.209-.425-.708-.706-1.137-.625-3.034.047-1.098-.664-2.614-1.271-3.698,1.848-1.525.131-3.823.131-3.823-.882,1.214-4.877-1.014-10.166.66-1.505.282-3.064,1.021-4.334,2.615-1.048,1.315.535,7.16.997,8.753.62,2.14.294,4.073.109,4.855-.141.013-.283.047-.42.107-.724.32-1.6.813-1.893,1.417-3.739.609-6.801,4.34-8.301,9.364-.755,2.529.258,7.078,1.719,12.162.816,4.435,1.874,9.066,2.812,10.725,1.045,1.846,1.3,3.691,1.238,5.401-.989,1.859-2.079,4.23-3.311,7.299-4.388,10.935-5.011,12.438-5.085,12.603.03.012.784.311,1.926.714-.968,2.154-2.011,4.413-3.019,6.573h0c-1.63,3.21-7.453,9.044-10.592,13.108-1.214,1.573-9.559,12.326-9.559,12.326l1.408,4.497s.224.137.595.359c-1.148,2.396-2.487,4.776-4.019,6.531-.523.599.161,1.834.841,2.683.712.889,3.281.44,4.395.599,2.324.333,4.154,2.255,5.672,2.628,2.71.667,5.803-1.73,4.171-2.73-1.521-.932-5-1.418-5.78-4.537-.165-.66-.044-1.376.233-2.109.872.417,1.542.667,1.734.565.861-.456,6.458-7.578,6.776-7.821.318-.243,3.399-3.601,5.054-4.47.871-.458,4.399-4.127,7.972-7.174,2.486-3.411,4.997-7.113,6.104-9.342,1.398-2.814,5.988-8.999,9.542-13.576,1.097,1.12,2.101,2.237,2.843,3.233.579.777,2.256,2.64,4.287,4.795-.671,8.624-.482,15.498.651,16.816l4.2-6.747s-.338-2.386-.667-5.737c1.569,1.584,3.073,3.054,4.241,4.119l5.856,16.496h0c.907,2.773,2.805,8.463,3.091,9.121.061.142,1.152.348,2.603.421.036.145.071.289.104.433.084.007.172.015.262.023.415,2.172.649,4.444.356,6.432-.101.684.979,1.265,1.875,1.566.938.315,2.883-1.001,3.706-.474.997.639,2.255,1.019,3.273,1.616,1.495.875,3.187.225,4.472-.215,2.295-.786,1.463-2.97-.183-3.209Z"/>
      <path class="cls-1" d="M131.75,87.764s-.003-.001-.003-.001c0,0-.016.042.003.001Z"/>
      <path class="cls-1" d="M343.003,2.232l-1.299-1.672c-.407-.523-1.116-.704-1.724-.439l-4.078,1.781-8.461,7.921c-1.109.041-2.037.127-2.198.17,0,0-8.695,7.106-11.409,10.063-2.688,2.928-17.156,11.671-21.136,15.076-4.214,2.245-8.724,4.616-8.724,4.616,0,0-1.087-.071-2.466,1.543.498-1.232.772-2.236.609-2.534-.434-.795-1.457-3.265-3.201-2.943-1.744.321-4.699-1.83-7.119-1.847-2.42-.018-4.105.468-7.722-.204-3.617-.672-7.283,1.043-8.043,1.646-1.303,1.032-2.338,2.219-3.161,3.432h0c-.42.378-.962,1.096-1.543,1.967-.007-.443-.08-.866-.213-1.332-.193-.55-.292-1.129-.415-1.697-.078-.363-.381-.331-.523-.618-.088-.179-.092-.393-.149-.582-.079-.263-.144-.483-.213-.942-.035-.234-.065-.469-.086-.705-.032-.343-.048-.696-.175-1.017l-.023-.065c-.013-.088-.027-.178-.044-.271-.81-4.363-4.961-4.127-6.496-4.158-1.536-.031-3.479.062-6.782,2.595-.597.457-.719,1.236-.722,1.788-.751.642-1.475,1.746-1.242,3.563.032.275.088.548.16.819v.004c.008.024.014.049.021.074.231.881.501,1.759.871,2.593.238.536.795,1.128.7,1.747-.005.03-.008.06-.01.089-.052.677.504,1.248.753,1.839.45,1.066.578,1.156,1.133,1.688.015.014.031.028.046.042.05.063.101.125.155.184.375.415.698.39,1.124.753.411.613,1.188,1.88,1.582,2.318.132.147.272.288.417.423-.014.209-.01.415.019.601-1.426,1.531-2.883,3.217-3.318,4.143-.001.002-.002.005-.003.007-.856,1.057-1.631,2.292-2.198,3.726-.331.838-.87,4.558.7,7.593,1.57,3.035,1.592,4.663,2.258,6.81.666,2.146,3.373,4.195,3.557,5.832.183,1.637,2.654,1.882,3.477,2.054.12.025.318-.039.569-.169h0s.003-.002.003-.002c.689-.358,1.787-1.224,2.864-2.222l5.605-4.349,1.951-3.967,6.492,1.123,6.254.643c.41,1.945.398,4.53-2.403,4.89-9.071,1.165-19.127,4.311-20.021,5.992l6.124-.224s7.407-3.53,11.481-3.688c2.782-.108,5.809-1.856,6.877-4.648.865,1.914,1.218,4.275-.55,6.351-3.744,4.399-7.492,8.128-7.132,10.489l5.073-.383s-.148-7.914,3.835-11.126c2.613-2.108,3.85-4.502,2.752-7.031l1.898.195s.721,3.549.721,4.03c0,.169.359.949.823,1.888.097,1.857.303,3.562.559,4.7.521,2.312.489,7.866.823,13.775.293,5.19,1.022,10.799.53,12.737-1.054,4.144-1.921,10.838-1.921,10.838.147.441-.304,5.814.23,6.721.252.429.578.799.953,1.119-.376,1.673-.801,3.53-1.865,4.327-2.127,1.593-5.052,2.448-6,2.48-1.581.052-2.598,2.027-.513,3.013,1.168.552,2.698,1.346,4.204.677,1.026-.456,2.254-.682,3.265-1.18.647-.319,1.583.305,2.161.547.93.389,2.084.386,2.835-.373.527-.532.373-1.259.427-1.947.061-.792.19-1.578.358-2.354.249-1.15.584-2.277.964-3.39,1.471.023,2.614-.214,2.748-.503.347-.747,1.53-12.956,1.62-13.282.09-.326.871-2.429.871-2.429,0,0,.928-2.305,1.597-3.736.669-1.431,1.857-4.137,2.586-8.519.772-4.638,1.386-10.744,1.829-15.545l.85-1.982s-.106-2.638-.083-5.787h0c.025-.037.023-.065,0-.084.031-3.786.253-8.279,1.074-9.814.898-1.68,1.209-9.398,1.313-15.381,6.161-4.35,10.751-11.946,13.699-14.073,3.381-2.44,9.778-10.089,10.559-11.35.78-1.26,2.076-2.742,2.076-2.742,0,0,2.11-1.274,2.32-1.513.21-.238,4.335-7.986,4.744-8.642.263-.422.116-.806-.49-1.89l1.307-2.202,1.463,1.119c.406.31.935.408,1.425.263l1.532-.454c.656-.194,1.19-.674,1.452-1.306l1.13-2.722,1.622-2.701c.504-.839.44-1.902-.16-2.675Z"/>
    </g>
  </g>
</svg>