<?xml version="1.0" encoding="UTF-8"?>
<svg id="_레이어_2" data-name="레이어 2" xmlns="http://www.w3.org/2000/svg" viewBox="0 0 106.423 74.736">
  <defs>
    <style>
      .cls-1 {
        fill: #231815;
        fill-rule: evenodd;
        stroke-width: 0px;
      }
    </style>
  </defs>
  <g id="_레이어_1-2" data-name="레이어 1">
    <g>
      <path class="cls-1" d="M88.884,74.676h-4.72l.985-4.983h4.486c.558,0,.95.115,1.182.346.228.228.294.578.202,1.046-.052.266-.153.483-.309.653-.15.17-.364.306-.632.398.304.052.509.173.619.364.106.191.124.465.052.826-.093.472-.286.812-.58,1.029-.294.214-.723.321-1.283.321ZM88.957,71.634c.13,0,.234-.038.311-.107.084-.069.136-.17.161-.305.023-.121.009-.22-.048-.298-.058-.075-.145-.113-.26-.113h-2.672l-.162.823h2.67ZM88.717,73.543c.136,0,.245-.038.335-.119.086-.078.144-.193.173-.341.028-.132.011-.239-.049-.318-.061-.078-.154-.118-.284-.118h-2.807l-.176.896h2.808ZM74.613,69.693h1.522l-.584,2.954c-.066.335-.035.563.095.676.13.115.451.173.964.173h.861c.428,0,.725-.06.896-.182.167-.12.283-.343.35-.667l.583-2.954h1.52l-.676,3.425c-.115.586-.355,1.002-.719,1.248-.367.246-.936.37-1.711.37h-1.701c-.913,0-1.516-.119-1.814-.353-.297-.233-.384-.655-.263-1.265l.676-3.425ZM66.618,73.468h3.316l-.238,1.208h-4.838l.985-4.983h1.522l-.748,3.775ZM59.613,71.489l.008-.052c.04-.191.003-.332-.107-.424-.11-.09-.306-.133-.583-.133h-1.22c-.522,0-.869.06-1.042.187-.173.125-.301.387-.378.789l-.136.693c-.072.358-.038.606.101.739.139.132.45.199.939.199h.883c.487,0,.812-.049.983-.144.167-.099.28-.278.332-.54l.012-.055h1.539c0,.008-.002.02-.002.038-.023.144-.041.254-.054.326-.064.318-.154.581-.278.789-.121.207-.281.375-.477.499-.185.121-.419.205-.699.258-.283.052-.684.078-1.208.078h-1.701c-.519,0-.898-.026-1.133-.084-.233-.055-.424-.151-.571-.286-.167-.159-.278-.353-.321-.584-.046-.231-.034-.522.035-.875l.268-1.358c.142-.713.407-1.214.803-1.493.396-.284,1.037-.425,1.926-.425h1.701c.546,0,.944.023,1.194.072.248.049.436.133.563.249.136.12.219.283.251.487.035.202.023.46-.038.77-.014.072-.026.13-.035.167-.008.037-.019.078-.031.112h-1.525ZM44.781,74.676h-1.522l.745-3.762h-2.083l.239-1.221h5.688l-.24,1.221h-2.085l-.742,3.762ZM36.155,69.693c.792,0,1.303.118,1.543.352.239.234.297.662.176,1.282-.087.431-.214.749-.381.959-.167.207-.411.349-.723.422.252.064.428.173.526.332.101.159.127.361.075.615l-.199,1.021h-1.522l.15-.76c.038-.197.021-.332-.057-.404-.079-.075-.255-.11-.526-.11h-2.27l-.252,1.275h-1.528l.985-4.983h4.003ZM35.855,70.934h-2.421l-.24,1.219h2.418c.202,0,.355-.048.453-.144.101-.093.176-.266.226-.511.037-.197.023-.34-.047-.431-.069-.089-.199-.133-.39-.133ZM23.276,73.488h.968c.537,0,.906-.067,1.108-.202.205-.132.341-.384.413-.748l.142-.708c.072-.365.031-.616-.119-.748-.147-.136-.494-.202-1.031-.202h-.973c-.55,0-.922.066-1.122.202-.197.136-.332.395-.407.776l-.136.691c-.072.361-.032.606.121.739.153.132.497.199,1.035.199ZM22.617,74.736c-.584,0-1.002-.026-1.262-.078-.26-.053-.462-.145-.606-.269-.162-.145-.263-.332-.303-.563-.038-.231-.02-.537.054-.918l.269-1.358c.081-.416.191-.749.324-.991.133-.243.309-.436.529-.577.191-.127.433-.217.719-.269.289-.054.717-.08,1.28-.08h1.79c.566,0,.985.026,1.254.08.269.053.473.142.615.269.156.139.255.332.292.575.038.243.02.555-.054.936l-.274,1.386c-.078.384-.182.697-.315.936-.134.24-.307.43-.52.575-.191.125-.431.217-.717.269-.283.052-.713.078-1.288.078h-1.785ZM15.055,69.693c.338,0,.606.018.804.048.197.032.355.087.48.16.227.132.372.326.432.586.064.263.048.622-.04,1.077-.136.682-.347,1.164-.63,1.447-.284.28-.693.422-1.237.422h-2.841l-.246,1.243h-1.528l.985-4.983h3.821ZM14.758,70.934h-2.242l-.248,1.26h2.241c.202,0,.352-.049.454-.148.1-.1.178-.277.227-.53.04-.202.026-.35-.044-.442-.069-.094-.199-.14-.39-.14ZM.142,73.017l1.502-.006-.018.093c-.037.187-.018.315.062.381.078.066.265.101.557.101h1.909c.188,0,.327-.032.422-.099.092-.06.153-.167.182-.315.028-.148.006-.258-.075-.321-.081-.064-.271-.107-.572-.13l-2.376-.054c-.596-.018-.977-.13-1.144-.341-.171-.211-.199-.592-.09-1.147.055-.284.13-.52.223-.705.093-.184.211-.338.358-.462.173-.139.381-.238.627-.294.245-.059.632-.087,1.161-.087h2.322c.575,0,.968.104,1.182.315.211.208.271.549.178,1.02-.005.031-.013.066-.023.1-.008.038-.023.095-.047.173h-1.464l.003-.019c.031-.166.013-.287-.052-.371-.069-.081-.186-.125-.353-.125h-1.753c-.291,0-.491.029-.595.087-.108.06-.173.162-.203.306-.025.142-.005.246.067.309.072.064.219.104.445.121l2.493.04c.569.014.944.145,1.13.385.187.243.222.652.106,1.235-.069.345-.165.613-.289.803-.121.188-.298.353-.529.486-.151.083-.344.144-.58.182-.237.038-.573.055-1.008.055H1.873c-.83,0-1.369-.093-1.612-.28-.247-.188-.318-.534-.217-1.043.005-.028.017-.078.034-.147.018-.066.038-.151.064-.248Z"/>
      <path class="cls-1" d="M91.178,64.869h-9.679l-11.051-15.746-1.924,15.746h-6.609l2.646-21.643h9.783l10.961,15.872,1.941-15.872h6.577l-2.646,21.643ZM39.743,44.144l-1.455,11.912c-.179,1.465.031,2.447.637,2.941.604.502,2.017.75,4.243.75h3.753c1.854,0,3.128-.263,3.823-.794.693-.526,1.123-1.494,1.297-2.897l1.568-12.83h6.61l-1.82,14.878c-.312,2.551-1.219,4.361-2.718,5.43-1.505,1.066-3.937,1.601-7.311,1.601h-7.382c-3.972,0-6.638-.512-8.002-1.528-1.363-1.017-1.882-2.851-1.559-5.503l1.574-12.873c1.531-.2,3.062-.451,4.57-.709.724-.121,1.446-.248,2.171-.378ZM27.467,45.233c.783,1.077,1.031,2.773.748,5.087-.228,1.872-.676,3.261-1.337,4.174-.662.907-1.664,1.516-2.998,1.831,1.109.272,1.909.749,2.394,1.439.485.69.664,1.577.532,2.674l-.544,4.432h-6.611l.402-3.302c.104-.852-.023-1.439-.385-1.756-.364-.32-1.138-.479-2.319-.479H7.496l-.678,5.537H.18l2.646-21.643h13.738c.346.078.689.153,1.033.228,2.511.545,5.043,1.022,7.579,1.427.737.115,1.512.243,2.291.352ZM19.317,48.613h-10.511l-.647,5.301h10.508c.878,0,1.526-.207,1.927-.622.404-.412.673-1.155.805-2.232.104-.852-.009-1.473-.338-1.866-.33-.387-.913-.581-1.744-.581Z"/>
      <path class="cls-1" d="M5.518,35.147c.002-.285.025-.549.069-.765.526-2.814,2.14-5.047,4.581-6.525.006.046.008.095.008.144-.002.223-.084.459-.269.67l-.549.629c-.173.202-.294.427-.335.665-.033.176-.02.349.04.517.058.162.159.309.306.439.206.179.511.321.942.393,4.413.768,7.533.933,10.516.453,2.953-.473,5.737-1.571,9.495-3.33.375-.012,4.037-.026,3.021.731-.806.592-1.854,1.216-2.993,1.771-1.049.514-2.178.967-3.267,1.285-2.88.835.936,3.552,1.918,4.148.202.121.404.239.61.356-7.187.632-14.977.144-24.095-1.581ZM38.734,18.105c-4.165,1.718-8.705,3.844-10.969,7.276,3.766-3.174,7.316-4.792,11.877-6.395l.699.681,3.431,1-2.475,3.529c-.33.471-1.511,2.202-2.207,2.216.576.3,2.43-.48,3.173-1.54l2.896-4.13,5.5-1.077,6.491,2.782c-.494.239-.904.662-1.189,1.152-.295.505-.463,1.098-.459,1.649l.013,3.905c-6.594,3.172-12.879,5.433-19.5,6.69-1.367.257-2.75.473-4.151.647-.777-.341-1.525-.724-2.237-1.155-.152-.093-2.872-1.753-2.203-1.947,1.15-.335,2.345-.817,3.458-1.36,1.208-.59,2.319-1.253,3.18-1.883.797-.583,1.181-1.051,1.179-1.496-.009-1.392-4.212-1.456-5.202-1.413-2.99,1.404-6.115,2.811-9.4,3.336-2.841.456-5.844.295-10.114-.448-.425-.072.032-.352.297-.658.393-.451.563-.962.57-1.45.002-.265-.044-.522-.131-.765,6.416-3.183,11.47-2.282,17.541-.592-2.175-1.173-4.442-1.99-6.802-2.469,1.982-1.774,2.057-2.326,4.078.124.203.246.579.274.838.066.26-.208.307-.575.104-.821-.606-.734-1.293-1.338-2.068-1.794,1.528-1.144,1.742-.719,3.114.942.202.242.578.274.837.066.257-.208.306-.578.105-.82-.566-.685-1.199-1.251-1.906-1.696,1.487-.97,1.681-.568,2.959.979.203.243.575.275.836.067.26-.207.306-.578.104-.82-.509-.618-1.074-1.141-1.701-1.562,1.335-.757,1.751-.177,2.787,1.077.203.246.576.274.836.066.26-.208.306-.575.104-.821-.471-.569-.988-1.06-1.559-1.461,1.36-.662,1.588-.301,2.645.98.202.245.575.274.836.066.26-.209.305-.576.104-.821-.39-.476-.818-.896-1.28-1.257,3.189-1.303,2.499-1.04,4.964,1.355ZM5.873,37.123c-.095-.228-.167-.471-.223-.72,11.874,2.216,21.54,2.343,30.586.627,9.306-1.762,17.928-5.47,27.617-10.855,1.554-.866,1.938-.739,3.087-.358.405.132.884.291,1.465.447l.147.038,9.763-2.473c.517-.13,1.008-.358,1.435-.665.187-.139.367-.292.529-.459.557.846.751,1.533.708,2.197-.049.757-.395,1.555-.861,2.534l-13.085,2.611-8.905,8.856c-4.042.679-8.079,1.441-11.872,2.157-6.461,1.22-12.209,2.303-15.999,2.611-.903-.043-2.857-.291-5.289-.69l18.579-3.611-28.778,1.534c-4.52-1.133-8.37-2.481-8.905-3.783ZM106.423,32.154l-32.671-1.266,8.097-.65-1.569-1.597-12.64,2.524-7.444,7.4c1.046-.167,2.088-.329,3.123-.479l-1.118,1.271,31.122-.743-27.154-1.788,33.351-1.221-29.873-2.233,36.776-1.219ZM92.027,11.857l-18.108-.927,2.678-.635-.985-.472-2.703.919c-.372.127-.734.381-1.014.704-.271.309-.465.676-.522,1.04l-.416,2.616c-.102.636-.373,1.281-.766,1.826-.381.537-.881.991-1.453,1.265l-10.072,4.864-.014.032-.026-.011-.948.456c-.266.127-.497.376-.667.67l-.002.003c-.188.323-.298.699-.294,1.037l.013,3.317c2.135-1.058,4.308-2.207,6.54-3.446,2.019-1.124,2.528-.954,4.055-.448.335.11.73.24,1.248.385l9.448-2.395c.364-.092.716-.256,1.022-.476.278-.202.515-.445.684-.725-.109-.797-.239-1.579-.392-2.345l15.35-.97-22.181-1.453,6.171-.37c-.056-.202-.11-.402-.168-.603l-.005-.021,14.503-.915-18.867-1.173,3.547-.459-.131-.376,14.478-.913ZM89.725,6.634l-19.578-1.27,3.634-.503c-.08-.263-.236-.567-.439-.775-.1-.104-.202-.173-.285-.167l-2.143.13-.266.05c-.982.178-1.263.227-1.606,1.533-.272,1.029-.703,1.984-1.271,2.851-1.412,2.157-3.668,3.789-6.395,4.659-2.695.861-5.854.976-9.104.118-1.959-.516-3.946-1.383-5.878-2.648-1.245-.814-1.984-1.288-2.577-1.354-.534-.061-1.092.237-2.028.953l-3.599,2.764c-.412.314-.689.652-.869.993-.141.272-.22.55-.255.827l3.911,3.798,3.557,1.035,6.255-1.225,7.808,3.345,9.616-4.644c.384-.185.725-.497.994-.873.283-.399.482-.864.555-1.317l.416-2.617c.095-.595.392-1.17.805-1.644.422-.482.965-.867,1.537-1.061l2.443-.829-.355-1.176,15.118-.953ZM39.945,10.101c.696-1.436,1.507-2.827,2.443-4.179,1.383-1.997,3.042-3.912,4.985-5.736.428-.402,1.21-.114,2.043.501.831.618,1.678,1.555,2.336,2.537.644.956,1.101,1.941,1.176,2.686.044.422-.058.736-.361.841-1.138.387-2.135.904-2.949,1.591-.624.525-1.138,1.153-1.521,1.895-.346-.202-.697-.413-1.041-.641-1.053-.687-1.79-1.162-2.461-1.395l2.634-3.46c.786-1.032.965-3.033.506-3.49.197.667-1.092,2.317-1.441,2.776l-3.082,4.05c-.638.124-1.287.505-2.157,1.173l-1.109.851Z"/>
    </g>
  </g>
</svg>