<?xml version="1.0" encoding="UTF-8"?>
<svg id="_레이어_2" data-name="레이어 2" xmlns="http://www.w3.org/2000/svg" viewBox="0 0 114.456 34.933">
  <defs>
    <style>
      .cls-1 {
        fill: #fff;
      }

      .cls-1, .cls-2 {
        stroke-width: 0px;
      }

      .cls-2 {
        fill: #15282c;
      }
    </style>
  </defs>
  <g id="_레이어_1-2" data-name="레이어 1">
    <g>
      <g>
        <g>
          <path class="cls-1" d="M103.355.65c.012,0,.026-.009.038-.009,1.292,0,2.449,2.248,3.234,5.796h4.351c.008,0,.017-.005.026-.005,1.551,0,2.809,4.939,2.809,11.033s-1.258,11.034-2.809,11.034c-.012,0-.022-.004-.031-.006h-4.346c-.786,3.549-1.943,5.797-3.235,5.797-.016,0-.032-.008-.046-.009h-17.746V.65h17.754Z"/>
          <path class="cls-2" d="M80.534,17.465c0,9.293,1.919,16.825,4.286,16.825s4.287-7.532,4.287-16.825-1.919-16.824-4.287-16.824-4.286,7.534-4.286,16.824Z"/>
        </g>
        <path class="cls-2" d="M79.891,17.465c0,8.681,1.694,17.467,4.928,17.467.049,0,.095-.003.143-.006h18.43c1.669,0,2.925-2.333,3.753-5.786h3.859c2.371,0,3.451-6.051,3.451-11.675s-1.08-11.674-3.451-11.674h-3.859c-.827-3.453-2.084-5.791-3.753-5.791h-18.574c-3.235,0-4.928,8.787-4.928,17.465ZM107.425,27.852c.592-3.035.896-6.718.896-10.386,0-2.402-.132-4.81-.389-7.041h3.372c-.246-1.063-.519-1.799-.744-2.167h-2.924c-.066-.403-.137-.796-.211-1.179h3.617c.666.132,2.129,3.661,2.129,10.387s-1.462,10.255-2.129,10.386h-3.617ZM96.332,33.64c1.937-2.753,2.941-9.493,2.941-16.174,0-4.456-.449-8.933-1.323-12.242h6.499c-.436-1.49-.895-2.42-1.25-2.752h-6.202c-.208-.448-.43-.846-.667-1.181h7.134c1.515.188,3.571,6.305,3.571,16.175s-2.073,16.042-3.59,16.18l-.066-.006h-7.048ZM86.807,33.642c1.937-2.753,2.941-9.496,2.941-16.177,0-4.456-.45-8.933-1.322-12.242h6.976c-.437-1.49-.897-2.42-1.251-2.752h-6.679c-.209-.448-.429-.846-.666-1.181h7.611c1.515.188,3.572,6.305,3.572,16.174s-2.075,16.039-3.592,16.177h-7.591ZM81.177,17.465c0-10.024,2.122-16.181,3.642-16.181s3.643,6.156,3.643,16.181-2.122,16.183-3.643,16.183-3.642-6.157-3.642-16.183Z"/>
        <path class="cls-1" d="M81.514,17.465c0-2.945.511-7.929,2.426-7.929s2.427,4.984,2.427,7.929-.511,7.931-2.427,7.931-2.426-4.985-2.426-7.931Z"/>
      </g>
      <g>
        <g>
          <path class="cls-1" d="M11.102.65c-.013,0-.026-.009-.039-.009-1.291,0-2.449,2.247-3.233,5.795H3.478c-.009,0-.018-.004-.026-.004-1.552,0-2.809,4.938-2.809,11.033s1.257,11.033,2.809,11.033c.013,0,.022-.004.031-.006h4.345c.786,3.55,1.944,5.797,3.235,5.797.017,0,.032-.007.046-.008h17.747V.65H11.102Z"/>
          <path class="cls-2" d="M33.922,17.465c0,9.293-1.919,16.824-4.286,16.824s-4.285-7.531-4.285-16.824S27.27.642,29.636.642s4.286,7.533,4.286,16.824Z"/>
        </g>
        <path class="cls-2" d="M29.636,0H11.062c-1.668,0-2.925,2.338-3.752,5.791h-3.858c-2.371,0-3.452,6.051-3.452,11.674s1.08,11.675,3.452,11.675h3.858c.827,3.453,2.084,5.787,3.752,5.787h18.435c.047.005.091.005.139.005,3.235,0,4.928-8.788,4.928-17.467S32.871,0,29.636,0ZM3.483,27.851h-.068c-.668-.132-2.129-3.662-2.129-10.385S2.748,7.21,3.415,7.079h3.617c-.075.383-.145.776-.211,1.179h-2.924c-.226.367-.498,1.103-.745,2.166h3.372c-.257,2.231-.389,4.638-.389,7.041,0,3.667.304,7.351.896,10.385h-3.548ZM11.077,33.64l-.066.006c-1.518-.138-3.59-6.267-3.59-16.18S9.476,1.479,10.99,1.291h7.135c-.236.335-.459.734-.666,1.181h-6.201c-.354.332-.814,1.262-1.25,2.752h6.498c-.872,3.309-1.322,7.785-1.322,12.242,0,6.681,1.003,13.421,2.94,16.174h-7.047ZM20.126,33.64l-.068.006c-1.516-.138-3.59-6.267-3.59-16.18S18.524,1.479,20.039,1.291h7.61c-.235.335-.458.734-.666,1.181h-6.678c-.354.332-.814,1.261-1.251,2.752h6.976c-.873,3.309-1.323,7.785-1.323,12.242,0,6.681,1.004,13.421,2.941,16.174h-7.523ZM29.636,33.647c-1.521,0-3.642-6.155-3.642-16.182S28.115,1.285,29.636,1.285s3.643,6.156,3.643,16.181-2.122,16.182-3.643,16.182Z"/>
        <path class="cls-1" d="M30.515,25.396c-1.915,0-2.426-4.985-2.426-7.931s.511-7.93,2.426-7.93,2.427,4.984,2.427,7.93-.512,7.931-2.427,7.931Z"/>
      </g>
      <g>
        <g>
          <path class="cls-2" d="M83.727,12.33H30.328c-.283.184-.9,2.079-.9,5.135s.617,4.938.961,5.137h53.356c.347-.256.942-2.137.942-5.137,0-3.056-.616-4.937-.96-5.135Z"/>
          <path class="cls-1" d="M83.787,11.244H30.328c-1.935,0-1.991,5.585-1.991,6.221s.056,6.222,1.991,6.222h53.459c1.936,0,1.992-5.584,1.992-6.222s-.056-6.221-1.992-6.221ZM30.39,22.603c-.345-.199-.961-2.081-.961-5.137s.617-4.951.9-5.135h53.399c.344.199.96,2.079.96,5.135,0,3-.595,4.882-.942,5.137H30.39Z"/>
        </g>
        <path class="cls-1" d="M83.362,12.884H30.651c-.137.264-.305.794-.438,1.557h53.586c-.133-.762-.3-1.293-.437-1.557Z"/>
      </g>
    </g>
  </g>
</svg>