<?xml version="1.0" encoding="UTF-8"?>
<svg id="_레이어_2" data-name="레이어 2" xmlns="http://www.w3.org/2000/svg" viewBox="0 0 122.756 49.915">
  <defs>
    <style>
      .cls-1 {
        fill: #15282c;
        stroke-width: 0px;
      }
    </style>
  </defs>
  <g id="_레이어_1-2" data-name="레이어 1">
    <g>
      <path class="cls-1" d="M96.905,3.247h-.356c4.546,13.648,3.403,33.663-2.252,41.513,0,0-.369.204-1.483.23l-.748,1.678h4.841c1.426-1.054,3.856-8.971,3.856-21.71s-2.43-20.659-3.858-21.712Z"/>
      <path class="cls-1" d="M106.965,6.659h-.301c3.834,11.503,2.871,28.373-1.897,34.988,0,0-.592.096-1.53.117l-.351,1.492h4.08c1.201-.89,3.25-7.561,3.25-18.299s-2.051-17.411-3.251-18.299Z"/>
      <path class="cls-1" d="M114.163,11.059h-.231c2.931,8.797,2.942,21.7-.703,26.76,0,0-.237.131-.955.149l-.482,1.083h2.373c.915-.679,2.481-5.783,2.481-13.994s-1.566-13.317-2.483-13.996Z"/>
      <path class="cls-1" d="M120.477,18.472h-1.43c-.558-5.303-1.901-10.528-4.657-10.528h-3.471c-.918-2.641-2.182-4.437-3.898-4.437h-6.166c-1.007-2.185-2.26-3.507-3.781-3.507h-9.631c-.023.018-.041.034-.064.05-2.785.642-5.046,9.691-5.434,21.333h-41.132c-.389-11.642-2.65-20.691-5.434-21.333-.02-.016-.042-.032-.064-.05h-9.631c-1.52,0-2.774,1.323-3.781,3.507h-6.164c-1.718,0-2.983,1.796-3.901,4.437h-3.467c-2.758,0-4.099,5.224-4.66,10.528h-1.43c-1.982,0-2.279,3.672-2.279,5.863s.297,5.859,2.279,5.859h1.311c.476,5.699,1.805,11.777,4.779,11.777h3.467c.921,2.641,2.183,4.437,3.901,4.437h6.164c1.004,2.185,2.261,3.506,3.781,3.506h9.913c.117-.091.22-.188.33-.283,2.432-1.552,4.372-9.572,4.84-19.852h41.229c.472,10.277,2.405,18.3,4.837,19.852.108.095.213.191.328.283h9.915c1.521,0,2.775-1.322,3.78-3.506h6.164c1.718,0,2.982-1.796,3.9-4.437h3.47c2.972,0,4.304-6.078,4.777-11.777h1.311c1.984,0,2.279-3.672,2.279-5.859s-.295-5.863-2.279-5.863ZM3.444,27.948h-.735c-.201-.525-.463-1.8-.463-3.613s.262-3.092.463-3.616h.807c-.099,1.508-.145,2.962-.145,4.24,0,.919.023,1.932.073,2.989ZM8.405,39.728c-.971-.348-2.787-5.726-2.787-14.769s1.816-14.426,2.751-14.768h2.814c-1.137,4.642-1.522,10.696-1.522,14.768s.385,10.128,1.522,14.769h-2.778ZM87.56,17.797c1.138,0,2.06,3.485,2.06,7.785s-.922,7.786-2.06,7.786c-.73,0-1.366-1.432-1.73-3.587h1.7c.262-.369.697-1.856.697-4.199s-.435-3.829-.697-4.199h-1.7c.366-2.154,1.001-3.586,1.73-3.586ZM35.979,24.253c.052-.62.133-1.135.217-1.496h50.333c.085.361.162.876.214,1.496h-50.764ZM83.973,19.505c-.013.618-.02,1.248-.022,1.877h-.065c.027-.633.052-1.266.087-1.877ZM38.874,21.383h-.069c-.002-.63-.008-1.26-.021-1.877.038.613.064,1.241.09,1.877ZM35.197,17.797c.729,0,1.366,1.431,1.732,3.586h-1.687c-.263.368-.696,1.856-.696,4.199s.432,3.83.696,4.199h1.687c-.363,2.156-1.003,3.587-1.732,3.587-1.138,0-2.061-3.487-2.061-7.786s.923-7.785,2.061-7.785ZM15.737,44.162c-1.146,0-3.831-6.534-3.831-19.203s2.685-19.205,3.831-19.205h5.308c-1.559,4.886-2.299,12.198-2.299,19.205s.739,14.317,2.299,19.203h-5.308ZM32.657,47.668h-6.974c-1.593,0-4.687-8.015-4.687-22.709S24.09,2.246,25.683,2.246h6.976c-2.007,3.928-3.407,12.616-3.407,22.715s1.396,18.78,3.404,22.707ZM35.07,46.891c-.882,0-1.695-1.581-2.347-4.242.463.748.96,1.161,1.475,1.161,1.957,0,3.62-5.822,4.292-14.029h.41c-.339,9.74-1.924,17.11-3.829,17.11ZM87.689,46.891c-1.906,0-3.49-7.371-3.829-17.11h.411c.669,8.206,2.336,14.029,4.289,14.029.516,0,1.013-.413,1.475-1.161-.651,2.661-1.465,4.242-2.345,4.242ZM97.075,47.668h-6.973c2.007-3.928,3.406-12.615,3.406-22.707s-1.399-18.787-3.409-22.715h6.977c1.59,0,4.687,8.017,4.687,22.712s-3.098,22.709-4.688,22.709ZM107.021,44.162h-5.308c1.555-4.886,2.296-12.198,2.296-19.203s-.741-14.318-2.3-19.205h5.309c1.146,0,3.83,6.533,3.83,19.205s-2.685,19.203-3.828,19.203ZM114.35,39.728h-2.776c1.137-4.642,1.523-10.7,1.523-14.769s-.382-10.126-1.523-14.768h2.815c.935.342,2.749,5.721,2.749,14.768s-1.813,14.422-2.788,14.769ZM120.047,27.948h-.734c.049-1.058.076-2.07.076-2.989,0-1.277-.046-2.731-.148-4.24h.806c.201.524.464,1.8.464,3.616s-.263,3.088-.464,3.613Z"/>
      <path class="cls-1" d="M26.212,3.247h-.36c-1.424,1.053-3.856,8.97-3.856,21.712s2.43,20.656,3.854,21.71h4.842l-.749-1.678c-1.113-.026-1.483-.23-1.483-.23-5.655-7.85-6.798-27.865-2.248-41.513Z"/>
      <path class="cls-1" d="M16.094,6.659h-.302c-1.2.888-3.25,7.56-3.25,18.299s2.05,17.409,3.249,18.299h4.083l-.354-1.492c-.938-.021-1.527-.117-1.527-.117-4.768-6.615-5.731-23.485-1.898-34.988Z"/>
      <path class="cls-1" d="M8.825,11.059h-.231c-.917.679-2.484,5.781-2.484,13.996s1.567,13.315,2.484,13.994h2.371l-.481-1.083c-.717-.018-.954-.149-.954-.149-3.648-5.06-3.636-17.963-.704-26.76Z"/>
    </g>
  </g>
</svg>