<?xml version="1.0" encoding="UTF-8"?>
<svg id="_레이어_2" data-name="레이어 2" xmlns="http://www.w3.org/2000/svg" viewBox="0 0 112.91 82.132">
  <defs>
    <style>
      .cls-1 {
        fill: #131514;
        fill-rule: evenodd;
        stroke-width: 0px;
      }
    </style>
  </defs>
  <g id="_레이어_1-2" data-name="레이어 1">
    <g>
      <path class="cls-1" d="M39.551,60.221c-5.397-.798-9.299-2.818-11.969-5.52-2.506-2.535-3.957-5.689-4.561-8.998-.617-3.379-.361-6.926.553-10.162,1.349-4.777,4.095-8.796,7.52-10.452,2.068-1.001,4.283-1.371,6.603-.548,2.524.895,5.265,3.162,8.228,7.45,1.049,1.518,1.272,3.219.896,4.862-.364,1.595-1.274,3.156-2.545,4.491-1.307,1.373-2.976,2.488-4.815,3.147-2.543.912-5.424.942-8.113-.456-1.008-.524-2.251-.132-2.775.877-.524,1.008-.132,2.251.877,2.775,1.002.521,2.022.902,3.047,1.157h-.004c.992,3.93,3.042,7.45,5.826,10.234.396.396.807.778,1.232,1.143h0ZM36.891,49.206c.899,2.646,2.401,5.022,4.339,6.96,3.261,3.262,7.758,5.286,12.703,5.286h10.46c4.945,0,9.442-2.024,12.703-5.286,3.262-3.262,5.286-7.759,5.286-12.703v-15.07c-2.048,2.282-4.465,4.152-7.125,5.619l.002.003c-4.777,2.632-10.34,3.943-15.927,3.983-2.817.02-5.64-.284-8.372-.906-.038.226-.082.452-.133.677-.531,2.326-1.809,4.55-3.575,6.405-1.729,1.816-3.949,3.296-6.407,4.177-1.267.454-2.596.751-3.954.855h0ZM50.773,32.803c2.764.747,5.657,1.114,8.542,1.094,4.856-.034,9.686-1.171,13.826-3.452h.008c4.73-2.836,5.82-4.434,9.23-8.683-.092-4.808-2.097-9.172-5.282-12.357-3.261-3.262-7.758-5.286-12.703-5.286h-10.46c-4.945,0-9.441,2.025-12.703,5.286-2.793,2.793-4.679,6.492-5.163,10.602.977.083,1.976.295,2.997.657,3.298,1.169,6.733,3.92,10.239,8.994.7,1.013,1.181,2.069,1.47,3.146h0ZM31.885,20.407c-.881.242-1.736.575-2.577.982-4.504,2.178-8.038,7.186-9.691,13.042-1.071,3.793-1.367,7.978-.634,11.996.746,4.088,2.55,7.997,5.671,11.154,3.842,3.887,9.638,6.605,17.85,7.053v10.646c0,1.887.77,3.6,2.011,4.842,1.241,1.241,2.955,2.011,4.842,2.011h19.613c1.887,0,3.601-.771,4.842-2.011,1.241-1.241,2.012-2.955,2.012-4.842v-12.912c-.142.086-.284.17-.427.253,1.69-.977,3.241-2.171,4.613-3.543,4.006-4.006,6.492-9.533,6.492-15.615v-21.355c0-6.082-2.487-11.609-6.492-15.615-4.006-4.006-9.533-6.492-15.615-6.492h-10.46c-6.081,0-11.609,2.487-15.615,6.492-3.629,3.629-6.018,8.507-6.434,13.915h0ZM43.717,64.682c.126.003.252.006.378.009-.127-.002-.253-.005-.378-.009h0ZM55.264,66.013h7.845c3.149,0,6.143-.757,8.837-2.11v8.643c0,1.468-.554,2.805-1.445,3.775-.891.97-2.12,1.573-3.469,1.573h-15.69c-1.349,0-2.577-.603-3.469-1.573-.891-.97-1.445-2.307-1.445-3.775v-8.514c.091.032.18.066.272.097l.023-.08c2.617,1.262,5.508,1.964,8.542,1.964Z"/>
      <polygon class="cls-1" points="107.592 37.083 108.842 40.955 112.91 40.947 109.615 43.332 110.879 47.198 107.592 44.801 104.306 47.198 105.57 43.332 102.274 40.947 106.343 40.955 107.592 37.083"/>
      <polygon class="cls-1" points="104.678 21.459 105.647 24.462 108.803 24.456 106.246 26.306 107.228 29.305 104.678 27.446 102.128 29.305 103.109 26.306 100.553 24.456 103.709 24.462 104.678 21.459"/>
      <polygon class="cls-1" points="104.678 54.976 105.647 57.979 108.803 57.973 106.246 59.823 107.228 62.823 104.678 60.963 102.128 62.823 103.109 59.823 100.553 57.973 103.709 57.979 104.678 54.976"/>
      <polygon class="cls-1" points="5.318 37.083 4.068 40.955 0 40.947 3.296 43.332 2.031 47.198 5.318 44.801 8.605 47.198 7.34 43.332 10.636 40.947 6.568 40.955 5.318 37.083"/>
      <polygon class="cls-1" points="8.233 21.459 7.263 24.462 4.107 24.456 6.664 26.306 5.683 29.305 8.233 27.446 10.782 29.305 9.801 26.306 12.358 24.456 9.202 24.462 8.233 21.459"/>
      <polygon class="cls-1" points="8.233 54.976 7.263 57.979 4.107 57.973 6.664 59.823 5.683 62.823 8.233 60.963 10.782 62.823 9.801 59.823 12.358 57.973 9.202 57.979 8.233 54.976"/>
    </g>
  </g>
</svg>