<?xml version="1.0" encoding="UTF-8"?>
<svg id="_레이어_2" data-name="레이어 2" xmlns="http://www.w3.org/2000/svg" viewBox="0 0 81.899 68.906">
  <defs>
    <style>
      .cls-1 {
        fill: #131514;
        fill-rule: evenodd;
        stroke-width: 0px;
      }
    </style>
  </defs>
  <g id="_레이어_1-2" data-name="레이어 1">
    <g>
      <path class="cls-1" d="M16.942,1.462h48.015c3.972-1.788,8.481-2.271,12.218.477,2.116,1.556,3.569,3.902,4.263,6.67.758,3.017.531,6.26-.311,9.22l-.036.126v.009c-1.393,4.784-4.373,8.895-7.708,12.082-3.415,3.263-7.418,5.809-11.585,7.79-.407.482-.833.946-1.279,1.391-3.175,3.175-7.304,5.396-11.907,6.184l5.245,9.233h10.169v14.262H18.171v-14.262h10.169l5.245-9.233c-4.603-.788-8.732-3.009-11.907-6.184-.373-.373-.733-.759-1.079-1.158-4.345-2.014-8.532-4.631-12.082-8.024-3.335-3.187-6.315-7.298-7.708-12.082v-.009l-.036-.126C-.07,14.868-.296,11.626.461,8.609,1.156,5.841,2.609,3.495,4.724,1.939c3.737-2.747,8.246-2.264,12.218-.477h0ZM67.019,4.609v18.986c0,2.847-.545,5.572-1.534,8.077,1.933-1.21,3.775-2.58,5.463-4.132,2.896-2.662,5.561-6.1,6.904-10.136l.02.007.223-.784c.632-2.225.839-4.67.269-6.943-.471-1.874-1.454-3.481-2.888-4.535-2.533-1.862-5.641-1.613-8.457-.541h0ZM63.781,4.745l-.021-.045H18.415v18.895c0,5.194,2.126,9.918,5.552,13.343s8.149,5.552,13.343,5.552h7.577c5.194,0,9.918-2.126,13.343-5.552,3.425-3.425,5.552-8.149,5.552-13.343V4.745h0ZM16.81,31.918c-1.052-2.572-1.633-5.383-1.633-8.323V4.726c-2.894-1.17-6.132-1.505-8.755.423-1.434,1.054-2.417,2.661-2.888,4.535-.571,2.273-.363,4.718.269,6.943l.223.784.02-.007c1.343,4.036,4.008,7.474,6.904,10.136,1.803,1.657,3.782,3.108,5.859,4.377h0ZM60.788,57.882H21.409v7.786h39.379v-7.786h0ZM36.846,46.208l-4.771,8.399h18.047l-4.771-8.399h-8.505Z"/>
      <polygon class="cls-1" points="40.949 10.649 43.35 18.087 51.165 18.072 44.834 22.653 47.263 30.081 40.949 25.476 34.635 30.081 37.065 22.653 30.733 18.072 38.548 18.087 40.949 10.649"/>
    </g>
  </g>
</svg>