<?xml version="1.0" encoding="UTF-8"?>
<svg id="_레이어_2" data-name="레이어 2" xmlns="http://www.w3.org/2000/svg" viewBox="0 0 98.975 80.273">
  <defs>
    <style>
      .cls-1 {
        fill: #3e3a39;
      }

      .cls-1, .cls-2 {
        stroke-width: 0px;
      }
    </style>
  </defs>
  <g id="_레이어_1-2" data-name="레이어 1">
    <g>
      <g>
        <path class="cls-1" d="M94.818,74.202c-25.602,2.765-68.453,5.126-73.303-4.435-1.523,12.818,44.614,11.531,73.303,8.432,3.389-.366,4.471-4.955,4.081-10.565-.303,3.658-1.546,6.294-4.081,6.568Z"/>
        <path class="cls-2" d="M88.228,44.332c-7.551-2.221-1.151,11.202-10.438,10.327-4.102-.387-4.003-3.479-3.59-6.601.261-1.972.646-3.956.178-5.279-.175-.494-.469-.896-.934-1.17-4.797-2.825-8.064,3.977-15.24,10.191l3.266,4.476c.352.483.247,1.16-.236,1.513-.483.352-1.161.246-1.513-.237l-3.191-4.375c-.643.501-1.316.992-2.021,1.469l3.194,4.378c.353.483.246,1.16-.237,1.513-.483.352-1.16.246-1.513-.237l-3.279-4.495c-.709.417-1.448.818-2.22,1.196l3.481,4.772c.352.483.246,1.16-.237,1.513-.483.352-1.16.246-1.513-.237l-3.752-5.143c-1.653.675-3.442,1.249-5.392,1.683-5.214,1.16-15.744,2.284-20.001,6.307-.628.593-2.214,2.449.395,4.343,9.707,7.048,47.119,4.834,70.235,2.298,2.495-.274,3.993-2.899,4.017-6.568.058-8.883-4.834-20.277-9.458-21.637Z"/>
      </g>
      <g>
        <path class="cls-1" d="M56.618,17.06C40.476,37.124,11.854,69.102,1.663,65.773c7.989,10.139,39.694-23.404,57.782-45.886,2.137-2.656-.344-6.665-4.588-10.355,2.372,2.8,3.359,5.543,1.761,7.529Z"/>
        <path class="cls-2" d="M30.832.606c-6.909,3.771,7.11,8.733-.075,14.683-3.173,2.628-5.29.372-7.206-2.128-1.211-1.579-2.342-3.254-3.608-3.857-.473-.225-.965-.301-1.488-.166-5.389,1.396-2.888,8.515-3.565,17.984l5.474.855c.591.092.995.646.903,1.237-.092.591-.646.995-1.237.902l-5.35-.835c-.1.809-.228,1.632-.389,2.468l5.355.836c.59.092.994.646.903,1.237-.092.591-.646.995-1.237.903l-5.498-.858c-.206.797-.445,1.602-.723,2.416l5.836.911c.591.092.995.646.902,1.237-.092.59-.646.995-1.236.902l-6.291-.982c-.691,1.646-1.55,3.317-2.621,5.003C6.814,47.861.166,56.104.002,61.958c-.024.863.167,3.297,3.351,2.791,11.847-1.883,36.729-29.91,51.275-48.053,1.57-1.958.773-4.873-1.806-7.484C46.579,2.891,35.062-1.703,30.832.606Z"/>
      </g>
    </g>
  </g>
</svg>