<?xml version="1.0" encoding="UTF-8"?>
<svg id="_레이어_2" data-name="레이어 2" xmlns="http://www.w3.org/2000/svg" viewBox="0 0 106.021 122.349">
  <defs>
    <style>
      .cls-1 {
        fill: #15282c;
        stroke-width: 0px;
      }
    </style>
  </defs>
  <g id="_레이어_1-2" data-name="레이어 1">
    <g>
      <path class="cls-1" d="M105.865,19.098c-.137-1.222-.922-2.257-2.257-2.257h-20.13c-1.562,0-2.442,1.433-2.177,2.857.459,2.485-2.29,2.955-4.879,2.861,1.542-3.633-.679-3.46-.679-3.46H29.672s-2.226-.173-.675,3.47c-2.392-.002-4.7-.579-4.275-2.871.263-1.424-.615-2.857-2.177-2.857H2.412c-1.334,0-2.12,1.035-2.256,2.257-.754,6.718,1.279,14.062,4.604,19.831,3.291,5.714,8.508,10.052,14.386,12.913,3.963,1.928,8.232,3.114,12.554,3.902,3.423.623,4.642.621,5.344,4.966.372,2.293,3.223,1.968,4.115.29,1.607,1.336,3.767,2.923,6.483,4.511.12,1.091.054,2.23-.577,2.784,0,0-4.874,2.968.312,5.936,0,0,.75,17.74-7.165,31.096,0,0-4.549.228-6.135,4.9,0,0-8.463,3.214-10.934,12.121h59.126c-2.475-8.907-10.937-12.121-10.937-12.121-1.518-4.615-6.133-4.9-6.133-4.9-7.917-13.357-7.168-31.096-7.168-31.096,5.188-2.968.313-5.936.313-5.936-.632-.555-.696-1.696-.577-2.788,2.978-1.743,5.288-3.48,6.935-4.89.63,2.001,3.877,2.553,4.274.093.701-4.345,1.921-4.343,5.343-4.966,4.321-.789,8.591-1.975,12.553-3.902,5.88-2.861,11.094-7.199,14.388-12.913,3.325-5.77,5.357-13.114,4.604-19.831ZM1.727,23.864c-.306-1.863-.554-3.737-.433-5.63.031-.48,1.478-.285,1.888-.302,1.155-.047,2.309-.088,3.465-.123,4.504-.133,9.01-.157,13.517-.129.855.005,1.909-.132,2.685.282,1.452.774.37,2.129.787,3.287.612,1.709,3.254,2.047,4.776,2.229.351.041.707.065,1.061.093.068.131.124.25.199.389l-.122.323c-3.911.11-7.983-.724-7.15-4.72.133-.656-1.019-.542-1.603-.539-1.893.012-3.785.025-5.68.012-4.389-.032-8.778-.116-13.163-.315-.236,1.699-.247,3.429-.227,5.141ZM4.53,21.355h15.741c.572,3.869,4.287,5.326,8.276,5.557l-.11.29s1.235,2.548,1.928,2.548c0,0,5.093,7.547,6.766,22.638-.14-.072-.283-.143-.431-.207-2.883-1.226-6.412-1.233-9.446-2.078-6.826-1.899-13.196-5.707-17.36-11.528-3.433-4.801-5.475-11.181-5.364-17.219ZM32.929,52.815c-3.197-.571-6.331-1.352-9.41-2.375-1.875-.624-3.714-1.495-5.408-2.502-2.828-1.681-5.039-4.071-7.127-6.58,1.822,1.828,3.636,3.767,5.837,5.151,1.683,1.058,3.43,1.926,5.256,2.702,1.055.448,2.177.782,3.273,1.118,3.254,1.035,6.903,1.495,10.008,2.368.703.01,1.317.199,1.856.505.02.198.039.397.058.598-1.277-.732-2.929-.732-4.345-.985ZM60.581,111.229h-20.354c-6.531,1.089-6.64,6.368-6.64,6.368.435,1.742,35.049,2.939,35.049,2.939H26.076c2.612-7.075,10.013-10.015,10.013-10.015.544-3.59,5.771-4.463,5.771-4.463,0,0,7.293-9.797,6.475-32.981,0,0-3.429-1.742,0-4.137,0,0,1.362-1.959,1.035-3.701,0,0,.762,2.285,0,2.939h5.443s-10.56.653-4.681,5.116c0,0,1.602,18.619-3.25,29.583-.941,2.449,9.563,3.18,9.563,3.18h-9.687c-5.878,0-4.027,3.484-4.027,3.484l17.851,1.687ZM40.321,28.648c3.733,12.04,3.387,25.958,3.387,25.958,0,1.65,9,2.344,9,2.344l-8.045-.087c2.518,6.165,11.372,8.109,11.372,8.109h-2.378c-4.622-1.729-9.105-4.327-12.03-8.38-.289-9.366-1.847-18.825-6.05-27.306,3.041,6.946,4.654,15.041,4.776,22.615.011.702.033,1.403.027,2.104-.008.943-.343,2.319.021,3.177,1.405,2.193,3.38,4.079,5.442,5.652.317.241.636.471.959.696-4.438-2.452-8.304-6.841-8.304-6.841.261-15.106-6.945-27.779-6.945-27.779-1.476-1.042-1.6-2.089-1.6-2.089l.875-3.033c-.81-2.605,0-2.946,0-2.946h43.756l-35.652,1.187c-1.563.695-.173,4.792-.173,4.792.955,1.736,26.218,1.828,26.218,1.828h-24.656ZM66.41,53.767c-.06.564-.116,1.127-.175,1.69-.079.762-.933,1.632-1.395,2.209-1.558,1.919-3.44,3.316-5.593,4.494,2.65-1.682,5.144-3.797,6.572-6.659.314-4.229.885-8.424,1.885-12.547.99-4.086,2.393-8.743,4.958-12.144-.121.162-.075.07.179-.25-1.596,2.338-2.619,5.244-3.438,7.954-.795,2.639-1.468,5.306-1.959,8.017-.436,2.401-.783,4.812-1.033,7.236ZM88.21,47.757c-1.79,1.1-3.707,1.968-5.684,2.673-2.948,1.053-6.017,1.747-9.091,2.321-1.574.296-3.583.245-4.935,1.197-.146.104-.274.221-.407.336.02-.213.041-.421.061-.632.673-.574,1.501-.939,2.508-.955,1.377-.387,3.266-.654,4.83-1.004,1.632-.365,3.247-.795,4.85-1.264,1.206-.353,2.409-.747,3.579-1.21,1.809-.714,3.53-1.612,5.174-2.646,2.241-1.41,4.087-3.356,5.94-5.216-2.008,2.413-4.129,4.741-6.826,6.399ZM96.126,38.574c-4.164,5.821-10.532,9.629-17.358,11.528-3.034.845-6.564.852-9.447,2.078-.39.166-.747.364-1.078.589,1.628-15.345,6.805-23.02,6.805-23.02.695,0,1.929-2.548,1.929-2.548l-.101-.264c4.21-.116,8.273-1.521,8.874-5.582h15.741c.111,6.038-1.932,12.418-5.365,17.219ZM104.295,23.864c.02-1.711.01-3.442-.227-5.141-4.258.193-8.518.287-12.779.312-1.898.011-3.794.005-5.691-.006-.611-.004-2.107-.198-1.98.527.747,4.224-3.711,4.94-7.756,4.719l-.12-.314c.066-.123.114-.226.175-.343.449-.025.898-.055,1.345-.101,1.579-.163,4.188-.434,5.024-2.043.584-1.122-.546-2.521.691-3.394.793-.558,1.96-.394,2.88-.4,4.378-.025,8.755-.005,13.131.119.575.016,5.712.035,5.728.293.124,1.946-.108,3.856-.423,5.772Z"/>
      <path class="cls-1" d="M62.546,11.228s.45-2.116-4.939-2.808c-.257-1.023-1.199-1.49-2.496-1.687.47-.402.763-.933.763-1.524,0-.401-.143-.773-.376-1.098.362-.729.578-1.531.578-2.203,0-1.702-1.373-1.908-3.067-1.908s-3.066.206-3.066,1.908c0,.672.215,1.475.58,2.203-.233.325-.377.697-.377,1.098,0,.57.276,1.084.717,1.481-1.454.167-2.531.614-2.822,1.703-5.636.658-5.174,2.835-5.174,2.835-8.798.232-12.04,6.251-12.04,6.251h43.756s-3.241-6.019-12.038-6.251ZM50.861,1.157c0-.234.789-.424,1.765-.424s1.76.19,1.76.424-.789.425-1.76.425-1.765-.19-1.765-.425ZM33.724,16.437s1.736-4.053,10.303-4.5c0,0-.315-2.802,4.778-2.687,0,0,.014-2.074,3.462-1.784,0,0-3.05.818-1.267,1.562l4.022.694-5.078.086s-3.633.955-2.503,2.128l9.955.506-11.17.399s-7.031.527-7.277,2.463l33.089,1.132h-38.313Z"/>
    </g>
  </g>
</svg>