<?xml version="1.0" encoding="UTF-8"?>
<svg id="_레이어_2" data-name="레이어 2" xmlns="http://www.w3.org/2000/svg" viewBox="0 0 67.785 111.027">
  <defs>
    <style>
      .cls-1 {
        fill: #040000;
        fill-rule: evenodd;
        stroke-width: 0px;
      }
    </style>
  </defs>
  <g id="_레이어_1-2" data-name="레이어 1">
    <path class="cls-1" d="M19.093,17.438c7.896,7.421,18.248,9.593,18.573,21.961.029,1.162-3.045,3.699-3.953,3.713-1.383-.508-3.114-.672-4.769-.672-3.352-4.006-7.595-5.771-11.674-7.595-2.238-2.602.037-5.08-1.2-7.81-1.033-2.816-5.583-10.498-2.732-13.127,2.167.178,4.042,2.071,5.754,3.53h0ZM49.374,27.489c-1.397.649-1.484,3.585-.473,4.627,1.557,1.605,9.531,6.214,12.073,8.322,3.274-.818,2.442-2.593-.238-3.699.238-.91,1.511-.636,1.985-.251,1.422,1.527,2.478-.659,3.715-1.038.803.69-.4,1.148-.418,1.765,1.257.618.509,1.729,1.639,2.387-.327.453.073.983.128,1.381-.912.818.144,1.952-1.422,2.57-.855-.366.565-2.113-.782-1.532-.22-.128-.382.055-.528.055-4.099,4.792-8.228,2.415-12.382-1.166-.839.37,2.887,5.075-4.39,8.944-1.882.997-2.844,3.114-5.025,4.115,1.093,3.059.455,5.789,2.369,9.104-.528,1.129.125,2.711-1.639,2.73-1.786.604-1.566,2.753-3.407,3.169-1.783.549-3.44-1.129-5.333-1.582-.951,13.04-6.427,21.019-3.77,29.917,2.055,6.886,9.39,8.903,9.705,10.887-.272.293-1.948.714-.4,1.002,1.424,3.205-15.441,1.285-17.3,1.038-.126-.343-.037-.508-.199-.91,1.129-.343,2.858.384,3.276-1.33-.125-.416-.635-.178-.91-.416-.016-.028,1.554-8.167-.601-16.333-1.454-5.51,1.842-8.103-.727-24.147-.583-4.591-4.463-9.996-.675-14.568-3.383-3.831-12.599-11.838-13.729-16.04-2.382-8.871,1.518-15.062-4.954-25.624C3.341,7.987-1.412,5.313.409,2.016,1.075.127,1.486-1.871,7.22,3.273c2.058,2.003,3.768,3.951,5.681,5.551,1.637.855,2.021.123,3.095,2.112,2.767,2.899,6.5,3.516,9.305,6.086,5.229,4.257,12.878,7.193,15.35,9.941.544.604,1.484.887,1.749-.238-1.355-.11-1.966-.75-2.24-1.82.437-.727.382-1.312.674-1.893-5.004-13.296,16.733-10.978,11.58-4.792.455.946.455,1.824.201,2.57.128,1.276,1.112,1.239,1.13,1.856-.092.617-1.591.773-.91,1.82,1.849,2.853-2.505,2.574-3.461,3.022h0Z"/>
  </g>
</svg>