<?xml version="1.0" encoding="UTF-8"?>
<svg id="_레이어_2" data-name="레이어 2" xmlns="http://www.w3.org/2000/svg" viewBox="0 0 104.322 90.182">
  <defs>
    <style>
      .cls-1 {
        fill: #231815;
        fill-rule: evenodd;
        stroke-width: 0px;
      }
    </style>
  </defs>
  <g id="_레이어_1-2" data-name="레이어 1">
    <g>
      <path class="cls-1" d="M24.644,25.085c-.217.594.182.508.514.414,1.617-.463,2.534-.299,2.298-2.083-.249-1.86-1.01-1.93-3.117-3.084-.795-1.043-2.661-2.828-3.458-3.87,1.4-.42,2.8-1.118,4.199-1.977-.602.549-1.208,1.099-1.809,1.648,0,.907.298,1.841.298,2.747.396.368.762.825,1.074,1.21,2.149.959,3.081,1.565,3.243,3.254.186,1.979-1.079,1.799-2.744,2.379-.422.15-1.19.12-.751-.791.076-.159.185-.424.096-.597.206.092.245.518.158.752ZM36.969,59.146H2.985l33.154-1.163c-.117-.497-.279-1.091-.647-1.581-.433-.577-.262-1.266.1-1.311-.529-1.723-1.151-2.967-1.775-4.004.987-.229,1.977-.449,2.969-.652.26,1.007.566,1.961.906,2.744.337-.429.627-.429,1.318.823.907.028,1.839.306,2.717.08.51-.13.95-.429,1.386-.744,1.216-.889,2.674-.27,1.447,1.154-.628.728-1.082,1.656-1.885,2.183-.689.452-1.64.276-2.386.619-1.015.463-1.821,1.32-2.842,1.772-.159.067-.323.08-.477.08ZM31.563,18.457c1-.775,2.164-.532,3.062-1.151.625-.432.622-1.54,1.308-1.865.287-.137.647.139,1.001.123.488-.026,1.199-.393,1.263.038.069.477.142,1.648-.098,2.209-.471,1.096-2.353.575-3.376,1.188-1.52.914-2.764,2.225-4.147,3.337-.03.926-.061,1.877-.167,2.521-.19,1.138-.103,2.513.206,3.622.477,1.729,1.693,3.174,2.303,4.858.617,1.693.906,3.486,1.359,5.228,1.118,1.816,1.918,3.176,1.563,5.599,0,.128.003.268.009.416-1.707.377-2.967,1.096-4.69,2.105-.033-.078-.064-.156-.091-.237-.483-1.286.3-2.825-.166-4.116-.64-1.776-2.033-3.184-3.047-4.774.164-1.456,1.687-4.844,1.687-7.286-.91,5.156-3.68,9.051-6.381,13.295-.582.918-1.634,1.085-2.88.906-3.474-.499-8.608.008-12.186.165.349.646-.086.646-1.141.931-.627.404-1.065,1.23-1.575,1.949-.77,1.085-.419,1.69-.627,2.331-.538,1.656-1.168,1.271-1.533-.196-.104-.41-.363-.811-.307-1.23.122-.939.728-1.776.822-2.718.103-1.037.044-2.083-.014-3.126-.069-1.227.667-1.263,1.615-1.277.535-.008,1.151-.207,1.693-.123.287.042.438.382.658.575,3.853-.028,7.266-2.036,9.221-2.058,1.023-.011,1.974.55,2.961.823,1.648-2.702,1.606-6.394,3.212-9.467-1.185-1.982-.212-6.018.79-7.975.025.128.105.293.226.404-.074-.209-.213-.502-.071-.831-2.182-2.677-5.191-3.466-7.631-5.655-.446-.401-.315-1.65.371-2.183,1.891-1.467,4.158-2.111,5.558-3.374,1.001-1.032,1.371-1.478,3.539-2.222.686-.859.502-.865.535-1.977-.079-.248-.377.095-.477-.125-.75-1.665-1.688-3.215-.268-4.808-.347-1.157,1.745-2.445,4.198-2.295,2.212.137,3.576,1.916,4.381,1.913-.226,1.188-1.299.527-1.077,1.049.148.351-.086,1.294-.019,1.715-.05.34-.34.237-.36.404-.008.075.111.125.209.44.098.32.277.619.427.923.345.686.108.881-.698.753-.07.168.076.26.025.404-.049.148-.24.095-.278.218-.028.083.179.159.153.231-.033.089-.238.173-.243.268-.042.742-.427.954-1.043.806-.123-.028-.279-.113-.438-.204-.967-.544-1.28.77-1.182,1.539.137,1.088.78,1.877,1.098,2.724.469,1.249.455,2.652.511,3.957.05,1.123-.446,1.67-.622,3.053-.05.393-.075.898-.098,1.441.184-1.104.544-2.061.965-3.19Z"/>
      <path class="cls-1" d="M64.397,59.197h-25.978l21.098-.962c-1.551-.08-2.273-.167-1.927-1.456.234-.87.069-1.735.751-2.337.385-1.472.56-3.25.412-5.203,1.191-.371,2.376-.753,3.56-1.138-.409,1.865-.744,3.772-1.061,5.945-.089.611.574-.243.772.393.114.36.136.878.889,1.43.87.332,1.366,1.132,2.296,1.199,1.285.095,3.332.184,1.435,1.345-.75.457-1.339.783-2.248.783ZM52.515,3.971c2.013-.161,4.261-.044,4.181,1.782.197.589.393,1.18.591,1.771-.036.159-.075.318-.111.477-.073.179-.148.357-.221.535.215.511.43,1.021.645,1.531-.061.112-.122.22-.184.332-.204.061-.405.123-.608.184.036.162.073.321.111.48-.186.036-.371.075-.555.111.105.128.209.257.315.388-.1.139-.197.282-.295.424.026.24.048.479.073.72-.148.139-.293.281-.441.423-.442-.013-.887-.025-1.331-.036-.942.449-2.007.967-2.082,1.971-.12,1.634,3.232,4.27.903,7.083-.182,2.03-.508,3.413-.985,5.396.505-1.076.834-2.339,1.071-3.703l1.944-2.69c.483-.666.39-1.617.939-2.231.513-.569,2.399-.231,2.894.279.41.418.388.784.112.885-.195.069-.435.05-.591.184-.209.181-.262.491-.44.7-.438.507-1.266.424-1.734.904-1.222,1.296-1.411,4.949-4.314,6.878-.062.394-.124.787-.184,1.18,4.795,2.917,7.373,4.835,11.541,8.594.943.848.725,1.734.444,2.618l-.14.446c-.179.039-.371.059-.586.067-.948.03-1.545-.011-2.485.315-.686.24-1.293.583-1.868.971.045-.176.083-.351.123-.527.064-.299.165-.563-.146-.734-3.24-1.785-6.073-2.164-9.171-4.236.284-.934.499-2.138.594-3.357-1.91,6.773-3.399,7.791-7.303,13.533-.669.984-1.368,1.6-2.286,1.661-1.194.079-2.401.1-3.577.332-3.481.68-6.908,1.598-10.362,2.395-.385.467-.642.492-.331.94-.235.505-1.735.806-2.287.999-.577.755-1.335,1.305-1.899,2.046-.151.196-.262.413-.365.639-.418.925-1.293,1.469-1.364.044-.038-.778-.111-1.558.123-2.289.382-1.185,1.356-2.096,1.919-3.207.8-1.581.206-2.487,1.882-2.361.546.042,1.299.675,1.695,1.071,1.388-.678,2.83-1.255,4.165-2.03,3.411-1.974,4.549-2.78,7.931-2.874.435-.015.742-.371.959-.776,1.461-2.733,2.102-5.892,3.762-8.223-.161-1.428-.602-3.352-.075-4.685,1.032-2.596,3.962-4.467,3.578-7.451-.145-1.62-.663-3.135-.808-4.757.908-.407,1.793-.996,2.653-1.77-1.695,1.026-2.467,1.369-3.978,2.063-.754.346-1.551-.039-1.935,1.168-.658,2.069-1.512,4.088-1.977,6.21-.223,1.01.12,2.083-.075,3.098-.374,1.941-1.846,1.765-3.17,1.18-.381-.167.409-.973.959-.94.918.056.149-2.323.146-3.19,0-.329.059-.675.223-.959.193-.329.541-.54.811-.811.772-2.014.256-3.768.772-5.597.215-.762.371-1.453,1.018-1.938,1.531-1.146,2.983-2.393,4.589-2.975.62-.225,1.252-1.185,1.864-1.439,1.215-.507,3.284-.733,1.609-2.42-.279-.279-.486-.809-.486-1.414-1.665.12-2.325,2.88-2.849,1.035-.689-2.429.15-2.669,2.863-3.062.639-1.467,1.805-3.214,3.6-3.358Z"/>
      <path class="cls-1" d="M90.354,19.467c-.346,1.623-1.573,2.583-2.359,3.873-.653-1.121-1.893-1.907-1.955-3.357-.061-.259-.123-.516-.184-.775-1.023-2.128-1.639-1.698-2.805-2.803-.675-.479-.834-1.327-1.511-1.806.248-.465.605-.195,1.043-.129.499.076.728-.323.691-.627-.123-.989.577-.225-.05-.976.083-.025.396-.056.413-.145.036-.173-.098-.312-.068-.483.21-.111.519-.002.645-.203.2-.326-.661-.634-.497-1.051.059-.098.162-.187.202-.304.281-.848-.045-2.13-.644-2.646-.549-1.671-3.812-2.624-5.421-1.919-.235-.245-.362-.72-.703-.736-1.646-.087-2.655,1.235-1.991,2.727.19.427.886.295,1.327.443-.284.823-.189,1.774.627,2.398.742.563.442,2.041.112,2.803-.934.343-1.869.688-2.803,1.031-3.8,1.327-5.543.65-10.142,2.841-.404.193-.522.77-.479,1.216.243,2.562,2.468,5.257,3.522,7.596.148.332.204.708.184,1.071-.031.575-.693,1.085-.683,1.659.014.652.407,1.266.407,1.918,0,.229-.438.326-.407.552.037.243.371.321.555.48.959-.156,1.67-.385,1.908-1.383,1.062-4.447-1.389-5.934-2.02-11.193,1.153-.017,2.231-.315,3.21-.293,2.535.056,2.808.457,5.273-.148-.53.41-1.335.767-2.066.828.53,1.366,1.205,2.969,1.734,4.333.229,2.537-1.69,4.807-2.841,6.196-.759.915-1.249,2.797-1.032,3.982-2.631,2.261-3.564,5.577-6.084,7.267-1.678,1.121-2.429.293-4.241.92-2.005.697-3.47,2.487-5.385,3.394-1.386.655-2.783,1.372-4.317,1.327-1.366-.039-1.491-.766-2.206-.586-2.345.594-.92,2.538-1.296,3.555-.524,1.417-1.375,2.435-1.771,3.89-.192.709.076,1.441.281,2.172.302,1.071.976.295,1.174-.106.299-.594-.106-1.129.24-1.698.609-.993,1.724-1.573,2.582-2.36.393-.244,1.525-.223,1.458-.683-.094-.633-.412-.75-.203-1.012,4.208-1.087,8.043-2.325,12.169-3.689,1.944-.075,1.637.142,3.173-1.032,3.633-2.15,6.068-4.088,9.331-6.787-.812-.756-1.514-1.547-2.178-2.359,3.588,3.117,3.982,2.766,8.557,4.057,1.316.34,2.635.68,3.954,1.021.796.203.988-.064.982.786-.003,1.099.059,3.422.449,4.35.354.845,1.137,1.324,1.476,2.177.557,1.419,1.547,4.821,2.074,6.695.084.728-.165,1.598-.165,2.349l-25.489,1.163h26.162c.672,0,1.703-.79,2.524-.89,1.138-.139,2.493.775,3.616.54.885-.186,1.655-.704,2.434-1.184,1.417-.867.386-1.384-.76-1.129-.457.1-1.57.231-1.999.042-.853-.374-1.626-.895-2.164-1.635-.664-.908-.582-1.238-1.394-.452-1.668-3.058-2.156-8.429-2.995-13.022.1-2.437.156-2.331-1.843-3.837-2.588-1.944-5.655-3.146-8.483-4.721-.569-.31-.8-.544-.59-1.202.418-1.313.953-2.579,1.475-3.812,1.464-3.46,2.1-4.13,2.286-7.894.235,1.202.235,2.303-.136,3.605,1.071,1.897,2.203,3.302,4.119,4.214.254.12.519.189.666-.073,1.646-2.928,2.167-6.26,3.134-7.966,2.463-1.615,1.512-1.478,1.772-3.115.044-.295-.945-.87-1.238-.812-.414.081-.226.402-.645.46-.24.033-.301-.243-.515-.128-.86.446-1.125,2.35-1.18,3.226Z"/>
      <path class="cls-1" d="M104.322,62.222l-2.326,19.042h-4.333l-1.516-8.657-1.061,8.657h-4.14l2.329-19.042h4.14l1.721,8.575,1.049-8.575h4.138ZM85.854,67.13c.108-.883.128-1.447.063-1.698-.066-.243-.247-.368-.545-.368-.251,0-.458.1-.617.301-.155.196-.297.786-.417,1.765l-1.085,8.887c-.136,1.102-.176,1.785-.117,2.041.055.263.245.391.565.391.33,0,.56-.151.689-.446.128-.299.259-1.007.396-2.128l1.069-8.744ZM90.048,73.385c-.235,1.912-.444,3.265-.633,4.059-.184.797-.555,1.525-1.107,2.184-.555.655-1.258,1.163-2.109,1.514-.85.354-1.809.53-2.88.53-1.021,0-1.91-.167-2.68-.502-.769-.332-1.363-.828-1.771-1.495-.412-.666-.617-1.391-.617-2.175.003-.786.123-2.158.363-4.115l.399-3.257c.234-1.915.443-3.266.632-4.06.184-.8.555-1.526,1.107-2.183.555-.658,1.261-1.163,2.108-1.517.851-.352,1.809-.53,2.88-.53,1.021,0,1.91.17,2.68.502.769.335,1.363.831,1.77,1.497.413.667.616,1.391.616,2.176-.003.786-.123,2.158-.363,4.115l-.398,3.257ZM78.121,62.222l-2.328,19.042h-4.958l.977-7.992h-1.442l-.979,7.992h-4.958l2.327-19.042h4.959l-.834,6.812h1.445l.834-6.812h4.958ZM65.63,62.222l-.467,3.803h-2.911l-1.862,15.239h-4.961l1.866-15.239h-2.939l.466-3.803h10.808ZM49.183,74.475c.028-2.159.105-4.83.232-8.019-.937,3.658-1.573,6.332-1.913,8.019h1.682ZM53.31,62.222l.505,19.042h-5.061l.15-3.419h-1.784l-.689,3.419h-5.123l4.84-19.042h7.162ZM36.367,65.473l-.518,4.236c.555,0,.948-.075,1.188-.229.239-.153.412-.649.515-1.489l.128-1.046c.074-.605.015-1.004-.175-1.193-.19-.187-.572-.279-1.138-.279ZM31.806,62.222h3.502c2.336,0,3.907.09,4.709.27.806.182,1.423.642,1.852,1.383.432.739.55,1.921.351,3.544-.181,1.478-.488,2.473-.921,2.984-.427.51-1.19.814-2.286.914.95.245,1.573.57,1.859.979.288.403.45.783.488,1.123.042.34-.033,1.28-.22,2.816l-.614,5.027h-4.598l.775-6.335c.122-1.02.12-1.65-.012-1.894-.125-.244-.527-.365-1.207-.365l-1.048,8.594h-4.961l2.329-19.042ZM23.998,74.475c.027-2.159.107-4.83.231-8.019-.936,3.658-1.573,6.332-1.912,8.019h1.681ZM28.124,62.222l.503,19.042h-5.059l.151-3.419h-1.787l-.686,3.419h-5.122l4.837-19.042h7.163ZM17.587,62.222l-2.326,19.042h-4.333l1.558-12.855-3.293,12.855h-3.031l-.282-12.567-1.548,12.567H0l2.329-19.042h6.397c.041,1.152.072,2.509.095,4.058l.112,4.835,2.213-8.892h6.442Z"/>
      <path class="cls-1" d="M85.89,87.683l.959-.172,1.135,2.615h-1.086l-1.009-2.442ZM84.548,84.613h.906l-.655,5.512h-.903l.652-5.512ZM84.643,86.986h1.895c.129,0,.243-.031.347-.092.105-.061.192-.151.256-.269.067-.11.111-.244.131-.395.019-.149.008-.279-.033-.393-.039-.112-.104-.201-.193-.263-.089-.062-.2-.092-.326-.092h-1.899l.104-.87h1.924c.313,0,.575.069.798.203.217.134.379.324.48.566.097.246.128.527.089.848-.036.323-.136.607-.293.853-.161.245-.368.435-.619.569-.251.134-.53.201-.839.201h-1.923l.102-.867ZM78.205,84.618h3.24l-.103.868h-3.24l.103-.868ZM77.929,86.955h2.822l-.103.867h-2.823l.104-.867ZM77.653,89.259h3.24l-.103.867h-3.237l.1-.867ZM77.831,84.618h.904l-.653,5.507h-.907l.656-5.507ZM71.256,84.618h3.962l-.102.868h-3.963l.103-.868ZM72.732,85.07h.906l-.602,5.056h-.903l.599-5.056ZM64.5,84.618h.984l1.869,4.239-.104.098.513-4.337h.881l-.655,5.505h-.992l-1.869-4.175.106-.1-.51,4.274h-.878l.655-5.505ZM58.156,84.618h3.238l-.103.868h-3.237l.103-.868ZM57.877,86.955h2.821l-.103.867h-2.821l.103-.867ZM57.604,89.259h3.237l-.103.867h-3.237l.103-.867ZM57.779,84.618h.906l-.655,5.507h-.903l.653-5.507ZM52.077,90.182c-.398,0-.736-.081-1.009-.248-.273-.164-.474-.402-.594-.708-.12-.309-.156-.675-.105-1.096l.179-1.512c.05-.42.173-.786.368-1.096.196-.31.449-.546.765-.713.312-.165.669-.248,1.068-.248.331,0,.622.073.875.213.251.142.452.345.597.614.144.268.228.579.254.945h-.934c-.023-.176-.078-.333-.159-.463-.083-.134-.186-.238-.315-.306-.125-.07-.268-.107-.424-.107-.209,0-.396.049-.561.142-.164.095-.299.229-.401.405-.101.172-.168.38-.196.616l-.179,1.512c-.031.234-.011.44.048.613.06.173.164.309.303.402.145.092.319.142.53.142.159,0,.31-.036.451-.103.146-.067.271-.165.386-.296.115-.134.204-.289.27-.473h.932c-.109.362-.271.678-.48.942-.212.265-.459.468-.744.611-.284.146-.591.215-.923.215ZM42.24,84.618h3.962l-.103.868h-3.963l.103-.868ZM43.718,85.07h.907l-.603,5.056h-.904l.6-5.056ZM37.198,87.683l.962-.172,1.135,2.615h-1.087l-1.01-2.442ZM35.859,84.613h.907l-.655,5.512h-.907l.655-5.512ZM35.952,86.986h1.899c.126,0,.243-.031.346-.092.103-.061.189-.151.256-.269.067-.11.111-.244.131-.395.017-.149.006-.279-.033-.393-.039-.112-.104-.201-.193-.263-.092-.062-.2-.092-.329-.092h-1.899l.103-.87h1.924c.312,0,.577.069.797.203.22.134.38.324.48.566.1.246.131.527.092.848-.039.323-.136.607-.296.853-.159.245-.366.435-.616.569-.254.134-.532.201-.842.201h-1.924l.103-.867ZM30.077,89.281c.206,0,.393-.044.563-.136.167-.09.304-.22.409-.387.106-.165.172-.36.197-.577l.193-1.614c.025-.221.006-.413-.059-.584-.067-.164-.172-.294-.32-.386-.148-.09-.323-.134-.53-.134-.21,0-.396.043-.564.134-.167.092-.303.223-.41.386-.106.171-.173.363-.198.584l-.192,1.614c-.025.217-.005.412.061.577.067.167.174.298.319.387.145.092.32.136.53.136ZM29.967,90.182c-.389,0-.724-.084-1.003-.251s-.48-.404-.608-.713c-.128-.304-.169-.661-.12-1.066l.184-1.559c.05-.403.173-.761.373-1.067.201-.307.46-.544.778-.711.317-.167.672-.254,1.065-.254.39,0,.725.087,1.003.254.279.167.483.404.611.711.125.306.165.664.117,1.067l-.187,1.559c-.047.405-.17.761-.371,1.066-.198.31-.458.546-.778.713-.319.167-.676.251-1.066.251ZM21.859,84.618h.903l-.655,5.507h-.903l.655-5.507ZM21.996,87.123h1.762c.146,0,.28-.036.396-.103.117-.067.215-.165.293-.287.076-.125.123-.266.142-.425.02-.164.006-.309-.039-.432-.048-.125-.12-.221-.223-.288-.103-.069-.229-.102-.376-.102h-1.761l.103-.868h1.734c.337,0,.625.07.865.209.237.14.412.338.524.595.109.257.143.55.104.886-.039.335-.145.631-.315.885-.171.253-.39.448-.664.588-.273.14-.578.209-.915.209h-1.734l.103-.867ZM16.031,90.182c-.262,0-.513-.025-.75-.078-.241-.05-.46-.129-.662-.232-.201-.1-.382-.226-.54-.371l.566-.725c.192.179.413.312.666.407.257.092.53.139.824.139.367,0,.66-.067.88-.197.218-.131.343-.318.371-.555v-.005c.019-.167-.008-.304-.09-.401-.078-.1-.189-.173-.328-.221-.143-.047-.325-.092-.55-.13-.006-.003-.014-.003-.022-.003-.009,0-.015-.002-.022-.002l-.067-.014c-.36-.061-.655-.131-.882-.214-.228-.084-.413-.232-.555-.447-.14-.214-.187-.519-.14-.912v-.005c.041-.35.154-.647.34-.896.185-.245.436-.435.75-.563.314-.129.678-.192,1.099-.192.196,0,.39.022.583.067.192.044.379.109.563.192.182.084.355.189.513.318l-.527.744c-.192-.151-.394-.264-.603-.346-.209-.077-.421-.116-.632-.116-.346,0-.622.064-.829.192-.209.129-.326.308-.354.542v.002c-.019.174.011.309.1.41.09.1.203.174.343.221.143.05.34.098.599.148.011.003.02.006.028.008.009,0,.02.002.028.002.014.003.031.006.042.012.014.002.028.008.042.008.334.069.608.151.826.245.217.095.39.248.518.46.125.212.168.502.125.87l-.003.008c-.038.343-.153.636-.345.881-.19.243-.446.43-.77.558-.323.128-.703.192-1.138.192Z"/>
    </g>
  </g>
</svg>