<?xml version="1.0" encoding="UTF-8"?>
<svg id="_레이어_2" data-name="레이어 2" xmlns="http://www.w3.org/2000/svg" viewBox="0 0 85.162 72.031">
  <defs>
    <style>
      .cls-1 {
        fill: #131514;
        fill-rule: evenodd;
        stroke-width: 0px;
      }
    </style>
  </defs>
  <g id="_레이어_1-2" data-name="레이어 1">
    <path class="cls-1" d="M33.115,5.8c9.144,0,17.423,3.707,23.416,9.699.875.875,1.701,1.798,2.473,2.766l9.15-6.573.14-3.923,10.857-7.771-.232,6.517,6.243,1.883-10.857,7.77-2.995-.903-9.618,6.908c2.884,4.912,4.538,10.633,4.538,16.741,0,9.144-3.707,17.423-9.699,23.416-5.992,5.993-14.272,9.699-23.416,9.699s-17.423-3.707-23.416-9.699C3.707,56.339,0,48.06,0,38.916S3.707,21.492,9.699,15.5c5.993-5.993,14.271-9.699,23.416-9.699h0ZM33.115,31.244c1.962,0,3.752.737,5.109,1.949l5.41-3.887c-.145-.158-.293-.314-.445-.465-2.578-2.578-6.14-4.173-10.075-4.173s-7.497,1.595-10.075,4.173c-2.578,2.578-4.173,6.14-4.173,10.075s1.595,7.497,4.173,10.075c2.578,2.578,6.14,4.173,10.075,4.173s7.497-1.595,10.075-4.173c2.578-2.578,4.173-6.14,4.173-10.075,0-1.996-.411-3.896-1.152-5.621l-5.592,4.017c.11.517.168,1.054.168,1.604,0,2.118-.859,4.036-2.247,5.425-1.388,1.388-3.307,2.247-5.425,2.247s-4.036-.859-5.425-2.247c-1.389-1.388-2.247-3.307-2.247-5.425s.859-4.036,2.247-5.425c1.388-1.388,3.306-2.247,5.425-2.247h0ZM47.521,26.515l7.611-5.467c-.618-.761-1.275-1.489-1.967-2.182-5.131-5.131-12.22-8.305-20.05-8.305s-14.919,3.174-20.05,8.305c-5.131,5.131-8.305,12.22-8.305,20.05s3.174,14.919,8.305,20.05c5.131,5.131,12.22,8.305,20.05,8.305s14.919-3.174,20.05-8.305c5.131-5.131,8.305-12.22,8.305-20.05,0-5.071-1.331-9.831-3.663-13.95l-7.659,5.502c1.265,2.545,1.976,5.413,1.976,8.448,0,5.248-2.128,10.001-5.567,13.441-3.44,3.44-8.192,5.567-13.441,5.567s-10.001-2.128-13.441-5.567c-3.44-3.44-5.567-8.192-5.567-13.441s2.128-10.001,5.567-13.441c3.44-3.44,8.192-5.567,13.441-5.567s10.001,2.128,13.441,5.567c.334.335.656.681.965,1.04Z"/>
  </g>
</svg>