<?xml version="1.0" encoding="UTF-8"?>
<svg id="_레이어_2" data-name="레이어 2" xmlns="http://www.w3.org/2000/svg" viewBox="0 0 109.521 42.252">
  <defs>
    <style>
      .cls-1 {
        fill-rule: evenodd;
      }

      .cls-1, .cls-2 {
        fill: #131514;
        stroke-width: 0px;
      }
    </style>
  </defs>
  <g id="_레이어_1-2" data-name="레이어 1">
    <g>
      <g>
        <path class="cls-1" d="M17.421,6.03h3.921c1.168,0,2.229.477,2.997,1.244.768.768,1.244,1.829,1.244,2.997v27.74c0,1.168-.477,2.229-1.244,2.997-.768.768-1.829,1.244-2.997,1.244h-3.921c-1.168,0-2.229-.477-2.997-1.244-.768-.768-1.244-1.829-1.244-2.997V10.271c0-1.168.477-2.229,1.244-2.997.768-.768,1.829-1.244,2.997-1.244h0ZM21.343,9.61h-3.921c-.18,0-.345.075-.465.195-.121.121-.196.286-.196.465v27.74c0,.18.075.345.196.465.121.121.285.196.465.196h3.921c.18,0,.345-.075.465-.196s.195-.286.195-.465V10.271c0-.18-.075-.345-.195-.465-.121-.12-.286-.195-.465-.195Z"/>
        <path class="cls-1" d="M9.352,9.649h3.117c1.022,0,1.955.42,2.635,1.097l.003.004.003.003c.677.68,1.097,1.613,1.097,2.635v21.506c0,1.022-.42,1.955-1.097,2.635l-.003.003-.003.003c-.68.677-1.613,1.097-2.635,1.097h-3.117c-1.022,0-1.955-.42-2.635-1.097l-.003-.003-.003-.003c-.677-.68-1.097-1.613-1.097-2.635V13.388c0-1.022.42-1.955,1.097-2.635l.003-.003.003-.004c.68-.677,1.613-1.097,2.635-1.097h0ZM12.47,13.23h-3.117c-.046,0-.085.016-.11.041l-.007.007c-.025.025-.041.064-.041.11v21.506c0,.046.016.085.041.11l.007.007c.025.025.064.041.11.041h3.117c.046,0,.085-.016.11-.041l.007-.007c.025-.025.041-.064.041-.11V13.388c0-.046-.016-.085-.041-.11l-.007-.007c-.025-.025-.064-.041-.11-.041Z"/>
        <rect class="cls-2" x="23.32" y="22.124" width="63.658" height="4.034"/>
        <path class="cls-1" d="M3.192,14.65h2.243c.88,0,1.678.359,2.256.936.578.578.936,1.376.936,2.256v12.598c0,.88-.359,1.678-.936,2.256-.578.577-1.376.936-2.256.936h-2.243c-.88,0-1.678-.359-2.256-.936-.578-.578-.936-1.376-.936-2.256v-12.598c0-.88.359-1.678.936-2.256.578-.578,1.376-.936,2.256-.936h0ZM5.047,18.23h-1.466v11.821h1.466v-11.821Z"/>
        <path class="cls-1" d="M92.1,6.03h-3.922c-1.168,0-2.229.477-2.997,1.244-.768.768-1.244,1.829-1.244,2.997v27.74c0,1.168.477,2.229,1.244,2.997.768.768,1.829,1.244,2.997,1.244h3.922c1.168,0,2.229-.477,2.997-1.244.768-.768,1.244-1.829,1.244-2.997V10.271c0-1.168-.477-2.229-1.244-2.997-.768-.768-1.829-1.244-2.997-1.244h0ZM88.179,9.61h3.922c.18,0,.345.075.465.195.121.121.196.286.196.465v27.74c0,.18-.075.345-.196.465-.121.121-.285.196-.465.196h-3.922c-.18,0-.345-.075-.465-.196-.12-.121-.195-.286-.195-.465V10.271c0-.18.075-.345.195-.465.121-.12.286-.195.465-.195Z"/>
        <path class="cls-1" d="M100.169,9.649h-3.117c-1.022,0-1.955.42-2.635,1.097l-.003.004-.004.003c-.677.68-1.097,1.613-1.097,2.635v21.506c0,1.022.42,1.955,1.097,2.635l.004.003.003.003c.68.677,1.613,1.097,2.635,1.097h3.117c1.022,0,1.955-.42,2.635-1.097l.003-.003.004-.003c.677-.68,1.097-1.613,1.097-2.635V13.388c0-1.022-.42-1.955-1.097-2.635l-.004-.003-.003-.004c-.68-.677-1.613-1.097-2.635-1.097h0ZM97.052,13.23h3.117c.046,0,.085.016.11.041l.007.007c.025.025.041.064.041.11v21.506c0,.046-.016.085-.041.11l-.007.007c-.025.025-.064.041-.11.041h-3.117c-.046,0-.085-.016-.11-.041l-.007-.007c-.025-.025-.041-.064-.041-.11V13.388c0-.046.016-.085.041-.11l.007-.007c.025-.025.064-.041.11-.041Z"/>
        <path class="cls-1" d="M106.329,14.65h-2.243c-.88,0-1.678.359-2.256.936-.578.578-.936,1.376-.936,2.256v12.598c0,.88.359,1.678.936,2.256s1.376.936,2.256.936h2.243c.88,0,1.678-.359,2.256-.936.578-.578.936-1.376.936-2.256v-12.598c0-.88-.359-1.678-.936-2.256-.578-.578-1.376-.936-2.256-.936h0ZM104.475,18.23h1.466v11.821h-1.466v-11.821Z"/>
      </g>
      <polygon class="cls-1" points="54.761 0 56.01 3.872 60.078 3.864 56.783 6.249 58.047 10.115 54.761 7.718 51.474 10.115 52.738 6.249 49.442 3.864 53.511 3.872 54.761 0"/>
      <polygon class="cls-1" points="40.01 3.175 40.867 5.832 43.658 5.826 41.397 7.463 42.265 10.115 40.01 8.471 37.755 10.115 38.622 7.463 36.361 5.826 39.152 5.832 40.01 3.175"/>
      <polygon class="cls-1" points="69.511 3.175 70.369 5.832 73.16 5.826 70.899 7.463 71.766 10.115 69.511 8.471 67.256 10.115 68.124 7.463 65.862 5.826 68.654 5.832 69.511 3.175"/>
    </g>
  </g>
</svg>